%TF.GenerationSoftware,KiCad,Pcbnew,7.0.6*%
%TF.CreationDate,2023-07-27T20:42:59+01:00*%
%TF.ProjectId,Crenshaw,4372656e-7368-4617-972e-6b696361645f,V2.0*%
%TF.SameCoordinates,Original*%
%TF.FileFunction,Copper,L2,Bot*%
%TF.FilePolarity,Positive*%
%FSLAX46Y46*%
G04 Gerber Fmt 4.6, Leading zero omitted, Abs format (unit mm)*
G04 Created by KiCad (PCBNEW 7.0.6) date 2023-07-27 20:42:59*
%MOMM*%
%LPD*%
G01*
G04 APERTURE LIST*
G04 Aperture macros list*
%AMRoundRect*
0 Rectangle with rounded corners*
0 $1 Rounding radius*
0 $2 $3 $4 $5 $6 $7 $8 $9 X,Y pos of 4 corners*
0 Add a 4 corners polygon primitive as box body*
4,1,4,$2,$3,$4,$5,$6,$7,$8,$9,$2,$3,0*
0 Add four circle primitives for the rounded corners*
1,1,$1+$1,$2,$3*
1,1,$1+$1,$4,$5*
1,1,$1+$1,$6,$7*
1,1,$1+$1,$8,$9*
0 Add four rect primitives between the rounded corners*
20,1,$1+$1,$2,$3,$4,$5,0*
20,1,$1+$1,$4,$5,$6,$7,0*
20,1,$1+$1,$6,$7,$8,$9,0*
20,1,$1+$1,$8,$9,$2,$3,0*%
G04 Aperture macros list end*
%TA.AperFunction,ComponentPad*%
%ADD10R,1.700000X1.700000*%
%TD*%
%TA.AperFunction,ComponentPad*%
%ADD11O,1.700000X1.700000*%
%TD*%
%TA.AperFunction,ComponentPad*%
%ADD12C,4.000000*%
%TD*%
%TA.AperFunction,SMDPad,CuDef*%
%ADD13RoundRect,0.135000X0.135000X0.185000X-0.135000X0.185000X-0.135000X-0.185000X0.135000X-0.185000X0*%
%TD*%
%TA.AperFunction,SMDPad,CuDef*%
%ADD14RoundRect,0.225000X0.250000X-0.225000X0.250000X0.225000X-0.250000X0.225000X-0.250000X-0.225000X0*%
%TD*%
%TA.AperFunction,SMDPad,CuDef*%
%ADD15RoundRect,0.112500X0.187500X0.112500X-0.187500X0.112500X-0.187500X-0.112500X0.187500X-0.112500X0*%
%TD*%
%TA.AperFunction,SMDPad,CuDef*%
%ADD16RoundRect,0.225000X-0.225000X-0.250000X0.225000X-0.250000X0.225000X0.250000X-0.225000X0.250000X0*%
%TD*%
%TA.AperFunction,SMDPad,CuDef*%
%ADD17R,0.800000X2.700000*%
%TD*%
%TA.AperFunction,SMDPad,CuDef*%
%ADD18RoundRect,0.150000X0.587500X0.150000X-0.587500X0.150000X-0.587500X-0.150000X0.587500X-0.150000X0*%
%TD*%
%TA.AperFunction,SMDPad,CuDef*%
%ADD19R,0.300000X0.800000*%
%TD*%
%TA.AperFunction,SMDPad,CuDef*%
%ADD20R,0.400000X0.800000*%
%TD*%
%TA.AperFunction,SMDPad,CuDef*%
%ADD21RoundRect,0.225000X0.225000X0.250000X-0.225000X0.250000X-0.225000X-0.250000X0.225000X-0.250000X0*%
%TD*%
%TA.AperFunction,SMDPad,CuDef*%
%ADD22RoundRect,0.112500X-0.187500X-0.112500X0.187500X-0.112500X0.187500X0.112500X-0.187500X0.112500X0*%
%TD*%
%TA.AperFunction,SMDPad,CuDef*%
%ADD23RoundRect,0.140000X0.140000X0.170000X-0.140000X0.170000X-0.140000X-0.170000X0.140000X-0.170000X0*%
%TD*%
%TA.AperFunction,SMDPad,CuDef*%
%ADD24RoundRect,0.140000X-0.140000X-0.170000X0.140000X-0.170000X0.140000X0.170000X-0.140000X0.170000X0*%
%TD*%
%TA.AperFunction,SMDPad,CuDef*%
%ADD25RoundRect,0.140000X0.170000X-0.140000X0.170000X0.140000X-0.170000X0.140000X-0.170000X-0.140000X0*%
%TD*%
%TA.AperFunction,SMDPad,CuDef*%
%ADD26R,1.000000X1.500000*%
%TD*%
%TA.AperFunction,SMDPad,CuDef*%
%ADD27RoundRect,0.135000X-0.135000X-0.185000X0.135000X-0.185000X0.135000X0.185000X-0.135000X0.185000X0*%
%TD*%
%TA.AperFunction,SMDPad,CuDef*%
%ADD28R,0.800000X0.400000*%
%TD*%
%TA.AperFunction,SMDPad,CuDef*%
%ADD29R,0.800000X0.300000*%
%TD*%
%TA.AperFunction,SMDPad,CuDef*%
%ADD30RoundRect,0.150000X0.512500X0.150000X-0.512500X0.150000X-0.512500X-0.150000X0.512500X-0.150000X0*%
%TD*%
%TA.AperFunction,SMDPad,CuDef*%
%ADD31RoundRect,0.200000X0.275000X-0.200000X0.275000X0.200000X-0.275000X0.200000X-0.275000X-0.200000X0*%
%TD*%
%TA.AperFunction,ViaPad*%
%ADD32C,0.600000*%
%TD*%
%TA.AperFunction,Conductor*%
%ADD33C,0.300000*%
%TD*%
%TA.AperFunction,Conductor*%
%ADD34C,0.200000*%
%TD*%
G04 APERTURE END LIST*
D10*
%TO.P,J1,1,Pin_1*%
%TO.N,+5V*%
X35000000Y-32380000D03*
D11*
%TO.P,J1,2,Pin_2*%
%TO.N,GND*%
X35000000Y-34920000D03*
%TO.P,J1,3,Pin_3*%
%TO.N,MOSI*%
X35000000Y-37460000D03*
%TO.P,J1,4,Pin_4*%
%TO.N,SCK*%
X35000000Y-40000000D03*
%TO.P,J1,5,Pin_5*%
%TO.N,CS*%
X35000000Y-42540000D03*
%TO.P,J1,6,Pin_6*%
%TO.N,DC*%
X35000000Y-45080000D03*
%TO.P,J1,7,Pin_7*%
%TO.N,~{RST}*%
X35000000Y-47620000D03*
D12*
%TO.P,J1,MP*%
%TO.N,N/C*%
X35250000Y-24000000D03*
X35250000Y-56000000D03*
X74750000Y-24000000D03*
X74750000Y-56000000D03*
%TD*%
D13*
%TO.P,R1,1*%
%TO.N,Net-(D1-A)*%
X50910000Y-45400000D03*
%TO.P,R1,2*%
%TO.N,Net-(J2-VSL)*%
X49890000Y-45400000D03*
%TD*%
%TO.P,R5,1*%
%TO.N,Net-(U1-FB)*%
X44810000Y-40100000D03*
%TO.P,R5,2*%
%TO.N,GND*%
X43790000Y-40100000D03*
%TD*%
D14*
%TO.P,C8,1*%
%TO.N,GND*%
X40950000Y-38175000D03*
%TO.P,C8,2*%
%TO.N,+5V*%
X40950000Y-36625000D03*
%TD*%
D15*
%TO.P,D3,1,K*%
%TO.N,+13V*%
X48350000Y-34799999D03*
%TO.P,D3,2,A*%
%TO.N,Net-(D3-A)*%
X46250000Y-34799999D03*
%TD*%
D16*
%TO.P,C3,1*%
%TO.N,Net-(J2-VCOMH)*%
X49625000Y-42500000D03*
%TO.P,C3,2*%
%TO.N,GND*%
X51175000Y-42500000D03*
%TD*%
D17*
%TO.P,L1,2*%
%TO.N,+5V*%
X42650000Y-34100000D03*
%TO.P,L1,1*%
%TO.N,Net-(D3-A)*%
X44950000Y-34100000D03*
%TD*%
D18*
%TO.P,U2,1,GND*%
%TO.N,GND*%
X52337500Y-35250000D03*
%TO.P,U2,2,VO*%
%TO.N,+3V3_LDO*%
X52337500Y-37150000D03*
%TO.P,U2,3,VI*%
%TO.N,+5V*%
X50462500Y-36200000D03*
%TD*%
D19*
%TO.P,J2,1,NC(GND)*%
%TO.N,GND*%
X47750000Y-47100000D03*
%TO.P,J2,2,VCC*%
%TO.N,+13V*%
X48250000Y-47100000D03*
%TO.P,J2,3,VCOMH*%
%TO.N,Net-(J2-VCOMH)*%
X48750000Y-47100000D03*
%TO.P,J2,4,VDDIO*%
%TO.N,Net-(J2-VDDIO)*%
X49250000Y-47100000D03*
%TO.P,J2,5,VSL*%
%TO.N,Net-(J2-VSL)*%
X49750000Y-47100000D03*
%TO.P,J2,6,NC*%
%TO.N,unconnected-(J2-NC-Pad6)*%
X50250000Y-47100000D03*
%TO.P,J2,7,D7*%
%TO.N,GND*%
X50750000Y-47100000D03*
%TO.P,J2,8,D6*%
X51250000Y-47100000D03*
%TO.P,J2,9,D5*%
X51750000Y-47100000D03*
%TO.P,J2,10,D4*%
X52250000Y-47100000D03*
%TO.P,J2,11,D3*%
X52750000Y-47100000D03*
%TO.P,J2,12,D2*%
%TO.N,unconnected-(J2-D2-Pad12)*%
X53250000Y-47100000D03*
%TO.P,J2,13,D1*%
%TO.N,MOSI*%
X53750000Y-47100000D03*
%TO.P,J2,14,D0*%
%TO.N,SCK*%
X54250000Y-47100000D03*
%TO.P,J2,15,E/~{RD}*%
%TO.N,GND*%
X54750000Y-47100000D03*
%TO.P,J2,16,R/~{W}*%
X55250000Y-47100000D03*
%TO.P,J2,17,BS0*%
%TO.N,unconnected-(J2-BS0-Pad17)*%
X55750000Y-47100000D03*
%TO.P,J2,18,BS1*%
%TO.N,GND*%
X56250000Y-47100000D03*
%TO.P,J2,19,~{CS}*%
%TO.N,CS*%
X56750000Y-47100000D03*
%TO.P,J2,20,D/~{C}*%
%TO.N,DC*%
X57250000Y-47100000D03*
%TO.P,J2,21,~{RES}*%
%TO.N,~{RST}*%
X57750000Y-47100000D03*
%TO.P,J2,22,IREF*%
%TO.N,Net-(J2-IREF)*%
X58250000Y-47100000D03*
%TO.P,J2,23,GPIO1*%
%TO.N,unconnected-(J2-GPIO1-Pad23)*%
X58750000Y-47100000D03*
%TO.P,J2,24,GPIO0*%
%TO.N,unconnected-(J2-GPIO0-Pad24)*%
X59250000Y-47100000D03*
%TO.P,J2,25,NC*%
%TO.N,unconnected-(J2-NC-Pad25)*%
X59750000Y-47100000D03*
%TO.P,J2,26,VDD*%
%TO.N,+3V3*%
X60250000Y-47100000D03*
%TO.P,J2,27,VCI*%
%TO.N,Net-(J2-VCI)*%
X60750000Y-47100000D03*
%TO.P,J2,28,VSS*%
%TO.N,GND*%
X61250000Y-47100000D03*
%TO.P,J2,29,NC*%
%TO.N,unconnected-(J2-NC-Pad29)*%
X61750000Y-47100000D03*
%TO.P,J2,30,NC(GND)*%
%TO.N,GND*%
X62250000Y-47100000D03*
D20*
%TO.P,J2,MP*%
X63250000Y-49600000D03*
X46750000Y-49600000D03*
%TD*%
D21*
%TO.P,C2,1*%
%TO.N,+13V*%
X47875000Y-44100000D03*
%TO.P,C2,2*%
%TO.N,GND*%
X46325000Y-44100000D03*
%TD*%
D22*
%TO.P,D2,1,K*%
%TO.N,GND*%
X52750000Y-43000000D03*
%TO.P,D2,2,A*%
%TO.N,Net-(D1-K)*%
X54850000Y-43000000D03*
%TD*%
D23*
%TO.P,C1,1*%
%TO.N,+13V*%
X48080000Y-45400000D03*
%TO.P,C1,2*%
%TO.N,GND*%
X47120000Y-45400000D03*
%TD*%
D16*
%TO.P,C4,1*%
%TO.N,Net-(J2-VDDIO)*%
X49625000Y-44100000D03*
%TO.P,C4,2*%
%TO.N,GND*%
X51175000Y-44100000D03*
%TD*%
%TO.P,C7,1*%
%TO.N,Net-(J2-VCI)*%
X61525000Y-44100000D03*
%TO.P,C7,2*%
%TO.N,GND*%
X63075000Y-44100000D03*
%TD*%
D15*
%TO.P,D1,1,K*%
%TO.N,Net-(D1-K)*%
X54850000Y-45000000D03*
%TO.P,D1,2,A*%
%TO.N,Net-(D1-A)*%
X52750000Y-45000000D03*
%TD*%
D24*
%TO.P,C9,1*%
%TO.N,Net-(U1-FB)*%
X47170000Y-39100000D03*
%TO.P,C9,2*%
%TO.N,+13V*%
X48130000Y-39100000D03*
%TD*%
D14*
%TO.P,C5,1*%
%TO.N,+3V3*%
X60000000Y-45275000D03*
%TO.P,C5,2*%
%TO.N,GND*%
X60000000Y-43725000D03*
%TD*%
D25*
%TO.P,C12,1*%
%TO.N,+3V3_LDO*%
X53900001Y-37180000D03*
%TO.P,C12,2*%
%TO.N,GND*%
X53900001Y-36220000D03*
%TD*%
D16*
%TO.P,C10,1*%
%TO.N,GND*%
X46675000Y-37800000D03*
%TO.P,C10,2*%
%TO.N,+13V*%
X48225000Y-37800000D03*
%TD*%
D26*
%TO.P,JP1,1,A*%
%TO.N,+3V3_VIK*%
X59800000Y-36750000D03*
%TO.P,JP1,2,C*%
%TO.N,+3V3*%
X58500000Y-36750000D03*
%TO.P,JP1,3,B*%
%TO.N,+3V3_LDO*%
X57200000Y-36750000D03*
%TD*%
D27*
%TO.P,R4,1*%
%TO.N,Net-(U1-FB)*%
X47140000Y-40100000D03*
%TO.P,R4,2*%
%TO.N,+13V*%
X48160000Y-40100000D03*
%TD*%
D24*
%TO.P,C11,2*%
%TO.N,GND*%
X51980000Y-33900000D03*
%TO.P,C11,1*%
%TO.N,+5V*%
X51020000Y-33900000D03*
%TD*%
D28*
%TO.P,J3,MP*%
%TO.N,GND*%
X68500000Y-43250000D03*
X68500000Y-35750000D03*
D29*
%TO.P,J3,12,3V3*%
%TO.N,+3V3_VIK*%
X66000000Y-36750000D03*
%TO.P,J3,11,GND*%
%TO.N,GND*%
X66000000Y-37250000D03*
%TO.P,J3,10,SDA*%
%TO.N,unconnected-(J3-SDA-Pad10)*%
X66000000Y-37750000D03*
%TO.P,J3,9,SCL*%
%TO.N,unconnected-(J3-SCL-Pad9)*%
X66000000Y-38250000D03*
%TO.P,J3,8,RGB*%
%TO.N,unconnected-(J3-RGB-Pad8)*%
X66000000Y-38750000D03*
%TO.P,J3,7,5V*%
%TO.N,+5V*%
X66000000Y-39250000D03*
%TO.P,J3,6,GPIO1*%
%TO.N,DC*%
X66000000Y-39750000D03*
%TO.P,J3,5,MOSI*%
%TO.N,MOSI*%
X66000000Y-40250000D03*
%TO.P,J3,4,GPIO2*%
%TO.N,~{RST}*%
X66000000Y-40750000D03*
%TO.P,J3,3,CS*%
%TO.N,CS*%
X66000000Y-41250000D03*
%TO.P,J3,2,MISO*%
%TO.N,unconnected-(J3-MISO-Pad2)*%
X66000000Y-41750000D03*
%TO.P,J3,1,SCLK*%
%TO.N,SCK*%
X66000000Y-42250000D03*
%TD*%
D30*
%TO.P,U1,1,SW*%
%TO.N,Net-(D3-A)*%
X44937500Y-36749999D03*
%TO.P,U1,2,GND*%
%TO.N,GND*%
X44937500Y-37699999D03*
%TO.P,U1,3,FB*%
%TO.N,Net-(U1-FB)*%
X44937500Y-38649999D03*
%TO.P,U1,4,EN*%
%TO.N,+5V*%
X42662500Y-38649999D03*
%TO.P,U1,5,VIN*%
X42662500Y-36749999D03*
%TD*%
D31*
%TO.P,R2,1*%
%TO.N,Net-(J2-IREF)*%
X58200000Y-45325000D03*
%TO.P,R2,2*%
%TO.N,GND*%
X58200000Y-43675000D03*
%TD*%
D24*
%TO.P,C6,1*%
%TO.N,Net-(J2-VCI)*%
X61220000Y-45400000D03*
%TO.P,C6,2*%
%TO.N,GND*%
X62180000Y-45400000D03*
%TD*%
D32*
%TO.N,GND*%
X62800000Y-45000000D03*
X55000000Y-46300000D03*
X41350000Y-39000000D03*
X67000000Y-36800000D03*
X53000000Y-43600000D03*
X52900000Y-35900000D03*
X45500000Y-43700000D03*
X47200000Y-36200000D03*
X54200000Y-35600000D03*
X60600000Y-42900000D03*
X58400000Y-42900000D03*
X46500000Y-45000000D03*
X52000000Y-43700000D03*
X65000000Y-41250000D03*
X52600000Y-34300000D03*
X58400000Y-41250000D03*
X61750000Y-46150000D03*
X52600001Y-33500000D03*
X65000000Y-37500000D03*
X59800000Y-42900000D03*
X63900000Y-44500000D03*
X57600000Y-42900000D03*
X59100000Y-46150000D03*
X43950000Y-37700000D03*
X40550001Y-39000000D03*
X51700000Y-46300000D03*
X43150000Y-39700000D03*
X50900001Y-46300000D03*
X46500000Y-45800000D03*
X56250000Y-46300000D03*
X52000000Y-42100000D03*
X53500002Y-35600000D03*
X63900000Y-43700000D03*
X65000000Y-38399999D03*
X62800000Y-45800000D03*
X53000000Y-42400000D03*
X47200000Y-37000000D03*
X52000000Y-42900000D03*
X45500000Y-44500000D03*
X67000000Y-37699999D03*
X52500000Y-46300000D03*
X52100001Y-35900000D03*
X52000000Y-44500000D03*
%TO.N,+3V3*%
X59100000Y-44500000D03*
X58500000Y-38050000D03*
%TO.N,+5V*%
X42150000Y-39400000D03*
X42150000Y-36100000D03*
%TO.N,~{RST}*%
X69100000Y-41300000D03*
X58100000Y-49400000D03*
%TO.N,DC*%
X69100000Y-40400000D03*
X57400000Y-48700000D03*
%TD*%
D33*
%TO.N,+5V*%
X40500000Y-30700000D02*
X40500000Y-32900000D01*
X40500000Y-30700000D02*
X51000000Y-30700000D01*
X35500000Y-30700000D02*
X40500000Y-30700000D01*
X35000000Y-31200000D02*
X35500000Y-30700000D01*
X35000000Y-32380000D02*
X35000000Y-31200000D01*
X51000000Y-33880000D02*
X51000000Y-30700000D01*
X51000000Y-30700000D02*
X64320000Y-30700000D01*
X66000000Y-39250000D02*
X67250000Y-39250000D01*
X67700000Y-34080000D02*
X66000000Y-32380000D01*
X67250000Y-39250000D02*
X67700000Y-38800000D01*
X67700000Y-38800000D02*
X67700000Y-34080000D01*
X64320000Y-30700000D02*
X66000000Y-32380000D01*
%TO.N,+3V3_LDO*%
X53900001Y-37180000D02*
X52367500Y-37180000D01*
X56150000Y-36750000D02*
X55720000Y-37180000D01*
X55720000Y-37180000D02*
X53900001Y-37180000D01*
X57200000Y-36750000D02*
X56150000Y-36750000D01*
%TO.N,+13V*%
X48250000Y-47100000D02*
X48250000Y-39150000D01*
%TO.N,Net-(J2-VCOMH)*%
X48750000Y-43375000D02*
X49625000Y-42500000D01*
X48750000Y-43375000D02*
X48750000Y-47100000D01*
%TO.N,Net-(J2-VDDIO)*%
X49250000Y-44475000D02*
X49250000Y-47100000D01*
X49250000Y-44475000D02*
X49625000Y-44100000D01*
%TO.N,+3V3*%
X60250000Y-45525000D02*
X60000000Y-45275000D01*
X58500000Y-38050000D02*
X58500000Y-36750000D01*
X60250000Y-47100000D02*
X60250000Y-45525000D01*
X59875000Y-45275000D02*
X59100000Y-44500000D01*
%TO.N,Net-(J2-VCI)*%
X60750000Y-47100000D02*
X60750000Y-45870000D01*
X61525000Y-45095000D02*
X61220000Y-45400000D01*
X61525000Y-44100000D02*
X61525000Y-45095000D01*
X60750000Y-45870000D02*
X61220000Y-45400000D01*
%TO.N,+5V*%
X42150000Y-39400000D02*
X42150000Y-38700000D01*
X50262500Y-36200000D02*
X50262500Y-34657500D01*
X50262500Y-34657500D02*
X51020000Y-33900000D01*
%TO.N,Net-(D1-K)*%
X55050000Y-45000000D02*
X55050000Y-43000000D01*
%TO.N,Net-(D1-A)*%
X52550000Y-45400000D02*
X52950000Y-45000000D01*
X50910000Y-45400000D02*
X52550000Y-45400000D01*
%TO.N,Net-(J2-VSL)*%
X49750000Y-45540000D02*
X49890000Y-45400000D01*
X49750000Y-47100000D02*
X49750000Y-45540000D01*
D34*
%TO.N,MOSI*%
X45740000Y-48200000D02*
X53300000Y-48200000D01*
X53750000Y-47100000D02*
X53750000Y-41950000D01*
X53750000Y-47750000D02*
X53750000Y-47100000D01*
X53300000Y-48200000D02*
X53750000Y-47750000D01*
X35000000Y-37460000D02*
X45740000Y-48200000D01*
X55450000Y-40250000D02*
X66000000Y-40250000D01*
X53750000Y-41950000D02*
X55450000Y-40250000D01*
%TO.N,SCK*%
X66000000Y-42250000D02*
X54550000Y-42250000D01*
X43600000Y-48600000D02*
X53465686Y-48600000D01*
X54550000Y-42250000D02*
X54250000Y-42550000D01*
X54250000Y-42550000D02*
X54250000Y-47100000D01*
X54250000Y-47815686D02*
X54250000Y-47100000D01*
X53465686Y-48600000D02*
X54250000Y-47815686D01*
X35000000Y-40000000D02*
X43600000Y-48600000D01*
D33*
%TO.N,Net-(J2-IREF)*%
X58250000Y-45375000D02*
X58200000Y-45325000D01*
X58250000Y-47100000D02*
X58250000Y-45375000D01*
D34*
%TO.N,CS*%
X67440000Y-41710000D02*
X66980000Y-41250000D01*
X56750000Y-50500000D02*
X42960000Y-50500000D01*
X67440000Y-48390000D02*
X67440000Y-41710000D01*
X56750000Y-47100000D02*
X56750000Y-50500000D01*
X56750000Y-50500000D02*
X65330000Y-50500000D01*
X65330000Y-50500000D02*
X67440000Y-48390000D01*
X42960000Y-50500000D02*
X35000000Y-42540000D01*
X66980000Y-41250000D02*
X66000000Y-41250000D01*
%TO.N,~{RST}*%
X69100000Y-41300000D02*
X68550000Y-40750000D01*
X58100000Y-48251471D02*
X57750000Y-47901471D01*
X58100000Y-49400000D02*
X58100000Y-48251471D01*
X57750000Y-47901471D02*
X57750000Y-47100000D01*
X68550000Y-40750000D02*
X66000000Y-40750000D01*
%TO.N,DC*%
X57400000Y-48700000D02*
X57250000Y-48550000D01*
X69100000Y-40400000D02*
X68450000Y-39750000D01*
X57250000Y-48550000D02*
X57250000Y-47100000D01*
X68450000Y-39750000D02*
X66000000Y-39750000D01*
D33*
%TO.N,+3V3_VIK*%
X66000000Y-36750000D02*
X59850000Y-36750000D01*
%TD*%
%TA.AperFunction,Conductor*%
%TO.N,GND*%
G36*
X59002244Y-44992926D02*
G01*
X59028039Y-45000500D01*
X59063810Y-45000500D01*
X59122001Y-45019407D01*
X59133813Y-45029496D01*
X59295503Y-45191185D01*
X59323281Y-45245702D01*
X59324500Y-45261189D01*
X59324500Y-45533489D01*
X59328148Y-45556519D01*
X59336603Y-45609907D01*
X59340281Y-45633125D01*
X59340283Y-45633132D01*
X59401470Y-45753217D01*
X59401472Y-45753220D01*
X59496780Y-45848528D01*
X59496782Y-45848529D01*
X59616867Y-45909716D01*
X59616869Y-45909716D01*
X59616874Y-45909719D01*
X59692541Y-45921703D01*
X59716510Y-45925500D01*
X59716512Y-45925500D01*
X59800500Y-45925500D01*
X59858691Y-45944407D01*
X59894655Y-45993907D01*
X59899500Y-46024500D01*
X59899500Y-46400500D01*
X59880593Y-46458691D01*
X59831093Y-46494655D01*
X59800500Y-46499500D01*
X59580248Y-46499500D01*
X59519314Y-46511621D01*
X59480686Y-46511621D01*
X59419751Y-46499500D01*
X59419748Y-46499500D01*
X59080252Y-46499500D01*
X59080248Y-46499500D01*
X59019314Y-46511621D01*
X58980686Y-46511621D01*
X58919751Y-46499500D01*
X58919748Y-46499500D01*
X58699500Y-46499500D01*
X58641309Y-46480593D01*
X58605345Y-46431093D01*
X58600500Y-46400500D01*
X58600500Y-45971213D01*
X58619407Y-45913022D01*
X58654555Y-45883004D01*
X58691724Y-45864065D01*
X58713342Y-45853050D01*
X58803050Y-45763342D01*
X58860646Y-45650304D01*
X58875500Y-45556519D01*
X58875499Y-45093482D01*
X58875499Y-45093481D01*
X58875499Y-45089592D01*
X58877142Y-45089592D01*
X58889943Y-45036213D01*
X58936459Y-44996465D01*
X58997455Y-44991650D01*
X59002244Y-44992926D01*
G37*
%TD.AperFunction*%
%TA.AperFunction,Conductor*%
G36*
X65358691Y-40569407D02*
G01*
X65394655Y-40618907D01*
X65399500Y-40649500D01*
X65399500Y-40919751D01*
X65411621Y-40980686D01*
X65411621Y-41019314D01*
X65399500Y-41080248D01*
X65399500Y-41419750D01*
X65411621Y-41480684D01*
X65411621Y-41519311D01*
X65399500Y-41580246D01*
X65399500Y-41850500D01*
X65380593Y-41908691D01*
X65331093Y-41944655D01*
X65300500Y-41949500D01*
X54615164Y-41949500D01*
X54601488Y-41947267D01*
X54601317Y-41948494D01*
X54592233Y-41947226D01*
X54551886Y-41949092D01*
X54544206Y-41949447D01*
X54541930Y-41949500D01*
X54522153Y-41949500D01*
X54518658Y-41950153D01*
X54511845Y-41950943D01*
X54480010Y-41952414D01*
X54480006Y-41952415D01*
X54471015Y-41956385D01*
X54449227Y-41963132D01*
X54439570Y-41964937D01*
X54439565Y-41964939D01*
X54431057Y-41970207D01*
X54371627Y-41984761D01*
X54314994Y-41961604D01*
X54282787Y-41909581D01*
X54287311Y-41848563D01*
X54308940Y-41816030D01*
X55545475Y-40579496D01*
X55599992Y-40551719D01*
X55615479Y-40550500D01*
X65300500Y-40550500D01*
X65358691Y-40569407D01*
G37*
%TD.AperFunction*%
%TA.AperFunction,Conductor*%
G36*
X73989602Y-21769407D02*
G01*
X74025566Y-21818907D01*
X74025566Y-21880093D01*
X73989602Y-21929593D01*
X73963234Y-21943246D01*
X73906099Y-21962640D01*
X73906088Y-21962645D01*
X73647388Y-22090222D01*
X73407549Y-22250477D01*
X73407536Y-22250487D01*
X73190682Y-22440664D01*
X73190664Y-22440682D01*
X73000487Y-22657536D01*
X73000477Y-22657549D01*
X72840222Y-22897388D01*
X72712645Y-23156088D01*
X72712640Y-23156099D01*
X72619920Y-23429240D01*
X72563643Y-23712163D01*
X72544778Y-23999999D01*
X72544778Y-24000000D01*
X72563643Y-24287836D01*
X72619920Y-24570759D01*
X72712640Y-24843900D01*
X72712645Y-24843911D01*
X72840222Y-25102611D01*
X73000477Y-25342450D01*
X73000487Y-25342463D01*
X73190664Y-25559317D01*
X73190673Y-25559327D01*
X73190681Y-25559334D01*
X73190682Y-25559335D01*
X73407536Y-25749512D01*
X73407543Y-25749517D01*
X73407546Y-25749520D01*
X73647389Y-25909778D01*
X73906098Y-26037359D01*
X74035659Y-26081339D01*
X74179240Y-26130079D01*
X74179242Y-26130079D01*
X74179247Y-26130081D01*
X74462161Y-26186356D01*
X74750000Y-26205222D01*
X75037839Y-26186356D01*
X75320753Y-26130081D01*
X75593902Y-26037359D01*
X75852611Y-25909778D01*
X76092454Y-25749520D01*
X76309327Y-25559327D01*
X76499520Y-25342454D01*
X76659778Y-25102611D01*
X76787359Y-24843902D01*
X76806754Y-24786765D01*
X76843363Y-24737741D01*
X76901796Y-24719597D01*
X76959734Y-24739265D01*
X76995047Y-24789232D01*
X76999500Y-24818589D01*
X76999500Y-55181410D01*
X76980593Y-55239601D01*
X76931093Y-55275565D01*
X76869907Y-55275565D01*
X76820407Y-55239601D01*
X76806754Y-55213233D01*
X76795951Y-55181410D01*
X76787359Y-55156098D01*
X76659778Y-54897389D01*
X76499520Y-54657546D01*
X76499517Y-54657543D01*
X76499512Y-54657536D01*
X76309335Y-54440682D01*
X76309334Y-54440681D01*
X76309327Y-54440673D01*
X76309317Y-54440664D01*
X76092463Y-54250487D01*
X76092450Y-54250477D01*
X75852611Y-54090222D01*
X75593911Y-53962645D01*
X75593900Y-53962640D01*
X75320759Y-53869920D01*
X75037836Y-53813643D01*
X74750000Y-53794778D01*
X74462163Y-53813643D01*
X74179240Y-53869920D01*
X73906099Y-53962640D01*
X73906088Y-53962645D01*
X73647388Y-54090222D01*
X73407549Y-54250477D01*
X73407536Y-54250487D01*
X73190682Y-54440664D01*
X73190664Y-54440682D01*
X73000487Y-54657536D01*
X73000477Y-54657549D01*
X72840222Y-54897388D01*
X72712645Y-55156088D01*
X72712640Y-55156099D01*
X72619920Y-55429240D01*
X72563643Y-55712163D01*
X72544778Y-55999999D01*
X72544778Y-56000000D01*
X72563643Y-56287836D01*
X72619920Y-56570759D01*
X72712640Y-56843900D01*
X72712645Y-56843911D01*
X72840222Y-57102611D01*
X73000477Y-57342450D01*
X73000487Y-57342463D01*
X73190664Y-57559317D01*
X73190673Y-57559327D01*
X73190681Y-57559334D01*
X73190682Y-57559335D01*
X73407536Y-57749512D01*
X73407543Y-57749517D01*
X73407546Y-57749520D01*
X73647389Y-57909778D01*
X73906098Y-58037359D01*
X73963234Y-58056754D01*
X74012259Y-58093363D01*
X74030403Y-58151796D01*
X74010735Y-58209734D01*
X73960768Y-58245047D01*
X73931411Y-58249500D01*
X71751772Y-58249500D01*
X71748239Y-58249374D01*
X71508084Y-58232198D01*
X71494103Y-58230188D01*
X71264024Y-58180137D01*
X71250471Y-58176157D01*
X71029865Y-58093875D01*
X71017016Y-58088007D01*
X70810363Y-57975166D01*
X70798481Y-57967530D01*
X70609992Y-57826429D01*
X70599316Y-57817179D01*
X70432820Y-57650683D01*
X70423570Y-57640007D01*
X70293729Y-57466559D01*
X70282467Y-57451515D01*
X70274833Y-57439636D01*
X70221765Y-57342450D01*
X70161991Y-57232981D01*
X70156124Y-57220134D01*
X70124185Y-57134502D01*
X70073840Y-56999522D01*
X70069863Y-56985981D01*
X70063121Y-56954989D01*
X70669845Y-56954989D01*
X70679578Y-57134502D01*
X70703987Y-57222416D01*
X70727673Y-57307723D01*
X70811881Y-57466556D01*
X70811883Y-57466559D01*
X70890681Y-57559327D01*
X70928265Y-57603574D01*
X71071382Y-57712369D01*
X71234541Y-57787854D01*
X71410113Y-57826500D01*
X71410117Y-57826500D01*
X71544816Y-57826500D01*
X71678721Y-57811937D01*
X71849085Y-57754535D01*
X72003126Y-57661851D01*
X72133642Y-57538220D01*
X72234529Y-57389423D01*
X72301070Y-57222416D01*
X72330155Y-57045010D01*
X72320422Y-56865499D01*
X72272327Y-56692277D01*
X72188119Y-56533444D01*
X72161207Y-56501761D01*
X72071736Y-56396427D01*
X72071735Y-56396426D01*
X71995073Y-56338149D01*
X71928618Y-56287631D01*
X71765459Y-56212146D01*
X71589887Y-56173500D01*
X71455184Y-56173500D01*
X71321276Y-56188063D01*
X71150914Y-56245465D01*
X70996872Y-56338150D01*
X70866357Y-56461780D01*
X70765470Y-56610578D01*
X70698930Y-56777582D01*
X70698930Y-56777585D01*
X70669845Y-56954989D01*
X70063121Y-56954989D01*
X70019810Y-56755889D01*
X70017802Y-56741922D01*
X70000626Y-56501760D01*
X70000500Y-56498228D01*
X70000500Y-54863874D01*
X70000498Y-54863857D01*
X69975447Y-54657549D01*
X69967682Y-54593595D01*
X69902526Y-54329246D01*
X69805981Y-54074678D01*
X69698516Y-53869920D01*
X69679456Y-53833603D01*
X69679453Y-53833598D01*
X69524797Y-53609543D01*
X69524794Y-53609538D01*
X69344252Y-53405748D01*
X69140462Y-53225206D01*
X69105321Y-53200950D01*
X68916401Y-53070546D01*
X68916396Y-53070543D01*
X68675325Y-52944020D01*
X68631074Y-52927238D01*
X68420754Y-52847474D01*
X68420749Y-52847472D01*
X68420748Y-52847472D01*
X68156409Y-52782318D01*
X68156393Y-52782316D01*
X67886142Y-52749501D01*
X67886134Y-52749500D01*
X67886130Y-52749500D01*
X67774674Y-52749500D01*
X42294170Y-52749500D01*
X42250000Y-52749500D01*
X42113870Y-52749500D01*
X42113866Y-52749500D01*
X42113857Y-52749501D01*
X41843606Y-52782316D01*
X41843590Y-52782318D01*
X41579251Y-52847472D01*
X41324674Y-52944020D01*
X41083603Y-53070543D01*
X41083598Y-53070546D01*
X40859543Y-53225202D01*
X40655753Y-53405743D01*
X40655743Y-53405753D01*
X40475202Y-53609543D01*
X40320546Y-53833598D01*
X40320543Y-53833603D01*
X40194020Y-54074674D01*
X40097472Y-54329251D01*
X40032318Y-54593590D01*
X40032316Y-54593606D01*
X39999501Y-54863857D01*
X39999500Y-54863874D01*
X39999500Y-56498228D01*
X39999374Y-56501761D01*
X39982198Y-56741915D01*
X39980188Y-56755896D01*
X39930137Y-56985975D01*
X39926157Y-56999528D01*
X39843875Y-57220134D01*
X39838007Y-57232983D01*
X39725166Y-57439636D01*
X39717530Y-57451518D01*
X39576429Y-57640007D01*
X39567179Y-57650683D01*
X39400683Y-57817179D01*
X39390007Y-57826429D01*
X39201518Y-57967530D01*
X39189636Y-57975166D01*
X38982983Y-58088007D01*
X38970134Y-58093875D01*
X38749528Y-58176157D01*
X38735975Y-58180137D01*
X38505896Y-58230188D01*
X38491915Y-58232198D01*
X38251761Y-58249374D01*
X38248228Y-58249500D01*
X36068589Y-58249500D01*
X36010398Y-58230593D01*
X35974434Y-58181093D01*
X35974434Y-58119907D01*
X36010398Y-58070407D01*
X36036766Y-58056754D01*
X36093902Y-58037359D01*
X36352611Y-57909778D01*
X36592454Y-57749520D01*
X36809327Y-57559327D01*
X36999520Y-57342454D01*
X37159778Y-57102611D01*
X37232577Y-56954989D01*
X37669845Y-56954989D01*
X37679578Y-57134502D01*
X37703987Y-57222416D01*
X37727673Y-57307723D01*
X37811881Y-57466556D01*
X37811883Y-57466559D01*
X37890681Y-57559327D01*
X37928265Y-57603574D01*
X38071382Y-57712369D01*
X38234541Y-57787854D01*
X38410113Y-57826500D01*
X38410117Y-57826500D01*
X38544816Y-57826500D01*
X38678721Y-57811937D01*
X38849085Y-57754535D01*
X39003126Y-57661851D01*
X39133642Y-57538220D01*
X39234529Y-57389423D01*
X39301070Y-57222416D01*
X39330155Y-57045010D01*
X39320422Y-56865499D01*
X39272327Y-56692277D01*
X39188119Y-56533444D01*
X39161207Y-56501761D01*
X39071736Y-56396427D01*
X39071735Y-56396426D01*
X38995073Y-56338149D01*
X38928618Y-56287631D01*
X38765459Y-56212146D01*
X38589887Y-56173500D01*
X38455184Y-56173500D01*
X38321276Y-56188063D01*
X38150914Y-56245465D01*
X37996872Y-56338150D01*
X37866357Y-56461780D01*
X37765470Y-56610578D01*
X37698930Y-56777582D01*
X37698930Y-56777585D01*
X37669845Y-56954989D01*
X37232577Y-56954989D01*
X37287359Y-56843902D01*
X37380081Y-56570753D01*
X37436356Y-56287839D01*
X37455222Y-56000000D01*
X37436356Y-55712161D01*
X37380081Y-55429247D01*
X37287359Y-55156098D01*
X37159778Y-54897389D01*
X36999520Y-54657546D01*
X36999517Y-54657543D01*
X36999512Y-54657536D01*
X36809335Y-54440682D01*
X36809334Y-54440681D01*
X36809327Y-54440673D01*
X36809317Y-54440664D01*
X36592463Y-54250487D01*
X36592450Y-54250477D01*
X36352611Y-54090222D01*
X36093911Y-53962645D01*
X36093900Y-53962640D01*
X35820759Y-53869920D01*
X35537836Y-53813643D01*
X35250000Y-53794778D01*
X34962163Y-53813643D01*
X34679240Y-53869920D01*
X34406099Y-53962640D01*
X34406088Y-53962645D01*
X34147388Y-54090222D01*
X33907549Y-54250477D01*
X33907536Y-54250487D01*
X33690682Y-54440664D01*
X33690664Y-54440682D01*
X33500487Y-54657536D01*
X33500477Y-54657549D01*
X33340222Y-54897388D01*
X33212645Y-55156088D01*
X33212640Y-55156100D01*
X33193246Y-55213233D01*
X33156637Y-55262258D01*
X33098203Y-55280402D01*
X33040265Y-55260734D01*
X33004953Y-55210767D01*
X33000500Y-55181410D01*
X33000500Y-47620003D01*
X33944417Y-47620003D01*
X33964698Y-47825929D01*
X33964699Y-47825934D01*
X34024768Y-48023954D01*
X34122316Y-48206452D01*
X34253585Y-48366404D01*
X34253590Y-48366410D01*
X34253595Y-48366414D01*
X34413547Y-48497683D01*
X34413548Y-48497683D01*
X34413550Y-48497685D01*
X34596046Y-48595232D01*
X34723707Y-48633957D01*
X34794065Y-48655300D01*
X34794070Y-48655301D01*
X34999997Y-48675583D01*
X35000000Y-48675583D01*
X35000003Y-48675583D01*
X35205929Y-48655301D01*
X35205934Y-48655300D01*
X35254743Y-48640494D01*
X35403954Y-48595232D01*
X35586450Y-48497685D01*
X35746410Y-48366410D01*
X35877685Y-48206450D01*
X35975232Y-48023954D01*
X36035300Y-47825934D01*
X36035301Y-47825929D01*
X36055583Y-47620003D01*
X36055583Y-47619996D01*
X36035301Y-47414070D01*
X36035300Y-47414065D01*
X36017078Y-47353996D01*
X35975232Y-47216046D01*
X35877685Y-47033550D01*
X35746410Y-46873590D01*
X35746404Y-46873585D01*
X35586452Y-46742316D01*
X35403954Y-46644768D01*
X35205934Y-46584699D01*
X35205929Y-46584698D01*
X35000003Y-46564417D01*
X34999997Y-46564417D01*
X34794070Y-46584698D01*
X34794065Y-46584699D01*
X34596045Y-46644768D01*
X34413547Y-46742316D01*
X34253595Y-46873585D01*
X34253585Y-46873595D01*
X34122316Y-47033547D01*
X34024768Y-47216045D01*
X33964699Y-47414065D01*
X33964698Y-47414070D01*
X33944417Y-47619996D01*
X33944417Y-47620003D01*
X33000500Y-47620003D01*
X33000500Y-45080003D01*
X33944417Y-45080003D01*
X33964698Y-45285929D01*
X33964699Y-45285934D01*
X34024768Y-45483954D01*
X34122316Y-45666452D01*
X34215089Y-45779496D01*
X34253590Y-45826410D01*
X34253595Y-45826414D01*
X34413547Y-45957683D01*
X34413548Y-45957683D01*
X34413550Y-45957685D01*
X34596046Y-46055232D01*
X34733996Y-46097078D01*
X34794065Y-46115300D01*
X34794070Y-46115301D01*
X34999997Y-46135583D01*
X35000000Y-46135583D01*
X35000003Y-46135583D01*
X35205929Y-46115301D01*
X35205934Y-46115300D01*
X35205934Y-46115299D01*
X35403954Y-46055232D01*
X35586450Y-45957685D01*
X35746410Y-45826410D01*
X35877685Y-45666450D01*
X35975232Y-45483954D01*
X36035300Y-45285934D01*
X36035301Y-45285929D01*
X36055583Y-45080003D01*
X36055583Y-45079996D01*
X36035301Y-44874070D01*
X36035300Y-44874065D01*
X36006846Y-44780264D01*
X35975232Y-44676046D01*
X35877685Y-44493550D01*
X35869135Y-44483132D01*
X35746414Y-44333595D01*
X35746410Y-44333590D01*
X35616076Y-44226628D01*
X35586452Y-44202316D01*
X35403954Y-44104768D01*
X35205934Y-44044699D01*
X35205929Y-44044698D01*
X35000003Y-44024417D01*
X34999997Y-44024417D01*
X34794070Y-44044698D01*
X34794065Y-44044699D01*
X34596045Y-44104768D01*
X34413547Y-44202316D01*
X34253595Y-44333585D01*
X34253585Y-44333595D01*
X34122316Y-44493547D01*
X34024768Y-44676045D01*
X33964699Y-44874065D01*
X33964698Y-44874070D01*
X33944417Y-45079996D01*
X33944417Y-45080003D01*
X33000500Y-45080003D01*
X33000500Y-42540003D01*
X33944417Y-42540003D01*
X33964698Y-42745929D01*
X33964699Y-42745934D01*
X34024768Y-42943954D01*
X34122316Y-43126452D01*
X34162569Y-43175500D01*
X34253590Y-43286410D01*
X34253595Y-43286414D01*
X34413547Y-43417683D01*
X34413548Y-43417683D01*
X34413550Y-43417685D01*
X34596046Y-43515232D01*
X34733996Y-43557078D01*
X34794065Y-43575300D01*
X34794070Y-43575301D01*
X34999997Y-43595583D01*
X35000000Y-43595583D01*
X35000003Y-43595583D01*
X35205929Y-43575301D01*
X35205934Y-43575300D01*
X35205934Y-43575299D01*
X35403954Y-43515232D01*
X35434542Y-43498881D01*
X35494775Y-43488124D01*
X35549826Y-43514825D01*
X35551216Y-43516187D01*
X42701436Y-50666407D01*
X42709537Y-50677647D01*
X42710516Y-50676909D01*
X42716044Y-50684230D01*
X42751569Y-50716616D01*
X42753223Y-50718195D01*
X42760947Y-50725918D01*
X42767203Y-50732174D01*
X42770128Y-50734178D01*
X42775505Y-50738437D01*
X42799064Y-50759914D01*
X42799065Y-50759914D01*
X42799067Y-50759916D01*
X42808225Y-50763463D01*
X42828412Y-50774103D01*
X42836519Y-50779657D01*
X42867552Y-50786955D01*
X42874095Y-50788982D01*
X42886065Y-50793619D01*
X42896302Y-50797585D01*
X42903827Y-50800500D01*
X42913652Y-50800500D01*
X42936316Y-50803129D01*
X42945881Y-50805379D01*
X42973645Y-50801506D01*
X42977453Y-50800975D01*
X42984299Y-50800500D01*
X56693827Y-50800500D01*
X56694273Y-50800500D01*
X56721364Y-50804279D01*
X56721793Y-50804401D01*
X56761614Y-50800711D01*
X56766184Y-50800500D01*
X65264836Y-50800500D01*
X65278511Y-50802732D01*
X65278683Y-50801506D01*
X65287764Y-50802772D01*
X65287765Y-50802773D01*
X65287765Y-50802772D01*
X65287766Y-50802773D01*
X65296507Y-50802368D01*
X65335793Y-50800552D01*
X65338070Y-50800500D01*
X65357841Y-50800500D01*
X65357844Y-50800500D01*
X65361337Y-50799846D01*
X65368141Y-50799056D01*
X65399992Y-50797585D01*
X65408976Y-50793617D01*
X65430777Y-50786865D01*
X65440433Y-50785061D01*
X65467543Y-50768274D01*
X65473589Y-50765088D01*
X65502765Y-50752206D01*
X65509709Y-50745260D01*
X65527601Y-50731089D01*
X65535952Y-50725919D01*
X65555165Y-50700474D01*
X65559662Y-50695308D01*
X66581599Y-49673371D01*
X67606407Y-48648563D01*
X67617665Y-48640494D01*
X67616905Y-48639487D01*
X67624221Y-48633961D01*
X67624228Y-48633958D01*
X67656643Y-48598398D01*
X67658155Y-48596815D01*
X67672175Y-48582797D01*
X67674188Y-48579857D01*
X67678437Y-48574492D01*
X67699916Y-48550933D01*
X67703465Y-48541769D01*
X67714111Y-48521575D01*
X67719657Y-48513480D01*
X67726956Y-48482443D01*
X67728980Y-48475908D01*
X67740500Y-48446173D01*
X67740500Y-48436348D01*
X67743129Y-48413683D01*
X67745379Y-48404119D01*
X67742102Y-48380632D01*
X67740975Y-48372546D01*
X67740500Y-48365699D01*
X67740500Y-41775168D01*
X67742731Y-41761495D01*
X67741505Y-41761324D01*
X67742773Y-41752232D01*
X67741747Y-41730047D01*
X67740552Y-41704207D01*
X67740500Y-41701928D01*
X67740500Y-41682160D01*
X67740500Y-41682156D01*
X67739846Y-41678664D01*
X67739056Y-41671859D01*
X67737585Y-41640008D01*
X67733615Y-41631017D01*
X67726864Y-41609215D01*
X67725061Y-41599568D01*
X67725061Y-41599567D01*
X67708276Y-41572458D01*
X67705084Y-41566401D01*
X67692206Y-41537235D01*
X67692205Y-41537233D01*
X67685256Y-41530284D01*
X67671090Y-41512399D01*
X67665919Y-41504048D01*
X67640483Y-41484839D01*
X67635306Y-41480334D01*
X67374475Y-41219504D01*
X67346698Y-41164987D01*
X67356269Y-41104555D01*
X67399534Y-41061290D01*
X67444479Y-41050500D01*
X68384521Y-41050500D01*
X68442712Y-41069407D01*
X68454525Y-41079496D01*
X68569453Y-41194424D01*
X68597230Y-41248941D01*
X68597441Y-41278514D01*
X68594354Y-41299997D01*
X68594353Y-41300002D01*
X68614834Y-41442456D01*
X68658118Y-41537233D01*
X68674623Y-41573373D01*
X68765866Y-41678674D01*
X68768873Y-41682144D01*
X68885660Y-41757198D01*
X68889947Y-41759953D01*
X68989095Y-41789065D01*
X69028035Y-41800499D01*
X69028036Y-41800499D01*
X69028039Y-41800500D01*
X69028041Y-41800500D01*
X69171959Y-41800500D01*
X69171961Y-41800500D01*
X69310053Y-41759953D01*
X69431128Y-41682143D01*
X69525377Y-41573373D01*
X69585165Y-41442457D01*
X69605647Y-41300000D01*
X69585165Y-41157543D01*
X69525377Y-41026627D01*
X69431128Y-40917857D01*
X69428506Y-40914831D01*
X69404688Y-40858472D01*
X69418547Y-40798876D01*
X69428506Y-40785169D01*
X69462087Y-40746414D01*
X69525377Y-40673373D01*
X69585165Y-40542457D01*
X69599232Y-40444621D01*
X69605647Y-40400002D01*
X69605647Y-40399997D01*
X69585165Y-40257543D01*
X69561593Y-40205929D01*
X69525377Y-40126627D01*
X69431128Y-40017857D01*
X69431127Y-40017856D01*
X69431126Y-40017855D01*
X69310057Y-39940049D01*
X69310054Y-39940047D01*
X69310053Y-39940047D01*
X69310050Y-39940046D01*
X69171964Y-39899500D01*
X69171961Y-39899500D01*
X69065479Y-39899500D01*
X69007288Y-39880593D01*
X68995475Y-39870504D01*
X68708565Y-39583594D01*
X68700479Y-39572344D01*
X68699487Y-39573094D01*
X68693958Y-39565772D01*
X68658428Y-39533382D01*
X68656775Y-39531804D01*
X68642797Y-39517826D01*
X68639859Y-39515813D01*
X68634496Y-39511564D01*
X68610933Y-39490084D01*
X68601762Y-39486531D01*
X68581586Y-39475895D01*
X68573484Y-39470345D01*
X68573479Y-39470343D01*
X68542457Y-39463046D01*
X68535902Y-39461016D01*
X68506177Y-39449501D01*
X68506174Y-39449500D01*
X68506173Y-39449500D01*
X68506172Y-39449500D01*
X68496348Y-39449500D01*
X68473683Y-39446870D01*
X68464119Y-39444621D01*
X68464118Y-39444621D01*
X68432547Y-39449025D01*
X68425701Y-39449500D01*
X67785189Y-39449500D01*
X67726998Y-39430593D01*
X67691034Y-39381093D01*
X67691034Y-39319907D01*
X67715185Y-39280497D01*
X67855110Y-39140571D01*
X67914881Y-39080799D01*
X67930732Y-39067928D01*
X67940669Y-39061437D01*
X67961338Y-39034879D01*
X67965388Y-39030292D01*
X67968375Y-39027307D01*
X67981044Y-39009561D01*
X68012517Y-38969126D01*
X68012518Y-38969120D01*
X68016023Y-38962645D01*
X68019239Y-38956067D01*
X68019238Y-38956067D01*
X68019240Y-38956066D01*
X68033861Y-38906954D01*
X68050500Y-38858488D01*
X68050500Y-38858483D01*
X68051707Y-38851254D01*
X68052617Y-38843954D01*
X68050500Y-38792769D01*
X68050500Y-34126618D01*
X68052607Y-34106302D01*
X68052617Y-34106253D01*
X68055043Y-34094685D01*
X68050879Y-34061288D01*
X68050500Y-34055162D01*
X68050500Y-34050959D01*
X68046912Y-34029459D01*
X68040573Y-33978607D01*
X68040572Y-33978605D01*
X68040572Y-33978603D01*
X68038479Y-33971575D01*
X68036091Y-33964616D01*
X68011704Y-33919554D01*
X67989198Y-33873515D01*
X67984948Y-33867562D01*
X67980418Y-33861742D01*
X67942724Y-33827041D01*
X64600801Y-30485119D01*
X64587925Y-30469262D01*
X64581437Y-30459331D01*
X64554885Y-30438665D01*
X64550283Y-30434601D01*
X64547307Y-30431625D01*
X64529560Y-30418954D01*
X64489128Y-30387484D01*
X64482677Y-30383993D01*
X64476068Y-30380761D01*
X64476066Y-30380760D01*
X64426954Y-30366138D01*
X64378488Y-30349500D01*
X64378485Y-30349499D01*
X64371260Y-30348293D01*
X64363955Y-30347383D01*
X64363954Y-30347383D01*
X64363952Y-30347383D01*
X64312769Y-30349500D01*
X51016540Y-30349500D01*
X51012451Y-30349331D01*
X51009904Y-30349120D01*
X50999924Y-30348293D01*
X50970657Y-30345868D01*
X50970652Y-30345868D01*
X50968279Y-30346470D01*
X50943975Y-30349500D01*
X40516540Y-30349500D01*
X40512451Y-30349331D01*
X40509904Y-30349120D01*
X40499924Y-30348293D01*
X40470657Y-30345868D01*
X40470652Y-30345868D01*
X40468279Y-30346470D01*
X40443975Y-30349500D01*
X35546619Y-30349500D01*
X35526304Y-30347393D01*
X35514686Y-30344957D01*
X35514685Y-30344957D01*
X35481287Y-30349120D01*
X35475163Y-30349500D01*
X35470960Y-30349500D01*
X35460209Y-30351293D01*
X35449458Y-30353087D01*
X35398606Y-30359426D01*
X35391581Y-30361517D01*
X35384616Y-30363908D01*
X35339555Y-30388295D01*
X35293517Y-30410801D01*
X35287542Y-30415066D01*
X35281744Y-30419579D01*
X35247042Y-30457275D01*
X34785117Y-30919198D01*
X34769265Y-30932071D01*
X34759335Y-30938559D01*
X34759332Y-30938561D01*
X34738664Y-30965114D01*
X34734605Y-30969712D01*
X34731619Y-30972698D01*
X34718955Y-30990437D01*
X34687483Y-31030874D01*
X34683981Y-31037343D01*
X34680758Y-31043936D01*
X34666138Y-31093045D01*
X34649499Y-31141512D01*
X34648293Y-31148743D01*
X34647383Y-31156047D01*
X34649500Y-31207231D01*
X34649500Y-31230500D01*
X34630593Y-31288691D01*
X34581093Y-31324655D01*
X34550500Y-31329500D01*
X34130252Y-31329500D01*
X34130251Y-31329500D01*
X34130241Y-31329501D01*
X34071772Y-31341132D01*
X34071766Y-31341134D01*
X34005451Y-31385445D01*
X34005445Y-31385451D01*
X33961134Y-31451766D01*
X33961132Y-31451772D01*
X33949501Y-31510241D01*
X33949500Y-31510253D01*
X33949500Y-33249746D01*
X33949501Y-33249758D01*
X33961132Y-33308227D01*
X33961133Y-33308231D01*
X34005448Y-33374552D01*
X34071769Y-33418867D01*
X34116231Y-33427711D01*
X34130241Y-33430498D01*
X34130246Y-33430498D01*
X34130252Y-33430500D01*
X34130253Y-33430500D01*
X35869747Y-33430500D01*
X35869748Y-33430500D01*
X35928231Y-33418867D01*
X35994552Y-33374552D01*
X36038867Y-33308231D01*
X36050500Y-33249748D01*
X36050500Y-31510252D01*
X36038867Y-31451769D01*
X35994552Y-31385448D01*
X35994548Y-31385445D01*
X35928233Y-31341134D01*
X35928231Y-31341133D01*
X35928228Y-31341132D01*
X35928227Y-31341132D01*
X35869758Y-31329501D01*
X35869748Y-31329500D01*
X35869747Y-31329500D01*
X35605188Y-31329500D01*
X35546997Y-31310593D01*
X35511033Y-31261093D01*
X35511033Y-31199907D01*
X35535181Y-31160499D01*
X35616186Y-31079494D01*
X35670701Y-31051719D01*
X35686188Y-31050500D01*
X40050500Y-31050500D01*
X40108691Y-31069407D01*
X40144655Y-31118907D01*
X40149500Y-31149500D01*
X40149500Y-32759631D01*
X40148280Y-32775119D01*
X40144499Y-32798998D01*
X40144499Y-37001005D01*
X40147030Y-37033155D01*
X40151875Y-37063742D01*
X40151876Y-37063745D01*
X40152646Y-37068286D01*
X40188590Y-37152381D01*
X40200597Y-37168907D01*
X40224555Y-37201882D01*
X40248796Y-37229627D01*
X40327306Y-37276535D01*
X40385497Y-37295442D01*
X40397551Y-37297351D01*
X40448995Y-37305499D01*
X40448999Y-37305499D01*
X43300996Y-37305499D01*
X43301000Y-37305499D01*
X43333144Y-37302969D01*
X43348440Y-37300546D01*
X43363738Y-37298124D01*
X43364874Y-37297930D01*
X43368287Y-37297351D01*
X43452383Y-37261407D01*
X43501883Y-37225443D01*
X43529628Y-37201202D01*
X43576536Y-37122692D01*
X43595443Y-37064501D01*
X43600409Y-37033142D01*
X43605500Y-37001002D01*
X43605500Y-37001000D01*
X43994500Y-37001000D01*
X43997030Y-37033142D01*
X43997030Y-37033143D01*
X44001875Y-37063738D01*
X44002647Y-37068284D01*
X44002647Y-37068285D01*
X44038591Y-37152382D01*
X44038592Y-37152383D01*
X44074556Y-37201883D01*
X44098797Y-37229628D01*
X44177307Y-37276536D01*
X44235498Y-37295443D01*
X44247546Y-37297351D01*
X44298996Y-37305500D01*
X44299000Y-37305500D01*
X46500996Y-37305500D01*
X46501000Y-37305500D01*
X46533144Y-37302970D01*
X46548440Y-37300547D01*
X46563738Y-37298125D01*
X46564874Y-37297931D01*
X46568287Y-37297352D01*
X46652383Y-37261408D01*
X46701883Y-37225444D01*
X46729628Y-37201203D01*
X46776536Y-37122693D01*
X46795443Y-37064502D01*
X46800471Y-37032751D01*
X46805500Y-37001002D01*
X46805500Y-32799004D01*
X46805499Y-32798996D01*
X46802970Y-32766856D01*
X46798125Y-32736263D01*
X46797995Y-32735498D01*
X46797353Y-32731714D01*
X46797352Y-32731713D01*
X46761408Y-32647617D01*
X46761407Y-32647616D01*
X46725444Y-32598117D01*
X46701203Y-32570372D01*
X46622693Y-32523464D01*
X46622691Y-32523463D01*
X46622689Y-32523462D01*
X46564499Y-32504556D01*
X46564500Y-32504556D01*
X46501003Y-32494500D01*
X46501000Y-32494500D01*
X44299000Y-32494500D01*
X44266856Y-32497030D01*
X44251559Y-32499452D01*
X44236262Y-32501875D01*
X44231715Y-32502647D01*
X44231713Y-32502647D01*
X44147617Y-32538591D01*
X44098118Y-32574555D01*
X44070372Y-32598797D01*
X44023464Y-32677307D01*
X44023462Y-32677310D01*
X44004556Y-32735499D01*
X43994500Y-32798996D01*
X43994500Y-32798998D01*
X43994500Y-32799000D01*
X43994500Y-37001000D01*
X43605500Y-37001000D01*
X43605500Y-32799003D01*
X43605499Y-32798996D01*
X43602970Y-32766855D01*
X43598125Y-32736262D01*
X43597352Y-32731712D01*
X43561408Y-32647616D01*
X43525444Y-32598116D01*
X43501203Y-32570371D01*
X43422693Y-32523463D01*
X43422691Y-32523462D01*
X43422689Y-32523461D01*
X43364499Y-32504555D01*
X43364500Y-32504555D01*
X43301003Y-32494499D01*
X43301000Y-32494499D01*
X40949500Y-32494499D01*
X40891309Y-32475592D01*
X40855345Y-32426092D01*
X40850500Y-32395499D01*
X40850500Y-31149500D01*
X40869407Y-31091309D01*
X40918907Y-31055345D01*
X40949500Y-31050500D01*
X50550500Y-31050500D01*
X50608691Y-31069407D01*
X50644655Y-31118907D01*
X50649500Y-31149500D01*
X50649500Y-33437952D01*
X50630593Y-33496143D01*
X50620505Y-33507954D01*
X50596776Y-33531683D01*
X50596774Y-33531686D01*
X50546029Y-33640510D01*
X50546028Y-33640511D01*
X50539500Y-33690100D01*
X50539500Y-33843809D01*
X50520593Y-33902000D01*
X50510503Y-33913813D01*
X50047617Y-34376698D01*
X50031765Y-34389571D01*
X50021835Y-34396059D01*
X50021832Y-34396061D01*
X50001164Y-34422614D01*
X49997105Y-34427212D01*
X49994119Y-34430198D01*
X49981455Y-34447937D01*
X49949983Y-34488374D01*
X49946481Y-34494843D01*
X49943258Y-34501436D01*
X49928638Y-34550545D01*
X49911999Y-34599011D01*
X49910792Y-34606242D01*
X49909882Y-34613547D01*
X49912000Y-34664731D01*
X49912000Y-35603642D01*
X49893093Y-35661833D01*
X49843593Y-35697797D01*
X49827277Y-35701607D01*
X49805467Y-35704784D01*
X49773604Y-35709427D01*
X49668518Y-35760801D01*
X49585801Y-35843518D01*
X49534427Y-35948604D01*
X49534427Y-35948607D01*
X49524500Y-36016740D01*
X49524500Y-36383260D01*
X49530538Y-36424698D01*
X49534427Y-36451395D01*
X49568830Y-36521766D01*
X49585802Y-36556483D01*
X49668517Y-36639198D01*
X49722285Y-36665483D01*
X49773604Y-36690572D01*
X49773605Y-36690572D01*
X49773607Y-36690573D01*
X49841740Y-36700500D01*
X49841743Y-36700500D01*
X51083257Y-36700500D01*
X51083260Y-36700500D01*
X51151393Y-36690573D01*
X51256483Y-36639198D01*
X51339198Y-36556483D01*
X51390573Y-36451393D01*
X51400500Y-36383260D01*
X51400500Y-36016740D01*
X51390573Y-35948607D01*
X51377451Y-35921766D01*
X51345032Y-35855451D01*
X51339198Y-35843517D01*
X51256483Y-35760802D01*
X51256481Y-35760801D01*
X51151395Y-35709427D01*
X51124139Y-35705456D01*
X51083260Y-35699500D01*
X51083257Y-35699500D01*
X50712000Y-35699500D01*
X50653809Y-35680593D01*
X50617845Y-35631093D01*
X50613000Y-35600500D01*
X50613000Y-34843687D01*
X50631907Y-34785496D01*
X50641984Y-34773696D01*
X50976186Y-34439493D01*
X51030701Y-34411718D01*
X51046188Y-34410499D01*
X51199897Y-34410499D01*
X51199900Y-34410499D01*
X51249487Y-34403972D01*
X51249488Y-34403972D01*
X51308137Y-34376622D01*
X51358316Y-34353224D01*
X51443224Y-34268316D01*
X51493972Y-34159487D01*
X51500500Y-34109901D01*
X51500499Y-33690100D01*
X51493972Y-33640513D01*
X51493972Y-33640511D01*
X51443225Y-33531686D01*
X51443224Y-33531685D01*
X51443224Y-33531684D01*
X51379494Y-33467954D01*
X51351719Y-33413440D01*
X51350500Y-33397953D01*
X51350500Y-31149500D01*
X51369407Y-31091309D01*
X51418907Y-31055345D01*
X51449500Y-31050500D01*
X64133810Y-31050500D01*
X64192001Y-31069407D01*
X64203814Y-31079496D01*
X65710801Y-32586482D01*
X65710802Y-32586484D01*
X67320505Y-34196187D01*
X67348281Y-34250702D01*
X67349500Y-34266189D01*
X67349500Y-38613810D01*
X67330593Y-38672001D01*
X67320504Y-38683814D01*
X67133814Y-38870504D01*
X67079297Y-38898281D01*
X67063810Y-38899500D01*
X66699500Y-38899500D01*
X66641309Y-38880593D01*
X66605345Y-38831093D01*
X66600500Y-38800500D01*
X66600500Y-38580253D01*
X66600498Y-38580241D01*
X66588379Y-38519315D01*
X66588379Y-38480685D01*
X66600498Y-38419758D01*
X66600500Y-38419746D01*
X66600500Y-38080253D01*
X66600498Y-38080241D01*
X66588379Y-38019315D01*
X66588379Y-37980685D01*
X66600498Y-37919758D01*
X66600500Y-37919746D01*
X66600500Y-37580253D01*
X66600498Y-37580241D01*
X66596371Y-37559495D01*
X66588867Y-37521769D01*
X66544552Y-37455448D01*
X66544548Y-37455445D01*
X66478233Y-37411134D01*
X66478231Y-37411133D01*
X66478228Y-37411132D01*
X66478227Y-37411132D01*
X66419758Y-37399501D01*
X66419748Y-37399500D01*
X65580252Y-37399500D01*
X65580251Y-37399500D01*
X65580241Y-37399501D01*
X65521772Y-37411132D01*
X65521766Y-37411134D01*
X65455451Y-37455445D01*
X65455445Y-37455451D01*
X65411134Y-37521766D01*
X65411132Y-37521772D01*
X65399501Y-37580241D01*
X65399500Y-37580253D01*
X65399500Y-37919751D01*
X65411621Y-37980686D01*
X65411621Y-38019314D01*
X65399500Y-38080248D01*
X65399500Y-38419751D01*
X65411621Y-38480686D01*
X65411621Y-38519314D01*
X65399500Y-38580248D01*
X65399500Y-38919751D01*
X65411621Y-38980686D01*
X65411621Y-39019314D01*
X65399500Y-39080248D01*
X65399500Y-39419750D01*
X65411621Y-39480684D01*
X65411621Y-39519311D01*
X65399500Y-39580246D01*
X65399500Y-39850500D01*
X65380593Y-39908691D01*
X65331093Y-39944655D01*
X65300500Y-39949500D01*
X55515164Y-39949500D01*
X55501488Y-39947267D01*
X55501317Y-39948494D01*
X55492233Y-39947226D01*
X55451886Y-39949092D01*
X55444206Y-39949447D01*
X55441930Y-39949500D01*
X55422153Y-39949500D01*
X55418658Y-39950153D01*
X55411845Y-39950943D01*
X55380010Y-39952414D01*
X55380006Y-39952415D01*
X55371015Y-39956385D01*
X55349227Y-39963132D01*
X55339570Y-39964937D01*
X55339564Y-39964939D01*
X55312466Y-39981717D01*
X55306399Y-39984915D01*
X55277237Y-39997792D01*
X55277233Y-39997795D01*
X55270284Y-40004744D01*
X55252409Y-40018903D01*
X55244048Y-40024080D01*
X55224839Y-40049515D01*
X55220335Y-40054692D01*
X53583590Y-41691437D01*
X53572361Y-41699550D01*
X53573090Y-41700515D01*
X53565771Y-41706041D01*
X53533372Y-41741580D01*
X53531796Y-41743231D01*
X53517830Y-41757198D01*
X53517817Y-41757213D01*
X53515813Y-41760138D01*
X53511561Y-41765504D01*
X53490084Y-41789065D01*
X53490083Y-41789067D01*
X53486529Y-41798240D01*
X53475896Y-41818412D01*
X53470346Y-41826515D01*
X53470342Y-41826524D01*
X53463045Y-41857545D01*
X53461016Y-41864098D01*
X53449500Y-41893824D01*
X53449500Y-41903651D01*
X53446870Y-41926318D01*
X53444621Y-41935881D01*
X53447085Y-41953547D01*
X53449025Y-41967452D01*
X53449500Y-41974298D01*
X53449499Y-44789834D01*
X53430592Y-44848025D01*
X53381092Y-44883989D01*
X53319906Y-44883989D01*
X53270406Y-44848025D01*
X53258273Y-44825823D01*
X53255261Y-44818103D01*
X53255260Y-44818102D01*
X53255259Y-44818099D01*
X53253235Y-44815710D01*
X53239056Y-44793568D01*
X53197850Y-44705201D01*
X53119799Y-44627150D01*
X53019760Y-44580501D01*
X52974179Y-44574500D01*
X52974177Y-44574500D01*
X52525826Y-44574500D01*
X52525814Y-44574501D01*
X52480240Y-44580500D01*
X52480238Y-44580500D01*
X52380203Y-44627148D01*
X52380201Y-44627150D01*
X52302150Y-44705201D01*
X52255501Y-44805240D01*
X52249500Y-44850821D01*
X52249500Y-44946776D01*
X52249501Y-44950499D01*
X52230594Y-45008690D01*
X52181095Y-45044654D01*
X52150501Y-45049500D01*
X51394976Y-45049500D01*
X51336785Y-45030593D01*
X51324972Y-45020504D01*
X51324065Y-45019597D01*
X51324065Y-45019596D01*
X51240404Y-44935935D01*
X51240402Y-44935934D01*
X51240401Y-44935933D01*
X51133175Y-44885932D01*
X51100601Y-44881644D01*
X51084316Y-44879500D01*
X50735684Y-44879500D01*
X50719398Y-44881644D01*
X50686825Y-44885932D01*
X50686824Y-44885932D01*
X50579598Y-44935933D01*
X50495933Y-45019598D01*
X50489724Y-45032915D01*
X50447995Y-45077663D01*
X50387934Y-45089337D01*
X50332482Y-45063478D01*
X50310276Y-45032915D01*
X50304066Y-45019598D01*
X50304065Y-45019597D01*
X50304065Y-45019596D01*
X50220404Y-44935935D01*
X50220402Y-44935934D01*
X50220401Y-44935933D01*
X50113172Y-44885931D01*
X50112622Y-44885771D01*
X50112173Y-44885465D01*
X50106309Y-44882731D01*
X50106754Y-44881775D01*
X50062049Y-44851332D01*
X50041377Y-44793745D01*
X50058502Y-44735005D01*
X50095386Y-44702519D01*
X50103220Y-44698528D01*
X50198528Y-44603220D01*
X50259719Y-44483126D01*
X50275500Y-44383488D01*
X50275500Y-43816512D01*
X50259719Y-43716874D01*
X50259716Y-43716869D01*
X50259716Y-43716867D01*
X50198529Y-43596782D01*
X50198528Y-43596780D01*
X50103220Y-43501472D01*
X50103217Y-43501470D01*
X49983132Y-43440283D01*
X49983127Y-43440281D01*
X49983126Y-43440281D01*
X49949913Y-43435020D01*
X49883490Y-43424500D01*
X49883488Y-43424500D01*
X49435189Y-43424500D01*
X49376998Y-43405593D01*
X49341034Y-43356093D01*
X49341034Y-43294907D01*
X49365185Y-43255496D01*
X49416185Y-43204496D01*
X49470702Y-43176719D01*
X49486189Y-43175500D01*
X49883490Y-43175500D01*
X49904885Y-43172111D01*
X49983126Y-43159719D01*
X50103220Y-43098528D01*
X50198528Y-43003220D01*
X50259719Y-42883126D01*
X50275500Y-42783488D01*
X50275500Y-42216512D01*
X50259719Y-42116874D01*
X50259716Y-42116869D01*
X50259716Y-42116867D01*
X50198529Y-41996782D01*
X50198528Y-41996780D01*
X50103220Y-41901472D01*
X50103217Y-41901470D01*
X49983132Y-41840283D01*
X49983127Y-41840281D01*
X49983126Y-41840281D01*
X49946443Y-41834471D01*
X49883490Y-41824500D01*
X49883488Y-41824500D01*
X49366512Y-41824500D01*
X49366510Y-41824500D01*
X49266874Y-41840281D01*
X49266867Y-41840283D01*
X49146782Y-41901470D01*
X49051470Y-41996782D01*
X48990283Y-42116867D01*
X48990281Y-42116874D01*
X48974500Y-42216510D01*
X48974500Y-42613810D01*
X48955593Y-42672001D01*
X48945504Y-42683813D01*
X48769502Y-42859814D01*
X48714987Y-42887591D01*
X48654555Y-42878020D01*
X48611290Y-42834755D01*
X48600500Y-42789810D01*
X48600500Y-40800613D01*
X48619407Y-40742422D01*
X48668907Y-40706458D01*
X48684010Y-40702832D01*
X48707406Y-40699127D01*
X48713738Y-40698125D01*
X48714874Y-40697931D01*
X48718287Y-40697352D01*
X48802383Y-40661408D01*
X48851883Y-40625444D01*
X48879628Y-40601203D01*
X48926536Y-40522693D01*
X48945443Y-40464502D01*
X48955032Y-40403957D01*
X48955500Y-40401003D01*
X48955500Y-37333260D01*
X51399500Y-37333260D01*
X51406118Y-37378681D01*
X51409427Y-37401395D01*
X51453577Y-37491704D01*
X51460802Y-37506483D01*
X51543517Y-37589198D01*
X51572206Y-37603223D01*
X51648604Y-37640572D01*
X51648605Y-37640572D01*
X51648607Y-37640573D01*
X51716740Y-37650500D01*
X51716743Y-37650500D01*
X52958257Y-37650500D01*
X52958260Y-37650500D01*
X53026393Y-37640573D01*
X53131483Y-37589198D01*
X53161186Y-37559495D01*
X53215703Y-37531719D01*
X53231189Y-37530500D01*
X53417953Y-37530500D01*
X53476144Y-37549407D01*
X53487956Y-37559496D01*
X53517659Y-37589198D01*
X53531685Y-37603224D01*
X53640514Y-37653972D01*
X53690100Y-37660500D01*
X54109901Y-37660499D01*
X54159488Y-37653972D01*
X54159489Y-37653972D01*
X54218138Y-37626622D01*
X54268317Y-37603224D01*
X54293314Y-37578227D01*
X54312046Y-37559496D01*
X54366563Y-37531719D01*
X54382049Y-37530500D01*
X55673381Y-37530500D01*
X55693696Y-37532607D01*
X55695844Y-37533057D01*
X55705315Y-37535043D01*
X55738712Y-37530879D01*
X55744837Y-37530500D01*
X55749041Y-37530500D01*
X55759790Y-37528706D01*
X55770540Y-37526912D01*
X55821393Y-37520573D01*
X55821396Y-37520571D01*
X55828429Y-37518477D01*
X55835377Y-37516092D01*
X55835381Y-37516092D01*
X55880444Y-37491704D01*
X55926484Y-37469198D01*
X55932470Y-37464923D01*
X55938256Y-37460420D01*
X55972958Y-37422723D01*
X56266186Y-37129496D01*
X56320702Y-37101719D01*
X56336189Y-37100500D01*
X56400500Y-37100500D01*
X56458691Y-37119407D01*
X56494655Y-37168907D01*
X56499500Y-37199500D01*
X56499500Y-37519746D01*
X56499501Y-37519758D01*
X56511132Y-37578227D01*
X56511134Y-37578233D01*
X56552789Y-37640573D01*
X56555448Y-37644552D01*
X56621769Y-37688867D01*
X56666231Y-37697711D01*
X56680241Y-37700498D01*
X56680246Y-37700498D01*
X56680252Y-37700500D01*
X56680253Y-37700500D01*
X57719747Y-37700500D01*
X57719748Y-37700500D01*
X57778231Y-37688867D01*
X57794997Y-37677663D01*
X57853885Y-37661054D01*
X57905002Y-37677663D01*
X57921769Y-37688867D01*
X57975918Y-37699638D01*
X58029301Y-37729534D01*
X58054917Y-37785099D01*
X58046657Y-37837860D01*
X58014834Y-37907543D01*
X57994352Y-38049997D01*
X57994352Y-38050002D01*
X58014834Y-38192456D01*
X58060988Y-38293517D01*
X58074623Y-38323373D01*
X58163630Y-38426093D01*
X58168873Y-38432144D01*
X58289942Y-38509950D01*
X58289947Y-38509953D01*
X58396403Y-38541211D01*
X58428035Y-38550499D01*
X58428036Y-38550499D01*
X58428039Y-38550500D01*
X58428041Y-38550500D01*
X58571959Y-38550500D01*
X58571961Y-38550500D01*
X58710053Y-38509953D01*
X58831128Y-38432143D01*
X58925377Y-38323373D01*
X58985165Y-38192457D01*
X58997803Y-38104556D01*
X59005647Y-38050002D01*
X59005647Y-38049997D01*
X58985165Y-37907543D01*
X58985165Y-37907541D01*
X58953343Y-37837861D01*
X58946368Y-37777075D01*
X58976454Y-37723798D01*
X59024079Y-37699638D01*
X59078231Y-37688867D01*
X59094996Y-37677664D01*
X59153882Y-37661054D01*
X59205001Y-37677663D01*
X59205004Y-37677665D01*
X59221769Y-37688867D01*
X59266231Y-37697711D01*
X59280241Y-37700498D01*
X59280246Y-37700498D01*
X59280252Y-37700500D01*
X59280253Y-37700500D01*
X60319747Y-37700500D01*
X60319748Y-37700500D01*
X60378231Y-37688867D01*
X60444552Y-37644552D01*
X60488867Y-37578231D01*
X60500500Y-37519748D01*
X60500500Y-37199500D01*
X60519407Y-37141309D01*
X60568907Y-37105345D01*
X60599500Y-37100500D01*
X66419747Y-37100500D01*
X66419748Y-37100500D01*
X66478231Y-37088867D01*
X66544552Y-37044552D01*
X66588867Y-36978231D01*
X66600500Y-36919748D01*
X66600500Y-36580252D01*
X66588867Y-36521769D01*
X66544552Y-36455448D01*
X66544548Y-36455445D01*
X66478233Y-36411134D01*
X66478231Y-36411133D01*
X66478228Y-36411132D01*
X66478227Y-36411132D01*
X66419758Y-36399501D01*
X66419748Y-36399500D01*
X66419747Y-36399500D01*
X60599500Y-36399500D01*
X60541309Y-36380593D01*
X60505345Y-36331093D01*
X60500500Y-36300500D01*
X60500500Y-35980253D01*
X60500498Y-35980241D01*
X60494205Y-35948604D01*
X60488867Y-35921769D01*
X60444552Y-35855448D01*
X60426698Y-35843518D01*
X60378233Y-35811134D01*
X60378231Y-35811133D01*
X60378228Y-35811132D01*
X60378227Y-35811132D01*
X60319758Y-35799501D01*
X60319748Y-35799500D01*
X59280252Y-35799500D01*
X59280251Y-35799500D01*
X59280241Y-35799501D01*
X59221772Y-35811132D01*
X59221764Y-35811135D01*
X59204998Y-35822338D01*
X59146110Y-35838945D01*
X59094997Y-35822336D01*
X59078233Y-35811134D01*
X59078231Y-35811133D01*
X59078228Y-35811132D01*
X59078227Y-35811132D01*
X59019758Y-35799501D01*
X59019748Y-35799500D01*
X57980252Y-35799500D01*
X57980251Y-35799500D01*
X57980241Y-35799501D01*
X57921772Y-35811132D01*
X57921767Y-35811134D01*
X57905001Y-35822337D01*
X57846113Y-35838945D01*
X57794999Y-35822337D01*
X57788642Y-35818089D01*
X57778231Y-35811133D01*
X57778228Y-35811132D01*
X57778227Y-35811132D01*
X57719758Y-35799501D01*
X57719748Y-35799500D01*
X56680252Y-35799500D01*
X56680251Y-35799500D01*
X56680241Y-35799501D01*
X56621772Y-35811132D01*
X56621766Y-35811134D01*
X56555451Y-35855445D01*
X56555445Y-35855451D01*
X56511134Y-35921766D01*
X56511132Y-35921772D01*
X56499501Y-35980241D01*
X56499500Y-35980253D01*
X56499500Y-36300500D01*
X56480593Y-36358691D01*
X56431093Y-36394655D01*
X56400500Y-36399500D01*
X56196619Y-36399500D01*
X56176304Y-36397393D01*
X56164686Y-36394957D01*
X56164685Y-36394957D01*
X56131287Y-36399120D01*
X56125163Y-36399500D01*
X56120960Y-36399500D01*
X56110209Y-36401293D01*
X56099458Y-36403087D01*
X56048606Y-36409426D01*
X56041581Y-36411517D01*
X56034616Y-36413908D01*
X55989555Y-36438295D01*
X55943517Y-36460801D01*
X55937542Y-36465066D01*
X55931744Y-36469579D01*
X55897042Y-36507275D01*
X55744891Y-36659427D01*
X55603815Y-36800503D01*
X55549298Y-36828281D01*
X55533811Y-36829500D01*
X54382049Y-36829500D01*
X54323858Y-36810593D01*
X54312046Y-36800504D01*
X54268317Y-36756776D01*
X54268314Y-36756774D01*
X54159490Y-36706029D01*
X54159489Y-36706028D01*
X54142959Y-36703852D01*
X54109902Y-36699500D01*
X54109900Y-36699500D01*
X53690104Y-36699500D01*
X53690093Y-36699501D01*
X53640514Y-36706027D01*
X53640512Y-36706027D01*
X53531687Y-36756774D01*
X53531684Y-36756776D01*
X53487956Y-36800504D01*
X53433439Y-36828281D01*
X53417953Y-36829500D01*
X53290849Y-36829500D01*
X53232658Y-36810593D01*
X53220739Y-36798576D01*
X53219998Y-36799318D01*
X53214198Y-36793518D01*
X53214198Y-36793517D01*
X53131483Y-36710802D01*
X53110410Y-36700500D01*
X53026395Y-36659427D01*
X52999139Y-36655456D01*
X52958260Y-36649500D01*
X51716740Y-36649500D01*
X51682673Y-36654463D01*
X51648604Y-36659427D01*
X51543518Y-36710801D01*
X51460801Y-36793518D01*
X51409427Y-36898604D01*
X51409427Y-36898607D01*
X51399500Y-36966740D01*
X51399500Y-37333260D01*
X48955500Y-37333260D01*
X48955500Y-34599004D01*
X48955499Y-34598996D01*
X48952970Y-34566856D01*
X48948125Y-34536263D01*
X48947995Y-34535498D01*
X48947353Y-34531714D01*
X48947352Y-34531713D01*
X48911408Y-34447617D01*
X48898752Y-34430198D01*
X48875444Y-34398117D01*
X48851203Y-34370372D01*
X48772693Y-34323464D01*
X48772691Y-34323463D01*
X48772689Y-34323462D01*
X48714499Y-34304556D01*
X48714500Y-34304556D01*
X48651003Y-34294500D01*
X48651000Y-34294500D01*
X47849000Y-34294500D01*
X47816856Y-34297030D01*
X47801559Y-34299452D01*
X47786262Y-34301875D01*
X47781715Y-34302647D01*
X47781713Y-34302647D01*
X47697617Y-34338591D01*
X47648118Y-34374555D01*
X47620372Y-34398797D01*
X47573464Y-34477307D01*
X47573462Y-34477310D01*
X47554556Y-34535499D01*
X47544500Y-34598996D01*
X47544500Y-38395500D01*
X47525593Y-38453691D01*
X47476093Y-38489655D01*
X47445500Y-38494500D01*
X45954439Y-38494500D01*
X45896248Y-38475593D01*
X45860284Y-38426093D01*
X45855516Y-38399406D01*
X45855500Y-38399009D01*
X45855500Y-38399008D01*
X45855500Y-38399000D01*
X45852970Y-38366856D01*
X45848125Y-38336263D01*
X45847995Y-38335498D01*
X45847353Y-38331714D01*
X45847352Y-38331713D01*
X45811408Y-38247617D01*
X45775444Y-38198117D01*
X45751203Y-38170372D01*
X45672693Y-38123464D01*
X45672691Y-38123463D01*
X45672689Y-38123462D01*
X45614499Y-38104556D01*
X45614500Y-38104556D01*
X45551003Y-38094500D01*
X45551000Y-38094500D01*
X44349000Y-38094500D01*
X44316856Y-38097030D01*
X44301559Y-38099452D01*
X44286262Y-38101875D01*
X44281715Y-38102647D01*
X44281713Y-38102647D01*
X44197617Y-38138591D01*
X44148118Y-38174555D01*
X44120372Y-38198797D01*
X44073464Y-38277307D01*
X44073462Y-38277310D01*
X44054556Y-38335499D01*
X44044500Y-38398996D01*
X44044500Y-38399000D01*
X44044500Y-39798736D01*
X44046562Y-39827773D01*
X44051161Y-39860002D01*
X44054576Y-39885938D01*
X44055000Y-39892397D01*
X44055000Y-40307598D01*
X44054576Y-40314067D01*
X44049120Y-40355506D01*
X44048015Y-40357822D01*
X44047385Y-40368685D01*
X44047082Y-40370981D01*
X44048528Y-40375062D01*
X44048551Y-40376179D01*
X44048717Y-40387260D01*
X44048480Y-40400070D01*
X44049002Y-40406389D01*
X44049166Y-40417378D01*
X44049182Y-40417527D01*
X44049446Y-40434737D01*
X44049446Y-40434739D01*
X44052725Y-40468286D01*
X44052727Y-40468293D01*
X44088668Y-40552382D01*
X44088669Y-40552383D01*
X44124633Y-40601883D01*
X44148874Y-40629628D01*
X44227384Y-40676536D01*
X44285575Y-40695443D01*
X44297629Y-40697352D01*
X44349073Y-40705500D01*
X44349077Y-40705500D01*
X47445496Y-40705500D01*
X47445500Y-40705500D01*
X47477644Y-40702970D01*
X47494693Y-40700270D01*
X47508238Y-40698125D01*
X47509374Y-40697931D01*
X47512787Y-40697352D01*
X47596883Y-40661408D01*
X47596888Y-40661404D01*
X47600639Y-40659276D01*
X47660579Y-40646996D01*
X47700280Y-40660388D01*
X47727307Y-40676536D01*
X47785498Y-40695443D01*
X47815985Y-40700271D01*
X47870501Y-40728046D01*
X47898281Y-40782561D01*
X47899500Y-40798052D01*
X47899500Y-43325500D01*
X47880593Y-43383691D01*
X47831093Y-43419655D01*
X47800500Y-43424500D01*
X47616510Y-43424500D01*
X47516874Y-43440281D01*
X47516867Y-43440283D01*
X47396782Y-43501470D01*
X47301470Y-43596782D01*
X47240283Y-43716867D01*
X47240281Y-43716874D01*
X47224500Y-43816512D01*
X47224500Y-44383488D01*
X47239852Y-44480420D01*
X47240281Y-44483125D01*
X47240283Y-44483132D01*
X47296962Y-44594369D01*
X47301472Y-44603220D01*
X47396780Y-44698528D01*
X47396782Y-44698529D01*
X47516867Y-44759716D01*
X47516869Y-44759716D01*
X47516874Y-44759719D01*
X47592541Y-44771703D01*
X47616510Y-44775500D01*
X47616512Y-44775500D01*
X47673953Y-44775500D01*
X47732144Y-44794407D01*
X47768108Y-44843907D01*
X47768108Y-44905093D01*
X47743957Y-44944504D01*
X47741685Y-44946775D01*
X47741684Y-44946776D01*
X47696810Y-44991650D01*
X47656774Y-45031686D01*
X47606029Y-45140510D01*
X47606028Y-45140511D01*
X47599500Y-45190100D01*
X47599500Y-45609896D01*
X47599501Y-45609907D01*
X47606027Y-45659486D01*
X47606027Y-45659488D01*
X47656774Y-45768313D01*
X47656775Y-45768314D01*
X47656776Y-45768316D01*
X47741684Y-45853224D01*
X47842339Y-45900160D01*
X47887086Y-45941888D01*
X47899499Y-45989884D01*
X47899500Y-46680252D01*
X47899500Y-47519746D01*
X47899501Y-47519758D01*
X47911132Y-47578227D01*
X47911134Y-47578233D01*
X47955445Y-47644548D01*
X47955448Y-47644552D01*
X48021769Y-47688867D01*
X48066231Y-47697711D01*
X48080241Y-47700498D01*
X48080246Y-47700498D01*
X48080252Y-47700500D01*
X48080253Y-47700500D01*
X48419747Y-47700500D01*
X48419748Y-47700500D01*
X48449505Y-47694581D01*
X48480685Y-47688379D01*
X48519315Y-47688379D01*
X48580241Y-47700498D01*
X48580246Y-47700498D01*
X48580252Y-47700500D01*
X48580253Y-47700500D01*
X48919747Y-47700500D01*
X48919748Y-47700500D01*
X48919749Y-47700499D01*
X48919756Y-47700499D01*
X48953846Y-47693717D01*
X48978231Y-47688867D01*
X48978231Y-47688866D01*
X48980682Y-47688379D01*
X49019313Y-47688378D01*
X49021767Y-47688866D01*
X49021769Y-47688867D01*
X49080252Y-47700500D01*
X49080253Y-47700500D01*
X49419747Y-47700500D01*
X49419748Y-47700500D01*
X49449505Y-47694581D01*
X49480685Y-47688379D01*
X49519315Y-47688379D01*
X49580241Y-47700498D01*
X49580246Y-47700498D01*
X49580252Y-47700500D01*
X49580253Y-47700500D01*
X49919747Y-47700500D01*
X49919748Y-47700500D01*
X49978231Y-47688867D01*
X49978231Y-47688866D01*
X49980684Y-47688379D01*
X50019314Y-47688378D01*
X50021767Y-47688866D01*
X50021769Y-47688867D01*
X50080252Y-47700500D01*
X50080253Y-47700500D01*
X50419747Y-47700500D01*
X50419748Y-47700500D01*
X50478231Y-47688867D01*
X50544552Y-47644552D01*
X50588867Y-47578231D01*
X50600500Y-47519748D01*
X50600500Y-46680252D01*
X50588867Y-46621769D01*
X50544552Y-46555448D01*
X50499999Y-46525678D01*
X50478233Y-46511134D01*
X50478231Y-46511133D01*
X50478228Y-46511132D01*
X50478227Y-46511132D01*
X50419758Y-46499501D01*
X50419748Y-46499500D01*
X50419747Y-46499500D01*
X50199500Y-46499500D01*
X50141309Y-46480593D01*
X50105345Y-46431093D01*
X50100500Y-46400500D01*
X50100500Y-45983047D01*
X50119407Y-45924856D01*
X50157661Y-45893323D01*
X50181586Y-45882165D01*
X50220404Y-45864065D01*
X50304065Y-45780404D01*
X50310275Y-45767085D01*
X50352003Y-45722337D01*
X50412064Y-45710662D01*
X50467517Y-45736519D01*
X50489724Y-45767084D01*
X50495935Y-45780404D01*
X50579596Y-45864065D01*
X50579597Y-45864065D01*
X50579598Y-45864066D01*
X50686824Y-45914067D01*
X50686825Y-45914067D01*
X50686827Y-45914068D01*
X50735684Y-45920500D01*
X50735685Y-45920500D01*
X51084314Y-45920500D01*
X51084316Y-45920500D01*
X51133173Y-45914068D01*
X51240404Y-45864065D01*
X51324065Y-45780404D01*
X51324065Y-45780402D01*
X51324972Y-45779496D01*
X51379489Y-45751719D01*
X51394976Y-45750500D01*
X52503381Y-45750500D01*
X52523696Y-45752607D01*
X52525844Y-45753057D01*
X52535315Y-45755043D01*
X52568712Y-45750879D01*
X52574837Y-45750500D01*
X52579041Y-45750500D01*
X52589790Y-45748706D01*
X52600540Y-45746912D01*
X52651393Y-45740573D01*
X52651396Y-45740571D01*
X52658429Y-45738477D01*
X52665377Y-45736092D01*
X52665381Y-45736092D01*
X52710444Y-45711704D01*
X52756484Y-45689198D01*
X52762470Y-45684923D01*
X52768256Y-45680420D01*
X52802957Y-45642724D01*
X52889163Y-45556518D01*
X53019455Y-45426225D01*
X53047614Y-45406509D01*
X53119799Y-45372850D01*
X53197850Y-45294799D01*
X53232645Y-45220182D01*
X53246081Y-45191369D01*
X53255235Y-45175680D01*
X53269930Y-45155099D01*
X53319131Y-45118728D01*
X53380315Y-45118223D01*
X53430110Y-45153777D01*
X53449497Y-45211810D01*
X53449500Y-45212627D01*
X53449500Y-46400500D01*
X53430593Y-46458691D01*
X53381093Y-46494655D01*
X53350500Y-46499500D01*
X53080252Y-46499500D01*
X53080251Y-46499500D01*
X53080241Y-46499501D01*
X53021772Y-46511132D01*
X53021766Y-46511134D01*
X52955451Y-46555445D01*
X52955445Y-46555451D01*
X52911134Y-46621766D01*
X52911132Y-46621772D01*
X52899501Y-46680241D01*
X52899500Y-46680252D01*
X52899500Y-47519746D01*
X52899501Y-47519758D01*
X52911132Y-47578227D01*
X52911134Y-47578233D01*
X52955445Y-47644548D01*
X52955448Y-47644552D01*
X53021769Y-47688867D01*
X53066231Y-47697711D01*
X53080241Y-47700498D01*
X53080246Y-47700498D01*
X53080252Y-47700500D01*
X53135521Y-47700500D01*
X53193712Y-47719407D01*
X53229676Y-47768907D01*
X53229676Y-47830093D01*
X53205525Y-47869504D01*
X53204525Y-47870504D01*
X53150008Y-47898281D01*
X53134521Y-47899500D01*
X45905479Y-47899500D01*
X45847288Y-47880593D01*
X45835475Y-47870504D01*
X37364973Y-39400002D01*
X41644353Y-39400002D01*
X41664834Y-39542456D01*
X41724622Y-39673371D01*
X41724623Y-39673373D01*
X41818872Y-39782143D01*
X41818873Y-39782144D01*
X41939942Y-39859950D01*
X41939947Y-39859953D01*
X42028404Y-39885926D01*
X42078035Y-39900499D01*
X42078036Y-39900499D01*
X42078039Y-39900500D01*
X42078041Y-39900500D01*
X42221959Y-39900500D01*
X42221961Y-39900500D01*
X42360053Y-39859953D01*
X42481128Y-39782143D01*
X42575377Y-39673373D01*
X42635165Y-39542457D01*
X42645533Y-39470343D01*
X42655647Y-39400002D01*
X42655647Y-39399996D01*
X42636035Y-39263588D01*
X42646468Y-39203299D01*
X42690347Y-39160656D01*
X42734027Y-39150499D01*
X43208257Y-39150499D01*
X43208260Y-39150499D01*
X43276393Y-39140572D01*
X43381483Y-39089197D01*
X43464198Y-39006482D01*
X43515573Y-38901392D01*
X43525500Y-38833259D01*
X43525500Y-38466739D01*
X43515573Y-38398606D01*
X43500052Y-38366858D01*
X43485790Y-38337683D01*
X43464198Y-38293516D01*
X43381483Y-38210801D01*
X43372489Y-38206404D01*
X43276395Y-38159426D01*
X43249139Y-38155455D01*
X43208260Y-38149499D01*
X42116740Y-38149499D01*
X42082673Y-38154462D01*
X42048604Y-38159426D01*
X41943518Y-38210800D01*
X41860801Y-38293517D01*
X41809427Y-38398603D01*
X41799500Y-38466742D01*
X41799500Y-39003287D01*
X41780593Y-39061478D01*
X41775320Y-39068117D01*
X41724623Y-39126626D01*
X41664834Y-39257543D01*
X41644353Y-39399997D01*
X41644353Y-39400002D01*
X37364973Y-39400002D01*
X35976187Y-38011216D01*
X35948410Y-37956699D01*
X35957981Y-37896267D01*
X35958882Y-37894542D01*
X35975230Y-37863957D01*
X35975232Y-37863954D01*
X36035300Y-37665934D01*
X36035301Y-37665929D01*
X36055583Y-37460003D01*
X36055583Y-37459996D01*
X36035301Y-37254070D01*
X36035300Y-37254065D01*
X36017078Y-37193996D01*
X35975232Y-37056046D01*
X35877685Y-36873550D01*
X35841534Y-36829500D01*
X35746414Y-36713595D01*
X35746410Y-36713590D01*
X35737196Y-36706028D01*
X35586452Y-36582316D01*
X35403954Y-36484768D01*
X35205934Y-36424699D01*
X35205929Y-36424698D01*
X35000003Y-36404417D01*
X34999997Y-36404417D01*
X34794070Y-36424698D01*
X34794065Y-36424699D01*
X34596045Y-36484768D01*
X34413547Y-36582316D01*
X34253595Y-36713585D01*
X34253585Y-36713595D01*
X34122316Y-36873547D01*
X34024768Y-37056045D01*
X33964699Y-37254065D01*
X33964698Y-37254070D01*
X33944417Y-37459996D01*
X33944417Y-37460003D01*
X33964698Y-37665929D01*
X33964699Y-37665934D01*
X34024768Y-37863954D01*
X34122316Y-38046452D01*
X34227447Y-38174555D01*
X34253590Y-38206410D01*
X34282838Y-38230413D01*
X34413547Y-38337683D01*
X34413548Y-38337683D01*
X34413550Y-38337685D01*
X34596046Y-38435232D01*
X34699912Y-38466739D01*
X34794065Y-38495300D01*
X34794070Y-38495301D01*
X34999997Y-38515583D01*
X35000000Y-38515583D01*
X35000003Y-38515583D01*
X35205929Y-38495301D01*
X35205934Y-38495300D01*
X35254110Y-38480686D01*
X35403954Y-38435232D01*
X35434542Y-38418881D01*
X35494775Y-38408124D01*
X35549826Y-38434825D01*
X35551216Y-38436187D01*
X45245524Y-48130496D01*
X45273301Y-48185013D01*
X45263730Y-48245445D01*
X45220465Y-48288710D01*
X45175520Y-48299500D01*
X43765479Y-48299500D01*
X43707288Y-48280593D01*
X43695475Y-48270504D01*
X35976187Y-40551216D01*
X35948410Y-40496699D01*
X35957981Y-40436267D01*
X35958882Y-40434542D01*
X35967977Y-40417527D01*
X35975232Y-40403954D01*
X36035300Y-40205934D01*
X36035301Y-40205929D01*
X36055583Y-40000003D01*
X36055583Y-39999996D01*
X36035301Y-39794070D01*
X36035300Y-39794065D01*
X36017078Y-39733996D01*
X35975232Y-39596046D01*
X35877685Y-39413550D01*
X35866562Y-39399997D01*
X35746414Y-39253595D01*
X35746410Y-39253590D01*
X35685130Y-39203299D01*
X35586452Y-39122316D01*
X35403954Y-39024768D01*
X35205934Y-38964699D01*
X35205929Y-38964698D01*
X35000003Y-38944417D01*
X34999997Y-38944417D01*
X34794070Y-38964698D01*
X34794065Y-38964699D01*
X34596045Y-39024768D01*
X34413547Y-39122316D01*
X34253595Y-39253585D01*
X34253585Y-39253595D01*
X34122316Y-39413547D01*
X34024768Y-39596045D01*
X33964699Y-39794065D01*
X33964698Y-39794070D01*
X33944417Y-39999996D01*
X33944417Y-40000003D01*
X33964698Y-40205929D01*
X33964699Y-40205934D01*
X34024768Y-40403954D01*
X34122316Y-40586452D01*
X34213329Y-40697352D01*
X34253590Y-40746410D01*
X34253595Y-40746414D01*
X34413547Y-40877683D01*
X34413548Y-40877683D01*
X34413550Y-40877685D01*
X34596046Y-40975232D01*
X34733996Y-41017078D01*
X34794065Y-41035300D01*
X34794070Y-41035301D01*
X34999997Y-41055583D01*
X35000000Y-41055583D01*
X35000003Y-41055583D01*
X35205929Y-41035301D01*
X35205934Y-41035300D01*
X35234525Y-41026627D01*
X35403954Y-40975232D01*
X35434542Y-40958881D01*
X35494775Y-40948124D01*
X35549826Y-40974825D01*
X35551215Y-40976186D01*
X39449093Y-44874065D01*
X43341437Y-48766409D01*
X43349537Y-48777648D01*
X43350516Y-48776909D01*
X43356044Y-48784230D01*
X43391559Y-48816606D01*
X43393211Y-48818184D01*
X43400946Y-48825918D01*
X43407203Y-48832175D01*
X43409454Y-48833717D01*
X43410130Y-48834180D01*
X43415512Y-48838443D01*
X43430609Y-48852205D01*
X43439067Y-48859916D01*
X43448228Y-48863464D01*
X43468416Y-48874105D01*
X43476520Y-48879657D01*
X43507558Y-48886957D01*
X43514096Y-48888982D01*
X43543827Y-48900500D01*
X43553652Y-48900500D01*
X43576316Y-48903129D01*
X43585881Y-48905379D01*
X43613645Y-48901506D01*
X43617453Y-48900975D01*
X43624299Y-48900500D01*
X53400522Y-48900500D01*
X53414197Y-48902732D01*
X53414369Y-48901506D01*
X53423450Y-48902772D01*
X53423451Y-48902773D01*
X53423451Y-48902772D01*
X53423452Y-48902773D01*
X53432193Y-48902368D01*
X53471479Y-48900552D01*
X53473756Y-48900500D01*
X53493527Y-48900500D01*
X53493530Y-48900500D01*
X53497023Y-48899846D01*
X53503827Y-48899056D01*
X53535678Y-48897585D01*
X53544662Y-48893617D01*
X53566463Y-48886865D01*
X53576119Y-48885061D01*
X53603229Y-48868274D01*
X53609275Y-48865088D01*
X53638451Y-48852206D01*
X53645395Y-48845260D01*
X53663287Y-48831089D01*
X53671638Y-48825919D01*
X53690851Y-48800474D01*
X53695348Y-48795308D01*
X54054308Y-48436348D01*
X54416405Y-48074250D01*
X54427664Y-48066179D01*
X54426905Y-48065173D01*
X54434221Y-48059647D01*
X54434228Y-48059644D01*
X54466632Y-48024097D01*
X54468186Y-48022469D01*
X54482174Y-48008483D01*
X54484181Y-48005551D01*
X54488440Y-48000176D01*
X54509916Y-47976619D01*
X54513465Y-47967456D01*
X54524106Y-47947268D01*
X54529656Y-47939167D01*
X54536955Y-47908129D01*
X54538977Y-47901600D01*
X54550500Y-47871859D01*
X54550500Y-47862034D01*
X54553129Y-47839369D01*
X54555379Y-47829805D01*
X54550975Y-47798233D01*
X54550500Y-47791387D01*
X54550500Y-47665681D01*
X54567184Y-47610681D01*
X54588867Y-47578231D01*
X54600500Y-47519748D01*
X54600500Y-47519746D01*
X55399500Y-47519746D01*
X55399501Y-47519758D01*
X55411132Y-47578227D01*
X55411134Y-47578233D01*
X55455445Y-47644548D01*
X55455448Y-47644552D01*
X55521769Y-47688867D01*
X55566231Y-47697711D01*
X55580241Y-47700498D01*
X55580246Y-47700498D01*
X55580252Y-47700500D01*
X55580253Y-47700500D01*
X55919747Y-47700500D01*
X55919748Y-47700500D01*
X55978231Y-47688867D01*
X56044552Y-47644552D01*
X56088867Y-47578231D01*
X56100500Y-47519748D01*
X56100500Y-46680252D01*
X56088867Y-46621769D01*
X56044552Y-46555448D01*
X55999999Y-46525678D01*
X55978233Y-46511134D01*
X55978231Y-46511133D01*
X55978228Y-46511132D01*
X55978227Y-46511132D01*
X55919758Y-46499501D01*
X55919748Y-46499500D01*
X55580252Y-46499500D01*
X55580251Y-46499500D01*
X55580241Y-46499501D01*
X55521772Y-46511132D01*
X55521766Y-46511134D01*
X55455451Y-46555445D01*
X55455445Y-46555451D01*
X55411134Y-46621766D01*
X55411132Y-46621772D01*
X55399501Y-46680241D01*
X55399500Y-46680252D01*
X55399500Y-47519746D01*
X54600500Y-47519746D01*
X54600500Y-46680252D01*
X54588867Y-46621769D01*
X54588864Y-46621764D01*
X54588863Y-46621762D01*
X54567185Y-46589318D01*
X54550500Y-46534317D01*
X54550500Y-45524499D01*
X54569407Y-45466308D01*
X54618907Y-45430344D01*
X54649494Y-45425499D01*
X55074178Y-45425499D01*
X55119760Y-45419499D01*
X55119761Y-45419499D01*
X55191202Y-45386185D01*
X55219799Y-45372850D01*
X55297850Y-45294799D01*
X55342665Y-45198692D01*
X55354261Y-45179731D01*
X55362517Y-45169126D01*
X55400500Y-45058488D01*
X55400500Y-42970960D01*
X55386092Y-42884619D01*
X55351113Y-42819983D01*
X55347850Y-42812038D01*
X55347702Y-42812108D01*
X55294190Y-42697351D01*
X55295667Y-42696662D01*
X55280719Y-42647776D01*
X55300637Y-42589923D01*
X55350755Y-42554827D01*
X55379704Y-42550500D01*
X65434318Y-42550500D01*
X65489320Y-42567185D01*
X65521769Y-42588867D01*
X65566231Y-42597711D01*
X65580241Y-42600498D01*
X65580246Y-42600498D01*
X65580252Y-42600500D01*
X65580253Y-42600500D01*
X66419747Y-42600500D01*
X66419748Y-42600500D01*
X66478231Y-42588867D01*
X66544552Y-42544552D01*
X66588867Y-42478231D01*
X66600500Y-42419748D01*
X66600500Y-42080252D01*
X66594932Y-42052262D01*
X66588379Y-42019315D01*
X66588379Y-41980685D01*
X66600498Y-41919758D01*
X66600500Y-41919746D01*
X66600500Y-41649500D01*
X66619407Y-41591309D01*
X66668907Y-41555345D01*
X66699500Y-41550500D01*
X66814521Y-41550500D01*
X66872712Y-41569407D01*
X66884525Y-41579496D01*
X67110504Y-41805475D01*
X67138281Y-41859992D01*
X67139500Y-41875479D01*
X67139500Y-48224520D01*
X67120593Y-48282711D01*
X67110504Y-48294524D01*
X65234525Y-50170504D01*
X65180008Y-50198281D01*
X65164521Y-50199500D01*
X57149500Y-50199500D01*
X57091309Y-50180593D01*
X57055345Y-50131093D01*
X57050500Y-50100500D01*
X57050500Y-49782143D01*
X57050499Y-49250315D01*
X57069406Y-49192125D01*
X57118906Y-49156161D01*
X57180092Y-49156161D01*
X57189473Y-49159813D01*
X57189944Y-49159951D01*
X57189947Y-49159953D01*
X57299516Y-49192125D01*
X57328035Y-49200499D01*
X57328036Y-49200499D01*
X57328039Y-49200500D01*
X57328041Y-49200500D01*
X57471959Y-49200500D01*
X57471961Y-49200500D01*
X57479085Y-49198407D01*
X57481886Y-49197586D01*
X57543046Y-49199332D01*
X57591500Y-49236694D01*
X57608739Y-49295401D01*
X57607772Y-49306663D01*
X57598310Y-49372477D01*
X57594353Y-49400000D01*
X57594353Y-49400002D01*
X57594352Y-49400002D01*
X57614834Y-49542456D01*
X57674622Y-49673371D01*
X57674623Y-49673373D01*
X57768872Y-49782143D01*
X57768873Y-49782144D01*
X57889942Y-49859950D01*
X57889947Y-49859953D01*
X57996403Y-49891211D01*
X58028035Y-49900499D01*
X58028036Y-49900499D01*
X58028039Y-49900500D01*
X58028041Y-49900500D01*
X58171959Y-49900500D01*
X58171961Y-49900500D01*
X58310053Y-49859953D01*
X58431128Y-49782143D01*
X58525377Y-49673373D01*
X58585165Y-49542457D01*
X58605647Y-49400000D01*
X58585165Y-49257543D01*
X58525377Y-49126627D01*
X58431128Y-49017857D01*
X58431127Y-49017856D01*
X58426491Y-49012506D01*
X58428524Y-49010743D01*
X58403067Y-48968505D01*
X58400500Y-48946105D01*
X58400500Y-48316639D01*
X58402731Y-48302966D01*
X58401505Y-48302795D01*
X58402770Y-48293714D01*
X58402773Y-48293707D01*
X58400551Y-48245679D01*
X58400499Y-48243397D01*
X58400499Y-48240047D01*
X58400500Y-48223627D01*
X58399846Y-48220133D01*
X58399056Y-48213328D01*
X58397585Y-48181480D01*
X58393613Y-48172485D01*
X58386865Y-48150691D01*
X58385061Y-48141038D01*
X58368278Y-48113933D01*
X58365085Y-48107877D01*
X58356090Y-48087502D01*
X58352207Y-48078707D01*
X58345257Y-48071757D01*
X58331088Y-48053867D01*
X58325920Y-48045520D01*
X58325919Y-48045519D01*
X58300483Y-48026310D01*
X58295306Y-48021805D01*
X58143004Y-47869504D01*
X58115227Y-47814987D01*
X58124798Y-47754555D01*
X58168063Y-47711290D01*
X58213008Y-47700500D01*
X58419747Y-47700500D01*
X58419748Y-47700500D01*
X58449505Y-47694581D01*
X58480685Y-47688379D01*
X58519315Y-47688379D01*
X58580241Y-47700498D01*
X58580246Y-47700498D01*
X58580252Y-47700500D01*
X58580253Y-47700500D01*
X58919747Y-47700500D01*
X58919748Y-47700500D01*
X58978231Y-47688867D01*
X58978231Y-47688866D01*
X58980684Y-47688379D01*
X59019314Y-47688378D01*
X59021767Y-47688866D01*
X59021769Y-47688867D01*
X59080252Y-47700500D01*
X59080253Y-47700500D01*
X59419747Y-47700500D01*
X59419748Y-47700500D01*
X59449505Y-47694581D01*
X59480685Y-47688379D01*
X59519315Y-47688379D01*
X59580241Y-47700498D01*
X59580246Y-47700498D01*
X59580252Y-47700500D01*
X59580253Y-47700500D01*
X59919747Y-47700500D01*
X59919748Y-47700500D01*
X59978231Y-47688867D01*
X59978231Y-47688866D01*
X59980684Y-47688379D01*
X60019314Y-47688378D01*
X60021767Y-47688866D01*
X60021769Y-47688867D01*
X60080252Y-47700500D01*
X60080253Y-47700500D01*
X60419747Y-47700500D01*
X60419748Y-47700500D01*
X60449505Y-47694581D01*
X60480685Y-47688379D01*
X60519315Y-47688379D01*
X60580241Y-47700498D01*
X60580246Y-47700498D01*
X60580252Y-47700500D01*
X60580253Y-47700500D01*
X60919747Y-47700500D01*
X60919748Y-47700500D01*
X60978231Y-47688867D01*
X61044552Y-47644552D01*
X61088867Y-47578231D01*
X61100500Y-47519748D01*
X61100500Y-47519746D01*
X61399500Y-47519746D01*
X61399501Y-47519758D01*
X61411132Y-47578227D01*
X61411134Y-47578233D01*
X61455445Y-47644548D01*
X61455448Y-47644552D01*
X61521769Y-47688867D01*
X61566231Y-47697711D01*
X61580241Y-47700498D01*
X61580246Y-47700498D01*
X61580252Y-47700500D01*
X61580253Y-47700500D01*
X61919747Y-47700500D01*
X61919748Y-47700500D01*
X61978231Y-47688867D01*
X62044552Y-47644552D01*
X62088867Y-47578231D01*
X62100500Y-47519748D01*
X62100500Y-46680252D01*
X62088867Y-46621769D01*
X62044552Y-46555448D01*
X61999999Y-46525678D01*
X61978233Y-46511134D01*
X61978231Y-46511133D01*
X61978228Y-46511132D01*
X61978227Y-46511132D01*
X61919758Y-46499501D01*
X61919748Y-46499500D01*
X61580252Y-46499500D01*
X61580251Y-46499500D01*
X61580241Y-46499501D01*
X61521772Y-46511132D01*
X61521766Y-46511134D01*
X61455451Y-46555445D01*
X61455445Y-46555451D01*
X61411134Y-46621766D01*
X61411132Y-46621772D01*
X61399501Y-46680241D01*
X61399500Y-46680252D01*
X61399500Y-47519746D01*
X61100500Y-47519746D01*
X61100500Y-46680252D01*
X61100500Y-46056188D01*
X61119407Y-45997997D01*
X61129485Y-45986195D01*
X61176187Y-45939493D01*
X61230702Y-45911718D01*
X61246189Y-45910499D01*
X61399897Y-45910499D01*
X61399900Y-45910499D01*
X61449487Y-45903972D01*
X61449488Y-45903972D01*
X61535067Y-45864065D01*
X61558316Y-45853224D01*
X61643224Y-45768316D01*
X61693972Y-45659487D01*
X61700500Y-45609901D01*
X61700499Y-45456189D01*
X61719406Y-45397999D01*
X61729489Y-45386191D01*
X61739884Y-45375796D01*
X61755734Y-45362926D01*
X61765669Y-45356437D01*
X61786338Y-45329879D01*
X61790388Y-45325292D01*
X61793375Y-45322307D01*
X61806044Y-45304561D01*
X61837517Y-45264126D01*
X61837518Y-45264120D01*
X61841023Y-45257645D01*
X61844239Y-45251067D01*
X61844238Y-45251067D01*
X61844240Y-45251066D01*
X61858861Y-45201954D01*
X61875500Y-45153488D01*
X61875500Y-45153483D01*
X61876707Y-45146254D01*
X61877617Y-45138954D01*
X61875500Y-45087769D01*
X61875500Y-44824271D01*
X61894407Y-44766080D01*
X61929551Y-44736064D01*
X62003220Y-44698528D01*
X62098528Y-44603220D01*
X62159719Y-44483126D01*
X62175500Y-44383488D01*
X62175500Y-43816512D01*
X62159719Y-43716874D01*
X62159716Y-43716869D01*
X62159716Y-43716867D01*
X62098529Y-43596782D01*
X62098528Y-43596780D01*
X62003220Y-43501472D01*
X62003217Y-43501470D01*
X61883132Y-43440283D01*
X61883127Y-43440281D01*
X61883126Y-43440281D01*
X61849913Y-43435020D01*
X61783490Y-43424500D01*
X61783488Y-43424500D01*
X61266512Y-43424500D01*
X61266510Y-43424500D01*
X61166874Y-43440281D01*
X61166867Y-43440283D01*
X61046782Y-43501470D01*
X60951470Y-43596782D01*
X60890283Y-43716867D01*
X60890281Y-43716874D01*
X60874500Y-43816512D01*
X60874500Y-44383488D01*
X60889852Y-44480420D01*
X60890281Y-44483125D01*
X60890283Y-44483132D01*
X60946962Y-44594369D01*
X60951472Y-44603220D01*
X61046780Y-44698528D01*
X61059174Y-44704843D01*
X61102438Y-44748106D01*
X61112010Y-44808538D01*
X61084233Y-44863055D01*
X61029717Y-44890833D01*
X61027149Y-44891205D01*
X60990513Y-44896027D01*
X60990511Y-44896027D01*
X60881686Y-44946774D01*
X60881683Y-44946776D01*
X60831545Y-44996914D01*
X60777028Y-45024691D01*
X60716596Y-45015119D01*
X60673332Y-44971854D01*
X60663761Y-44942396D01*
X60662737Y-44935933D01*
X60659719Y-44916874D01*
X60659717Y-44916871D01*
X60659716Y-44916867D01*
X60598529Y-44796782D01*
X60598528Y-44796780D01*
X60503220Y-44701472D01*
X60503217Y-44701470D01*
X60383132Y-44640283D01*
X60383127Y-44640281D01*
X60383126Y-44640281D01*
X60349913Y-44635020D01*
X60283490Y-44624500D01*
X60283488Y-44624500D01*
X59761190Y-44624500D01*
X59702999Y-44605593D01*
X59691186Y-44595504D01*
X59630619Y-44534937D01*
X59602842Y-44480420D01*
X59602631Y-44479022D01*
X59585165Y-44357543D01*
X59525377Y-44226628D01*
X59525377Y-44226627D01*
X59431128Y-44117857D01*
X59431127Y-44117856D01*
X59431126Y-44117855D01*
X59310057Y-44040049D01*
X59310054Y-44040047D01*
X59310053Y-44040047D01*
X59310050Y-44040046D01*
X59171964Y-43999500D01*
X59171961Y-43999500D01*
X59028039Y-43999500D01*
X59028035Y-43999500D01*
X58889949Y-44040046D01*
X58889942Y-44040049D01*
X58768873Y-44117855D01*
X58674622Y-44226628D01*
X58614834Y-44357543D01*
X58594352Y-44499997D01*
X58594353Y-44500003D01*
X58610393Y-44611567D01*
X58599960Y-44671856D01*
X58556082Y-44714499D01*
X58510409Y-44723254D01*
X58510409Y-44724500D01*
X57893479Y-44724500D01*
X57893476Y-44724501D01*
X57799700Y-44739352D01*
X57799695Y-44739354D01*
X57686659Y-44796949D01*
X57596949Y-44886659D01*
X57539354Y-44999695D01*
X57524500Y-45093477D01*
X57524500Y-45556520D01*
X57524501Y-45556523D01*
X57539352Y-45650299D01*
X57539354Y-45650304D01*
X57596950Y-45763342D01*
X57686658Y-45853050D01*
X57799696Y-45910646D01*
X57814698Y-45913022D01*
X57815986Y-45913226D01*
X57870503Y-45941003D01*
X57898281Y-45995519D01*
X57899500Y-46011007D01*
X57899500Y-46400500D01*
X57880593Y-46458691D01*
X57831093Y-46494655D01*
X57800500Y-46499500D01*
X57580248Y-46499500D01*
X57519314Y-46511621D01*
X57480686Y-46511621D01*
X57419751Y-46499500D01*
X57419748Y-46499500D01*
X57080252Y-46499500D01*
X57080248Y-46499500D01*
X57019314Y-46511621D01*
X56980686Y-46511621D01*
X56919751Y-46499500D01*
X56919748Y-46499500D01*
X56580252Y-46499500D01*
X56580251Y-46499500D01*
X56580241Y-46499501D01*
X56521772Y-46511132D01*
X56521766Y-46511134D01*
X56455451Y-46555445D01*
X56455445Y-46555451D01*
X56411134Y-46621766D01*
X56411132Y-46621772D01*
X56399501Y-46680241D01*
X56399500Y-46680252D01*
X56399500Y-47519746D01*
X56399501Y-47519758D01*
X56411132Y-47578227D01*
X56411133Y-47578231D01*
X56432815Y-47610681D01*
X56449500Y-47665681D01*
X56449500Y-50100500D01*
X56430593Y-50158691D01*
X56381093Y-50194655D01*
X56350500Y-50199500D01*
X43125479Y-50199500D01*
X43067288Y-50180593D01*
X43055475Y-50170504D01*
X35976187Y-43091216D01*
X35948410Y-43036699D01*
X35957981Y-42976267D01*
X35958882Y-42974542D01*
X35975230Y-42943957D01*
X35975232Y-42943954D01*
X36035300Y-42745934D01*
X36035301Y-42745929D01*
X36055583Y-42540003D01*
X36055583Y-42539996D01*
X36035301Y-42334070D01*
X36035300Y-42334065D01*
X35999640Y-42216510D01*
X35975232Y-42136046D01*
X35877685Y-41953550D01*
X35874897Y-41950153D01*
X35746414Y-41793595D01*
X35746410Y-41793590D01*
X35712187Y-41765504D01*
X35586452Y-41662316D01*
X35403954Y-41564768D01*
X35205934Y-41504699D01*
X35205929Y-41504698D01*
X35000003Y-41484417D01*
X34999997Y-41484417D01*
X34794070Y-41504698D01*
X34794065Y-41504699D01*
X34596045Y-41564768D01*
X34413547Y-41662316D01*
X34253595Y-41793585D01*
X34253585Y-41793595D01*
X34122316Y-41953547D01*
X34024768Y-42136045D01*
X33964699Y-42334065D01*
X33964698Y-42334070D01*
X33944417Y-42539996D01*
X33944417Y-42540003D01*
X33000500Y-42540003D01*
X33000500Y-24818589D01*
X33019407Y-24760398D01*
X33068907Y-24724434D01*
X33130093Y-24724434D01*
X33179593Y-24760398D01*
X33193246Y-24786766D01*
X33212640Y-24843900D01*
X33212645Y-24843911D01*
X33340222Y-25102611D01*
X33500477Y-25342450D01*
X33500487Y-25342463D01*
X33690664Y-25559317D01*
X33690673Y-25559327D01*
X33690681Y-25559334D01*
X33690682Y-25559335D01*
X33907536Y-25749512D01*
X33907543Y-25749517D01*
X33907546Y-25749520D01*
X34147389Y-25909778D01*
X34406098Y-26037359D01*
X34535659Y-26081339D01*
X34679240Y-26130079D01*
X34679242Y-26130079D01*
X34679247Y-26130081D01*
X34962161Y-26186356D01*
X35250000Y-26205222D01*
X35537839Y-26186356D01*
X35820753Y-26130081D01*
X36093902Y-26037359D01*
X36352611Y-25909778D01*
X36592454Y-25749520D01*
X36809327Y-25559327D01*
X36999520Y-25342454D01*
X37159778Y-25102611D01*
X37287359Y-24843902D01*
X37380081Y-24570753D01*
X37436356Y-24287839D01*
X37455222Y-24000000D01*
X37436356Y-23712161D01*
X37380081Y-23429247D01*
X37357888Y-23363870D01*
X37287359Y-23156099D01*
X37287354Y-23156088D01*
X37276709Y-23134502D01*
X37188183Y-22954989D01*
X54169845Y-22954989D01*
X54179578Y-23134502D01*
X54203987Y-23222416D01*
X54227673Y-23307723D01*
X54311881Y-23466556D01*
X54311883Y-23466559D01*
X54428263Y-23603572D01*
X54428265Y-23603574D01*
X54571382Y-23712369D01*
X54734541Y-23787854D01*
X54910113Y-23826500D01*
X54910117Y-23826500D01*
X55044816Y-23826500D01*
X55178721Y-23811937D01*
X55349085Y-23754535D01*
X55503126Y-23661851D01*
X55633642Y-23538220D01*
X55734529Y-23389423D01*
X55801070Y-23222416D01*
X55830155Y-23045010D01*
X55820422Y-22865499D01*
X55772327Y-22692277D01*
X55688119Y-22533444D01*
X55609326Y-22440682D01*
X55571736Y-22396427D01*
X55571735Y-22396426D01*
X55428619Y-22287632D01*
X55428618Y-22287631D01*
X55265459Y-22212146D01*
X55089887Y-22173500D01*
X54955184Y-22173500D01*
X54821276Y-22188063D01*
X54650914Y-22245465D01*
X54496872Y-22338150D01*
X54366357Y-22461780D01*
X54265470Y-22610578D01*
X54198930Y-22777582D01*
X54198930Y-22777585D01*
X54169845Y-22954989D01*
X37188183Y-22954989D01*
X37159778Y-22897389D01*
X36999520Y-22657546D01*
X36999517Y-22657543D01*
X36999512Y-22657536D01*
X36809335Y-22440682D01*
X36809334Y-22440681D01*
X36809327Y-22440673D01*
X36809317Y-22440664D01*
X36592463Y-22250487D01*
X36592450Y-22250477D01*
X36352611Y-22090222D01*
X36093911Y-21962645D01*
X36093900Y-21962640D01*
X36036766Y-21943246D01*
X35987741Y-21906637D01*
X35969597Y-21848204D01*
X35989265Y-21790266D01*
X36039232Y-21754953D01*
X36068589Y-21750500D01*
X73931411Y-21750500D01*
X73989602Y-21769407D01*
G37*
%TD.AperFunction*%
%TD*%
%TA.AperFunction,Conductor*%
%TO.N,+5V*%
G36*
X43359191Y-32718906D02*
G01*
X43395155Y-32768406D01*
X43400000Y-32798999D01*
X43400000Y-37000999D01*
X43381093Y-37059190D01*
X43331593Y-37095154D01*
X43301000Y-37099999D01*
X40448999Y-37099999D01*
X40390808Y-37081092D01*
X40354844Y-37031592D01*
X40349999Y-37001005D01*
X40349999Y-32798998D01*
X40368906Y-32740808D01*
X40418406Y-32704844D01*
X40448992Y-32699999D01*
X43301000Y-32699999D01*
X43359191Y-32718906D01*
G37*
%TD.AperFunction*%
%TD*%
%TA.AperFunction,Conductor*%
%TO.N,Net-(D3-A)*%
G36*
X46559191Y-32718907D02*
G01*
X46595155Y-32768407D01*
X46600000Y-32799000D01*
X46600000Y-37001000D01*
X46581093Y-37059191D01*
X46531593Y-37095155D01*
X46501000Y-37100000D01*
X44299000Y-37100000D01*
X44240809Y-37081093D01*
X44204845Y-37031593D01*
X44200000Y-37001000D01*
X44200000Y-32799000D01*
X44218907Y-32740809D01*
X44268407Y-32704845D01*
X44299000Y-32700000D01*
X46501000Y-32700000D01*
X46559191Y-32718907D01*
G37*
%TD.AperFunction*%
%TD*%
%TA.AperFunction,Conductor*%
%TO.N,+13V*%
G36*
X48709191Y-34518907D02*
G01*
X48745155Y-34568407D01*
X48750000Y-34599000D01*
X48750000Y-40401000D01*
X48731093Y-40459191D01*
X48681593Y-40495155D01*
X48651000Y-40500000D01*
X47849000Y-40500000D01*
X47790809Y-40481093D01*
X47754845Y-40431593D01*
X47750000Y-40401000D01*
X47750000Y-34599000D01*
X47768907Y-34540809D01*
X47818407Y-34504845D01*
X47849000Y-34500000D01*
X48651000Y-34500000D01*
X48709191Y-34518907D01*
G37*
%TD.AperFunction*%
%TD*%
%TA.AperFunction,Conductor*%
%TO.N,Net-(U1-FB)*%
G36*
X45609191Y-38318907D02*
G01*
X45645155Y-38368407D01*
X45650000Y-38399000D01*
X45650000Y-38700000D01*
X47445500Y-38700000D01*
X47503691Y-38718907D01*
X47539655Y-38768407D01*
X47544500Y-38799000D01*
X47544500Y-40401000D01*
X47525593Y-40459191D01*
X47476093Y-40495155D01*
X47445500Y-40500000D01*
X44349077Y-40500000D01*
X44290886Y-40481093D01*
X44254922Y-40431593D01*
X44254145Y-40380823D01*
X44253079Y-40380683D01*
X44254033Y-40373436D01*
X44254031Y-40373302D01*
X44254067Y-40373178D01*
X44254068Y-40373173D01*
X44260500Y-40324316D01*
X44260500Y-39875684D01*
X44254068Y-39826827D01*
X44254066Y-39826823D01*
X44254066Y-39826821D01*
X44253953Y-39826431D01*
X44250000Y-39798736D01*
X44250000Y-38399000D01*
X44268907Y-38340809D01*
X44318407Y-38304845D01*
X44349000Y-38300000D01*
X45551000Y-38300000D01*
X45609191Y-38318907D01*
G37*
%TD.AperFunction*%
%TD*%
M02*
