%TF.GenerationSoftware,KiCad,Pcbnew,7.0.6*%
%TF.CreationDate,2023-07-27T20:42:59+01:00*%
%TF.ProjectId,Crenshaw,4372656e-7368-4617-972e-6b696361645f,V2.0*%
%TF.SameCoordinates,Original*%
%TF.FileFunction,Legend,Bot*%
%TF.FilePolarity,Positive*%
%FSLAX46Y46*%
G04 Gerber Fmt 4.6, Leading zero omitted, Abs format (unit mm)*
G04 Created by KiCad (PCBNEW 7.0.6) date 2023-07-27 20:42:59*
%MOMM*%
%LPD*%
G01*
G04 APERTURE LIST*
G04 Aperture macros list*
%AMRoundRect*
0 Rectangle with rounded corners*
0 $1 Rounding radius*
0 $2 $3 $4 $5 $6 $7 $8 $9 X,Y pos of 4 corners*
0 Add a 4 corners polygon primitive as box body*
4,1,4,$2,$3,$4,$5,$6,$7,$8,$9,$2,$3,0*
0 Add four circle primitives for the rounded corners*
1,1,$1+$1,$2,$3*
1,1,$1+$1,$4,$5*
1,1,$1+$1,$6,$7*
1,1,$1+$1,$8,$9*
0 Add four rect primitives between the rounded corners*
20,1,$1+$1,$2,$3,$4,$5,0*
20,1,$1+$1,$4,$5,$6,$7,0*
20,1,$1+$1,$6,$7,$8,$9,0*
20,1,$1+$1,$8,$9,$2,$3,0*%
G04 Aperture macros list end*
%ADD10C,0.120000*%
%ADD11C,0.150000*%
%ADD12C,0.300000*%
%ADD13C,0.200000*%
%ADD14C,0.100000*%
%ADD15R,1.700000X1.700000*%
%ADD16O,1.700000X1.700000*%
%ADD17C,4.000000*%
%ADD18C,1.152000*%
%ADD19RoundRect,0.135000X0.135000X0.185000X-0.135000X0.185000X-0.135000X-0.185000X0.135000X-0.185000X0*%
%ADD20RoundRect,0.225000X0.250000X-0.225000X0.250000X0.225000X-0.250000X0.225000X-0.250000X-0.225000X0*%
%ADD21RoundRect,0.112500X0.187500X0.112500X-0.187500X0.112500X-0.187500X-0.112500X0.187500X-0.112500X0*%
%ADD22RoundRect,0.225000X-0.225000X-0.250000X0.225000X-0.250000X0.225000X0.250000X-0.225000X0.250000X0*%
%ADD23R,0.800000X2.700000*%
%ADD24RoundRect,0.150000X0.587500X0.150000X-0.587500X0.150000X-0.587500X-0.150000X0.587500X-0.150000X0*%
%ADD25R,0.300000X0.800000*%
%ADD26R,0.400000X0.800000*%
%ADD27RoundRect,0.225000X0.225000X0.250000X-0.225000X0.250000X-0.225000X-0.250000X0.225000X-0.250000X0*%
%ADD28RoundRect,0.112500X-0.187500X-0.112500X0.187500X-0.112500X0.187500X0.112500X-0.187500X0.112500X0*%
%ADD29RoundRect,0.140000X0.140000X0.170000X-0.140000X0.170000X-0.140000X-0.170000X0.140000X-0.170000X0*%
%ADD30RoundRect,0.140000X-0.140000X-0.170000X0.140000X-0.170000X0.140000X0.170000X-0.140000X0.170000X0*%
%ADD31RoundRect,0.140000X0.170000X-0.140000X0.170000X0.140000X-0.170000X0.140000X-0.170000X-0.140000X0*%
%ADD32R,1.000000X1.500000*%
%ADD33RoundRect,0.135000X-0.135000X-0.185000X0.135000X-0.185000X0.135000X0.185000X-0.135000X0.185000X0*%
%ADD34R,0.800000X0.400000*%
%ADD35R,0.800000X0.300000*%
%ADD36RoundRect,0.150000X0.512500X0.150000X-0.512500X0.150000X-0.512500X-0.150000X0.512500X-0.150000X0*%
%ADD37RoundRect,0.200000X0.275000X-0.200000X0.275000X0.200000X-0.275000X0.200000X-0.275000X-0.200000X0*%
G04 APERTURE END LIST*
D10*
X51700000Y-43500000D02*
X51900000Y-43300000D01*
X49000000Y-44500000D02*
X49000000Y-42700000D01*
X55900000Y-37550000D02*
X55900000Y-37850000D01*
X61100000Y-37550000D02*
X61100000Y-37850000D01*
X49500000Y-45000000D02*
X49000000Y-44500000D01*
X51900000Y-41500000D02*
X52400000Y-41000000D01*
X49000000Y-42700000D02*
X48800000Y-42500000D01*
X51900000Y-43300000D02*
X51900000Y-41500000D01*
D11*
X56087030Y-39204819D02*
X56563220Y-39204819D01*
X56563220Y-39204819D02*
X56563220Y-38204819D01*
X55753696Y-39204819D02*
X55753696Y-38204819D01*
X55753696Y-38204819D02*
X55515601Y-38204819D01*
X55515601Y-38204819D02*
X55372744Y-38252438D01*
X55372744Y-38252438D02*
X55277506Y-38347676D01*
X55277506Y-38347676D02*
X55229887Y-38442914D01*
X55229887Y-38442914D02*
X55182268Y-38633390D01*
X55182268Y-38633390D02*
X55182268Y-38776247D01*
X55182268Y-38776247D02*
X55229887Y-38966723D01*
X55229887Y-38966723D02*
X55277506Y-39061961D01*
X55277506Y-39061961D02*
X55372744Y-39157200D01*
X55372744Y-39157200D02*
X55515601Y-39204819D01*
X55515601Y-39204819D02*
X55753696Y-39204819D01*
X54563220Y-38204819D02*
X54372744Y-38204819D01*
X54372744Y-38204819D02*
X54277506Y-38252438D01*
X54277506Y-38252438D02*
X54182268Y-38347676D01*
X54182268Y-38347676D02*
X54134649Y-38538152D01*
X54134649Y-38538152D02*
X54134649Y-38871485D01*
X54134649Y-38871485D02*
X54182268Y-39061961D01*
X54182268Y-39061961D02*
X54277506Y-39157200D01*
X54277506Y-39157200D02*
X54372744Y-39204819D01*
X54372744Y-39204819D02*
X54563220Y-39204819D01*
X54563220Y-39204819D02*
X54658458Y-39157200D01*
X54658458Y-39157200D02*
X54753696Y-39061961D01*
X54753696Y-39061961D02*
X54801315Y-38871485D01*
X54801315Y-38871485D02*
X54801315Y-38538152D01*
X54801315Y-38538152D02*
X54753696Y-38347676D01*
X54753696Y-38347676D02*
X54658458Y-38252438D01*
X54658458Y-38252438D02*
X54563220Y-38204819D01*
D12*
X64428572Y-31519161D02*
X64523810Y-31614400D01*
X64523810Y-31614400D02*
X64809524Y-31709638D01*
X64809524Y-31709638D02*
X65000000Y-31709638D01*
X65000000Y-31709638D02*
X65285715Y-31614400D01*
X65285715Y-31614400D02*
X65476191Y-31423923D01*
X65476191Y-31423923D02*
X65571429Y-31233447D01*
X65571429Y-31233447D02*
X65666667Y-30852495D01*
X65666667Y-30852495D02*
X65666667Y-30566780D01*
X65666667Y-30566780D02*
X65571429Y-30185828D01*
X65571429Y-30185828D02*
X65476191Y-29995352D01*
X65476191Y-29995352D02*
X65285715Y-29804876D01*
X65285715Y-29804876D02*
X65000000Y-29709638D01*
X65000000Y-29709638D02*
X64809524Y-29709638D01*
X64809524Y-29709638D02*
X64523810Y-29804876D01*
X64523810Y-29804876D02*
X64428572Y-29900114D01*
X63571429Y-31709638D02*
X63571429Y-30376304D01*
X63571429Y-30757257D02*
X63476191Y-30566780D01*
X63476191Y-30566780D02*
X63380953Y-30471542D01*
X63380953Y-30471542D02*
X63190477Y-30376304D01*
X63190477Y-30376304D02*
X63000000Y-30376304D01*
X61571429Y-31614400D02*
X61761905Y-31709638D01*
X61761905Y-31709638D02*
X62142858Y-31709638D01*
X62142858Y-31709638D02*
X62333334Y-31614400D01*
X62333334Y-31614400D02*
X62428572Y-31423923D01*
X62428572Y-31423923D02*
X62428572Y-30662019D01*
X62428572Y-30662019D02*
X62333334Y-30471542D01*
X62333334Y-30471542D02*
X62142858Y-30376304D01*
X62142858Y-30376304D02*
X61761905Y-30376304D01*
X61761905Y-30376304D02*
X61571429Y-30471542D01*
X61571429Y-30471542D02*
X61476191Y-30662019D01*
X61476191Y-30662019D02*
X61476191Y-30852495D01*
X61476191Y-30852495D02*
X62428572Y-31042971D01*
X60619048Y-30376304D02*
X60619048Y-31709638D01*
X60619048Y-30566780D02*
X60523810Y-30471542D01*
X60523810Y-30471542D02*
X60333334Y-30376304D01*
X60333334Y-30376304D02*
X60047619Y-30376304D01*
X60047619Y-30376304D02*
X59857143Y-30471542D01*
X59857143Y-30471542D02*
X59761905Y-30662019D01*
X59761905Y-30662019D02*
X59761905Y-31709638D01*
X58904762Y-31614400D02*
X58714286Y-31709638D01*
X58714286Y-31709638D02*
X58333334Y-31709638D01*
X58333334Y-31709638D02*
X58142857Y-31614400D01*
X58142857Y-31614400D02*
X58047619Y-31423923D01*
X58047619Y-31423923D02*
X58047619Y-31328685D01*
X58047619Y-31328685D02*
X58142857Y-31138209D01*
X58142857Y-31138209D02*
X58333334Y-31042971D01*
X58333334Y-31042971D02*
X58619048Y-31042971D01*
X58619048Y-31042971D02*
X58809524Y-30947733D01*
X58809524Y-30947733D02*
X58904762Y-30757257D01*
X58904762Y-30757257D02*
X58904762Y-30662019D01*
X58904762Y-30662019D02*
X58809524Y-30471542D01*
X58809524Y-30471542D02*
X58619048Y-30376304D01*
X58619048Y-30376304D02*
X58333334Y-30376304D01*
X58333334Y-30376304D02*
X58142857Y-30471542D01*
X57190476Y-31709638D02*
X57190476Y-29709638D01*
X56333333Y-31709638D02*
X56333333Y-30662019D01*
X56333333Y-30662019D02*
X56428571Y-30471542D01*
X56428571Y-30471542D02*
X56619047Y-30376304D01*
X56619047Y-30376304D02*
X56904762Y-30376304D01*
X56904762Y-30376304D02*
X57095238Y-30471542D01*
X57095238Y-30471542D02*
X57190476Y-30566780D01*
X54523809Y-31709638D02*
X54523809Y-30662019D01*
X54523809Y-30662019D02*
X54619047Y-30471542D01*
X54619047Y-30471542D02*
X54809523Y-30376304D01*
X54809523Y-30376304D02*
X55190476Y-30376304D01*
X55190476Y-30376304D02*
X55380952Y-30471542D01*
X54523809Y-31614400D02*
X54714285Y-31709638D01*
X54714285Y-31709638D02*
X55190476Y-31709638D01*
X55190476Y-31709638D02*
X55380952Y-31614400D01*
X55380952Y-31614400D02*
X55476190Y-31423923D01*
X55476190Y-31423923D02*
X55476190Y-31233447D01*
X55476190Y-31233447D02*
X55380952Y-31042971D01*
X55380952Y-31042971D02*
X55190476Y-30947733D01*
X55190476Y-30947733D02*
X54714285Y-30947733D01*
X54714285Y-30947733D02*
X54523809Y-30852495D01*
X53761904Y-30376304D02*
X53380952Y-31709638D01*
X53380952Y-31709638D02*
X52999999Y-30757257D01*
X52999999Y-30757257D02*
X52619047Y-31709638D01*
X52619047Y-31709638D02*
X52238095Y-30376304D01*
X50238094Y-29709638D02*
X49571428Y-31709638D01*
X49571428Y-31709638D02*
X48904761Y-29709638D01*
X48333332Y-29900114D02*
X48238094Y-29804876D01*
X48238094Y-29804876D02*
X48047618Y-29709638D01*
X48047618Y-29709638D02*
X47571427Y-29709638D01*
X47571427Y-29709638D02*
X47380951Y-29804876D01*
X47380951Y-29804876D02*
X47285713Y-29900114D01*
X47285713Y-29900114D02*
X47190475Y-30090590D01*
X47190475Y-30090590D02*
X47190475Y-30281066D01*
X47190475Y-30281066D02*
X47285713Y-30566780D01*
X47285713Y-30566780D02*
X48428570Y-31709638D01*
X48428570Y-31709638D02*
X47190475Y-31709638D01*
X46333332Y-31519161D02*
X46238094Y-31614400D01*
X46238094Y-31614400D02*
X46333332Y-31709638D01*
X46333332Y-31709638D02*
X46428570Y-31614400D01*
X46428570Y-31614400D02*
X46333332Y-31519161D01*
X46333332Y-31519161D02*
X46333332Y-31709638D01*
X44999999Y-29709638D02*
X44809522Y-29709638D01*
X44809522Y-29709638D02*
X44619046Y-29804876D01*
X44619046Y-29804876D02*
X44523808Y-29900114D01*
X44523808Y-29900114D02*
X44428570Y-30090590D01*
X44428570Y-30090590D02*
X44333332Y-30471542D01*
X44333332Y-30471542D02*
X44333332Y-30947733D01*
X44333332Y-30947733D02*
X44428570Y-31328685D01*
X44428570Y-31328685D02*
X44523808Y-31519161D01*
X44523808Y-31519161D02*
X44619046Y-31614400D01*
X44619046Y-31614400D02*
X44809522Y-31709638D01*
X44809522Y-31709638D02*
X44999999Y-31709638D01*
X44999999Y-31709638D02*
X45190475Y-31614400D01*
X45190475Y-31614400D02*
X45285713Y-31519161D01*
X45285713Y-31519161D02*
X45380951Y-31328685D01*
X45380951Y-31328685D02*
X45476189Y-30947733D01*
X45476189Y-30947733D02*
X45476189Y-30471542D01*
X45476189Y-30471542D02*
X45380951Y-30090590D01*
X45380951Y-30090590D02*
X45285713Y-29900114D01*
X45285713Y-29900114D02*
X45190475Y-29804876D01*
X45190475Y-29804876D02*
X44999999Y-29709638D01*
D11*
X59738094Y-38204819D02*
X59119047Y-38204819D01*
X59119047Y-38204819D02*
X59452380Y-38585771D01*
X59452380Y-38585771D02*
X59309523Y-38585771D01*
X59309523Y-38585771D02*
X59214285Y-38633390D01*
X59214285Y-38633390D02*
X59166666Y-38681009D01*
X59166666Y-38681009D02*
X59119047Y-38776247D01*
X59119047Y-38776247D02*
X59119047Y-39014342D01*
X59119047Y-39014342D02*
X59166666Y-39109580D01*
X59166666Y-39109580D02*
X59214285Y-39157200D01*
X59214285Y-39157200D02*
X59309523Y-39204819D01*
X59309523Y-39204819D02*
X59595237Y-39204819D01*
X59595237Y-39204819D02*
X59690475Y-39157200D01*
X59690475Y-39157200D02*
X59738094Y-39109580D01*
X58833332Y-38204819D02*
X58499999Y-39204819D01*
X58499999Y-39204819D02*
X58166666Y-38204819D01*
X57928570Y-38204819D02*
X57309523Y-38204819D01*
X57309523Y-38204819D02*
X57642856Y-38585771D01*
X57642856Y-38585771D02*
X57499999Y-38585771D01*
X57499999Y-38585771D02*
X57404761Y-38633390D01*
X57404761Y-38633390D02*
X57357142Y-38681009D01*
X57357142Y-38681009D02*
X57309523Y-38776247D01*
X57309523Y-38776247D02*
X57309523Y-39014342D01*
X57309523Y-39014342D02*
X57357142Y-39109580D01*
X57357142Y-39109580D02*
X57404761Y-39157200D01*
X57404761Y-39157200D02*
X57499999Y-39204819D01*
X57499999Y-39204819D02*
X57785713Y-39204819D01*
X57785713Y-39204819D02*
X57880951Y-39157200D01*
X57880951Y-39157200D02*
X57928570Y-39109580D01*
X62436778Y-38204819D02*
X62103445Y-39204819D01*
X62103445Y-39204819D02*
X61770112Y-38204819D01*
X61436778Y-39204819D02*
X61436778Y-38204819D01*
X60960588Y-39204819D02*
X60960588Y-38204819D01*
X60389160Y-39204819D02*
X60817731Y-38633390D01*
X60389160Y-38204819D02*
X60960588Y-38776247D01*
X38447619Y-48154819D02*
X38780952Y-47678628D01*
X39019047Y-48154819D02*
X39019047Y-47154819D01*
X39019047Y-47154819D02*
X38638095Y-47154819D01*
X38638095Y-47154819D02*
X38542857Y-47202438D01*
X38542857Y-47202438D02*
X38495238Y-47250057D01*
X38495238Y-47250057D02*
X38447619Y-47345295D01*
X38447619Y-47345295D02*
X38447619Y-47488152D01*
X38447619Y-47488152D02*
X38495238Y-47583390D01*
X38495238Y-47583390D02*
X38542857Y-47631009D01*
X38542857Y-47631009D02*
X38638095Y-47678628D01*
X38638095Y-47678628D02*
X39019047Y-47678628D01*
X38066666Y-48107200D02*
X37923809Y-48154819D01*
X37923809Y-48154819D02*
X37685714Y-48154819D01*
X37685714Y-48154819D02*
X37590476Y-48107200D01*
X37590476Y-48107200D02*
X37542857Y-48059580D01*
X37542857Y-48059580D02*
X37495238Y-47964342D01*
X37495238Y-47964342D02*
X37495238Y-47869104D01*
X37495238Y-47869104D02*
X37542857Y-47773866D01*
X37542857Y-47773866D02*
X37590476Y-47726247D01*
X37590476Y-47726247D02*
X37685714Y-47678628D01*
X37685714Y-47678628D02*
X37876190Y-47631009D01*
X37876190Y-47631009D02*
X37971428Y-47583390D01*
X37971428Y-47583390D02*
X38019047Y-47535771D01*
X38019047Y-47535771D02*
X38066666Y-47440533D01*
X38066666Y-47440533D02*
X38066666Y-47345295D01*
X38066666Y-47345295D02*
X38019047Y-47250057D01*
X38019047Y-47250057D02*
X37971428Y-47202438D01*
X37971428Y-47202438D02*
X37876190Y-47154819D01*
X37876190Y-47154819D02*
X37638095Y-47154819D01*
X37638095Y-47154819D02*
X37495238Y-47202438D01*
X37209523Y-47154819D02*
X36638095Y-47154819D01*
X36923809Y-48154819D02*
X36923809Y-47154819D01*
X38661904Y-34502438D02*
X38757142Y-34454819D01*
X38757142Y-34454819D02*
X38899999Y-34454819D01*
X38899999Y-34454819D02*
X39042856Y-34502438D01*
X39042856Y-34502438D02*
X39138094Y-34597676D01*
X39138094Y-34597676D02*
X39185713Y-34692914D01*
X39185713Y-34692914D02*
X39233332Y-34883390D01*
X39233332Y-34883390D02*
X39233332Y-35026247D01*
X39233332Y-35026247D02*
X39185713Y-35216723D01*
X39185713Y-35216723D02*
X39138094Y-35311961D01*
X39138094Y-35311961D02*
X39042856Y-35407200D01*
X39042856Y-35407200D02*
X38899999Y-35454819D01*
X38899999Y-35454819D02*
X38804761Y-35454819D01*
X38804761Y-35454819D02*
X38661904Y-35407200D01*
X38661904Y-35407200D02*
X38614285Y-35359580D01*
X38614285Y-35359580D02*
X38614285Y-35026247D01*
X38614285Y-35026247D02*
X38804761Y-35026247D01*
X38185713Y-35454819D02*
X38185713Y-34454819D01*
X38185713Y-34454819D02*
X37614285Y-35454819D01*
X37614285Y-35454819D02*
X37614285Y-34454819D01*
X37138094Y-35454819D02*
X37138094Y-34454819D01*
X37138094Y-34454819D02*
X36899999Y-34454819D01*
X36899999Y-34454819D02*
X36757142Y-34502438D01*
X36757142Y-34502438D02*
X36661904Y-34597676D01*
X36661904Y-34597676D02*
X36614285Y-34692914D01*
X36614285Y-34692914D02*
X36566666Y-34883390D01*
X36566666Y-34883390D02*
X36566666Y-35026247D01*
X36566666Y-35026247D02*
X36614285Y-35216723D01*
X36614285Y-35216723D02*
X36661904Y-35311961D01*
X36661904Y-35311961D02*
X36757142Y-35407200D01*
X36757142Y-35407200D02*
X36899999Y-35454819D01*
X36899999Y-35454819D02*
X37138094Y-35454819D01*
X38066666Y-42959580D02*
X38114285Y-43007200D01*
X38114285Y-43007200D02*
X38257142Y-43054819D01*
X38257142Y-43054819D02*
X38352380Y-43054819D01*
X38352380Y-43054819D02*
X38495237Y-43007200D01*
X38495237Y-43007200D02*
X38590475Y-42911961D01*
X38590475Y-42911961D02*
X38638094Y-42816723D01*
X38638094Y-42816723D02*
X38685713Y-42626247D01*
X38685713Y-42626247D02*
X38685713Y-42483390D01*
X38685713Y-42483390D02*
X38638094Y-42292914D01*
X38638094Y-42292914D02*
X38590475Y-42197676D01*
X38590475Y-42197676D02*
X38495237Y-42102438D01*
X38495237Y-42102438D02*
X38352380Y-42054819D01*
X38352380Y-42054819D02*
X38257142Y-42054819D01*
X38257142Y-42054819D02*
X38114285Y-42102438D01*
X38114285Y-42102438D02*
X38066666Y-42150057D01*
X37685713Y-43007200D02*
X37542856Y-43054819D01*
X37542856Y-43054819D02*
X37304761Y-43054819D01*
X37304761Y-43054819D02*
X37209523Y-43007200D01*
X37209523Y-43007200D02*
X37161904Y-42959580D01*
X37161904Y-42959580D02*
X37114285Y-42864342D01*
X37114285Y-42864342D02*
X37114285Y-42769104D01*
X37114285Y-42769104D02*
X37161904Y-42673866D01*
X37161904Y-42673866D02*
X37209523Y-42626247D01*
X37209523Y-42626247D02*
X37304761Y-42578628D01*
X37304761Y-42578628D02*
X37495237Y-42531009D01*
X37495237Y-42531009D02*
X37590475Y-42483390D01*
X37590475Y-42483390D02*
X37638094Y-42435771D01*
X37638094Y-42435771D02*
X37685713Y-42340533D01*
X37685713Y-42340533D02*
X37685713Y-42245295D01*
X37685713Y-42245295D02*
X37638094Y-42150057D01*
X37638094Y-42150057D02*
X37590475Y-42102438D01*
X37590475Y-42102438D02*
X37495237Y-42054819D01*
X37495237Y-42054819D02*
X37257142Y-42054819D01*
X37257142Y-42054819D02*
X37114285Y-42102438D01*
X39185713Y-32573866D02*
X38423809Y-32573866D01*
X38804761Y-32954819D02*
X38804761Y-32192914D01*
X37471428Y-31954819D02*
X37947618Y-31954819D01*
X37947618Y-31954819D02*
X37995237Y-32431009D01*
X37995237Y-32431009D02*
X37947618Y-32383390D01*
X37947618Y-32383390D02*
X37852380Y-32335771D01*
X37852380Y-32335771D02*
X37614285Y-32335771D01*
X37614285Y-32335771D02*
X37519047Y-32383390D01*
X37519047Y-32383390D02*
X37471428Y-32431009D01*
X37471428Y-32431009D02*
X37423809Y-32526247D01*
X37423809Y-32526247D02*
X37423809Y-32764342D01*
X37423809Y-32764342D02*
X37471428Y-32859580D01*
X37471428Y-32859580D02*
X37519047Y-32907200D01*
X37519047Y-32907200D02*
X37614285Y-32954819D01*
X37614285Y-32954819D02*
X37852380Y-32954819D01*
X37852380Y-32954819D02*
X37947618Y-32907200D01*
X37947618Y-32907200D02*
X37995237Y-32859580D01*
X37138094Y-31954819D02*
X36804761Y-32954819D01*
X36804761Y-32954819D02*
X36471428Y-31954819D01*
X39185713Y-40507200D02*
X39042856Y-40554819D01*
X39042856Y-40554819D02*
X38804761Y-40554819D01*
X38804761Y-40554819D02*
X38709523Y-40507200D01*
X38709523Y-40507200D02*
X38661904Y-40459580D01*
X38661904Y-40459580D02*
X38614285Y-40364342D01*
X38614285Y-40364342D02*
X38614285Y-40269104D01*
X38614285Y-40269104D02*
X38661904Y-40173866D01*
X38661904Y-40173866D02*
X38709523Y-40126247D01*
X38709523Y-40126247D02*
X38804761Y-40078628D01*
X38804761Y-40078628D02*
X38995237Y-40031009D01*
X38995237Y-40031009D02*
X39090475Y-39983390D01*
X39090475Y-39983390D02*
X39138094Y-39935771D01*
X39138094Y-39935771D02*
X39185713Y-39840533D01*
X39185713Y-39840533D02*
X39185713Y-39745295D01*
X39185713Y-39745295D02*
X39138094Y-39650057D01*
X39138094Y-39650057D02*
X39090475Y-39602438D01*
X39090475Y-39602438D02*
X38995237Y-39554819D01*
X38995237Y-39554819D02*
X38757142Y-39554819D01*
X38757142Y-39554819D02*
X38614285Y-39602438D01*
X37614285Y-40459580D02*
X37661904Y-40507200D01*
X37661904Y-40507200D02*
X37804761Y-40554819D01*
X37804761Y-40554819D02*
X37899999Y-40554819D01*
X37899999Y-40554819D02*
X38042856Y-40507200D01*
X38042856Y-40507200D02*
X38138094Y-40411961D01*
X38138094Y-40411961D02*
X38185713Y-40316723D01*
X38185713Y-40316723D02*
X38233332Y-40126247D01*
X38233332Y-40126247D02*
X38233332Y-39983390D01*
X38233332Y-39983390D02*
X38185713Y-39792914D01*
X38185713Y-39792914D02*
X38138094Y-39697676D01*
X38138094Y-39697676D02*
X38042856Y-39602438D01*
X38042856Y-39602438D02*
X37899999Y-39554819D01*
X37899999Y-39554819D02*
X37804761Y-39554819D01*
X37804761Y-39554819D02*
X37661904Y-39602438D01*
X37661904Y-39602438D02*
X37614285Y-39650057D01*
X37185713Y-40554819D02*
X37185713Y-39554819D01*
X36614285Y-40554819D02*
X37042856Y-39983390D01*
X36614285Y-39554819D02*
X37185713Y-40126247D01*
X38670733Y-45658264D02*
X38670733Y-44658264D01*
X38670733Y-44658264D02*
X38432638Y-44658264D01*
X38432638Y-44658264D02*
X38289781Y-44705883D01*
X38289781Y-44705883D02*
X38194543Y-44801121D01*
X38194543Y-44801121D02*
X38146924Y-44896359D01*
X38146924Y-44896359D02*
X38099305Y-45086835D01*
X38099305Y-45086835D02*
X38099305Y-45229692D01*
X38099305Y-45229692D02*
X38146924Y-45420168D01*
X38146924Y-45420168D02*
X38194543Y-45515406D01*
X38194543Y-45515406D02*
X38289781Y-45610645D01*
X38289781Y-45610645D02*
X38432638Y-45658264D01*
X38432638Y-45658264D02*
X38670733Y-45658264D01*
X37099305Y-45563025D02*
X37146924Y-45610645D01*
X37146924Y-45610645D02*
X37289781Y-45658264D01*
X37289781Y-45658264D02*
X37385019Y-45658264D01*
X37385019Y-45658264D02*
X37527876Y-45610645D01*
X37527876Y-45610645D02*
X37623114Y-45515406D01*
X37623114Y-45515406D02*
X37670733Y-45420168D01*
X37670733Y-45420168D02*
X37718352Y-45229692D01*
X37718352Y-45229692D02*
X37718352Y-45086835D01*
X37718352Y-45086835D02*
X37670733Y-44896359D01*
X37670733Y-44896359D02*
X37623114Y-44801121D01*
X37623114Y-44801121D02*
X37527876Y-44705883D01*
X37527876Y-44705883D02*
X37385019Y-44658264D01*
X37385019Y-44658264D02*
X37289781Y-44658264D01*
X37289781Y-44658264D02*
X37146924Y-44705883D01*
X37146924Y-44705883D02*
X37099305Y-44753502D01*
X39471427Y-38054819D02*
X39471427Y-37054819D01*
X39471427Y-37054819D02*
X39138094Y-37769104D01*
X39138094Y-37769104D02*
X38804761Y-37054819D01*
X38804761Y-37054819D02*
X38804761Y-38054819D01*
X38138094Y-37054819D02*
X37947618Y-37054819D01*
X37947618Y-37054819D02*
X37852380Y-37102438D01*
X37852380Y-37102438D02*
X37757142Y-37197676D01*
X37757142Y-37197676D02*
X37709523Y-37388152D01*
X37709523Y-37388152D02*
X37709523Y-37721485D01*
X37709523Y-37721485D02*
X37757142Y-37911961D01*
X37757142Y-37911961D02*
X37852380Y-38007200D01*
X37852380Y-38007200D02*
X37947618Y-38054819D01*
X37947618Y-38054819D02*
X38138094Y-38054819D01*
X38138094Y-38054819D02*
X38233332Y-38007200D01*
X38233332Y-38007200D02*
X38328570Y-37911961D01*
X38328570Y-37911961D02*
X38376189Y-37721485D01*
X38376189Y-37721485D02*
X38376189Y-37388152D01*
X38376189Y-37388152D02*
X38328570Y-37197676D01*
X38328570Y-37197676D02*
X38233332Y-37102438D01*
X38233332Y-37102438D02*
X38138094Y-37054819D01*
X37328570Y-38007200D02*
X37185713Y-38054819D01*
X37185713Y-38054819D02*
X36947618Y-38054819D01*
X36947618Y-38054819D02*
X36852380Y-38007200D01*
X36852380Y-38007200D02*
X36804761Y-37959580D01*
X36804761Y-37959580D02*
X36757142Y-37864342D01*
X36757142Y-37864342D02*
X36757142Y-37769104D01*
X36757142Y-37769104D02*
X36804761Y-37673866D01*
X36804761Y-37673866D02*
X36852380Y-37626247D01*
X36852380Y-37626247D02*
X36947618Y-37578628D01*
X36947618Y-37578628D02*
X37138094Y-37531009D01*
X37138094Y-37531009D02*
X37233332Y-37483390D01*
X37233332Y-37483390D02*
X37280951Y-37435771D01*
X37280951Y-37435771D02*
X37328570Y-37340533D01*
X37328570Y-37340533D02*
X37328570Y-37245295D01*
X37328570Y-37245295D02*
X37280951Y-37150057D01*
X37280951Y-37150057D02*
X37233332Y-37102438D01*
X37233332Y-37102438D02*
X37138094Y-37054819D01*
X37138094Y-37054819D02*
X36899999Y-37054819D01*
X36899999Y-37054819D02*
X36757142Y-37102438D01*
X36328570Y-38054819D02*
X36328570Y-37054819D01*
X48066666Y-42354819D02*
X48399999Y-41878628D01*
X48638094Y-42354819D02*
X48638094Y-41354819D01*
X48638094Y-41354819D02*
X48257142Y-41354819D01*
X48257142Y-41354819D02*
X48161904Y-41402438D01*
X48161904Y-41402438D02*
X48114285Y-41450057D01*
X48114285Y-41450057D02*
X48066666Y-41545295D01*
X48066666Y-41545295D02*
X48066666Y-41688152D01*
X48066666Y-41688152D02*
X48114285Y-41783390D01*
X48114285Y-41783390D02*
X48161904Y-41831009D01*
X48161904Y-41831009D02*
X48257142Y-41878628D01*
X48257142Y-41878628D02*
X48638094Y-41878628D01*
X47114285Y-42354819D02*
X47685713Y-42354819D01*
X47399999Y-42354819D02*
X47399999Y-41354819D01*
X47399999Y-41354819D02*
X47495237Y-41497676D01*
X47495237Y-41497676D02*
X47590475Y-41592914D01*
X47590475Y-41592914D02*
X47685713Y-41640533D01*
X44466666Y-41754819D02*
X44799999Y-41278628D01*
X45038094Y-41754819D02*
X45038094Y-40754819D01*
X45038094Y-40754819D02*
X44657142Y-40754819D01*
X44657142Y-40754819D02*
X44561904Y-40802438D01*
X44561904Y-40802438D02*
X44514285Y-40850057D01*
X44514285Y-40850057D02*
X44466666Y-40945295D01*
X44466666Y-40945295D02*
X44466666Y-41088152D01*
X44466666Y-41088152D02*
X44514285Y-41183390D01*
X44514285Y-41183390D02*
X44561904Y-41231009D01*
X44561904Y-41231009D02*
X44657142Y-41278628D01*
X44657142Y-41278628D02*
X45038094Y-41278628D01*
X43561904Y-40754819D02*
X44038094Y-40754819D01*
X44038094Y-40754819D02*
X44085713Y-41231009D01*
X44085713Y-41231009D02*
X44038094Y-41183390D01*
X44038094Y-41183390D02*
X43942856Y-41135771D01*
X43942856Y-41135771D02*
X43704761Y-41135771D01*
X43704761Y-41135771D02*
X43609523Y-41183390D01*
X43609523Y-41183390D02*
X43561904Y-41231009D01*
X43561904Y-41231009D02*
X43514285Y-41326247D01*
X43514285Y-41326247D02*
X43514285Y-41564342D01*
X43514285Y-41564342D02*
X43561904Y-41659580D01*
X43561904Y-41659580D02*
X43609523Y-41707200D01*
X43609523Y-41707200D02*
X43704761Y-41754819D01*
X43704761Y-41754819D02*
X43942856Y-41754819D01*
X43942856Y-41754819D02*
X44038094Y-41707200D01*
X44038094Y-41707200D02*
X44085713Y-41659580D01*
X41116666Y-35859580D02*
X41164285Y-35907200D01*
X41164285Y-35907200D02*
X41307142Y-35954819D01*
X41307142Y-35954819D02*
X41402380Y-35954819D01*
X41402380Y-35954819D02*
X41545237Y-35907200D01*
X41545237Y-35907200D02*
X41640475Y-35811961D01*
X41640475Y-35811961D02*
X41688094Y-35716723D01*
X41688094Y-35716723D02*
X41735713Y-35526247D01*
X41735713Y-35526247D02*
X41735713Y-35383390D01*
X41735713Y-35383390D02*
X41688094Y-35192914D01*
X41688094Y-35192914D02*
X41640475Y-35097676D01*
X41640475Y-35097676D02*
X41545237Y-35002438D01*
X41545237Y-35002438D02*
X41402380Y-34954819D01*
X41402380Y-34954819D02*
X41307142Y-34954819D01*
X41307142Y-34954819D02*
X41164285Y-35002438D01*
X41164285Y-35002438D02*
X41116666Y-35050057D01*
X40545237Y-35383390D02*
X40640475Y-35335771D01*
X40640475Y-35335771D02*
X40688094Y-35288152D01*
X40688094Y-35288152D02*
X40735713Y-35192914D01*
X40735713Y-35192914D02*
X40735713Y-35145295D01*
X40735713Y-35145295D02*
X40688094Y-35050057D01*
X40688094Y-35050057D02*
X40640475Y-35002438D01*
X40640475Y-35002438D02*
X40545237Y-34954819D01*
X40545237Y-34954819D02*
X40354761Y-34954819D01*
X40354761Y-34954819D02*
X40259523Y-35002438D01*
X40259523Y-35002438D02*
X40211904Y-35050057D01*
X40211904Y-35050057D02*
X40164285Y-35145295D01*
X40164285Y-35145295D02*
X40164285Y-35192914D01*
X40164285Y-35192914D02*
X40211904Y-35288152D01*
X40211904Y-35288152D02*
X40259523Y-35335771D01*
X40259523Y-35335771D02*
X40354761Y-35383390D01*
X40354761Y-35383390D02*
X40545237Y-35383390D01*
X40545237Y-35383390D02*
X40640475Y-35431009D01*
X40640475Y-35431009D02*
X40688094Y-35478628D01*
X40688094Y-35478628D02*
X40735713Y-35573866D01*
X40735713Y-35573866D02*
X40735713Y-35764342D01*
X40735713Y-35764342D02*
X40688094Y-35859580D01*
X40688094Y-35859580D02*
X40640475Y-35907200D01*
X40640475Y-35907200D02*
X40545237Y-35954819D01*
X40545237Y-35954819D02*
X40354761Y-35954819D01*
X40354761Y-35954819D02*
X40259523Y-35907200D01*
X40259523Y-35907200D02*
X40211904Y-35859580D01*
X40211904Y-35859580D02*
X40164285Y-35764342D01*
X40164285Y-35764342D02*
X40164285Y-35573866D01*
X40164285Y-35573866D02*
X40211904Y-35478628D01*
X40211904Y-35478628D02*
X40259523Y-35431009D01*
X40259523Y-35431009D02*
X40354761Y-35383390D01*
X48038094Y-33654819D02*
X48038094Y-32654819D01*
X48038094Y-32654819D02*
X47799999Y-32654819D01*
X47799999Y-32654819D02*
X47657142Y-32702438D01*
X47657142Y-32702438D02*
X47561904Y-32797676D01*
X47561904Y-32797676D02*
X47514285Y-32892914D01*
X47514285Y-32892914D02*
X47466666Y-33083390D01*
X47466666Y-33083390D02*
X47466666Y-33226247D01*
X47466666Y-33226247D02*
X47514285Y-33416723D01*
X47514285Y-33416723D02*
X47561904Y-33511961D01*
X47561904Y-33511961D02*
X47657142Y-33607200D01*
X47657142Y-33607200D02*
X47799999Y-33654819D01*
X47799999Y-33654819D02*
X48038094Y-33654819D01*
X47133332Y-32654819D02*
X46514285Y-32654819D01*
X46514285Y-32654819D02*
X46847618Y-33035771D01*
X46847618Y-33035771D02*
X46704761Y-33035771D01*
X46704761Y-33035771D02*
X46609523Y-33083390D01*
X46609523Y-33083390D02*
X46561904Y-33131009D01*
X46561904Y-33131009D02*
X46514285Y-33226247D01*
X46514285Y-33226247D02*
X46514285Y-33464342D01*
X46514285Y-33464342D02*
X46561904Y-33559580D01*
X46561904Y-33559580D02*
X46609523Y-33607200D01*
X46609523Y-33607200D02*
X46704761Y-33654819D01*
X46704761Y-33654819D02*
X46990475Y-33654819D01*
X46990475Y-33654819D02*
X47085713Y-33607200D01*
X47085713Y-33607200D02*
X47133332Y-33559580D01*
X50566666Y-41559580D02*
X50614285Y-41607200D01*
X50614285Y-41607200D02*
X50757142Y-41654819D01*
X50757142Y-41654819D02*
X50852380Y-41654819D01*
X50852380Y-41654819D02*
X50995237Y-41607200D01*
X50995237Y-41607200D02*
X51090475Y-41511961D01*
X51090475Y-41511961D02*
X51138094Y-41416723D01*
X51138094Y-41416723D02*
X51185713Y-41226247D01*
X51185713Y-41226247D02*
X51185713Y-41083390D01*
X51185713Y-41083390D02*
X51138094Y-40892914D01*
X51138094Y-40892914D02*
X51090475Y-40797676D01*
X51090475Y-40797676D02*
X50995237Y-40702438D01*
X50995237Y-40702438D02*
X50852380Y-40654819D01*
X50852380Y-40654819D02*
X50757142Y-40654819D01*
X50757142Y-40654819D02*
X50614285Y-40702438D01*
X50614285Y-40702438D02*
X50566666Y-40750057D01*
X50233332Y-40654819D02*
X49614285Y-40654819D01*
X49614285Y-40654819D02*
X49947618Y-41035771D01*
X49947618Y-41035771D02*
X49804761Y-41035771D01*
X49804761Y-41035771D02*
X49709523Y-41083390D01*
X49709523Y-41083390D02*
X49661904Y-41131009D01*
X49661904Y-41131009D02*
X49614285Y-41226247D01*
X49614285Y-41226247D02*
X49614285Y-41464342D01*
X49614285Y-41464342D02*
X49661904Y-41559580D01*
X49661904Y-41559580D02*
X49709523Y-41607200D01*
X49709523Y-41607200D02*
X49804761Y-41654819D01*
X49804761Y-41654819D02*
X50090475Y-41654819D01*
X50090475Y-41654819D02*
X50185713Y-41607200D01*
X50185713Y-41607200D02*
X50233332Y-41559580D01*
X41066666Y-33454818D02*
X41542856Y-33454818D01*
X41542856Y-33454818D02*
X41542856Y-32454818D01*
X40209523Y-33454818D02*
X40780951Y-33454818D01*
X40495237Y-33454818D02*
X40495237Y-32454818D01*
X40495237Y-32454818D02*
X40590475Y-32597675D01*
X40590475Y-32597675D02*
X40685713Y-32692913D01*
X40685713Y-32692913D02*
X40780951Y-32740532D01*
X53361904Y-38054819D02*
X53361904Y-38864342D01*
X53361904Y-38864342D02*
X53314285Y-38959580D01*
X53314285Y-38959580D02*
X53266666Y-39007200D01*
X53266666Y-39007200D02*
X53171428Y-39054819D01*
X53171428Y-39054819D02*
X52980952Y-39054819D01*
X52980952Y-39054819D02*
X52885714Y-39007200D01*
X52885714Y-39007200D02*
X52838095Y-38959580D01*
X52838095Y-38959580D02*
X52790476Y-38864342D01*
X52790476Y-38864342D02*
X52790476Y-38054819D01*
X52361904Y-38150057D02*
X52314285Y-38102438D01*
X52314285Y-38102438D02*
X52219047Y-38054819D01*
X52219047Y-38054819D02*
X51980952Y-38054819D01*
X51980952Y-38054819D02*
X51885714Y-38102438D01*
X51885714Y-38102438D02*
X51838095Y-38150057D01*
X51838095Y-38150057D02*
X51790476Y-38245295D01*
X51790476Y-38245295D02*
X51790476Y-38340533D01*
X51790476Y-38340533D02*
X51838095Y-38483390D01*
X51838095Y-38483390D02*
X52409523Y-39054819D01*
X52409523Y-39054819D02*
X51790476Y-39054819D01*
X65033333Y-49054819D02*
X65033333Y-49769104D01*
X65033333Y-49769104D02*
X65080952Y-49911961D01*
X65080952Y-49911961D02*
X65176190Y-50007200D01*
X65176190Y-50007200D02*
X65319047Y-50054819D01*
X65319047Y-50054819D02*
X65414285Y-50054819D01*
X64604761Y-49150057D02*
X64557142Y-49102438D01*
X64557142Y-49102438D02*
X64461904Y-49054819D01*
X64461904Y-49054819D02*
X64223809Y-49054819D01*
X64223809Y-49054819D02*
X64128571Y-49102438D01*
X64128571Y-49102438D02*
X64080952Y-49150057D01*
X64080952Y-49150057D02*
X64033333Y-49245295D01*
X64033333Y-49245295D02*
X64033333Y-49340533D01*
X64033333Y-49340533D02*
X64080952Y-49483390D01*
X64080952Y-49483390D02*
X64652380Y-50054819D01*
X64652380Y-50054819D02*
X64033333Y-50054819D01*
X45066666Y-44459580D02*
X45114285Y-44507200D01*
X45114285Y-44507200D02*
X45257142Y-44554819D01*
X45257142Y-44554819D02*
X45352380Y-44554819D01*
X45352380Y-44554819D02*
X45495237Y-44507200D01*
X45495237Y-44507200D02*
X45590475Y-44411961D01*
X45590475Y-44411961D02*
X45638094Y-44316723D01*
X45638094Y-44316723D02*
X45685713Y-44126247D01*
X45685713Y-44126247D02*
X45685713Y-43983390D01*
X45685713Y-43983390D02*
X45638094Y-43792914D01*
X45638094Y-43792914D02*
X45590475Y-43697676D01*
X45590475Y-43697676D02*
X45495237Y-43602438D01*
X45495237Y-43602438D02*
X45352380Y-43554819D01*
X45352380Y-43554819D02*
X45257142Y-43554819D01*
X45257142Y-43554819D02*
X45114285Y-43602438D01*
X45114285Y-43602438D02*
X45066666Y-43650057D01*
X44685713Y-43650057D02*
X44638094Y-43602438D01*
X44638094Y-43602438D02*
X44542856Y-43554819D01*
X44542856Y-43554819D02*
X44304761Y-43554819D01*
X44304761Y-43554819D02*
X44209523Y-43602438D01*
X44209523Y-43602438D02*
X44161904Y-43650057D01*
X44161904Y-43650057D02*
X44114285Y-43745295D01*
X44114285Y-43745295D02*
X44114285Y-43840533D01*
X44114285Y-43840533D02*
X44161904Y-43983390D01*
X44161904Y-43983390D02*
X44733332Y-44554819D01*
X44733332Y-44554819D02*
X44114285Y-44554819D01*
X57238094Y-43454819D02*
X57238094Y-42454819D01*
X57238094Y-42454819D02*
X56999999Y-42454819D01*
X56999999Y-42454819D02*
X56857142Y-42502438D01*
X56857142Y-42502438D02*
X56761904Y-42597676D01*
X56761904Y-42597676D02*
X56714285Y-42692914D01*
X56714285Y-42692914D02*
X56666666Y-42883390D01*
X56666666Y-42883390D02*
X56666666Y-43026247D01*
X56666666Y-43026247D02*
X56714285Y-43216723D01*
X56714285Y-43216723D02*
X56761904Y-43311961D01*
X56761904Y-43311961D02*
X56857142Y-43407200D01*
X56857142Y-43407200D02*
X56999999Y-43454819D01*
X56999999Y-43454819D02*
X57238094Y-43454819D01*
X56285713Y-42550057D02*
X56238094Y-42502438D01*
X56238094Y-42502438D02*
X56142856Y-42454819D01*
X56142856Y-42454819D02*
X55904761Y-42454819D01*
X55904761Y-42454819D02*
X55809523Y-42502438D01*
X55809523Y-42502438D02*
X55761904Y-42550057D01*
X55761904Y-42550057D02*
X55714285Y-42645295D01*
X55714285Y-42645295D02*
X55714285Y-42740533D01*
X55714285Y-42740533D02*
X55761904Y-42883390D01*
X55761904Y-42883390D02*
X56333332Y-43454819D01*
X56333332Y-43454819D02*
X55714285Y-43454819D01*
X45866666Y-45759580D02*
X45914285Y-45807200D01*
X45914285Y-45807200D02*
X46057142Y-45854819D01*
X46057142Y-45854819D02*
X46152380Y-45854819D01*
X46152380Y-45854819D02*
X46295237Y-45807200D01*
X46295237Y-45807200D02*
X46390475Y-45711961D01*
X46390475Y-45711961D02*
X46438094Y-45616723D01*
X46438094Y-45616723D02*
X46485713Y-45426247D01*
X46485713Y-45426247D02*
X46485713Y-45283390D01*
X46485713Y-45283390D02*
X46438094Y-45092914D01*
X46438094Y-45092914D02*
X46390475Y-44997676D01*
X46390475Y-44997676D02*
X46295237Y-44902438D01*
X46295237Y-44902438D02*
X46152380Y-44854819D01*
X46152380Y-44854819D02*
X46057142Y-44854819D01*
X46057142Y-44854819D02*
X45914285Y-44902438D01*
X45914285Y-44902438D02*
X45866666Y-44950057D01*
X44914285Y-45854819D02*
X45485713Y-45854819D01*
X45199999Y-45854819D02*
X45199999Y-44854819D01*
X45199999Y-44854819D02*
X45295237Y-44997676D01*
X45295237Y-44997676D02*
X45390475Y-45092914D01*
X45390475Y-45092914D02*
X45485713Y-45140533D01*
X53466666Y-40759580D02*
X53514285Y-40807200D01*
X53514285Y-40807200D02*
X53657142Y-40854819D01*
X53657142Y-40854819D02*
X53752380Y-40854819D01*
X53752380Y-40854819D02*
X53895237Y-40807200D01*
X53895237Y-40807200D02*
X53990475Y-40711961D01*
X53990475Y-40711961D02*
X54038094Y-40616723D01*
X54038094Y-40616723D02*
X54085713Y-40426247D01*
X54085713Y-40426247D02*
X54085713Y-40283390D01*
X54085713Y-40283390D02*
X54038094Y-40092914D01*
X54038094Y-40092914D02*
X53990475Y-39997676D01*
X53990475Y-39997676D02*
X53895237Y-39902438D01*
X53895237Y-39902438D02*
X53752380Y-39854819D01*
X53752380Y-39854819D02*
X53657142Y-39854819D01*
X53657142Y-39854819D02*
X53514285Y-39902438D01*
X53514285Y-39902438D02*
X53466666Y-39950057D01*
X52609523Y-40188152D02*
X52609523Y-40854819D01*
X52847618Y-39807200D02*
X53085713Y-40521485D01*
X53085713Y-40521485D02*
X52466666Y-40521485D01*
X64766666Y-44459580D02*
X64814285Y-44507200D01*
X64814285Y-44507200D02*
X64957142Y-44554819D01*
X64957142Y-44554819D02*
X65052380Y-44554819D01*
X65052380Y-44554819D02*
X65195237Y-44507200D01*
X65195237Y-44507200D02*
X65290475Y-44411961D01*
X65290475Y-44411961D02*
X65338094Y-44316723D01*
X65338094Y-44316723D02*
X65385713Y-44126247D01*
X65385713Y-44126247D02*
X65385713Y-43983390D01*
X65385713Y-43983390D02*
X65338094Y-43792914D01*
X65338094Y-43792914D02*
X65290475Y-43697676D01*
X65290475Y-43697676D02*
X65195237Y-43602438D01*
X65195237Y-43602438D02*
X65052380Y-43554819D01*
X65052380Y-43554819D02*
X64957142Y-43554819D01*
X64957142Y-43554819D02*
X64814285Y-43602438D01*
X64814285Y-43602438D02*
X64766666Y-43650057D01*
X64433332Y-43554819D02*
X63766666Y-43554819D01*
X63766666Y-43554819D02*
X64195237Y-44554819D01*
X57238094Y-45454819D02*
X57238094Y-44454819D01*
X57238094Y-44454819D02*
X56999999Y-44454819D01*
X56999999Y-44454819D02*
X56857142Y-44502438D01*
X56857142Y-44502438D02*
X56761904Y-44597676D01*
X56761904Y-44597676D02*
X56714285Y-44692914D01*
X56714285Y-44692914D02*
X56666666Y-44883390D01*
X56666666Y-44883390D02*
X56666666Y-45026247D01*
X56666666Y-45026247D02*
X56714285Y-45216723D01*
X56714285Y-45216723D02*
X56761904Y-45311961D01*
X56761904Y-45311961D02*
X56857142Y-45407200D01*
X56857142Y-45407200D02*
X56999999Y-45454819D01*
X56999999Y-45454819D02*
X57238094Y-45454819D01*
X55714285Y-45454819D02*
X56285713Y-45454819D01*
X55999999Y-45454819D02*
X55999999Y-44454819D01*
X55999999Y-44454819D02*
X56095237Y-44597676D01*
X56095237Y-44597676D02*
X56190475Y-44692914D01*
X56190475Y-44692914D02*
X56285713Y-44740533D01*
X49866666Y-38859580D02*
X49914285Y-38907200D01*
X49914285Y-38907200D02*
X50057142Y-38954819D01*
X50057142Y-38954819D02*
X50152380Y-38954819D01*
X50152380Y-38954819D02*
X50295237Y-38907200D01*
X50295237Y-38907200D02*
X50390475Y-38811961D01*
X50390475Y-38811961D02*
X50438094Y-38716723D01*
X50438094Y-38716723D02*
X50485713Y-38526247D01*
X50485713Y-38526247D02*
X50485713Y-38383390D01*
X50485713Y-38383390D02*
X50438094Y-38192914D01*
X50438094Y-38192914D02*
X50390475Y-38097676D01*
X50390475Y-38097676D02*
X50295237Y-38002438D01*
X50295237Y-38002438D02*
X50152380Y-37954819D01*
X50152380Y-37954819D02*
X50057142Y-37954819D01*
X50057142Y-37954819D02*
X49914285Y-38002438D01*
X49914285Y-38002438D02*
X49866666Y-38050057D01*
X49390475Y-38954819D02*
X49199999Y-38954819D01*
X49199999Y-38954819D02*
X49104761Y-38907200D01*
X49104761Y-38907200D02*
X49057142Y-38859580D01*
X49057142Y-38859580D02*
X48961904Y-38716723D01*
X48961904Y-38716723D02*
X48914285Y-38526247D01*
X48914285Y-38526247D02*
X48914285Y-38145295D01*
X48914285Y-38145295D02*
X48961904Y-38050057D01*
X48961904Y-38050057D02*
X49009523Y-38002438D01*
X49009523Y-38002438D02*
X49104761Y-37954819D01*
X49104761Y-37954819D02*
X49295237Y-37954819D01*
X49295237Y-37954819D02*
X49390475Y-38002438D01*
X49390475Y-38002438D02*
X49438094Y-38050057D01*
X49438094Y-38050057D02*
X49485713Y-38145295D01*
X49485713Y-38145295D02*
X49485713Y-38383390D01*
X49485713Y-38383390D02*
X49438094Y-38478628D01*
X49438094Y-38478628D02*
X49390475Y-38526247D01*
X49390475Y-38526247D02*
X49295237Y-38573866D01*
X49295237Y-38573866D02*
X49104761Y-38573866D01*
X49104761Y-38573866D02*
X49009523Y-38526247D01*
X49009523Y-38526247D02*
X48961904Y-38478628D01*
X48961904Y-38478628D02*
X48914285Y-38383390D01*
X60866666Y-42859580D02*
X60914285Y-42907200D01*
X60914285Y-42907200D02*
X61057142Y-42954819D01*
X61057142Y-42954819D02*
X61152380Y-42954819D01*
X61152380Y-42954819D02*
X61295237Y-42907200D01*
X61295237Y-42907200D02*
X61390475Y-42811961D01*
X61390475Y-42811961D02*
X61438094Y-42716723D01*
X61438094Y-42716723D02*
X61485713Y-42526247D01*
X61485713Y-42526247D02*
X61485713Y-42383390D01*
X61485713Y-42383390D02*
X61438094Y-42192914D01*
X61438094Y-42192914D02*
X61390475Y-42097676D01*
X61390475Y-42097676D02*
X61295237Y-42002438D01*
X61295237Y-42002438D02*
X61152380Y-41954819D01*
X61152380Y-41954819D02*
X61057142Y-41954819D01*
X61057142Y-41954819D02*
X60914285Y-42002438D01*
X60914285Y-42002438D02*
X60866666Y-42050057D01*
X59961904Y-41954819D02*
X60438094Y-41954819D01*
X60438094Y-41954819D02*
X60485713Y-42431009D01*
X60485713Y-42431009D02*
X60438094Y-42383390D01*
X60438094Y-42383390D02*
X60342856Y-42335771D01*
X60342856Y-42335771D02*
X60104761Y-42335771D01*
X60104761Y-42335771D02*
X60009523Y-42383390D01*
X60009523Y-42383390D02*
X59961904Y-42431009D01*
X59961904Y-42431009D02*
X59914285Y-42526247D01*
X59914285Y-42526247D02*
X59914285Y-42764342D01*
X59914285Y-42764342D02*
X59961904Y-42859580D01*
X59961904Y-42859580D02*
X60009523Y-42907200D01*
X60009523Y-42907200D02*
X60104761Y-42954819D01*
X60104761Y-42954819D02*
X60342856Y-42954819D01*
X60342856Y-42954819D02*
X60438094Y-42907200D01*
X60438094Y-42907200D02*
X60485713Y-42859580D01*
X55242858Y-35459580D02*
X55290477Y-35507200D01*
X55290477Y-35507200D02*
X55433334Y-35554819D01*
X55433334Y-35554819D02*
X55528572Y-35554819D01*
X55528572Y-35554819D02*
X55671429Y-35507200D01*
X55671429Y-35507200D02*
X55766667Y-35411961D01*
X55766667Y-35411961D02*
X55814286Y-35316723D01*
X55814286Y-35316723D02*
X55861905Y-35126247D01*
X55861905Y-35126247D02*
X55861905Y-34983390D01*
X55861905Y-34983390D02*
X55814286Y-34792914D01*
X55814286Y-34792914D02*
X55766667Y-34697676D01*
X55766667Y-34697676D02*
X55671429Y-34602438D01*
X55671429Y-34602438D02*
X55528572Y-34554819D01*
X55528572Y-34554819D02*
X55433334Y-34554819D01*
X55433334Y-34554819D02*
X55290477Y-34602438D01*
X55290477Y-34602438D02*
X55242858Y-34650057D01*
X54290477Y-35554819D02*
X54861905Y-35554819D01*
X54576191Y-35554819D02*
X54576191Y-34554819D01*
X54576191Y-34554819D02*
X54671429Y-34697676D01*
X54671429Y-34697676D02*
X54766667Y-34792914D01*
X54766667Y-34792914D02*
X54861905Y-34840533D01*
X53909524Y-34650057D02*
X53861905Y-34602438D01*
X53861905Y-34602438D02*
X53766667Y-34554819D01*
X53766667Y-34554819D02*
X53528572Y-34554819D01*
X53528572Y-34554819D02*
X53433334Y-34602438D01*
X53433334Y-34602438D02*
X53385715Y-34650057D01*
X53385715Y-34650057D02*
X53338096Y-34745295D01*
X53338096Y-34745295D02*
X53338096Y-34840533D01*
X53338096Y-34840533D02*
X53385715Y-34983390D01*
X53385715Y-34983390D02*
X53957143Y-35554819D01*
X53957143Y-35554819D02*
X53338096Y-35554819D01*
X48092857Y-36859580D02*
X48140476Y-36907200D01*
X48140476Y-36907200D02*
X48283333Y-36954819D01*
X48283333Y-36954819D02*
X48378571Y-36954819D01*
X48378571Y-36954819D02*
X48521428Y-36907200D01*
X48521428Y-36907200D02*
X48616666Y-36811961D01*
X48616666Y-36811961D02*
X48664285Y-36716723D01*
X48664285Y-36716723D02*
X48711904Y-36526247D01*
X48711904Y-36526247D02*
X48711904Y-36383390D01*
X48711904Y-36383390D02*
X48664285Y-36192914D01*
X48664285Y-36192914D02*
X48616666Y-36097676D01*
X48616666Y-36097676D02*
X48521428Y-36002438D01*
X48521428Y-36002438D02*
X48378571Y-35954819D01*
X48378571Y-35954819D02*
X48283333Y-35954819D01*
X48283333Y-35954819D02*
X48140476Y-36002438D01*
X48140476Y-36002438D02*
X48092857Y-36050057D01*
X47140476Y-36954819D02*
X47711904Y-36954819D01*
X47426190Y-36954819D02*
X47426190Y-35954819D01*
X47426190Y-35954819D02*
X47521428Y-36097676D01*
X47521428Y-36097676D02*
X47616666Y-36192914D01*
X47616666Y-36192914D02*
X47711904Y-36240533D01*
X46521428Y-35954819D02*
X46426190Y-35954819D01*
X46426190Y-35954819D02*
X46330952Y-36002438D01*
X46330952Y-36002438D02*
X46283333Y-36050057D01*
X46283333Y-36050057D02*
X46235714Y-36145295D01*
X46235714Y-36145295D02*
X46188095Y-36335771D01*
X46188095Y-36335771D02*
X46188095Y-36573866D01*
X46188095Y-36573866D02*
X46235714Y-36764342D01*
X46235714Y-36764342D02*
X46283333Y-36859580D01*
X46283333Y-36859580D02*
X46330952Y-36907200D01*
X46330952Y-36907200D02*
X46426190Y-36954819D01*
X46426190Y-36954819D02*
X46521428Y-36954819D01*
X46521428Y-36954819D02*
X46616666Y-36907200D01*
X46616666Y-36907200D02*
X46664285Y-36859580D01*
X46664285Y-36859580D02*
X46711904Y-36764342D01*
X46711904Y-36764342D02*
X46759523Y-36573866D01*
X46759523Y-36573866D02*
X46759523Y-36335771D01*
X46759523Y-36335771D02*
X46711904Y-36145295D01*
X46711904Y-36145295D02*
X46664285Y-36050057D01*
X46664285Y-36050057D02*
X46616666Y-36002438D01*
X46616666Y-36002438D02*
X46521428Y-35954819D01*
X59333333Y-34504819D02*
X59333333Y-35219104D01*
X59333333Y-35219104D02*
X59380952Y-35361961D01*
X59380952Y-35361961D02*
X59476190Y-35457200D01*
X59476190Y-35457200D02*
X59619047Y-35504819D01*
X59619047Y-35504819D02*
X59714285Y-35504819D01*
X58857142Y-35504819D02*
X58857142Y-34504819D01*
X58857142Y-34504819D02*
X58476190Y-34504819D01*
X58476190Y-34504819D02*
X58380952Y-34552438D01*
X58380952Y-34552438D02*
X58333333Y-34600057D01*
X58333333Y-34600057D02*
X58285714Y-34695295D01*
X58285714Y-34695295D02*
X58285714Y-34838152D01*
X58285714Y-34838152D02*
X58333333Y-34933390D01*
X58333333Y-34933390D02*
X58380952Y-34981009D01*
X58380952Y-34981009D02*
X58476190Y-35028628D01*
X58476190Y-35028628D02*
X58857142Y-35028628D01*
X57333333Y-35504819D02*
X57904761Y-35504819D01*
X57619047Y-35504819D02*
X57619047Y-34504819D01*
X57619047Y-34504819D02*
X57714285Y-34647676D01*
X57714285Y-34647676D02*
X57809523Y-34742914D01*
X57809523Y-34742914D02*
X57904761Y-34790533D01*
X56233332Y-36204819D02*
X55614285Y-36204819D01*
X55614285Y-36204819D02*
X55947618Y-36585771D01*
X55947618Y-36585771D02*
X55804761Y-36585771D01*
X55804761Y-36585771D02*
X55709523Y-36633390D01*
X55709523Y-36633390D02*
X55661904Y-36681009D01*
X55661904Y-36681009D02*
X55614285Y-36776247D01*
X55614285Y-36776247D02*
X55614285Y-37014342D01*
X55614285Y-37014342D02*
X55661904Y-37109580D01*
X55661904Y-37109580D02*
X55709523Y-37157200D01*
X55709523Y-37157200D02*
X55804761Y-37204819D01*
X55804761Y-37204819D02*
X56090475Y-37204819D01*
X56090475Y-37204819D02*
X56185713Y-37157200D01*
X56185713Y-37157200D02*
X56233332Y-37109580D01*
X60814285Y-37204819D02*
X61385713Y-37204819D01*
X61099999Y-37204819D02*
X61099999Y-36204819D01*
X61099999Y-36204819D02*
X61195237Y-36347676D01*
X61195237Y-36347676D02*
X61290475Y-36442914D01*
X61290475Y-36442914D02*
X61385713Y-36490533D01*
X49866666Y-40254819D02*
X50199999Y-39778628D01*
X50438094Y-40254819D02*
X50438094Y-39254819D01*
X50438094Y-39254819D02*
X50057142Y-39254819D01*
X50057142Y-39254819D02*
X49961904Y-39302438D01*
X49961904Y-39302438D02*
X49914285Y-39350057D01*
X49914285Y-39350057D02*
X49866666Y-39445295D01*
X49866666Y-39445295D02*
X49866666Y-39588152D01*
X49866666Y-39588152D02*
X49914285Y-39683390D01*
X49914285Y-39683390D02*
X49961904Y-39731009D01*
X49961904Y-39731009D02*
X50057142Y-39778628D01*
X50057142Y-39778628D02*
X50438094Y-39778628D01*
X49009523Y-39588152D02*
X49009523Y-40254819D01*
X49247618Y-39207200D02*
X49485713Y-39921485D01*
X49485713Y-39921485D02*
X48866666Y-39921485D01*
X55242857Y-33659580D02*
X55290476Y-33707200D01*
X55290476Y-33707200D02*
X55433333Y-33754819D01*
X55433333Y-33754819D02*
X55528571Y-33754819D01*
X55528571Y-33754819D02*
X55671428Y-33707200D01*
X55671428Y-33707200D02*
X55766666Y-33611961D01*
X55766666Y-33611961D02*
X55814285Y-33516723D01*
X55814285Y-33516723D02*
X55861904Y-33326247D01*
X55861904Y-33326247D02*
X55861904Y-33183390D01*
X55861904Y-33183390D02*
X55814285Y-32992914D01*
X55814285Y-32992914D02*
X55766666Y-32897676D01*
X55766666Y-32897676D02*
X55671428Y-32802438D01*
X55671428Y-32802438D02*
X55528571Y-32754819D01*
X55528571Y-32754819D02*
X55433333Y-32754819D01*
X55433333Y-32754819D02*
X55290476Y-32802438D01*
X55290476Y-32802438D02*
X55242857Y-32850057D01*
X54290476Y-33754819D02*
X54861904Y-33754819D01*
X54576190Y-33754819D02*
X54576190Y-32754819D01*
X54576190Y-32754819D02*
X54671428Y-32897676D01*
X54671428Y-32897676D02*
X54766666Y-32992914D01*
X54766666Y-32992914D02*
X54861904Y-33040533D01*
X53338095Y-33754819D02*
X53909523Y-33754819D01*
X53623809Y-33754819D02*
X53623809Y-32754819D01*
X53623809Y-32754819D02*
X53719047Y-32897676D01*
X53719047Y-32897676D02*
X53814285Y-32992914D01*
X53814285Y-32992914D02*
X53909523Y-33040533D01*
X68833333Y-33954819D02*
X68833333Y-34669104D01*
X68833333Y-34669104D02*
X68880952Y-34811961D01*
X68880952Y-34811961D02*
X68976190Y-34907200D01*
X68976190Y-34907200D02*
X69119047Y-34954819D01*
X69119047Y-34954819D02*
X69214285Y-34954819D01*
X68452380Y-33954819D02*
X67833333Y-33954819D01*
X67833333Y-33954819D02*
X68166666Y-34335771D01*
X68166666Y-34335771D02*
X68023809Y-34335771D01*
X68023809Y-34335771D02*
X67928571Y-34383390D01*
X67928571Y-34383390D02*
X67880952Y-34431009D01*
X67880952Y-34431009D02*
X67833333Y-34526247D01*
X67833333Y-34526247D02*
X67833333Y-34764342D01*
X67833333Y-34764342D02*
X67880952Y-34859580D01*
X67880952Y-34859580D02*
X67928571Y-34907200D01*
X67928571Y-34907200D02*
X68023809Y-34954819D01*
X68023809Y-34954819D02*
X68309523Y-34954819D01*
X68309523Y-34954819D02*
X68404761Y-34907200D01*
X68404761Y-34907200D02*
X68452380Y-34859580D01*
G36*
X64687675Y-41809285D02*
G01*
X63251963Y-41809285D01*
X63251963Y-41020334D01*
X63394820Y-41020334D01*
X63401510Y-41038465D01*
X63404867Y-41057500D01*
X63410179Y-41061957D01*
X63412580Y-41068464D01*
X63432609Y-41085118D01*
X64187402Y-41516428D01*
X63469819Y-41516428D01*
X63421610Y-41533975D01*
X63395958Y-41578404D01*
X63404867Y-41628928D01*
X63444167Y-41661905D01*
X63469819Y-41666428D01*
X64469819Y-41666428D01*
X64476336Y-41664055D01*
X64483172Y-41665230D01*
X64499869Y-41655490D01*
X64518028Y-41648881D01*
X64521495Y-41642876D01*
X64527487Y-41639381D01*
X64534016Y-41621189D01*
X64543680Y-41604452D01*
X64542475Y-41597620D01*
X64544818Y-41591094D01*
X64538127Y-41572962D01*
X64534771Y-41553928D01*
X64529458Y-41549470D01*
X64527058Y-41542964D01*
X64507030Y-41526310D01*
X63752236Y-41095000D01*
X64469819Y-41095000D01*
X64518028Y-41077453D01*
X64543680Y-41033024D01*
X64534771Y-40982500D01*
X64495471Y-40949523D01*
X64469819Y-40945000D01*
X63469819Y-40945000D01*
X63463302Y-40947371D01*
X63456467Y-40946198D01*
X63439769Y-40955937D01*
X63421610Y-40962547D01*
X63418142Y-40968552D01*
X63412151Y-40972047D01*
X63405621Y-40990238D01*
X63395958Y-41006976D01*
X63397162Y-41013807D01*
X63394820Y-41020334D01*
X63251963Y-41020334D01*
X63251963Y-40530786D01*
X63395958Y-40530786D01*
X63404867Y-40581310D01*
X63444167Y-40614287D01*
X63469819Y-40618810D01*
X64469819Y-40618810D01*
X64518028Y-40601263D01*
X64543680Y-40556834D01*
X64534771Y-40506310D01*
X64495471Y-40473333D01*
X64469819Y-40468810D01*
X63469819Y-40468810D01*
X63421610Y-40486357D01*
X63395958Y-40530786D01*
X63251963Y-40530786D01*
X63251963Y-39346797D01*
X63395105Y-39346797D01*
X63408382Y-39396351D01*
X63450408Y-39425778D01*
X63501515Y-39421306D01*
X63522852Y-39406366D01*
X63905427Y-39023790D01*
X64424819Y-39413333D01*
X64473915Y-39428221D01*
X64521094Y-39408069D01*
X64544281Y-39362304D01*
X64532627Y-39312343D01*
X64514819Y-39293333D01*
X64012570Y-38916647D01*
X64072313Y-38856905D01*
X64469819Y-38856905D01*
X64518028Y-38839358D01*
X64543680Y-38794929D01*
X64534771Y-38744405D01*
X64495471Y-38711428D01*
X64469819Y-38706905D01*
X63469819Y-38706905D01*
X63421610Y-38724452D01*
X63395958Y-38768881D01*
X63404867Y-38819405D01*
X63444167Y-38852382D01*
X63469819Y-38856905D01*
X63860181Y-38856905D01*
X63416786Y-39300300D01*
X63395105Y-39346797D01*
X63251963Y-39346797D01*
X63251963Y-38292691D01*
X63395958Y-38292691D01*
X63404867Y-38343215D01*
X63444167Y-38376192D01*
X63469819Y-38380715D01*
X64469819Y-38380715D01*
X64518028Y-38363168D01*
X64543680Y-38318739D01*
X64534771Y-38268215D01*
X64495471Y-38235238D01*
X64469819Y-38230715D01*
X63469819Y-38230715D01*
X63421610Y-38248262D01*
X63395958Y-38292691D01*
X63251963Y-38292691D01*
X63251963Y-37983382D01*
X63395630Y-37983382D01*
X63420059Y-38028496D01*
X63467770Y-38047353D01*
X63493536Y-38043532D01*
X64493536Y-37710199D01*
X64495227Y-37708856D01*
X64497385Y-37708798D01*
X64515137Y-37693056D01*
X64533722Y-37678308D01*
X64534154Y-37676193D01*
X64535771Y-37674760D01*
X64539250Y-37651291D01*
X64544008Y-37628047D01*
X64542979Y-37626147D01*
X64543296Y-37624012D01*
X64530875Y-37603794D01*
X64519579Y-37582933D01*
X64517571Y-37582139D01*
X64516441Y-37580299D01*
X64493536Y-37567897D01*
X63493536Y-37234564D01*
X63442252Y-37235965D01*
X63403867Y-37270002D01*
X63396342Y-37320751D01*
X63423197Y-37364463D01*
X63446102Y-37376866D01*
X64232648Y-37639048D01*
X63446102Y-37901230D01*
X63405916Y-37933121D01*
X63395630Y-37983382D01*
X63251963Y-37983382D01*
X63251963Y-37091707D01*
X64687675Y-37091707D01*
X64687675Y-41809285D01*
G37*
X42511904Y-39454819D02*
X42511904Y-40264342D01*
X42511904Y-40264342D02*
X42464285Y-40359580D01*
X42464285Y-40359580D02*
X42416666Y-40407200D01*
X42416666Y-40407200D02*
X42321428Y-40454819D01*
X42321428Y-40454819D02*
X42130952Y-40454819D01*
X42130952Y-40454819D02*
X42035714Y-40407200D01*
X42035714Y-40407200D02*
X41988095Y-40359580D01*
X41988095Y-40359580D02*
X41940476Y-40264342D01*
X41940476Y-40264342D02*
X41940476Y-39454819D01*
X40940476Y-40454819D02*
X41511904Y-40454819D01*
X41226190Y-40454819D02*
X41226190Y-39454819D01*
X41226190Y-39454819D02*
X41321428Y-39597676D01*
X41321428Y-39597676D02*
X41416666Y-39692914D01*
X41416666Y-39692914D02*
X41511904Y-39740533D01*
X58766666Y-42954819D02*
X59099999Y-42478628D01*
X59338094Y-42954819D02*
X59338094Y-41954819D01*
X59338094Y-41954819D02*
X58957142Y-41954819D01*
X58957142Y-41954819D02*
X58861904Y-42002438D01*
X58861904Y-42002438D02*
X58814285Y-42050057D01*
X58814285Y-42050057D02*
X58766666Y-42145295D01*
X58766666Y-42145295D02*
X58766666Y-42288152D01*
X58766666Y-42288152D02*
X58814285Y-42383390D01*
X58814285Y-42383390D02*
X58861904Y-42431009D01*
X58861904Y-42431009D02*
X58957142Y-42478628D01*
X58957142Y-42478628D02*
X59338094Y-42478628D01*
X58385713Y-42050057D02*
X58338094Y-42002438D01*
X58338094Y-42002438D02*
X58242856Y-41954819D01*
X58242856Y-41954819D02*
X58004761Y-41954819D01*
X58004761Y-41954819D02*
X57909523Y-42002438D01*
X57909523Y-42002438D02*
X57861904Y-42050057D01*
X57861904Y-42050057D02*
X57814285Y-42145295D01*
X57814285Y-42145295D02*
X57814285Y-42240533D01*
X57814285Y-42240533D02*
X57861904Y-42383390D01*
X57861904Y-42383390D02*
X58433332Y-42954819D01*
X58433332Y-42954819D02*
X57814285Y-42954819D01*
X63766666Y-45959580D02*
X63814285Y-46007200D01*
X63814285Y-46007200D02*
X63957142Y-46054819D01*
X63957142Y-46054819D02*
X64052380Y-46054819D01*
X64052380Y-46054819D02*
X64195237Y-46007200D01*
X64195237Y-46007200D02*
X64290475Y-45911961D01*
X64290475Y-45911961D02*
X64338094Y-45816723D01*
X64338094Y-45816723D02*
X64385713Y-45626247D01*
X64385713Y-45626247D02*
X64385713Y-45483390D01*
X64385713Y-45483390D02*
X64338094Y-45292914D01*
X64338094Y-45292914D02*
X64290475Y-45197676D01*
X64290475Y-45197676D02*
X64195237Y-45102438D01*
X64195237Y-45102438D02*
X64052380Y-45054819D01*
X64052380Y-45054819D02*
X63957142Y-45054819D01*
X63957142Y-45054819D02*
X63814285Y-45102438D01*
X63814285Y-45102438D02*
X63766666Y-45150057D01*
X62909523Y-45054819D02*
X63099999Y-45054819D01*
X63099999Y-45054819D02*
X63195237Y-45102438D01*
X63195237Y-45102438D02*
X63242856Y-45150057D01*
X63242856Y-45150057D02*
X63338094Y-45292914D01*
X63338094Y-45292914D02*
X63385713Y-45483390D01*
X63385713Y-45483390D02*
X63385713Y-45864342D01*
X63385713Y-45864342D02*
X63338094Y-45959580D01*
X63338094Y-45959580D02*
X63290475Y-46007200D01*
X63290475Y-46007200D02*
X63195237Y-46054819D01*
X63195237Y-46054819D02*
X63004761Y-46054819D01*
X63004761Y-46054819D02*
X62909523Y-46007200D01*
X62909523Y-46007200D02*
X62861904Y-45959580D01*
X62861904Y-45959580D02*
X62814285Y-45864342D01*
X62814285Y-45864342D02*
X62814285Y-45626247D01*
X62814285Y-45626247D02*
X62861904Y-45531009D01*
X62861904Y-45531009D02*
X62909523Y-45483390D01*
X62909523Y-45483390D02*
X63004761Y-45435771D01*
X63004761Y-45435771D02*
X63195237Y-45435771D01*
X63195237Y-45435771D02*
X63290475Y-45483390D01*
X63290475Y-45483390D02*
X63338094Y-45531009D01*
X63338094Y-45531009D02*
X63385713Y-45626247D01*
D10*
%TO.C,R1*%
X50553641Y-45780000D02*
X50246359Y-45780000D01*
X50553641Y-45020000D02*
X50246359Y-45020000D01*
%TO.C,R5*%
X44453641Y-40480000D02*
X44146359Y-40480000D01*
X44453641Y-39720000D02*
X44146359Y-39720000D01*
%TO.C,C8*%
X40440000Y-37540580D02*
X40440000Y-37259420D01*
X41460000Y-37540580D02*
X41460000Y-37259420D01*
%TO.C,D3*%
X48910000Y-35649999D02*
X46250000Y-35649999D01*
X48910000Y-33949999D02*
X48910000Y-35649999D01*
X48910000Y-33949999D02*
X46250000Y-33949999D01*
%TO.C,C3*%
X50259420Y-41990000D02*
X50540580Y-41990000D01*
X50259420Y-43010000D02*
X50540580Y-43010000D01*
%TO.C,L1*%
X42040000Y-32340000D02*
X42040000Y-32490000D01*
X42040000Y-35860000D02*
X42040000Y-35710000D01*
X45560000Y-32340000D02*
X42040000Y-32340000D01*
X45560000Y-32340000D02*
X45560000Y-32490000D01*
X45560000Y-35860000D02*
X42040000Y-35860000D01*
X45560000Y-35860000D02*
X45560000Y-35710000D01*
%TO.C,U2*%
X51400000Y-37760000D02*
X52050000Y-37760000D01*
X51400000Y-37760000D02*
X50750000Y-37760000D01*
X51400000Y-34640000D02*
X53075000Y-34640000D01*
X51400000Y-34640000D02*
X50750000Y-34640000D01*
%TO.C,J2*%
X63500000Y-47250000D02*
X63500000Y-48880000D01*
X63500000Y-47250000D02*
X62720000Y-47250000D01*
X62730000Y-50150000D02*
X47270000Y-50150000D01*
X47280000Y-47250000D02*
X46500000Y-47250000D01*
X46500000Y-47250000D02*
X46500000Y-48880000D01*
X55250000Y-49600000D02*
G75*
G03*
X55250000Y-49600000I-250000J0D01*
G01*
D13*
X47850000Y-46100000D02*
G75*
G03*
X47850000Y-46100000I-100000J0D01*
G01*
D10*
%TO.C,C2*%
X47240580Y-44610000D02*
X46959420Y-44610000D01*
X47240580Y-43590000D02*
X46959420Y-43590000D01*
%TO.C,D2*%
X52190000Y-42150000D02*
X54850000Y-42150000D01*
X52190000Y-43850000D02*
X52190000Y-42150000D01*
X52190000Y-43850000D02*
X54850000Y-43850000D01*
%TO.C,C1*%
X47707836Y-45760000D02*
X47492164Y-45760000D01*
X47707836Y-45040000D02*
X47492164Y-45040000D01*
%TO.C,C4*%
X50259420Y-43590000D02*
X50540580Y-43590000D01*
X50259420Y-44610000D02*
X50540580Y-44610000D01*
%TO.C,C7*%
X62159420Y-43590000D02*
X62440580Y-43590000D01*
X62159420Y-44610000D02*
X62440580Y-44610000D01*
%TO.C,D1*%
X55410000Y-45850000D02*
X52750000Y-45850000D01*
X55410000Y-44150000D02*
X55410000Y-45850000D01*
X55410000Y-44150000D02*
X52750000Y-44150000D01*
%TO.C,C9*%
X47542164Y-38740000D02*
X47757836Y-38740000D01*
X47542164Y-39460000D02*
X47757836Y-39460000D01*
%TO.C,C5*%
X59490000Y-44640580D02*
X59490000Y-44359420D01*
X60510000Y-44640580D02*
X60510000Y-44359420D01*
%TO.C,C12*%
X53540001Y-36807836D02*
X53540001Y-36592164D01*
X54260001Y-36807836D02*
X54260001Y-36592164D01*
%TO.C,C10*%
X47309420Y-37290000D02*
X47590580Y-37290000D01*
X47309420Y-38310000D02*
X47590580Y-38310000D01*
%TO.C,JP1*%
X60550000Y-37750000D02*
X60550000Y-35750000D01*
X60550000Y-35750000D02*
X56450000Y-35750000D01*
X56450000Y-37750000D02*
X60550000Y-37750000D01*
X56450000Y-35750000D02*
X56450000Y-37750000D01*
%TO.C,R4*%
X47496359Y-39720000D02*
X47803641Y-39720000D01*
X47496359Y-40480000D02*
X47803641Y-40480000D01*
%TO.C,C11*%
X51392164Y-34260000D02*
X51607836Y-34260000D01*
X51392164Y-33540000D02*
X51607836Y-33540000D01*
D14*
%TO.C,A2*%
X71180161Y-45593654D02*
X70192323Y-45594024D01*
X70683804Y-45880000D02*
X65920000Y-45880000D01*
X70115689Y-47436813D02*
X71180161Y-45593654D01*
X68301902Y-50005575D02*
X70683804Y-45880000D01*
X68299886Y-50595112D02*
X68793459Y-49739419D01*
X67558744Y-45606614D02*
X65430285Y-45606314D01*
X67235916Y-48751662D02*
X68299886Y-50595112D01*
X65920000Y-45880000D02*
X68301902Y-50005575D01*
X65430285Y-45606314D02*
X65924551Y-46461607D01*
D13*
%TO.C,J3*%
X65100000Y-42250000D02*
G75*
G03*
X65100000Y-42250000I-100000J0D01*
G01*
D10*
X66150000Y-43500000D02*
X67780000Y-43500000D01*
X66150000Y-42720000D02*
X66150000Y-43500000D01*
X66150000Y-36280000D02*
X66150000Y-35500000D01*
X69050000Y-36270000D02*
X69050000Y-42730000D01*
X66150000Y-35500000D02*
X67780000Y-35500000D01*
%TO.C,U1*%
X43800000Y-39259999D02*
X44600000Y-39259999D01*
X43800000Y-39259999D02*
X43000000Y-39259999D01*
X43800000Y-36139999D02*
X45600000Y-36139999D01*
X43800000Y-36139999D02*
X43000000Y-36139999D01*
%TO.C,R2*%
X57677500Y-44737258D02*
X57677500Y-44262742D01*
X58722500Y-44737258D02*
X58722500Y-44262742D01*
%TO.C,C6*%
X61592164Y-45040000D02*
X61807836Y-45040000D01*
X61592164Y-45760000D02*
X61807836Y-45760000D01*
%TD*%
%LPC*%
%TO.C,A1*%
G36*
X65075334Y-25884666D02*
G01*
X65115071Y-25961065D01*
X64906000Y-26054000D01*
X64771534Y-26035669D01*
X64736667Y-25884666D01*
X64773895Y-25854267D01*
X65075334Y-25884666D01*
G37*
G36*
X64652000Y-24784000D02*
G01*
X64633670Y-24918466D01*
X64482667Y-24953333D01*
X64452268Y-24916105D01*
X64482667Y-24614666D01*
X64559066Y-24574929D01*
X64652000Y-24784000D01*
G37*
G36*
X67954000Y-27055009D02*
G01*
X67944240Y-27128736D01*
X67700000Y-27324000D01*
X67642518Y-27321087D01*
X67446000Y-27211990D01*
X67457689Y-27171246D01*
X67700000Y-26943000D01*
X67798391Y-26903311D01*
X67954000Y-27055009D01*
G37*
G36*
X66244643Y-25978906D02*
G01*
X66430000Y-26337980D01*
X66410431Y-26423389D01*
X66176000Y-26435000D01*
X66107358Y-26383093D01*
X65922000Y-26024019D01*
X65941570Y-25938610D01*
X66176000Y-25927000D01*
X66244643Y-25978906D01*
G37*
G36*
X63694737Y-23777760D02*
G01*
X63890000Y-24022000D01*
X63887088Y-24079482D01*
X63777991Y-24276000D01*
X63737247Y-24264311D01*
X63509000Y-24022000D01*
X63469312Y-23923609D01*
X63621010Y-23768000D01*
X63694737Y-23777760D01*
G37*
G36*
X58870713Y-24029380D02*
G01*
X59064000Y-24276000D01*
X59056620Y-24336712D01*
X58810000Y-24530000D01*
X58749288Y-24522619D01*
X58556000Y-24276000D01*
X58563381Y-24215287D01*
X58810000Y-24022000D01*
X58870713Y-24029380D01*
G37*
G36*
X48581135Y-24903594D02*
G01*
X48547240Y-25555269D01*
X48591593Y-26642164D01*
X48802234Y-27369499D01*
X49248144Y-27943162D01*
X49904090Y-28258672D01*
X50577631Y-28139359D01*
X50585059Y-28135175D01*
X50773449Y-27948893D01*
X50622334Y-27714355D01*
X50074756Y-27341153D01*
X49667690Y-27032721D01*
X49251515Y-26434237D01*
X49247366Y-26324185D01*
X49803003Y-26324185D01*
X49978871Y-26509375D01*
X50442147Y-26823570D01*
X50460644Y-26833403D01*
X50835568Y-26955732D01*
X50936000Y-26729037D01*
X50933733Y-26680260D01*
X50726248Y-26232148D01*
X50323560Y-25925996D01*
X49926984Y-25922684D01*
X49838085Y-26000583D01*
X49803003Y-26324185D01*
X49247366Y-26324185D01*
X49230324Y-25872141D01*
X49591069Y-25455155D01*
X50320700Y-25291999D01*
X50445756Y-25296976D01*
X51000707Y-25510896D01*
X51394426Y-26090939D01*
X51573114Y-26729037D01*
X51678792Y-27106413D01*
X51896341Y-28213000D01*
X51924171Y-26894490D01*
X51975248Y-26151832D01*
X52160971Y-25536086D01*
X52492654Y-25386507D01*
X52984006Y-25687484D01*
X53267783Y-25924907D01*
X53573431Y-25986156D01*
X53967995Y-25687484D01*
X54376413Y-25409243D01*
X54731645Y-25467783D01*
X54935110Y-25985583D01*
X55000000Y-26979156D01*
X55022300Y-27684655D01*
X55122823Y-28177944D01*
X55317500Y-28272490D01*
X55521437Y-27982352D01*
X55553052Y-27345895D01*
X55539718Y-27008204D01*
X55604823Y-26721901D01*
X56077751Y-26721901D01*
X56214797Y-27431274D01*
X56523407Y-27877043D01*
X56905000Y-28086000D01*
X57232435Y-27954959D01*
X57574009Y-27490551D01*
X57733988Y-26886524D01*
X57625576Y-26351774D01*
X57410829Y-26123988D01*
X56905000Y-25927000D01*
X56829929Y-25929823D01*
X56303772Y-26175700D01*
X56077751Y-26721901D01*
X55604823Y-26721901D01*
X55731479Y-26164923D01*
X56184543Y-25602946D01*
X56787085Y-25348318D01*
X57427279Y-25427087D01*
X57993297Y-25865298D01*
X58373314Y-26689000D01*
X58415251Y-26795070D01*
X58485738Y-26650464D01*
X58526536Y-26112660D01*
X58536912Y-25839459D01*
X58619501Y-25342773D01*
X58865743Y-25136738D01*
X59380967Y-25180260D01*
X60270500Y-25432243D01*
X60402423Y-25450507D01*
X60588000Y-25284028D01*
X60595322Y-25225455D01*
X60842000Y-25038000D01*
X60955660Y-25195835D01*
X61057099Y-25741373D01*
X61096000Y-26547009D01*
X61098867Y-26801637D01*
X61177329Y-27694827D01*
X61349150Y-28163841D01*
X61595530Y-28181184D01*
X61897671Y-27719366D01*
X61915558Y-27678868D01*
X62050537Y-27144205D01*
X62036834Y-26418769D01*
X61872908Y-25355544D01*
X61704543Y-24269457D01*
X61677287Y-23741389D01*
X61921384Y-23741389D01*
X62108353Y-24770453D01*
X62507353Y-25638087D01*
X63267760Y-26650816D01*
X64247322Y-27624628D01*
X65318533Y-28433909D01*
X66353888Y-28953045D01*
X67141712Y-29178613D01*
X68534905Y-29318076D01*
X69668500Y-29045994D01*
X69733158Y-29014332D01*
X70162704Y-28741985D01*
X70126523Y-28576822D01*
X69613269Y-28513485D01*
X68611597Y-28546613D01*
X68045699Y-28574309D01*
X67210793Y-28538805D01*
X66502179Y-28343513D01*
X65673108Y-27937264D01*
X65157920Y-27628076D01*
X64286260Y-26995737D01*
X63629200Y-26388448D01*
X63245474Y-25869441D01*
X62735252Y-24822661D01*
X62460852Y-23740868D01*
X62483928Y-22864692D01*
X62648922Y-22864692D01*
X62664308Y-23384800D01*
X62889273Y-24346442D01*
X62962061Y-24576314D01*
X63616127Y-25770112D01*
X64649267Y-26857825D01*
X65954191Y-27721312D01*
X66459921Y-27937416D01*
X67386514Y-28200968D01*
X68315901Y-28344008D01*
X69089088Y-28345961D01*
X69547081Y-28186252D01*
X69488697Y-28020200D01*
X69118084Y-27629820D01*
X68509915Y-27124665D01*
X68102689Y-26812075D01*
X67214126Y-26123245D01*
X66170308Y-25308402D01*
X65121230Y-24484412D01*
X64359395Y-23891156D01*
X63579004Y-23301178D01*
X63020701Y-22900016D01*
X62771730Y-22751999D01*
X62648922Y-22864692D01*
X62483928Y-22864692D01*
X62485104Y-22820031D01*
X62485771Y-22817369D01*
X62529315Y-22364021D01*
X62313579Y-22302228D01*
X62162339Y-22398680D01*
X61942487Y-22913430D01*
X61921384Y-23741389D01*
X61677287Y-23741389D01*
X61644661Y-23109280D01*
X61781196Y-22360023D01*
X62112000Y-22051360D01*
X62122881Y-22051286D01*
X62435130Y-22210812D01*
X63065247Y-22623002D01*
X63938828Y-23232535D01*
X64981469Y-23984090D01*
X66118768Y-24822348D01*
X67276321Y-25691987D01*
X68379723Y-26537689D01*
X69354573Y-27304132D01*
X70126467Y-27935995D01*
X70406490Y-28186252D01*
X70621000Y-28377960D01*
X70672111Y-28664055D01*
X70604303Y-28741985D01*
X70275361Y-29120029D01*
X70016251Y-29297021D01*
X69298028Y-29536150D01*
X68243361Y-29604421D01*
X66664828Y-29411945D01*
X65115632Y-28763939D01*
X63694488Y-27636487D01*
X62692004Y-26634003D01*
X62465502Y-27525619D01*
X62411343Y-27711688D01*
X62043660Y-28404832D01*
X61569214Y-28784968D01*
X61096275Y-28833013D01*
X60733114Y-28529886D01*
X60588000Y-27856507D01*
X60578322Y-27561234D01*
X60408541Y-26657850D01*
X60068126Y-26033232D01*
X59610603Y-25800000D01*
X59573607Y-25800746D01*
X59286304Y-25914792D01*
X59115099Y-26304073D01*
X59033100Y-26886524D01*
X59005165Y-27084951D01*
X58861941Y-27969544D01*
X58628834Y-28593936D01*
X58348505Y-28826006D01*
X58056782Y-28608209D01*
X57830853Y-28389154D01*
X57477459Y-28540504D01*
X57301489Y-28630532D01*
X56678495Y-28754804D01*
X55873584Y-28778171D01*
X55799740Y-28774630D01*
X55058931Y-28698297D01*
X54685244Y-28529583D01*
X54548595Y-28213000D01*
X54522310Y-28042312D01*
X54351008Y-27166418D01*
X54175976Y-26735139D01*
X53976554Y-26693602D01*
X53929500Y-26741098D01*
X53787262Y-27172007D01*
X53730000Y-27846990D01*
X53724092Y-28061464D01*
X53636027Y-28622884D01*
X53476000Y-28848000D01*
X53421579Y-28824713D01*
X53279122Y-28477651D01*
X53222000Y-27846990D01*
X53217465Y-27653147D01*
X53132982Y-27023446D01*
X52975447Y-26693602D01*
X52941859Y-26676611D01*
X52748417Y-26773890D01*
X52575874Y-27266956D01*
X52403163Y-28211694D01*
X52384321Y-28306560D01*
X52211010Y-28571377D01*
X51782900Y-28712285D01*
X50973665Y-28779461D01*
X50582962Y-28784157D01*
X49640957Y-28695248D01*
X48952909Y-28490597D01*
X48630516Y-28335562D01*
X48265374Y-28288044D01*
X47989469Y-28544871D01*
X47964778Y-28577949D01*
X47712383Y-28793579D01*
X47333423Y-28800480D01*
X46656189Y-28606603D01*
X46073710Y-28437944D01*
X45580876Y-28407608D01*
X45224473Y-28591118D01*
X45109604Y-28678647D01*
X44760019Y-28759145D01*
X44327236Y-28462688D01*
X44021131Y-28207717D01*
X43718668Y-28157076D01*
X43320765Y-28462688D01*
X43192008Y-28574274D01*
X42796750Y-28772068D01*
X42431765Y-28597954D01*
X42195628Y-28271261D01*
X42046000Y-27657200D01*
X42045543Y-27611457D01*
X41907653Y-26854101D01*
X41584935Y-26280999D01*
X41166207Y-26054000D01*
X40626332Y-26264238D01*
X40188895Y-26814829D01*
X40010111Y-27532642D01*
X39988612Y-27838262D01*
X39839438Y-28418661D01*
X39609998Y-28788167D01*
X39373757Y-28800423D01*
X39300022Y-28499933D01*
X39336596Y-27865712D01*
X39468738Y-27095160D01*
X39663972Y-26372060D01*
X39889818Y-25880191D01*
X40421801Y-25531792D01*
X41386696Y-25390181D01*
X42554001Y-25350889D01*
X42554000Y-26718444D01*
X42574108Y-27265949D01*
X42660910Y-27856589D01*
X42793010Y-28086000D01*
X43098494Y-27963534D01*
X43229891Y-27527791D01*
X43044324Y-26909971D01*
X42893400Y-26585607D01*
X42897214Y-26235762D01*
X43573623Y-26235762D01*
X43600537Y-26635822D01*
X43979113Y-27263496D01*
X44127967Y-27446709D01*
X44560833Y-27903216D01*
X44840000Y-28086000D01*
X44904583Y-28065293D01*
X45249182Y-27778999D01*
X45700888Y-27263496D01*
X46019603Y-26772286D01*
X46131157Y-26309584D01*
X45908609Y-26126806D01*
X45375270Y-26293405D01*
X44929128Y-26447923D01*
X44304731Y-26293405D01*
X43875056Y-26132770D01*
X43573623Y-26235762D01*
X42897214Y-26235762D01*
X42897720Y-26189370D01*
X43259400Y-25743711D01*
X43647535Y-25393167D01*
X43935890Y-25361672D01*
X44323036Y-25664887D01*
X44650059Y-25936117D01*
X44950889Y-25979944D01*
X45348000Y-25672999D01*
X45663400Y-25410766D01*
X45964644Y-25364495D01*
X46364001Y-25673000D01*
X46699404Y-26043226D01*
X46769537Y-26309584D01*
X46839553Y-26575494D01*
X46491001Y-27069999D01*
X46173564Y-27410177D01*
X46220357Y-27722773D01*
X46740159Y-28037577D01*
X47235390Y-28149572D01*
X47630673Y-27900746D01*
X47772647Y-27257532D01*
X47643753Y-26254576D01*
X47526376Y-25640033D01*
X47416752Y-24629554D01*
X47407523Y-24113497D01*
X47920171Y-24113497D01*
X47967482Y-24723461D01*
X47999941Y-24806676D01*
X48057501Y-24671753D01*
X48077946Y-24149000D01*
X48071357Y-23871980D01*
X48029267Y-23566686D01*
X47962356Y-23707461D01*
X47920171Y-24113497D01*
X47407523Y-24113497D01*
X47400038Y-23694945D01*
X47476181Y-22977402D01*
X47645127Y-22618123D01*
X47870449Y-22584634D01*
X48310243Y-22786227D01*
X48423940Y-22902527D01*
X48581292Y-23270795D01*
X48628494Y-23897204D01*
X48616645Y-24149000D01*
X48581135Y-24903594D01*
G37*
%TD*%
D15*
%TO.C,J1*%
X35000000Y-32380000D03*
D16*
X35000000Y-34920000D03*
X35000000Y-37460000D03*
X35000000Y-40000000D03*
X35000000Y-42540000D03*
X35000000Y-45080000D03*
X35000000Y-47620000D03*
D17*
X35250000Y-24000000D03*
X35250000Y-56000000D03*
X74750000Y-24000000D03*
X74750000Y-56000000D03*
%TD*%
D18*
%TO.C,H1*%
X55000000Y-23000000D03*
%TD*%
%TO.C,H3*%
X38500000Y-57000000D03*
%TD*%
%TO.C,H2*%
X71500000Y-57000000D03*
%TD*%
D19*
%TO.C,R1*%
X50910000Y-45400000D03*
X49890000Y-45400000D03*
%TD*%
%TO.C,R5*%
X44810000Y-40100000D03*
X43790000Y-40100000D03*
%TD*%
D20*
%TO.C,C8*%
X40950000Y-38175000D03*
X40950000Y-36625000D03*
%TD*%
D21*
%TO.C,D3*%
X48350000Y-34799999D03*
X46250000Y-34799999D03*
%TD*%
D22*
%TO.C,C3*%
X49625000Y-42500000D03*
X51175000Y-42500000D03*
%TD*%
D23*
%TO.C,L1*%
X42650000Y-34100000D03*
X44950000Y-34100000D03*
%TD*%
D24*
%TO.C,U2*%
X52337500Y-35250000D03*
X52337500Y-37150000D03*
X50462500Y-36200000D03*
%TD*%
D25*
%TO.C,J2*%
X47750000Y-47100000D03*
X48250000Y-47100000D03*
X48750000Y-47100000D03*
X49250000Y-47100000D03*
X49750000Y-47100000D03*
X50250000Y-47100000D03*
X50750000Y-47100000D03*
X51250000Y-47100000D03*
X51750000Y-47100000D03*
X52250000Y-47100000D03*
X52750000Y-47100000D03*
X53250000Y-47100000D03*
X53750000Y-47100000D03*
X54250000Y-47100000D03*
X54750000Y-47100000D03*
X55250000Y-47100000D03*
X55750000Y-47100000D03*
X56250000Y-47100000D03*
X56750000Y-47100000D03*
X57250000Y-47100000D03*
X57750000Y-47100000D03*
X58250000Y-47100000D03*
X58750000Y-47100000D03*
X59250000Y-47100000D03*
X59750000Y-47100000D03*
X60250000Y-47100000D03*
X60750000Y-47100000D03*
X61250000Y-47100000D03*
X61750000Y-47100000D03*
X62250000Y-47100000D03*
D26*
X63250000Y-49600000D03*
X46750000Y-49600000D03*
%TD*%
D27*
%TO.C,C2*%
X47875000Y-44100000D03*
X46325000Y-44100000D03*
%TD*%
D28*
%TO.C,D2*%
X52750000Y-43000000D03*
X54850000Y-43000000D03*
%TD*%
D29*
%TO.C,C1*%
X48080000Y-45400000D03*
X47120000Y-45400000D03*
%TD*%
D22*
%TO.C,C4*%
X49625000Y-44100000D03*
X51175000Y-44100000D03*
%TD*%
%TO.C,C7*%
X61525000Y-44100000D03*
X63075000Y-44100000D03*
%TD*%
D21*
%TO.C,D1*%
X54850000Y-45000000D03*
X52750000Y-45000000D03*
%TD*%
D30*
%TO.C,C9*%
X47170000Y-39100000D03*
X48130000Y-39100000D03*
%TD*%
D20*
%TO.C,C5*%
X60000000Y-45275000D03*
X60000000Y-43725000D03*
%TD*%
D31*
%TO.C,C12*%
X53900001Y-37180000D03*
X53900001Y-36220000D03*
%TD*%
D22*
%TO.C,C10*%
X46675000Y-37800000D03*
X48225000Y-37800000D03*
%TD*%
D32*
%TO.C,JP1*%
X59800000Y-36750000D03*
X58500000Y-36750000D03*
X57200000Y-36750000D03*
%TD*%
D33*
%TO.C,R4*%
X47140000Y-40100000D03*
X48160000Y-40100000D03*
%TD*%
D30*
%TO.C,C11*%
X51980000Y-33900000D03*
X51020000Y-33900000D03*
%TD*%
D34*
%TO.C,J3*%
X68500000Y-43250000D03*
X68500000Y-35750000D03*
D35*
X66000000Y-36750000D03*
X66000000Y-37250000D03*
X66000000Y-37750000D03*
X66000000Y-38250000D03*
X66000000Y-38750000D03*
X66000000Y-39250000D03*
X66000000Y-39750000D03*
X66000000Y-40250000D03*
X66000000Y-40750000D03*
X66000000Y-41250000D03*
X66000000Y-41750000D03*
X66000000Y-42250000D03*
%TD*%
D36*
%TO.C,U1*%
X44937500Y-36749999D03*
X44937500Y-37699999D03*
X44937500Y-38649999D03*
X42662500Y-38649999D03*
X42662500Y-36749999D03*
%TD*%
D37*
%TO.C,R2*%
X58200000Y-45325000D03*
X58200000Y-43675000D03*
%TD*%
D30*
%TO.C,C6*%
X61220000Y-45400000D03*
X62180000Y-45400000D03*
%TD*%
%LPD*%
M02*
