%TF.GenerationSoftware,KiCad,Pcbnew,7.0.6*%
%TF.CreationDate,2023-07-27T19:46:57+01:00*%
%TF.ProjectId,Crenshaw,4372656e-7368-4617-972e-6b696361645f,V2.0*%
%TF.SameCoordinates,Original*%
%TF.FileFunction,Copper,L1,Top*%
%TF.FilePolarity,Positive*%
%FSLAX46Y46*%
G04 Gerber Fmt 4.6, Leading zero omitted, Abs format (unit mm)*
G04 Created by KiCad (PCBNEW 7.0.6) date 2023-07-27 19:46:57*
%MOMM*%
%LPD*%
G01*
G04 APERTURE LIST*
%TA.AperFunction,ComponentPad*%
%ADD10R,1.700000X1.700000*%
%TD*%
%TA.AperFunction,ComponentPad*%
%ADD11O,1.700000X1.700000*%
%TD*%
%TA.AperFunction,ComponentPad*%
%ADD12C,4.000000*%
%TD*%
%TA.AperFunction,ViaPad*%
%ADD13C,0.600000*%
%TD*%
%TA.AperFunction,Conductor*%
%ADD14C,0.300000*%
%TD*%
%TA.AperFunction,Conductor*%
%ADD15C,0.200000*%
%TD*%
G04 APERTURE END LIST*
D10*
%TO.P,J1,1,Pin_1*%
%TO.N,+5V*%
X35000000Y-32380000D03*
D11*
%TO.P,J1,2,Pin_2*%
%TO.N,GND*%
X35000000Y-34920000D03*
%TO.P,J1,3,Pin_3*%
%TO.N,MOSI*%
X35000000Y-37460000D03*
%TO.P,J1,4,Pin_4*%
%TO.N,SCK*%
X35000000Y-40000000D03*
%TO.P,J1,5,Pin_5*%
%TO.N,CS*%
X35000000Y-42540000D03*
%TO.P,J1,6,Pin_6*%
%TO.N,DC*%
X35000000Y-45080000D03*
%TO.P,J1,7,Pin_7*%
%TO.N,~{RST}*%
X35000000Y-47620000D03*
D12*
%TO.P,J1,MP*%
%TO.N,N/C*%
X35250000Y-24000000D03*
X35250000Y-56000000D03*
X74750000Y-24000000D03*
X74750000Y-56000000D03*
%TD*%
D13*
%TO.N,GND*%
X62800000Y-45000000D03*
X55000000Y-46300000D03*
X39300000Y-40100000D03*
X67000000Y-36800000D03*
X53000000Y-43600000D03*
X52900000Y-35900000D03*
X45500000Y-43700000D03*
X45150000Y-37300000D03*
X54200000Y-35100000D03*
X60600000Y-42900000D03*
X58400000Y-42900000D03*
X46500000Y-45000000D03*
X52000000Y-43700000D03*
X65000000Y-41250000D03*
X52600000Y-34300000D03*
X58400000Y-41250000D03*
X61750000Y-46150000D03*
X52600001Y-33500000D03*
X65000000Y-37500000D03*
X59800000Y-42900000D03*
X63900000Y-44500000D03*
X57600000Y-42900000D03*
X59100000Y-46150000D03*
X41900000Y-38800000D03*
X38500001Y-40100000D03*
X51700000Y-46300000D03*
X41100000Y-40800000D03*
X50900001Y-46300000D03*
X46500000Y-45800000D03*
X56250000Y-46300000D03*
X52000000Y-42100000D03*
X53500002Y-35100000D03*
X63900000Y-43700000D03*
X65000000Y-38399999D03*
X62800000Y-45800000D03*
X53000000Y-42400000D03*
X45150000Y-38100000D03*
X52000000Y-42900000D03*
X45500000Y-44500000D03*
X67000000Y-37699999D03*
X52500000Y-46300000D03*
X52100001Y-35900000D03*
X52000000Y-44500000D03*
%TO.N,+3V3*%
X59100000Y-44500000D03*
X58500000Y-38050000D03*
%TO.N,+5V*%
X40100000Y-40500000D03*
X40100000Y-37200000D03*
%TO.N,~{RST}*%
X69100000Y-41300000D03*
X58100000Y-49400000D03*
%TO.N,DC*%
X69100000Y-40400000D03*
X57400000Y-48700000D03*
%TD*%
D14*
%TO.N,+3V3*%
X59100000Y-38650000D02*
X58500000Y-38050000D01*
X59100000Y-44500000D02*
X59100000Y-38650000D01*
%TO.N,+5V*%
X40100000Y-37200000D02*
X40100000Y-40500000D01*
D15*
%TO.N,~{RST}*%
X36780000Y-49400000D02*
X35000000Y-47620000D01*
X58100000Y-49400000D02*
X60965685Y-49400000D01*
X58100000Y-49400000D02*
X36780000Y-49400000D01*
X60965685Y-49400000D02*
X69065685Y-41300000D01*
X69065685Y-41300000D02*
X69100000Y-41300000D01*
%TO.N,DC*%
X38620000Y-48700000D02*
X35000000Y-45080000D01*
X60800000Y-48700000D02*
X69100000Y-40400000D01*
X57400000Y-48700000D02*
X38620000Y-48700000D01*
X57400000Y-48700000D02*
X60800000Y-48700000D01*
%TD*%
%TA.AperFunction,Conductor*%
%TO.N,GND*%
G36*
X73989602Y-21769407D02*
G01*
X74025566Y-21818907D01*
X74025566Y-21880093D01*
X73989602Y-21929593D01*
X73963234Y-21943246D01*
X73906099Y-21962640D01*
X73906088Y-21962645D01*
X73647388Y-22090222D01*
X73407549Y-22250477D01*
X73407536Y-22250487D01*
X73190682Y-22440664D01*
X73190664Y-22440682D01*
X73000487Y-22657536D01*
X73000477Y-22657549D01*
X72840222Y-22897388D01*
X72712645Y-23156088D01*
X72712640Y-23156099D01*
X72619920Y-23429240D01*
X72563643Y-23712163D01*
X72544778Y-23999999D01*
X72544778Y-24000000D01*
X72563643Y-24287836D01*
X72619920Y-24570759D01*
X72712640Y-24843900D01*
X72712645Y-24843911D01*
X72840222Y-25102611D01*
X73000477Y-25342450D01*
X73000487Y-25342463D01*
X73190664Y-25559317D01*
X73190673Y-25559327D01*
X73190681Y-25559334D01*
X73190682Y-25559335D01*
X73407536Y-25749512D01*
X73407543Y-25749517D01*
X73407546Y-25749520D01*
X73647389Y-25909778D01*
X73906098Y-26037359D01*
X74035659Y-26081339D01*
X74179240Y-26130079D01*
X74179242Y-26130079D01*
X74179247Y-26130081D01*
X74462161Y-26186356D01*
X74750000Y-26205222D01*
X75037839Y-26186356D01*
X75320753Y-26130081D01*
X75593902Y-26037359D01*
X75852611Y-25909778D01*
X76092454Y-25749520D01*
X76309327Y-25559327D01*
X76499520Y-25342454D01*
X76659778Y-25102611D01*
X76787359Y-24843902D01*
X76806754Y-24786765D01*
X76843363Y-24737741D01*
X76901796Y-24719597D01*
X76959734Y-24739265D01*
X76995047Y-24789232D01*
X76999500Y-24818589D01*
X76999500Y-55181410D01*
X76980593Y-55239601D01*
X76931093Y-55275565D01*
X76869907Y-55275565D01*
X76820407Y-55239601D01*
X76806754Y-55213233D01*
X76795951Y-55181410D01*
X76787359Y-55156098D01*
X76659778Y-54897389D01*
X76499520Y-54657546D01*
X76499517Y-54657543D01*
X76499512Y-54657536D01*
X76309335Y-54440682D01*
X76309334Y-54440681D01*
X76309327Y-54440673D01*
X76309317Y-54440664D01*
X76092463Y-54250487D01*
X76092450Y-54250477D01*
X75852611Y-54090222D01*
X75593911Y-53962645D01*
X75593900Y-53962640D01*
X75320759Y-53869920D01*
X75037836Y-53813643D01*
X74750000Y-53794778D01*
X74462163Y-53813643D01*
X74179240Y-53869920D01*
X73906099Y-53962640D01*
X73906088Y-53962645D01*
X73647388Y-54090222D01*
X73407549Y-54250477D01*
X73407536Y-54250487D01*
X73190682Y-54440664D01*
X73190664Y-54440682D01*
X73000487Y-54657536D01*
X73000477Y-54657549D01*
X72840222Y-54897388D01*
X72712645Y-55156088D01*
X72712640Y-55156099D01*
X72619920Y-55429240D01*
X72563643Y-55712163D01*
X72544778Y-55999999D01*
X72544778Y-56000000D01*
X72563643Y-56287836D01*
X72619920Y-56570759D01*
X72712640Y-56843900D01*
X72712645Y-56843911D01*
X72840222Y-57102611D01*
X73000477Y-57342450D01*
X73000487Y-57342463D01*
X73190664Y-57559317D01*
X73190673Y-57559327D01*
X73190681Y-57559334D01*
X73190682Y-57559335D01*
X73407536Y-57749512D01*
X73407543Y-57749517D01*
X73407546Y-57749520D01*
X73647389Y-57909778D01*
X73906098Y-58037359D01*
X73963234Y-58056754D01*
X74012259Y-58093363D01*
X74030403Y-58151796D01*
X74010735Y-58209734D01*
X73960768Y-58245047D01*
X73931411Y-58249500D01*
X71751772Y-58249500D01*
X71748239Y-58249374D01*
X71508084Y-58232198D01*
X71494103Y-58230188D01*
X71264024Y-58180137D01*
X71250471Y-58176157D01*
X71029865Y-58093875D01*
X71017016Y-58088007D01*
X70810363Y-57975166D01*
X70798481Y-57967530D01*
X70609992Y-57826429D01*
X70599316Y-57817179D01*
X70432820Y-57650683D01*
X70423570Y-57640007D01*
X70293729Y-57466559D01*
X70282467Y-57451515D01*
X70274833Y-57439636D01*
X70221765Y-57342450D01*
X70161991Y-57232981D01*
X70156124Y-57220134D01*
X70124185Y-57134502D01*
X70073840Y-56999522D01*
X70069863Y-56985981D01*
X70063121Y-56954989D01*
X70669845Y-56954989D01*
X70679578Y-57134502D01*
X70703987Y-57222416D01*
X70727673Y-57307723D01*
X70811881Y-57466556D01*
X70811883Y-57466559D01*
X70890681Y-57559327D01*
X70928265Y-57603574D01*
X71071382Y-57712369D01*
X71234541Y-57787854D01*
X71410113Y-57826500D01*
X71410117Y-57826500D01*
X71544816Y-57826500D01*
X71678721Y-57811937D01*
X71849085Y-57754535D01*
X72003126Y-57661851D01*
X72133642Y-57538220D01*
X72234529Y-57389423D01*
X72301070Y-57222416D01*
X72330155Y-57045010D01*
X72320422Y-56865499D01*
X72272327Y-56692277D01*
X72188119Y-56533444D01*
X72161207Y-56501761D01*
X72071736Y-56396427D01*
X72071735Y-56396426D01*
X71995073Y-56338149D01*
X71928618Y-56287631D01*
X71765459Y-56212146D01*
X71589887Y-56173500D01*
X71455184Y-56173500D01*
X71321276Y-56188063D01*
X71150914Y-56245465D01*
X70996872Y-56338150D01*
X70866357Y-56461780D01*
X70765470Y-56610578D01*
X70698930Y-56777582D01*
X70698930Y-56777585D01*
X70669845Y-56954989D01*
X70063121Y-56954989D01*
X70019810Y-56755889D01*
X70017802Y-56741922D01*
X70000626Y-56501760D01*
X70000500Y-56498228D01*
X70000500Y-54863874D01*
X70000498Y-54863857D01*
X69975447Y-54657549D01*
X69967682Y-54593595D01*
X69902526Y-54329246D01*
X69805981Y-54074678D01*
X69698516Y-53869920D01*
X69679456Y-53833603D01*
X69679453Y-53833598D01*
X69524797Y-53609543D01*
X69524794Y-53609538D01*
X69344252Y-53405748D01*
X69140462Y-53225206D01*
X69105321Y-53200950D01*
X68916401Y-53070546D01*
X68916396Y-53070543D01*
X68675325Y-52944020D01*
X68631074Y-52927238D01*
X68420754Y-52847474D01*
X68420749Y-52847472D01*
X68420748Y-52847472D01*
X68156409Y-52782318D01*
X68156393Y-52782316D01*
X67886142Y-52749501D01*
X67886134Y-52749500D01*
X67886130Y-52749500D01*
X67774674Y-52749500D01*
X42294170Y-52749500D01*
X42250000Y-52749500D01*
X42113870Y-52749500D01*
X42113866Y-52749500D01*
X42113857Y-52749501D01*
X41843606Y-52782316D01*
X41843590Y-52782318D01*
X41579251Y-52847472D01*
X41324674Y-52944020D01*
X41083603Y-53070543D01*
X41083598Y-53070546D01*
X40859543Y-53225202D01*
X40655753Y-53405743D01*
X40655743Y-53405753D01*
X40475202Y-53609543D01*
X40320546Y-53833598D01*
X40320543Y-53833603D01*
X40194020Y-54074674D01*
X40097472Y-54329251D01*
X40032318Y-54593590D01*
X40032316Y-54593606D01*
X39999501Y-54863857D01*
X39999500Y-54863874D01*
X39999500Y-56498228D01*
X39999374Y-56501761D01*
X39982198Y-56741915D01*
X39980188Y-56755896D01*
X39930137Y-56985975D01*
X39926157Y-56999528D01*
X39843875Y-57220134D01*
X39838007Y-57232983D01*
X39725166Y-57439636D01*
X39717530Y-57451518D01*
X39576429Y-57640007D01*
X39567179Y-57650683D01*
X39400683Y-57817179D01*
X39390007Y-57826429D01*
X39201518Y-57967530D01*
X39189636Y-57975166D01*
X38982983Y-58088007D01*
X38970134Y-58093875D01*
X38749528Y-58176157D01*
X38735975Y-58180137D01*
X38505896Y-58230188D01*
X38491915Y-58232198D01*
X38251761Y-58249374D01*
X38248228Y-58249500D01*
X36068589Y-58249500D01*
X36010398Y-58230593D01*
X35974434Y-58181093D01*
X35974434Y-58119907D01*
X36010398Y-58070407D01*
X36036766Y-58056754D01*
X36093902Y-58037359D01*
X36352611Y-57909778D01*
X36592454Y-57749520D01*
X36809327Y-57559327D01*
X36999520Y-57342454D01*
X37159778Y-57102611D01*
X37232577Y-56954989D01*
X37669845Y-56954989D01*
X37679578Y-57134502D01*
X37703987Y-57222416D01*
X37727673Y-57307723D01*
X37811881Y-57466556D01*
X37811883Y-57466559D01*
X37890681Y-57559327D01*
X37928265Y-57603574D01*
X38071382Y-57712369D01*
X38234541Y-57787854D01*
X38410113Y-57826500D01*
X38410117Y-57826500D01*
X38544816Y-57826500D01*
X38678721Y-57811937D01*
X38849085Y-57754535D01*
X39003126Y-57661851D01*
X39133642Y-57538220D01*
X39234529Y-57389423D01*
X39301070Y-57222416D01*
X39330155Y-57045010D01*
X39320422Y-56865499D01*
X39272327Y-56692277D01*
X39188119Y-56533444D01*
X39161207Y-56501761D01*
X39071736Y-56396427D01*
X39071735Y-56396426D01*
X38995073Y-56338149D01*
X38928618Y-56287631D01*
X38765459Y-56212146D01*
X38589887Y-56173500D01*
X38455184Y-56173500D01*
X38321276Y-56188063D01*
X38150914Y-56245465D01*
X37996872Y-56338150D01*
X37866357Y-56461780D01*
X37765470Y-56610578D01*
X37698930Y-56777582D01*
X37698930Y-56777585D01*
X37669845Y-56954989D01*
X37232577Y-56954989D01*
X37287359Y-56843902D01*
X37380081Y-56570753D01*
X37436356Y-56287839D01*
X37455222Y-56000000D01*
X37436356Y-55712161D01*
X37380081Y-55429247D01*
X37287359Y-55156098D01*
X37159778Y-54897389D01*
X36999520Y-54657546D01*
X36999517Y-54657543D01*
X36999512Y-54657536D01*
X36809335Y-54440682D01*
X36809334Y-54440681D01*
X36809327Y-54440673D01*
X36809317Y-54440664D01*
X36592463Y-54250487D01*
X36592450Y-54250477D01*
X36352611Y-54090222D01*
X36093911Y-53962645D01*
X36093900Y-53962640D01*
X35820759Y-53869920D01*
X35537836Y-53813643D01*
X35250000Y-53794778D01*
X34962163Y-53813643D01*
X34679240Y-53869920D01*
X34406099Y-53962640D01*
X34406088Y-53962645D01*
X34147388Y-54090222D01*
X33907549Y-54250477D01*
X33907536Y-54250487D01*
X33690682Y-54440664D01*
X33690664Y-54440682D01*
X33500487Y-54657536D01*
X33500477Y-54657549D01*
X33340222Y-54897388D01*
X33212645Y-55156088D01*
X33212640Y-55156100D01*
X33193246Y-55213233D01*
X33156637Y-55262258D01*
X33098203Y-55280402D01*
X33040265Y-55260734D01*
X33004953Y-55210767D01*
X33000500Y-55181410D01*
X33000500Y-47620003D01*
X33944417Y-47620003D01*
X33964698Y-47825929D01*
X33964699Y-47825934D01*
X34024768Y-48023954D01*
X34122316Y-48206452D01*
X34252704Y-48365331D01*
X34253590Y-48366410D01*
X34253595Y-48366414D01*
X34413547Y-48497683D01*
X34413548Y-48497683D01*
X34413550Y-48497685D01*
X34596046Y-48595232D01*
X34733996Y-48637078D01*
X34794065Y-48655300D01*
X34794070Y-48655301D01*
X34999997Y-48675583D01*
X35000000Y-48675583D01*
X35000003Y-48675583D01*
X35205929Y-48655301D01*
X35205934Y-48655300D01*
X35205934Y-48655299D01*
X35403954Y-48595232D01*
X35434542Y-48578881D01*
X35494775Y-48568124D01*
X35549826Y-48594825D01*
X35551216Y-48596187D01*
X36521436Y-49566407D01*
X36529537Y-49577647D01*
X36530516Y-49576909D01*
X36536044Y-49584230D01*
X36571569Y-49616616D01*
X36573223Y-49618195D01*
X36580947Y-49625918D01*
X36587203Y-49632174D01*
X36590128Y-49634178D01*
X36595505Y-49638437D01*
X36619064Y-49659914D01*
X36619065Y-49659914D01*
X36619067Y-49659916D01*
X36628230Y-49663466D01*
X36648416Y-49674105D01*
X36656519Y-49679656D01*
X36687553Y-49686955D01*
X36694090Y-49688979D01*
X36723827Y-49700500D01*
X36733652Y-49700500D01*
X36756316Y-49703129D01*
X36765881Y-49705379D01*
X36793645Y-49701506D01*
X36797453Y-49700975D01*
X36804299Y-49700500D01*
X57652917Y-49700500D01*
X57711108Y-49719407D01*
X57727733Y-49734667D01*
X57768872Y-49782143D01*
X57889947Y-49859953D01*
X57996403Y-49891211D01*
X58028035Y-49900499D01*
X58028036Y-49900499D01*
X58028039Y-49900500D01*
X58028041Y-49900500D01*
X58171959Y-49900500D01*
X58171961Y-49900500D01*
X58310053Y-49859953D01*
X58431128Y-49782143D01*
X58472264Y-49734668D01*
X58524660Y-49703073D01*
X58547083Y-49700500D01*
X60900521Y-49700500D01*
X60914196Y-49702732D01*
X60914368Y-49701506D01*
X60923449Y-49702772D01*
X60923450Y-49702773D01*
X60923450Y-49702772D01*
X60923451Y-49702773D01*
X60932192Y-49702368D01*
X60971478Y-49700552D01*
X60973755Y-49700500D01*
X60993526Y-49700500D01*
X60993529Y-49700500D01*
X60997022Y-49699846D01*
X61003826Y-49699056D01*
X61035677Y-49697585D01*
X61044661Y-49693617D01*
X61066462Y-49686865D01*
X61076118Y-49685061D01*
X61103228Y-49668274D01*
X61109274Y-49665088D01*
X61138450Y-49652206D01*
X61145394Y-49645260D01*
X61163286Y-49631089D01*
X61171637Y-49625919D01*
X61190850Y-49600474D01*
X61195347Y-49595308D01*
X68961159Y-41829496D01*
X69015676Y-41801719D01*
X69031163Y-41800500D01*
X69171959Y-41800500D01*
X69171961Y-41800500D01*
X69310053Y-41759953D01*
X69431128Y-41682143D01*
X69525377Y-41573373D01*
X69585165Y-41442457D01*
X69605647Y-41300000D01*
X69585165Y-41157543D01*
X69525377Y-41026627D01*
X69431128Y-40917857D01*
X69428506Y-40914831D01*
X69404688Y-40858472D01*
X69418547Y-40798876D01*
X69428506Y-40785169D01*
X69462087Y-40746414D01*
X69525377Y-40673373D01*
X69585165Y-40542457D01*
X69595506Y-40470534D01*
X69605647Y-40400002D01*
X69605647Y-40399997D01*
X69585165Y-40257543D01*
X69571046Y-40226627D01*
X69525377Y-40126627D01*
X69431128Y-40017857D01*
X69431127Y-40017856D01*
X69431126Y-40017855D01*
X69310057Y-39940049D01*
X69310054Y-39940047D01*
X69310053Y-39940047D01*
X69310050Y-39940046D01*
X69171964Y-39899500D01*
X69171961Y-39899500D01*
X69028039Y-39899500D01*
X69028035Y-39899500D01*
X68889949Y-39940046D01*
X68889942Y-39940049D01*
X68768873Y-40017855D01*
X68674622Y-40126628D01*
X68614834Y-40257543D01*
X68594353Y-40399997D01*
X68594353Y-40400003D01*
X68597441Y-40421482D01*
X68587007Y-40481771D01*
X68569453Y-40505574D01*
X60704525Y-48370504D01*
X60650008Y-48398281D01*
X60634521Y-48399500D01*
X57847083Y-48399500D01*
X57788892Y-48380593D01*
X57772264Y-48365331D01*
X57731128Y-48317857D01*
X57698182Y-48296684D01*
X57610057Y-48240049D01*
X57610054Y-48240047D01*
X57610053Y-48240047D01*
X57610050Y-48240046D01*
X57471964Y-48199500D01*
X57471961Y-48199500D01*
X57328039Y-48199500D01*
X57328035Y-48199500D01*
X57189949Y-48240046D01*
X57189942Y-48240049D01*
X57068876Y-48317854D01*
X57068871Y-48317858D01*
X57027736Y-48365331D01*
X56975340Y-48396927D01*
X56952917Y-48399500D01*
X38785479Y-48399500D01*
X38727288Y-48380593D01*
X38715475Y-48370504D01*
X35976187Y-45631216D01*
X35948410Y-45576699D01*
X35957981Y-45516267D01*
X35958882Y-45514542D01*
X35975230Y-45483957D01*
X35975232Y-45483954D01*
X36035300Y-45285934D01*
X36035301Y-45285929D01*
X36055583Y-45080003D01*
X36055583Y-45079996D01*
X36035301Y-44874070D01*
X36035300Y-44874065D01*
X36004755Y-44773371D01*
X35975232Y-44676046D01*
X35877685Y-44493550D01*
X35746410Y-44333590D01*
X35746404Y-44333585D01*
X35586452Y-44202316D01*
X35403954Y-44104768D01*
X35205934Y-44044699D01*
X35205929Y-44044698D01*
X35000003Y-44024417D01*
X34999997Y-44024417D01*
X34794070Y-44044698D01*
X34794065Y-44044699D01*
X34596045Y-44104768D01*
X34413547Y-44202316D01*
X34253595Y-44333585D01*
X34253585Y-44333595D01*
X34122316Y-44493547D01*
X34024768Y-44676045D01*
X33964699Y-44874065D01*
X33964698Y-44874070D01*
X33944417Y-45079996D01*
X33944417Y-45080003D01*
X33964698Y-45285929D01*
X33964699Y-45285934D01*
X34024768Y-45483954D01*
X34122316Y-45666452D01*
X34253585Y-45826404D01*
X34253590Y-45826410D01*
X34253595Y-45826414D01*
X34413547Y-45957683D01*
X34413548Y-45957683D01*
X34413550Y-45957685D01*
X34596046Y-46055232D01*
X34733996Y-46097078D01*
X34794065Y-46115300D01*
X34794070Y-46115301D01*
X34999997Y-46135583D01*
X35000000Y-46135583D01*
X35000003Y-46135583D01*
X35205929Y-46115301D01*
X35205934Y-46115300D01*
X35205934Y-46115299D01*
X35403954Y-46055232D01*
X35434542Y-46038881D01*
X35494775Y-46028124D01*
X35549826Y-46054825D01*
X35551216Y-46056187D01*
X38361436Y-48866407D01*
X38369537Y-48877647D01*
X38370516Y-48876909D01*
X38376044Y-48884230D01*
X38411569Y-48916616D01*
X38413223Y-48918195D01*
X38425525Y-48930496D01*
X38453302Y-48985013D01*
X38443731Y-49045445D01*
X38400466Y-49088710D01*
X38355521Y-49099500D01*
X36945479Y-49099500D01*
X36887288Y-49080593D01*
X36875475Y-49070504D01*
X35976187Y-48171216D01*
X35948410Y-48116699D01*
X35957981Y-48056267D01*
X35958882Y-48054542D01*
X35975230Y-48023957D01*
X35975232Y-48023954D01*
X36035300Y-47825934D01*
X36035301Y-47825929D01*
X36055583Y-47620003D01*
X36055583Y-47619996D01*
X36035301Y-47414070D01*
X36035300Y-47414065D01*
X36017078Y-47353996D01*
X35975232Y-47216046D01*
X35877685Y-47033550D01*
X35746410Y-46873590D01*
X35746404Y-46873585D01*
X35586452Y-46742316D01*
X35403954Y-46644768D01*
X35205934Y-46584699D01*
X35205929Y-46584698D01*
X35000003Y-46564417D01*
X34999997Y-46564417D01*
X34794070Y-46584698D01*
X34794065Y-46584699D01*
X34596045Y-46644768D01*
X34413547Y-46742316D01*
X34253595Y-46873585D01*
X34253585Y-46873595D01*
X34122316Y-47033547D01*
X34024768Y-47216045D01*
X33964699Y-47414065D01*
X33964698Y-47414070D01*
X33944417Y-47619996D01*
X33944417Y-47620003D01*
X33000500Y-47620003D01*
X33000500Y-42540003D01*
X33944417Y-42540003D01*
X33964698Y-42745929D01*
X33964699Y-42745934D01*
X34024768Y-42943954D01*
X34122316Y-43126452D01*
X34253585Y-43286404D01*
X34253590Y-43286410D01*
X34253595Y-43286414D01*
X34413547Y-43417683D01*
X34413548Y-43417683D01*
X34413550Y-43417685D01*
X34596046Y-43515232D01*
X34733996Y-43557078D01*
X34794065Y-43575300D01*
X34794070Y-43575301D01*
X34999997Y-43595583D01*
X35000000Y-43595583D01*
X35000003Y-43595583D01*
X35205929Y-43575301D01*
X35205934Y-43575300D01*
X35205934Y-43575299D01*
X35403954Y-43515232D01*
X35586450Y-43417685D01*
X35746410Y-43286410D01*
X35877685Y-43126450D01*
X35975232Y-42943954D01*
X36035300Y-42745934D01*
X36035301Y-42745929D01*
X36055583Y-42540003D01*
X36055583Y-42539996D01*
X36035301Y-42334070D01*
X36035300Y-42334065D01*
X36017078Y-42273996D01*
X35975232Y-42136046D01*
X35877685Y-41953550D01*
X35746410Y-41793590D01*
X35705423Y-41759953D01*
X35586452Y-41662316D01*
X35403954Y-41564768D01*
X35205934Y-41504699D01*
X35205929Y-41504698D01*
X35000003Y-41484417D01*
X34999997Y-41484417D01*
X34794070Y-41504698D01*
X34794065Y-41504699D01*
X34596045Y-41564768D01*
X34413547Y-41662316D01*
X34253595Y-41793585D01*
X34253585Y-41793595D01*
X34122316Y-41953547D01*
X34024768Y-42136045D01*
X33964699Y-42334065D01*
X33964698Y-42334070D01*
X33944417Y-42539996D01*
X33944417Y-42540003D01*
X33000500Y-42540003D01*
X33000500Y-40000003D01*
X33944417Y-40000003D01*
X33964698Y-40205929D01*
X33964699Y-40205934D01*
X34024768Y-40403954D01*
X34122316Y-40586452D01*
X34168278Y-40642457D01*
X34253590Y-40746410D01*
X34253595Y-40746414D01*
X34413547Y-40877683D01*
X34413548Y-40877683D01*
X34413550Y-40877685D01*
X34596046Y-40975232D01*
X34733996Y-41017078D01*
X34794065Y-41035300D01*
X34794070Y-41035301D01*
X34999997Y-41055583D01*
X35000000Y-41055583D01*
X35000003Y-41055583D01*
X35205929Y-41035301D01*
X35205934Y-41035300D01*
X35234525Y-41026627D01*
X35403954Y-40975232D01*
X35586450Y-40877685D01*
X35746410Y-40746410D01*
X35877685Y-40586450D01*
X35923893Y-40500002D01*
X39594353Y-40500002D01*
X39614834Y-40642456D01*
X39662309Y-40746410D01*
X39674623Y-40773373D01*
X39765009Y-40877685D01*
X39768873Y-40882144D01*
X39824444Y-40917857D01*
X39889947Y-40959953D01*
X39996403Y-40991211D01*
X40028035Y-41000499D01*
X40028036Y-41000499D01*
X40028039Y-41000500D01*
X40028041Y-41000500D01*
X40171959Y-41000500D01*
X40171961Y-41000500D01*
X40310053Y-40959953D01*
X40431128Y-40882143D01*
X40525377Y-40773373D01*
X40585165Y-40642457D01*
X40605647Y-40500000D01*
X40601410Y-40470534D01*
X40585165Y-40357543D01*
X40539496Y-40257543D01*
X40525377Y-40226627D01*
X40507447Y-40205934D01*
X40474680Y-40168117D01*
X40450863Y-40111757D01*
X40450500Y-40103287D01*
X40450500Y-38050002D01*
X57994352Y-38050002D01*
X58014834Y-38192456D01*
X58021204Y-38206404D01*
X58074623Y-38323373D01*
X58138457Y-38397042D01*
X58168873Y-38432144D01*
X58258205Y-38489554D01*
X58289947Y-38509953D01*
X58373953Y-38534619D01*
X58428035Y-38550499D01*
X58428036Y-38550499D01*
X58428039Y-38550500D01*
X58463810Y-38550500D01*
X58522001Y-38569407D01*
X58533814Y-38579496D01*
X58720504Y-38766186D01*
X58748281Y-38820703D01*
X58749500Y-38836190D01*
X58749500Y-44103287D01*
X58730593Y-44161478D01*
X58725320Y-44168117D01*
X58674623Y-44226626D01*
X58614834Y-44357543D01*
X58594352Y-44499997D01*
X58594352Y-44500002D01*
X58614834Y-44642456D01*
X58674622Y-44773371D01*
X58674623Y-44773373D01*
X58761873Y-44874066D01*
X58768873Y-44882144D01*
X58889942Y-44959950D01*
X58889947Y-44959953D01*
X58996403Y-44991211D01*
X59028035Y-45000499D01*
X59028036Y-45000499D01*
X59028039Y-45000500D01*
X59028041Y-45000500D01*
X59171959Y-45000500D01*
X59171961Y-45000500D01*
X59310053Y-44959953D01*
X59431128Y-44882143D01*
X59525377Y-44773373D01*
X59585165Y-44642457D01*
X59605647Y-44500000D01*
X59604719Y-44493547D01*
X59585165Y-44357543D01*
X59574224Y-44333585D01*
X59525377Y-44226627D01*
X59504311Y-44202315D01*
X59474680Y-44168117D01*
X59450863Y-44111757D01*
X59450500Y-44103287D01*
X59450500Y-38696613D01*
X59452607Y-38676297D01*
X59455042Y-38664685D01*
X59450879Y-38631297D01*
X59450499Y-38625167D01*
X59450500Y-38620961D01*
X59450499Y-38620960D01*
X59450500Y-38620960D01*
X59446910Y-38599449D01*
X59440573Y-38548607D01*
X59440572Y-38548604D01*
X59438477Y-38541569D01*
X59436091Y-38534616D01*
X59411704Y-38489554D01*
X59389198Y-38443515D01*
X59384948Y-38437562D01*
X59380418Y-38431742D01*
X59342724Y-38397041D01*
X59030619Y-38084937D01*
X59002842Y-38030420D01*
X59002631Y-38029022D01*
X58985165Y-37907543D01*
X58925377Y-37776628D01*
X58925377Y-37776627D01*
X58831128Y-37667857D01*
X58831127Y-37667856D01*
X58831126Y-37667855D01*
X58710057Y-37590049D01*
X58710054Y-37590047D01*
X58710053Y-37590047D01*
X58710050Y-37590046D01*
X58571964Y-37549500D01*
X58571961Y-37549500D01*
X58428039Y-37549500D01*
X58428035Y-37549500D01*
X58289949Y-37590046D01*
X58289942Y-37590049D01*
X58168873Y-37667855D01*
X58074622Y-37776628D01*
X58014834Y-37907543D01*
X57994352Y-38049997D01*
X57994352Y-38050002D01*
X40450500Y-38050002D01*
X40450500Y-37596710D01*
X40469407Y-37538519D01*
X40474666Y-37531896D01*
X40525377Y-37473373D01*
X40585165Y-37342457D01*
X40605647Y-37200000D01*
X40585165Y-37057543D01*
X40525377Y-36926627D01*
X40431128Y-36817857D01*
X40431127Y-36817856D01*
X40431126Y-36817855D01*
X40310057Y-36740049D01*
X40310054Y-36740047D01*
X40310053Y-36740047D01*
X40310050Y-36740046D01*
X40171964Y-36699500D01*
X40171961Y-36699500D01*
X40028039Y-36699500D01*
X40028035Y-36699500D01*
X39889949Y-36740046D01*
X39889942Y-36740049D01*
X39768873Y-36817855D01*
X39674622Y-36926628D01*
X39614834Y-37057543D01*
X39594353Y-37199997D01*
X39594353Y-37200002D01*
X39614834Y-37342456D01*
X39668514Y-37459996D01*
X39674623Y-37473373D01*
X39725320Y-37531880D01*
X39749137Y-37588238D01*
X39749500Y-37596710D01*
X39749500Y-40103287D01*
X39730593Y-40161478D01*
X39725320Y-40168117D01*
X39674623Y-40226626D01*
X39614834Y-40357543D01*
X39594353Y-40499997D01*
X39594353Y-40500002D01*
X35923893Y-40500002D01*
X35975232Y-40403954D01*
X36035300Y-40205934D01*
X36035301Y-40205929D01*
X36055583Y-40000003D01*
X36055583Y-39999996D01*
X36035301Y-39794070D01*
X36035300Y-39794065D01*
X36017078Y-39733996D01*
X35975232Y-39596046D01*
X35877685Y-39413550D01*
X35746410Y-39253590D01*
X35746404Y-39253585D01*
X35586452Y-39122316D01*
X35403954Y-39024768D01*
X35205934Y-38964699D01*
X35205929Y-38964698D01*
X35000003Y-38944417D01*
X34999997Y-38944417D01*
X34794070Y-38964698D01*
X34794065Y-38964699D01*
X34596045Y-39024768D01*
X34413547Y-39122316D01*
X34253595Y-39253585D01*
X34253585Y-39253595D01*
X34122316Y-39413547D01*
X34024768Y-39596045D01*
X33964699Y-39794065D01*
X33964698Y-39794070D01*
X33944417Y-39999996D01*
X33944417Y-40000003D01*
X33000500Y-40000003D01*
X33000500Y-37460003D01*
X33944417Y-37460003D01*
X33964698Y-37665929D01*
X33964699Y-37665934D01*
X34024768Y-37863954D01*
X34122316Y-38046452D01*
X34132378Y-38058712D01*
X34253590Y-38206410D01*
X34253595Y-38206414D01*
X34413547Y-38337683D01*
X34413548Y-38337683D01*
X34413550Y-38337685D01*
X34596046Y-38435232D01*
X34733996Y-38477078D01*
X34794065Y-38495300D01*
X34794070Y-38495301D01*
X34999997Y-38515583D01*
X35000000Y-38515583D01*
X35000003Y-38515583D01*
X35205929Y-38495301D01*
X35205934Y-38495300D01*
X35224876Y-38489554D01*
X35403954Y-38435232D01*
X35586450Y-38337685D01*
X35746410Y-38206410D01*
X35877685Y-38046450D01*
X35975232Y-37863954D01*
X36035300Y-37665934D01*
X36035301Y-37665929D01*
X36055583Y-37460003D01*
X36055583Y-37459996D01*
X36035301Y-37254070D01*
X36035300Y-37254065D01*
X36017078Y-37193996D01*
X35975232Y-37056046D01*
X35877685Y-36873550D01*
X35746410Y-36713590D01*
X35729241Y-36699500D01*
X35586452Y-36582316D01*
X35403954Y-36484768D01*
X35205934Y-36424699D01*
X35205929Y-36424698D01*
X35000003Y-36404417D01*
X34999997Y-36404417D01*
X34794070Y-36424698D01*
X34794065Y-36424699D01*
X34596045Y-36484768D01*
X34413547Y-36582316D01*
X34253595Y-36713585D01*
X34253585Y-36713595D01*
X34122316Y-36873547D01*
X34024768Y-37056045D01*
X33964699Y-37254065D01*
X33964698Y-37254070D01*
X33944417Y-37459996D01*
X33944417Y-37460003D01*
X33000500Y-37460003D01*
X33000500Y-33249746D01*
X33949500Y-33249746D01*
X33949501Y-33249758D01*
X33961132Y-33308227D01*
X33961133Y-33308231D01*
X34005448Y-33374552D01*
X34071769Y-33418867D01*
X34116231Y-33427711D01*
X34130241Y-33430498D01*
X34130246Y-33430498D01*
X34130252Y-33430500D01*
X34130253Y-33430500D01*
X35869747Y-33430500D01*
X35869748Y-33430500D01*
X35928231Y-33418867D01*
X35994552Y-33374552D01*
X36038867Y-33308231D01*
X36050500Y-33249748D01*
X36050500Y-31510252D01*
X36038867Y-31451769D01*
X35994552Y-31385448D01*
X35994548Y-31385445D01*
X35928233Y-31341134D01*
X35928231Y-31341133D01*
X35928228Y-31341132D01*
X35928227Y-31341132D01*
X35869758Y-31329501D01*
X35869748Y-31329500D01*
X34130252Y-31329500D01*
X34130251Y-31329500D01*
X34130241Y-31329501D01*
X34071772Y-31341132D01*
X34071766Y-31341134D01*
X34005451Y-31385445D01*
X34005445Y-31385451D01*
X33961134Y-31451766D01*
X33961132Y-31451772D01*
X33949501Y-31510241D01*
X33949500Y-31510253D01*
X33949500Y-33249746D01*
X33000500Y-33249746D01*
X33000500Y-24818589D01*
X33019407Y-24760398D01*
X33068907Y-24724434D01*
X33130093Y-24724434D01*
X33179593Y-24760398D01*
X33193246Y-24786766D01*
X33212640Y-24843900D01*
X33212645Y-24843911D01*
X33340222Y-25102611D01*
X33500477Y-25342450D01*
X33500487Y-25342463D01*
X33690664Y-25559317D01*
X33690673Y-25559327D01*
X33690681Y-25559334D01*
X33690682Y-25559335D01*
X33907536Y-25749512D01*
X33907543Y-25749517D01*
X33907546Y-25749520D01*
X34147389Y-25909778D01*
X34406098Y-26037359D01*
X34535659Y-26081339D01*
X34679240Y-26130079D01*
X34679242Y-26130079D01*
X34679247Y-26130081D01*
X34962161Y-26186356D01*
X35250000Y-26205222D01*
X35537839Y-26186356D01*
X35820753Y-26130081D01*
X36093902Y-26037359D01*
X36352611Y-25909778D01*
X36592454Y-25749520D01*
X36809327Y-25559327D01*
X36999520Y-25342454D01*
X37159778Y-25102611D01*
X37287359Y-24843902D01*
X37380081Y-24570753D01*
X37436356Y-24287839D01*
X37455222Y-24000000D01*
X37436356Y-23712161D01*
X37380081Y-23429247D01*
X37357888Y-23363870D01*
X37287359Y-23156099D01*
X37287354Y-23156088D01*
X37276709Y-23134502D01*
X37188183Y-22954989D01*
X54169845Y-22954989D01*
X54179578Y-23134502D01*
X54203987Y-23222416D01*
X54227673Y-23307723D01*
X54311881Y-23466556D01*
X54311883Y-23466559D01*
X54428263Y-23603572D01*
X54428265Y-23603574D01*
X54571382Y-23712369D01*
X54734541Y-23787854D01*
X54910113Y-23826500D01*
X54910117Y-23826500D01*
X55044816Y-23826500D01*
X55178721Y-23811937D01*
X55349085Y-23754535D01*
X55503126Y-23661851D01*
X55633642Y-23538220D01*
X55734529Y-23389423D01*
X55801070Y-23222416D01*
X55830155Y-23045010D01*
X55820422Y-22865499D01*
X55772327Y-22692277D01*
X55688119Y-22533444D01*
X55609326Y-22440682D01*
X55571736Y-22396427D01*
X55571735Y-22396426D01*
X55428619Y-22287632D01*
X55428618Y-22287631D01*
X55265459Y-22212146D01*
X55089887Y-22173500D01*
X54955184Y-22173500D01*
X54821276Y-22188063D01*
X54650914Y-22245465D01*
X54496872Y-22338150D01*
X54366357Y-22461780D01*
X54265470Y-22610578D01*
X54198930Y-22777582D01*
X54198930Y-22777585D01*
X54169845Y-22954989D01*
X37188183Y-22954989D01*
X37159778Y-22897389D01*
X36999520Y-22657546D01*
X36999517Y-22657543D01*
X36999512Y-22657536D01*
X36809335Y-22440682D01*
X36809334Y-22440681D01*
X36809327Y-22440673D01*
X36809317Y-22440664D01*
X36592463Y-22250487D01*
X36592450Y-22250477D01*
X36352611Y-22090222D01*
X36093911Y-21962645D01*
X36093900Y-21962640D01*
X36036766Y-21943246D01*
X35987741Y-21906637D01*
X35969597Y-21848204D01*
X35989265Y-21790266D01*
X36039232Y-21754953D01*
X36068589Y-21750500D01*
X73931411Y-21750500D01*
X73989602Y-21769407D01*
G37*
%TD.AperFunction*%
%TD*%
M02*
