%TF.GenerationSoftware,KiCad,Pcbnew,7.0.6*%
%TF.CreationDate,2023-07-27T20:42:59+01:00*%
%TF.ProjectId,Crenshaw,4372656e-7368-4617-972e-6b696361645f,V2.0*%
%TF.SameCoordinates,Original*%
%TF.FileFunction,Paste,Bot*%
%TF.FilePolarity,Positive*%
%FSLAX46Y46*%
G04 Gerber Fmt 4.6, Leading zero omitted, Abs format (unit mm)*
G04 Created by KiCad (PCBNEW 7.0.6) date 2023-07-27 20:42:59*
%MOMM*%
%LPD*%
G01*
G04 APERTURE LIST*
G04 Aperture macros list*
%AMRoundRect*
0 Rectangle with rounded corners*
0 $1 Rounding radius*
0 $2 $3 $4 $5 $6 $7 $8 $9 X,Y pos of 4 corners*
0 Add a 4 corners polygon primitive as box body*
4,1,4,$2,$3,$4,$5,$6,$7,$8,$9,$2,$3,0*
0 Add four circle primitives for the rounded corners*
1,1,$1+$1,$2,$3*
1,1,$1+$1,$4,$5*
1,1,$1+$1,$6,$7*
1,1,$1+$1,$8,$9*
0 Add four rect primitives between the rounded corners*
20,1,$1+$1,$2,$3,$4,$5,0*
20,1,$1+$1,$4,$5,$6,$7,0*
20,1,$1+$1,$6,$7,$8,$9,0*
20,1,$1+$1,$8,$9,$2,$3,0*%
G04 Aperture macros list end*
%ADD10C,0.010000*%
%ADD11RoundRect,0.135000X0.135000X0.185000X-0.135000X0.185000X-0.135000X-0.185000X0.135000X-0.185000X0*%
%ADD12RoundRect,0.225000X0.250000X-0.225000X0.250000X0.225000X-0.250000X0.225000X-0.250000X-0.225000X0*%
%ADD13RoundRect,0.112500X0.187500X0.112500X-0.187500X0.112500X-0.187500X-0.112500X0.187500X-0.112500X0*%
%ADD14RoundRect,0.225000X-0.225000X-0.250000X0.225000X-0.250000X0.225000X0.250000X-0.225000X0.250000X0*%
%ADD15R,0.800000X2.700000*%
%ADD16RoundRect,0.150000X0.587500X0.150000X-0.587500X0.150000X-0.587500X-0.150000X0.587500X-0.150000X0*%
%ADD17R,0.400000X0.800000*%
%ADD18RoundRect,0.225000X0.225000X0.250000X-0.225000X0.250000X-0.225000X-0.250000X0.225000X-0.250000X0*%
%ADD19RoundRect,0.112500X-0.187500X-0.112500X0.187500X-0.112500X0.187500X0.112500X-0.187500X0.112500X0*%
%ADD20RoundRect,0.140000X0.140000X0.170000X-0.140000X0.170000X-0.140000X-0.170000X0.140000X-0.170000X0*%
%ADD21RoundRect,0.140000X-0.140000X-0.170000X0.140000X-0.170000X0.140000X0.170000X-0.140000X0.170000X0*%
%ADD22RoundRect,0.140000X0.170000X-0.140000X0.170000X0.140000X-0.170000X0.140000X-0.170000X-0.140000X0*%
%ADD23RoundRect,0.135000X-0.135000X-0.185000X0.135000X-0.185000X0.135000X0.185000X-0.135000X0.185000X0*%
%ADD24R,0.800000X0.400000*%
%ADD25RoundRect,0.150000X0.512500X0.150000X-0.512500X0.150000X-0.512500X-0.150000X0.512500X-0.150000X0*%
%ADD26RoundRect,0.200000X0.275000X-0.200000X0.275000X0.200000X-0.275000X0.200000X-0.275000X-0.200000X0*%
G04 APERTURE END LIST*
%TO.C,J2*%
D10*
X62375000Y-47350000D02*
X62125000Y-47350000D01*
X62125000Y-46700000D01*
X62375000Y-46700000D01*
X62375000Y-47350000D01*
G36*
X62375000Y-47350000D02*
G01*
X62125000Y-47350000D01*
X62125000Y-46700000D01*
X62375000Y-46700000D01*
X62375000Y-47350000D01*
G37*
X61875000Y-47350000D02*
X61625000Y-47350000D01*
X61625000Y-46700000D01*
X61875000Y-46700000D01*
X61875000Y-47350000D01*
G36*
X61875000Y-47350000D02*
G01*
X61625000Y-47350000D01*
X61625000Y-46700000D01*
X61875000Y-46700000D01*
X61875000Y-47350000D01*
G37*
X61375000Y-47350000D02*
X61125000Y-47350000D01*
X61125000Y-46700000D01*
X61375000Y-46700000D01*
X61375000Y-47350000D01*
G36*
X61375000Y-47350000D02*
G01*
X61125000Y-47350000D01*
X61125000Y-46700000D01*
X61375000Y-46700000D01*
X61375000Y-47350000D01*
G37*
X60875000Y-47350000D02*
X60625000Y-47350000D01*
X60625000Y-46700000D01*
X60875000Y-46700000D01*
X60875000Y-47350000D01*
G36*
X60875000Y-47350000D02*
G01*
X60625000Y-47350000D01*
X60625000Y-46700000D01*
X60875000Y-46700000D01*
X60875000Y-47350000D01*
G37*
X60375000Y-47350000D02*
X60125000Y-47350000D01*
X60125000Y-46700000D01*
X60375000Y-46700000D01*
X60375000Y-47350000D01*
G36*
X60375000Y-47350000D02*
G01*
X60125000Y-47350000D01*
X60125000Y-46700000D01*
X60375000Y-46700000D01*
X60375000Y-47350000D01*
G37*
X59875000Y-47350000D02*
X59625000Y-47350000D01*
X59625000Y-46700000D01*
X59875000Y-46700000D01*
X59875000Y-47350000D01*
G36*
X59875000Y-47350000D02*
G01*
X59625000Y-47350000D01*
X59625000Y-46700000D01*
X59875000Y-46700000D01*
X59875000Y-47350000D01*
G37*
X59375000Y-47350000D02*
X59125000Y-47350000D01*
X59125000Y-46700000D01*
X59375000Y-46700000D01*
X59375000Y-47350000D01*
G36*
X59375000Y-47350000D02*
G01*
X59125000Y-47350000D01*
X59125000Y-46700000D01*
X59375000Y-46700000D01*
X59375000Y-47350000D01*
G37*
X58875000Y-47350000D02*
X58625000Y-47350000D01*
X58625000Y-46700000D01*
X58875000Y-46700000D01*
X58875000Y-47350000D01*
G36*
X58875000Y-47350000D02*
G01*
X58625000Y-47350000D01*
X58625000Y-46700000D01*
X58875000Y-46700000D01*
X58875000Y-47350000D01*
G37*
X58375000Y-47350000D02*
X58125000Y-47350000D01*
X58125000Y-46700000D01*
X58375000Y-46700000D01*
X58375000Y-47350000D01*
G36*
X58375000Y-47350000D02*
G01*
X58125000Y-47350000D01*
X58125000Y-46700000D01*
X58375000Y-46700000D01*
X58375000Y-47350000D01*
G37*
X57875000Y-47350000D02*
X57625000Y-47350000D01*
X57625000Y-46700000D01*
X57875000Y-46700000D01*
X57875000Y-47350000D01*
G36*
X57875000Y-47350000D02*
G01*
X57625000Y-47350000D01*
X57625000Y-46700000D01*
X57875000Y-46700000D01*
X57875000Y-47350000D01*
G37*
X57375000Y-47350000D02*
X57125000Y-47350000D01*
X57125000Y-46700000D01*
X57375000Y-46700000D01*
X57375000Y-47350000D01*
G36*
X57375000Y-47350000D02*
G01*
X57125000Y-47350000D01*
X57125000Y-46700000D01*
X57375000Y-46700000D01*
X57375000Y-47350000D01*
G37*
X56875000Y-47350000D02*
X56625000Y-47350000D01*
X56625000Y-46700000D01*
X56875000Y-46700000D01*
X56875000Y-47350000D01*
G36*
X56875000Y-47350000D02*
G01*
X56625000Y-47350000D01*
X56625000Y-46700000D01*
X56875000Y-46700000D01*
X56875000Y-47350000D01*
G37*
X56375000Y-47350000D02*
X56125000Y-47350000D01*
X56125000Y-46700000D01*
X56375000Y-46700000D01*
X56375000Y-47350000D01*
G36*
X56375000Y-47350000D02*
G01*
X56125000Y-47350000D01*
X56125000Y-46700000D01*
X56375000Y-46700000D01*
X56375000Y-47350000D01*
G37*
X55875000Y-47350000D02*
X55625000Y-47350000D01*
X55625000Y-46700000D01*
X55875000Y-46700000D01*
X55875000Y-47350000D01*
G36*
X55875000Y-47350000D02*
G01*
X55625000Y-47350000D01*
X55625000Y-46700000D01*
X55875000Y-46700000D01*
X55875000Y-47350000D01*
G37*
X55375000Y-47350000D02*
X55125000Y-47350000D01*
X55125000Y-46700000D01*
X55375000Y-46700000D01*
X55375000Y-47350000D01*
G36*
X55375000Y-47350000D02*
G01*
X55125000Y-47350000D01*
X55125000Y-46700000D01*
X55375000Y-46700000D01*
X55375000Y-47350000D01*
G37*
X54875000Y-47350000D02*
X54625000Y-47350000D01*
X54625000Y-46700000D01*
X54875000Y-46700000D01*
X54875000Y-47350000D01*
G36*
X54875000Y-47350000D02*
G01*
X54625000Y-47350000D01*
X54625000Y-46700000D01*
X54875000Y-46700000D01*
X54875000Y-47350000D01*
G37*
X54375000Y-47350000D02*
X54125000Y-47350000D01*
X54125000Y-46700000D01*
X54375000Y-46700000D01*
X54375000Y-47350000D01*
G36*
X54375000Y-47350000D02*
G01*
X54125000Y-47350000D01*
X54125000Y-46700000D01*
X54375000Y-46700000D01*
X54375000Y-47350000D01*
G37*
X53875000Y-47350000D02*
X53625000Y-47350000D01*
X53625000Y-46700000D01*
X53875000Y-46700000D01*
X53875000Y-47350000D01*
G36*
X53875000Y-47350000D02*
G01*
X53625000Y-47350000D01*
X53625000Y-46700000D01*
X53875000Y-46700000D01*
X53875000Y-47350000D01*
G37*
X53375000Y-47350000D02*
X53125000Y-47350000D01*
X53125000Y-46700000D01*
X53375000Y-46700000D01*
X53375000Y-47350000D01*
G36*
X53375000Y-47350000D02*
G01*
X53125000Y-47350000D01*
X53125000Y-46700000D01*
X53375000Y-46700000D01*
X53375000Y-47350000D01*
G37*
X52875000Y-47350000D02*
X52625000Y-47350000D01*
X52625000Y-46700000D01*
X52875000Y-46700000D01*
X52875000Y-47350000D01*
G36*
X52875000Y-47350000D02*
G01*
X52625000Y-47350000D01*
X52625000Y-46700000D01*
X52875000Y-46700000D01*
X52875000Y-47350000D01*
G37*
X52375000Y-47350000D02*
X52125000Y-47350000D01*
X52125000Y-46700000D01*
X52375000Y-46700000D01*
X52375000Y-47350000D01*
G36*
X52375000Y-47350000D02*
G01*
X52125000Y-47350000D01*
X52125000Y-46700000D01*
X52375000Y-46700000D01*
X52375000Y-47350000D01*
G37*
X51875000Y-47350000D02*
X51625000Y-47350000D01*
X51625000Y-46700000D01*
X51875000Y-46700000D01*
X51875000Y-47350000D01*
G36*
X51875000Y-47350000D02*
G01*
X51625000Y-47350000D01*
X51625000Y-46700000D01*
X51875000Y-46700000D01*
X51875000Y-47350000D01*
G37*
X51375000Y-47350000D02*
X51125000Y-47350000D01*
X51125000Y-46700000D01*
X51375000Y-46700000D01*
X51375000Y-47350000D01*
G36*
X51375000Y-47350000D02*
G01*
X51125000Y-47350000D01*
X51125000Y-46700000D01*
X51375000Y-46700000D01*
X51375000Y-47350000D01*
G37*
X50875000Y-47350000D02*
X50625000Y-47350000D01*
X50625000Y-46700000D01*
X50875000Y-46700000D01*
X50875000Y-47350000D01*
G36*
X50875000Y-47350000D02*
G01*
X50625000Y-47350000D01*
X50625000Y-46700000D01*
X50875000Y-46700000D01*
X50875000Y-47350000D01*
G37*
X50375000Y-47350000D02*
X50125000Y-47350000D01*
X50125000Y-46700000D01*
X50375000Y-46700000D01*
X50375000Y-47350000D01*
G36*
X50375000Y-47350000D02*
G01*
X50125000Y-47350000D01*
X50125000Y-46700000D01*
X50375000Y-46700000D01*
X50375000Y-47350000D01*
G37*
X49875000Y-47350000D02*
X49625000Y-47350000D01*
X49625000Y-46700000D01*
X49875000Y-46700000D01*
X49875000Y-47350000D01*
G36*
X49875000Y-47350000D02*
G01*
X49625000Y-47350000D01*
X49625000Y-46700000D01*
X49875000Y-46700000D01*
X49875000Y-47350000D01*
G37*
X49375000Y-47350000D02*
X49125000Y-47350000D01*
X49125000Y-46700000D01*
X49375000Y-46700000D01*
X49375000Y-47350000D01*
G36*
X49375000Y-47350000D02*
G01*
X49125000Y-47350000D01*
X49125000Y-46700000D01*
X49375000Y-46700000D01*
X49375000Y-47350000D01*
G37*
X48875000Y-47350000D02*
X48625000Y-47350000D01*
X48625000Y-46700000D01*
X48875000Y-46700000D01*
X48875000Y-47350000D01*
G36*
X48875000Y-47350000D02*
G01*
X48625000Y-47350000D01*
X48625000Y-46700000D01*
X48875000Y-46700000D01*
X48875000Y-47350000D01*
G37*
X48375000Y-47350000D02*
X48125000Y-47350000D01*
X48125000Y-46700000D01*
X48375000Y-46700000D01*
X48375000Y-47350000D01*
G36*
X48375000Y-47350000D02*
G01*
X48125000Y-47350000D01*
X48125000Y-46700000D01*
X48375000Y-46700000D01*
X48375000Y-47350000D01*
G37*
X47875000Y-47350000D02*
X47625000Y-47350000D01*
X47625000Y-46700000D01*
X47875000Y-46700000D01*
X47875000Y-47350000D01*
G36*
X47875000Y-47350000D02*
G01*
X47625000Y-47350000D01*
X47625000Y-46700000D01*
X47875000Y-46700000D01*
X47875000Y-47350000D01*
G37*
%TO.C,J3*%
X66250000Y-42375000D02*
X65600000Y-42375000D01*
X65600000Y-42125000D01*
X66250000Y-42125000D01*
X66250000Y-42375000D01*
G36*
X66250000Y-42375000D02*
G01*
X65600000Y-42375000D01*
X65600000Y-42125000D01*
X66250000Y-42125000D01*
X66250000Y-42375000D01*
G37*
X66250000Y-41875000D02*
X65600000Y-41875000D01*
X65600000Y-41625000D01*
X66250000Y-41625000D01*
X66250000Y-41875000D01*
G36*
X66250000Y-41875000D02*
G01*
X65600000Y-41875000D01*
X65600000Y-41625000D01*
X66250000Y-41625000D01*
X66250000Y-41875000D01*
G37*
X66250000Y-41375000D02*
X65600000Y-41375000D01*
X65600000Y-41125000D01*
X66250000Y-41125000D01*
X66250000Y-41375000D01*
G36*
X66250000Y-41375000D02*
G01*
X65600000Y-41375000D01*
X65600000Y-41125000D01*
X66250000Y-41125000D01*
X66250000Y-41375000D01*
G37*
X66250000Y-40875000D02*
X65600000Y-40875000D01*
X65600000Y-40625000D01*
X66250000Y-40625000D01*
X66250000Y-40875000D01*
G36*
X66250000Y-40875000D02*
G01*
X65600000Y-40875000D01*
X65600000Y-40625000D01*
X66250000Y-40625000D01*
X66250000Y-40875000D01*
G37*
X66250000Y-40375000D02*
X65600000Y-40375000D01*
X65600000Y-40125000D01*
X66250000Y-40125000D01*
X66250000Y-40375000D01*
G36*
X66250000Y-40375000D02*
G01*
X65600000Y-40375000D01*
X65600000Y-40125000D01*
X66250000Y-40125000D01*
X66250000Y-40375000D01*
G37*
X66250000Y-39875000D02*
X65600000Y-39875000D01*
X65600000Y-39625000D01*
X66250000Y-39625000D01*
X66250000Y-39875000D01*
G36*
X66250000Y-39875000D02*
G01*
X65600000Y-39875000D01*
X65600000Y-39625000D01*
X66250000Y-39625000D01*
X66250000Y-39875000D01*
G37*
X66250000Y-39375000D02*
X65600000Y-39375000D01*
X65600000Y-39125000D01*
X66250000Y-39125000D01*
X66250000Y-39375000D01*
G36*
X66250000Y-39375000D02*
G01*
X65600000Y-39375000D01*
X65600000Y-39125000D01*
X66250000Y-39125000D01*
X66250000Y-39375000D01*
G37*
X66250000Y-38875000D02*
X65600000Y-38875000D01*
X65600000Y-38625000D01*
X66250000Y-38625000D01*
X66250000Y-38875000D01*
G36*
X66250000Y-38875000D02*
G01*
X65600000Y-38875000D01*
X65600000Y-38625000D01*
X66250000Y-38625000D01*
X66250000Y-38875000D01*
G37*
X66250000Y-38375000D02*
X65600000Y-38375000D01*
X65600000Y-38125000D01*
X66250000Y-38125000D01*
X66250000Y-38375000D01*
G36*
X66250000Y-38375000D02*
G01*
X65600000Y-38375000D01*
X65600000Y-38125000D01*
X66250000Y-38125000D01*
X66250000Y-38375000D01*
G37*
X66250000Y-37875000D02*
X65600000Y-37875000D01*
X65600000Y-37625000D01*
X66250000Y-37625000D01*
X66250000Y-37875000D01*
G36*
X66250000Y-37875000D02*
G01*
X65600000Y-37875000D01*
X65600000Y-37625000D01*
X66250000Y-37625000D01*
X66250000Y-37875000D01*
G37*
X66250000Y-37375000D02*
X65600000Y-37375000D01*
X65600000Y-37125000D01*
X66250000Y-37125000D01*
X66250000Y-37375000D01*
G36*
X66250000Y-37375000D02*
G01*
X65600000Y-37375000D01*
X65600000Y-37125000D01*
X66250000Y-37125000D01*
X66250000Y-37375000D01*
G37*
X66250000Y-36875000D02*
X65600000Y-36875000D01*
X65600000Y-36625000D01*
X66250000Y-36625000D01*
X66250000Y-36875000D01*
G36*
X66250000Y-36875000D02*
G01*
X65600000Y-36875000D01*
X65600000Y-36625000D01*
X66250000Y-36625000D01*
X66250000Y-36875000D01*
G37*
%TD*%
D11*
%TO.C,R1*%
X50910000Y-45400000D03*
X49890000Y-45400000D03*
%TD*%
%TO.C,R5*%
X44810000Y-40100000D03*
X43790000Y-40100000D03*
%TD*%
D12*
%TO.C,C8*%
X40950000Y-38175000D03*
X40950000Y-36625000D03*
%TD*%
D13*
%TO.C,D3*%
X48350000Y-34799999D03*
X46250000Y-34799999D03*
%TD*%
D14*
%TO.C,C3*%
X49625000Y-42500000D03*
X51175000Y-42500000D03*
%TD*%
D15*
%TO.C,L1*%
X42650000Y-34100000D03*
X44950000Y-34100000D03*
%TD*%
D16*
%TO.C,U2*%
X52337500Y-35250000D03*
X52337500Y-37150000D03*
X50462500Y-36200000D03*
%TD*%
D17*
%TO.C,J2*%
X63250000Y-49600000D03*
X46750000Y-49600000D03*
%TD*%
D18*
%TO.C,C2*%
X47875000Y-44100000D03*
X46325000Y-44100000D03*
%TD*%
D19*
%TO.C,D2*%
X52750000Y-43000000D03*
X54850000Y-43000000D03*
%TD*%
D20*
%TO.C,C1*%
X48080000Y-45400000D03*
X47120000Y-45400000D03*
%TD*%
D14*
%TO.C,C4*%
X49625000Y-44100000D03*
X51175000Y-44100000D03*
%TD*%
%TO.C,C7*%
X61525000Y-44100000D03*
X63075000Y-44100000D03*
%TD*%
D13*
%TO.C,D1*%
X54850000Y-45000000D03*
X52750000Y-45000000D03*
%TD*%
D21*
%TO.C,C9*%
X47170000Y-39100000D03*
X48130000Y-39100000D03*
%TD*%
D12*
%TO.C,C5*%
X60000000Y-45275000D03*
X60000000Y-43725000D03*
%TD*%
D22*
%TO.C,C12*%
X53900001Y-37180000D03*
X53900001Y-36220000D03*
%TD*%
D14*
%TO.C,C10*%
X46675000Y-37800000D03*
X48225000Y-37800000D03*
%TD*%
D23*
%TO.C,R4*%
X47140000Y-40100000D03*
X48160000Y-40100000D03*
%TD*%
D21*
%TO.C,C11*%
X51980000Y-33900000D03*
X51020000Y-33900000D03*
%TD*%
D24*
%TO.C,J3*%
X68500000Y-43250000D03*
X68500000Y-35750000D03*
%TD*%
D25*
%TO.C,U1*%
X44937500Y-36749999D03*
X44937500Y-37699999D03*
X44937500Y-38649999D03*
X42662500Y-38649999D03*
X42662500Y-36749999D03*
%TD*%
D26*
%TO.C,R2*%
X58200000Y-45325000D03*
X58200000Y-43675000D03*
%TD*%
D21*
%TO.C,C6*%
X61220000Y-45400000D03*
X62180000Y-45400000D03*
%TD*%
M02*
