%TF.GenerationSoftware,KiCad,Pcbnew,7.0.6*%
%TF.CreationDate,2023-07-26T14:18:57+01:00*%
%TF.ProjectId,Crenshaw,4372656e-7368-4617-972e-6b696361645f,rev?*%
%TF.SameCoordinates,Original*%
%TF.FileFunction,Soldermask,Bot*%
%TF.FilePolarity,Negative*%
%FSLAX46Y46*%
G04 Gerber Fmt 4.6, Leading zero omitted, Abs format (unit mm)*
G04 Created by KiCad (PCBNEW 7.0.6) date 2023-07-26 14:18:57*
%MOMM*%
%LPD*%
G01*
G04 APERTURE LIST*
G04 Aperture macros list*
%AMRoundRect*
0 Rectangle with rounded corners*
0 $1 Rounding radius*
0 $2 $3 $4 $5 $6 $7 $8 $9 X,Y pos of 4 corners*
0 Add a 4 corners polygon primitive as box body*
4,1,4,$2,$3,$4,$5,$6,$7,$8,$9,$2,$3,0*
0 Add four circle primitives for the rounded corners*
1,1,$1+$1,$2,$3*
1,1,$1+$1,$4,$5*
1,1,$1+$1,$6,$7*
1,1,$1+$1,$8,$9*
0 Add four rect primitives between the rounded corners*
20,1,$1+$1,$2,$3,$4,$5,0*
20,1,$1+$1,$4,$5,$6,$7,0*
20,1,$1+$1,$6,$7,$8,$9,0*
20,1,$1+$1,$8,$9,$2,$3,0*%
G04 Aperture macros list end*
%ADD10C,1.356000*%
%ADD11C,4.204000*%
%ADD12RoundRect,0.102000X0.150000X0.400000X-0.150000X0.400000X-0.150000X-0.400000X0.150000X-0.400000X0*%
%ADD13RoundRect,0.102000X0.200000X0.400000X-0.200000X0.400000X-0.200000X-0.400000X0.200000X-0.400000X0*%
%ADD14RoundRect,0.102000X-0.150000X-0.400000X0.150000X-0.400000X0.150000X0.400000X-0.150000X0.400000X0*%
%ADD15RoundRect,0.102000X-0.200000X-0.400000X0.200000X-0.400000X0.200000X0.400000X-0.200000X0.400000X0*%
G04 APERTURE END LIST*
%TO.C,A1*%
G36*
X57825334Y-27822166D02*
G01*
X57865071Y-27898565D01*
X57656000Y-27991500D01*
X57521534Y-27973169D01*
X57486667Y-27822166D01*
X57523895Y-27791767D01*
X57825334Y-27822166D01*
G37*
G36*
X57402000Y-26721500D02*
G01*
X57383670Y-26855966D01*
X57232667Y-26890833D01*
X57202268Y-26853605D01*
X57232667Y-26552166D01*
X57309066Y-26512429D01*
X57402000Y-26721500D01*
G37*
G36*
X60704000Y-28992509D02*
G01*
X60694240Y-29066236D01*
X60450000Y-29261500D01*
X60392518Y-29258587D01*
X60196000Y-29149490D01*
X60207689Y-29108746D01*
X60450000Y-28880500D01*
X60548391Y-28840811D01*
X60704000Y-28992509D01*
G37*
G36*
X58994643Y-27916406D02*
G01*
X59180000Y-28275480D01*
X59160431Y-28360889D01*
X58926000Y-28372500D01*
X58857358Y-28320593D01*
X58672000Y-27961519D01*
X58691570Y-27876110D01*
X58926000Y-27864500D01*
X58994643Y-27916406D01*
G37*
G36*
X56444737Y-25715260D02*
G01*
X56640000Y-25959500D01*
X56637088Y-26016982D01*
X56527991Y-26213500D01*
X56487247Y-26201811D01*
X56259000Y-25959500D01*
X56219312Y-25861109D01*
X56371010Y-25705500D01*
X56444737Y-25715260D01*
G37*
G36*
X51620713Y-25966880D02*
G01*
X51814000Y-26213500D01*
X51806620Y-26274212D01*
X51560000Y-26467500D01*
X51499288Y-26460119D01*
X51306000Y-26213500D01*
X51313381Y-26152787D01*
X51560000Y-25959500D01*
X51620713Y-25966880D01*
G37*
G36*
X41331135Y-26841094D02*
G01*
X41297240Y-27492769D01*
X41341593Y-28579664D01*
X41552234Y-29306999D01*
X41998144Y-29880662D01*
X42654090Y-30196172D01*
X43327631Y-30076859D01*
X43335059Y-30072675D01*
X43523449Y-29886393D01*
X43372334Y-29651855D01*
X42824756Y-29278653D01*
X42417690Y-28970221D01*
X42001515Y-28371737D01*
X41997366Y-28261685D01*
X42553003Y-28261685D01*
X42728871Y-28446875D01*
X43192147Y-28761070D01*
X43210644Y-28770903D01*
X43585568Y-28893232D01*
X43686000Y-28666537D01*
X43683733Y-28617760D01*
X43476248Y-28169648D01*
X43073560Y-27863496D01*
X42676984Y-27860184D01*
X42588085Y-27938083D01*
X42553003Y-28261685D01*
X41997366Y-28261685D01*
X41980324Y-27809641D01*
X42341069Y-27392655D01*
X43070700Y-27229499D01*
X43195756Y-27234476D01*
X43750707Y-27448396D01*
X44144426Y-28028439D01*
X44323114Y-28666537D01*
X44428792Y-29043913D01*
X44646341Y-30150500D01*
X44674171Y-28831990D01*
X44725248Y-28089332D01*
X44910971Y-27473586D01*
X45242654Y-27324007D01*
X45734006Y-27624984D01*
X46017783Y-27862407D01*
X46323431Y-27923656D01*
X46717995Y-27624984D01*
X47126413Y-27346743D01*
X47481645Y-27405283D01*
X47685110Y-27923083D01*
X47750000Y-28916656D01*
X47772300Y-29622155D01*
X47872823Y-30115444D01*
X48067500Y-30209990D01*
X48271437Y-29919852D01*
X48303052Y-29283395D01*
X48289718Y-28945704D01*
X48354823Y-28659401D01*
X48827751Y-28659401D01*
X48964797Y-29368774D01*
X49273407Y-29814543D01*
X49655000Y-30023500D01*
X49982435Y-29892459D01*
X50324009Y-29428051D01*
X50483988Y-28824024D01*
X50375576Y-28289274D01*
X50160829Y-28061488D01*
X49655000Y-27864500D01*
X49579929Y-27867323D01*
X49053772Y-28113200D01*
X48827751Y-28659401D01*
X48354823Y-28659401D01*
X48481479Y-28102423D01*
X48934543Y-27540446D01*
X49537085Y-27285818D01*
X50177279Y-27364587D01*
X50743297Y-27802798D01*
X51123314Y-28626500D01*
X51165251Y-28732570D01*
X51235738Y-28587964D01*
X51276536Y-28050160D01*
X51286912Y-27776959D01*
X51369501Y-27280273D01*
X51615743Y-27074238D01*
X52130967Y-27117760D01*
X53020500Y-27369743D01*
X53152423Y-27388007D01*
X53338000Y-27221528D01*
X53345322Y-27162955D01*
X53592000Y-26975500D01*
X53705660Y-27133335D01*
X53807099Y-27678873D01*
X53846000Y-28484509D01*
X53848867Y-28739137D01*
X53927329Y-29632327D01*
X54099150Y-30101341D01*
X54345530Y-30118684D01*
X54647671Y-29656866D01*
X54665558Y-29616368D01*
X54800537Y-29081705D01*
X54786834Y-28356269D01*
X54622908Y-27293044D01*
X54454543Y-26206957D01*
X54427287Y-25678889D01*
X54671384Y-25678889D01*
X54858353Y-26707953D01*
X55257353Y-27575587D01*
X56017760Y-28588316D01*
X56997322Y-29562128D01*
X58068533Y-30371409D01*
X59103888Y-30890545D01*
X59891712Y-31116113D01*
X61284905Y-31255576D01*
X62418500Y-30983494D01*
X62483158Y-30951832D01*
X62912704Y-30679485D01*
X62876523Y-30514322D01*
X62363269Y-30450985D01*
X61361597Y-30484113D01*
X60795699Y-30511809D01*
X59960793Y-30476305D01*
X59252179Y-30281013D01*
X58423108Y-29874764D01*
X57907920Y-29565576D01*
X57036260Y-28933237D01*
X56379200Y-28325948D01*
X55995474Y-27806941D01*
X55485252Y-26760161D01*
X55210852Y-25678368D01*
X55233928Y-24802192D01*
X55398922Y-24802192D01*
X55414308Y-25322300D01*
X55639273Y-26283942D01*
X55712061Y-26513814D01*
X56366127Y-27707612D01*
X57399267Y-28795325D01*
X58704191Y-29658812D01*
X59209921Y-29874916D01*
X60136514Y-30138468D01*
X61065901Y-30281508D01*
X61839088Y-30283461D01*
X62297081Y-30123752D01*
X62238697Y-29957700D01*
X61868084Y-29567320D01*
X61259915Y-29062165D01*
X60852689Y-28749575D01*
X59964126Y-28060745D01*
X58920308Y-27245902D01*
X57871230Y-26421912D01*
X57109395Y-25828656D01*
X56329004Y-25238678D01*
X55770701Y-24837516D01*
X55521730Y-24689499D01*
X55398922Y-24802192D01*
X55233928Y-24802192D01*
X55235104Y-24757531D01*
X55235771Y-24754869D01*
X55279315Y-24301521D01*
X55063579Y-24239728D01*
X54912339Y-24336180D01*
X54692487Y-24850930D01*
X54671384Y-25678889D01*
X54427287Y-25678889D01*
X54394661Y-25046780D01*
X54531196Y-24297523D01*
X54862000Y-23988860D01*
X54872881Y-23988786D01*
X55185130Y-24148312D01*
X55815247Y-24560502D01*
X56688828Y-25170035D01*
X57731469Y-25921590D01*
X58868768Y-26759848D01*
X60026321Y-27629487D01*
X61129723Y-28475189D01*
X62104573Y-29241632D01*
X62876467Y-29873495D01*
X63156490Y-30123752D01*
X63371000Y-30315460D01*
X63422111Y-30601555D01*
X63354303Y-30679485D01*
X63025361Y-31057529D01*
X62766251Y-31234521D01*
X62048028Y-31473650D01*
X60993361Y-31541921D01*
X59414828Y-31349445D01*
X57865632Y-30701439D01*
X56444488Y-29573987D01*
X55442004Y-28571503D01*
X55215502Y-29463119D01*
X55161343Y-29649188D01*
X54793660Y-30342332D01*
X54319214Y-30722468D01*
X53846275Y-30770513D01*
X53483114Y-30467386D01*
X53338000Y-29794007D01*
X53328322Y-29498734D01*
X53158541Y-28595350D01*
X52818126Y-27970732D01*
X52360603Y-27737500D01*
X52323607Y-27738246D01*
X52036304Y-27852292D01*
X51865099Y-28241573D01*
X51783100Y-28824024D01*
X51755165Y-29022451D01*
X51611941Y-29907044D01*
X51378834Y-30531436D01*
X51098505Y-30763506D01*
X50806782Y-30545709D01*
X50580853Y-30326654D01*
X50227459Y-30478004D01*
X50051489Y-30568032D01*
X49428495Y-30692304D01*
X48623584Y-30715671D01*
X48549740Y-30712130D01*
X47808931Y-30635797D01*
X47435244Y-30467083D01*
X47298595Y-30150500D01*
X47272310Y-29979812D01*
X47101008Y-29103918D01*
X46925976Y-28672639D01*
X46726554Y-28631102D01*
X46679500Y-28678598D01*
X46537262Y-29109507D01*
X46480000Y-29784490D01*
X46474092Y-29998964D01*
X46386027Y-30560384D01*
X46226000Y-30785500D01*
X46171579Y-30762213D01*
X46029122Y-30415151D01*
X45972000Y-29784490D01*
X45967465Y-29590647D01*
X45882982Y-28960946D01*
X45725447Y-28631102D01*
X45691859Y-28614111D01*
X45498417Y-28711390D01*
X45325874Y-29204456D01*
X45153163Y-30149194D01*
X45134321Y-30244060D01*
X44961010Y-30508877D01*
X44532900Y-30649785D01*
X43723665Y-30716961D01*
X43332962Y-30721657D01*
X42390957Y-30632748D01*
X41702909Y-30428097D01*
X41380516Y-30273062D01*
X41015374Y-30225544D01*
X40739469Y-30482371D01*
X40714778Y-30515449D01*
X40462383Y-30731079D01*
X40083423Y-30737980D01*
X39406189Y-30544103D01*
X38823710Y-30375444D01*
X38330876Y-30345108D01*
X37974473Y-30528618D01*
X37859604Y-30616147D01*
X37510019Y-30696645D01*
X37077236Y-30400188D01*
X36771131Y-30145217D01*
X36468668Y-30094576D01*
X36070765Y-30400188D01*
X35942008Y-30511774D01*
X35546750Y-30709568D01*
X35181765Y-30535454D01*
X34945628Y-30208761D01*
X34796000Y-29594700D01*
X34795543Y-29548957D01*
X34657653Y-28791601D01*
X34334935Y-28218499D01*
X33916207Y-27991500D01*
X33376332Y-28201738D01*
X32938895Y-28752329D01*
X32760111Y-29470142D01*
X32738612Y-29775762D01*
X32589438Y-30356161D01*
X32359998Y-30725667D01*
X32123757Y-30737923D01*
X32050022Y-30437433D01*
X32086596Y-29803212D01*
X32218738Y-29032660D01*
X32413972Y-28309560D01*
X32639818Y-27817691D01*
X33171801Y-27469292D01*
X34136696Y-27327681D01*
X35304001Y-27288389D01*
X35304000Y-28655944D01*
X35324108Y-29203449D01*
X35410910Y-29794089D01*
X35543010Y-30023500D01*
X35848494Y-29901034D01*
X35979891Y-29465291D01*
X35794324Y-28847471D01*
X35643400Y-28523107D01*
X35647214Y-28173262D01*
X36323623Y-28173262D01*
X36350537Y-28573322D01*
X36729113Y-29200996D01*
X36877967Y-29384209D01*
X37310833Y-29840716D01*
X37590000Y-30023500D01*
X37654583Y-30002793D01*
X37999182Y-29716499D01*
X38450888Y-29200996D01*
X38769603Y-28709786D01*
X38881157Y-28247084D01*
X38658609Y-28064306D01*
X38125270Y-28230905D01*
X37679128Y-28385423D01*
X37054731Y-28230905D01*
X36625056Y-28070270D01*
X36323623Y-28173262D01*
X35647214Y-28173262D01*
X35647720Y-28126870D01*
X36009400Y-27681211D01*
X36397535Y-27330667D01*
X36685890Y-27299172D01*
X37073036Y-27602387D01*
X37400059Y-27873617D01*
X37700889Y-27917444D01*
X38098000Y-27610499D01*
X38413400Y-27348266D01*
X38714644Y-27301995D01*
X39114001Y-27610500D01*
X39449404Y-27980726D01*
X39519537Y-28247084D01*
X39589553Y-28512994D01*
X39241001Y-29007499D01*
X38923564Y-29347677D01*
X38970357Y-29660273D01*
X39490159Y-29975077D01*
X39985390Y-30087072D01*
X40380673Y-29838246D01*
X40522647Y-29195032D01*
X40393753Y-28192076D01*
X40276376Y-27577533D01*
X40166752Y-26567054D01*
X40157523Y-26050997D01*
X40670171Y-26050997D01*
X40717482Y-26660961D01*
X40749941Y-26744176D01*
X40807501Y-26609253D01*
X40827946Y-26086500D01*
X40821357Y-25809480D01*
X40779267Y-25504186D01*
X40712356Y-25644961D01*
X40670171Y-26050997D01*
X40157523Y-26050997D01*
X40150038Y-25632445D01*
X40226181Y-24914902D01*
X40395127Y-24555623D01*
X40620449Y-24522134D01*
X41060243Y-24723727D01*
X41173940Y-24840027D01*
X41331292Y-25208295D01*
X41378494Y-25834704D01*
X41366645Y-26086500D01*
X41331135Y-26841094D01*
G37*
%TD*%
D10*
%TO.C,H4*%
X31250000Y-57537500D03*
%TD*%
%TO.C,H3*%
X64250000Y-57537500D03*
%TD*%
%TO.C,H2*%
X47750000Y-23537500D03*
%TD*%
D11*
%TO.C,H1*%
X28000000Y-24537500D03*
X28000000Y-56537500D03*
X67500000Y-24537500D03*
X67500000Y-56537500D03*
%TD*%
D12*
%TO.C,J2*%
X40500000Y-46037500D03*
X41000000Y-46037500D03*
X41500000Y-46037500D03*
X42000000Y-46037500D03*
X42500000Y-46037500D03*
X43000000Y-46037500D03*
X43500000Y-46037500D03*
X44000000Y-46037500D03*
X44500000Y-46037500D03*
X45000000Y-46037500D03*
X45500000Y-46037500D03*
X46000000Y-46037500D03*
X46500000Y-46037500D03*
X47000000Y-46037500D03*
X47500000Y-46037500D03*
X48000000Y-46037500D03*
X48500000Y-46037500D03*
X49000000Y-46037500D03*
X49500000Y-46037500D03*
X50000000Y-46037500D03*
X50500000Y-46037500D03*
X51000000Y-46037500D03*
X51500000Y-46037500D03*
X52000000Y-46037500D03*
X52500000Y-46037500D03*
X53000000Y-46037500D03*
X53500000Y-46037500D03*
X54000000Y-46037500D03*
X54500000Y-46037500D03*
X55000000Y-46037500D03*
D13*
X56000000Y-48537500D03*
X39500000Y-48537500D03*
%TD*%
D14*
%TO.C,J1*%
X55000000Y-39000000D03*
X54500000Y-39000000D03*
X54000000Y-39000000D03*
X53500000Y-39000000D03*
X53000000Y-39000000D03*
X52500000Y-39000000D03*
X52000000Y-39000000D03*
X51500000Y-39000000D03*
X51000000Y-39000000D03*
X50500000Y-39000000D03*
X50000000Y-39000000D03*
X49500000Y-39000000D03*
X49000000Y-39000000D03*
X48500000Y-39000000D03*
X48000000Y-39000000D03*
X47500000Y-39000000D03*
X47000000Y-39000000D03*
X46500000Y-39000000D03*
X46000000Y-39000000D03*
X45500000Y-39000000D03*
X45000000Y-39000000D03*
X44500000Y-39000000D03*
X44000000Y-39000000D03*
X43500000Y-39000000D03*
X43000000Y-39000000D03*
X42500000Y-39000000D03*
X42000000Y-39000000D03*
X41500000Y-39000000D03*
X41000000Y-39000000D03*
X40500000Y-39000000D03*
D15*
X39500000Y-36500000D03*
X56000000Y-36500000D03*
%TD*%
M02*
