M48
; DRILL file {KiCad 7.0.6} date Thu Jul 27 20:42:59 2023
; FORMAT={-:-/ absolute / inch / decimal}
; #@! TF.CreationDate,2023-07-27T20:42:59+01:00
; #@! TF.GenerationSoftware,Kicad,Pcbnew,7.0.6
; #@! TF.FileFunction,Plated,1,2,PTH
FMAT,2
INCH
; #@! TA.AperFunction,Plated,PTH,ViaDrill
T1C0.0118
; #@! TA.AperFunction,Plated,PTH,ComponentDrill
T2C0.0394
; #@! TA.AperFunction,Plated,PTH,ComponentDrill
T3C0.0787
%
G90
G05
T1
X1.5965Y-1.5354
X1.628Y-1.5354
X1.6594Y-1.4213
X1.6594Y-1.5512
X1.6988Y-1.563
X1.7303Y-1.4843
X1.7913Y-1.7205
X1.7913Y-1.752
X1.8307Y-1.7717
X1.8307Y-1.8031
X1.8583Y-1.4252
X1.8583Y-1.4567
X2.0039Y-1.8228
X2.0354Y-1.8228
X2.0472Y-1.6575
X2.0472Y-1.689
X2.0472Y-1.7205
X2.0472Y-1.752
X2.0512Y-1.4134
X2.0669Y-1.8228
X2.0709Y-1.3504
X2.0709Y-1.3189
X2.0827Y-1.4134
X2.0866Y-1.6693
X2.0866Y-1.7165
X2.1063Y-1.4016
X2.1339Y-1.4016
X2.1654Y-1.8228
X2.2146Y-1.8228
X2.2598Y-1.9173
X2.2677Y-1.689
X2.2874Y-1.9449
X2.2992Y-1.624
X2.2992Y-1.689
X2.3031Y-1.498
X2.3268Y-1.752
X2.3268Y-1.8169
X2.3543Y-1.689
X2.3858Y-1.689
X2.4311Y-1.8169
X2.4724Y-1.7717
X2.4724Y-1.8031
X2.5157Y-1.7205
X2.5157Y-1.752
X2.5591Y-1.4764
X2.5591Y-1.5118
X2.5591Y-1.624
X2.6378Y-1.4488
X2.6378Y-1.4843
X2.7205Y-1.5906
X2.7205Y-1.626
T2
X1.378Y-1.2748
X1.378Y-1.3748
X1.378Y-1.4748
X1.378Y-1.5748
X1.378Y-1.6748
X1.378Y-1.7748
X1.378Y-1.8748
T3
X1.3878Y-0.9449
X1.3878Y-2.2047
X2.9429Y-0.9449
X2.9429Y-2.2047
T0
M30
