%TF.GenerationSoftware,KiCad,Pcbnew,7.0.6*%
%TF.CreationDate,2023-07-27T19:46:57+01:00*%
%TF.ProjectId,Crenshaw,4372656e-7368-4617-972e-6b696361645f,V2.0*%
%TF.SameCoordinates,Original*%
%TF.FileFunction,Legend,Bot*%
%TF.FilePolarity,Positive*%
%FSLAX46Y46*%
G04 Gerber Fmt 4.6, Leading zero omitted, Abs format (unit mm)*
G04 Created by KiCad (PCBNEW 7.0.6) date 2023-07-27 19:46:57*
%MOMM*%
%LPD*%
G01*
G04 APERTURE LIST*
G04 Aperture macros list*
%AMRoundRect*
0 Rectangle with rounded corners*
0 $1 Rounding radius*
0 $2 $3 $4 $5 $6 $7 $8 $9 X,Y pos of 4 corners*
0 Add a 4 corners polygon primitive as box body*
4,1,4,$2,$3,$4,$5,$6,$7,$8,$9,$2,$3,0*
0 Add four circle primitives for the rounded corners*
1,1,$1+$1,$2,$3*
1,1,$1+$1,$4,$5*
1,1,$1+$1,$6,$7*
1,1,$1+$1,$8,$9*
0 Add four rect primitives between the rounded corners*
20,1,$1+$1,$2,$3,$4,$5,0*
20,1,$1+$1,$4,$5,$6,$7,0*
20,1,$1+$1,$6,$7,$8,$9,0*
20,1,$1+$1,$8,$9,$2,$3,0*%
G04 Aperture macros list end*
%ADD10C,0.120000*%
%ADD11C,0.150000*%
%ADD12C,0.300000*%
%ADD13C,0.200000*%
%ADD14C,0.100000*%
%ADD15R,0.300000X0.800000*%
%ADD16R,0.400000X0.800000*%
%ADD17R,1.700000X1.700000*%
%ADD18O,1.700000X1.700000*%
%ADD19C,4.000000*%
%ADD20C,1.152000*%
%ADD21RoundRect,0.135000X0.135000X0.185000X-0.135000X0.185000X-0.135000X-0.185000X0.135000X-0.185000X0*%
%ADD22RoundRect,0.225000X0.250000X-0.225000X0.250000X0.225000X-0.250000X0.225000X-0.250000X-0.225000X0*%
%ADD23RoundRect,0.112500X0.187500X0.112500X-0.187500X0.112500X-0.187500X-0.112500X0.187500X-0.112500X0*%
%ADD24RoundRect,0.225000X-0.225000X-0.250000X0.225000X-0.250000X0.225000X0.250000X-0.225000X0.250000X0*%
%ADD25R,0.800000X2.700000*%
%ADD26RoundRect,0.150000X0.587500X0.150000X-0.587500X0.150000X-0.587500X-0.150000X0.587500X-0.150000X0*%
%ADD27RoundRect,0.225000X0.225000X0.250000X-0.225000X0.250000X-0.225000X-0.250000X0.225000X-0.250000X0*%
%ADD28RoundRect,0.112500X-0.187500X-0.112500X0.187500X-0.112500X0.187500X0.112500X-0.187500X0.112500X0*%
%ADD29RoundRect,0.140000X0.140000X0.170000X-0.140000X0.170000X-0.140000X-0.170000X0.140000X-0.170000X0*%
%ADD30RoundRect,0.140000X-0.140000X-0.170000X0.140000X-0.170000X0.140000X0.170000X-0.140000X0.170000X0*%
%ADD31RoundRect,0.140000X0.170000X-0.140000X0.170000X0.140000X-0.170000X0.140000X-0.170000X-0.140000X0*%
%ADD32R,1.000000X1.500000*%
%ADD33RoundRect,0.135000X-0.135000X-0.185000X0.135000X-0.185000X0.135000X0.185000X-0.135000X0.185000X0*%
%ADD34R,0.800000X0.300000*%
%ADD35R,0.800000X0.400000*%
%ADD36RoundRect,0.150000X0.512500X0.150000X-0.512500X0.150000X-0.512500X-0.150000X0.512500X-0.150000X0*%
%ADD37RoundRect,0.200000X0.275000X-0.200000X0.275000X0.200000X-0.275000X0.200000X-0.275000X-0.200000X0*%
G04 APERTURE END LIST*
D10*
X51700000Y-43500000D02*
X51900000Y-43300000D01*
X49000000Y-44500000D02*
X49000000Y-42700000D01*
X55900000Y-37550000D02*
X55900000Y-37850000D01*
X61100000Y-37550000D02*
X61100000Y-37850000D01*
X49500000Y-45000000D02*
X49000000Y-44500000D01*
X51900000Y-41500000D02*
X52400000Y-41000000D01*
X49000000Y-42700000D02*
X48800000Y-42500000D01*
X51900000Y-43300000D02*
X51900000Y-41500000D01*
D11*
X56087030Y-39204819D02*
X56563220Y-39204819D01*
X56563220Y-39204819D02*
X56563220Y-38204819D01*
X55753696Y-39204819D02*
X55753696Y-38204819D01*
X55753696Y-38204819D02*
X55515601Y-38204819D01*
X55515601Y-38204819D02*
X55372744Y-38252438D01*
X55372744Y-38252438D02*
X55277506Y-38347676D01*
X55277506Y-38347676D02*
X55229887Y-38442914D01*
X55229887Y-38442914D02*
X55182268Y-38633390D01*
X55182268Y-38633390D02*
X55182268Y-38776247D01*
X55182268Y-38776247D02*
X55229887Y-38966723D01*
X55229887Y-38966723D02*
X55277506Y-39061961D01*
X55277506Y-39061961D02*
X55372744Y-39157200D01*
X55372744Y-39157200D02*
X55515601Y-39204819D01*
X55515601Y-39204819D02*
X55753696Y-39204819D01*
X54563220Y-38204819D02*
X54372744Y-38204819D01*
X54372744Y-38204819D02*
X54277506Y-38252438D01*
X54277506Y-38252438D02*
X54182268Y-38347676D01*
X54182268Y-38347676D02*
X54134649Y-38538152D01*
X54134649Y-38538152D02*
X54134649Y-38871485D01*
X54134649Y-38871485D02*
X54182268Y-39061961D01*
X54182268Y-39061961D02*
X54277506Y-39157200D01*
X54277506Y-39157200D02*
X54372744Y-39204819D01*
X54372744Y-39204819D02*
X54563220Y-39204819D01*
X54563220Y-39204819D02*
X54658458Y-39157200D01*
X54658458Y-39157200D02*
X54753696Y-39061961D01*
X54753696Y-39061961D02*
X54801315Y-38871485D01*
X54801315Y-38871485D02*
X54801315Y-38538152D01*
X54801315Y-38538152D02*
X54753696Y-38347676D01*
X54753696Y-38347676D02*
X54658458Y-38252438D01*
X54658458Y-38252438D02*
X54563220Y-38204819D01*
D12*
X64428572Y-31919161D02*
X64523810Y-32014400D01*
X64523810Y-32014400D02*
X64809524Y-32109638D01*
X64809524Y-32109638D02*
X65000000Y-32109638D01*
X65000000Y-32109638D02*
X65285715Y-32014400D01*
X65285715Y-32014400D02*
X65476191Y-31823923D01*
X65476191Y-31823923D02*
X65571429Y-31633447D01*
X65571429Y-31633447D02*
X65666667Y-31252495D01*
X65666667Y-31252495D02*
X65666667Y-30966780D01*
X65666667Y-30966780D02*
X65571429Y-30585828D01*
X65571429Y-30585828D02*
X65476191Y-30395352D01*
X65476191Y-30395352D02*
X65285715Y-30204876D01*
X65285715Y-30204876D02*
X65000000Y-30109638D01*
X65000000Y-30109638D02*
X64809524Y-30109638D01*
X64809524Y-30109638D02*
X64523810Y-30204876D01*
X64523810Y-30204876D02*
X64428572Y-30300114D01*
X63571429Y-32109638D02*
X63571429Y-30776304D01*
X63571429Y-31157257D02*
X63476191Y-30966780D01*
X63476191Y-30966780D02*
X63380953Y-30871542D01*
X63380953Y-30871542D02*
X63190477Y-30776304D01*
X63190477Y-30776304D02*
X63000000Y-30776304D01*
X61571429Y-32014400D02*
X61761905Y-32109638D01*
X61761905Y-32109638D02*
X62142858Y-32109638D01*
X62142858Y-32109638D02*
X62333334Y-32014400D01*
X62333334Y-32014400D02*
X62428572Y-31823923D01*
X62428572Y-31823923D02*
X62428572Y-31062019D01*
X62428572Y-31062019D02*
X62333334Y-30871542D01*
X62333334Y-30871542D02*
X62142858Y-30776304D01*
X62142858Y-30776304D02*
X61761905Y-30776304D01*
X61761905Y-30776304D02*
X61571429Y-30871542D01*
X61571429Y-30871542D02*
X61476191Y-31062019D01*
X61476191Y-31062019D02*
X61476191Y-31252495D01*
X61476191Y-31252495D02*
X62428572Y-31442971D01*
X60619048Y-30776304D02*
X60619048Y-32109638D01*
X60619048Y-30966780D02*
X60523810Y-30871542D01*
X60523810Y-30871542D02*
X60333334Y-30776304D01*
X60333334Y-30776304D02*
X60047619Y-30776304D01*
X60047619Y-30776304D02*
X59857143Y-30871542D01*
X59857143Y-30871542D02*
X59761905Y-31062019D01*
X59761905Y-31062019D02*
X59761905Y-32109638D01*
X58904762Y-32014400D02*
X58714286Y-32109638D01*
X58714286Y-32109638D02*
X58333334Y-32109638D01*
X58333334Y-32109638D02*
X58142857Y-32014400D01*
X58142857Y-32014400D02*
X58047619Y-31823923D01*
X58047619Y-31823923D02*
X58047619Y-31728685D01*
X58047619Y-31728685D02*
X58142857Y-31538209D01*
X58142857Y-31538209D02*
X58333334Y-31442971D01*
X58333334Y-31442971D02*
X58619048Y-31442971D01*
X58619048Y-31442971D02*
X58809524Y-31347733D01*
X58809524Y-31347733D02*
X58904762Y-31157257D01*
X58904762Y-31157257D02*
X58904762Y-31062019D01*
X58904762Y-31062019D02*
X58809524Y-30871542D01*
X58809524Y-30871542D02*
X58619048Y-30776304D01*
X58619048Y-30776304D02*
X58333334Y-30776304D01*
X58333334Y-30776304D02*
X58142857Y-30871542D01*
X57190476Y-32109638D02*
X57190476Y-30109638D01*
X56333333Y-32109638D02*
X56333333Y-31062019D01*
X56333333Y-31062019D02*
X56428571Y-30871542D01*
X56428571Y-30871542D02*
X56619047Y-30776304D01*
X56619047Y-30776304D02*
X56904762Y-30776304D01*
X56904762Y-30776304D02*
X57095238Y-30871542D01*
X57095238Y-30871542D02*
X57190476Y-30966780D01*
X54523809Y-32109638D02*
X54523809Y-31062019D01*
X54523809Y-31062019D02*
X54619047Y-30871542D01*
X54619047Y-30871542D02*
X54809523Y-30776304D01*
X54809523Y-30776304D02*
X55190476Y-30776304D01*
X55190476Y-30776304D02*
X55380952Y-30871542D01*
X54523809Y-32014400D02*
X54714285Y-32109638D01*
X54714285Y-32109638D02*
X55190476Y-32109638D01*
X55190476Y-32109638D02*
X55380952Y-32014400D01*
X55380952Y-32014400D02*
X55476190Y-31823923D01*
X55476190Y-31823923D02*
X55476190Y-31633447D01*
X55476190Y-31633447D02*
X55380952Y-31442971D01*
X55380952Y-31442971D02*
X55190476Y-31347733D01*
X55190476Y-31347733D02*
X54714285Y-31347733D01*
X54714285Y-31347733D02*
X54523809Y-31252495D01*
X53761904Y-30776304D02*
X53380952Y-32109638D01*
X53380952Y-32109638D02*
X52999999Y-31157257D01*
X52999999Y-31157257D02*
X52619047Y-32109638D01*
X52619047Y-32109638D02*
X52238095Y-30776304D01*
X50238094Y-30109638D02*
X49571428Y-32109638D01*
X49571428Y-32109638D02*
X48904761Y-30109638D01*
X48333332Y-30300114D02*
X48238094Y-30204876D01*
X48238094Y-30204876D02*
X48047618Y-30109638D01*
X48047618Y-30109638D02*
X47571427Y-30109638D01*
X47571427Y-30109638D02*
X47380951Y-30204876D01*
X47380951Y-30204876D02*
X47285713Y-30300114D01*
X47285713Y-30300114D02*
X47190475Y-30490590D01*
X47190475Y-30490590D02*
X47190475Y-30681066D01*
X47190475Y-30681066D02*
X47285713Y-30966780D01*
X47285713Y-30966780D02*
X48428570Y-32109638D01*
X48428570Y-32109638D02*
X47190475Y-32109638D01*
X46333332Y-31919161D02*
X46238094Y-32014400D01*
X46238094Y-32014400D02*
X46333332Y-32109638D01*
X46333332Y-32109638D02*
X46428570Y-32014400D01*
X46428570Y-32014400D02*
X46333332Y-31919161D01*
X46333332Y-31919161D02*
X46333332Y-32109638D01*
X44999999Y-30109638D02*
X44809522Y-30109638D01*
X44809522Y-30109638D02*
X44619046Y-30204876D01*
X44619046Y-30204876D02*
X44523808Y-30300114D01*
X44523808Y-30300114D02*
X44428570Y-30490590D01*
X44428570Y-30490590D02*
X44333332Y-30871542D01*
X44333332Y-30871542D02*
X44333332Y-31347733D01*
X44333332Y-31347733D02*
X44428570Y-31728685D01*
X44428570Y-31728685D02*
X44523808Y-31919161D01*
X44523808Y-31919161D02*
X44619046Y-32014400D01*
X44619046Y-32014400D02*
X44809522Y-32109638D01*
X44809522Y-32109638D02*
X44999999Y-32109638D01*
X44999999Y-32109638D02*
X45190475Y-32014400D01*
X45190475Y-32014400D02*
X45285713Y-31919161D01*
X45285713Y-31919161D02*
X45380951Y-31728685D01*
X45380951Y-31728685D02*
X45476189Y-31347733D01*
X45476189Y-31347733D02*
X45476189Y-30871542D01*
X45476189Y-30871542D02*
X45380951Y-30490590D01*
X45380951Y-30490590D02*
X45285713Y-30300114D01*
X45285713Y-30300114D02*
X45190475Y-30204876D01*
X45190475Y-30204876D02*
X44999999Y-30109638D01*
D11*
X59738094Y-38204819D02*
X59119047Y-38204819D01*
X59119047Y-38204819D02*
X59452380Y-38585771D01*
X59452380Y-38585771D02*
X59309523Y-38585771D01*
X59309523Y-38585771D02*
X59214285Y-38633390D01*
X59214285Y-38633390D02*
X59166666Y-38681009D01*
X59166666Y-38681009D02*
X59119047Y-38776247D01*
X59119047Y-38776247D02*
X59119047Y-39014342D01*
X59119047Y-39014342D02*
X59166666Y-39109580D01*
X59166666Y-39109580D02*
X59214285Y-39157200D01*
X59214285Y-39157200D02*
X59309523Y-39204819D01*
X59309523Y-39204819D02*
X59595237Y-39204819D01*
X59595237Y-39204819D02*
X59690475Y-39157200D01*
X59690475Y-39157200D02*
X59738094Y-39109580D01*
X58833332Y-38204819D02*
X58499999Y-39204819D01*
X58499999Y-39204819D02*
X58166666Y-38204819D01*
X57928570Y-38204819D02*
X57309523Y-38204819D01*
X57309523Y-38204819D02*
X57642856Y-38585771D01*
X57642856Y-38585771D02*
X57499999Y-38585771D01*
X57499999Y-38585771D02*
X57404761Y-38633390D01*
X57404761Y-38633390D02*
X57357142Y-38681009D01*
X57357142Y-38681009D02*
X57309523Y-38776247D01*
X57309523Y-38776247D02*
X57309523Y-39014342D01*
X57309523Y-39014342D02*
X57357142Y-39109580D01*
X57357142Y-39109580D02*
X57404761Y-39157200D01*
X57404761Y-39157200D02*
X57499999Y-39204819D01*
X57499999Y-39204819D02*
X57785713Y-39204819D01*
X57785713Y-39204819D02*
X57880951Y-39157200D01*
X57880951Y-39157200D02*
X57928570Y-39109580D01*
X62436778Y-38204819D02*
X62103445Y-39204819D01*
X62103445Y-39204819D02*
X61770112Y-38204819D01*
X61436778Y-39204819D02*
X61436778Y-38204819D01*
X60960588Y-39204819D02*
X60960588Y-38204819D01*
X60389160Y-39204819D02*
X60817731Y-38633390D01*
X60389160Y-38204819D02*
X60960588Y-38776247D01*
X65033333Y-49054819D02*
X65033333Y-49769104D01*
X65033333Y-49769104D02*
X65080952Y-49911961D01*
X65080952Y-49911961D02*
X65176190Y-50007200D01*
X65176190Y-50007200D02*
X65319047Y-50054819D01*
X65319047Y-50054819D02*
X65414285Y-50054819D01*
X64604761Y-49150057D02*
X64557142Y-49102438D01*
X64557142Y-49102438D02*
X64461904Y-49054819D01*
X64461904Y-49054819D02*
X64223809Y-49054819D01*
X64223809Y-49054819D02*
X64128571Y-49102438D01*
X64128571Y-49102438D02*
X64080952Y-49150057D01*
X64080952Y-49150057D02*
X64033333Y-49245295D01*
X64033333Y-49245295D02*
X64033333Y-49340533D01*
X64033333Y-49340533D02*
X64080952Y-49483390D01*
X64080952Y-49483390D02*
X64652380Y-50054819D01*
X64652380Y-50054819D02*
X64033333Y-50054819D01*
X48066666Y-42354819D02*
X48399999Y-41878628D01*
X48638094Y-42354819D02*
X48638094Y-41354819D01*
X48638094Y-41354819D02*
X48257142Y-41354819D01*
X48257142Y-41354819D02*
X48161904Y-41402438D01*
X48161904Y-41402438D02*
X48114285Y-41450057D01*
X48114285Y-41450057D02*
X48066666Y-41545295D01*
X48066666Y-41545295D02*
X48066666Y-41688152D01*
X48066666Y-41688152D02*
X48114285Y-41783390D01*
X48114285Y-41783390D02*
X48161904Y-41831009D01*
X48161904Y-41831009D02*
X48257142Y-41878628D01*
X48257142Y-41878628D02*
X48638094Y-41878628D01*
X47114285Y-42354819D02*
X47685713Y-42354819D01*
X47399999Y-42354819D02*
X47399999Y-41354819D01*
X47399999Y-41354819D02*
X47495237Y-41497676D01*
X47495237Y-41497676D02*
X47590475Y-41592914D01*
X47590475Y-41592914D02*
X47685713Y-41640533D01*
X42416666Y-42854819D02*
X42749999Y-42378628D01*
X42988094Y-42854819D02*
X42988094Y-41854819D01*
X42988094Y-41854819D02*
X42607142Y-41854819D01*
X42607142Y-41854819D02*
X42511904Y-41902438D01*
X42511904Y-41902438D02*
X42464285Y-41950057D01*
X42464285Y-41950057D02*
X42416666Y-42045295D01*
X42416666Y-42045295D02*
X42416666Y-42188152D01*
X42416666Y-42188152D02*
X42464285Y-42283390D01*
X42464285Y-42283390D02*
X42511904Y-42331009D01*
X42511904Y-42331009D02*
X42607142Y-42378628D01*
X42607142Y-42378628D02*
X42988094Y-42378628D01*
X41511904Y-41854819D02*
X41988094Y-41854819D01*
X41988094Y-41854819D02*
X42035713Y-42331009D01*
X42035713Y-42331009D02*
X41988094Y-42283390D01*
X41988094Y-42283390D02*
X41892856Y-42235771D01*
X41892856Y-42235771D02*
X41654761Y-42235771D01*
X41654761Y-42235771D02*
X41559523Y-42283390D01*
X41559523Y-42283390D02*
X41511904Y-42331009D01*
X41511904Y-42331009D02*
X41464285Y-42426247D01*
X41464285Y-42426247D02*
X41464285Y-42664342D01*
X41464285Y-42664342D02*
X41511904Y-42759580D01*
X41511904Y-42759580D02*
X41559523Y-42807200D01*
X41559523Y-42807200D02*
X41654761Y-42854819D01*
X41654761Y-42854819D02*
X41892856Y-42854819D01*
X41892856Y-42854819D02*
X41988094Y-42807200D01*
X41988094Y-42807200D02*
X42035713Y-42759580D01*
X39066666Y-36959580D02*
X39114285Y-37007200D01*
X39114285Y-37007200D02*
X39257142Y-37054819D01*
X39257142Y-37054819D02*
X39352380Y-37054819D01*
X39352380Y-37054819D02*
X39495237Y-37007200D01*
X39495237Y-37007200D02*
X39590475Y-36911961D01*
X39590475Y-36911961D02*
X39638094Y-36816723D01*
X39638094Y-36816723D02*
X39685713Y-36626247D01*
X39685713Y-36626247D02*
X39685713Y-36483390D01*
X39685713Y-36483390D02*
X39638094Y-36292914D01*
X39638094Y-36292914D02*
X39590475Y-36197676D01*
X39590475Y-36197676D02*
X39495237Y-36102438D01*
X39495237Y-36102438D02*
X39352380Y-36054819D01*
X39352380Y-36054819D02*
X39257142Y-36054819D01*
X39257142Y-36054819D02*
X39114285Y-36102438D01*
X39114285Y-36102438D02*
X39066666Y-36150057D01*
X38495237Y-36483390D02*
X38590475Y-36435771D01*
X38590475Y-36435771D02*
X38638094Y-36388152D01*
X38638094Y-36388152D02*
X38685713Y-36292914D01*
X38685713Y-36292914D02*
X38685713Y-36245295D01*
X38685713Y-36245295D02*
X38638094Y-36150057D01*
X38638094Y-36150057D02*
X38590475Y-36102438D01*
X38590475Y-36102438D02*
X38495237Y-36054819D01*
X38495237Y-36054819D02*
X38304761Y-36054819D01*
X38304761Y-36054819D02*
X38209523Y-36102438D01*
X38209523Y-36102438D02*
X38161904Y-36150057D01*
X38161904Y-36150057D02*
X38114285Y-36245295D01*
X38114285Y-36245295D02*
X38114285Y-36292914D01*
X38114285Y-36292914D02*
X38161904Y-36388152D01*
X38161904Y-36388152D02*
X38209523Y-36435771D01*
X38209523Y-36435771D02*
X38304761Y-36483390D01*
X38304761Y-36483390D02*
X38495237Y-36483390D01*
X38495237Y-36483390D02*
X38590475Y-36531009D01*
X38590475Y-36531009D02*
X38638094Y-36578628D01*
X38638094Y-36578628D02*
X38685713Y-36673866D01*
X38685713Y-36673866D02*
X38685713Y-36864342D01*
X38685713Y-36864342D02*
X38638094Y-36959580D01*
X38638094Y-36959580D02*
X38590475Y-37007200D01*
X38590475Y-37007200D02*
X38495237Y-37054819D01*
X38495237Y-37054819D02*
X38304761Y-37054819D01*
X38304761Y-37054819D02*
X38209523Y-37007200D01*
X38209523Y-37007200D02*
X38161904Y-36959580D01*
X38161904Y-36959580D02*
X38114285Y-36864342D01*
X38114285Y-36864342D02*
X38114285Y-36673866D01*
X38114285Y-36673866D02*
X38161904Y-36578628D01*
X38161904Y-36578628D02*
X38209523Y-36531009D01*
X38209523Y-36531009D02*
X38304761Y-36483390D01*
X45988094Y-34754819D02*
X45988094Y-33754819D01*
X45988094Y-33754819D02*
X45749999Y-33754819D01*
X45749999Y-33754819D02*
X45607142Y-33802438D01*
X45607142Y-33802438D02*
X45511904Y-33897676D01*
X45511904Y-33897676D02*
X45464285Y-33992914D01*
X45464285Y-33992914D02*
X45416666Y-34183390D01*
X45416666Y-34183390D02*
X45416666Y-34326247D01*
X45416666Y-34326247D02*
X45464285Y-34516723D01*
X45464285Y-34516723D02*
X45511904Y-34611961D01*
X45511904Y-34611961D02*
X45607142Y-34707200D01*
X45607142Y-34707200D02*
X45749999Y-34754819D01*
X45749999Y-34754819D02*
X45988094Y-34754819D01*
X45083332Y-33754819D02*
X44464285Y-33754819D01*
X44464285Y-33754819D02*
X44797618Y-34135771D01*
X44797618Y-34135771D02*
X44654761Y-34135771D01*
X44654761Y-34135771D02*
X44559523Y-34183390D01*
X44559523Y-34183390D02*
X44511904Y-34231009D01*
X44511904Y-34231009D02*
X44464285Y-34326247D01*
X44464285Y-34326247D02*
X44464285Y-34564342D01*
X44464285Y-34564342D02*
X44511904Y-34659580D01*
X44511904Y-34659580D02*
X44559523Y-34707200D01*
X44559523Y-34707200D02*
X44654761Y-34754819D01*
X44654761Y-34754819D02*
X44940475Y-34754819D01*
X44940475Y-34754819D02*
X45035713Y-34707200D01*
X45035713Y-34707200D02*
X45083332Y-34659580D01*
X50566666Y-41559580D02*
X50614285Y-41607200D01*
X50614285Y-41607200D02*
X50757142Y-41654819D01*
X50757142Y-41654819D02*
X50852380Y-41654819D01*
X50852380Y-41654819D02*
X50995237Y-41607200D01*
X50995237Y-41607200D02*
X51090475Y-41511961D01*
X51090475Y-41511961D02*
X51138094Y-41416723D01*
X51138094Y-41416723D02*
X51185713Y-41226247D01*
X51185713Y-41226247D02*
X51185713Y-41083390D01*
X51185713Y-41083390D02*
X51138094Y-40892914D01*
X51138094Y-40892914D02*
X51090475Y-40797676D01*
X51090475Y-40797676D02*
X50995237Y-40702438D01*
X50995237Y-40702438D02*
X50852380Y-40654819D01*
X50852380Y-40654819D02*
X50757142Y-40654819D01*
X50757142Y-40654819D02*
X50614285Y-40702438D01*
X50614285Y-40702438D02*
X50566666Y-40750057D01*
X50233332Y-40654819D02*
X49614285Y-40654819D01*
X49614285Y-40654819D02*
X49947618Y-41035771D01*
X49947618Y-41035771D02*
X49804761Y-41035771D01*
X49804761Y-41035771D02*
X49709523Y-41083390D01*
X49709523Y-41083390D02*
X49661904Y-41131009D01*
X49661904Y-41131009D02*
X49614285Y-41226247D01*
X49614285Y-41226247D02*
X49614285Y-41464342D01*
X49614285Y-41464342D02*
X49661904Y-41559580D01*
X49661904Y-41559580D02*
X49709523Y-41607200D01*
X49709523Y-41607200D02*
X49804761Y-41654819D01*
X49804761Y-41654819D02*
X50090475Y-41654819D01*
X50090475Y-41654819D02*
X50185713Y-41607200D01*
X50185713Y-41607200D02*
X50233332Y-41559580D01*
X41916666Y-33154819D02*
X42392856Y-33154819D01*
X42392856Y-33154819D02*
X42392856Y-32154819D01*
X41059523Y-33154819D02*
X41630951Y-33154819D01*
X41345237Y-33154819D02*
X41345237Y-32154819D01*
X41345237Y-32154819D02*
X41440475Y-32297676D01*
X41440475Y-32297676D02*
X41535713Y-32392914D01*
X41535713Y-32392914D02*
X41630951Y-32440533D01*
X52161905Y-38054819D02*
X52161905Y-38864342D01*
X52161905Y-38864342D02*
X52114286Y-38959580D01*
X52114286Y-38959580D02*
X52066667Y-39007200D01*
X52066667Y-39007200D02*
X51971429Y-39054819D01*
X51971429Y-39054819D02*
X51780953Y-39054819D01*
X51780953Y-39054819D02*
X51685715Y-39007200D01*
X51685715Y-39007200D02*
X51638096Y-38959580D01*
X51638096Y-38959580D02*
X51590477Y-38864342D01*
X51590477Y-38864342D02*
X51590477Y-38054819D01*
X51161905Y-38150057D02*
X51114286Y-38102438D01*
X51114286Y-38102438D02*
X51019048Y-38054819D01*
X51019048Y-38054819D02*
X50780953Y-38054819D01*
X50780953Y-38054819D02*
X50685715Y-38102438D01*
X50685715Y-38102438D02*
X50638096Y-38150057D01*
X50638096Y-38150057D02*
X50590477Y-38245295D01*
X50590477Y-38245295D02*
X50590477Y-38340533D01*
X50590477Y-38340533D02*
X50638096Y-38483390D01*
X50638096Y-38483390D02*
X51209524Y-39054819D01*
X51209524Y-39054819D02*
X50590477Y-39054819D01*
X45066666Y-44459580D02*
X45114285Y-44507200D01*
X45114285Y-44507200D02*
X45257142Y-44554819D01*
X45257142Y-44554819D02*
X45352380Y-44554819D01*
X45352380Y-44554819D02*
X45495237Y-44507200D01*
X45495237Y-44507200D02*
X45590475Y-44411961D01*
X45590475Y-44411961D02*
X45638094Y-44316723D01*
X45638094Y-44316723D02*
X45685713Y-44126247D01*
X45685713Y-44126247D02*
X45685713Y-43983390D01*
X45685713Y-43983390D02*
X45638094Y-43792914D01*
X45638094Y-43792914D02*
X45590475Y-43697676D01*
X45590475Y-43697676D02*
X45495237Y-43602438D01*
X45495237Y-43602438D02*
X45352380Y-43554819D01*
X45352380Y-43554819D02*
X45257142Y-43554819D01*
X45257142Y-43554819D02*
X45114285Y-43602438D01*
X45114285Y-43602438D02*
X45066666Y-43650057D01*
X44685713Y-43650057D02*
X44638094Y-43602438D01*
X44638094Y-43602438D02*
X44542856Y-43554819D01*
X44542856Y-43554819D02*
X44304761Y-43554819D01*
X44304761Y-43554819D02*
X44209523Y-43602438D01*
X44209523Y-43602438D02*
X44161904Y-43650057D01*
X44161904Y-43650057D02*
X44114285Y-43745295D01*
X44114285Y-43745295D02*
X44114285Y-43840533D01*
X44114285Y-43840533D02*
X44161904Y-43983390D01*
X44161904Y-43983390D02*
X44733332Y-44554819D01*
X44733332Y-44554819D02*
X44114285Y-44554819D01*
X57238094Y-43454819D02*
X57238094Y-42454819D01*
X57238094Y-42454819D02*
X56999999Y-42454819D01*
X56999999Y-42454819D02*
X56857142Y-42502438D01*
X56857142Y-42502438D02*
X56761904Y-42597676D01*
X56761904Y-42597676D02*
X56714285Y-42692914D01*
X56714285Y-42692914D02*
X56666666Y-42883390D01*
X56666666Y-42883390D02*
X56666666Y-43026247D01*
X56666666Y-43026247D02*
X56714285Y-43216723D01*
X56714285Y-43216723D02*
X56761904Y-43311961D01*
X56761904Y-43311961D02*
X56857142Y-43407200D01*
X56857142Y-43407200D02*
X56999999Y-43454819D01*
X56999999Y-43454819D02*
X57238094Y-43454819D01*
X56285713Y-42550057D02*
X56238094Y-42502438D01*
X56238094Y-42502438D02*
X56142856Y-42454819D01*
X56142856Y-42454819D02*
X55904761Y-42454819D01*
X55904761Y-42454819D02*
X55809523Y-42502438D01*
X55809523Y-42502438D02*
X55761904Y-42550057D01*
X55761904Y-42550057D02*
X55714285Y-42645295D01*
X55714285Y-42645295D02*
X55714285Y-42740533D01*
X55714285Y-42740533D02*
X55761904Y-42883390D01*
X55761904Y-42883390D02*
X56333332Y-43454819D01*
X56333332Y-43454819D02*
X55714285Y-43454819D01*
X45866666Y-45759580D02*
X45914285Y-45807200D01*
X45914285Y-45807200D02*
X46057142Y-45854819D01*
X46057142Y-45854819D02*
X46152380Y-45854819D01*
X46152380Y-45854819D02*
X46295237Y-45807200D01*
X46295237Y-45807200D02*
X46390475Y-45711961D01*
X46390475Y-45711961D02*
X46438094Y-45616723D01*
X46438094Y-45616723D02*
X46485713Y-45426247D01*
X46485713Y-45426247D02*
X46485713Y-45283390D01*
X46485713Y-45283390D02*
X46438094Y-45092914D01*
X46438094Y-45092914D02*
X46390475Y-44997676D01*
X46390475Y-44997676D02*
X46295237Y-44902438D01*
X46295237Y-44902438D02*
X46152380Y-44854819D01*
X46152380Y-44854819D02*
X46057142Y-44854819D01*
X46057142Y-44854819D02*
X45914285Y-44902438D01*
X45914285Y-44902438D02*
X45866666Y-44950057D01*
X44914285Y-45854819D02*
X45485713Y-45854819D01*
X45199999Y-45854819D02*
X45199999Y-44854819D01*
X45199999Y-44854819D02*
X45295237Y-44997676D01*
X45295237Y-44997676D02*
X45390475Y-45092914D01*
X45390475Y-45092914D02*
X45485713Y-45140533D01*
X53466666Y-40759580D02*
X53514285Y-40807200D01*
X53514285Y-40807200D02*
X53657142Y-40854819D01*
X53657142Y-40854819D02*
X53752380Y-40854819D01*
X53752380Y-40854819D02*
X53895237Y-40807200D01*
X53895237Y-40807200D02*
X53990475Y-40711961D01*
X53990475Y-40711961D02*
X54038094Y-40616723D01*
X54038094Y-40616723D02*
X54085713Y-40426247D01*
X54085713Y-40426247D02*
X54085713Y-40283390D01*
X54085713Y-40283390D02*
X54038094Y-40092914D01*
X54038094Y-40092914D02*
X53990475Y-39997676D01*
X53990475Y-39997676D02*
X53895237Y-39902438D01*
X53895237Y-39902438D02*
X53752380Y-39854819D01*
X53752380Y-39854819D02*
X53657142Y-39854819D01*
X53657142Y-39854819D02*
X53514285Y-39902438D01*
X53514285Y-39902438D02*
X53466666Y-39950057D01*
X52609523Y-40188152D02*
X52609523Y-40854819D01*
X52847618Y-39807200D02*
X53085713Y-40521485D01*
X53085713Y-40521485D02*
X52466666Y-40521485D01*
X64766666Y-44459580D02*
X64814285Y-44507200D01*
X64814285Y-44507200D02*
X64957142Y-44554819D01*
X64957142Y-44554819D02*
X65052380Y-44554819D01*
X65052380Y-44554819D02*
X65195237Y-44507200D01*
X65195237Y-44507200D02*
X65290475Y-44411961D01*
X65290475Y-44411961D02*
X65338094Y-44316723D01*
X65338094Y-44316723D02*
X65385713Y-44126247D01*
X65385713Y-44126247D02*
X65385713Y-43983390D01*
X65385713Y-43983390D02*
X65338094Y-43792914D01*
X65338094Y-43792914D02*
X65290475Y-43697676D01*
X65290475Y-43697676D02*
X65195237Y-43602438D01*
X65195237Y-43602438D02*
X65052380Y-43554819D01*
X65052380Y-43554819D02*
X64957142Y-43554819D01*
X64957142Y-43554819D02*
X64814285Y-43602438D01*
X64814285Y-43602438D02*
X64766666Y-43650057D01*
X64433332Y-43554819D02*
X63766666Y-43554819D01*
X63766666Y-43554819D02*
X64195237Y-44554819D01*
X57238094Y-45454819D02*
X57238094Y-44454819D01*
X57238094Y-44454819D02*
X56999999Y-44454819D01*
X56999999Y-44454819D02*
X56857142Y-44502438D01*
X56857142Y-44502438D02*
X56761904Y-44597676D01*
X56761904Y-44597676D02*
X56714285Y-44692914D01*
X56714285Y-44692914D02*
X56666666Y-44883390D01*
X56666666Y-44883390D02*
X56666666Y-45026247D01*
X56666666Y-45026247D02*
X56714285Y-45216723D01*
X56714285Y-45216723D02*
X56761904Y-45311961D01*
X56761904Y-45311961D02*
X56857142Y-45407200D01*
X56857142Y-45407200D02*
X56999999Y-45454819D01*
X56999999Y-45454819D02*
X57238094Y-45454819D01*
X55714285Y-45454819D02*
X56285713Y-45454819D01*
X55999999Y-45454819D02*
X55999999Y-44454819D01*
X55999999Y-44454819D02*
X56095237Y-44597676D01*
X56095237Y-44597676D02*
X56190475Y-44692914D01*
X56190475Y-44692914D02*
X56285713Y-44740533D01*
X47666666Y-40559580D02*
X47714285Y-40607200D01*
X47714285Y-40607200D02*
X47857142Y-40654819D01*
X47857142Y-40654819D02*
X47952380Y-40654819D01*
X47952380Y-40654819D02*
X48095237Y-40607200D01*
X48095237Y-40607200D02*
X48190475Y-40511961D01*
X48190475Y-40511961D02*
X48238094Y-40416723D01*
X48238094Y-40416723D02*
X48285713Y-40226247D01*
X48285713Y-40226247D02*
X48285713Y-40083390D01*
X48285713Y-40083390D02*
X48238094Y-39892914D01*
X48238094Y-39892914D02*
X48190475Y-39797676D01*
X48190475Y-39797676D02*
X48095237Y-39702438D01*
X48095237Y-39702438D02*
X47952380Y-39654819D01*
X47952380Y-39654819D02*
X47857142Y-39654819D01*
X47857142Y-39654819D02*
X47714285Y-39702438D01*
X47714285Y-39702438D02*
X47666666Y-39750057D01*
X47190475Y-40654819D02*
X46999999Y-40654819D01*
X46999999Y-40654819D02*
X46904761Y-40607200D01*
X46904761Y-40607200D02*
X46857142Y-40559580D01*
X46857142Y-40559580D02*
X46761904Y-40416723D01*
X46761904Y-40416723D02*
X46714285Y-40226247D01*
X46714285Y-40226247D02*
X46714285Y-39845295D01*
X46714285Y-39845295D02*
X46761904Y-39750057D01*
X46761904Y-39750057D02*
X46809523Y-39702438D01*
X46809523Y-39702438D02*
X46904761Y-39654819D01*
X46904761Y-39654819D02*
X47095237Y-39654819D01*
X47095237Y-39654819D02*
X47190475Y-39702438D01*
X47190475Y-39702438D02*
X47238094Y-39750057D01*
X47238094Y-39750057D02*
X47285713Y-39845295D01*
X47285713Y-39845295D02*
X47285713Y-40083390D01*
X47285713Y-40083390D02*
X47238094Y-40178628D01*
X47238094Y-40178628D02*
X47190475Y-40226247D01*
X47190475Y-40226247D02*
X47095237Y-40273866D01*
X47095237Y-40273866D02*
X46904761Y-40273866D01*
X46904761Y-40273866D02*
X46809523Y-40226247D01*
X46809523Y-40226247D02*
X46761904Y-40178628D01*
X46761904Y-40178628D02*
X46714285Y-40083390D01*
X60866666Y-42859580D02*
X60914285Y-42907200D01*
X60914285Y-42907200D02*
X61057142Y-42954819D01*
X61057142Y-42954819D02*
X61152380Y-42954819D01*
X61152380Y-42954819D02*
X61295237Y-42907200D01*
X61295237Y-42907200D02*
X61390475Y-42811961D01*
X61390475Y-42811961D02*
X61438094Y-42716723D01*
X61438094Y-42716723D02*
X61485713Y-42526247D01*
X61485713Y-42526247D02*
X61485713Y-42383390D01*
X61485713Y-42383390D02*
X61438094Y-42192914D01*
X61438094Y-42192914D02*
X61390475Y-42097676D01*
X61390475Y-42097676D02*
X61295237Y-42002438D01*
X61295237Y-42002438D02*
X61152380Y-41954819D01*
X61152380Y-41954819D02*
X61057142Y-41954819D01*
X61057142Y-41954819D02*
X60914285Y-42002438D01*
X60914285Y-42002438D02*
X60866666Y-42050057D01*
X59961904Y-41954819D02*
X60438094Y-41954819D01*
X60438094Y-41954819D02*
X60485713Y-42431009D01*
X60485713Y-42431009D02*
X60438094Y-42383390D01*
X60438094Y-42383390D02*
X60342856Y-42335771D01*
X60342856Y-42335771D02*
X60104761Y-42335771D01*
X60104761Y-42335771D02*
X60009523Y-42383390D01*
X60009523Y-42383390D02*
X59961904Y-42431009D01*
X59961904Y-42431009D02*
X59914285Y-42526247D01*
X59914285Y-42526247D02*
X59914285Y-42764342D01*
X59914285Y-42764342D02*
X59961904Y-42859580D01*
X59961904Y-42859580D02*
X60009523Y-42907200D01*
X60009523Y-42907200D02*
X60104761Y-42954819D01*
X60104761Y-42954819D02*
X60342856Y-42954819D01*
X60342856Y-42954819D02*
X60438094Y-42907200D01*
X60438094Y-42907200D02*
X60485713Y-42859580D01*
X55242858Y-34959580D02*
X55290477Y-35007200D01*
X55290477Y-35007200D02*
X55433334Y-35054819D01*
X55433334Y-35054819D02*
X55528572Y-35054819D01*
X55528572Y-35054819D02*
X55671429Y-35007200D01*
X55671429Y-35007200D02*
X55766667Y-34911961D01*
X55766667Y-34911961D02*
X55814286Y-34816723D01*
X55814286Y-34816723D02*
X55861905Y-34626247D01*
X55861905Y-34626247D02*
X55861905Y-34483390D01*
X55861905Y-34483390D02*
X55814286Y-34292914D01*
X55814286Y-34292914D02*
X55766667Y-34197676D01*
X55766667Y-34197676D02*
X55671429Y-34102438D01*
X55671429Y-34102438D02*
X55528572Y-34054819D01*
X55528572Y-34054819D02*
X55433334Y-34054819D01*
X55433334Y-34054819D02*
X55290477Y-34102438D01*
X55290477Y-34102438D02*
X55242858Y-34150057D01*
X54290477Y-35054819D02*
X54861905Y-35054819D01*
X54576191Y-35054819D02*
X54576191Y-34054819D01*
X54576191Y-34054819D02*
X54671429Y-34197676D01*
X54671429Y-34197676D02*
X54766667Y-34292914D01*
X54766667Y-34292914D02*
X54861905Y-34340533D01*
X53909524Y-34150057D02*
X53861905Y-34102438D01*
X53861905Y-34102438D02*
X53766667Y-34054819D01*
X53766667Y-34054819D02*
X53528572Y-34054819D01*
X53528572Y-34054819D02*
X53433334Y-34102438D01*
X53433334Y-34102438D02*
X53385715Y-34150057D01*
X53385715Y-34150057D02*
X53338096Y-34245295D01*
X53338096Y-34245295D02*
X53338096Y-34340533D01*
X53338096Y-34340533D02*
X53385715Y-34483390D01*
X53385715Y-34483390D02*
X53957143Y-35054819D01*
X53957143Y-35054819D02*
X53338096Y-35054819D01*
X46042857Y-37959580D02*
X46090476Y-38007200D01*
X46090476Y-38007200D02*
X46233333Y-38054819D01*
X46233333Y-38054819D02*
X46328571Y-38054819D01*
X46328571Y-38054819D02*
X46471428Y-38007200D01*
X46471428Y-38007200D02*
X46566666Y-37911961D01*
X46566666Y-37911961D02*
X46614285Y-37816723D01*
X46614285Y-37816723D02*
X46661904Y-37626247D01*
X46661904Y-37626247D02*
X46661904Y-37483390D01*
X46661904Y-37483390D02*
X46614285Y-37292914D01*
X46614285Y-37292914D02*
X46566666Y-37197676D01*
X46566666Y-37197676D02*
X46471428Y-37102438D01*
X46471428Y-37102438D02*
X46328571Y-37054819D01*
X46328571Y-37054819D02*
X46233333Y-37054819D01*
X46233333Y-37054819D02*
X46090476Y-37102438D01*
X46090476Y-37102438D02*
X46042857Y-37150057D01*
X45090476Y-38054819D02*
X45661904Y-38054819D01*
X45376190Y-38054819D02*
X45376190Y-37054819D01*
X45376190Y-37054819D02*
X45471428Y-37197676D01*
X45471428Y-37197676D02*
X45566666Y-37292914D01*
X45566666Y-37292914D02*
X45661904Y-37340533D01*
X44471428Y-37054819D02*
X44376190Y-37054819D01*
X44376190Y-37054819D02*
X44280952Y-37102438D01*
X44280952Y-37102438D02*
X44233333Y-37150057D01*
X44233333Y-37150057D02*
X44185714Y-37245295D01*
X44185714Y-37245295D02*
X44138095Y-37435771D01*
X44138095Y-37435771D02*
X44138095Y-37673866D01*
X44138095Y-37673866D02*
X44185714Y-37864342D01*
X44185714Y-37864342D02*
X44233333Y-37959580D01*
X44233333Y-37959580D02*
X44280952Y-38007200D01*
X44280952Y-38007200D02*
X44376190Y-38054819D01*
X44376190Y-38054819D02*
X44471428Y-38054819D01*
X44471428Y-38054819D02*
X44566666Y-38007200D01*
X44566666Y-38007200D02*
X44614285Y-37959580D01*
X44614285Y-37959580D02*
X44661904Y-37864342D01*
X44661904Y-37864342D02*
X44709523Y-37673866D01*
X44709523Y-37673866D02*
X44709523Y-37435771D01*
X44709523Y-37435771D02*
X44661904Y-37245295D01*
X44661904Y-37245295D02*
X44614285Y-37150057D01*
X44614285Y-37150057D02*
X44566666Y-37102438D01*
X44566666Y-37102438D02*
X44471428Y-37054819D01*
X59333333Y-34504819D02*
X59333333Y-35219104D01*
X59333333Y-35219104D02*
X59380952Y-35361961D01*
X59380952Y-35361961D02*
X59476190Y-35457200D01*
X59476190Y-35457200D02*
X59619047Y-35504819D01*
X59619047Y-35504819D02*
X59714285Y-35504819D01*
X58857142Y-35504819D02*
X58857142Y-34504819D01*
X58857142Y-34504819D02*
X58476190Y-34504819D01*
X58476190Y-34504819D02*
X58380952Y-34552438D01*
X58380952Y-34552438D02*
X58333333Y-34600057D01*
X58333333Y-34600057D02*
X58285714Y-34695295D01*
X58285714Y-34695295D02*
X58285714Y-34838152D01*
X58285714Y-34838152D02*
X58333333Y-34933390D01*
X58333333Y-34933390D02*
X58380952Y-34981009D01*
X58380952Y-34981009D02*
X58476190Y-35028628D01*
X58476190Y-35028628D02*
X58857142Y-35028628D01*
X57333333Y-35504819D02*
X57904761Y-35504819D01*
X57619047Y-35504819D02*
X57619047Y-34504819D01*
X57619047Y-34504819D02*
X57714285Y-34647676D01*
X57714285Y-34647676D02*
X57809523Y-34742914D01*
X57809523Y-34742914D02*
X57904761Y-34790533D01*
X56233332Y-36204819D02*
X55614285Y-36204819D01*
X55614285Y-36204819D02*
X55947618Y-36585771D01*
X55947618Y-36585771D02*
X55804761Y-36585771D01*
X55804761Y-36585771D02*
X55709523Y-36633390D01*
X55709523Y-36633390D02*
X55661904Y-36681009D01*
X55661904Y-36681009D02*
X55614285Y-36776247D01*
X55614285Y-36776247D02*
X55614285Y-37014342D01*
X55614285Y-37014342D02*
X55661904Y-37109580D01*
X55661904Y-37109580D02*
X55709523Y-37157200D01*
X55709523Y-37157200D02*
X55804761Y-37204819D01*
X55804761Y-37204819D02*
X56090475Y-37204819D01*
X56090475Y-37204819D02*
X56185713Y-37157200D01*
X56185713Y-37157200D02*
X56233332Y-37109580D01*
X60814285Y-37204819D02*
X61385713Y-37204819D01*
X61099999Y-37204819D02*
X61099999Y-36204819D01*
X61099999Y-36204819D02*
X61195237Y-36347676D01*
X61195237Y-36347676D02*
X61290475Y-36442914D01*
X61290475Y-36442914D02*
X61385713Y-36490533D01*
X45766666Y-42854819D02*
X46099999Y-42378628D01*
X46338094Y-42854819D02*
X46338094Y-41854819D01*
X46338094Y-41854819D02*
X45957142Y-41854819D01*
X45957142Y-41854819D02*
X45861904Y-41902438D01*
X45861904Y-41902438D02*
X45814285Y-41950057D01*
X45814285Y-41950057D02*
X45766666Y-42045295D01*
X45766666Y-42045295D02*
X45766666Y-42188152D01*
X45766666Y-42188152D02*
X45814285Y-42283390D01*
X45814285Y-42283390D02*
X45861904Y-42331009D01*
X45861904Y-42331009D02*
X45957142Y-42378628D01*
X45957142Y-42378628D02*
X46338094Y-42378628D01*
X44909523Y-42188152D02*
X44909523Y-42854819D01*
X45147618Y-41807200D02*
X45385713Y-42521485D01*
X45385713Y-42521485D02*
X44766666Y-42521485D01*
X49742857Y-34259580D02*
X49790476Y-34307200D01*
X49790476Y-34307200D02*
X49933333Y-34354819D01*
X49933333Y-34354819D02*
X50028571Y-34354819D01*
X50028571Y-34354819D02*
X50171428Y-34307200D01*
X50171428Y-34307200D02*
X50266666Y-34211961D01*
X50266666Y-34211961D02*
X50314285Y-34116723D01*
X50314285Y-34116723D02*
X50361904Y-33926247D01*
X50361904Y-33926247D02*
X50361904Y-33783390D01*
X50361904Y-33783390D02*
X50314285Y-33592914D01*
X50314285Y-33592914D02*
X50266666Y-33497676D01*
X50266666Y-33497676D02*
X50171428Y-33402438D01*
X50171428Y-33402438D02*
X50028571Y-33354819D01*
X50028571Y-33354819D02*
X49933333Y-33354819D01*
X49933333Y-33354819D02*
X49790476Y-33402438D01*
X49790476Y-33402438D02*
X49742857Y-33450057D01*
X48790476Y-34354819D02*
X49361904Y-34354819D01*
X49076190Y-34354819D02*
X49076190Y-33354819D01*
X49076190Y-33354819D02*
X49171428Y-33497676D01*
X49171428Y-33497676D02*
X49266666Y-33592914D01*
X49266666Y-33592914D02*
X49361904Y-33640533D01*
X47838095Y-34354819D02*
X48409523Y-34354819D01*
X48123809Y-34354819D02*
X48123809Y-33354819D01*
X48123809Y-33354819D02*
X48219047Y-33497676D01*
X48219047Y-33497676D02*
X48314285Y-33592914D01*
X48314285Y-33592914D02*
X48409523Y-33640533D01*
X68833333Y-33954819D02*
X68833333Y-34669104D01*
X68833333Y-34669104D02*
X68880952Y-34811961D01*
X68880952Y-34811961D02*
X68976190Y-34907200D01*
X68976190Y-34907200D02*
X69119047Y-34954819D01*
X69119047Y-34954819D02*
X69214285Y-34954819D01*
X68452380Y-33954819D02*
X67833333Y-33954819D01*
X67833333Y-33954819D02*
X68166666Y-34335771D01*
X68166666Y-34335771D02*
X68023809Y-34335771D01*
X68023809Y-34335771D02*
X67928571Y-34383390D01*
X67928571Y-34383390D02*
X67880952Y-34431009D01*
X67880952Y-34431009D02*
X67833333Y-34526247D01*
X67833333Y-34526247D02*
X67833333Y-34764342D01*
X67833333Y-34764342D02*
X67880952Y-34859580D01*
X67880952Y-34859580D02*
X67928571Y-34907200D01*
X67928571Y-34907200D02*
X68023809Y-34954819D01*
X68023809Y-34954819D02*
X68309523Y-34954819D01*
X68309523Y-34954819D02*
X68404761Y-34907200D01*
X68404761Y-34907200D02*
X68452380Y-34859580D01*
G36*
X64687675Y-41809285D02*
G01*
X63251963Y-41809285D01*
X63251963Y-41020334D01*
X63394820Y-41020334D01*
X63401510Y-41038465D01*
X63404867Y-41057500D01*
X63410179Y-41061957D01*
X63412580Y-41068464D01*
X63432609Y-41085118D01*
X64187402Y-41516428D01*
X63469819Y-41516428D01*
X63421610Y-41533975D01*
X63395958Y-41578404D01*
X63404867Y-41628928D01*
X63444167Y-41661905D01*
X63469819Y-41666428D01*
X64469819Y-41666428D01*
X64476336Y-41664055D01*
X64483172Y-41665230D01*
X64499869Y-41655490D01*
X64518028Y-41648881D01*
X64521495Y-41642876D01*
X64527487Y-41639381D01*
X64534016Y-41621189D01*
X64543680Y-41604452D01*
X64542475Y-41597620D01*
X64544818Y-41591094D01*
X64538127Y-41572962D01*
X64534771Y-41553928D01*
X64529458Y-41549470D01*
X64527058Y-41542964D01*
X64507030Y-41526310D01*
X63752236Y-41095000D01*
X64469819Y-41095000D01*
X64518028Y-41077453D01*
X64543680Y-41033024D01*
X64534771Y-40982500D01*
X64495471Y-40949523D01*
X64469819Y-40945000D01*
X63469819Y-40945000D01*
X63463302Y-40947371D01*
X63456467Y-40946198D01*
X63439769Y-40955937D01*
X63421610Y-40962547D01*
X63418142Y-40968552D01*
X63412151Y-40972047D01*
X63405621Y-40990238D01*
X63395958Y-41006976D01*
X63397162Y-41013807D01*
X63394820Y-41020334D01*
X63251963Y-41020334D01*
X63251963Y-40530786D01*
X63395958Y-40530786D01*
X63404867Y-40581310D01*
X63444167Y-40614287D01*
X63469819Y-40618810D01*
X64469819Y-40618810D01*
X64518028Y-40601263D01*
X64543680Y-40556834D01*
X64534771Y-40506310D01*
X64495471Y-40473333D01*
X64469819Y-40468810D01*
X63469819Y-40468810D01*
X63421610Y-40486357D01*
X63395958Y-40530786D01*
X63251963Y-40530786D01*
X63251963Y-39346797D01*
X63395105Y-39346797D01*
X63408382Y-39396351D01*
X63450408Y-39425778D01*
X63501515Y-39421306D01*
X63522852Y-39406366D01*
X63905427Y-39023790D01*
X64424819Y-39413333D01*
X64473915Y-39428221D01*
X64521094Y-39408069D01*
X64544281Y-39362304D01*
X64532627Y-39312343D01*
X64514819Y-39293333D01*
X64012570Y-38916647D01*
X64072313Y-38856905D01*
X64469819Y-38856905D01*
X64518028Y-38839358D01*
X64543680Y-38794929D01*
X64534771Y-38744405D01*
X64495471Y-38711428D01*
X64469819Y-38706905D01*
X63469819Y-38706905D01*
X63421610Y-38724452D01*
X63395958Y-38768881D01*
X63404867Y-38819405D01*
X63444167Y-38852382D01*
X63469819Y-38856905D01*
X63860181Y-38856905D01*
X63416786Y-39300300D01*
X63395105Y-39346797D01*
X63251963Y-39346797D01*
X63251963Y-38292691D01*
X63395958Y-38292691D01*
X63404867Y-38343215D01*
X63444167Y-38376192D01*
X63469819Y-38380715D01*
X64469819Y-38380715D01*
X64518028Y-38363168D01*
X64543680Y-38318739D01*
X64534771Y-38268215D01*
X64495471Y-38235238D01*
X64469819Y-38230715D01*
X63469819Y-38230715D01*
X63421610Y-38248262D01*
X63395958Y-38292691D01*
X63251963Y-38292691D01*
X63251963Y-37983382D01*
X63395630Y-37983382D01*
X63420059Y-38028496D01*
X63467770Y-38047353D01*
X63493536Y-38043532D01*
X64493536Y-37710199D01*
X64495227Y-37708856D01*
X64497385Y-37708798D01*
X64515137Y-37693056D01*
X64533722Y-37678308D01*
X64534154Y-37676193D01*
X64535771Y-37674760D01*
X64539250Y-37651291D01*
X64544008Y-37628047D01*
X64542979Y-37626147D01*
X64543296Y-37624012D01*
X64530875Y-37603794D01*
X64519579Y-37582933D01*
X64517571Y-37582139D01*
X64516441Y-37580299D01*
X64493536Y-37567897D01*
X63493536Y-37234564D01*
X63442252Y-37235965D01*
X63403867Y-37270002D01*
X63396342Y-37320751D01*
X63423197Y-37364463D01*
X63446102Y-37376866D01*
X64232648Y-37639048D01*
X63446102Y-37901230D01*
X63405916Y-37933121D01*
X63395630Y-37983382D01*
X63251963Y-37983382D01*
X63251963Y-37091707D01*
X64687675Y-37091707D01*
X64687675Y-41809285D01*
G37*
X40461904Y-40554819D02*
X40461904Y-41364342D01*
X40461904Y-41364342D02*
X40414285Y-41459580D01*
X40414285Y-41459580D02*
X40366666Y-41507200D01*
X40366666Y-41507200D02*
X40271428Y-41554819D01*
X40271428Y-41554819D02*
X40080952Y-41554819D01*
X40080952Y-41554819D02*
X39985714Y-41507200D01*
X39985714Y-41507200D02*
X39938095Y-41459580D01*
X39938095Y-41459580D02*
X39890476Y-41364342D01*
X39890476Y-41364342D02*
X39890476Y-40554819D01*
X38890476Y-41554819D02*
X39461904Y-41554819D01*
X39176190Y-41554819D02*
X39176190Y-40554819D01*
X39176190Y-40554819D02*
X39271428Y-40697676D01*
X39271428Y-40697676D02*
X39366666Y-40792914D01*
X39366666Y-40792914D02*
X39461904Y-40840533D01*
X58766666Y-42954819D02*
X59099999Y-42478628D01*
X59338094Y-42954819D02*
X59338094Y-41954819D01*
X59338094Y-41954819D02*
X58957142Y-41954819D01*
X58957142Y-41954819D02*
X58861904Y-42002438D01*
X58861904Y-42002438D02*
X58814285Y-42050057D01*
X58814285Y-42050057D02*
X58766666Y-42145295D01*
X58766666Y-42145295D02*
X58766666Y-42288152D01*
X58766666Y-42288152D02*
X58814285Y-42383390D01*
X58814285Y-42383390D02*
X58861904Y-42431009D01*
X58861904Y-42431009D02*
X58957142Y-42478628D01*
X58957142Y-42478628D02*
X59338094Y-42478628D01*
X58385713Y-42050057D02*
X58338094Y-42002438D01*
X58338094Y-42002438D02*
X58242856Y-41954819D01*
X58242856Y-41954819D02*
X58004761Y-41954819D01*
X58004761Y-41954819D02*
X57909523Y-42002438D01*
X57909523Y-42002438D02*
X57861904Y-42050057D01*
X57861904Y-42050057D02*
X57814285Y-42145295D01*
X57814285Y-42145295D02*
X57814285Y-42240533D01*
X57814285Y-42240533D02*
X57861904Y-42383390D01*
X57861904Y-42383390D02*
X58433332Y-42954819D01*
X58433332Y-42954819D02*
X57814285Y-42954819D01*
X63766666Y-45959580D02*
X63814285Y-46007200D01*
X63814285Y-46007200D02*
X63957142Y-46054819D01*
X63957142Y-46054819D02*
X64052380Y-46054819D01*
X64052380Y-46054819D02*
X64195237Y-46007200D01*
X64195237Y-46007200D02*
X64290475Y-45911961D01*
X64290475Y-45911961D02*
X64338094Y-45816723D01*
X64338094Y-45816723D02*
X64385713Y-45626247D01*
X64385713Y-45626247D02*
X64385713Y-45483390D01*
X64385713Y-45483390D02*
X64338094Y-45292914D01*
X64338094Y-45292914D02*
X64290475Y-45197676D01*
X64290475Y-45197676D02*
X64195237Y-45102438D01*
X64195237Y-45102438D02*
X64052380Y-45054819D01*
X64052380Y-45054819D02*
X63957142Y-45054819D01*
X63957142Y-45054819D02*
X63814285Y-45102438D01*
X63814285Y-45102438D02*
X63766666Y-45150057D01*
X62909523Y-45054819D02*
X63099999Y-45054819D01*
X63099999Y-45054819D02*
X63195237Y-45102438D01*
X63195237Y-45102438D02*
X63242856Y-45150057D01*
X63242856Y-45150057D02*
X63338094Y-45292914D01*
X63338094Y-45292914D02*
X63385713Y-45483390D01*
X63385713Y-45483390D02*
X63385713Y-45864342D01*
X63385713Y-45864342D02*
X63338094Y-45959580D01*
X63338094Y-45959580D02*
X63290475Y-46007200D01*
X63290475Y-46007200D02*
X63195237Y-46054819D01*
X63195237Y-46054819D02*
X63004761Y-46054819D01*
X63004761Y-46054819D02*
X62909523Y-46007200D01*
X62909523Y-46007200D02*
X62861904Y-45959580D01*
X62861904Y-45959580D02*
X62814285Y-45864342D01*
X62814285Y-45864342D02*
X62814285Y-45626247D01*
X62814285Y-45626247D02*
X62861904Y-45531009D01*
X62861904Y-45531009D02*
X62909523Y-45483390D01*
X62909523Y-45483390D02*
X63004761Y-45435771D01*
X63004761Y-45435771D02*
X63195237Y-45435771D01*
X63195237Y-45435771D02*
X63290475Y-45483390D01*
X63290475Y-45483390D02*
X63338094Y-45531009D01*
X63338094Y-45531009D02*
X63385713Y-45626247D01*
D10*
%TO.C,J2*%
X63500000Y-47250000D02*
X63500000Y-48880000D01*
X63500000Y-47250000D02*
X62720000Y-47250000D01*
X62730000Y-50150000D02*
X47270000Y-50150000D01*
X47280000Y-47250000D02*
X46500000Y-47250000D01*
X46500000Y-47250000D02*
X46500000Y-48880000D01*
X55250000Y-49600000D02*
G75*
G03*
X55250000Y-49600000I-250000J0D01*
G01*
D13*
X47850000Y-46100000D02*
G75*
G03*
X47850000Y-46100000I-100000J0D01*
G01*
D10*
%TO.C,R1*%
X50553641Y-45780000D02*
X50246359Y-45780000D01*
X50553641Y-45020000D02*
X50246359Y-45020000D01*
%TO.C,R5*%
X42403641Y-41580000D02*
X42096359Y-41580000D01*
X42403641Y-40820000D02*
X42096359Y-40820000D01*
%TO.C,C8*%
X38390000Y-38640580D02*
X38390000Y-38359420D01*
X39410000Y-38640580D02*
X39410000Y-38359420D01*
%TO.C,D3*%
X46860000Y-36749999D02*
X44200000Y-36749999D01*
X46860000Y-35049999D02*
X46860000Y-36749999D01*
X46860000Y-35049999D02*
X44200000Y-35049999D01*
%TO.C,C3*%
X50259420Y-41990000D02*
X50540580Y-41990000D01*
X50259420Y-43010000D02*
X50540580Y-43010000D01*
%TO.C,L1*%
X43510000Y-36960000D02*
X43510000Y-36810000D01*
X43510000Y-36960000D02*
X39990000Y-36960000D01*
X43510000Y-33440000D02*
X43510000Y-33590000D01*
X43510000Y-33440000D02*
X39990000Y-33440000D01*
X39990000Y-36960000D02*
X39990000Y-36810000D01*
X39990000Y-33440000D02*
X39990000Y-33590000D01*
%TO.C,U2*%
X51400000Y-37760000D02*
X52050000Y-37760000D01*
X51400000Y-37760000D02*
X50750000Y-37760000D01*
X51400000Y-34640000D02*
X53075000Y-34640000D01*
X51400000Y-34640000D02*
X50750000Y-34640000D01*
%TO.C,C2*%
X47240580Y-44610000D02*
X46959420Y-44610000D01*
X47240580Y-43590000D02*
X46959420Y-43590000D01*
%TO.C,D2*%
X52190000Y-42150000D02*
X54850000Y-42150000D01*
X52190000Y-43850000D02*
X52190000Y-42150000D01*
X52190000Y-43850000D02*
X54850000Y-43850000D01*
%TO.C,C1*%
X47707836Y-45760000D02*
X47492164Y-45760000D01*
X47707836Y-45040000D02*
X47492164Y-45040000D01*
%TO.C,C4*%
X50259420Y-43590000D02*
X50540580Y-43590000D01*
X50259420Y-44610000D02*
X50540580Y-44610000D01*
%TO.C,C7*%
X62159420Y-43590000D02*
X62440580Y-43590000D01*
X62159420Y-44610000D02*
X62440580Y-44610000D01*
%TO.C,D1*%
X55410000Y-45850000D02*
X52750000Y-45850000D01*
X55410000Y-44150000D02*
X55410000Y-45850000D01*
X55410000Y-44150000D02*
X52750000Y-44150000D01*
%TO.C,C9*%
X45492164Y-39840000D02*
X45707836Y-39840000D01*
X45492164Y-40560000D02*
X45707836Y-40560000D01*
%TO.C,C5*%
X59490000Y-44640580D02*
X59490000Y-44359420D01*
X60510000Y-44640580D02*
X60510000Y-44359420D01*
%TO.C,C12*%
X53540001Y-36307836D02*
X53540001Y-36092164D01*
X54260001Y-36307836D02*
X54260001Y-36092164D01*
%TO.C,C10*%
X45259420Y-38390000D02*
X45540580Y-38390000D01*
X45259420Y-39410000D02*
X45540580Y-39410000D01*
%TO.C,JP1*%
X60550000Y-37750000D02*
X60550000Y-35750000D01*
X60550000Y-35750000D02*
X56450000Y-35750000D01*
X56450000Y-37750000D02*
X60550000Y-37750000D01*
X56450000Y-35750000D02*
X56450000Y-37750000D01*
%TO.C,R4*%
X45446359Y-40820000D02*
X45753641Y-40820000D01*
X45446359Y-41580000D02*
X45753641Y-41580000D01*
%TO.C,C11*%
X51392164Y-33540000D02*
X51607836Y-33540000D01*
X51392164Y-34260000D02*
X51607836Y-34260000D01*
D14*
%TO.C,A2*%
X73980161Y-45493654D02*
X72992323Y-45494024D01*
X73483804Y-45780000D02*
X68720000Y-45780000D01*
X72915689Y-47336813D02*
X73980161Y-45493654D01*
X71101902Y-49905575D02*
X73483804Y-45780000D01*
X71099886Y-50495112D02*
X71593459Y-49639419D01*
X70358744Y-45506614D02*
X68230285Y-45506314D01*
X70035916Y-48651662D02*
X71099886Y-50495112D01*
X68720000Y-45780000D02*
X71101902Y-49905575D01*
X68230285Y-45506314D02*
X68724551Y-46361607D01*
D10*
%TO.C,J3*%
X66150000Y-35500000D02*
X67780000Y-35500000D01*
X69050000Y-36270000D02*
X69050000Y-42730000D01*
X66150000Y-36280000D02*
X66150000Y-35500000D01*
X66150000Y-42720000D02*
X66150000Y-43500000D01*
X66150000Y-43500000D02*
X67780000Y-43500000D01*
D13*
X65100000Y-42250000D02*
G75*
G03*
X65100000Y-42250000I-100000J0D01*
G01*
D10*
%TO.C,U1*%
X41750000Y-40359999D02*
X42550000Y-40359999D01*
X41750000Y-40359999D02*
X40950000Y-40359999D01*
X41750000Y-37239999D02*
X43550000Y-37239999D01*
X41750000Y-37239999D02*
X40950000Y-37239999D01*
%TO.C,R2*%
X57677500Y-44737258D02*
X57677500Y-44262742D01*
X58722500Y-44737258D02*
X58722500Y-44262742D01*
%TO.C,C6*%
X61592164Y-45040000D02*
X61807836Y-45040000D01*
X61592164Y-45760000D02*
X61807836Y-45760000D01*
%TD*%
%LPC*%
%TO.C,A1*%
G36*
X65075334Y-26284666D02*
G01*
X65115071Y-26361065D01*
X64906000Y-26454000D01*
X64771534Y-26435669D01*
X64736667Y-26284666D01*
X64773895Y-26254267D01*
X65075334Y-26284666D01*
G37*
G36*
X64652000Y-25184000D02*
G01*
X64633670Y-25318466D01*
X64482667Y-25353333D01*
X64452268Y-25316105D01*
X64482667Y-25014666D01*
X64559066Y-24974929D01*
X64652000Y-25184000D01*
G37*
G36*
X67954000Y-27455009D02*
G01*
X67944240Y-27528736D01*
X67700000Y-27724000D01*
X67642518Y-27721087D01*
X67446000Y-27611990D01*
X67457689Y-27571246D01*
X67700000Y-27343000D01*
X67798391Y-27303311D01*
X67954000Y-27455009D01*
G37*
G36*
X66244643Y-26378906D02*
G01*
X66430000Y-26737980D01*
X66410431Y-26823389D01*
X66176000Y-26835000D01*
X66107358Y-26783093D01*
X65922000Y-26424019D01*
X65941570Y-26338610D01*
X66176000Y-26327000D01*
X66244643Y-26378906D01*
G37*
G36*
X63694737Y-24177760D02*
G01*
X63890000Y-24422000D01*
X63887088Y-24479482D01*
X63777991Y-24676000D01*
X63737247Y-24664311D01*
X63509000Y-24422000D01*
X63469312Y-24323609D01*
X63621010Y-24168000D01*
X63694737Y-24177760D01*
G37*
G36*
X58870713Y-24429380D02*
G01*
X59064000Y-24676000D01*
X59056620Y-24736712D01*
X58810000Y-24930000D01*
X58749288Y-24922619D01*
X58556000Y-24676000D01*
X58563381Y-24615287D01*
X58810000Y-24422000D01*
X58870713Y-24429380D01*
G37*
G36*
X48581135Y-25303594D02*
G01*
X48547240Y-25955269D01*
X48591593Y-27042164D01*
X48802234Y-27769499D01*
X49248144Y-28343162D01*
X49904090Y-28658672D01*
X50577631Y-28539359D01*
X50585059Y-28535175D01*
X50773449Y-28348893D01*
X50622334Y-28114355D01*
X50074756Y-27741153D01*
X49667690Y-27432721D01*
X49251515Y-26834237D01*
X49247366Y-26724185D01*
X49803003Y-26724185D01*
X49978871Y-26909375D01*
X50442147Y-27223570D01*
X50460644Y-27233403D01*
X50835568Y-27355732D01*
X50936000Y-27129037D01*
X50933733Y-27080260D01*
X50726248Y-26632148D01*
X50323560Y-26325996D01*
X49926984Y-26322684D01*
X49838085Y-26400583D01*
X49803003Y-26724185D01*
X49247366Y-26724185D01*
X49230324Y-26272141D01*
X49591069Y-25855155D01*
X50320700Y-25691999D01*
X50445756Y-25696976D01*
X51000707Y-25910896D01*
X51394426Y-26490939D01*
X51573114Y-27129037D01*
X51678792Y-27506413D01*
X51896341Y-28613000D01*
X51924171Y-27294490D01*
X51975248Y-26551832D01*
X52160971Y-25936086D01*
X52492654Y-25786507D01*
X52984006Y-26087484D01*
X53267783Y-26324907D01*
X53573431Y-26386156D01*
X53967995Y-26087484D01*
X54376413Y-25809243D01*
X54731645Y-25867783D01*
X54935110Y-26385583D01*
X55000000Y-27379156D01*
X55022300Y-28084655D01*
X55122823Y-28577944D01*
X55317500Y-28672490D01*
X55521437Y-28382352D01*
X55553052Y-27745895D01*
X55539718Y-27408204D01*
X55604823Y-27121901D01*
X56077751Y-27121901D01*
X56214797Y-27831274D01*
X56523407Y-28277043D01*
X56905000Y-28486000D01*
X57232435Y-28354959D01*
X57574009Y-27890551D01*
X57733988Y-27286524D01*
X57625576Y-26751774D01*
X57410829Y-26523988D01*
X56905000Y-26327000D01*
X56829929Y-26329823D01*
X56303772Y-26575700D01*
X56077751Y-27121901D01*
X55604823Y-27121901D01*
X55731479Y-26564923D01*
X56184543Y-26002946D01*
X56787085Y-25748318D01*
X57427279Y-25827087D01*
X57993297Y-26265298D01*
X58373314Y-27089000D01*
X58415251Y-27195070D01*
X58485738Y-27050464D01*
X58526536Y-26512660D01*
X58536912Y-26239459D01*
X58619501Y-25742773D01*
X58865743Y-25536738D01*
X59380967Y-25580260D01*
X60270500Y-25832243D01*
X60402423Y-25850507D01*
X60588000Y-25684028D01*
X60595322Y-25625455D01*
X60842000Y-25438000D01*
X60955660Y-25595835D01*
X61057099Y-26141373D01*
X61096000Y-26947009D01*
X61098867Y-27201637D01*
X61177329Y-28094827D01*
X61349150Y-28563841D01*
X61595530Y-28581184D01*
X61897671Y-28119366D01*
X61915558Y-28078868D01*
X62050537Y-27544205D01*
X62036834Y-26818769D01*
X61872908Y-25755544D01*
X61704543Y-24669457D01*
X61677287Y-24141389D01*
X61921384Y-24141389D01*
X62108353Y-25170453D01*
X62507353Y-26038087D01*
X63267760Y-27050816D01*
X64247322Y-28024628D01*
X65318533Y-28833909D01*
X66353888Y-29353045D01*
X67141712Y-29578613D01*
X68534905Y-29718076D01*
X69668500Y-29445994D01*
X69733158Y-29414332D01*
X70162704Y-29141985D01*
X70126523Y-28976822D01*
X69613269Y-28913485D01*
X68611597Y-28946613D01*
X68045699Y-28974309D01*
X67210793Y-28938805D01*
X66502179Y-28743513D01*
X65673108Y-28337264D01*
X65157920Y-28028076D01*
X64286260Y-27395737D01*
X63629200Y-26788448D01*
X63245474Y-26269441D01*
X62735252Y-25222661D01*
X62460852Y-24140868D01*
X62483928Y-23264692D01*
X62648922Y-23264692D01*
X62664308Y-23784800D01*
X62889273Y-24746442D01*
X62962061Y-24976314D01*
X63616127Y-26170112D01*
X64649267Y-27257825D01*
X65954191Y-28121312D01*
X66459921Y-28337416D01*
X67386514Y-28600968D01*
X68315901Y-28744008D01*
X69089088Y-28745961D01*
X69547081Y-28586252D01*
X69488697Y-28420200D01*
X69118084Y-28029820D01*
X68509915Y-27524665D01*
X68102689Y-27212075D01*
X67214126Y-26523245D01*
X66170308Y-25708402D01*
X65121230Y-24884412D01*
X64359395Y-24291156D01*
X63579004Y-23701178D01*
X63020701Y-23300016D01*
X62771730Y-23151999D01*
X62648922Y-23264692D01*
X62483928Y-23264692D01*
X62485104Y-23220031D01*
X62485771Y-23217369D01*
X62529315Y-22764021D01*
X62313579Y-22702228D01*
X62162339Y-22798680D01*
X61942487Y-23313430D01*
X61921384Y-24141389D01*
X61677287Y-24141389D01*
X61644661Y-23509280D01*
X61781196Y-22760023D01*
X62112000Y-22451360D01*
X62122881Y-22451286D01*
X62435130Y-22610812D01*
X63065247Y-23023002D01*
X63938828Y-23632535D01*
X64981469Y-24384090D01*
X66118768Y-25222348D01*
X67276321Y-26091987D01*
X68379723Y-26937689D01*
X69354573Y-27704132D01*
X70126467Y-28335995D01*
X70406490Y-28586252D01*
X70621000Y-28777960D01*
X70672111Y-29064055D01*
X70604303Y-29141985D01*
X70275361Y-29520029D01*
X70016251Y-29697021D01*
X69298028Y-29936150D01*
X68243361Y-30004421D01*
X66664828Y-29811945D01*
X65115632Y-29163939D01*
X63694488Y-28036487D01*
X62692004Y-27034003D01*
X62465502Y-27925619D01*
X62411343Y-28111688D01*
X62043660Y-28804832D01*
X61569214Y-29184968D01*
X61096275Y-29233013D01*
X60733114Y-28929886D01*
X60588000Y-28256507D01*
X60578322Y-27961234D01*
X60408541Y-27057850D01*
X60068126Y-26433232D01*
X59610603Y-26200000D01*
X59573607Y-26200746D01*
X59286304Y-26314792D01*
X59115099Y-26704073D01*
X59033100Y-27286524D01*
X59005165Y-27484951D01*
X58861941Y-28369544D01*
X58628834Y-28993936D01*
X58348505Y-29226006D01*
X58056782Y-29008209D01*
X57830853Y-28789154D01*
X57477459Y-28940504D01*
X57301489Y-29030532D01*
X56678495Y-29154804D01*
X55873584Y-29178171D01*
X55799740Y-29174630D01*
X55058931Y-29098297D01*
X54685244Y-28929583D01*
X54548595Y-28613000D01*
X54522310Y-28442312D01*
X54351008Y-27566418D01*
X54175976Y-27135139D01*
X53976554Y-27093602D01*
X53929500Y-27141098D01*
X53787262Y-27572007D01*
X53730000Y-28246990D01*
X53724092Y-28461464D01*
X53636027Y-29022884D01*
X53476000Y-29248000D01*
X53421579Y-29224713D01*
X53279122Y-28877651D01*
X53222000Y-28246990D01*
X53217465Y-28053147D01*
X53132982Y-27423446D01*
X52975447Y-27093602D01*
X52941859Y-27076611D01*
X52748417Y-27173890D01*
X52575874Y-27666956D01*
X52403163Y-28611694D01*
X52384321Y-28706560D01*
X52211010Y-28971377D01*
X51782900Y-29112285D01*
X50973665Y-29179461D01*
X50582962Y-29184157D01*
X49640957Y-29095248D01*
X48952909Y-28890597D01*
X48630516Y-28735562D01*
X48265374Y-28688044D01*
X47989469Y-28944871D01*
X47964778Y-28977949D01*
X47712383Y-29193579D01*
X47333423Y-29200480D01*
X46656189Y-29006603D01*
X46073710Y-28837944D01*
X45580876Y-28807608D01*
X45224473Y-28991118D01*
X45109604Y-29078647D01*
X44760019Y-29159145D01*
X44327236Y-28862688D01*
X44021131Y-28607717D01*
X43718668Y-28557076D01*
X43320765Y-28862688D01*
X43192008Y-28974274D01*
X42796750Y-29172068D01*
X42431765Y-28997954D01*
X42195628Y-28671261D01*
X42046000Y-28057200D01*
X42045543Y-28011457D01*
X41907653Y-27254101D01*
X41584935Y-26680999D01*
X41166207Y-26454000D01*
X40626332Y-26664238D01*
X40188895Y-27214829D01*
X40010111Y-27932642D01*
X39988612Y-28238262D01*
X39839438Y-28818661D01*
X39609998Y-29188167D01*
X39373757Y-29200423D01*
X39300022Y-28899933D01*
X39336596Y-28265712D01*
X39468738Y-27495160D01*
X39663972Y-26772060D01*
X39889818Y-26280191D01*
X40421801Y-25931792D01*
X41386696Y-25790181D01*
X42554001Y-25750889D01*
X42554000Y-27118444D01*
X42574108Y-27665949D01*
X42660910Y-28256589D01*
X42793010Y-28486000D01*
X43098494Y-28363534D01*
X43229891Y-27927791D01*
X43044324Y-27309971D01*
X42893400Y-26985607D01*
X42897214Y-26635762D01*
X43573623Y-26635762D01*
X43600537Y-27035822D01*
X43979113Y-27663496D01*
X44127967Y-27846709D01*
X44560833Y-28303216D01*
X44840000Y-28486000D01*
X44904583Y-28465293D01*
X45249182Y-28178999D01*
X45700888Y-27663496D01*
X46019603Y-27172286D01*
X46131157Y-26709584D01*
X45908609Y-26526806D01*
X45375270Y-26693405D01*
X44929128Y-26847923D01*
X44304731Y-26693405D01*
X43875056Y-26532770D01*
X43573623Y-26635762D01*
X42897214Y-26635762D01*
X42897720Y-26589370D01*
X43259400Y-26143711D01*
X43647535Y-25793167D01*
X43935890Y-25761672D01*
X44323036Y-26064887D01*
X44650059Y-26336117D01*
X44950889Y-26379944D01*
X45348000Y-26072999D01*
X45663400Y-25810766D01*
X45964644Y-25764495D01*
X46364001Y-26073000D01*
X46699404Y-26443226D01*
X46769537Y-26709584D01*
X46839553Y-26975494D01*
X46491001Y-27469999D01*
X46173564Y-27810177D01*
X46220357Y-28122773D01*
X46740159Y-28437577D01*
X47235390Y-28549572D01*
X47630673Y-28300746D01*
X47772647Y-27657532D01*
X47643753Y-26654576D01*
X47526376Y-26040033D01*
X47416752Y-25029554D01*
X47407523Y-24513497D01*
X47920171Y-24513497D01*
X47967482Y-25123461D01*
X47999941Y-25206676D01*
X48057501Y-25071753D01*
X48077946Y-24549000D01*
X48071357Y-24271980D01*
X48029267Y-23966686D01*
X47962356Y-24107461D01*
X47920171Y-24513497D01*
X47407523Y-24513497D01*
X47400038Y-24094945D01*
X47476181Y-23377402D01*
X47645127Y-23018123D01*
X47870449Y-22984634D01*
X48310243Y-23186227D01*
X48423940Y-23302527D01*
X48581292Y-23670795D01*
X48628494Y-24297204D01*
X48616645Y-24549000D01*
X48581135Y-25303594D01*
G37*
%TD*%
D15*
%TO.C,J2*%
X47750000Y-47100000D03*
X48250000Y-47100000D03*
X48750000Y-47100000D03*
X49250000Y-47100000D03*
X49750000Y-47100000D03*
X50250000Y-47100000D03*
X50750000Y-47100000D03*
X51250000Y-47100000D03*
X51750000Y-47100000D03*
X52250000Y-47100000D03*
X52750000Y-47100000D03*
X53250000Y-47100000D03*
X53750000Y-47100000D03*
X54250000Y-47100000D03*
X54750000Y-47100000D03*
X55250000Y-47100000D03*
X55750000Y-47100000D03*
X56250000Y-47100000D03*
X56750000Y-47100000D03*
X57250000Y-47100000D03*
X57750000Y-47100000D03*
X58250000Y-47100000D03*
X58750000Y-47100000D03*
X59250000Y-47100000D03*
X59750000Y-47100000D03*
X60250000Y-47100000D03*
X60750000Y-47100000D03*
X61250000Y-47100000D03*
X61750000Y-47100000D03*
X62250000Y-47100000D03*
D16*
X63250000Y-49600000D03*
X46750000Y-49600000D03*
%TD*%
D17*
%TO.C,J1*%
X35000000Y-32380000D03*
D18*
X35000000Y-34920000D03*
X35000000Y-37460000D03*
X35000000Y-40000000D03*
X35000000Y-42540000D03*
X35000000Y-45080000D03*
X35000000Y-47620000D03*
D19*
X35250000Y-24000000D03*
X35250000Y-56000000D03*
X74750000Y-24000000D03*
X74750000Y-56000000D03*
%TD*%
D20*
%TO.C,H1*%
X55000000Y-23000000D03*
%TD*%
%TO.C,H3*%
X38500000Y-57000000D03*
%TD*%
%TO.C,H2*%
X71500000Y-57000000D03*
%TD*%
D21*
%TO.C,R1*%
X50910000Y-45400000D03*
X49890000Y-45400000D03*
%TD*%
%TO.C,R5*%
X42760000Y-41200000D03*
X41740000Y-41200000D03*
%TD*%
D22*
%TO.C,C8*%
X38900000Y-39275000D03*
X38900000Y-37725000D03*
%TD*%
D23*
%TO.C,D3*%
X46300000Y-35899999D03*
X44200000Y-35899999D03*
%TD*%
D24*
%TO.C,C3*%
X49625000Y-42500000D03*
X51175000Y-42500000D03*
%TD*%
D25*
%TO.C,L1*%
X42900000Y-35200000D03*
X40600000Y-35200000D03*
%TD*%
D26*
%TO.C,U2*%
X52337500Y-35250000D03*
X52337500Y-37150000D03*
X50462500Y-36200000D03*
%TD*%
D27*
%TO.C,C2*%
X47875000Y-44100000D03*
X46325000Y-44100000D03*
%TD*%
D28*
%TO.C,D2*%
X52750000Y-43000000D03*
X54850000Y-43000000D03*
%TD*%
D29*
%TO.C,C1*%
X48080000Y-45400000D03*
X47120000Y-45400000D03*
%TD*%
D24*
%TO.C,C4*%
X49625000Y-44100000D03*
X51175000Y-44100000D03*
%TD*%
%TO.C,C7*%
X61525000Y-44100000D03*
X63075000Y-44100000D03*
%TD*%
D23*
%TO.C,D1*%
X54850000Y-45000000D03*
X52750000Y-45000000D03*
%TD*%
D30*
%TO.C,C9*%
X45120000Y-40200000D03*
X46080000Y-40200000D03*
%TD*%
D22*
%TO.C,C5*%
X60000000Y-45275000D03*
X60000000Y-43725000D03*
%TD*%
D31*
%TO.C,C12*%
X53900001Y-36680000D03*
X53900001Y-35720000D03*
%TD*%
D24*
%TO.C,C10*%
X44625000Y-38900000D03*
X46175000Y-38900000D03*
%TD*%
D32*
%TO.C,JP1*%
X59800000Y-36750000D03*
X58500000Y-36750000D03*
X57200000Y-36750000D03*
%TD*%
D33*
%TO.C,R4*%
X45090000Y-41200000D03*
X46110000Y-41200000D03*
%TD*%
D30*
%TO.C,C11*%
X51020000Y-33900000D03*
X51980000Y-33900000D03*
%TD*%
D34*
%TO.C,J3*%
X66000000Y-42250000D03*
X66000000Y-41750000D03*
X66000000Y-41250000D03*
X66000000Y-40750000D03*
X66000000Y-40250000D03*
X66000000Y-39750000D03*
X66000000Y-39250000D03*
X66000000Y-38750000D03*
X66000000Y-38250000D03*
X66000000Y-37750000D03*
X66000000Y-37250000D03*
X66000000Y-36750000D03*
D35*
X68500000Y-35750000D03*
X68500000Y-43250000D03*
%TD*%
D36*
%TO.C,U1*%
X42887500Y-37849999D03*
X42887500Y-38799999D03*
X42887500Y-39749999D03*
X40612500Y-39749999D03*
X40612500Y-37849999D03*
%TD*%
D37*
%TO.C,R2*%
X58200000Y-45325000D03*
X58200000Y-43675000D03*
%TD*%
D30*
%TO.C,C6*%
X61220000Y-45400000D03*
X62180000Y-45400000D03*
%TD*%
%LPD*%
M02*
