%TF.GenerationSoftware,KiCad,Pcbnew,(5.1.6)-1*%
%TF.CreationDate,2020-09-29T08:48:28+08:00*%
%TF.ProjectId,Crenshaw,4372656e-7368-4617-972e-6b696361645f,rev?*%
%TF.SameCoordinates,Original*%
%TF.FileFunction,Legend,Top*%
%TF.FilePolarity,Positive*%
%FSLAX46Y46*%
G04 Gerber Fmt 4.6, Leading zero omitted, Abs format (unit mm)*
G04 Created by KiCad (PCBNEW (5.1.6)-1) date 2020-09-29 08:48:28*
%MOMM*%
%LPD*%
G01*
G04 APERTURE LIST*
%ADD10C,0.100000*%
%ADD11C,0.120000*%
%ADD12C,0.010000*%
%ADD13C,0.150000*%
G04 APERTURE END LIST*
D10*
X182114285Y-120528571D02*
X182090476Y-120552380D01*
X182019047Y-120576190D01*
X181971428Y-120576190D01*
X181900000Y-120552380D01*
X181852380Y-120504761D01*
X181828571Y-120457142D01*
X181804761Y-120361904D01*
X181804761Y-120290476D01*
X181828571Y-120195238D01*
X181852380Y-120147619D01*
X181900000Y-120100000D01*
X181971428Y-120076190D01*
X182019047Y-120076190D01*
X182090476Y-120100000D01*
X182114285Y-120123809D01*
X182328571Y-120576190D02*
X182328571Y-120242857D01*
X182328571Y-120338095D02*
X182352380Y-120290476D01*
X182376190Y-120266666D01*
X182423809Y-120242857D01*
X182471428Y-120242857D01*
X182828571Y-120552380D02*
X182780952Y-120576190D01*
X182685714Y-120576190D01*
X182638095Y-120552380D01*
X182614285Y-120504761D01*
X182614285Y-120314285D01*
X182638095Y-120266666D01*
X182685714Y-120242857D01*
X182780952Y-120242857D01*
X182828571Y-120266666D01*
X182852380Y-120314285D01*
X182852380Y-120361904D01*
X182614285Y-120409523D01*
X183066666Y-120242857D02*
X183066666Y-120576190D01*
X183066666Y-120290476D02*
X183090476Y-120266666D01*
X183138095Y-120242857D01*
X183209523Y-120242857D01*
X183257142Y-120266666D01*
X183280952Y-120314285D01*
X183280952Y-120576190D01*
X183495238Y-120552380D02*
X183542857Y-120576190D01*
X183638095Y-120576190D01*
X183685714Y-120552380D01*
X183709523Y-120504761D01*
X183709523Y-120480952D01*
X183685714Y-120433333D01*
X183638095Y-120409523D01*
X183566666Y-120409523D01*
X183519047Y-120385714D01*
X183495238Y-120338095D01*
X183495238Y-120314285D01*
X183519047Y-120266666D01*
X183566666Y-120242857D01*
X183638095Y-120242857D01*
X183685714Y-120266666D01*
X183923809Y-120576190D02*
X183923809Y-120076190D01*
X184138095Y-120576190D02*
X184138095Y-120314285D01*
X184114285Y-120266666D01*
X184066666Y-120242857D01*
X183995238Y-120242857D01*
X183947619Y-120266666D01*
X183923809Y-120290476D01*
X184590476Y-120576190D02*
X184590476Y-120314285D01*
X184566666Y-120266666D01*
X184519047Y-120242857D01*
X184423809Y-120242857D01*
X184376190Y-120266666D01*
X184590476Y-120552380D02*
X184542857Y-120576190D01*
X184423809Y-120576190D01*
X184376190Y-120552380D01*
X184352380Y-120504761D01*
X184352380Y-120457142D01*
X184376190Y-120409523D01*
X184423809Y-120385714D01*
X184542857Y-120385714D01*
X184590476Y-120361904D01*
X184780952Y-120242857D02*
X184876190Y-120576190D01*
X184971428Y-120338095D01*
X185066666Y-120576190D01*
X185161904Y-120242857D01*
X185709523Y-120552380D02*
X185780952Y-120576190D01*
X185900000Y-120576190D01*
X185947619Y-120552380D01*
X185971428Y-120528571D01*
X185995238Y-120480952D01*
X185995238Y-120433333D01*
X185971428Y-120385714D01*
X185947619Y-120361904D01*
X185900000Y-120338095D01*
X185804761Y-120314285D01*
X185757142Y-120290476D01*
X185733333Y-120266666D01*
X185709523Y-120219047D01*
X185709523Y-120171428D01*
X185733333Y-120123809D01*
X185757142Y-120100000D01*
X185804761Y-120076190D01*
X185923809Y-120076190D01*
X185995238Y-120100000D01*
X186185714Y-120552380D02*
X186257142Y-120576190D01*
X186376190Y-120576190D01*
X186423809Y-120552380D01*
X186447619Y-120528571D01*
X186471428Y-120480952D01*
X186471428Y-120433333D01*
X186447619Y-120385714D01*
X186423809Y-120361904D01*
X186376190Y-120338095D01*
X186280952Y-120314285D01*
X186233333Y-120290476D01*
X186209523Y-120266666D01*
X186185714Y-120219047D01*
X186185714Y-120171428D01*
X186209523Y-120123809D01*
X186233333Y-120100000D01*
X186280952Y-120076190D01*
X186400000Y-120076190D01*
X186471428Y-120100000D01*
X186685714Y-120576190D02*
X186685714Y-120076190D01*
X186804761Y-120076190D01*
X186876190Y-120100000D01*
X186923809Y-120147619D01*
X186947619Y-120195238D01*
X186971428Y-120290476D01*
X186971428Y-120361904D01*
X186947619Y-120457142D01*
X186923809Y-120504761D01*
X186876190Y-120552380D01*
X186804761Y-120576190D01*
X186685714Y-120576190D01*
X187447619Y-120576190D02*
X187161904Y-120576190D01*
X187304761Y-120576190D02*
X187304761Y-120076190D01*
X187257142Y-120147619D01*
X187209523Y-120195238D01*
X187161904Y-120219047D01*
X187614285Y-120076190D02*
X187923809Y-120076190D01*
X187757142Y-120266666D01*
X187828571Y-120266666D01*
X187876190Y-120290476D01*
X187900000Y-120314285D01*
X187923809Y-120361904D01*
X187923809Y-120480952D01*
X187900000Y-120528571D01*
X187876190Y-120552380D01*
X187828571Y-120576190D01*
X187685714Y-120576190D01*
X187638095Y-120552380D01*
X187614285Y-120528571D01*
X188233333Y-120076190D02*
X188280952Y-120076190D01*
X188328571Y-120100000D01*
X188352380Y-120123809D01*
X188376190Y-120171428D01*
X188400000Y-120266666D01*
X188400000Y-120385714D01*
X188376190Y-120480952D01*
X188352380Y-120528571D01*
X188328571Y-120552380D01*
X188280952Y-120576190D01*
X188233333Y-120576190D01*
X188185714Y-120552380D01*
X188161904Y-120528571D01*
X188138095Y-120480952D01*
X188114285Y-120385714D01*
X188114285Y-120266666D01*
X188138095Y-120171428D01*
X188161904Y-120123809D01*
X188185714Y-120100000D01*
X188233333Y-120076190D01*
X188828571Y-120076190D02*
X188733333Y-120076190D01*
X188685714Y-120100000D01*
X188661904Y-120123809D01*
X188614285Y-120195238D01*
X188590476Y-120290476D01*
X188590476Y-120480952D01*
X188614285Y-120528571D01*
X188638095Y-120552380D01*
X188685714Y-120576190D01*
X188780952Y-120576190D01*
X188828571Y-120552380D01*
X188852380Y-120528571D01*
X188876190Y-120480952D01*
X188876190Y-120361904D01*
X188852380Y-120314285D01*
X188828571Y-120290476D01*
X188780952Y-120266666D01*
X188685714Y-120266666D01*
X188638095Y-120290476D01*
X188614285Y-120314285D01*
X188590476Y-120361904D01*
X189733333Y-120576190D02*
X189447619Y-120576190D01*
X189590476Y-120576190D02*
X189590476Y-120076190D01*
X189542857Y-120147619D01*
X189495238Y-120195238D01*
X189447619Y-120219047D01*
X189947619Y-120528571D02*
X189971428Y-120552380D01*
X189947619Y-120576190D01*
X189923809Y-120552380D01*
X189947619Y-120528571D01*
X189947619Y-120576190D01*
X190138095Y-120076190D02*
X190447619Y-120076190D01*
X190280952Y-120266666D01*
X190352380Y-120266666D01*
X190400000Y-120290476D01*
X190423809Y-120314285D01*
X190447619Y-120361904D01*
X190447619Y-120480952D01*
X190423809Y-120528571D01*
X190400000Y-120552380D01*
X190352380Y-120576190D01*
X190209523Y-120576190D01*
X190161904Y-120552380D01*
X190138095Y-120528571D01*
X190638095Y-120076190D02*
X190638095Y-120171428D01*
X190828571Y-120076190D02*
X190828571Y-120171428D01*
X191685714Y-120576190D02*
X191400000Y-120576190D01*
X191542857Y-120576190D02*
X191542857Y-120076190D01*
X191495238Y-120147619D01*
X191447619Y-120195238D01*
X191400000Y-120219047D01*
X191876190Y-120123809D02*
X191900000Y-120100000D01*
X191947619Y-120076190D01*
X192066666Y-120076190D01*
X192114285Y-120100000D01*
X192138095Y-120123809D01*
X192161904Y-120171428D01*
X192161904Y-120219047D01*
X192138095Y-120290476D01*
X191852380Y-120576190D01*
X192161904Y-120576190D01*
X192447619Y-120290476D02*
X192400000Y-120266666D01*
X192376190Y-120242857D01*
X192352380Y-120195238D01*
X192352380Y-120171428D01*
X192376190Y-120123809D01*
X192400000Y-120100000D01*
X192447619Y-120076190D01*
X192542857Y-120076190D01*
X192590476Y-120100000D01*
X192614285Y-120123809D01*
X192638095Y-120171428D01*
X192638095Y-120195238D01*
X192614285Y-120242857D01*
X192590476Y-120266666D01*
X192542857Y-120290476D01*
X192447619Y-120290476D01*
X192400000Y-120314285D01*
X192376190Y-120338095D01*
X192352380Y-120385714D01*
X192352380Y-120480952D01*
X192376190Y-120528571D01*
X192400000Y-120552380D01*
X192447619Y-120576190D01*
X192542857Y-120576190D01*
X192590476Y-120552380D01*
X192614285Y-120528571D01*
X192638095Y-120480952D01*
X192638095Y-120385714D01*
X192614285Y-120338095D01*
X192590476Y-120314285D01*
X192542857Y-120290476D01*
X192804761Y-120576190D02*
X193066666Y-120242857D01*
X192804761Y-120242857D02*
X193066666Y-120576190D01*
X193471428Y-120076190D02*
X193376190Y-120076190D01*
X193328571Y-120100000D01*
X193304761Y-120123809D01*
X193257142Y-120195238D01*
X193233333Y-120290476D01*
X193233333Y-120480952D01*
X193257142Y-120528571D01*
X193280952Y-120552380D01*
X193328571Y-120576190D01*
X193423809Y-120576190D01*
X193471428Y-120552380D01*
X193495238Y-120528571D01*
X193519047Y-120480952D01*
X193519047Y-120361904D01*
X193495238Y-120314285D01*
X193471428Y-120290476D01*
X193423809Y-120266666D01*
X193328571Y-120266666D01*
X193280952Y-120290476D01*
X193257142Y-120314285D01*
X193233333Y-120361904D01*
X193947619Y-120242857D02*
X193947619Y-120576190D01*
X193828571Y-120052380D02*
X193709523Y-120409523D01*
X194019047Y-120409523D01*
X182614285Y-120926190D02*
X182709523Y-120926190D01*
X182757142Y-120950000D01*
X182804761Y-120997619D01*
X182828571Y-121092857D01*
X182828571Y-121259523D01*
X182804761Y-121354761D01*
X182757142Y-121402380D01*
X182709523Y-121426190D01*
X182614285Y-121426190D01*
X182566666Y-121402380D01*
X182519047Y-121354761D01*
X182495238Y-121259523D01*
X182495238Y-121092857D01*
X182519047Y-120997619D01*
X182566666Y-120950000D01*
X182614285Y-120926190D01*
X183280952Y-121426190D02*
X183042857Y-121426190D01*
X183042857Y-120926190D01*
X183447619Y-121164285D02*
X183614285Y-121164285D01*
X183685714Y-121426190D02*
X183447619Y-121426190D01*
X183447619Y-120926190D01*
X183685714Y-120926190D01*
X183900000Y-121426190D02*
X183900000Y-120926190D01*
X184019047Y-120926190D01*
X184090476Y-120950000D01*
X184138095Y-120997619D01*
X184161904Y-121045238D01*
X184185714Y-121140476D01*
X184185714Y-121211904D01*
X184161904Y-121307142D01*
X184138095Y-121354761D01*
X184090476Y-121402380D01*
X184019047Y-121426190D01*
X183900000Y-121426190D01*
X184757142Y-121402380D02*
X184828571Y-121426190D01*
X184947619Y-121426190D01*
X184995238Y-121402380D01*
X185019047Y-121378571D01*
X185042857Y-121330952D01*
X185042857Y-121283333D01*
X185019047Y-121235714D01*
X184995238Y-121211904D01*
X184947619Y-121188095D01*
X184852380Y-121164285D01*
X184804761Y-121140476D01*
X184780952Y-121116666D01*
X184757142Y-121069047D01*
X184757142Y-121021428D01*
X184780952Y-120973809D01*
X184804761Y-120950000D01*
X184852380Y-120926190D01*
X184971428Y-120926190D01*
X185042857Y-120950000D01*
X185471428Y-121402380D02*
X185423809Y-121426190D01*
X185328571Y-121426190D01*
X185280952Y-121402380D01*
X185257142Y-121378571D01*
X185233333Y-121330952D01*
X185233333Y-121188095D01*
X185257142Y-121140476D01*
X185280952Y-121116666D01*
X185328571Y-121092857D01*
X185423809Y-121092857D01*
X185471428Y-121116666D01*
X185685714Y-121426190D02*
X185685714Y-121092857D01*
X185685714Y-121188095D02*
X185709523Y-121140476D01*
X185733333Y-121116666D01*
X185780952Y-121092857D01*
X185828571Y-121092857D01*
X186185714Y-121402380D02*
X186138095Y-121426190D01*
X186042857Y-121426190D01*
X185995238Y-121402380D01*
X185971428Y-121354761D01*
X185971428Y-121164285D01*
X185995238Y-121116666D01*
X186042857Y-121092857D01*
X186138095Y-121092857D01*
X186185714Y-121116666D01*
X186209523Y-121164285D01*
X186209523Y-121211904D01*
X185971428Y-121259523D01*
X186614285Y-121402380D02*
X186566666Y-121426190D01*
X186471428Y-121426190D01*
X186423809Y-121402380D01*
X186400000Y-121354761D01*
X186400000Y-121164285D01*
X186423809Y-121116666D01*
X186471428Y-121092857D01*
X186566666Y-121092857D01*
X186614285Y-121116666D01*
X186638095Y-121164285D01*
X186638095Y-121211904D01*
X186400000Y-121259523D01*
X186852380Y-121092857D02*
X186852380Y-121426190D01*
X186852380Y-121140476D02*
X186876190Y-121116666D01*
X186923809Y-121092857D01*
X186995238Y-121092857D01*
X187042857Y-121116666D01*
X187066666Y-121164285D01*
X187066666Y-121426190D01*
X187852380Y-121164285D02*
X187923809Y-121188095D01*
X187947619Y-121211904D01*
X187971428Y-121259523D01*
X187971428Y-121330952D01*
X187947619Y-121378571D01*
X187923809Y-121402380D01*
X187876190Y-121426190D01*
X187685714Y-121426190D01*
X187685714Y-120926190D01*
X187852380Y-120926190D01*
X187900000Y-120950000D01*
X187923809Y-120973809D01*
X187947619Y-121021428D01*
X187947619Y-121069047D01*
X187923809Y-121116666D01*
X187900000Y-121140476D01*
X187852380Y-121164285D01*
X187685714Y-121164285D01*
X188185714Y-121426190D02*
X188185714Y-121092857D01*
X188185714Y-121188095D02*
X188209523Y-121140476D01*
X188233333Y-121116666D01*
X188280952Y-121092857D01*
X188328571Y-121092857D01*
X188685714Y-121402380D02*
X188638095Y-121426190D01*
X188542857Y-121426190D01*
X188495238Y-121402380D01*
X188471428Y-121354761D01*
X188471428Y-121164285D01*
X188495238Y-121116666D01*
X188542857Y-121092857D01*
X188638095Y-121092857D01*
X188685714Y-121116666D01*
X188709523Y-121164285D01*
X188709523Y-121211904D01*
X188471428Y-121259523D01*
X189138095Y-121426190D02*
X189138095Y-121164285D01*
X189114285Y-121116666D01*
X189066666Y-121092857D01*
X188971428Y-121092857D01*
X188923809Y-121116666D01*
X189138095Y-121402380D02*
X189090476Y-121426190D01*
X188971428Y-121426190D01*
X188923809Y-121402380D01*
X188900000Y-121354761D01*
X188900000Y-121307142D01*
X188923809Y-121259523D01*
X188971428Y-121235714D01*
X189090476Y-121235714D01*
X189138095Y-121211904D01*
X189376190Y-121426190D02*
X189376190Y-120926190D01*
X189423809Y-121235714D02*
X189566666Y-121426190D01*
X189566666Y-121092857D02*
X189376190Y-121283333D01*
X189852380Y-121426190D02*
X189804761Y-121402380D01*
X189780952Y-121378571D01*
X189757142Y-121330952D01*
X189757142Y-121188095D01*
X189780952Y-121140476D01*
X189804761Y-121116666D01*
X189852380Y-121092857D01*
X189923809Y-121092857D01*
X189971428Y-121116666D01*
X189995238Y-121140476D01*
X190019047Y-121188095D01*
X190019047Y-121330952D01*
X189995238Y-121378571D01*
X189971428Y-121402380D01*
X189923809Y-121426190D01*
X189852380Y-121426190D01*
X190447619Y-121092857D02*
X190447619Y-121426190D01*
X190233333Y-121092857D02*
X190233333Y-121354761D01*
X190257142Y-121402380D01*
X190304761Y-121426190D01*
X190376190Y-121426190D01*
X190423809Y-121402380D01*
X190447619Y-121378571D01*
X190614285Y-121092857D02*
X190804761Y-121092857D01*
X190685714Y-120926190D02*
X190685714Y-121354761D01*
X190709523Y-121402380D01*
X190757142Y-121426190D01*
X190804761Y-121426190D01*
X191519047Y-121164285D02*
X191590476Y-121188095D01*
X191614285Y-121211904D01*
X191638095Y-121259523D01*
X191638095Y-121330952D01*
X191614285Y-121378571D01*
X191590476Y-121402380D01*
X191542857Y-121426190D01*
X191352380Y-121426190D01*
X191352380Y-120926190D01*
X191519047Y-120926190D01*
X191566666Y-120950000D01*
X191590476Y-120973809D01*
X191614285Y-121021428D01*
X191614285Y-121069047D01*
X191590476Y-121116666D01*
X191566666Y-121140476D01*
X191519047Y-121164285D01*
X191352380Y-121164285D01*
X191923809Y-121426190D02*
X191876190Y-121402380D01*
X191852380Y-121378571D01*
X191828571Y-121330952D01*
X191828571Y-121188095D01*
X191852380Y-121140476D01*
X191876190Y-121116666D01*
X191923809Y-121092857D01*
X191995238Y-121092857D01*
X192042857Y-121116666D01*
X192066666Y-121140476D01*
X192090476Y-121188095D01*
X192090476Y-121330952D01*
X192066666Y-121378571D01*
X192042857Y-121402380D01*
X191995238Y-121426190D01*
X191923809Y-121426190D01*
X192519047Y-121426190D02*
X192519047Y-121164285D01*
X192495238Y-121116666D01*
X192447619Y-121092857D01*
X192352380Y-121092857D01*
X192304761Y-121116666D01*
X192519047Y-121402380D02*
X192471428Y-121426190D01*
X192352380Y-121426190D01*
X192304761Y-121402380D01*
X192280952Y-121354761D01*
X192280952Y-121307142D01*
X192304761Y-121259523D01*
X192352380Y-121235714D01*
X192471428Y-121235714D01*
X192519047Y-121211904D01*
X192757142Y-121426190D02*
X192757142Y-121092857D01*
X192757142Y-121188095D02*
X192780952Y-121140476D01*
X192804761Y-121116666D01*
X192852380Y-121092857D01*
X192900000Y-121092857D01*
X193280952Y-121426190D02*
X193280952Y-120926190D01*
X193280952Y-121402380D02*
X193233333Y-121426190D01*
X193138095Y-121426190D01*
X193090476Y-121402380D01*
X193066666Y-121378571D01*
X193042857Y-121330952D01*
X193042857Y-121188095D01*
X193066666Y-121140476D01*
X193090476Y-121116666D01*
X193138095Y-121092857D01*
X193233333Y-121092857D01*
X193280952Y-121116666D01*
X183757142Y-121776190D02*
X183923809Y-122276190D01*
X184090476Y-121776190D01*
X184519047Y-122276190D02*
X184233333Y-122276190D01*
X184376190Y-122276190D02*
X184376190Y-121776190D01*
X184328571Y-121847619D01*
X184280952Y-121895238D01*
X184233333Y-121919047D01*
X184733333Y-122228571D02*
X184757142Y-122252380D01*
X184733333Y-122276190D01*
X184709523Y-122252380D01*
X184733333Y-122228571D01*
X184733333Y-122276190D01*
X185066666Y-121776190D02*
X185114285Y-121776190D01*
X185161904Y-121800000D01*
X185185714Y-121823809D01*
X185209523Y-121871428D01*
X185233333Y-121966666D01*
X185233333Y-122085714D01*
X185209523Y-122180952D01*
X185185714Y-122228571D01*
X185161904Y-122252380D01*
X185114285Y-122276190D01*
X185066666Y-122276190D01*
X185019047Y-122252380D01*
X184995238Y-122228571D01*
X184971428Y-122180952D01*
X184947619Y-122085714D01*
X184947619Y-121966666D01*
X184971428Y-121871428D01*
X184995238Y-121823809D01*
X185019047Y-121800000D01*
X185066666Y-121776190D01*
X185828571Y-122276190D02*
X185828571Y-121776190D01*
X185947619Y-121776190D01*
X186019047Y-121800000D01*
X186066666Y-121847619D01*
X186090476Y-121895238D01*
X186114285Y-121990476D01*
X186114285Y-122061904D01*
X186090476Y-122157142D01*
X186066666Y-122204761D01*
X186019047Y-122252380D01*
X185947619Y-122276190D01*
X185828571Y-122276190D01*
X186519047Y-122252380D02*
X186471428Y-122276190D01*
X186376190Y-122276190D01*
X186328571Y-122252380D01*
X186304761Y-122204761D01*
X186304761Y-122014285D01*
X186328571Y-121966666D01*
X186376190Y-121942857D01*
X186471428Y-121942857D01*
X186519047Y-121966666D01*
X186542857Y-122014285D01*
X186542857Y-122061904D01*
X186304761Y-122109523D01*
X186733333Y-122252380D02*
X186780952Y-122276190D01*
X186876190Y-122276190D01*
X186923809Y-122252380D01*
X186947619Y-122204761D01*
X186947619Y-122180952D01*
X186923809Y-122133333D01*
X186876190Y-122109523D01*
X186804761Y-122109523D01*
X186757142Y-122085714D01*
X186733333Y-122038095D01*
X186733333Y-122014285D01*
X186757142Y-121966666D01*
X186804761Y-121942857D01*
X186876190Y-121942857D01*
X186923809Y-121966666D01*
X187161904Y-122276190D02*
X187161904Y-121942857D01*
X187161904Y-121776190D02*
X187138095Y-121800000D01*
X187161904Y-121823809D01*
X187185714Y-121800000D01*
X187161904Y-121776190D01*
X187161904Y-121823809D01*
X187614285Y-121942857D02*
X187614285Y-122347619D01*
X187590476Y-122395238D01*
X187566666Y-122419047D01*
X187519047Y-122442857D01*
X187447619Y-122442857D01*
X187400000Y-122419047D01*
X187614285Y-122252380D02*
X187566666Y-122276190D01*
X187471428Y-122276190D01*
X187423809Y-122252380D01*
X187400000Y-122228571D01*
X187376190Y-122180952D01*
X187376190Y-122038095D01*
X187400000Y-121990476D01*
X187423809Y-121966666D01*
X187471428Y-121942857D01*
X187566666Y-121942857D01*
X187614285Y-121966666D01*
X187852380Y-121942857D02*
X187852380Y-122276190D01*
X187852380Y-121990476D02*
X187876190Y-121966666D01*
X187923809Y-121942857D01*
X187995238Y-121942857D01*
X188042857Y-121966666D01*
X188066666Y-122014285D01*
X188066666Y-122276190D01*
X188495238Y-122252380D02*
X188447619Y-122276190D01*
X188352380Y-122276190D01*
X188304761Y-122252380D01*
X188280952Y-122204761D01*
X188280952Y-122014285D01*
X188304761Y-121966666D01*
X188352380Y-121942857D01*
X188447619Y-121942857D01*
X188495238Y-121966666D01*
X188519047Y-122014285D01*
X188519047Y-122061904D01*
X188280952Y-122109523D01*
X188947619Y-122276190D02*
X188947619Y-121776190D01*
X188947619Y-122252380D02*
X188900000Y-122276190D01*
X188804761Y-122276190D01*
X188757142Y-122252380D01*
X188733333Y-122228571D01*
X188709523Y-122180952D01*
X188709523Y-122038095D01*
X188733333Y-121990476D01*
X188757142Y-121966666D01*
X188804761Y-121942857D01*
X188900000Y-121942857D01*
X188947619Y-121966666D01*
X189566666Y-122276190D02*
X189566666Y-121776190D01*
X189566666Y-121966666D02*
X189614285Y-121942857D01*
X189709523Y-121942857D01*
X189757142Y-121966666D01*
X189780952Y-121990476D01*
X189804761Y-122038095D01*
X189804761Y-122180952D01*
X189780952Y-122228571D01*
X189757142Y-122252380D01*
X189709523Y-122276190D01*
X189614285Y-122276190D01*
X189566666Y-122252380D01*
X189971428Y-121942857D02*
X190090476Y-122276190D01*
X190209523Y-121942857D02*
X190090476Y-122276190D01*
X190042857Y-122395238D01*
X190019047Y-122419047D01*
X189971428Y-122442857D01*
X190757142Y-122133333D02*
X190995238Y-122133333D01*
X190709523Y-122276190D02*
X190876190Y-121776190D01*
X191042857Y-122276190D01*
X191209523Y-122276190D02*
X191209523Y-121942857D01*
X191209523Y-122038095D02*
X191233333Y-121990476D01*
X191257142Y-121966666D01*
X191304761Y-121942857D01*
X191352380Y-121942857D01*
X191519047Y-122276190D02*
X191519047Y-121942857D01*
X191519047Y-121776190D02*
X191495238Y-121800000D01*
X191519047Y-121823809D01*
X191542857Y-121800000D01*
X191519047Y-121776190D01*
X191519047Y-121823809D01*
X191971428Y-122276190D02*
X191971428Y-122014285D01*
X191947619Y-121966666D01*
X191900000Y-121942857D01*
X191804761Y-121942857D01*
X191757142Y-121966666D01*
X191971428Y-122252380D02*
X191923809Y-122276190D01*
X191804761Y-122276190D01*
X191757142Y-122252380D01*
X191733333Y-122204761D01*
X191733333Y-122157142D01*
X191757142Y-122109523D01*
X191804761Y-122085714D01*
X191923809Y-122085714D01*
X191971428Y-122061904D01*
X180383333Y-103626190D02*
X180383333Y-103983333D01*
X180359523Y-104054761D01*
X180311904Y-104102380D01*
X180240476Y-104126190D01*
X180192857Y-104126190D01*
X180859523Y-104126190D02*
X180621428Y-104126190D01*
X180621428Y-103626190D01*
X181311904Y-104078571D02*
X181288095Y-104102380D01*
X181216666Y-104126190D01*
X181169047Y-104126190D01*
X181097619Y-104102380D01*
X181050000Y-104054761D01*
X181026190Y-104007142D01*
X181002380Y-103911904D01*
X181002380Y-103840476D01*
X181026190Y-103745238D01*
X181050000Y-103697619D01*
X181097619Y-103650000D01*
X181169047Y-103626190D01*
X181216666Y-103626190D01*
X181288095Y-103650000D01*
X181311904Y-103673809D01*
X181669047Y-103626190D02*
X181669047Y-103983333D01*
X181645238Y-104054761D01*
X181597619Y-104102380D01*
X181526190Y-104126190D01*
X181478571Y-104126190D01*
X182145238Y-104126190D02*
X181907142Y-104126190D01*
X181907142Y-103626190D01*
X182597619Y-104078571D02*
X182573809Y-104102380D01*
X182502380Y-104126190D01*
X182454761Y-104126190D01*
X182383333Y-104102380D01*
X182335714Y-104054761D01*
X182311904Y-104007142D01*
X182288095Y-103911904D01*
X182288095Y-103840476D01*
X182311904Y-103745238D01*
X182335714Y-103697619D01*
X182383333Y-103650000D01*
X182454761Y-103626190D01*
X182502380Y-103626190D01*
X182573809Y-103650000D01*
X182597619Y-103673809D01*
X182954761Y-103626190D02*
X182954761Y-103983333D01*
X182930952Y-104054761D01*
X182883333Y-104102380D01*
X182811904Y-104126190D01*
X182764285Y-104126190D01*
X183430952Y-104126190D02*
X183192857Y-104126190D01*
X183192857Y-103626190D01*
X183883333Y-104078571D02*
X183859523Y-104102380D01*
X183788095Y-104126190D01*
X183740476Y-104126190D01*
X183669047Y-104102380D01*
X183621428Y-104054761D01*
X183597619Y-104007142D01*
X183573809Y-103911904D01*
X183573809Y-103840476D01*
X183597619Y-103745238D01*
X183621428Y-103697619D01*
X183669047Y-103650000D01*
X183740476Y-103626190D01*
X183788095Y-103626190D01*
X183859523Y-103650000D01*
X183883333Y-103673809D01*
D11*
%TO.C,D1*%
X172500000Y-114150000D02*
X170500000Y-114150000D01*
X170500000Y-114150000D02*
X170500000Y-118050000D01*
X172500000Y-114150000D02*
X172500000Y-118050000D01*
%TO.C,R4*%
X173809997Y-113637222D02*
X173809997Y-113962780D01*
X172789997Y-113637222D02*
X172789997Y-113962780D01*
%TO.C,R3*%
X182787220Y-110690000D02*
X183112778Y-110690000D01*
X182787220Y-111710000D02*
X183112778Y-111710000D01*
%TO.C,R2*%
X182787221Y-109140000D02*
X183112779Y-109140000D01*
X182787221Y-110160000D02*
X183112779Y-110160000D01*
%TO.C,R1*%
X192387221Y-110940000D02*
X192712779Y-110940000D01*
X192387221Y-111960000D02*
X192712779Y-111960000D01*
%TO.C,C8*%
X179387221Y-111290000D02*
X179712779Y-111290000D01*
X179387221Y-112310000D02*
X179712779Y-112310000D01*
%TO.C,C7*%
X170875279Y-113510000D02*
X170549721Y-113510000D01*
X170875279Y-112490000D02*
X170549721Y-112490000D01*
%TO.C,C6*%
X179387220Y-109739998D02*
X179712778Y-109739998D01*
X179387220Y-110759998D02*
X179712778Y-110759998D01*
%TO.C,C5*%
X179387222Y-108189999D02*
X179712780Y-108189999D01*
X179387222Y-109209999D02*
X179712780Y-109209999D01*
%TO.C,C4*%
X192712780Y-108860001D02*
X192387222Y-108860001D01*
X192712780Y-107840001D02*
X192387222Y-107840001D01*
%TO.C,C3*%
X174512779Y-109260000D02*
X174187221Y-109260000D01*
X174512779Y-108240000D02*
X174187221Y-108240000D01*
%TO.C,C2*%
X192712780Y-110410000D02*
X192387222Y-110410000D01*
X192712780Y-109390000D02*
X192387222Y-109390000D01*
%TO.C,C1*%
X172950279Y-110810000D02*
X172624721Y-110810000D01*
X172950279Y-109790000D02*
X172624721Y-109790000D01*
D12*
%TO.C,G\u002A\u002A\u002A*%
G36*
X190625192Y-117233035D02*
G01*
X190632612Y-117288769D01*
X190635905Y-117373644D01*
X190636000Y-117392916D01*
X190633916Y-117474217D01*
X190628355Y-117536398D01*
X190620354Y-117569743D01*
X190616814Y-117572833D01*
X190605831Y-117589655D01*
X190608513Y-117614453D01*
X190610150Y-117661442D01*
X190600993Y-117729175D01*
X190584583Y-117802017D01*
X190564458Y-117864330D01*
X190544157Y-117900481D01*
X190543675Y-117900916D01*
X190520809Y-117939437D01*
X190516620Y-117959262D01*
X190503809Y-118002380D01*
X190474022Y-118065635D01*
X190433076Y-118139636D01*
X190386786Y-118214997D01*
X190340971Y-118282327D01*
X190301445Y-118332239D01*
X190274026Y-118355343D01*
X190270879Y-118355930D01*
X190253572Y-118360070D01*
X190243305Y-118377623D01*
X190238905Y-118416409D01*
X190239199Y-118484246D01*
X190241516Y-118551791D01*
X190241254Y-118759081D01*
X190225378Y-118962312D01*
X190195319Y-119147510D01*
X190170294Y-119246798D01*
X190121835Y-119363585D01*
X190051644Y-119473086D01*
X189968812Y-119563155D01*
X189893794Y-119616126D01*
X189817315Y-119639927D01*
X189729789Y-119644792D01*
X189651641Y-119630424D01*
X189628820Y-119619958D01*
X189530354Y-119548822D01*
X189453319Y-119458356D01*
X189413068Y-119391336D01*
X189375195Y-119309270D01*
X189339308Y-119210823D01*
X189309251Y-119109199D01*
X189288863Y-119017601D01*
X189284443Y-118973646D01*
X189373533Y-118973646D01*
X189378032Y-119055369D01*
X189387582Y-119119714D01*
X189387910Y-119121100D01*
X189438256Y-119279124D01*
X189506355Y-119414230D01*
X189587680Y-119517698D01*
X189599617Y-119528940D01*
X189676560Y-119584899D01*
X189747697Y-119603191D01*
X189822058Y-119584004D01*
X189898812Y-119535143D01*
X189995139Y-119435534D01*
X190070486Y-119299366D01*
X190124777Y-119126891D01*
X190157934Y-118918363D01*
X190169879Y-118674035D01*
X190169910Y-118649934D01*
X190165530Y-118527670D01*
X190154027Y-118400451D01*
X190137021Y-118279081D01*
X190116133Y-118174364D01*
X190092983Y-118097105D01*
X190084006Y-118077336D01*
X190048006Y-118033234D01*
X189986418Y-117978856D01*
X189911330Y-117923236D01*
X189834827Y-117875405D01*
X189775392Y-117846723D01*
X189718057Y-117833770D01*
X189671506Y-117847305D01*
X189629392Y-117891961D01*
X189585368Y-117972368D01*
X189576277Y-117992040D01*
X189539581Y-118086167D01*
X189503489Y-118201363D01*
X189471298Y-118324363D01*
X189446304Y-118441901D01*
X189431806Y-118540711D01*
X189429500Y-118582550D01*
X189424383Y-118629788D01*
X189411897Y-118652073D01*
X189410233Y-118652333D01*
X189396578Y-118671814D01*
X189385607Y-118723628D01*
X189377794Y-118797832D01*
X189373611Y-118884486D01*
X189373533Y-118973646D01*
X189284443Y-118973646D01*
X189281987Y-118949231D01*
X189282342Y-118941995D01*
X189283736Y-118899267D01*
X189272971Y-118881213D01*
X189241000Y-118884810D01*
X189178775Y-118907036D01*
X189178262Y-118907230D01*
X189114173Y-118926804D01*
X189021877Y-118948959D01*
X188915122Y-118970605D01*
X188834304Y-118984572D01*
X188713702Y-118999346D01*
X188566997Y-119010480D01*
X188402852Y-119017958D01*
X188229930Y-119021764D01*
X188056892Y-119021879D01*
X187892401Y-119018288D01*
X187745121Y-119010974D01*
X187623712Y-118999920D01*
X187545090Y-118987071D01*
X187406931Y-118955812D01*
X187348567Y-119109739D01*
X187270323Y-119281337D01*
X187178719Y-119415174D01*
X187070511Y-119514598D01*
X186942454Y-119582955D01*
X186865985Y-119607586D01*
X186800267Y-119621418D01*
X186751862Y-119618523D01*
X186698347Y-119596772D01*
X186686068Y-119590496D01*
X186624895Y-119548681D01*
X186576083Y-119498355D01*
X186568148Y-119486352D01*
X186528829Y-119397165D01*
X186494112Y-119278800D01*
X186466771Y-119144373D01*
X186449580Y-119006997D01*
X186445000Y-118904073D01*
X186445000Y-118793518D01*
X186511707Y-118793518D01*
X186514067Y-118893280D01*
X186515056Y-118916916D01*
X186526172Y-119068631D01*
X186546608Y-119196354D01*
X186579241Y-119317935D01*
X186580205Y-119320948D01*
X186625098Y-119440424D01*
X186673142Y-119520413D01*
X186729399Y-119563715D01*
X186798928Y-119573132D01*
X186886789Y-119551468D01*
X186949199Y-119525276D01*
X187032434Y-119475125D01*
X187105607Y-119404003D01*
X187172054Y-119306859D01*
X187235111Y-119178641D01*
X187298111Y-119014297D01*
X187310537Y-118978015D01*
X187392730Y-118704199D01*
X187444682Y-118459947D01*
X187466394Y-118245195D01*
X187457868Y-118059883D01*
X187419104Y-117903948D01*
X187350102Y-117777330D01*
X187323422Y-117744960D01*
X187229503Y-117664278D01*
X187133329Y-117625473D01*
X187037713Y-117628393D01*
X186945470Y-117672885D01*
X186859413Y-117758798D01*
X186850640Y-117770504D01*
X186762458Y-117899215D01*
X186695035Y-118018943D01*
X186642227Y-118143530D01*
X186597894Y-118286816D01*
X186568442Y-118406398D01*
X186541399Y-118529434D01*
X186523906Y-118625618D01*
X186514498Y-118708972D01*
X186511707Y-118793518D01*
X186445000Y-118793518D01*
X186445000Y-118719286D01*
X186365625Y-118670299D01*
X186258856Y-118593594D01*
X186160412Y-118503418D01*
X186084411Y-118413004D01*
X186073290Y-118396284D01*
X185960796Y-118205399D01*
X185868249Y-118022100D01*
X185799562Y-117854618D01*
X185769108Y-117756394D01*
X185740975Y-117622572D01*
X185728661Y-117503040D01*
X185731693Y-117403356D01*
X185749597Y-117329075D01*
X185781900Y-117285753D01*
X185810000Y-117276838D01*
X185814338Y-117296432D01*
X185817908Y-117349731D01*
X185820289Y-117428107D01*
X185821058Y-117504056D01*
X185824061Y-117625818D01*
X185834596Y-117729156D01*
X185855790Y-117824521D01*
X185890773Y-117922360D01*
X185942674Y-118033123D01*
X186014620Y-118167259D01*
X186025445Y-118186666D01*
X186085879Y-118285684D01*
X186154427Y-118383489D01*
X186225818Y-118474080D01*
X186294780Y-118551455D01*
X186356040Y-118609615D01*
X186404326Y-118642557D01*
X186429717Y-118646844D01*
X186443877Y-118623684D01*
X186460654Y-118569123D01*
X186476974Y-118493709D01*
X186480917Y-118471055D01*
X186515591Y-118309048D01*
X186563072Y-118156031D01*
X186618855Y-118025451D01*
X186647066Y-117975000D01*
X186685680Y-117910997D01*
X186730478Y-117834290D01*
X186749503Y-117800937D01*
X186823883Y-117704225D01*
X186895354Y-117649554D01*
X186994365Y-117600974D01*
X187077796Y-117582146D01*
X187158737Y-117591672D01*
X187221567Y-117614748D01*
X187321189Y-117666960D01*
X187394482Y-117727835D01*
X187447888Y-117806254D01*
X187487850Y-117911098D01*
X187514034Y-118017894D01*
X187534505Y-118133179D01*
X187542935Y-118237258D01*
X187538694Y-118342286D01*
X187521156Y-118460423D01*
X187489691Y-118603824D01*
X187482166Y-118634610D01*
X187457983Y-118733414D01*
X187438040Y-118816838D01*
X187424294Y-118876554D01*
X187418703Y-118904234D01*
X187418666Y-118904841D01*
X187438738Y-118916569D01*
X187494841Y-118930659D01*
X187580803Y-118946126D01*
X187690455Y-118961986D01*
X187817626Y-118977255D01*
X187956146Y-118990950D01*
X187961641Y-118991434D01*
X188066230Y-118999505D01*
X188156751Y-119003194D01*
X188244784Y-119002089D01*
X188341911Y-118995778D01*
X188459713Y-118983850D01*
X188581273Y-118969415D01*
X188806345Y-118938518D01*
X188989242Y-118906360D01*
X189130105Y-118872904D01*
X189229077Y-118838108D01*
X189286298Y-118801934D01*
X189302228Y-118768862D01*
X189306318Y-118728094D01*
X189317358Y-118659871D01*
X189333075Y-118578054D01*
X189335233Y-118567666D01*
X189355171Y-118472170D01*
X189375062Y-118376294D01*
X189390129Y-118303083D01*
X189435753Y-118122423D01*
X189492084Y-117978137D01*
X189561209Y-117865152D01*
X189579437Y-117842708D01*
X189630560Y-117789698D01*
X189676551Y-117753267D01*
X189703161Y-117742166D01*
X189756482Y-117755127D01*
X189827459Y-117789715D01*
X189907490Y-117839492D01*
X189987972Y-117898016D01*
X190060303Y-117958848D01*
X190115881Y-118015547D01*
X190146102Y-118061674D01*
X190149166Y-118076060D01*
X190155426Y-118111657D01*
X190171396Y-118170808D01*
X190183218Y-118208735D01*
X190204470Y-118268623D01*
X190221219Y-118295003D01*
X190240520Y-118295092D01*
X190257458Y-118284693D01*
X190283613Y-118254629D01*
X190322231Y-118195893D01*
X190367395Y-118117948D01*
X190399461Y-118057564D01*
X190480971Y-117870400D01*
X190540616Y-117674773D01*
X190574180Y-117485747D01*
X190579373Y-117414977D01*
X190585159Y-117357834D01*
X190595557Y-117323396D01*
X190601252Y-117318833D01*
X190610322Y-117301484D01*
X190606141Y-117265916D01*
X190603161Y-117225782D01*
X190614430Y-117213000D01*
X190625192Y-117233035D01*
G37*
X190625192Y-117233035D02*
X190632612Y-117288769D01*
X190635905Y-117373644D01*
X190636000Y-117392916D01*
X190633916Y-117474217D01*
X190628355Y-117536398D01*
X190620354Y-117569743D01*
X190616814Y-117572833D01*
X190605831Y-117589655D01*
X190608513Y-117614453D01*
X190610150Y-117661442D01*
X190600993Y-117729175D01*
X190584583Y-117802017D01*
X190564458Y-117864330D01*
X190544157Y-117900481D01*
X190543675Y-117900916D01*
X190520809Y-117939437D01*
X190516620Y-117959262D01*
X190503809Y-118002380D01*
X190474022Y-118065635D01*
X190433076Y-118139636D01*
X190386786Y-118214997D01*
X190340971Y-118282327D01*
X190301445Y-118332239D01*
X190274026Y-118355343D01*
X190270879Y-118355930D01*
X190253572Y-118360070D01*
X190243305Y-118377623D01*
X190238905Y-118416409D01*
X190239199Y-118484246D01*
X190241516Y-118551791D01*
X190241254Y-118759081D01*
X190225378Y-118962312D01*
X190195319Y-119147510D01*
X190170294Y-119246798D01*
X190121835Y-119363585D01*
X190051644Y-119473086D01*
X189968812Y-119563155D01*
X189893794Y-119616126D01*
X189817315Y-119639927D01*
X189729789Y-119644792D01*
X189651641Y-119630424D01*
X189628820Y-119619958D01*
X189530354Y-119548822D01*
X189453319Y-119458356D01*
X189413068Y-119391336D01*
X189375195Y-119309270D01*
X189339308Y-119210823D01*
X189309251Y-119109199D01*
X189288863Y-119017601D01*
X189284443Y-118973646D01*
X189373533Y-118973646D01*
X189378032Y-119055369D01*
X189387582Y-119119714D01*
X189387910Y-119121100D01*
X189438256Y-119279124D01*
X189506355Y-119414230D01*
X189587680Y-119517698D01*
X189599617Y-119528940D01*
X189676560Y-119584899D01*
X189747697Y-119603191D01*
X189822058Y-119584004D01*
X189898812Y-119535143D01*
X189995139Y-119435534D01*
X190070486Y-119299366D01*
X190124777Y-119126891D01*
X190157934Y-118918363D01*
X190169879Y-118674035D01*
X190169910Y-118649934D01*
X190165530Y-118527670D01*
X190154027Y-118400451D01*
X190137021Y-118279081D01*
X190116133Y-118174364D01*
X190092983Y-118097105D01*
X190084006Y-118077336D01*
X190048006Y-118033234D01*
X189986418Y-117978856D01*
X189911330Y-117923236D01*
X189834827Y-117875405D01*
X189775392Y-117846723D01*
X189718057Y-117833770D01*
X189671506Y-117847305D01*
X189629392Y-117891961D01*
X189585368Y-117972368D01*
X189576277Y-117992040D01*
X189539581Y-118086167D01*
X189503489Y-118201363D01*
X189471298Y-118324363D01*
X189446304Y-118441901D01*
X189431806Y-118540711D01*
X189429500Y-118582550D01*
X189424383Y-118629788D01*
X189411897Y-118652073D01*
X189410233Y-118652333D01*
X189396578Y-118671814D01*
X189385607Y-118723628D01*
X189377794Y-118797832D01*
X189373611Y-118884486D01*
X189373533Y-118973646D01*
X189284443Y-118973646D01*
X189281987Y-118949231D01*
X189282342Y-118941995D01*
X189283736Y-118899267D01*
X189272971Y-118881213D01*
X189241000Y-118884810D01*
X189178775Y-118907036D01*
X189178262Y-118907230D01*
X189114173Y-118926804D01*
X189021877Y-118948959D01*
X188915122Y-118970605D01*
X188834304Y-118984572D01*
X188713702Y-118999346D01*
X188566997Y-119010480D01*
X188402852Y-119017958D01*
X188229930Y-119021764D01*
X188056892Y-119021879D01*
X187892401Y-119018288D01*
X187745121Y-119010974D01*
X187623712Y-118999920D01*
X187545090Y-118987071D01*
X187406931Y-118955812D01*
X187348567Y-119109739D01*
X187270323Y-119281337D01*
X187178719Y-119415174D01*
X187070511Y-119514598D01*
X186942454Y-119582955D01*
X186865985Y-119607586D01*
X186800267Y-119621418D01*
X186751862Y-119618523D01*
X186698347Y-119596772D01*
X186686068Y-119590496D01*
X186624895Y-119548681D01*
X186576083Y-119498355D01*
X186568148Y-119486352D01*
X186528829Y-119397165D01*
X186494112Y-119278800D01*
X186466771Y-119144373D01*
X186449580Y-119006997D01*
X186445000Y-118904073D01*
X186445000Y-118793518D01*
X186511707Y-118793518D01*
X186514067Y-118893280D01*
X186515056Y-118916916D01*
X186526172Y-119068631D01*
X186546608Y-119196354D01*
X186579241Y-119317935D01*
X186580205Y-119320948D01*
X186625098Y-119440424D01*
X186673142Y-119520413D01*
X186729399Y-119563715D01*
X186798928Y-119573132D01*
X186886789Y-119551468D01*
X186949199Y-119525276D01*
X187032434Y-119475125D01*
X187105607Y-119404003D01*
X187172054Y-119306859D01*
X187235111Y-119178641D01*
X187298111Y-119014297D01*
X187310537Y-118978015D01*
X187392730Y-118704199D01*
X187444682Y-118459947D01*
X187466394Y-118245195D01*
X187457868Y-118059883D01*
X187419104Y-117903948D01*
X187350102Y-117777330D01*
X187323422Y-117744960D01*
X187229503Y-117664278D01*
X187133329Y-117625473D01*
X187037713Y-117628393D01*
X186945470Y-117672885D01*
X186859413Y-117758798D01*
X186850640Y-117770504D01*
X186762458Y-117899215D01*
X186695035Y-118018943D01*
X186642227Y-118143530D01*
X186597894Y-118286816D01*
X186568442Y-118406398D01*
X186541399Y-118529434D01*
X186523906Y-118625618D01*
X186514498Y-118708972D01*
X186511707Y-118793518D01*
X186445000Y-118793518D01*
X186445000Y-118719286D01*
X186365625Y-118670299D01*
X186258856Y-118593594D01*
X186160412Y-118503418D01*
X186084411Y-118413004D01*
X186073290Y-118396284D01*
X185960796Y-118205399D01*
X185868249Y-118022100D01*
X185799562Y-117854618D01*
X185769108Y-117756394D01*
X185740975Y-117622572D01*
X185728661Y-117503040D01*
X185731693Y-117403356D01*
X185749597Y-117329075D01*
X185781900Y-117285753D01*
X185810000Y-117276838D01*
X185814338Y-117296432D01*
X185817908Y-117349731D01*
X185820289Y-117428107D01*
X185821058Y-117504056D01*
X185824061Y-117625818D01*
X185834596Y-117729156D01*
X185855790Y-117824521D01*
X185890773Y-117922360D01*
X185942674Y-118033123D01*
X186014620Y-118167259D01*
X186025445Y-118186666D01*
X186085879Y-118285684D01*
X186154427Y-118383489D01*
X186225818Y-118474080D01*
X186294780Y-118551455D01*
X186356040Y-118609615D01*
X186404326Y-118642557D01*
X186429717Y-118646844D01*
X186443877Y-118623684D01*
X186460654Y-118569123D01*
X186476974Y-118493709D01*
X186480917Y-118471055D01*
X186515591Y-118309048D01*
X186563072Y-118156031D01*
X186618855Y-118025451D01*
X186647066Y-117975000D01*
X186685680Y-117910997D01*
X186730478Y-117834290D01*
X186749503Y-117800937D01*
X186823883Y-117704225D01*
X186895354Y-117649554D01*
X186994365Y-117600974D01*
X187077796Y-117582146D01*
X187158737Y-117591672D01*
X187221567Y-117614748D01*
X187321189Y-117666960D01*
X187394482Y-117727835D01*
X187447888Y-117806254D01*
X187487850Y-117911098D01*
X187514034Y-118017894D01*
X187534505Y-118133179D01*
X187542935Y-118237258D01*
X187538694Y-118342286D01*
X187521156Y-118460423D01*
X187489691Y-118603824D01*
X187482166Y-118634610D01*
X187457983Y-118733414D01*
X187438040Y-118816838D01*
X187424294Y-118876554D01*
X187418703Y-118904234D01*
X187418666Y-118904841D01*
X187438738Y-118916569D01*
X187494841Y-118930659D01*
X187580803Y-118946126D01*
X187690455Y-118961986D01*
X187817626Y-118977255D01*
X187956146Y-118990950D01*
X187961641Y-118991434D01*
X188066230Y-118999505D01*
X188156751Y-119003194D01*
X188244784Y-119002089D01*
X188341911Y-118995778D01*
X188459713Y-118983850D01*
X188581273Y-118969415D01*
X188806345Y-118938518D01*
X188989242Y-118906360D01*
X189130105Y-118872904D01*
X189229077Y-118838108D01*
X189286298Y-118801934D01*
X189302228Y-118768862D01*
X189306318Y-118728094D01*
X189317358Y-118659871D01*
X189333075Y-118578054D01*
X189335233Y-118567666D01*
X189355171Y-118472170D01*
X189375062Y-118376294D01*
X189390129Y-118303083D01*
X189435753Y-118122423D01*
X189492084Y-117978137D01*
X189561209Y-117865152D01*
X189579437Y-117842708D01*
X189630560Y-117789698D01*
X189676551Y-117753267D01*
X189703161Y-117742166D01*
X189756482Y-117755127D01*
X189827459Y-117789715D01*
X189907490Y-117839492D01*
X189987972Y-117898016D01*
X190060303Y-117958848D01*
X190115881Y-118015547D01*
X190146102Y-118061674D01*
X190149166Y-118076060D01*
X190155426Y-118111657D01*
X190171396Y-118170808D01*
X190183218Y-118208735D01*
X190204470Y-118268623D01*
X190221219Y-118295003D01*
X190240520Y-118295092D01*
X190257458Y-118284693D01*
X190283613Y-118254629D01*
X190322231Y-118195893D01*
X190367395Y-118117948D01*
X190399461Y-118057564D01*
X190480971Y-117870400D01*
X190540616Y-117674773D01*
X190574180Y-117485747D01*
X190579373Y-117414977D01*
X190585159Y-117357834D01*
X190595557Y-117323396D01*
X190601252Y-117318833D01*
X190610322Y-117301484D01*
X190606141Y-117265916D01*
X190603161Y-117225782D01*
X190614430Y-117213000D01*
X190625192Y-117233035D01*
G36*
X185827478Y-117208776D02*
G01*
X185831166Y-117223583D01*
X185814223Y-117251645D01*
X185799416Y-117255333D01*
X185771354Y-117238390D01*
X185767666Y-117223583D01*
X185784609Y-117195521D01*
X185799416Y-117191833D01*
X185827478Y-117208776D01*
G37*
X185827478Y-117208776D02*
X185831166Y-117223583D01*
X185814223Y-117251645D01*
X185799416Y-117255333D01*
X185771354Y-117238390D01*
X185767666Y-117223583D01*
X185784609Y-117195521D01*
X185799416Y-117191833D01*
X185827478Y-117208776D01*
G36*
X185865665Y-112167473D02*
G01*
X185873500Y-112187479D01*
X185882588Y-112218983D01*
X185907239Y-112279028D01*
X185943533Y-112358572D01*
X185981323Y-112436187D01*
X186062371Y-112587975D01*
X186145572Y-112719932D01*
X186242404Y-112849146D01*
X186324563Y-112947255D01*
X186397256Y-113031260D01*
X186631813Y-112909390D01*
X186843660Y-112812061D01*
X187071243Y-112730312D01*
X187307528Y-112665209D01*
X187545483Y-112617817D01*
X187778073Y-112589204D01*
X187998266Y-112580435D01*
X188199026Y-112592576D01*
X188373321Y-112626694D01*
X188413500Y-112639318D01*
X188457001Y-112653468D01*
X188528598Y-112675923D01*
X188615844Y-112702798D01*
X188656916Y-112715305D01*
X188814401Y-112767295D01*
X188963358Y-112824362D01*
X189095232Y-112882768D01*
X189201473Y-112938772D01*
X189264217Y-112980879D01*
X189316936Y-113018120D01*
X189360041Y-113040380D01*
X189372408Y-113043166D01*
X189397419Y-113027227D01*
X189440131Y-112984374D01*
X189493515Y-112922054D01*
X189527107Y-112879254D01*
X189602268Y-112782980D01*
X189688531Y-112676341D01*
X189769519Y-112579514D01*
X189784041Y-112562643D01*
X189841277Y-112494248D01*
X189886045Y-112436316D01*
X189912161Y-112397086D01*
X189916333Y-112386416D01*
X189933732Y-112370522D01*
X189961730Y-112369652D01*
X189995056Y-112387251D01*
X190025808Y-112434028D01*
X190050394Y-112492833D01*
X190084749Y-112572549D01*
X190131903Y-112666203D01*
X190177697Y-112746833D01*
X190280198Y-112916702D01*
X190359441Y-113052585D01*
X190415291Y-113154237D01*
X190447613Y-113221413D01*
X190456275Y-113253867D01*
X190455634Y-113255559D01*
X190458873Y-113283321D01*
X190480651Y-113331327D01*
X190494308Y-113354587D01*
X190538016Y-113435439D01*
X190586065Y-113542220D01*
X190632258Y-113659861D01*
X190670397Y-113773291D01*
X190679594Y-113805166D01*
X190691063Y-113866838D01*
X190701073Y-113956925D01*
X190708293Y-114061509D01*
X190710907Y-114132743D01*
X190716075Y-114365069D01*
X190914162Y-114401540D01*
X190994106Y-114418147D01*
X191082624Y-114439567D01*
X191173414Y-114463831D01*
X191260171Y-114488968D01*
X191336590Y-114513007D01*
X191396366Y-114533978D01*
X191433196Y-114549909D01*
X191440774Y-114558830D01*
X191419166Y-114559399D01*
X191366121Y-114551041D01*
X191285850Y-114534058D01*
X191191841Y-114511415D01*
X191144000Y-114498923D01*
X191046408Y-114473613D01*
X190954185Y-114451245D01*
X190881640Y-114435228D01*
X190858250Y-114430836D01*
X190794875Y-114419222D01*
X190745396Y-114408353D01*
X190738453Y-114406468D01*
X190709441Y-114412131D01*
X190685322Y-114452457D01*
X190678135Y-114472515D01*
X190663681Y-114523234D01*
X190659428Y-114553284D01*
X190660348Y-114555776D01*
X190682202Y-114566950D01*
X190732074Y-114589360D01*
X190794750Y-114616277D01*
X190890053Y-114657921D01*
X190992221Y-114705003D01*
X191095507Y-114754563D01*
X191194167Y-114803638D01*
X191282457Y-114849268D01*
X191354633Y-114888491D01*
X191404948Y-114918347D01*
X191427660Y-114935875D01*
X191420385Y-114938772D01*
X191374086Y-114924912D01*
X191299805Y-114895887D01*
X191207276Y-114855761D01*
X191106231Y-114808595D01*
X191092301Y-114801828D01*
X190932035Y-114724593D01*
X190808413Y-114667282D01*
X190720866Y-114629645D01*
X190668824Y-114611428D01*
X190656846Y-114609500D01*
X190634293Y-114626695D01*
X190625155Y-114664351D01*
X190633797Y-114701574D01*
X190636754Y-114705658D01*
X190664004Y-114729469D01*
X190716923Y-114769189D01*
X190785733Y-114817578D01*
X190811744Y-114835212D01*
X190910820Y-114902631D01*
X191018605Y-114977509D01*
X191128455Y-115055062D01*
X191233727Y-115130508D01*
X191327777Y-115199064D01*
X191403961Y-115255948D01*
X191455634Y-115296376D01*
X191471495Y-115310146D01*
X191501400Y-115342917D01*
X191500975Y-115353584D01*
X191474273Y-115344739D01*
X191425346Y-115318976D01*
X191358248Y-115278887D01*
X191277030Y-115227065D01*
X191185744Y-115166104D01*
X191088445Y-115098596D01*
X190989184Y-115027134D01*
X190892014Y-114954311D01*
X190800988Y-114882720D01*
X190791844Y-114875293D01*
X190744918Y-114840949D01*
X190710101Y-114822289D01*
X190704478Y-114821166D01*
X190674763Y-114806582D01*
X190657166Y-114789416D01*
X190622925Y-114765795D01*
X190583294Y-114758183D01*
X190555459Y-114768134D01*
X190551333Y-114779850D01*
X190536235Y-114827539D01*
X190495894Y-114892989D01*
X190437744Y-114967044D01*
X190369215Y-115040547D01*
X190297739Y-115104343D01*
X190272617Y-115123241D01*
X190163411Y-115196322D01*
X190063090Y-115255323D01*
X189976768Y-115297994D01*
X189909559Y-115322083D01*
X189866579Y-115325339D01*
X189852833Y-115308000D01*
X189835689Y-115289221D01*
X189821083Y-115286833D01*
X189794577Y-115292469D01*
X189796416Y-115312551D01*
X189828453Y-115351841D01*
X189858125Y-115381896D01*
X189902776Y-115436102D01*
X189962905Y-115525173D01*
X190036370Y-115645484D01*
X190121027Y-115793407D01*
X190214733Y-115965316D01*
X190307368Y-116142074D01*
X190353028Y-116239363D01*
X190400416Y-116355420D01*
X190447620Y-116483755D01*
X190492730Y-116617877D01*
X190533835Y-116751296D01*
X190569026Y-116877522D01*
X190596392Y-116990063D01*
X190614022Y-117082428D01*
X190620006Y-117148128D01*
X190612923Y-117180191D01*
X190597831Y-117180646D01*
X190593666Y-117153733D01*
X190594408Y-117110643D01*
X190595474Y-117093658D01*
X190581926Y-117072087D01*
X190570663Y-117063698D01*
X190546421Y-117033535D01*
X190523054Y-116982114D01*
X190521230Y-116976664D01*
X190503726Y-116934015D01*
X190478020Y-116911140D01*
X190430604Y-116899457D01*
X190392583Y-116894924D01*
X190305898Y-116873043D01*
X190206738Y-116829139D01*
X190111548Y-116772102D01*
X190036772Y-116710824D01*
X190022166Y-116694644D01*
X189990861Y-116666528D01*
X189933482Y-116623358D01*
X189859924Y-116572401D01*
X189820198Y-116546292D01*
X189736299Y-116487782D01*
X189658583Y-116425951D01*
X189599718Y-116371146D01*
X189584499Y-116353776D01*
X189534348Y-116285203D01*
X189482176Y-116205366D01*
X189433704Y-116124142D01*
X189394647Y-116051403D01*
X189370726Y-115997025D01*
X189366000Y-115976480D01*
X189364085Y-115959876D01*
X189429500Y-115959876D01*
X189445356Y-116028721D01*
X189488852Y-116115232D01*
X189553872Y-116211525D01*
X189634305Y-116309713D01*
X189724036Y-116401911D01*
X189816953Y-116480232D01*
X189851903Y-116504767D01*
X189936568Y-116563450D01*
X190022196Y-116627485D01*
X190090454Y-116683155D01*
X190091275Y-116683876D01*
X190189799Y-116758496D01*
X190291733Y-116814872D01*
X190385461Y-116847226D01*
X190430584Y-116852701D01*
X190468528Y-116850086D01*
X190482188Y-116833345D01*
X190478468Y-116790368D01*
X190475575Y-116773791D01*
X190453464Y-116683070D01*
X190417289Y-116571538D01*
X190370760Y-116447633D01*
X190317588Y-116319786D01*
X190261484Y-116196435D01*
X190206157Y-116086013D01*
X190155318Y-115996955D01*
X190112678Y-115937696D01*
X190103742Y-115928533D01*
X190053937Y-115893287D01*
X189977439Y-115851076D01*
X189887741Y-115808252D01*
X189798334Y-115771166D01*
X189722709Y-115746171D01*
X189709689Y-115743019D01*
X189632301Y-115745160D01*
X189554435Y-115778031D01*
X189487327Y-115832935D01*
X189442210Y-115901177D01*
X189429500Y-115959876D01*
X189364085Y-115959876D01*
X189363361Y-115953608D01*
X189351298Y-115947078D01*
X189323590Y-115959438D01*
X189274019Y-115993238D01*
X189210970Y-116040037D01*
X189083386Y-116124421D01*
X188929644Y-116208258D01*
X188765352Y-116284073D01*
X188606116Y-116344394D01*
X188524778Y-116368669D01*
X188407566Y-116390864D01*
X188260455Y-116405760D01*
X188095289Y-116413097D01*
X187923914Y-116412612D01*
X187758174Y-116404045D01*
X187619750Y-116388636D01*
X187472973Y-116361170D01*
X187309180Y-116321431D01*
X187143458Y-116273735D01*
X186990896Y-116222396D01*
X186875482Y-116175814D01*
X186804900Y-116144739D01*
X186749608Y-116122113D01*
X186720610Y-116112419D01*
X186719594Y-116112333D01*
X186705842Y-116130857D01*
X186691864Y-116176705D01*
X186689173Y-116189828D01*
X186678676Y-116222806D01*
X186656453Y-116261923D01*
X186618711Y-116311785D01*
X186561656Y-116376998D01*
X186481495Y-116462167D01*
X186374609Y-116571720D01*
X186268001Y-116678926D01*
X186185348Y-116759337D01*
X186121704Y-116817097D01*
X186072126Y-116856347D01*
X186031671Y-116881230D01*
X185995395Y-116895889D01*
X185983931Y-116899079D01*
X185919899Y-116921084D01*
X185880538Y-116954456D01*
X185856455Y-117010644D01*
X185843576Y-117070125D01*
X185829653Y-117121032D01*
X185813014Y-117148137D01*
X185809040Y-117149500D01*
X185794010Y-117130194D01*
X185790006Y-117076171D01*
X185795927Y-116993274D01*
X185810673Y-116887346D01*
X185827345Y-116795997D01*
X185854237Y-116795997D01*
X185859319Y-116819675D01*
X185871524Y-116861053D01*
X185873500Y-116876064D01*
X185886643Y-116894448D01*
X185924673Y-116880747D01*
X185963942Y-116853166D01*
X186006752Y-116823717D01*
X186036087Y-116810854D01*
X186036716Y-116810833D01*
X186056928Y-116796554D01*
X186100563Y-116757639D01*
X186161704Y-116699969D01*
X186234435Y-116629428D01*
X186312842Y-116551896D01*
X186391008Y-116473257D01*
X186463018Y-116399392D01*
X186522955Y-116336184D01*
X186564904Y-116289515D01*
X186579551Y-116271083D01*
X186605130Y-116219777D01*
X186624057Y-116159212D01*
X186629581Y-116114196D01*
X186617877Y-116078706D01*
X186582242Y-116037993D01*
X186559126Y-116016337D01*
X186504177Y-115973723D01*
X186453846Y-115947270D01*
X186434103Y-115943000D01*
X186394545Y-115955213D01*
X186335582Y-115987092D01*
X186275666Y-116027666D01*
X186212256Y-116071121D01*
X186157816Y-116101666D01*
X186125979Y-116112333D01*
X186104628Y-116124031D01*
X186079983Y-116162388D01*
X186049519Y-116232292D01*
X186013966Y-116329291D01*
X185980697Y-116428398D01*
X185951662Y-116521987D01*
X185930723Y-116597226D01*
X185923159Y-116630916D01*
X185913033Y-116681973D01*
X185905158Y-116695317D01*
X185895389Y-116675082D01*
X185891338Y-116662666D01*
X185883185Y-116646423D01*
X185882261Y-116670466D01*
X185886229Y-116712551D01*
X185890919Y-116774005D01*
X185885796Y-116800351D01*
X185871538Y-116799037D01*
X185854237Y-116795997D01*
X185827345Y-116795997D01*
X185833144Y-116764228D01*
X185862238Y-116629764D01*
X185896854Y-116489795D01*
X185935892Y-116350165D01*
X185978252Y-116216715D01*
X185992484Y-116175833D01*
X186034650Y-116057961D01*
X186111250Y-116057961D01*
X186123410Y-116066394D01*
X186158917Y-116047085D01*
X186209120Y-116009562D01*
X186267611Y-115966452D01*
X186320889Y-115931516D01*
X186334326Y-115923909D01*
X186382403Y-115898693D01*
X186320687Y-115846763D01*
X186275413Y-115812964D01*
X186242033Y-115795493D01*
X186237900Y-115794833D01*
X186217751Y-115812788D01*
X186188871Y-115859081D01*
X186157234Y-115922352D01*
X186128814Y-115991239D01*
X186118251Y-116022375D01*
X186111250Y-116057961D01*
X186034650Y-116057961D01*
X186039874Y-116043359D01*
X186075580Y-115945308D01*
X186102056Y-115876198D01*
X186121760Y-115830549D01*
X186137147Y-115802881D01*
X186150672Y-115787713D01*
X186164793Y-115779567D01*
X186171200Y-115777030D01*
X186184399Y-115766112D01*
X186181456Y-115744672D01*
X186159195Y-115706803D01*
X186114438Y-115646599D01*
X186072624Y-115593750D01*
X186012249Y-115522433D01*
X185957800Y-115465488D01*
X185916594Y-115430185D01*
X185899998Y-115422258D01*
X185846635Y-115418873D01*
X185818920Y-115416967D01*
X185741893Y-115392860D01*
X185655862Y-115334219D01*
X185565918Y-115246430D01*
X185477151Y-115134876D01*
X185394651Y-115004943D01*
X185351066Y-114922028D01*
X185314982Y-114853281D01*
X185283358Y-114802570D01*
X185262208Y-114779362D01*
X185260122Y-114778833D01*
X185248592Y-114781281D01*
X185229679Y-114790819D01*
X185198624Y-114810738D01*
X185150666Y-114844329D01*
X185081047Y-114894883D01*
X184985006Y-114965691D01*
X184917387Y-115015804D01*
X184748262Y-115145893D01*
X184606212Y-115266294D01*
X184480630Y-115386605D01*
X184360908Y-115516427D01*
X184348895Y-115530250D01*
X184299947Y-115583288D01*
X184260623Y-115619454D01*
X184239929Y-115630791D01*
X184223138Y-115641192D01*
X184222500Y-115646666D01*
X184206319Y-115667133D01*
X184200789Y-115667833D01*
X184192456Y-115653091D01*
X184208359Y-115613315D01*
X184244686Y-115555175D01*
X184297624Y-115485344D01*
X184321012Y-115457467D01*
X184378309Y-115398053D01*
X184462316Y-115320123D01*
X184565439Y-115229966D01*
X184680084Y-115133871D01*
X184798657Y-115038127D01*
X184913564Y-114949024D01*
X185017210Y-114872851D01*
X185073981Y-114833886D01*
X185160880Y-114772466D01*
X185216830Y-114723958D01*
X185239950Y-114690501D01*
X185228354Y-114674235D01*
X185215618Y-114673000D01*
X185182077Y-114682924D01*
X185122753Y-114709039D01*
X185048226Y-114745858D01*
X184969074Y-114787897D01*
X184895878Y-114829667D01*
X184839216Y-114865684D01*
X184827154Y-114874447D01*
X184777925Y-114907745D01*
X184740269Y-114925883D01*
X184733793Y-114927000D01*
X184710664Y-114941023D01*
X184709333Y-114947763D01*
X184691390Y-114967899D01*
X184657122Y-114981630D01*
X184619668Y-114997041D01*
X184609497Y-115011421D01*
X184597880Y-115035607D01*
X184562384Y-115077198D01*
X184512396Y-115127415D01*
X184457304Y-115177481D01*
X184406495Y-115218618D01*
X184369356Y-115242049D01*
X184360228Y-115244500D01*
X184341535Y-115233460D01*
X184353570Y-115202865D01*
X184391742Y-115156502D01*
X184451463Y-115098157D01*
X184528143Y-115031618D01*
X184617193Y-114960669D01*
X184714024Y-114889099D01*
X184814046Y-114820694D01*
X184912669Y-114759241D01*
X185005304Y-114708525D01*
X185016557Y-114702972D01*
X185099052Y-114661506D01*
X185135336Y-114641873D01*
X185309155Y-114641873D01*
X185309842Y-114649616D01*
X185337792Y-114651083D01*
X185380872Y-114642443D01*
X185398120Y-114629258D01*
X185406250Y-114602837D01*
X185382744Y-114602919D01*
X185344301Y-114621065D01*
X185309155Y-114641873D01*
X185135336Y-114641873D01*
X185165110Y-114625763D01*
X185206809Y-114600188D01*
X185217333Y-114590279D01*
X185205935Y-114563388D01*
X185186599Y-114534170D01*
X185165484Y-114509615D01*
X185143845Y-114504673D01*
X185107383Y-114519675D01*
X185075474Y-114536740D01*
X184939628Y-114610813D01*
X184834757Y-114668827D01*
X184754416Y-114714518D01*
X184692161Y-114751625D01*
X184641548Y-114783886D01*
X184598159Y-114813605D01*
X184537028Y-114852354D01*
X184484821Y-114877792D01*
X184460576Y-114883785D01*
X184444090Y-114873847D01*
X184462253Y-114847117D01*
X184511846Y-114805729D01*
X184589649Y-114751816D01*
X184692444Y-114687512D01*
X184817011Y-114614950D01*
X184960133Y-114536265D01*
X185079109Y-114473796D01*
X185141968Y-114441423D01*
X185144563Y-114181503D01*
X185146027Y-114146434D01*
X185215336Y-114146434D01*
X185215479Y-114254929D01*
X185221495Y-114325610D01*
X185238746Y-114362991D01*
X185272595Y-114371587D01*
X185328403Y-114355914D01*
X185411534Y-114320486D01*
X185418416Y-114317427D01*
X185519418Y-114278326D01*
X185619909Y-114249446D01*
X185711161Y-114232238D01*
X185784448Y-114228153D01*
X185831041Y-114238640D01*
X185840298Y-114247317D01*
X185833165Y-114262510D01*
X185786862Y-114269915D01*
X185748089Y-114270833D01*
X185670254Y-114278392D01*
X185578893Y-114302989D01*
X185463630Y-114347502D01*
X185448508Y-114353970D01*
X185365988Y-114390015D01*
X185299234Y-114420054D01*
X185257037Y-114440083D01*
X185246989Y-114445788D01*
X185247370Y-114469461D01*
X185259775Y-114515881D01*
X185262093Y-114522697D01*
X185285457Y-114569624D01*
X185312741Y-114579957D01*
X185320064Y-114577808D01*
X185373190Y-114559617D01*
X185451165Y-114535587D01*
X185544265Y-114508409D01*
X185642769Y-114480775D01*
X185736952Y-114455373D01*
X185817093Y-114434897D01*
X185873467Y-114422035D01*
X185893929Y-114419000D01*
X185932055Y-114424776D01*
X185934696Y-114438606D01*
X185906555Y-114455243D01*
X185852338Y-114469437D01*
X185848091Y-114470139D01*
X185787430Y-114482865D01*
X185744152Y-114497342D01*
X185736966Y-114501523D01*
X185702081Y-114520127D01*
X185650644Y-114540194D01*
X185609187Y-114558599D01*
X185550107Y-114590069D01*
X185483813Y-114628346D01*
X185420715Y-114667172D01*
X185371222Y-114700288D01*
X185345745Y-114721436D01*
X185344333Y-114724350D01*
X185351980Y-114746076D01*
X185372287Y-114796903D01*
X185401297Y-114866994D01*
X185410023Y-114887741D01*
X185497640Y-115060604D01*
X185600688Y-115203189D01*
X185715236Y-115310242D01*
X185737904Y-115326085D01*
X185805239Y-115368747D01*
X185846827Y-115388029D01*
X185870947Y-115385734D01*
X185885878Y-115363669D01*
X185887831Y-115358780D01*
X185884928Y-115320929D01*
X185872168Y-115307176D01*
X185862967Y-115289877D01*
X185875071Y-115257157D01*
X185911455Y-115202819D01*
X185940820Y-115164140D01*
X185992089Y-115096267D01*
X186035259Y-115035805D01*
X186049440Y-115013829D01*
X186203129Y-115013829D01*
X186208327Y-115033068D01*
X186231233Y-115066739D01*
X186275085Y-115121818D01*
X186318319Y-115174814D01*
X186337270Y-115210948D01*
X186339166Y-115222439D01*
X186354736Y-115243712D01*
X186360333Y-115244500D01*
X186380660Y-115260792D01*
X186381500Y-115267078D01*
X186393326Y-115298873D01*
X186422131Y-115342643D01*
X186457905Y-115386119D01*
X186490640Y-115417028D01*
X186509392Y-115423865D01*
X186534061Y-115428557D01*
X186542057Y-115437925D01*
X186544908Y-115452770D01*
X186532937Y-115447604D01*
X186511085Y-115444807D01*
X186508500Y-115451841D01*
X186523326Y-115477086D01*
X186560746Y-115516257D01*
X186610168Y-115560407D01*
X186661000Y-115600591D01*
X186702651Y-115627863D01*
X186723899Y-115633776D01*
X186737443Y-115635702D01*
X186736566Y-115641367D01*
X186747567Y-115664937D01*
X186782028Y-115707078D01*
X186823971Y-115750249D01*
X186881696Y-115801680D01*
X186923635Y-115826179D01*
X186960878Y-115829522D01*
X186972138Y-115827416D01*
X187005161Y-115822865D01*
X187000201Y-115832692D01*
X186999362Y-115833261D01*
X186987118Y-115852154D01*
X187010219Y-115875845D01*
X187020528Y-115882600D01*
X187080953Y-115915804D01*
X187160192Y-115953081D01*
X187244474Y-115988648D01*
X187320029Y-116016721D01*
X187373084Y-116031519D01*
X187376333Y-116032009D01*
X187433715Y-116049676D01*
X187481584Y-116075663D01*
X187538518Y-116103493D01*
X187587418Y-116113821D01*
X187647510Y-116122328D01*
X187683250Y-116133355D01*
X187736410Y-116143375D01*
X187822576Y-116144965D01*
X187933394Y-116138741D01*
X188060514Y-116125318D01*
X188195586Y-116105312D01*
X188283691Y-116089070D01*
X188406484Y-116064432D01*
X188493337Y-116046566D01*
X188549834Y-116033997D01*
X188581557Y-116025249D01*
X188594089Y-116018847D01*
X188593013Y-116013315D01*
X188586800Y-116008952D01*
X188592016Y-116000968D01*
X188629779Y-115996039D01*
X188653646Y-115995354D01*
X188749518Y-115979272D01*
X188859798Y-115935973D01*
X188972391Y-115871254D01*
X189069666Y-115795947D01*
X189116747Y-115751325D01*
X189144692Y-115720310D01*
X189147951Y-115710195D01*
X189150263Y-115697901D01*
X189173057Y-115672265D01*
X189585358Y-115672265D01*
X189602891Y-115697644D01*
X189657887Y-115709521D01*
X189680224Y-115710166D01*
X189743032Y-115718321D01*
X189823838Y-115739412D01*
X189885350Y-115761213D01*
X189969305Y-115794269D01*
X190020324Y-115810218D01*
X190044438Y-115808497D01*
X190047679Y-115788540D01*
X190036077Y-115749786D01*
X190035168Y-115747208D01*
X190008329Y-115689344D01*
X189967253Y-115619041D01*
X189943204Y-115583166D01*
X189898161Y-115519646D01*
X189858034Y-115462939D01*
X189842054Y-115440291D01*
X189800909Y-115400069D01*
X189762011Y-115401243D01*
X189723762Y-115444192D01*
X189708824Y-115472041D01*
X189678950Y-115519895D01*
X189650383Y-115544399D01*
X189642560Y-115545259D01*
X189624109Y-115553507D01*
X189627087Y-115571105D01*
X189623665Y-115610390D01*
X189607167Y-115635308D01*
X189585358Y-115672265D01*
X189173057Y-115672265D01*
X189177317Y-115667474D01*
X189186912Y-115658335D01*
X189220173Y-115618635D01*
X189230195Y-115587485D01*
X189228763Y-115583727D01*
X189228460Y-115566531D01*
X189236627Y-115566767D01*
X189256886Y-115552582D01*
X189291004Y-115509751D01*
X189332450Y-115446726D01*
X189343029Y-115429079D01*
X189379711Y-115364222D01*
X189402953Y-115317995D01*
X189409040Y-115298005D01*
X189406911Y-115298295D01*
X189375048Y-115306625D01*
X189317114Y-115313529D01*
X189281250Y-115315841D01*
X189226267Y-115316128D01*
X189198182Y-115311671D01*
X189198790Y-115306687D01*
X189199340Y-115291276D01*
X189157945Y-115271789D01*
X189112000Y-115257897D01*
X189089584Y-115244874D01*
X189046812Y-115215997D01*
X189032449Y-115205859D01*
X188984016Y-115161499D01*
X188976666Y-115126672D01*
X189010462Y-115101310D01*
X189085466Y-115085342D01*
X189143452Y-115080584D01*
X189267423Y-115082012D01*
X189361496Y-115100143D01*
X189421894Y-115133906D01*
X189441733Y-115165032D01*
X189452989Y-115192974D01*
X189465343Y-115188765D01*
X189487381Y-115150034D01*
X189509929Y-115086411D01*
X189520309Y-115022250D01*
X189704666Y-115022250D01*
X189715250Y-115032833D01*
X189725833Y-115022250D01*
X189715250Y-115011666D01*
X189704666Y-115022250D01*
X189520309Y-115022250D01*
X189521602Y-115014258D01*
X189521762Y-115010735D01*
X189526989Y-114962186D01*
X189528423Y-114958750D01*
X189662333Y-114958750D01*
X189672916Y-114969333D01*
X189683500Y-114958750D01*
X189672916Y-114948166D01*
X189662333Y-114958750D01*
X189528423Y-114958750D01*
X189536280Y-114939930D01*
X189539162Y-114940104D01*
X189561525Y-114934193D01*
X189566638Y-114927719D01*
X189551561Y-114919274D01*
X189495389Y-114912965D01*
X189399313Y-114908862D01*
X189264520Y-114907033D01*
X189207987Y-114906944D01*
X188836272Y-114907306D01*
X188846339Y-114962824D01*
X188864430Y-115068214D01*
X188873530Y-115138686D01*
X188873872Y-115180637D01*
X188865687Y-115200467D01*
X188855111Y-115204604D01*
X188764663Y-115197590D01*
X188706226Y-115166693D01*
X188677095Y-115147424D01*
X188656954Y-115162371D01*
X188647273Y-115179243D01*
X188634482Y-115212736D01*
X188638285Y-115223333D01*
X188637436Y-115236291D01*
X188617817Y-115262092D01*
X188594628Y-115294760D01*
X188592362Y-115310473D01*
X188583337Y-115318330D01*
X188562212Y-115320095D01*
X188534142Y-115313074D01*
X188532719Y-115303464D01*
X188527336Y-115287749D01*
X188520582Y-115286833D01*
X188499229Y-115303204D01*
X188498166Y-115310344D01*
X188487294Y-115313339D01*
X188461047Y-115288010D01*
X188460152Y-115286910D01*
X188422137Y-115239964D01*
X188354752Y-115296666D01*
X188308189Y-115328980D01*
X188272812Y-115341562D01*
X188265766Y-115340017D01*
X188245907Y-115340296D01*
X188244166Y-115347320D01*
X188260730Y-115373149D01*
X188270625Y-115378648D01*
X188285344Y-115388309D01*
X188271369Y-115390995D01*
X188242025Y-115375794D01*
X188223421Y-115351121D01*
X188190048Y-115320686D01*
X188164468Y-115321368D01*
X188142114Y-115325946D01*
X188155435Y-115313280D01*
X188173321Y-115275412D01*
X188168853Y-115236553D01*
X188151966Y-115196591D01*
X188123023Y-115190018D01*
X188109418Y-115193440D01*
X188055852Y-115218629D01*
X188030435Y-115236780D01*
X187983615Y-115257202D01*
X187945769Y-115258582D01*
X187907105Y-115242218D01*
X187899379Y-115202329D01*
X187899577Y-115200014D01*
X187908550Y-115132740D01*
X187923550Y-115046936D01*
X187940927Y-114961632D01*
X187957031Y-114895856D01*
X187959501Y-114887598D01*
X187966601Y-114853397D01*
X187950394Y-114844676D01*
X187913877Y-114850872D01*
X187840265Y-114862387D01*
X187732150Y-114873388D01*
X187597361Y-114883436D01*
X187443728Y-114892092D01*
X187279080Y-114898921D01*
X187111247Y-114903482D01*
X186948059Y-114905338D01*
X186940014Y-114905353D01*
X186748415Y-114907872D01*
X186589512Y-114914765D01*
X186465422Y-114925809D01*
X186378263Y-114940785D01*
X186330150Y-114959470D01*
X186321483Y-114969878D01*
X186301434Y-114981604D01*
X186295462Y-114979069D01*
X186263980Y-114978805D01*
X186232905Y-114990728D01*
X186212401Y-115002041D01*
X186203129Y-115013829D01*
X186049440Y-115013829D01*
X186061474Y-114995183D01*
X186062397Y-114993493D01*
X186097316Y-114958075D01*
X186128912Y-114948166D01*
X186170419Y-114941503D01*
X186236401Y-114924149D01*
X186302792Y-114903106D01*
X186343651Y-114890251D01*
X186386900Y-114879774D01*
X186437832Y-114871264D01*
X186501741Y-114864308D01*
X186583921Y-114858495D01*
X186689664Y-114853413D01*
X186824265Y-114848650D01*
X186993017Y-114843793D01*
X187101166Y-114840961D01*
X187270320Y-114835979D01*
X187430364Y-114830045D01*
X187575158Y-114823481D01*
X187698559Y-114816606D01*
X187794427Y-114809742D01*
X187856620Y-114803211D01*
X187870926Y-114800712D01*
X187940390Y-114789682D01*
X187998796Y-114788184D01*
X188017249Y-114791294D01*
X188047192Y-114803758D01*
X188038092Y-114817223D01*
X188022825Y-114826160D01*
X187998852Y-114846656D01*
X188012109Y-114863979D01*
X188025894Y-114881467D01*
X188027924Y-114916272D01*
X188018203Y-114978370D01*
X188012195Y-115007604D01*
X187999091Y-115078347D01*
X187992409Y-115133189D01*
X187993004Y-115156673D01*
X188014888Y-115161115D01*
X188064233Y-115145077D01*
X188101009Y-115127856D01*
X188159573Y-115099224D01*
X188192132Y-115089283D01*
X188210141Y-115097006D01*
X188222717Y-115116973D01*
X188240897Y-115170945D01*
X188244166Y-115199525D01*
X188253563Y-115243710D01*
X188280619Y-115249998D01*
X188323630Y-115218137D01*
X188329446Y-115212097D01*
X188383065Y-115169194D01*
X188432345Y-115165837D01*
X188486949Y-115201623D01*
X188490958Y-115205337D01*
X188519923Y-115229426D01*
X188539612Y-115232643D01*
X188553664Y-115209532D01*
X188565715Y-115154637D01*
X188577597Y-115075407D01*
X188595664Y-114998390D01*
X188621153Y-114955431D01*
X188650332Y-114948875D01*
X188679467Y-114981063D01*
X188690078Y-115004796D01*
X188719253Y-115063061D01*
X188748166Y-115103607D01*
X188775148Y-115129520D01*
X188788198Y-115120245D01*
X188795849Y-115093062D01*
X188795406Y-115035992D01*
X188782735Y-115001083D01*
X188760862Y-114950046D01*
X188744199Y-114887497D01*
X188737531Y-114840211D01*
X188747385Y-114824689D01*
X188781852Y-114831211D01*
X188789245Y-114833372D01*
X188828616Y-114838982D01*
X188902363Y-114844084D01*
X189002526Y-114848332D01*
X189121149Y-114851383D01*
X189239000Y-114852832D01*
X189630583Y-114855166D01*
X189763905Y-114986814D01*
X189827170Y-115050636D01*
X189863753Y-115092682D01*
X189877970Y-115120007D01*
X189874135Y-115139669D01*
X189864447Y-115151242D01*
X189836974Y-115185827D01*
X189839481Y-115217002D01*
X189862746Y-115251999D01*
X189879158Y-115269642D01*
X189899121Y-115274874D01*
X189931152Y-115265365D01*
X189983770Y-115238787D01*
X190052864Y-115199997D01*
X190203686Y-115103205D01*
X190323578Y-114999431D01*
X190423806Y-114878333D01*
X190456679Y-114829390D01*
X190497941Y-114759815D01*
X190515295Y-114715098D01*
X190511565Y-114687267D01*
X190508524Y-114683010D01*
X190474002Y-114658225D01*
X190409683Y-114625486D01*
X190326269Y-114589170D01*
X190234460Y-114553655D01*
X190144957Y-114523320D01*
X190098122Y-114510599D01*
X190304155Y-114510599D01*
X190324419Y-114533120D01*
X190383296Y-114570636D01*
X190392583Y-114575882D01*
X190475817Y-114620450D01*
X190529446Y-114643112D01*
X190559337Y-114645071D01*
X190571356Y-114627526D01*
X190572500Y-114612715D01*
X190558668Y-114583206D01*
X190512995Y-114556366D01*
X190464236Y-114538632D01*
X190375145Y-114512792D01*
X190321425Y-114503635D01*
X190304155Y-114510599D01*
X190098122Y-114510599D01*
X190068461Y-114502543D01*
X190066282Y-114502071D01*
X190007928Y-114486306D01*
X189973313Y-114470529D01*
X189968760Y-114462125D01*
X189958192Y-114447029D01*
X189918436Y-114433208D01*
X189914879Y-114432467D01*
X189850612Y-114419614D01*
X189879905Y-114388171D01*
X189969250Y-114388171D01*
X190149166Y-114425097D01*
X190245961Y-114446220D01*
X190339771Y-114468802D01*
X190413134Y-114488598D01*
X190424333Y-114492012D01*
X190507029Y-114515314D01*
X190559123Y-114521110D01*
X190588978Y-114508431D01*
X190604962Y-114476308D01*
X190606388Y-114470930D01*
X190611483Y-114425385D01*
X190605080Y-114402139D01*
X190577090Y-114393787D01*
X190516840Y-114386115D01*
X190434400Y-114379603D01*
X190339844Y-114374733D01*
X190243242Y-114371986D01*
X190154666Y-114371842D01*
X190084190Y-114374781D01*
X190067065Y-114376456D01*
X189969250Y-114388171D01*
X189879905Y-114388171D01*
X189892209Y-114374964D01*
X189912173Y-114356791D01*
X189937332Y-114344420D01*
X189975444Y-114336823D01*
X190034265Y-114332974D01*
X190121552Y-114331846D01*
X190215275Y-114332200D01*
X190326456Y-114333839D01*
X190427845Y-114336962D01*
X190509027Y-114341138D01*
X190559585Y-114345937D01*
X190563214Y-114346556D01*
X190629685Y-114359026D01*
X190643242Y-114246138D01*
X190651393Y-114161135D01*
X190652405Y-114143833D01*
X190678333Y-114143833D01*
X190686077Y-114161255D01*
X190692444Y-114157944D01*
X190694977Y-114132824D01*
X190692444Y-114129722D01*
X190679860Y-114132627D01*
X190678333Y-114143833D01*
X190652405Y-114143833D01*
X190656329Y-114076757D01*
X190656982Y-114046234D01*
X190648014Y-113967108D01*
X190623339Y-113861271D01*
X190586695Y-113739615D01*
X190541819Y-113613033D01*
X190492450Y-113492417D01*
X190442324Y-113388661D01*
X190415333Y-113342008D01*
X190386370Y-113291247D01*
X190372472Y-113256862D01*
X190372896Y-113249825D01*
X190372749Y-113222149D01*
X190351685Y-113166312D01*
X190312967Y-113088900D01*
X190259862Y-112996496D01*
X190202216Y-112905583D01*
X190143534Y-112812295D01*
X190086107Y-112713195D01*
X190039973Y-112625816D01*
X190029683Y-112604178D01*
X189997301Y-112538162D01*
X189969890Y-112490734D01*
X189953252Y-112471905D01*
X189953001Y-112471887D01*
X189928143Y-112488092D01*
X189878664Y-112535987D01*
X189806127Y-112613998D01*
X189758479Y-112667458D01*
X189732913Y-112701023D01*
X189725833Y-112716495D01*
X189713057Y-112746368D01*
X189682131Y-112787442D01*
X189644159Y-112827722D01*
X189610243Y-112855213D01*
X189593207Y-112859773D01*
X189581243Y-112859710D01*
X189585931Y-112870081D01*
X189581512Y-112898275D01*
X189553637Y-112943310D01*
X189530993Y-112970481D01*
X189485894Y-113022292D01*
X189451946Y-113065521D01*
X189443326Y-113078576D01*
X189409084Y-113100141D01*
X189349783Y-113087950D01*
X189265279Y-113041961D01*
X189219926Y-113010899D01*
X189106198Y-112939455D01*
X188981161Y-112877434D01*
X188864054Y-112834197D01*
X188847416Y-112829667D01*
X188800486Y-112815641D01*
X188725849Y-112791106D01*
X188635558Y-112760087D01*
X188578351Y-112739846D01*
X188470048Y-112704179D01*
X188355554Y-112671480D01*
X188253633Y-112646946D01*
X188218518Y-112640228D01*
X188060838Y-112625378D01*
X187874516Y-112627433D01*
X187669251Y-112645355D01*
X187454743Y-112678109D01*
X187240694Y-112724656D01*
X187120260Y-112757659D01*
X187050342Y-112781670D01*
X186961568Y-112816893D01*
X186861221Y-112859880D01*
X186756581Y-112907183D01*
X186654931Y-112955356D01*
X186563552Y-113000950D01*
X186489727Y-113040518D01*
X186440738Y-113070613D01*
X186423833Y-113087379D01*
X186407266Y-113095384D01*
X186386791Y-113092087D01*
X186352759Y-113069404D01*
X186303154Y-113020287D01*
X186243576Y-112952168D01*
X186179625Y-112872482D01*
X186116900Y-112788663D01*
X186061001Y-112708144D01*
X186017529Y-112638359D01*
X185992083Y-112586742D01*
X185988522Y-112563376D01*
X185981368Y-112534781D01*
X185971543Y-112528584D01*
X185949231Y-112503705D01*
X185924479Y-112453236D01*
X185916225Y-112430521D01*
X185886377Y-112358591D01*
X185858607Y-112328843D01*
X185833439Y-112341156D01*
X185811395Y-112395407D01*
X185798127Y-112458131D01*
X185786401Y-112508486D01*
X185773329Y-112520755D01*
X185763625Y-112511480D01*
X185750949Y-112500741D01*
X185752927Y-112527549D01*
X185754749Y-112536376D01*
X185753890Y-112580285D01*
X185741596Y-112654181D01*
X185719803Y-112747886D01*
X185702350Y-112811542D01*
X185674068Y-112914593D01*
X185649494Y-113014130D01*
X185631952Y-113096173D01*
X185625940Y-113133125D01*
X185615705Y-113194560D01*
X185600476Y-113224415D01*
X185573721Y-113233417D01*
X185564712Y-113233666D01*
X185511376Y-113253721D01*
X185456269Y-113309836D01*
X185401716Y-113395936D01*
X185350044Y-113505946D01*
X185303576Y-113633792D01*
X185264638Y-113773398D01*
X185235555Y-113918690D01*
X185218653Y-114063594D01*
X185215336Y-114146434D01*
X185146027Y-114146434D01*
X185152476Y-113992056D01*
X185153405Y-113985083D01*
X185175000Y-113985083D01*
X185185583Y-113995666D01*
X185196166Y-113985083D01*
X185185583Y-113974500D01*
X185175000Y-113985083D01*
X185153405Y-113985083D01*
X185174213Y-113828927D01*
X185212984Y-113677450D01*
X185271998Y-113522963D01*
X185304112Y-113452557D01*
X185375792Y-113321586D01*
X185448289Y-113228241D01*
X185469131Y-113208711D01*
X185531618Y-113142498D01*
X185563282Y-113072450D01*
X185567392Y-113053321D01*
X185579628Y-112998934D01*
X185601188Y-112916109D01*
X185628848Y-112816843D01*
X185654520Y-112729252D01*
X185685746Y-112622635D01*
X185714559Y-112519637D01*
X185737357Y-112433396D01*
X185748874Y-112385148D01*
X185764167Y-112327790D01*
X185779040Y-112294172D01*
X185786194Y-112290119D01*
X185787428Y-112288222D01*
X185859388Y-112288222D01*
X185862294Y-112300805D01*
X185873500Y-112302333D01*
X185890922Y-112294588D01*
X185887611Y-112288222D01*
X185862491Y-112285688D01*
X185859388Y-112288222D01*
X185787428Y-112288222D01*
X185793917Y-112278254D01*
X185793744Y-112237146D01*
X185792677Y-112226765D01*
X185790622Y-112177471D01*
X185804305Y-112157349D01*
X185828850Y-112154166D01*
X185865665Y-112167473D01*
G37*
X185865665Y-112167473D02*
X185873500Y-112187479D01*
X185882588Y-112218983D01*
X185907239Y-112279028D01*
X185943533Y-112358572D01*
X185981323Y-112436187D01*
X186062371Y-112587975D01*
X186145572Y-112719932D01*
X186242404Y-112849146D01*
X186324563Y-112947255D01*
X186397256Y-113031260D01*
X186631813Y-112909390D01*
X186843660Y-112812061D01*
X187071243Y-112730312D01*
X187307528Y-112665209D01*
X187545483Y-112617817D01*
X187778073Y-112589204D01*
X187998266Y-112580435D01*
X188199026Y-112592576D01*
X188373321Y-112626694D01*
X188413500Y-112639318D01*
X188457001Y-112653468D01*
X188528598Y-112675923D01*
X188615844Y-112702798D01*
X188656916Y-112715305D01*
X188814401Y-112767295D01*
X188963358Y-112824362D01*
X189095232Y-112882768D01*
X189201473Y-112938772D01*
X189264217Y-112980879D01*
X189316936Y-113018120D01*
X189360041Y-113040380D01*
X189372408Y-113043166D01*
X189397419Y-113027227D01*
X189440131Y-112984374D01*
X189493515Y-112922054D01*
X189527107Y-112879254D01*
X189602268Y-112782980D01*
X189688531Y-112676341D01*
X189769519Y-112579514D01*
X189784041Y-112562643D01*
X189841277Y-112494248D01*
X189886045Y-112436316D01*
X189912161Y-112397086D01*
X189916333Y-112386416D01*
X189933732Y-112370522D01*
X189961730Y-112369652D01*
X189995056Y-112387251D01*
X190025808Y-112434028D01*
X190050394Y-112492833D01*
X190084749Y-112572549D01*
X190131903Y-112666203D01*
X190177697Y-112746833D01*
X190280198Y-112916702D01*
X190359441Y-113052585D01*
X190415291Y-113154237D01*
X190447613Y-113221413D01*
X190456275Y-113253867D01*
X190455634Y-113255559D01*
X190458873Y-113283321D01*
X190480651Y-113331327D01*
X190494308Y-113354587D01*
X190538016Y-113435439D01*
X190586065Y-113542220D01*
X190632258Y-113659861D01*
X190670397Y-113773291D01*
X190679594Y-113805166D01*
X190691063Y-113866838D01*
X190701073Y-113956925D01*
X190708293Y-114061509D01*
X190710907Y-114132743D01*
X190716075Y-114365069D01*
X190914162Y-114401540D01*
X190994106Y-114418147D01*
X191082624Y-114439567D01*
X191173414Y-114463831D01*
X191260171Y-114488968D01*
X191336590Y-114513007D01*
X191396366Y-114533978D01*
X191433196Y-114549909D01*
X191440774Y-114558830D01*
X191419166Y-114559399D01*
X191366121Y-114551041D01*
X191285850Y-114534058D01*
X191191841Y-114511415D01*
X191144000Y-114498923D01*
X191046408Y-114473613D01*
X190954185Y-114451245D01*
X190881640Y-114435228D01*
X190858250Y-114430836D01*
X190794875Y-114419222D01*
X190745396Y-114408353D01*
X190738453Y-114406468D01*
X190709441Y-114412131D01*
X190685322Y-114452457D01*
X190678135Y-114472515D01*
X190663681Y-114523234D01*
X190659428Y-114553284D01*
X190660348Y-114555776D01*
X190682202Y-114566950D01*
X190732074Y-114589360D01*
X190794750Y-114616277D01*
X190890053Y-114657921D01*
X190992221Y-114705003D01*
X191095507Y-114754563D01*
X191194167Y-114803638D01*
X191282457Y-114849268D01*
X191354633Y-114888491D01*
X191404948Y-114918347D01*
X191427660Y-114935875D01*
X191420385Y-114938772D01*
X191374086Y-114924912D01*
X191299805Y-114895887D01*
X191207276Y-114855761D01*
X191106231Y-114808595D01*
X191092301Y-114801828D01*
X190932035Y-114724593D01*
X190808413Y-114667282D01*
X190720866Y-114629645D01*
X190668824Y-114611428D01*
X190656846Y-114609500D01*
X190634293Y-114626695D01*
X190625155Y-114664351D01*
X190633797Y-114701574D01*
X190636754Y-114705658D01*
X190664004Y-114729469D01*
X190716923Y-114769189D01*
X190785733Y-114817578D01*
X190811744Y-114835212D01*
X190910820Y-114902631D01*
X191018605Y-114977509D01*
X191128455Y-115055062D01*
X191233727Y-115130508D01*
X191327777Y-115199064D01*
X191403961Y-115255948D01*
X191455634Y-115296376D01*
X191471495Y-115310146D01*
X191501400Y-115342917D01*
X191500975Y-115353584D01*
X191474273Y-115344739D01*
X191425346Y-115318976D01*
X191358248Y-115278887D01*
X191277030Y-115227065D01*
X191185744Y-115166104D01*
X191088445Y-115098596D01*
X190989184Y-115027134D01*
X190892014Y-114954311D01*
X190800988Y-114882720D01*
X190791844Y-114875293D01*
X190744918Y-114840949D01*
X190710101Y-114822289D01*
X190704478Y-114821166D01*
X190674763Y-114806582D01*
X190657166Y-114789416D01*
X190622925Y-114765795D01*
X190583294Y-114758183D01*
X190555459Y-114768134D01*
X190551333Y-114779850D01*
X190536235Y-114827539D01*
X190495894Y-114892989D01*
X190437744Y-114967044D01*
X190369215Y-115040547D01*
X190297739Y-115104343D01*
X190272617Y-115123241D01*
X190163411Y-115196322D01*
X190063090Y-115255323D01*
X189976768Y-115297994D01*
X189909559Y-115322083D01*
X189866579Y-115325339D01*
X189852833Y-115308000D01*
X189835689Y-115289221D01*
X189821083Y-115286833D01*
X189794577Y-115292469D01*
X189796416Y-115312551D01*
X189828453Y-115351841D01*
X189858125Y-115381896D01*
X189902776Y-115436102D01*
X189962905Y-115525173D01*
X190036370Y-115645484D01*
X190121027Y-115793407D01*
X190214733Y-115965316D01*
X190307368Y-116142074D01*
X190353028Y-116239363D01*
X190400416Y-116355420D01*
X190447620Y-116483755D01*
X190492730Y-116617877D01*
X190533835Y-116751296D01*
X190569026Y-116877522D01*
X190596392Y-116990063D01*
X190614022Y-117082428D01*
X190620006Y-117148128D01*
X190612923Y-117180191D01*
X190597831Y-117180646D01*
X190593666Y-117153733D01*
X190594408Y-117110643D01*
X190595474Y-117093658D01*
X190581926Y-117072087D01*
X190570663Y-117063698D01*
X190546421Y-117033535D01*
X190523054Y-116982114D01*
X190521230Y-116976664D01*
X190503726Y-116934015D01*
X190478020Y-116911140D01*
X190430604Y-116899457D01*
X190392583Y-116894924D01*
X190305898Y-116873043D01*
X190206738Y-116829139D01*
X190111548Y-116772102D01*
X190036772Y-116710824D01*
X190022166Y-116694644D01*
X189990861Y-116666528D01*
X189933482Y-116623358D01*
X189859924Y-116572401D01*
X189820198Y-116546292D01*
X189736299Y-116487782D01*
X189658583Y-116425951D01*
X189599718Y-116371146D01*
X189584499Y-116353776D01*
X189534348Y-116285203D01*
X189482176Y-116205366D01*
X189433704Y-116124142D01*
X189394647Y-116051403D01*
X189370726Y-115997025D01*
X189366000Y-115976480D01*
X189364085Y-115959876D01*
X189429500Y-115959876D01*
X189445356Y-116028721D01*
X189488852Y-116115232D01*
X189553872Y-116211525D01*
X189634305Y-116309713D01*
X189724036Y-116401911D01*
X189816953Y-116480232D01*
X189851903Y-116504767D01*
X189936568Y-116563450D01*
X190022196Y-116627485D01*
X190090454Y-116683155D01*
X190091275Y-116683876D01*
X190189799Y-116758496D01*
X190291733Y-116814872D01*
X190385461Y-116847226D01*
X190430584Y-116852701D01*
X190468528Y-116850086D01*
X190482188Y-116833345D01*
X190478468Y-116790368D01*
X190475575Y-116773791D01*
X190453464Y-116683070D01*
X190417289Y-116571538D01*
X190370760Y-116447633D01*
X190317588Y-116319786D01*
X190261484Y-116196435D01*
X190206157Y-116086013D01*
X190155318Y-115996955D01*
X190112678Y-115937696D01*
X190103742Y-115928533D01*
X190053937Y-115893287D01*
X189977439Y-115851076D01*
X189887741Y-115808252D01*
X189798334Y-115771166D01*
X189722709Y-115746171D01*
X189709689Y-115743019D01*
X189632301Y-115745160D01*
X189554435Y-115778031D01*
X189487327Y-115832935D01*
X189442210Y-115901177D01*
X189429500Y-115959876D01*
X189364085Y-115959876D01*
X189363361Y-115953608D01*
X189351298Y-115947078D01*
X189323590Y-115959438D01*
X189274019Y-115993238D01*
X189210970Y-116040037D01*
X189083386Y-116124421D01*
X188929644Y-116208258D01*
X188765352Y-116284073D01*
X188606116Y-116344394D01*
X188524778Y-116368669D01*
X188407566Y-116390864D01*
X188260455Y-116405760D01*
X188095289Y-116413097D01*
X187923914Y-116412612D01*
X187758174Y-116404045D01*
X187619750Y-116388636D01*
X187472973Y-116361170D01*
X187309180Y-116321431D01*
X187143458Y-116273735D01*
X186990896Y-116222396D01*
X186875482Y-116175814D01*
X186804900Y-116144739D01*
X186749608Y-116122113D01*
X186720610Y-116112419D01*
X186719594Y-116112333D01*
X186705842Y-116130857D01*
X186691864Y-116176705D01*
X186689173Y-116189828D01*
X186678676Y-116222806D01*
X186656453Y-116261923D01*
X186618711Y-116311785D01*
X186561656Y-116376998D01*
X186481495Y-116462167D01*
X186374609Y-116571720D01*
X186268001Y-116678926D01*
X186185348Y-116759337D01*
X186121704Y-116817097D01*
X186072126Y-116856347D01*
X186031671Y-116881230D01*
X185995395Y-116895889D01*
X185983931Y-116899079D01*
X185919899Y-116921084D01*
X185880538Y-116954456D01*
X185856455Y-117010644D01*
X185843576Y-117070125D01*
X185829653Y-117121032D01*
X185813014Y-117148137D01*
X185809040Y-117149500D01*
X185794010Y-117130194D01*
X185790006Y-117076171D01*
X185795927Y-116993274D01*
X185810673Y-116887346D01*
X185827345Y-116795997D01*
X185854237Y-116795997D01*
X185859319Y-116819675D01*
X185871524Y-116861053D01*
X185873500Y-116876064D01*
X185886643Y-116894448D01*
X185924673Y-116880747D01*
X185963942Y-116853166D01*
X186006752Y-116823717D01*
X186036087Y-116810854D01*
X186036716Y-116810833D01*
X186056928Y-116796554D01*
X186100563Y-116757639D01*
X186161704Y-116699969D01*
X186234435Y-116629428D01*
X186312842Y-116551896D01*
X186391008Y-116473257D01*
X186463018Y-116399392D01*
X186522955Y-116336184D01*
X186564904Y-116289515D01*
X186579551Y-116271083D01*
X186605130Y-116219777D01*
X186624057Y-116159212D01*
X186629581Y-116114196D01*
X186617877Y-116078706D01*
X186582242Y-116037993D01*
X186559126Y-116016337D01*
X186504177Y-115973723D01*
X186453846Y-115947270D01*
X186434103Y-115943000D01*
X186394545Y-115955213D01*
X186335582Y-115987092D01*
X186275666Y-116027666D01*
X186212256Y-116071121D01*
X186157816Y-116101666D01*
X186125979Y-116112333D01*
X186104628Y-116124031D01*
X186079983Y-116162388D01*
X186049519Y-116232292D01*
X186013966Y-116329291D01*
X185980697Y-116428398D01*
X185951662Y-116521987D01*
X185930723Y-116597226D01*
X185923159Y-116630916D01*
X185913033Y-116681973D01*
X185905158Y-116695317D01*
X185895389Y-116675082D01*
X185891338Y-116662666D01*
X185883185Y-116646423D01*
X185882261Y-116670466D01*
X185886229Y-116712551D01*
X185890919Y-116774005D01*
X185885796Y-116800351D01*
X185871538Y-116799037D01*
X185854237Y-116795997D01*
X185827345Y-116795997D01*
X185833144Y-116764228D01*
X185862238Y-116629764D01*
X185896854Y-116489795D01*
X185935892Y-116350165D01*
X185978252Y-116216715D01*
X185992484Y-116175833D01*
X186034650Y-116057961D01*
X186111250Y-116057961D01*
X186123410Y-116066394D01*
X186158917Y-116047085D01*
X186209120Y-116009562D01*
X186267611Y-115966452D01*
X186320889Y-115931516D01*
X186334326Y-115923909D01*
X186382403Y-115898693D01*
X186320687Y-115846763D01*
X186275413Y-115812964D01*
X186242033Y-115795493D01*
X186237900Y-115794833D01*
X186217751Y-115812788D01*
X186188871Y-115859081D01*
X186157234Y-115922352D01*
X186128814Y-115991239D01*
X186118251Y-116022375D01*
X186111250Y-116057961D01*
X186034650Y-116057961D01*
X186039874Y-116043359D01*
X186075580Y-115945308D01*
X186102056Y-115876198D01*
X186121760Y-115830549D01*
X186137147Y-115802881D01*
X186150672Y-115787713D01*
X186164793Y-115779567D01*
X186171200Y-115777030D01*
X186184399Y-115766112D01*
X186181456Y-115744672D01*
X186159195Y-115706803D01*
X186114438Y-115646599D01*
X186072624Y-115593750D01*
X186012249Y-115522433D01*
X185957800Y-115465488D01*
X185916594Y-115430185D01*
X185899998Y-115422258D01*
X185846635Y-115418873D01*
X185818920Y-115416967D01*
X185741893Y-115392860D01*
X185655862Y-115334219D01*
X185565918Y-115246430D01*
X185477151Y-115134876D01*
X185394651Y-115004943D01*
X185351066Y-114922028D01*
X185314982Y-114853281D01*
X185283358Y-114802570D01*
X185262208Y-114779362D01*
X185260122Y-114778833D01*
X185248592Y-114781281D01*
X185229679Y-114790819D01*
X185198624Y-114810738D01*
X185150666Y-114844329D01*
X185081047Y-114894883D01*
X184985006Y-114965691D01*
X184917387Y-115015804D01*
X184748262Y-115145893D01*
X184606212Y-115266294D01*
X184480630Y-115386605D01*
X184360908Y-115516427D01*
X184348895Y-115530250D01*
X184299947Y-115583288D01*
X184260623Y-115619454D01*
X184239929Y-115630791D01*
X184223138Y-115641192D01*
X184222500Y-115646666D01*
X184206319Y-115667133D01*
X184200789Y-115667833D01*
X184192456Y-115653091D01*
X184208359Y-115613315D01*
X184244686Y-115555175D01*
X184297624Y-115485344D01*
X184321012Y-115457467D01*
X184378309Y-115398053D01*
X184462316Y-115320123D01*
X184565439Y-115229966D01*
X184680084Y-115133871D01*
X184798657Y-115038127D01*
X184913564Y-114949024D01*
X185017210Y-114872851D01*
X185073981Y-114833886D01*
X185160880Y-114772466D01*
X185216830Y-114723958D01*
X185239950Y-114690501D01*
X185228354Y-114674235D01*
X185215618Y-114673000D01*
X185182077Y-114682924D01*
X185122753Y-114709039D01*
X185048226Y-114745858D01*
X184969074Y-114787897D01*
X184895878Y-114829667D01*
X184839216Y-114865684D01*
X184827154Y-114874447D01*
X184777925Y-114907745D01*
X184740269Y-114925883D01*
X184733793Y-114927000D01*
X184710664Y-114941023D01*
X184709333Y-114947763D01*
X184691390Y-114967899D01*
X184657122Y-114981630D01*
X184619668Y-114997041D01*
X184609497Y-115011421D01*
X184597880Y-115035607D01*
X184562384Y-115077198D01*
X184512396Y-115127415D01*
X184457304Y-115177481D01*
X184406495Y-115218618D01*
X184369356Y-115242049D01*
X184360228Y-115244500D01*
X184341535Y-115233460D01*
X184353570Y-115202865D01*
X184391742Y-115156502D01*
X184451463Y-115098157D01*
X184528143Y-115031618D01*
X184617193Y-114960669D01*
X184714024Y-114889099D01*
X184814046Y-114820694D01*
X184912669Y-114759241D01*
X185005304Y-114708525D01*
X185016557Y-114702972D01*
X185099052Y-114661506D01*
X185135336Y-114641873D01*
X185309155Y-114641873D01*
X185309842Y-114649616D01*
X185337792Y-114651083D01*
X185380872Y-114642443D01*
X185398120Y-114629258D01*
X185406250Y-114602837D01*
X185382744Y-114602919D01*
X185344301Y-114621065D01*
X185309155Y-114641873D01*
X185135336Y-114641873D01*
X185165110Y-114625763D01*
X185206809Y-114600188D01*
X185217333Y-114590279D01*
X185205935Y-114563388D01*
X185186599Y-114534170D01*
X185165484Y-114509615D01*
X185143845Y-114504673D01*
X185107383Y-114519675D01*
X185075474Y-114536740D01*
X184939628Y-114610813D01*
X184834757Y-114668827D01*
X184754416Y-114714518D01*
X184692161Y-114751625D01*
X184641548Y-114783886D01*
X184598159Y-114813605D01*
X184537028Y-114852354D01*
X184484821Y-114877792D01*
X184460576Y-114883785D01*
X184444090Y-114873847D01*
X184462253Y-114847117D01*
X184511846Y-114805729D01*
X184589649Y-114751816D01*
X184692444Y-114687512D01*
X184817011Y-114614950D01*
X184960133Y-114536265D01*
X185079109Y-114473796D01*
X185141968Y-114441423D01*
X185144563Y-114181503D01*
X185146027Y-114146434D01*
X185215336Y-114146434D01*
X185215479Y-114254929D01*
X185221495Y-114325610D01*
X185238746Y-114362991D01*
X185272595Y-114371587D01*
X185328403Y-114355914D01*
X185411534Y-114320486D01*
X185418416Y-114317427D01*
X185519418Y-114278326D01*
X185619909Y-114249446D01*
X185711161Y-114232238D01*
X185784448Y-114228153D01*
X185831041Y-114238640D01*
X185840298Y-114247317D01*
X185833165Y-114262510D01*
X185786862Y-114269915D01*
X185748089Y-114270833D01*
X185670254Y-114278392D01*
X185578893Y-114302989D01*
X185463630Y-114347502D01*
X185448508Y-114353970D01*
X185365988Y-114390015D01*
X185299234Y-114420054D01*
X185257037Y-114440083D01*
X185246989Y-114445788D01*
X185247370Y-114469461D01*
X185259775Y-114515881D01*
X185262093Y-114522697D01*
X185285457Y-114569624D01*
X185312741Y-114579957D01*
X185320064Y-114577808D01*
X185373190Y-114559617D01*
X185451165Y-114535587D01*
X185544265Y-114508409D01*
X185642769Y-114480775D01*
X185736952Y-114455373D01*
X185817093Y-114434897D01*
X185873467Y-114422035D01*
X185893929Y-114419000D01*
X185932055Y-114424776D01*
X185934696Y-114438606D01*
X185906555Y-114455243D01*
X185852338Y-114469437D01*
X185848091Y-114470139D01*
X185787430Y-114482865D01*
X185744152Y-114497342D01*
X185736966Y-114501523D01*
X185702081Y-114520127D01*
X185650644Y-114540194D01*
X185609187Y-114558599D01*
X185550107Y-114590069D01*
X185483813Y-114628346D01*
X185420715Y-114667172D01*
X185371222Y-114700288D01*
X185345745Y-114721436D01*
X185344333Y-114724350D01*
X185351980Y-114746076D01*
X185372287Y-114796903D01*
X185401297Y-114866994D01*
X185410023Y-114887741D01*
X185497640Y-115060604D01*
X185600688Y-115203189D01*
X185715236Y-115310242D01*
X185737904Y-115326085D01*
X185805239Y-115368747D01*
X185846827Y-115388029D01*
X185870947Y-115385734D01*
X185885878Y-115363669D01*
X185887831Y-115358780D01*
X185884928Y-115320929D01*
X185872168Y-115307176D01*
X185862967Y-115289877D01*
X185875071Y-115257157D01*
X185911455Y-115202819D01*
X185940820Y-115164140D01*
X185992089Y-115096267D01*
X186035259Y-115035805D01*
X186049440Y-115013829D01*
X186203129Y-115013829D01*
X186208327Y-115033068D01*
X186231233Y-115066739D01*
X186275085Y-115121818D01*
X186318319Y-115174814D01*
X186337270Y-115210948D01*
X186339166Y-115222439D01*
X186354736Y-115243712D01*
X186360333Y-115244500D01*
X186380660Y-115260792D01*
X186381500Y-115267078D01*
X186393326Y-115298873D01*
X186422131Y-115342643D01*
X186457905Y-115386119D01*
X186490640Y-115417028D01*
X186509392Y-115423865D01*
X186534061Y-115428557D01*
X186542057Y-115437925D01*
X186544908Y-115452770D01*
X186532937Y-115447604D01*
X186511085Y-115444807D01*
X186508500Y-115451841D01*
X186523326Y-115477086D01*
X186560746Y-115516257D01*
X186610168Y-115560407D01*
X186661000Y-115600591D01*
X186702651Y-115627863D01*
X186723899Y-115633776D01*
X186737443Y-115635702D01*
X186736566Y-115641367D01*
X186747567Y-115664937D01*
X186782028Y-115707078D01*
X186823971Y-115750249D01*
X186881696Y-115801680D01*
X186923635Y-115826179D01*
X186960878Y-115829522D01*
X186972138Y-115827416D01*
X187005161Y-115822865D01*
X187000201Y-115832692D01*
X186999362Y-115833261D01*
X186987118Y-115852154D01*
X187010219Y-115875845D01*
X187020528Y-115882600D01*
X187080953Y-115915804D01*
X187160192Y-115953081D01*
X187244474Y-115988648D01*
X187320029Y-116016721D01*
X187373084Y-116031519D01*
X187376333Y-116032009D01*
X187433715Y-116049676D01*
X187481584Y-116075663D01*
X187538518Y-116103493D01*
X187587418Y-116113821D01*
X187647510Y-116122328D01*
X187683250Y-116133355D01*
X187736410Y-116143375D01*
X187822576Y-116144965D01*
X187933394Y-116138741D01*
X188060514Y-116125318D01*
X188195586Y-116105312D01*
X188283691Y-116089070D01*
X188406484Y-116064432D01*
X188493337Y-116046566D01*
X188549834Y-116033997D01*
X188581557Y-116025249D01*
X188594089Y-116018847D01*
X188593013Y-116013315D01*
X188586800Y-116008952D01*
X188592016Y-116000968D01*
X188629779Y-115996039D01*
X188653646Y-115995354D01*
X188749518Y-115979272D01*
X188859798Y-115935973D01*
X188972391Y-115871254D01*
X189069666Y-115795947D01*
X189116747Y-115751325D01*
X189144692Y-115720310D01*
X189147951Y-115710195D01*
X189150263Y-115697901D01*
X189173057Y-115672265D01*
X189585358Y-115672265D01*
X189602891Y-115697644D01*
X189657887Y-115709521D01*
X189680224Y-115710166D01*
X189743032Y-115718321D01*
X189823838Y-115739412D01*
X189885350Y-115761213D01*
X189969305Y-115794269D01*
X190020324Y-115810218D01*
X190044438Y-115808497D01*
X190047679Y-115788540D01*
X190036077Y-115749786D01*
X190035168Y-115747208D01*
X190008329Y-115689344D01*
X189967253Y-115619041D01*
X189943204Y-115583166D01*
X189898161Y-115519646D01*
X189858034Y-115462939D01*
X189842054Y-115440291D01*
X189800909Y-115400069D01*
X189762011Y-115401243D01*
X189723762Y-115444192D01*
X189708824Y-115472041D01*
X189678950Y-115519895D01*
X189650383Y-115544399D01*
X189642560Y-115545259D01*
X189624109Y-115553507D01*
X189627087Y-115571105D01*
X189623665Y-115610390D01*
X189607167Y-115635308D01*
X189585358Y-115672265D01*
X189173057Y-115672265D01*
X189177317Y-115667474D01*
X189186912Y-115658335D01*
X189220173Y-115618635D01*
X189230195Y-115587485D01*
X189228763Y-115583727D01*
X189228460Y-115566531D01*
X189236627Y-115566767D01*
X189256886Y-115552582D01*
X189291004Y-115509751D01*
X189332450Y-115446726D01*
X189343029Y-115429079D01*
X189379711Y-115364222D01*
X189402953Y-115317995D01*
X189409040Y-115298005D01*
X189406911Y-115298295D01*
X189375048Y-115306625D01*
X189317114Y-115313529D01*
X189281250Y-115315841D01*
X189226267Y-115316128D01*
X189198182Y-115311671D01*
X189198790Y-115306687D01*
X189199340Y-115291276D01*
X189157945Y-115271789D01*
X189112000Y-115257897D01*
X189089584Y-115244874D01*
X189046812Y-115215997D01*
X189032449Y-115205859D01*
X188984016Y-115161499D01*
X188976666Y-115126672D01*
X189010462Y-115101310D01*
X189085466Y-115085342D01*
X189143452Y-115080584D01*
X189267423Y-115082012D01*
X189361496Y-115100143D01*
X189421894Y-115133906D01*
X189441733Y-115165032D01*
X189452989Y-115192974D01*
X189465343Y-115188765D01*
X189487381Y-115150034D01*
X189509929Y-115086411D01*
X189520309Y-115022250D01*
X189704666Y-115022250D01*
X189715250Y-115032833D01*
X189725833Y-115022250D01*
X189715250Y-115011666D01*
X189704666Y-115022250D01*
X189520309Y-115022250D01*
X189521602Y-115014258D01*
X189521762Y-115010735D01*
X189526989Y-114962186D01*
X189528423Y-114958750D01*
X189662333Y-114958750D01*
X189672916Y-114969333D01*
X189683500Y-114958750D01*
X189672916Y-114948166D01*
X189662333Y-114958750D01*
X189528423Y-114958750D01*
X189536280Y-114939930D01*
X189539162Y-114940104D01*
X189561525Y-114934193D01*
X189566638Y-114927719D01*
X189551561Y-114919274D01*
X189495389Y-114912965D01*
X189399313Y-114908862D01*
X189264520Y-114907033D01*
X189207987Y-114906944D01*
X188836272Y-114907306D01*
X188846339Y-114962824D01*
X188864430Y-115068214D01*
X188873530Y-115138686D01*
X188873872Y-115180637D01*
X188865687Y-115200467D01*
X188855111Y-115204604D01*
X188764663Y-115197590D01*
X188706226Y-115166693D01*
X188677095Y-115147424D01*
X188656954Y-115162371D01*
X188647273Y-115179243D01*
X188634482Y-115212736D01*
X188638285Y-115223333D01*
X188637436Y-115236291D01*
X188617817Y-115262092D01*
X188594628Y-115294760D01*
X188592362Y-115310473D01*
X188583337Y-115318330D01*
X188562212Y-115320095D01*
X188534142Y-115313074D01*
X188532719Y-115303464D01*
X188527336Y-115287749D01*
X188520582Y-115286833D01*
X188499229Y-115303204D01*
X188498166Y-115310344D01*
X188487294Y-115313339D01*
X188461047Y-115288010D01*
X188460152Y-115286910D01*
X188422137Y-115239964D01*
X188354752Y-115296666D01*
X188308189Y-115328980D01*
X188272812Y-115341562D01*
X188265766Y-115340017D01*
X188245907Y-115340296D01*
X188244166Y-115347320D01*
X188260730Y-115373149D01*
X188270625Y-115378648D01*
X188285344Y-115388309D01*
X188271369Y-115390995D01*
X188242025Y-115375794D01*
X188223421Y-115351121D01*
X188190048Y-115320686D01*
X188164468Y-115321368D01*
X188142114Y-115325946D01*
X188155435Y-115313280D01*
X188173321Y-115275412D01*
X188168853Y-115236553D01*
X188151966Y-115196591D01*
X188123023Y-115190018D01*
X188109418Y-115193440D01*
X188055852Y-115218629D01*
X188030435Y-115236780D01*
X187983615Y-115257202D01*
X187945769Y-115258582D01*
X187907105Y-115242218D01*
X187899379Y-115202329D01*
X187899577Y-115200014D01*
X187908550Y-115132740D01*
X187923550Y-115046936D01*
X187940927Y-114961632D01*
X187957031Y-114895856D01*
X187959501Y-114887598D01*
X187966601Y-114853397D01*
X187950394Y-114844676D01*
X187913877Y-114850872D01*
X187840265Y-114862387D01*
X187732150Y-114873388D01*
X187597361Y-114883436D01*
X187443728Y-114892092D01*
X187279080Y-114898921D01*
X187111247Y-114903482D01*
X186948059Y-114905338D01*
X186940014Y-114905353D01*
X186748415Y-114907872D01*
X186589512Y-114914765D01*
X186465422Y-114925809D01*
X186378263Y-114940785D01*
X186330150Y-114959470D01*
X186321483Y-114969878D01*
X186301434Y-114981604D01*
X186295462Y-114979069D01*
X186263980Y-114978805D01*
X186232905Y-114990728D01*
X186212401Y-115002041D01*
X186203129Y-115013829D01*
X186049440Y-115013829D01*
X186061474Y-114995183D01*
X186062397Y-114993493D01*
X186097316Y-114958075D01*
X186128912Y-114948166D01*
X186170419Y-114941503D01*
X186236401Y-114924149D01*
X186302792Y-114903106D01*
X186343651Y-114890251D01*
X186386900Y-114879774D01*
X186437832Y-114871264D01*
X186501741Y-114864308D01*
X186583921Y-114858495D01*
X186689664Y-114853413D01*
X186824265Y-114848650D01*
X186993017Y-114843793D01*
X187101166Y-114840961D01*
X187270320Y-114835979D01*
X187430364Y-114830045D01*
X187575158Y-114823481D01*
X187698559Y-114816606D01*
X187794427Y-114809742D01*
X187856620Y-114803211D01*
X187870926Y-114800712D01*
X187940390Y-114789682D01*
X187998796Y-114788184D01*
X188017249Y-114791294D01*
X188047192Y-114803758D01*
X188038092Y-114817223D01*
X188022825Y-114826160D01*
X187998852Y-114846656D01*
X188012109Y-114863979D01*
X188025894Y-114881467D01*
X188027924Y-114916272D01*
X188018203Y-114978370D01*
X188012195Y-115007604D01*
X187999091Y-115078347D01*
X187992409Y-115133189D01*
X187993004Y-115156673D01*
X188014888Y-115161115D01*
X188064233Y-115145077D01*
X188101009Y-115127856D01*
X188159573Y-115099224D01*
X188192132Y-115089283D01*
X188210141Y-115097006D01*
X188222717Y-115116973D01*
X188240897Y-115170945D01*
X188244166Y-115199525D01*
X188253563Y-115243710D01*
X188280619Y-115249998D01*
X188323630Y-115218137D01*
X188329446Y-115212097D01*
X188383065Y-115169194D01*
X188432345Y-115165837D01*
X188486949Y-115201623D01*
X188490958Y-115205337D01*
X188519923Y-115229426D01*
X188539612Y-115232643D01*
X188553664Y-115209532D01*
X188565715Y-115154637D01*
X188577597Y-115075407D01*
X188595664Y-114998390D01*
X188621153Y-114955431D01*
X188650332Y-114948875D01*
X188679467Y-114981063D01*
X188690078Y-115004796D01*
X188719253Y-115063061D01*
X188748166Y-115103607D01*
X188775148Y-115129520D01*
X188788198Y-115120245D01*
X188795849Y-115093062D01*
X188795406Y-115035992D01*
X188782735Y-115001083D01*
X188760862Y-114950046D01*
X188744199Y-114887497D01*
X188737531Y-114840211D01*
X188747385Y-114824689D01*
X188781852Y-114831211D01*
X188789245Y-114833372D01*
X188828616Y-114838982D01*
X188902363Y-114844084D01*
X189002526Y-114848332D01*
X189121149Y-114851383D01*
X189239000Y-114852832D01*
X189630583Y-114855166D01*
X189763905Y-114986814D01*
X189827170Y-115050636D01*
X189863753Y-115092682D01*
X189877970Y-115120007D01*
X189874135Y-115139669D01*
X189864447Y-115151242D01*
X189836974Y-115185827D01*
X189839481Y-115217002D01*
X189862746Y-115251999D01*
X189879158Y-115269642D01*
X189899121Y-115274874D01*
X189931152Y-115265365D01*
X189983770Y-115238787D01*
X190052864Y-115199997D01*
X190203686Y-115103205D01*
X190323578Y-114999431D01*
X190423806Y-114878333D01*
X190456679Y-114829390D01*
X190497941Y-114759815D01*
X190515295Y-114715098D01*
X190511565Y-114687267D01*
X190508524Y-114683010D01*
X190474002Y-114658225D01*
X190409683Y-114625486D01*
X190326269Y-114589170D01*
X190234460Y-114553655D01*
X190144957Y-114523320D01*
X190098122Y-114510599D01*
X190304155Y-114510599D01*
X190324419Y-114533120D01*
X190383296Y-114570636D01*
X190392583Y-114575882D01*
X190475817Y-114620450D01*
X190529446Y-114643112D01*
X190559337Y-114645071D01*
X190571356Y-114627526D01*
X190572500Y-114612715D01*
X190558668Y-114583206D01*
X190512995Y-114556366D01*
X190464236Y-114538632D01*
X190375145Y-114512792D01*
X190321425Y-114503635D01*
X190304155Y-114510599D01*
X190098122Y-114510599D01*
X190068461Y-114502543D01*
X190066282Y-114502071D01*
X190007928Y-114486306D01*
X189973313Y-114470529D01*
X189968760Y-114462125D01*
X189958192Y-114447029D01*
X189918436Y-114433208D01*
X189914879Y-114432467D01*
X189850612Y-114419614D01*
X189879905Y-114388171D01*
X189969250Y-114388171D01*
X190149166Y-114425097D01*
X190245961Y-114446220D01*
X190339771Y-114468802D01*
X190413134Y-114488598D01*
X190424333Y-114492012D01*
X190507029Y-114515314D01*
X190559123Y-114521110D01*
X190588978Y-114508431D01*
X190604962Y-114476308D01*
X190606388Y-114470930D01*
X190611483Y-114425385D01*
X190605080Y-114402139D01*
X190577090Y-114393787D01*
X190516840Y-114386115D01*
X190434400Y-114379603D01*
X190339844Y-114374733D01*
X190243242Y-114371986D01*
X190154666Y-114371842D01*
X190084190Y-114374781D01*
X190067065Y-114376456D01*
X189969250Y-114388171D01*
X189879905Y-114388171D01*
X189892209Y-114374964D01*
X189912173Y-114356791D01*
X189937332Y-114344420D01*
X189975444Y-114336823D01*
X190034265Y-114332974D01*
X190121552Y-114331846D01*
X190215275Y-114332200D01*
X190326456Y-114333839D01*
X190427845Y-114336962D01*
X190509027Y-114341138D01*
X190559585Y-114345937D01*
X190563214Y-114346556D01*
X190629685Y-114359026D01*
X190643242Y-114246138D01*
X190651393Y-114161135D01*
X190652405Y-114143833D01*
X190678333Y-114143833D01*
X190686077Y-114161255D01*
X190692444Y-114157944D01*
X190694977Y-114132824D01*
X190692444Y-114129722D01*
X190679860Y-114132627D01*
X190678333Y-114143833D01*
X190652405Y-114143833D01*
X190656329Y-114076757D01*
X190656982Y-114046234D01*
X190648014Y-113967108D01*
X190623339Y-113861271D01*
X190586695Y-113739615D01*
X190541819Y-113613033D01*
X190492450Y-113492417D01*
X190442324Y-113388661D01*
X190415333Y-113342008D01*
X190386370Y-113291247D01*
X190372472Y-113256862D01*
X190372896Y-113249825D01*
X190372749Y-113222149D01*
X190351685Y-113166312D01*
X190312967Y-113088900D01*
X190259862Y-112996496D01*
X190202216Y-112905583D01*
X190143534Y-112812295D01*
X190086107Y-112713195D01*
X190039973Y-112625816D01*
X190029683Y-112604178D01*
X189997301Y-112538162D01*
X189969890Y-112490734D01*
X189953252Y-112471905D01*
X189953001Y-112471887D01*
X189928143Y-112488092D01*
X189878664Y-112535987D01*
X189806127Y-112613998D01*
X189758479Y-112667458D01*
X189732913Y-112701023D01*
X189725833Y-112716495D01*
X189713057Y-112746368D01*
X189682131Y-112787442D01*
X189644159Y-112827722D01*
X189610243Y-112855213D01*
X189593207Y-112859773D01*
X189581243Y-112859710D01*
X189585931Y-112870081D01*
X189581512Y-112898275D01*
X189553637Y-112943310D01*
X189530993Y-112970481D01*
X189485894Y-113022292D01*
X189451946Y-113065521D01*
X189443326Y-113078576D01*
X189409084Y-113100141D01*
X189349783Y-113087950D01*
X189265279Y-113041961D01*
X189219926Y-113010899D01*
X189106198Y-112939455D01*
X188981161Y-112877434D01*
X188864054Y-112834197D01*
X188847416Y-112829667D01*
X188800486Y-112815641D01*
X188725849Y-112791106D01*
X188635558Y-112760087D01*
X188578351Y-112739846D01*
X188470048Y-112704179D01*
X188355554Y-112671480D01*
X188253633Y-112646946D01*
X188218518Y-112640228D01*
X188060838Y-112625378D01*
X187874516Y-112627433D01*
X187669251Y-112645355D01*
X187454743Y-112678109D01*
X187240694Y-112724656D01*
X187120260Y-112757659D01*
X187050342Y-112781670D01*
X186961568Y-112816893D01*
X186861221Y-112859880D01*
X186756581Y-112907183D01*
X186654931Y-112955356D01*
X186563552Y-113000950D01*
X186489727Y-113040518D01*
X186440738Y-113070613D01*
X186423833Y-113087379D01*
X186407266Y-113095384D01*
X186386791Y-113092087D01*
X186352759Y-113069404D01*
X186303154Y-113020287D01*
X186243576Y-112952168D01*
X186179625Y-112872482D01*
X186116900Y-112788663D01*
X186061001Y-112708144D01*
X186017529Y-112638359D01*
X185992083Y-112586742D01*
X185988522Y-112563376D01*
X185981368Y-112534781D01*
X185971543Y-112528584D01*
X185949231Y-112503705D01*
X185924479Y-112453236D01*
X185916225Y-112430521D01*
X185886377Y-112358591D01*
X185858607Y-112328843D01*
X185833439Y-112341156D01*
X185811395Y-112395407D01*
X185798127Y-112458131D01*
X185786401Y-112508486D01*
X185773329Y-112520755D01*
X185763625Y-112511480D01*
X185750949Y-112500741D01*
X185752927Y-112527549D01*
X185754749Y-112536376D01*
X185753890Y-112580285D01*
X185741596Y-112654181D01*
X185719803Y-112747886D01*
X185702350Y-112811542D01*
X185674068Y-112914593D01*
X185649494Y-113014130D01*
X185631952Y-113096173D01*
X185625940Y-113133125D01*
X185615705Y-113194560D01*
X185600476Y-113224415D01*
X185573721Y-113233417D01*
X185564712Y-113233666D01*
X185511376Y-113253721D01*
X185456269Y-113309836D01*
X185401716Y-113395936D01*
X185350044Y-113505946D01*
X185303576Y-113633792D01*
X185264638Y-113773398D01*
X185235555Y-113918690D01*
X185218653Y-114063594D01*
X185215336Y-114146434D01*
X185146027Y-114146434D01*
X185152476Y-113992056D01*
X185153405Y-113985083D01*
X185175000Y-113985083D01*
X185185583Y-113995666D01*
X185196166Y-113985083D01*
X185185583Y-113974500D01*
X185175000Y-113985083D01*
X185153405Y-113985083D01*
X185174213Y-113828927D01*
X185212984Y-113677450D01*
X185271998Y-113522963D01*
X185304112Y-113452557D01*
X185375792Y-113321586D01*
X185448289Y-113228241D01*
X185469131Y-113208711D01*
X185531618Y-113142498D01*
X185563282Y-113072450D01*
X185567392Y-113053321D01*
X185579628Y-112998934D01*
X185601188Y-112916109D01*
X185628848Y-112816843D01*
X185654520Y-112729252D01*
X185685746Y-112622635D01*
X185714559Y-112519637D01*
X185737357Y-112433396D01*
X185748874Y-112385148D01*
X185764167Y-112327790D01*
X185779040Y-112294172D01*
X185786194Y-112290119D01*
X185787428Y-112288222D01*
X185859388Y-112288222D01*
X185862294Y-112300805D01*
X185873500Y-112302333D01*
X185890922Y-112294588D01*
X185887611Y-112288222D01*
X185862491Y-112285688D01*
X185859388Y-112288222D01*
X185787428Y-112288222D01*
X185793917Y-112278254D01*
X185793744Y-112237146D01*
X185792677Y-112226765D01*
X185790622Y-112177471D01*
X185804305Y-112157349D01*
X185828850Y-112154166D01*
X185865665Y-112167473D01*
G36*
X187898444Y-116119388D02*
G01*
X187895538Y-116131972D01*
X187884333Y-116133500D01*
X187866910Y-116125755D01*
X187870222Y-116119388D01*
X187895342Y-116116855D01*
X187898444Y-116119388D01*
G37*
X187898444Y-116119388D02*
X187895538Y-116131972D01*
X187884333Y-116133500D01*
X187866910Y-116125755D01*
X187870222Y-116119388D01*
X187895342Y-116116855D01*
X187898444Y-116119388D01*
G36*
X187566833Y-116080583D02*
G01*
X187556250Y-116091166D01*
X187545666Y-116080583D01*
X187556250Y-116070000D01*
X187566833Y-116080583D01*
G37*
X187566833Y-116080583D02*
X187556250Y-116091166D01*
X187545666Y-116080583D01*
X187556250Y-116070000D01*
X187566833Y-116080583D01*
G36*
X187926666Y-116080583D02*
G01*
X187916083Y-116091166D01*
X187905500Y-116080583D01*
X187916083Y-116070000D01*
X187926666Y-116080583D01*
G37*
X187926666Y-116080583D02*
X187916083Y-116091166D01*
X187905500Y-116080583D01*
X187916083Y-116070000D01*
X187926666Y-116080583D01*
G36*
X187418666Y-115995916D02*
G01*
X187408083Y-116006500D01*
X187397500Y-115995916D01*
X187408083Y-115985333D01*
X187418666Y-115995916D01*
G37*
X187418666Y-115995916D02*
X187408083Y-116006500D01*
X187397500Y-115995916D01*
X187408083Y-115985333D01*
X187418666Y-115995916D01*
G36*
X187258817Y-115956090D02*
G01*
X187288610Y-115973170D01*
X187283619Y-115984215D01*
X187271749Y-115985333D01*
X187243046Y-115969960D01*
X187238899Y-115964409D01*
X187242306Y-115952381D01*
X187258817Y-115956090D01*
G37*
X187258817Y-115956090D02*
X187288610Y-115973170D01*
X187283619Y-115984215D01*
X187271749Y-115985333D01*
X187243046Y-115969960D01*
X187238899Y-115964409D01*
X187242306Y-115952381D01*
X187258817Y-115956090D01*
G36*
X187961944Y-115971222D02*
G01*
X187959038Y-115983805D01*
X187947833Y-115985333D01*
X187930410Y-115977588D01*
X187933722Y-115971222D01*
X187958842Y-115968688D01*
X187961944Y-115971222D01*
G37*
X187961944Y-115971222D02*
X187959038Y-115983805D01*
X187947833Y-115985333D01*
X187930410Y-115977588D01*
X187933722Y-115971222D01*
X187958842Y-115968688D01*
X187961944Y-115971222D01*
G36*
X188074833Y-115974750D02*
G01*
X188064250Y-115985333D01*
X188053666Y-115974750D01*
X188064250Y-115964166D01*
X188074833Y-115974750D01*
G37*
X188074833Y-115974750D02*
X188064250Y-115985333D01*
X188053666Y-115974750D01*
X188064250Y-115964166D01*
X188074833Y-115974750D01*
G36*
X188688666Y-115974750D02*
G01*
X188678083Y-115985333D01*
X188667500Y-115974750D01*
X188678083Y-115964166D01*
X188688666Y-115974750D01*
G37*
X188688666Y-115974750D02*
X188678083Y-115985333D01*
X188667500Y-115974750D01*
X188678083Y-115964166D01*
X188688666Y-115974750D01*
G36*
X188773333Y-115953583D02*
G01*
X188762750Y-115964166D01*
X188752166Y-115953583D01*
X188762750Y-115943000D01*
X188773333Y-115953583D01*
G37*
X188773333Y-115953583D02*
X188762750Y-115964166D01*
X188752166Y-115953583D01*
X188762750Y-115943000D01*
X188773333Y-115953583D01*
G36*
X188022217Y-115456416D02*
G01*
X188057759Y-115470881D01*
X188073663Y-115467472D01*
X188087185Y-115469655D01*
X188084482Y-115482719D01*
X188090050Y-115515974D01*
X188117708Y-115562276D01*
X188127032Y-115573777D01*
X188164567Y-115631728D01*
X188179473Y-115700568D01*
X188180640Y-115736625D01*
X188176125Y-115799278D01*
X188164042Y-115833556D01*
X188157235Y-115837166D01*
X188143311Y-115852649D01*
X188146409Y-115870016D01*
X188148566Y-115892282D01*
X188140489Y-115891415D01*
X188113828Y-115895847D01*
X188095249Y-115912154D01*
X188052045Y-115935933D01*
X187990555Y-115940867D01*
X187928947Y-115928583D01*
X187885392Y-115900703D01*
X187880193Y-115892931D01*
X187869227Y-115846520D01*
X187867390Y-115775079D01*
X187870421Y-115733117D01*
X187880626Y-115643400D01*
X187890518Y-115584418D01*
X187903553Y-115544744D01*
X187923189Y-115512949D01*
X187944963Y-115486666D01*
X187982165Y-115451427D01*
X188009642Y-115448294D01*
X188022217Y-115456416D01*
G37*
X188022217Y-115456416D02*
X188057759Y-115470881D01*
X188073663Y-115467472D01*
X188087185Y-115469655D01*
X188084482Y-115482719D01*
X188090050Y-115515974D01*
X188117708Y-115562276D01*
X188127032Y-115573777D01*
X188164567Y-115631728D01*
X188179473Y-115700568D01*
X188180640Y-115736625D01*
X188176125Y-115799278D01*
X188164042Y-115833556D01*
X188157235Y-115837166D01*
X188143311Y-115852649D01*
X188146409Y-115870016D01*
X188148566Y-115892282D01*
X188140489Y-115891415D01*
X188113828Y-115895847D01*
X188095249Y-115912154D01*
X188052045Y-115935933D01*
X187990555Y-115940867D01*
X187928947Y-115928583D01*
X187885392Y-115900703D01*
X187880193Y-115892931D01*
X187869227Y-115846520D01*
X187867390Y-115775079D01*
X187870421Y-115733117D01*
X187880626Y-115643400D01*
X187890518Y-115584418D01*
X187903553Y-115544744D01*
X187923189Y-115512949D01*
X187944963Y-115486666D01*
X187982165Y-115451427D01*
X188009642Y-115448294D01*
X188022217Y-115456416D01*
G36*
X188681611Y-115928888D02*
G01*
X188678705Y-115941472D01*
X188667500Y-115943000D01*
X188650077Y-115935255D01*
X188653388Y-115928888D01*
X188678508Y-115926355D01*
X188681611Y-115928888D01*
G37*
X188681611Y-115928888D02*
X188678705Y-115941472D01*
X188667500Y-115943000D01*
X188650077Y-115935255D01*
X188653388Y-115928888D01*
X188678508Y-115926355D01*
X188681611Y-115928888D01*
G36*
X188829777Y-115928888D02*
G01*
X188826872Y-115941472D01*
X188815666Y-115943000D01*
X188798244Y-115935255D01*
X188801555Y-115928888D01*
X188826675Y-115926355D01*
X188829777Y-115928888D01*
G37*
X188829777Y-115928888D02*
X188826872Y-115941472D01*
X188815666Y-115943000D01*
X188798244Y-115935255D01*
X188801555Y-115928888D01*
X188826675Y-115926355D01*
X188829777Y-115928888D01*
G36*
X187164666Y-115911250D02*
G01*
X187154083Y-115921833D01*
X187143500Y-115911250D01*
X187154083Y-115900666D01*
X187164666Y-115911250D01*
G37*
X187164666Y-115911250D02*
X187154083Y-115921833D01*
X187143500Y-115911250D01*
X187154083Y-115900666D01*
X187164666Y-115911250D01*
G36*
X187270500Y-115911250D02*
G01*
X187259916Y-115921833D01*
X187249333Y-115911250D01*
X187259916Y-115900666D01*
X187270500Y-115911250D01*
G37*
X187270500Y-115911250D02*
X187259916Y-115921833D01*
X187249333Y-115911250D01*
X187259916Y-115900666D01*
X187270500Y-115911250D01*
G36*
X188773333Y-115911250D02*
G01*
X188762750Y-115921833D01*
X188752166Y-115911250D01*
X188762750Y-115900666D01*
X188773333Y-115911250D01*
G37*
X188773333Y-115911250D02*
X188762750Y-115921833D01*
X188752166Y-115911250D01*
X188762750Y-115900666D01*
X188773333Y-115911250D01*
G36*
X188977556Y-115808698D02*
G01*
X188976968Y-115824031D01*
X188965107Y-115861350D01*
X188958978Y-115870243D01*
X188950109Y-115865634D01*
X188950697Y-115850302D01*
X188962559Y-115812983D01*
X188968687Y-115804089D01*
X188977556Y-115808698D01*
G37*
X188977556Y-115808698D02*
X188976968Y-115824031D01*
X188965107Y-115861350D01*
X188958978Y-115870243D01*
X188950109Y-115865634D01*
X188950697Y-115850302D01*
X188962559Y-115812983D01*
X188968687Y-115804089D01*
X188977556Y-115808698D01*
G36*
X187270500Y-115847750D02*
G01*
X187259916Y-115858333D01*
X187249333Y-115847750D01*
X187259916Y-115837166D01*
X187270500Y-115847750D01*
G37*
X187270500Y-115847750D02*
X187259916Y-115858333D01*
X187249333Y-115847750D01*
X187259916Y-115837166D01*
X187270500Y-115847750D01*
G36*
X188831100Y-115845545D02*
G01*
X188824787Y-115855165D01*
X188803319Y-115856662D01*
X188780733Y-115851492D01*
X188790531Y-115843874D01*
X188823612Y-115841350D01*
X188831100Y-115845545D01*
G37*
X188831100Y-115845545D02*
X188824787Y-115855165D01*
X188803319Y-115856662D01*
X188780733Y-115851492D01*
X188790531Y-115843874D01*
X188823612Y-115841350D01*
X188831100Y-115845545D01*
G36*
X186924777Y-115780722D02*
G01*
X186927311Y-115805842D01*
X186924777Y-115808944D01*
X186912194Y-115806038D01*
X186910666Y-115794833D01*
X186918411Y-115777410D01*
X186924777Y-115780722D01*
G37*
X186924777Y-115780722D02*
X186927311Y-115805842D01*
X186924777Y-115808944D01*
X186912194Y-115806038D01*
X186910666Y-115794833D01*
X186918411Y-115777410D01*
X186924777Y-115780722D01*
G36*
X187469171Y-115278253D02*
G01*
X187487963Y-115307594D01*
X187494214Y-115374414D01*
X187487906Y-115475752D01*
X187471266Y-115595283D01*
X187442073Y-115671237D01*
X187387748Y-115735864D01*
X187318859Y-115781605D01*
X187245974Y-115800901D01*
X187194492Y-115793259D01*
X187158534Y-115771793D01*
X187124235Y-115740493D01*
X187100839Y-115710012D01*
X187097591Y-115691004D01*
X187104019Y-115689000D01*
X187118416Y-115670395D01*
X187115828Y-115620208D01*
X187110931Y-115582160D01*
X187113914Y-115576125D01*
X187115527Y-115579618D01*
X187131018Y-115584738D01*
X187153944Y-115562217D01*
X187177066Y-115524122D01*
X187193142Y-115482521D01*
X187194932Y-115449480D01*
X187194445Y-115448080D01*
X187196462Y-115413781D01*
X187205314Y-115404291D01*
X187219163Y-115406909D01*
X187215569Y-115428608D01*
X187214908Y-115445489D01*
X187235430Y-115427515D01*
X187247064Y-115413833D01*
X187311452Y-115338109D01*
X187358345Y-115291565D01*
X187395546Y-115269438D01*
X187430860Y-115266965D01*
X187469171Y-115278253D01*
G37*
X187469171Y-115278253D02*
X187487963Y-115307594D01*
X187494214Y-115374414D01*
X187487906Y-115475752D01*
X187471266Y-115595283D01*
X187442073Y-115671237D01*
X187387748Y-115735864D01*
X187318859Y-115781605D01*
X187245974Y-115800901D01*
X187194492Y-115793259D01*
X187158534Y-115771793D01*
X187124235Y-115740493D01*
X187100839Y-115710012D01*
X187097591Y-115691004D01*
X187104019Y-115689000D01*
X187118416Y-115670395D01*
X187115828Y-115620208D01*
X187110931Y-115582160D01*
X187113914Y-115576125D01*
X187115527Y-115579618D01*
X187131018Y-115584738D01*
X187153944Y-115562217D01*
X187177066Y-115524122D01*
X187193142Y-115482521D01*
X187194932Y-115449480D01*
X187194445Y-115448080D01*
X187196462Y-115413781D01*
X187205314Y-115404291D01*
X187219163Y-115406909D01*
X187215569Y-115428608D01*
X187214908Y-115445489D01*
X187235430Y-115427515D01*
X187247064Y-115413833D01*
X187311452Y-115338109D01*
X187358345Y-115291565D01*
X187395546Y-115269438D01*
X187430860Y-115266965D01*
X187469171Y-115278253D01*
G36*
X188265333Y-115805416D02*
G01*
X188254750Y-115816000D01*
X188244166Y-115805416D01*
X188254750Y-115794833D01*
X188265333Y-115805416D01*
G37*
X188265333Y-115805416D02*
X188254750Y-115816000D01*
X188244166Y-115805416D01*
X188254750Y-115794833D01*
X188265333Y-115805416D01*
G36*
X188215944Y-115759555D02*
G01*
X188218477Y-115784675D01*
X188215944Y-115787777D01*
X188203360Y-115784872D01*
X188201833Y-115773666D01*
X188209577Y-115756244D01*
X188215944Y-115759555D01*
G37*
X188215944Y-115759555D02*
X188218477Y-115784675D01*
X188215944Y-115787777D01*
X188203360Y-115784872D01*
X188201833Y-115773666D01*
X188209577Y-115756244D01*
X188215944Y-115759555D01*
G36*
X189027333Y-115784250D02*
G01*
X189016750Y-115794833D01*
X189006166Y-115784250D01*
X189016750Y-115773666D01*
X189027333Y-115784250D01*
G37*
X189027333Y-115784250D02*
X189016750Y-115794833D01*
X189006166Y-115784250D01*
X189016750Y-115773666D01*
X189027333Y-115784250D01*
G36*
X186995333Y-115763083D02*
G01*
X186984750Y-115773666D01*
X186974166Y-115763083D01*
X186984750Y-115752500D01*
X186995333Y-115763083D01*
G37*
X186995333Y-115763083D02*
X186984750Y-115773666D01*
X186974166Y-115763083D01*
X186984750Y-115752500D01*
X186995333Y-115763083D01*
G36*
X187080000Y-115763083D02*
G01*
X187069416Y-115773666D01*
X187058833Y-115763083D01*
X187069416Y-115752500D01*
X187080000Y-115763083D01*
G37*
X187080000Y-115763083D02*
X187069416Y-115773666D01*
X187058833Y-115763083D01*
X187069416Y-115752500D01*
X187080000Y-115763083D01*
G36*
X188693475Y-115367917D02*
G01*
X188709639Y-115381850D01*
X188740886Y-115401914D01*
X188757835Y-115399746D01*
X188770280Y-115399359D01*
X188766773Y-115407323D01*
X188772342Y-115433717D01*
X188802136Y-115474047D01*
X188816155Y-115488385D01*
X188861338Y-115547160D01*
X188890460Y-115613151D01*
X188892533Y-115622311D01*
X188896982Y-115678785D01*
X188879060Y-115716244D01*
X188858702Y-115735020D01*
X188796820Y-115764821D01*
X188723116Y-115773015D01*
X188655064Y-115759606D01*
X188617863Y-115734958D01*
X188595407Y-115691718D01*
X188584506Y-115620162D01*
X188582833Y-115560133D01*
X188580647Y-115482401D01*
X188572071Y-115435432D01*
X188554076Y-115407792D01*
X188539639Y-115397041D01*
X188496405Y-115381427D01*
X188470847Y-115384471D01*
X188455841Y-115390083D01*
X188470811Y-115371268D01*
X188497401Y-115354679D01*
X188529281Y-115370865D01*
X188532461Y-115373455D01*
X188562734Y-115391450D01*
X188577337Y-115377140D01*
X188577456Y-115376791D01*
X188603662Y-115355033D01*
X188648578Y-115352314D01*
X188693475Y-115367917D01*
G37*
X188693475Y-115367917D02*
X188709639Y-115381850D01*
X188740886Y-115401914D01*
X188757835Y-115399746D01*
X188770280Y-115399359D01*
X188766773Y-115407323D01*
X188772342Y-115433717D01*
X188802136Y-115474047D01*
X188816155Y-115488385D01*
X188861338Y-115547160D01*
X188890460Y-115613151D01*
X188892533Y-115622311D01*
X188896982Y-115678785D01*
X188879060Y-115716244D01*
X188858702Y-115735020D01*
X188796820Y-115764821D01*
X188723116Y-115773015D01*
X188655064Y-115759606D01*
X188617863Y-115734958D01*
X188595407Y-115691718D01*
X188584506Y-115620162D01*
X188582833Y-115560133D01*
X188580647Y-115482401D01*
X188572071Y-115435432D01*
X188554076Y-115407792D01*
X188539639Y-115397041D01*
X188496405Y-115381427D01*
X188470847Y-115384471D01*
X188455841Y-115390083D01*
X188470811Y-115371268D01*
X188497401Y-115354679D01*
X188529281Y-115370865D01*
X188532461Y-115373455D01*
X188562734Y-115391450D01*
X188577337Y-115377140D01*
X188577456Y-115376791D01*
X188603662Y-115355033D01*
X188648578Y-115352314D01*
X188693475Y-115367917D01*
G36*
X188963833Y-115763083D02*
G01*
X188953250Y-115773666D01*
X188942666Y-115763083D01*
X188953250Y-115752500D01*
X188963833Y-115763083D01*
G37*
X188963833Y-115763083D02*
X188953250Y-115773666D01*
X188942666Y-115763083D01*
X188953250Y-115752500D01*
X188963833Y-115763083D01*
G36*
X189048500Y-115741916D02*
G01*
X189037916Y-115752500D01*
X189027333Y-115741916D01*
X189037916Y-115731333D01*
X189048500Y-115741916D01*
G37*
X189048500Y-115741916D02*
X189037916Y-115752500D01*
X189027333Y-115741916D01*
X189037916Y-115731333D01*
X189048500Y-115741916D01*
G36*
X187820833Y-115720750D02*
G01*
X187810250Y-115731333D01*
X187799666Y-115720750D01*
X187810250Y-115710166D01*
X187820833Y-115720750D01*
G37*
X187820833Y-115720750D02*
X187810250Y-115731333D01*
X187799666Y-115720750D01*
X187810250Y-115710166D01*
X187820833Y-115720750D01*
G36*
X188512277Y-115696055D02*
G01*
X188514811Y-115721175D01*
X188512277Y-115724277D01*
X188499694Y-115721372D01*
X188498166Y-115710166D01*
X188505911Y-115692744D01*
X188512277Y-115696055D01*
G37*
X188512277Y-115696055D02*
X188514811Y-115721175D01*
X188512277Y-115724277D01*
X188499694Y-115721372D01*
X188498166Y-115710166D01*
X188505911Y-115692744D01*
X188512277Y-115696055D01*
G36*
X188223000Y-115678416D02*
G01*
X188243192Y-115697437D01*
X188244166Y-115700832D01*
X188227790Y-115709923D01*
X188223000Y-115710166D01*
X188202646Y-115693894D01*
X188201833Y-115687750D01*
X188214800Y-115675109D01*
X188223000Y-115678416D01*
G37*
X188223000Y-115678416D02*
X188243192Y-115697437D01*
X188244166Y-115700832D01*
X188227790Y-115709923D01*
X188223000Y-115710166D01*
X188202646Y-115693894D01*
X188201833Y-115687750D01*
X188214800Y-115675109D01*
X188223000Y-115678416D01*
G36*
X187496277Y-115653722D02*
G01*
X187498811Y-115678842D01*
X187496277Y-115681944D01*
X187483694Y-115679038D01*
X187482166Y-115667833D01*
X187489911Y-115650410D01*
X187496277Y-115653722D01*
G37*
X187496277Y-115653722D02*
X187498811Y-115678842D01*
X187496277Y-115681944D01*
X187483694Y-115679038D01*
X187482166Y-115667833D01*
X187489911Y-115650410D01*
X187496277Y-115653722D01*
G36*
X186804833Y-115657250D02*
G01*
X186794250Y-115667833D01*
X186783666Y-115657250D01*
X186794250Y-115646666D01*
X186804833Y-115657250D01*
G37*
X186804833Y-115657250D02*
X186794250Y-115667833D01*
X186783666Y-115657250D01*
X186794250Y-115646666D01*
X186804833Y-115657250D01*
G36*
X189162641Y-115603060D02*
G01*
X189166428Y-115625802D01*
X189163846Y-115662356D01*
X189153115Y-115660310D01*
X189142610Y-115644822D01*
X189141561Y-115611102D01*
X189147408Y-115602791D01*
X189162641Y-115603060D01*
G37*
X189162641Y-115603060D02*
X189166428Y-115625802D01*
X189163846Y-115662356D01*
X189153115Y-115660310D01*
X189142610Y-115644822D01*
X189141561Y-115611102D01*
X189147408Y-115602791D01*
X189162641Y-115603060D01*
G36*
X187566833Y-115636083D02*
G01*
X187556250Y-115646666D01*
X187545666Y-115636083D01*
X187556250Y-115625500D01*
X187566833Y-115636083D01*
G37*
X187566833Y-115636083D02*
X187556250Y-115646666D01*
X187545666Y-115636083D01*
X187556250Y-115625500D01*
X187566833Y-115636083D01*
G36*
X188265333Y-115636083D02*
G01*
X188254750Y-115646666D01*
X188244166Y-115636083D01*
X188254750Y-115625500D01*
X188265333Y-115636083D01*
G37*
X188265333Y-115636083D02*
X188254750Y-115646666D01*
X188244166Y-115636083D01*
X188254750Y-115625500D01*
X188265333Y-115636083D01*
G36*
X187834944Y-115569055D02*
G01*
X187837477Y-115594175D01*
X187834944Y-115597277D01*
X187822360Y-115594372D01*
X187820833Y-115583166D01*
X187828577Y-115565744D01*
X187834944Y-115569055D01*
G37*
X187834944Y-115569055D02*
X187837477Y-115594175D01*
X187834944Y-115597277D01*
X187822360Y-115594372D01*
X187820833Y-115583166D01*
X187828577Y-115565744D01*
X187834944Y-115569055D01*
G36*
X188554611Y-115569055D02*
G01*
X188557144Y-115594175D01*
X188554611Y-115597277D01*
X188542027Y-115594372D01*
X188540500Y-115583166D01*
X188548244Y-115565744D01*
X188554611Y-115569055D01*
G37*
X188554611Y-115569055D02*
X188557144Y-115594175D01*
X188554611Y-115597277D01*
X188542027Y-115594372D01*
X188540500Y-115583166D01*
X188548244Y-115565744D01*
X188554611Y-115569055D01*
G36*
X186910666Y-115572583D02*
G01*
X186900083Y-115583166D01*
X186889500Y-115572583D01*
X186900083Y-115562000D01*
X186910666Y-115572583D01*
G37*
X186910666Y-115572583D02*
X186900083Y-115583166D01*
X186889500Y-115572583D01*
X186900083Y-115562000D01*
X186910666Y-115572583D01*
G36*
X187778500Y-115572583D02*
G01*
X187767916Y-115583166D01*
X187757333Y-115572583D01*
X187767916Y-115562000D01*
X187778500Y-115572583D01*
G37*
X187778500Y-115572583D02*
X187767916Y-115583166D01*
X187757333Y-115572583D01*
X187767916Y-115562000D01*
X187778500Y-115572583D01*
G36*
X188244166Y-115572583D02*
G01*
X188233583Y-115583166D01*
X188223000Y-115572583D01*
X188233583Y-115562000D01*
X188244166Y-115572583D01*
G37*
X188244166Y-115572583D02*
X188233583Y-115583166D01*
X188223000Y-115572583D01*
X188233583Y-115562000D01*
X188244166Y-115572583D01*
G36*
X188921500Y-115572583D02*
G01*
X188910916Y-115583166D01*
X188900333Y-115572583D01*
X188910916Y-115562000D01*
X188921500Y-115572583D01*
G37*
X188921500Y-115572583D02*
X188910916Y-115583166D01*
X188900333Y-115572583D01*
X188910916Y-115562000D01*
X188921500Y-115572583D01*
G36*
X186691944Y-115547888D02*
G01*
X186689038Y-115560472D01*
X186677833Y-115562000D01*
X186660410Y-115554255D01*
X186663722Y-115547888D01*
X186688842Y-115545355D01*
X186691944Y-115547888D01*
G37*
X186691944Y-115547888D02*
X186689038Y-115560472D01*
X186677833Y-115562000D01*
X186660410Y-115554255D01*
X186663722Y-115547888D01*
X186688842Y-115545355D01*
X186691944Y-115547888D01*
G36*
X188455833Y-115551416D02*
G01*
X188445250Y-115562000D01*
X188434666Y-115551416D01*
X188445250Y-115540833D01*
X188455833Y-115551416D01*
G37*
X188455833Y-115551416D02*
X188445250Y-115562000D01*
X188434666Y-115551416D01*
X188445250Y-115540833D01*
X188455833Y-115551416D01*
G36*
X187122333Y-115530250D02*
G01*
X187111750Y-115540833D01*
X187101166Y-115530250D01*
X187111750Y-115519666D01*
X187122333Y-115530250D01*
G37*
X187122333Y-115530250D02*
X187111750Y-115540833D01*
X187101166Y-115530250D01*
X187111750Y-115519666D01*
X187122333Y-115530250D01*
G36*
X188512277Y-115505555D02*
G01*
X188514811Y-115530675D01*
X188512277Y-115533777D01*
X188499694Y-115530872D01*
X188498166Y-115519666D01*
X188505911Y-115502244D01*
X188512277Y-115505555D01*
G37*
X188512277Y-115505555D02*
X188514811Y-115530675D01*
X188512277Y-115533777D01*
X188499694Y-115530872D01*
X188498166Y-115519666D01*
X188505911Y-115502244D01*
X188512277Y-115505555D01*
G36*
X186882444Y-115505555D02*
G01*
X186879538Y-115518139D01*
X186868333Y-115519666D01*
X186850910Y-115511922D01*
X186854222Y-115505555D01*
X186879342Y-115503022D01*
X186882444Y-115505555D01*
G37*
X186882444Y-115505555D02*
X186879538Y-115518139D01*
X186868333Y-115519666D01*
X186850910Y-115511922D01*
X186854222Y-115505555D01*
X186879342Y-115503022D01*
X186882444Y-115505555D01*
G36*
X187164666Y-115487916D02*
G01*
X187154083Y-115498500D01*
X187143500Y-115487916D01*
X187154083Y-115477333D01*
X187164666Y-115487916D01*
G37*
X187164666Y-115487916D02*
X187154083Y-115498500D01*
X187143500Y-115487916D01*
X187154083Y-115477333D01*
X187164666Y-115487916D01*
G36*
X188477000Y-115487916D02*
G01*
X188466416Y-115498500D01*
X188455833Y-115487916D01*
X188466416Y-115477333D01*
X188477000Y-115487916D01*
G37*
X188477000Y-115487916D02*
X188466416Y-115498500D01*
X188455833Y-115487916D01*
X188466416Y-115477333D01*
X188477000Y-115487916D01*
G36*
X186971274Y-115045913D02*
G01*
X186991465Y-115057886D01*
X187012228Y-115076573D01*
X187020263Y-115101378D01*
X187016347Y-115144041D01*
X187001791Y-115213925D01*
X186962131Y-115335356D01*
X186905477Y-115418792D01*
X186830622Y-115465515D01*
X186754310Y-115477333D01*
X186685288Y-115471476D01*
X186643281Y-115450599D01*
X186627948Y-115432904D01*
X186609933Y-115371910D01*
X186630492Y-115297831D01*
X186688809Y-115213104D01*
X186708885Y-115190869D01*
X186746871Y-115146294D01*
X186766223Y-115114847D01*
X186766406Y-115107295D01*
X186773081Y-115097775D01*
X186787470Y-115096333D01*
X186827508Y-115087295D01*
X186881593Y-115065321D01*
X186885956Y-115063178D01*
X186936514Y-115042870D01*
X186971274Y-115045913D01*
G37*
X186971274Y-115045913D02*
X186991465Y-115057886D01*
X187012228Y-115076573D01*
X187020263Y-115101378D01*
X187016347Y-115144041D01*
X187001791Y-115213925D01*
X186962131Y-115335356D01*
X186905477Y-115418792D01*
X186830622Y-115465515D01*
X186754310Y-115477333D01*
X186685288Y-115471476D01*
X186643281Y-115450599D01*
X186627948Y-115432904D01*
X186609933Y-115371910D01*
X186630492Y-115297831D01*
X186688809Y-115213104D01*
X186708885Y-115190869D01*
X186746871Y-115146294D01*
X186766223Y-115114847D01*
X186766406Y-115107295D01*
X186773081Y-115097775D01*
X186787470Y-115096333D01*
X186827508Y-115087295D01*
X186881593Y-115065321D01*
X186885956Y-115063178D01*
X186936514Y-115042870D01*
X186971274Y-115045913D01*
G36*
X188561666Y-115466750D02*
G01*
X188551083Y-115477333D01*
X188540500Y-115466750D01*
X188551083Y-115456166D01*
X188561666Y-115466750D01*
G37*
X188561666Y-115466750D02*
X188551083Y-115477333D01*
X188540500Y-115466750D01*
X188551083Y-115456166D01*
X188561666Y-115466750D01*
G36*
X188858000Y-115466750D02*
G01*
X188847416Y-115477333D01*
X188836833Y-115466750D01*
X188847416Y-115456166D01*
X188858000Y-115466750D01*
G37*
X188858000Y-115466750D02*
X188847416Y-115477333D01*
X188836833Y-115466750D01*
X188847416Y-115456166D01*
X188858000Y-115466750D01*
G36*
X189302500Y-115445583D02*
G01*
X189291916Y-115456166D01*
X189281333Y-115445583D01*
X189291916Y-115435000D01*
X189302500Y-115445583D01*
G37*
X189302500Y-115445583D02*
X189291916Y-115456166D01*
X189281333Y-115445583D01*
X189291916Y-115435000D01*
X189302500Y-115445583D01*
G36*
X188053666Y-115424416D02*
G01*
X188043083Y-115435000D01*
X188032500Y-115424416D01*
X188043083Y-115413833D01*
X188053666Y-115424416D01*
G37*
X188053666Y-115424416D02*
X188043083Y-115435000D01*
X188032500Y-115424416D01*
X188043083Y-115413833D01*
X188053666Y-115424416D01*
G36*
X188808611Y-115399722D02*
G01*
X188811144Y-115424842D01*
X188808611Y-115427944D01*
X188796027Y-115425038D01*
X188794500Y-115413833D01*
X188802244Y-115396410D01*
X188808611Y-115399722D01*
G37*
X188808611Y-115399722D02*
X188811144Y-115424842D01*
X188808611Y-115427944D01*
X188796027Y-115425038D01*
X188794500Y-115413833D01*
X188802244Y-115396410D01*
X188808611Y-115399722D01*
G36*
X187164666Y-115403250D02*
G01*
X187154083Y-115413833D01*
X187143500Y-115403250D01*
X187154083Y-115392666D01*
X187164666Y-115403250D01*
G37*
X187164666Y-115403250D02*
X187154083Y-115413833D01*
X187143500Y-115403250D01*
X187154083Y-115392666D01*
X187164666Y-115403250D01*
G36*
X187990166Y-115403250D02*
G01*
X187979583Y-115413833D01*
X187969000Y-115403250D01*
X187979583Y-115392666D01*
X187990166Y-115403250D01*
G37*
X187990166Y-115403250D02*
X187979583Y-115413833D01*
X187969000Y-115403250D01*
X187979583Y-115392666D01*
X187990166Y-115403250D01*
G36*
X188096000Y-115403250D02*
G01*
X188085416Y-115413833D01*
X188074833Y-115403250D01*
X188085416Y-115392666D01*
X188096000Y-115403250D01*
G37*
X188096000Y-115403250D02*
X188085416Y-115413833D01*
X188074833Y-115403250D01*
X188085416Y-115392666D01*
X188096000Y-115403250D01*
G36*
X188942666Y-115403250D02*
G01*
X188932083Y-115413833D01*
X188921500Y-115403250D01*
X188932083Y-115392666D01*
X188942666Y-115403250D01*
G37*
X188942666Y-115403250D02*
X188932083Y-115413833D01*
X188921500Y-115403250D01*
X188932083Y-115392666D01*
X188942666Y-115403250D01*
G36*
X189337777Y-115378555D02*
G01*
X189340311Y-115403675D01*
X189337777Y-115406777D01*
X189325194Y-115403872D01*
X189323666Y-115392666D01*
X189331411Y-115375244D01*
X189337777Y-115378555D01*
G37*
X189337777Y-115378555D02*
X189340311Y-115403675D01*
X189337777Y-115406777D01*
X189325194Y-115403872D01*
X189323666Y-115392666D01*
X189331411Y-115375244D01*
X189337777Y-115378555D01*
G36*
X186995333Y-115382083D02*
G01*
X186984750Y-115392666D01*
X186974166Y-115382083D01*
X186984750Y-115371500D01*
X186995333Y-115382083D01*
G37*
X186995333Y-115382083D02*
X186984750Y-115392666D01*
X186974166Y-115382083D01*
X186984750Y-115371500D01*
X186995333Y-115382083D01*
G36*
X187538959Y-115346364D02*
G01*
X187541482Y-115379445D01*
X187537288Y-115386934D01*
X187527667Y-115380621D01*
X187526171Y-115359152D01*
X187531340Y-115336567D01*
X187538959Y-115346364D01*
G37*
X187538959Y-115346364D02*
X187541482Y-115379445D01*
X187537288Y-115386934D01*
X187527667Y-115380621D01*
X187526171Y-115359152D01*
X187531340Y-115336567D01*
X187538959Y-115346364D01*
G36*
X188200971Y-115365698D02*
G01*
X188201833Y-115371500D01*
X188194611Y-115392116D01*
X188192499Y-115392666D01*
X188174427Y-115377834D01*
X188170083Y-115371500D01*
X188171761Y-115351995D01*
X188179417Y-115350333D01*
X188200971Y-115365698D01*
G37*
X188200971Y-115365698D02*
X188201833Y-115371500D01*
X188194611Y-115392116D01*
X188192499Y-115392666D01*
X188174427Y-115377834D01*
X188170083Y-115371500D01*
X188171761Y-115351995D01*
X188179417Y-115350333D01*
X188200971Y-115365698D01*
G36*
X188328833Y-115382083D02*
G01*
X188318250Y-115392666D01*
X188307666Y-115382083D01*
X188318250Y-115371500D01*
X188328833Y-115382083D01*
G37*
X188328833Y-115382083D02*
X188318250Y-115392666D01*
X188307666Y-115382083D01*
X188318250Y-115371500D01*
X188328833Y-115382083D01*
G36*
X188406859Y-115364005D02*
G01*
X188402916Y-115371500D01*
X188382973Y-115391714D01*
X188379251Y-115392666D01*
X188377807Y-115378994D01*
X188381750Y-115371500D01*
X188401693Y-115351285D01*
X188405415Y-115350333D01*
X188406859Y-115364005D01*
G37*
X188406859Y-115364005D02*
X188402916Y-115371500D01*
X188382973Y-115391714D01*
X188379251Y-115392666D01*
X188377807Y-115378994D01*
X188381750Y-115371500D01*
X188401693Y-115351285D01*
X188405415Y-115350333D01*
X188406859Y-115364005D01*
G36*
X189278062Y-115337728D02*
G01*
X189300786Y-115359041D01*
X189296124Y-115371293D01*
X189293165Y-115371500D01*
X189275262Y-115356465D01*
X189268728Y-115347062D01*
X189266233Y-115332578D01*
X189278062Y-115337728D01*
G37*
X189278062Y-115337728D02*
X189300786Y-115359041D01*
X189296124Y-115371293D01*
X189293165Y-115371500D01*
X189275262Y-115356465D01*
X189268728Y-115347062D01*
X189266233Y-115332578D01*
X189278062Y-115337728D01*
G36*
X187270500Y-115339750D02*
G01*
X187259916Y-115350333D01*
X187249333Y-115339750D01*
X187259916Y-115329166D01*
X187270500Y-115339750D01*
G37*
X187270500Y-115339750D02*
X187259916Y-115350333D01*
X187249333Y-115339750D01*
X187259916Y-115329166D01*
X187270500Y-115339750D01*
G36*
X187961944Y-115336222D02*
G01*
X187959038Y-115348805D01*
X187947833Y-115350333D01*
X187930410Y-115342588D01*
X187933722Y-115336222D01*
X187958842Y-115333688D01*
X187961944Y-115336222D01*
G37*
X187961944Y-115336222D02*
X187959038Y-115348805D01*
X187947833Y-115350333D01*
X187930410Y-115342588D01*
X187933722Y-115336222D01*
X187958842Y-115333688D01*
X187961944Y-115336222D01*
G36*
X188371166Y-115339750D02*
G01*
X188360583Y-115350333D01*
X188350000Y-115339750D01*
X188360583Y-115329166D01*
X188371166Y-115339750D01*
G37*
X188371166Y-115339750D02*
X188360583Y-115350333D01*
X188350000Y-115339750D01*
X188360583Y-115329166D01*
X188371166Y-115339750D01*
G36*
X188455833Y-115339750D02*
G01*
X188445250Y-115350333D01*
X188434666Y-115339750D01*
X188445250Y-115329166D01*
X188455833Y-115339750D01*
G37*
X188455833Y-115339750D02*
X188445250Y-115350333D01*
X188434666Y-115339750D01*
X188445250Y-115329166D01*
X188455833Y-115339750D01*
G36*
X188773333Y-115339750D02*
G01*
X188762750Y-115350333D01*
X188752166Y-115339750D01*
X188762750Y-115329166D01*
X188773333Y-115339750D01*
G37*
X188773333Y-115339750D02*
X188762750Y-115350333D01*
X188752166Y-115339750D01*
X188762750Y-115329166D01*
X188773333Y-115339750D01*
G36*
X187016500Y-115318583D02*
G01*
X187005916Y-115329166D01*
X186995333Y-115318583D01*
X187005916Y-115308000D01*
X187016500Y-115318583D01*
G37*
X187016500Y-115318583D02*
X187005916Y-115329166D01*
X186995333Y-115318583D01*
X187005916Y-115308000D01*
X187016500Y-115318583D01*
G36*
X188681611Y-115315055D02*
G01*
X188678705Y-115327639D01*
X188667500Y-115329166D01*
X188650077Y-115321422D01*
X188653388Y-115315055D01*
X188678508Y-115312522D01*
X188681611Y-115315055D01*
G37*
X188681611Y-115315055D02*
X188678705Y-115327639D01*
X188667500Y-115329166D01*
X188650077Y-115321422D01*
X188653388Y-115315055D01*
X188678508Y-115312522D01*
X188681611Y-115315055D01*
G36*
X188413500Y-115297416D02*
G01*
X188402916Y-115308000D01*
X188392333Y-115297416D01*
X188402916Y-115286833D01*
X188413500Y-115297416D01*
G37*
X188413500Y-115297416D02*
X188402916Y-115308000D01*
X188392333Y-115297416D01*
X188402916Y-115286833D01*
X188413500Y-115297416D01*
G36*
X189133166Y-115297416D02*
G01*
X189122583Y-115308000D01*
X189112000Y-115297416D01*
X189122583Y-115286833D01*
X189133166Y-115297416D01*
G37*
X189133166Y-115297416D02*
X189122583Y-115308000D01*
X189112000Y-115297416D01*
X189122583Y-115286833D01*
X189133166Y-115297416D01*
G36*
X186614333Y-115276250D02*
G01*
X186603750Y-115286833D01*
X186593166Y-115276250D01*
X186603750Y-115265666D01*
X186614333Y-115276250D01*
G37*
X186614333Y-115276250D02*
X186603750Y-115286833D01*
X186593166Y-115276250D01*
X186603750Y-115265666D01*
X186614333Y-115276250D01*
G36*
X187270500Y-115276250D02*
G01*
X187259916Y-115286833D01*
X187249333Y-115276250D01*
X187259916Y-115265666D01*
X187270500Y-115276250D01*
G37*
X187270500Y-115276250D02*
X187259916Y-115286833D01*
X187249333Y-115276250D01*
X187259916Y-115265666D01*
X187270500Y-115276250D01*
G36*
X187588000Y-115276250D02*
G01*
X187577416Y-115286833D01*
X187566833Y-115276250D01*
X187577416Y-115265666D01*
X187588000Y-115276250D01*
G37*
X187588000Y-115276250D02*
X187577416Y-115286833D01*
X187566833Y-115276250D01*
X187577416Y-115265666D01*
X187588000Y-115276250D01*
G36*
X188092729Y-115253062D02*
G01*
X188115452Y-115274374D01*
X188110791Y-115286627D01*
X188107832Y-115286833D01*
X188089929Y-115271799D01*
X188083395Y-115262396D01*
X188080900Y-115247911D01*
X188092729Y-115253062D01*
G37*
X188092729Y-115253062D02*
X188115452Y-115274374D01*
X188110791Y-115286627D01*
X188107832Y-115286833D01*
X188089929Y-115271799D01*
X188083395Y-115262396D01*
X188080900Y-115247911D01*
X188092729Y-115253062D01*
G36*
X188766692Y-115258172D02*
G01*
X188762750Y-115265666D01*
X188742806Y-115285880D01*
X188739084Y-115286833D01*
X188737640Y-115273160D01*
X188741583Y-115265666D01*
X188761526Y-115245452D01*
X188765248Y-115244500D01*
X188766692Y-115258172D01*
G37*
X188766692Y-115258172D02*
X188762750Y-115265666D01*
X188742806Y-115285880D01*
X188739084Y-115286833D01*
X188737640Y-115273160D01*
X188741583Y-115265666D01*
X188761526Y-115245452D01*
X188765248Y-115244500D01*
X188766692Y-115258172D01*
G36*
X187080000Y-115255083D02*
G01*
X187069416Y-115265666D01*
X187058833Y-115255083D01*
X187069416Y-115244500D01*
X187080000Y-115255083D01*
G37*
X187080000Y-115255083D02*
X187069416Y-115265666D01*
X187058833Y-115255083D01*
X187069416Y-115244500D01*
X187080000Y-115255083D01*
G36*
X186593166Y-115233916D02*
G01*
X186582583Y-115244500D01*
X186572000Y-115233916D01*
X186582583Y-115223333D01*
X186593166Y-115233916D01*
G37*
X186593166Y-115233916D02*
X186582583Y-115244500D01*
X186572000Y-115233916D01*
X186582583Y-115223333D01*
X186593166Y-115233916D01*
G36*
X188131277Y-115209222D02*
G01*
X188133811Y-115234342D01*
X188131277Y-115237444D01*
X188118694Y-115234538D01*
X188117166Y-115223333D01*
X188124911Y-115205910D01*
X188131277Y-115209222D01*
G37*
X188131277Y-115209222D02*
X188133811Y-115234342D01*
X188131277Y-115237444D01*
X188118694Y-115234538D01*
X188117166Y-115223333D01*
X188124911Y-115205910D01*
X188131277Y-115209222D01*
G36*
X188709833Y-115233916D02*
G01*
X188699250Y-115244500D01*
X188688666Y-115233916D01*
X188699250Y-115223333D01*
X188709833Y-115233916D01*
G37*
X188709833Y-115233916D02*
X188699250Y-115244500D01*
X188688666Y-115233916D01*
X188699250Y-115223333D01*
X188709833Y-115233916D01*
G36*
X187814125Y-115177031D02*
G01*
X187816649Y-115210112D01*
X187812454Y-115217600D01*
X187802834Y-115211287D01*
X187801337Y-115189819D01*
X187806507Y-115167233D01*
X187814125Y-115177031D01*
G37*
X187814125Y-115177031D02*
X187816649Y-115210112D01*
X187812454Y-115217600D01*
X187802834Y-115211287D01*
X187801337Y-115189819D01*
X187806507Y-115167233D01*
X187814125Y-115177031D01*
G36*
X186381500Y-115191583D02*
G01*
X186370916Y-115202166D01*
X186360333Y-115191583D01*
X186370916Y-115181000D01*
X186381500Y-115191583D01*
G37*
X186381500Y-115191583D02*
X186370916Y-115202166D01*
X186360333Y-115191583D01*
X186370916Y-115181000D01*
X186381500Y-115191583D01*
G36*
X186649611Y-115166888D02*
G01*
X186652144Y-115192008D01*
X186649611Y-115195111D01*
X186637027Y-115192205D01*
X186635500Y-115181000D01*
X186643244Y-115163577D01*
X186649611Y-115166888D01*
G37*
X186649611Y-115166888D02*
X186652144Y-115192008D01*
X186649611Y-115195111D01*
X186637027Y-115192205D01*
X186635500Y-115181000D01*
X186643244Y-115163577D01*
X186649611Y-115166888D01*
G36*
X188688666Y-115191583D02*
G01*
X188678083Y-115202166D01*
X188667500Y-115191583D01*
X188678083Y-115181000D01*
X188688666Y-115191583D01*
G37*
X188688666Y-115191583D02*
X188678083Y-115202166D01*
X188667500Y-115191583D01*
X188678083Y-115181000D01*
X188688666Y-115191583D01*
G36*
X186337184Y-115047135D02*
G01*
X186336117Y-115082464D01*
X186336984Y-115096333D01*
X186342156Y-115117411D01*
X186356980Y-115101463D01*
X186360333Y-115096333D01*
X186377105Y-115079391D01*
X186380851Y-115085750D01*
X186370451Y-115121581D01*
X186363680Y-115133975D01*
X186346116Y-115143532D01*
X186325537Y-115114815D01*
X186322469Y-115108273D01*
X186310040Y-115060616D01*
X186319322Y-115042599D01*
X186336773Y-115041507D01*
X186337184Y-115047135D01*
G37*
X186337184Y-115047135D02*
X186336117Y-115082464D01*
X186336984Y-115096333D01*
X186342156Y-115117411D01*
X186356980Y-115101463D01*
X186360333Y-115096333D01*
X186377105Y-115079391D01*
X186380851Y-115085750D01*
X186370451Y-115121581D01*
X186363680Y-115133975D01*
X186346116Y-115143532D01*
X186325537Y-115114815D01*
X186322469Y-115108273D01*
X186310040Y-115060616D01*
X186319322Y-115042599D01*
X186336773Y-115041507D01*
X186337184Y-115047135D01*
G36*
X189471833Y-115149250D02*
G01*
X189461250Y-115159833D01*
X189450666Y-115149250D01*
X189461250Y-115138666D01*
X189471833Y-115149250D01*
G37*
X189471833Y-115149250D02*
X189461250Y-115159833D01*
X189450666Y-115149250D01*
X189461250Y-115138666D01*
X189471833Y-115149250D01*
G36*
X187778500Y-115128083D02*
G01*
X187767916Y-115138666D01*
X187757333Y-115128083D01*
X187767916Y-115117500D01*
X187778500Y-115128083D01*
G37*
X187778500Y-115128083D02*
X187767916Y-115138666D01*
X187757333Y-115128083D01*
X187767916Y-115117500D01*
X187778500Y-115128083D01*
G36*
X188921500Y-115128083D02*
G01*
X188910916Y-115138666D01*
X188900333Y-115128083D01*
X188910916Y-115117500D01*
X188921500Y-115128083D01*
G37*
X188921500Y-115128083D02*
X188910916Y-115138666D01*
X188900333Y-115128083D01*
X188910916Y-115117500D01*
X188921500Y-115128083D01*
G36*
X186251229Y-115041395D02*
G01*
X186273774Y-115061071D01*
X186275666Y-115065832D01*
X186265621Y-115074532D01*
X186244707Y-115055038D01*
X186241895Y-115050729D01*
X186239400Y-115036245D01*
X186251229Y-115041395D01*
G37*
X186251229Y-115041395D02*
X186273774Y-115061071D01*
X186275666Y-115065832D01*
X186265621Y-115074532D01*
X186244707Y-115055038D01*
X186241895Y-115050729D01*
X186239400Y-115036245D01*
X186251229Y-115041395D01*
G36*
X188897062Y-115041395D02*
G01*
X188919607Y-115061071D01*
X188921500Y-115065832D01*
X188911454Y-115074532D01*
X188890540Y-115055038D01*
X188887728Y-115050729D01*
X188885233Y-115036245D01*
X188897062Y-115041395D01*
G37*
X188897062Y-115041395D02*
X188919607Y-115061071D01*
X188921500Y-115065832D01*
X188911454Y-115074532D01*
X188890540Y-115055038D01*
X188887728Y-115050729D01*
X188885233Y-115036245D01*
X188897062Y-115041395D01*
G36*
X189493000Y-115043416D02*
G01*
X189482416Y-115054000D01*
X189471833Y-115043416D01*
X189482416Y-115032833D01*
X189493000Y-115043416D01*
G37*
X189493000Y-115043416D02*
X189482416Y-115054000D01*
X189471833Y-115043416D01*
X189482416Y-115032833D01*
X189493000Y-115043416D01*
G36*
X186296833Y-115022250D02*
G01*
X186286250Y-115032833D01*
X186275666Y-115022250D01*
X186286250Y-115011666D01*
X186296833Y-115022250D01*
G37*
X186296833Y-115022250D02*
X186286250Y-115032833D01*
X186275666Y-115022250D01*
X186286250Y-115011666D01*
X186296833Y-115022250D01*
G36*
X186381500Y-115022250D02*
G01*
X186370916Y-115032833D01*
X186360333Y-115022250D01*
X186370916Y-115011666D01*
X186381500Y-115022250D01*
G37*
X186381500Y-115022250D02*
X186370916Y-115032833D01*
X186360333Y-115022250D01*
X186370916Y-115011666D01*
X186381500Y-115022250D01*
G36*
X189471833Y-115001083D02*
G01*
X189461250Y-115011666D01*
X189450666Y-115001083D01*
X189461250Y-114990500D01*
X189471833Y-115001083D01*
G37*
X189471833Y-115001083D02*
X189461250Y-115011666D01*
X189450666Y-115001083D01*
X189461250Y-114990500D01*
X189471833Y-115001083D01*
G36*
X189514166Y-115001083D02*
G01*
X189503583Y-115011666D01*
X189493000Y-115001083D01*
X189503583Y-114990500D01*
X189514166Y-115001083D01*
G37*
X189514166Y-115001083D02*
X189503583Y-115011666D01*
X189493000Y-115001083D01*
X189503583Y-114990500D01*
X189514166Y-115001083D01*
G36*
X186395611Y-114976388D02*
G01*
X186392705Y-114988972D01*
X186381500Y-114990500D01*
X186364077Y-114982755D01*
X186367388Y-114976388D01*
X186392508Y-114973855D01*
X186395611Y-114976388D01*
G37*
X186395611Y-114976388D02*
X186392705Y-114988972D01*
X186381500Y-114990500D01*
X186364077Y-114982755D01*
X186367388Y-114976388D01*
X186392508Y-114973855D01*
X186395611Y-114976388D01*
G36*
X188921500Y-114958750D02*
G01*
X188910916Y-114969333D01*
X188900333Y-114958750D01*
X188910916Y-114948166D01*
X188921500Y-114958750D01*
G37*
X188921500Y-114958750D02*
X188910916Y-114969333D01*
X188900333Y-114958750D01*
X188910916Y-114948166D01*
X188921500Y-114958750D01*
G36*
X189020277Y-114934055D02*
G01*
X189017372Y-114946639D01*
X189006166Y-114948166D01*
X188988744Y-114940422D01*
X188992055Y-114934055D01*
X189017175Y-114931522D01*
X189020277Y-114934055D01*
G37*
X189020277Y-114934055D02*
X189017372Y-114946639D01*
X189006166Y-114948166D01*
X188988744Y-114940422D01*
X188992055Y-114934055D01*
X189017175Y-114931522D01*
X189020277Y-114934055D01*
G36*
X189112000Y-114937583D02*
G01*
X189101416Y-114948166D01*
X189090833Y-114937583D01*
X189101416Y-114927000D01*
X189112000Y-114937583D01*
G37*
X189112000Y-114937583D02*
X189101416Y-114948166D01*
X189090833Y-114937583D01*
X189101416Y-114927000D01*
X189112000Y-114937583D01*
G36*
X189281333Y-114937583D02*
G01*
X189270750Y-114948166D01*
X189260166Y-114937583D01*
X189270750Y-114927000D01*
X189281333Y-114937583D01*
G37*
X189281333Y-114937583D02*
X189270750Y-114948166D01*
X189260166Y-114937583D01*
X189270750Y-114927000D01*
X189281333Y-114937583D01*
G36*
X188124850Y-113981090D02*
G01*
X188164875Y-113990915D01*
X188170155Y-113995783D01*
X188164183Y-114020846D01*
X188137754Y-114066546D01*
X188098763Y-114122080D01*
X188055102Y-114176648D01*
X188014665Y-114219448D01*
X187995458Y-114234843D01*
X187971419Y-114270559D01*
X187976754Y-114318691D01*
X188004945Y-114369207D01*
X188049472Y-114412076D01*
X188103817Y-114437267D01*
X188128880Y-114440166D01*
X188225668Y-114420315D01*
X188310085Y-114366019D01*
X188367399Y-114289774D01*
X188395058Y-114240814D01*
X188412841Y-114228491D01*
X188421647Y-114240369D01*
X188433972Y-114287440D01*
X188426275Y-114306524D01*
X188413500Y-114302583D01*
X188393995Y-114304261D01*
X188392333Y-114311917D01*
X188388234Y-114356208D01*
X188368074Y-114389286D01*
X188358769Y-114399838D01*
X188302082Y-114438743D01*
X188221904Y-114466314D01*
X188136606Y-114477513D01*
X188088686Y-114473926D01*
X188011650Y-114441350D01*
X187960434Y-114396371D01*
X187924738Y-114356700D01*
X187901963Y-114346327D01*
X187878411Y-114361630D01*
X187867915Y-114371918D01*
X187777148Y-114442633D01*
X187683497Y-114480083D01*
X187593983Y-114483172D01*
X187515629Y-114450805D01*
X187491787Y-114430545D01*
X187451137Y-114378166D01*
X187443101Y-114326329D01*
X187466112Y-114260545D01*
X187472126Y-114248615D01*
X187503737Y-114199217D01*
X187525187Y-114190258D01*
X187534929Y-114220731D01*
X187531681Y-114287412D01*
X187527705Y-114356884D01*
X187537989Y-114398483D01*
X187553910Y-114417058D01*
X187616003Y-114443503D01*
X187688654Y-114436256D01*
X187761965Y-114398693D01*
X187826042Y-114334187D01*
X187835036Y-114321195D01*
X187858077Y-114281792D01*
X187856400Y-114261086D01*
X187834715Y-114246010D01*
X187804356Y-114218926D01*
X187767783Y-114173291D01*
X187762239Y-114165000D01*
X187820833Y-114165000D01*
X187836940Y-114185551D01*
X187842000Y-114186166D01*
X187862551Y-114170059D01*
X187863166Y-114165000D01*
X187847059Y-114144448D01*
X187842000Y-114143833D01*
X187821448Y-114159940D01*
X187820833Y-114165000D01*
X187762239Y-114165000D01*
X187732977Y-114121244D01*
X187707919Y-114074923D01*
X187700590Y-114046468D01*
X187701912Y-114044031D01*
X187739455Y-114024667D01*
X187804765Y-114007350D01*
X187886901Y-113993206D01*
X187974921Y-113983363D01*
X188057885Y-113978949D01*
X188124850Y-113981090D01*
G37*
X188124850Y-113981090D02*
X188164875Y-113990915D01*
X188170155Y-113995783D01*
X188164183Y-114020846D01*
X188137754Y-114066546D01*
X188098763Y-114122080D01*
X188055102Y-114176648D01*
X188014665Y-114219448D01*
X187995458Y-114234843D01*
X187971419Y-114270559D01*
X187976754Y-114318691D01*
X188004945Y-114369207D01*
X188049472Y-114412076D01*
X188103817Y-114437267D01*
X188128880Y-114440166D01*
X188225668Y-114420315D01*
X188310085Y-114366019D01*
X188367399Y-114289774D01*
X188395058Y-114240814D01*
X188412841Y-114228491D01*
X188421647Y-114240369D01*
X188433972Y-114287440D01*
X188426275Y-114306524D01*
X188413500Y-114302583D01*
X188393995Y-114304261D01*
X188392333Y-114311917D01*
X188388234Y-114356208D01*
X188368074Y-114389286D01*
X188358769Y-114399838D01*
X188302082Y-114438743D01*
X188221904Y-114466314D01*
X188136606Y-114477513D01*
X188088686Y-114473926D01*
X188011650Y-114441350D01*
X187960434Y-114396371D01*
X187924738Y-114356700D01*
X187901963Y-114346327D01*
X187878411Y-114361630D01*
X187867915Y-114371918D01*
X187777148Y-114442633D01*
X187683497Y-114480083D01*
X187593983Y-114483172D01*
X187515629Y-114450805D01*
X187491787Y-114430545D01*
X187451137Y-114378166D01*
X187443101Y-114326329D01*
X187466112Y-114260545D01*
X187472126Y-114248615D01*
X187503737Y-114199217D01*
X187525187Y-114190258D01*
X187534929Y-114220731D01*
X187531681Y-114287412D01*
X187527705Y-114356884D01*
X187537989Y-114398483D01*
X187553910Y-114417058D01*
X187616003Y-114443503D01*
X187688654Y-114436256D01*
X187761965Y-114398693D01*
X187826042Y-114334187D01*
X187835036Y-114321195D01*
X187858077Y-114281792D01*
X187856400Y-114261086D01*
X187834715Y-114246010D01*
X187804356Y-114218926D01*
X187767783Y-114173291D01*
X187762239Y-114165000D01*
X187820833Y-114165000D01*
X187836940Y-114185551D01*
X187842000Y-114186166D01*
X187862551Y-114170059D01*
X187863166Y-114165000D01*
X187847059Y-114144448D01*
X187842000Y-114143833D01*
X187821448Y-114159940D01*
X187820833Y-114165000D01*
X187762239Y-114165000D01*
X187732977Y-114121244D01*
X187707919Y-114074923D01*
X187700590Y-114046468D01*
X187701912Y-114044031D01*
X187739455Y-114024667D01*
X187804765Y-114007350D01*
X187886901Y-113993206D01*
X187974921Y-113983363D01*
X188057885Y-113978949D01*
X188124850Y-113981090D01*
G36*
X189188030Y-113602677D02*
G01*
X189278004Y-113634135D01*
X189333314Y-113668723D01*
X189392687Y-113715370D01*
X189445839Y-113764686D01*
X189482482Y-113807284D01*
X189493000Y-113830351D01*
X189480698Y-113847599D01*
X189445098Y-113831922D01*
X189388163Y-113784368D01*
X189365154Y-113761988D01*
X189307731Y-113710341D01*
X189252805Y-113670233D01*
X189226193Y-113656154D01*
X189116909Y-113636443D01*
X189002938Y-113656821D01*
X188887415Y-113715774D01*
X188773478Y-113811787D01*
X188682082Y-113918910D01*
X188648234Y-113940442D01*
X188627524Y-113934001D01*
X188618103Y-113917118D01*
X188631402Y-113887152D01*
X188670907Y-113837997D01*
X188701608Y-113804283D01*
X188818823Y-113700375D01*
X188942331Y-113631145D01*
X189067083Y-113598082D01*
X189188030Y-113602677D01*
G37*
X189188030Y-113602677D02*
X189278004Y-113634135D01*
X189333314Y-113668723D01*
X189392687Y-113715370D01*
X189445839Y-113764686D01*
X189482482Y-113807284D01*
X189493000Y-113830351D01*
X189480698Y-113847599D01*
X189445098Y-113831922D01*
X189388163Y-113784368D01*
X189365154Y-113761988D01*
X189307731Y-113710341D01*
X189252805Y-113670233D01*
X189226193Y-113656154D01*
X189116909Y-113636443D01*
X189002938Y-113656821D01*
X188887415Y-113715774D01*
X188773478Y-113811787D01*
X188682082Y-113918910D01*
X188648234Y-113940442D01*
X188627524Y-113934001D01*
X188618103Y-113917118D01*
X188631402Y-113887152D01*
X188670907Y-113837997D01*
X188701608Y-113804283D01*
X188818823Y-113700375D01*
X188942331Y-113631145D01*
X189067083Y-113598082D01*
X189188030Y-113602677D01*
G36*
X186671598Y-113558921D02*
G01*
X186677614Y-113559707D01*
X186751676Y-113580761D01*
X186837173Y-113622004D01*
X186925742Y-113677146D01*
X187009021Y-113739899D01*
X187078647Y-113803971D01*
X187126258Y-113863073D01*
X187143500Y-113910142D01*
X187133061Y-113931648D01*
X187103539Y-113918401D01*
X187057624Y-113871954D01*
X187040023Y-113850475D01*
X186958027Y-113764915D01*
X186859696Y-113689541D01*
X186757425Y-113632322D01*
X186663611Y-113601221D01*
X186648738Y-113599029D01*
X186541318Y-113608113D01*
X186431448Y-113658913D01*
X186320062Y-113750947D01*
X186288623Y-113784159D01*
X186232199Y-113837702D01*
X186187653Y-113862308D01*
X186173977Y-113862761D01*
X186163457Y-113851353D01*
X186177000Y-113824586D01*
X186217591Y-113778215D01*
X186271265Y-113724423D01*
X186374358Y-113635278D01*
X186469053Y-113580571D01*
X186564938Y-113556414D01*
X186671598Y-113558921D01*
G37*
X186671598Y-113558921D02*
X186677614Y-113559707D01*
X186751676Y-113580761D01*
X186837173Y-113622004D01*
X186925742Y-113677146D01*
X187009021Y-113739899D01*
X187078647Y-113803971D01*
X187126258Y-113863073D01*
X187143500Y-113910142D01*
X187133061Y-113931648D01*
X187103539Y-113918401D01*
X187057624Y-113871954D01*
X187040023Y-113850475D01*
X186958027Y-113764915D01*
X186859696Y-113689541D01*
X186757425Y-113632322D01*
X186663611Y-113601221D01*
X186648738Y-113599029D01*
X186541318Y-113608113D01*
X186431448Y-113658913D01*
X186320062Y-113750947D01*
X186288623Y-113784159D01*
X186232199Y-113837702D01*
X186187653Y-113862308D01*
X186173977Y-113862761D01*
X186163457Y-113851353D01*
X186177000Y-113824586D01*
X186217591Y-113778215D01*
X186271265Y-113724423D01*
X186374358Y-113635278D01*
X186469053Y-113580571D01*
X186564938Y-113556414D01*
X186671598Y-113558921D01*
G36*
X185851143Y-112813464D02*
G01*
X185871714Y-112836430D01*
X185900720Y-112887852D01*
X185932919Y-112956124D01*
X185963071Y-113029639D01*
X185985934Y-113096791D01*
X185994145Y-113130118D01*
X185996455Y-113164780D01*
X185980389Y-113185823D01*
X185936284Y-113202196D01*
X185908421Y-113209493D01*
X185826468Y-113227777D01*
X185776252Y-113231916D01*
X185749569Y-113221797D01*
X185740849Y-113207208D01*
X185741560Y-113171659D01*
X185754661Y-113115854D01*
X185760252Y-113098713D01*
X185779570Y-113023416D01*
X185788989Y-112947852D01*
X185789157Y-112939963D01*
X185797170Y-112866114D01*
X185818529Y-112821869D01*
X185850309Y-112813196D01*
X185851143Y-112813464D01*
G37*
X185851143Y-112813464D02*
X185871714Y-112836430D01*
X185900720Y-112887852D01*
X185932919Y-112956124D01*
X185963071Y-113029639D01*
X185985934Y-113096791D01*
X185994145Y-113130118D01*
X185996455Y-113164780D01*
X185980389Y-113185823D01*
X185936284Y-113202196D01*
X185908421Y-113209493D01*
X185826468Y-113227777D01*
X185776252Y-113231916D01*
X185749569Y-113221797D01*
X185740849Y-113207208D01*
X185741560Y-113171659D01*
X185754661Y-113115854D01*
X185760252Y-113098713D01*
X185779570Y-113023416D01*
X185788989Y-112947852D01*
X185789157Y-112939963D01*
X185797170Y-112866114D01*
X185818529Y-112821869D01*
X185850309Y-112813196D01*
X185851143Y-112813464D01*
G36*
X189934163Y-112851137D02*
G01*
X189946735Y-112881999D01*
X189955850Y-112940219D01*
X189962499Y-113031348D01*
X189966200Y-113117250D01*
X189969250Y-113201916D01*
X189863416Y-113205220D01*
X189793258Y-113205126D01*
X189736048Y-113201120D01*
X189718651Y-113198013D01*
X189693228Y-113188160D01*
X189695962Y-113171299D01*
X189720890Y-113141792D01*
X189743113Y-113115237D01*
X189764166Y-113083986D01*
X189789233Y-113038934D01*
X189823499Y-112970978D01*
X189855407Y-112905583D01*
X189884950Y-112862089D01*
X189915126Y-112842209D01*
X189917144Y-112842083D01*
X189934163Y-112851137D01*
G37*
X189934163Y-112851137D02*
X189946735Y-112881999D01*
X189955850Y-112940219D01*
X189962499Y-113031348D01*
X189966200Y-113117250D01*
X189969250Y-113201916D01*
X189863416Y-113205220D01*
X189793258Y-113205126D01*
X189736048Y-113201120D01*
X189718651Y-113198013D01*
X189693228Y-113188160D01*
X189695962Y-113171299D01*
X189720890Y-113141792D01*
X189743113Y-113115237D01*
X189764166Y-113083986D01*
X189789233Y-113038934D01*
X189823499Y-112970978D01*
X189855407Y-112905583D01*
X189884950Y-112862089D01*
X189915126Y-112842209D01*
X189917144Y-112842083D01*
X189934163Y-112851137D01*
D13*
%TO.C,J1*%
X175100000Y-111750000D02*
X175100000Y-109750000D01*
X177900000Y-111750000D02*
X175100000Y-111750000D01*
X177900000Y-109750000D02*
X177900000Y-111750000D01*
X175100000Y-109750000D02*
X177900000Y-109750000D01*
%TO.C,U1*%
X176950000Y-112190000D02*
X174500000Y-112190000D01*
X175150000Y-115410000D02*
X176950000Y-115410000D01*
%TO.C,P1*%
D10*
X171530952Y-108126190D02*
X171530952Y-107626190D01*
X171721428Y-107626190D01*
X171769047Y-107650000D01*
X171792857Y-107673809D01*
X171816666Y-107721428D01*
X171816666Y-107792857D01*
X171792857Y-107840476D01*
X171769047Y-107864285D01*
X171721428Y-107888095D01*
X171530952Y-107888095D01*
X172292857Y-108126190D02*
X172007142Y-108126190D01*
X172150000Y-108126190D02*
X172150000Y-107626190D01*
X172102380Y-107697619D01*
X172054761Y-107745238D01*
X172007142Y-107769047D01*
X192595238Y-106126190D02*
X192904761Y-106126190D01*
X192738095Y-106316666D01*
X192809523Y-106316666D01*
X192857142Y-106340476D01*
X192880952Y-106364285D01*
X192904761Y-106411904D01*
X192904761Y-106530952D01*
X192880952Y-106578571D01*
X192857142Y-106602380D01*
X192809523Y-106626190D01*
X192666666Y-106626190D01*
X192619047Y-106602380D01*
X192595238Y-106578571D01*
X193214285Y-106126190D02*
X193261904Y-106126190D01*
X193309523Y-106150000D01*
X193333333Y-106173809D01*
X193357142Y-106221428D01*
X193380952Y-106316666D01*
X193380952Y-106435714D01*
X193357142Y-106530952D01*
X193333333Y-106578571D01*
X193309523Y-106602380D01*
X193261904Y-106626190D01*
X193214285Y-106626190D01*
X193166666Y-106602380D01*
X193142857Y-106578571D01*
X193119047Y-106530952D01*
X193095238Y-106435714D01*
X193095238Y-106316666D01*
X193119047Y-106221428D01*
X193142857Y-106173809D01*
X193166666Y-106150000D01*
X193214285Y-106126190D01*
X171342857Y-106626190D02*
X171057142Y-106626190D01*
X171200000Y-106626190D02*
X171200000Y-106126190D01*
X171152380Y-106197619D01*
X171104761Y-106245238D01*
X171057142Y-106269047D01*
%TO.C,D1*%
D13*
X173952380Y-117138095D02*
X172952380Y-117138095D01*
X172952380Y-116900000D01*
X173000000Y-116757142D01*
X173095238Y-116661904D01*
X173190476Y-116614285D01*
X173380952Y-116566666D01*
X173523809Y-116566666D01*
X173714285Y-116614285D01*
X173809523Y-116661904D01*
X173904761Y-116757142D01*
X173952380Y-116900000D01*
X173952380Y-117138095D01*
X173952380Y-115614285D02*
X173952380Y-116185714D01*
X173952380Y-115900000D02*
X172952380Y-115900000D01*
X173095238Y-115995238D01*
X173190476Y-116090476D01*
X173238095Y-116185714D01*
%TO.C,R4*%
D10*
X173216666Y-112326190D02*
X173050000Y-112088095D01*
X172930952Y-112326190D02*
X172930952Y-111826190D01*
X173121428Y-111826190D01*
X173169047Y-111850000D01*
X173192857Y-111873809D01*
X173216666Y-111921428D01*
X173216666Y-111992857D01*
X173192857Y-112040476D01*
X173169047Y-112064285D01*
X173121428Y-112088095D01*
X172930952Y-112088095D01*
X173645238Y-111992857D02*
X173645238Y-112326190D01*
X173526190Y-111802380D02*
X173407142Y-112159523D01*
X173716666Y-112159523D01*
%TO.C,R3*%
X184666666Y-111426190D02*
X184500000Y-111188095D01*
X184380952Y-111426190D02*
X184380952Y-110926190D01*
X184571428Y-110926190D01*
X184619047Y-110950000D01*
X184642857Y-110973809D01*
X184666666Y-111021428D01*
X184666666Y-111092857D01*
X184642857Y-111140476D01*
X184619047Y-111164285D01*
X184571428Y-111188095D01*
X184380952Y-111188095D01*
X184833333Y-110926190D02*
X185142857Y-110926190D01*
X184976190Y-111116666D01*
X185047619Y-111116666D01*
X185095238Y-111140476D01*
X185119047Y-111164285D01*
X185142857Y-111211904D01*
X185142857Y-111330952D01*
X185119047Y-111378571D01*
X185095238Y-111402380D01*
X185047619Y-111426190D01*
X184904761Y-111426190D01*
X184857142Y-111402380D01*
X184833333Y-111378571D01*
%TO.C,R2*%
X184716666Y-109876190D02*
X184550000Y-109638095D01*
X184430952Y-109876190D02*
X184430952Y-109376190D01*
X184621428Y-109376190D01*
X184669047Y-109400000D01*
X184692857Y-109423809D01*
X184716666Y-109471428D01*
X184716666Y-109542857D01*
X184692857Y-109590476D01*
X184669047Y-109614285D01*
X184621428Y-109638095D01*
X184430952Y-109638095D01*
X184907142Y-109423809D02*
X184930952Y-109400000D01*
X184978571Y-109376190D01*
X185097619Y-109376190D01*
X185145238Y-109400000D01*
X185169047Y-109423809D01*
X185192857Y-109471428D01*
X185192857Y-109519047D01*
X185169047Y-109590476D01*
X184883333Y-109876190D01*
X185192857Y-109876190D01*
%TO.C,R1*%
X194316666Y-111676190D02*
X194150000Y-111438095D01*
X194030952Y-111676190D02*
X194030952Y-111176190D01*
X194221428Y-111176190D01*
X194269047Y-111200000D01*
X194292857Y-111223809D01*
X194316666Y-111271428D01*
X194316666Y-111342857D01*
X194292857Y-111390476D01*
X194269047Y-111414285D01*
X194221428Y-111438095D01*
X194030952Y-111438095D01*
X194792857Y-111676190D02*
X194507142Y-111676190D01*
X194650000Y-111676190D02*
X194650000Y-111176190D01*
X194602380Y-111247619D01*
X194554761Y-111295238D01*
X194507142Y-111319047D01*
%TO.C,C8*%
X179466666Y-113078571D02*
X179442857Y-113102380D01*
X179371428Y-113126190D01*
X179323809Y-113126190D01*
X179252380Y-113102380D01*
X179204761Y-113054761D01*
X179180952Y-113007142D01*
X179157142Y-112911904D01*
X179157142Y-112840476D01*
X179180952Y-112745238D01*
X179204761Y-112697619D01*
X179252380Y-112650000D01*
X179323809Y-112626190D01*
X179371428Y-112626190D01*
X179442857Y-112650000D01*
X179466666Y-112673809D01*
X179752380Y-112840476D02*
X179704761Y-112816666D01*
X179680952Y-112792857D01*
X179657142Y-112745238D01*
X179657142Y-112721428D01*
X179680952Y-112673809D01*
X179704761Y-112650000D01*
X179752380Y-112626190D01*
X179847619Y-112626190D01*
X179895238Y-112650000D01*
X179919047Y-112673809D01*
X179942857Y-112721428D01*
X179942857Y-112745238D01*
X179919047Y-112792857D01*
X179895238Y-112816666D01*
X179847619Y-112840476D01*
X179752380Y-112840476D01*
X179704761Y-112864285D01*
X179680952Y-112888095D01*
X179657142Y-112935714D01*
X179657142Y-113030952D01*
X179680952Y-113078571D01*
X179704761Y-113102380D01*
X179752380Y-113126190D01*
X179847619Y-113126190D01*
X179895238Y-113102380D01*
X179919047Y-113078571D01*
X179942857Y-113030952D01*
X179942857Y-112935714D01*
X179919047Y-112888095D01*
X179895238Y-112864285D01*
X179847619Y-112840476D01*
%TO.C,C7*%
X170629166Y-112278571D02*
X170605357Y-112302380D01*
X170533928Y-112326190D01*
X170486309Y-112326190D01*
X170414880Y-112302380D01*
X170367261Y-112254761D01*
X170343452Y-112207142D01*
X170319642Y-112111904D01*
X170319642Y-112040476D01*
X170343452Y-111945238D01*
X170367261Y-111897619D01*
X170414880Y-111850000D01*
X170486309Y-111826190D01*
X170533928Y-111826190D01*
X170605357Y-111850000D01*
X170629166Y-111873809D01*
X170795833Y-111826190D02*
X171129166Y-111826190D01*
X170914880Y-112326190D01*
%TO.C,C6*%
X181266666Y-110478571D02*
X181242857Y-110502380D01*
X181171428Y-110526190D01*
X181123809Y-110526190D01*
X181052380Y-110502380D01*
X181004761Y-110454761D01*
X180980952Y-110407142D01*
X180957142Y-110311904D01*
X180957142Y-110240476D01*
X180980952Y-110145238D01*
X181004761Y-110097619D01*
X181052380Y-110050000D01*
X181123809Y-110026190D01*
X181171428Y-110026190D01*
X181242857Y-110050000D01*
X181266666Y-110073809D01*
X181695238Y-110026190D02*
X181600000Y-110026190D01*
X181552380Y-110050000D01*
X181528571Y-110073809D01*
X181480952Y-110145238D01*
X181457142Y-110240476D01*
X181457142Y-110430952D01*
X181480952Y-110478571D01*
X181504761Y-110502380D01*
X181552380Y-110526190D01*
X181647619Y-110526190D01*
X181695238Y-110502380D01*
X181719047Y-110478571D01*
X181742857Y-110430952D01*
X181742857Y-110311904D01*
X181719047Y-110264285D01*
X181695238Y-110240476D01*
X181647619Y-110216666D01*
X181552380Y-110216666D01*
X181504761Y-110240476D01*
X181480952Y-110264285D01*
X181457142Y-110311904D01*
%TO.C,C5*%
X177616666Y-108878571D02*
X177592857Y-108902380D01*
X177521428Y-108926190D01*
X177473809Y-108926190D01*
X177402380Y-108902380D01*
X177354761Y-108854761D01*
X177330952Y-108807142D01*
X177307142Y-108711904D01*
X177307142Y-108640476D01*
X177330952Y-108545238D01*
X177354761Y-108497619D01*
X177402380Y-108450000D01*
X177473809Y-108426190D01*
X177521428Y-108426190D01*
X177592857Y-108450000D01*
X177616666Y-108473809D01*
X178069047Y-108426190D02*
X177830952Y-108426190D01*
X177807142Y-108664285D01*
X177830952Y-108640476D01*
X177878571Y-108616666D01*
X177997619Y-108616666D01*
X178045238Y-108640476D01*
X178069047Y-108664285D01*
X178092857Y-108711904D01*
X178092857Y-108830952D01*
X178069047Y-108878571D01*
X178045238Y-108902380D01*
X177997619Y-108926190D01*
X177878571Y-108926190D01*
X177830952Y-108902380D01*
X177807142Y-108878571D01*
%TO.C,C4*%
X194316666Y-108528571D02*
X194292857Y-108552380D01*
X194221428Y-108576190D01*
X194173809Y-108576190D01*
X194102380Y-108552380D01*
X194054761Y-108504761D01*
X194030952Y-108457142D01*
X194007142Y-108361904D01*
X194007142Y-108290476D01*
X194030952Y-108195238D01*
X194054761Y-108147619D01*
X194102380Y-108100000D01*
X194173809Y-108076190D01*
X194221428Y-108076190D01*
X194292857Y-108100000D01*
X194316666Y-108123809D01*
X194745238Y-108242857D02*
X194745238Y-108576190D01*
X194626190Y-108052380D02*
X194507142Y-108409523D01*
X194816666Y-108409523D01*
%TO.C,C3*%
X176116666Y-108928571D02*
X176092857Y-108952380D01*
X176021428Y-108976190D01*
X175973809Y-108976190D01*
X175902380Y-108952380D01*
X175854761Y-108904761D01*
X175830952Y-108857142D01*
X175807142Y-108761904D01*
X175807142Y-108690476D01*
X175830952Y-108595238D01*
X175854761Y-108547619D01*
X175902380Y-108500000D01*
X175973809Y-108476190D01*
X176021428Y-108476190D01*
X176092857Y-108500000D01*
X176116666Y-108523809D01*
X176283333Y-108476190D02*
X176592857Y-108476190D01*
X176426190Y-108666666D01*
X176497619Y-108666666D01*
X176545238Y-108690476D01*
X176569047Y-108714285D01*
X176592857Y-108761904D01*
X176592857Y-108880952D01*
X176569047Y-108928571D01*
X176545238Y-108952380D01*
X176497619Y-108976190D01*
X176354761Y-108976190D01*
X176307142Y-108952380D01*
X176283333Y-108928571D01*
%TO.C,C2*%
X194316666Y-110078571D02*
X194292857Y-110102380D01*
X194221428Y-110126190D01*
X194173809Y-110126190D01*
X194102380Y-110102380D01*
X194054761Y-110054761D01*
X194030952Y-110007142D01*
X194007142Y-109911904D01*
X194007142Y-109840476D01*
X194030952Y-109745238D01*
X194054761Y-109697619D01*
X194102380Y-109650000D01*
X194173809Y-109626190D01*
X194221428Y-109626190D01*
X194292857Y-109650000D01*
X194316666Y-109673809D01*
X194507142Y-109673809D02*
X194530952Y-109650000D01*
X194578571Y-109626190D01*
X194697619Y-109626190D01*
X194745238Y-109650000D01*
X194769047Y-109673809D01*
X194792857Y-109721428D01*
X194792857Y-109769047D01*
X194769047Y-109840476D01*
X194483333Y-110126190D01*
X194792857Y-110126190D01*
%TO.C,C1*%
X170816666Y-110478571D02*
X170792857Y-110502380D01*
X170721428Y-110526190D01*
X170673809Y-110526190D01*
X170602380Y-110502380D01*
X170554761Y-110454761D01*
X170530952Y-110407142D01*
X170507142Y-110311904D01*
X170507142Y-110240476D01*
X170530952Y-110145238D01*
X170554761Y-110097619D01*
X170602380Y-110050000D01*
X170673809Y-110026190D01*
X170721428Y-110026190D01*
X170792857Y-110050000D01*
X170816666Y-110073809D01*
X171292857Y-110526190D02*
X171007142Y-110526190D01*
X171150000Y-110526190D02*
X171150000Y-110026190D01*
X171102380Y-110097619D01*
X171054761Y-110145238D01*
X171007142Y-110169047D01*
%TO.C,J1*%
X174333333Y-111276190D02*
X174333333Y-111633333D01*
X174309523Y-111704761D01*
X174261904Y-111752380D01*
X174190476Y-111776190D01*
X174142857Y-111776190D01*
X174833333Y-111776190D02*
X174547619Y-111776190D01*
X174690476Y-111776190D02*
X174690476Y-111276190D01*
X174642857Y-111347619D01*
X174595238Y-111395238D01*
X174547619Y-111419047D01*
%TO.C,U1*%
X178019047Y-113526190D02*
X178019047Y-113930952D01*
X178042857Y-113978571D01*
X178066666Y-114002380D01*
X178114285Y-114026190D01*
X178209523Y-114026190D01*
X178257142Y-114002380D01*
X178280952Y-113978571D01*
X178304761Y-113930952D01*
X178304761Y-113526190D01*
X178804761Y-114026190D02*
X178519047Y-114026190D01*
X178661904Y-114026190D02*
X178661904Y-113526190D01*
X178614285Y-113597619D01*
X178566666Y-113645238D01*
X178519047Y-113669047D01*
%TD*%
M02*
