%TF.GenerationSoftware,KiCad,Pcbnew,(5.1.6)-1*%
%TF.CreationDate,2020-09-29T08:48:28+08:00*%
%TF.ProjectId,Crenshaw,4372656e-7368-4617-972e-6b696361645f,rev?*%
%TF.SameCoordinates,Original*%
%TF.FileFunction,Paste,Top*%
%TF.FilePolarity,Positive*%
%FSLAX46Y46*%
G04 Gerber Fmt 4.6, Leading zero omitted, Abs format (unit mm)*
G04 Created by KiCad (PCBNEW (5.1.6)-1) date 2020-09-29 08:48:28*
%MOMM*%
%LPD*%
G01*
G04 APERTURE LIST*
%ADD10R,0.400000X2.000000*%
%ADD11R,1.200000X0.900000*%
%ADD12R,1.060000X0.650000*%
G04 APERTURE END LIST*
D10*
%TO.C,P1*%
X181650000Y-106350000D03*
X182350000Y-106350000D03*
X171850000Y-106350000D03*
X172550000Y-106350000D03*
X173250000Y-106350000D03*
X173950000Y-106350000D03*
X174650000Y-106350000D03*
X175350000Y-106350000D03*
X176050000Y-106350000D03*
X176750000Y-106350000D03*
X177450000Y-106350000D03*
X178150000Y-106350000D03*
X178850000Y-106350000D03*
X179550000Y-106350000D03*
X180300000Y-106350000D03*
X180950000Y-106350000D03*
X183050000Y-106350000D03*
X183750000Y-106350000D03*
X184450000Y-106350000D03*
X185150000Y-106350000D03*
X185850000Y-106350000D03*
X186550000Y-106350000D03*
X187250000Y-106350000D03*
X187950000Y-106350000D03*
X188650000Y-106350000D03*
X189350000Y-106350000D03*
X190050000Y-106350000D03*
X190750000Y-106350000D03*
X191450000Y-106350000D03*
X192150000Y-106350000D03*
%TD*%
D11*
%TO.C,D1*%
X171500000Y-118050000D03*
X171500000Y-114750000D03*
%TD*%
%TO.C,R4*%
G36*
G01*
X173043747Y-114150001D02*
X173556247Y-114150001D01*
G75*
G02*
X173774997Y-114368751I0J-218750D01*
G01*
X173774997Y-114806251D01*
G75*
G02*
X173556247Y-115025001I-218750J0D01*
G01*
X173043747Y-115025001D01*
G75*
G02*
X172824997Y-114806251I0J218750D01*
G01*
X172824997Y-114368751D01*
G75*
G02*
X173043747Y-114150001I218750J0D01*
G01*
G37*
G36*
G01*
X173043747Y-112575001D02*
X173556247Y-112575001D01*
G75*
G02*
X173774997Y-112793751I0J-218750D01*
G01*
X173774997Y-113231251D01*
G75*
G02*
X173556247Y-113450001I-218750J0D01*
G01*
X173043747Y-113450001D01*
G75*
G02*
X172824997Y-113231251I0J218750D01*
G01*
X172824997Y-112793751D01*
G75*
G02*
X173043747Y-112575001I218750J0D01*
G01*
G37*
%TD*%
%TO.C,R3*%
G36*
G01*
X183299999Y-111456250D02*
X183299999Y-110943750D01*
G75*
G02*
X183518749Y-110725000I218750J0D01*
G01*
X183956249Y-110725000D01*
G75*
G02*
X184174999Y-110943750I0J-218750D01*
G01*
X184174999Y-111456250D01*
G75*
G02*
X183956249Y-111675000I-218750J0D01*
G01*
X183518749Y-111675000D01*
G75*
G02*
X183299999Y-111456250I0J218750D01*
G01*
G37*
G36*
G01*
X181724999Y-111456250D02*
X181724999Y-110943750D01*
G75*
G02*
X181943749Y-110725000I218750J0D01*
G01*
X182381249Y-110725000D01*
G75*
G02*
X182599999Y-110943750I0J-218750D01*
G01*
X182599999Y-111456250D01*
G75*
G02*
X182381249Y-111675000I-218750J0D01*
G01*
X181943749Y-111675000D01*
G75*
G02*
X181724999Y-111456250I0J218750D01*
G01*
G37*
%TD*%
%TO.C,R2*%
G36*
G01*
X183300000Y-109906250D02*
X183300000Y-109393750D01*
G75*
G02*
X183518750Y-109175000I218750J0D01*
G01*
X183956250Y-109175000D01*
G75*
G02*
X184175000Y-109393750I0J-218750D01*
G01*
X184175000Y-109906250D01*
G75*
G02*
X183956250Y-110125000I-218750J0D01*
G01*
X183518750Y-110125000D01*
G75*
G02*
X183300000Y-109906250I0J218750D01*
G01*
G37*
G36*
G01*
X181725000Y-109906250D02*
X181725000Y-109393750D01*
G75*
G02*
X181943750Y-109175000I218750J0D01*
G01*
X182381250Y-109175000D01*
G75*
G02*
X182600000Y-109393750I0J-218750D01*
G01*
X182600000Y-109906250D01*
G75*
G02*
X182381250Y-110125000I-218750J0D01*
G01*
X181943750Y-110125000D01*
G75*
G02*
X181725000Y-109906250I0J218750D01*
G01*
G37*
%TD*%
%TO.C,R1*%
G36*
G01*
X192900000Y-111706250D02*
X192900000Y-111193750D01*
G75*
G02*
X193118750Y-110975000I218750J0D01*
G01*
X193556250Y-110975000D01*
G75*
G02*
X193775000Y-111193750I0J-218750D01*
G01*
X193775000Y-111706250D01*
G75*
G02*
X193556250Y-111925000I-218750J0D01*
G01*
X193118750Y-111925000D01*
G75*
G02*
X192900000Y-111706250I0J218750D01*
G01*
G37*
G36*
G01*
X191325000Y-111706250D02*
X191325000Y-111193750D01*
G75*
G02*
X191543750Y-110975000I218750J0D01*
G01*
X191981250Y-110975000D01*
G75*
G02*
X192200000Y-111193750I0J-218750D01*
G01*
X192200000Y-111706250D01*
G75*
G02*
X191981250Y-111925000I-218750J0D01*
G01*
X191543750Y-111925000D01*
G75*
G02*
X191325000Y-111706250I0J218750D01*
G01*
G37*
%TD*%
%TO.C,C8*%
G36*
G01*
X179900000Y-112056250D02*
X179900000Y-111543750D01*
G75*
G02*
X180118750Y-111325000I218750J0D01*
G01*
X180556250Y-111325000D01*
G75*
G02*
X180775000Y-111543750I0J-218750D01*
G01*
X180775000Y-112056250D01*
G75*
G02*
X180556250Y-112275000I-218750J0D01*
G01*
X180118750Y-112275000D01*
G75*
G02*
X179900000Y-112056250I0J218750D01*
G01*
G37*
G36*
G01*
X178325000Y-112056250D02*
X178325000Y-111543750D01*
G75*
G02*
X178543750Y-111325000I218750J0D01*
G01*
X178981250Y-111325000D01*
G75*
G02*
X179200000Y-111543750I0J-218750D01*
G01*
X179200000Y-112056250D01*
G75*
G02*
X178981250Y-112275000I-218750J0D01*
G01*
X178543750Y-112275000D01*
G75*
G02*
X178325000Y-112056250I0J218750D01*
G01*
G37*
%TD*%
%TO.C,C7*%
G36*
G01*
X170362500Y-112743750D02*
X170362500Y-113256250D01*
G75*
G02*
X170143750Y-113475000I-218750J0D01*
G01*
X169706250Y-113475000D01*
G75*
G02*
X169487500Y-113256250I0J218750D01*
G01*
X169487500Y-112743750D01*
G75*
G02*
X169706250Y-112525000I218750J0D01*
G01*
X170143750Y-112525000D01*
G75*
G02*
X170362500Y-112743750I0J-218750D01*
G01*
G37*
G36*
G01*
X171937500Y-112743750D02*
X171937500Y-113256250D01*
G75*
G02*
X171718750Y-113475000I-218750J0D01*
G01*
X171281250Y-113475000D01*
G75*
G02*
X171062500Y-113256250I0J218750D01*
G01*
X171062500Y-112743750D01*
G75*
G02*
X171281250Y-112525000I218750J0D01*
G01*
X171718750Y-112525000D01*
G75*
G02*
X171937500Y-112743750I0J-218750D01*
G01*
G37*
%TD*%
%TO.C,C6*%
G36*
G01*
X179899999Y-110506248D02*
X179899999Y-109993748D01*
G75*
G02*
X180118749Y-109774998I218750J0D01*
G01*
X180556249Y-109774998D01*
G75*
G02*
X180774999Y-109993748I0J-218750D01*
G01*
X180774999Y-110506248D01*
G75*
G02*
X180556249Y-110724998I-218750J0D01*
G01*
X180118749Y-110724998D01*
G75*
G02*
X179899999Y-110506248I0J218750D01*
G01*
G37*
G36*
G01*
X178324999Y-110506248D02*
X178324999Y-109993748D01*
G75*
G02*
X178543749Y-109774998I218750J0D01*
G01*
X178981249Y-109774998D01*
G75*
G02*
X179199999Y-109993748I0J-218750D01*
G01*
X179199999Y-110506248D01*
G75*
G02*
X178981249Y-110724998I-218750J0D01*
G01*
X178543749Y-110724998D01*
G75*
G02*
X178324999Y-110506248I0J218750D01*
G01*
G37*
%TD*%
%TO.C,C5*%
G36*
G01*
X179900001Y-108956249D02*
X179900001Y-108443749D01*
G75*
G02*
X180118751Y-108224999I218750J0D01*
G01*
X180556251Y-108224999D01*
G75*
G02*
X180775001Y-108443749I0J-218750D01*
G01*
X180775001Y-108956249D01*
G75*
G02*
X180556251Y-109174999I-218750J0D01*
G01*
X180118751Y-109174999D01*
G75*
G02*
X179900001Y-108956249I0J218750D01*
G01*
G37*
G36*
G01*
X178325001Y-108956249D02*
X178325001Y-108443749D01*
G75*
G02*
X178543751Y-108224999I218750J0D01*
G01*
X178981251Y-108224999D01*
G75*
G02*
X179200001Y-108443749I0J-218750D01*
G01*
X179200001Y-108956249D01*
G75*
G02*
X178981251Y-109174999I-218750J0D01*
G01*
X178543751Y-109174999D01*
G75*
G02*
X178325001Y-108956249I0J218750D01*
G01*
G37*
%TD*%
%TO.C,C4*%
G36*
G01*
X192200001Y-108093751D02*
X192200001Y-108606251D01*
G75*
G02*
X191981251Y-108825001I-218750J0D01*
G01*
X191543751Y-108825001D01*
G75*
G02*
X191325001Y-108606251I0J218750D01*
G01*
X191325001Y-108093751D01*
G75*
G02*
X191543751Y-107875001I218750J0D01*
G01*
X191981251Y-107875001D01*
G75*
G02*
X192200001Y-108093751I0J-218750D01*
G01*
G37*
G36*
G01*
X193775001Y-108093751D02*
X193775001Y-108606251D01*
G75*
G02*
X193556251Y-108825001I-218750J0D01*
G01*
X193118751Y-108825001D01*
G75*
G02*
X192900001Y-108606251I0J218750D01*
G01*
X192900001Y-108093751D01*
G75*
G02*
X193118751Y-107875001I218750J0D01*
G01*
X193556251Y-107875001D01*
G75*
G02*
X193775001Y-108093751I0J-218750D01*
G01*
G37*
%TD*%
%TO.C,C3*%
G36*
G01*
X174000000Y-108493750D02*
X174000000Y-109006250D01*
G75*
G02*
X173781250Y-109225000I-218750J0D01*
G01*
X173343750Y-109225000D01*
G75*
G02*
X173125000Y-109006250I0J218750D01*
G01*
X173125000Y-108493750D01*
G75*
G02*
X173343750Y-108275000I218750J0D01*
G01*
X173781250Y-108275000D01*
G75*
G02*
X174000000Y-108493750I0J-218750D01*
G01*
G37*
G36*
G01*
X175575000Y-108493750D02*
X175575000Y-109006250D01*
G75*
G02*
X175356250Y-109225000I-218750J0D01*
G01*
X174918750Y-109225000D01*
G75*
G02*
X174700000Y-109006250I0J218750D01*
G01*
X174700000Y-108493750D01*
G75*
G02*
X174918750Y-108275000I218750J0D01*
G01*
X175356250Y-108275000D01*
G75*
G02*
X175575000Y-108493750I0J-218750D01*
G01*
G37*
%TD*%
%TO.C,C2*%
G36*
G01*
X192200001Y-109643750D02*
X192200001Y-110156250D01*
G75*
G02*
X191981251Y-110375000I-218750J0D01*
G01*
X191543751Y-110375000D01*
G75*
G02*
X191325001Y-110156250I0J218750D01*
G01*
X191325001Y-109643750D01*
G75*
G02*
X191543751Y-109425000I218750J0D01*
G01*
X191981251Y-109425000D01*
G75*
G02*
X192200001Y-109643750I0J-218750D01*
G01*
G37*
G36*
G01*
X193775001Y-109643750D02*
X193775001Y-110156250D01*
G75*
G02*
X193556251Y-110375000I-218750J0D01*
G01*
X193118751Y-110375000D01*
G75*
G02*
X192900001Y-110156250I0J218750D01*
G01*
X192900001Y-109643750D01*
G75*
G02*
X193118751Y-109425000I218750J0D01*
G01*
X193556251Y-109425000D01*
G75*
G02*
X193775001Y-109643750I0J-218750D01*
G01*
G37*
%TD*%
%TO.C,C1*%
G36*
G01*
X172437500Y-110043750D02*
X172437500Y-110556250D01*
G75*
G02*
X172218750Y-110775000I-218750J0D01*
G01*
X171781250Y-110775000D01*
G75*
G02*
X171562500Y-110556250I0J218750D01*
G01*
X171562500Y-110043750D01*
G75*
G02*
X171781250Y-109825000I218750J0D01*
G01*
X172218750Y-109825000D01*
G75*
G02*
X172437500Y-110043750I0J-218750D01*
G01*
G37*
G36*
G01*
X174012500Y-110043750D02*
X174012500Y-110556250D01*
G75*
G02*
X173793750Y-110775000I-218750J0D01*
G01*
X173356250Y-110775000D01*
G75*
G02*
X173137500Y-110556250I0J218750D01*
G01*
X173137500Y-110043750D01*
G75*
G02*
X173356250Y-109825000I218750J0D01*
G01*
X173793750Y-109825000D01*
G75*
G02*
X174012500Y-110043750I0J-218750D01*
G01*
G37*
%TD*%
D12*
%TO.C,U1*%
X177150000Y-112850000D03*
X177150000Y-114750000D03*
X174950000Y-114750000D03*
X174950000Y-113800000D03*
X174950000Y-112850000D03*
%TD*%
M02*
