%TF.GenerationSoftware,KiCad,Pcbnew,(5.1.6)-1*%
%TF.CreationDate,2020-09-29T08:48:28+08:00*%
%TF.ProjectId,Crenshaw,4372656e-7368-4617-972e-6b696361645f,rev?*%
%TF.SameCoordinates,Original*%
%TF.FileFunction,Copper,L1,Top*%
%TF.FilePolarity,Positive*%
%FSLAX46Y46*%
G04 Gerber Fmt 4.6, Leading zero omitted, Abs format (unit mm)*
G04 Created by KiCad (PCBNEW (5.1.6)-1) date 2020-09-29 08:48:28*
%MOMM*%
%LPD*%
G01*
G04 APERTURE LIST*
%TA.AperFunction,SMDPad,CuDef*%
%ADD10R,0.400000X2.000000*%
%TD*%
%TA.AperFunction,ComponentPad*%
%ADD11O,1.700000X1.700000*%
%TD*%
%TA.AperFunction,ComponentPad*%
%ADD12R,1.700000X1.700000*%
%TD*%
%TA.AperFunction,SMDPad,CuDef*%
%ADD13R,1.200000X0.900000*%
%TD*%
%TA.AperFunction,SMDPad,CuDef*%
%ADD14R,1.000000X1.500000*%
%TD*%
%TA.AperFunction,SMDPad,CuDef*%
%ADD15R,1.060000X0.650000*%
%TD*%
%TA.AperFunction,ViaPad*%
%ADD16C,0.600000*%
%TD*%
%TA.AperFunction,Conductor*%
%ADD17C,0.400000*%
%TD*%
%TA.AperFunction,Conductor*%
%ADD18C,0.800000*%
%TD*%
%TA.AperFunction,Conductor*%
%ADD19C,0.450000*%
%TD*%
%TA.AperFunction,Conductor*%
%ADD20C,1.000000*%
%TD*%
%TA.AperFunction,Conductor*%
%ADD21C,0.250000*%
%TD*%
%TA.AperFunction,Conductor*%
%ADD22C,0.254000*%
%TD*%
G04 APERTURE END LIST*
D10*
%TO.P,P1,15*%
%TO.N,GND*%
X181650000Y-106350000D03*
%TO.P,P1,16*%
X182350000Y-106350000D03*
%TO.P,P1,1*%
X171850000Y-106350000D03*
%TO.P,P1,2*%
%TO.N,Net-(C1-Pad2)*%
X172550000Y-106350000D03*
%TO.P,P1,3*%
%TO.N,Net-(C1-Pad1)*%
X173250000Y-106350000D03*
%TO.P,P1,4*%
%TO.N,Net-(C3-Pad2)*%
X173950000Y-106350000D03*
%TO.P,P1,5*%
%TO.N,Net-(C3-Pad1)*%
X174650000Y-106350000D03*
%TO.P,P1,6*%
%TO.N,VDD*%
X175350000Y-106350000D03*
%TO.P,P1,7*%
%TO.N,Net-(P1-Pad7)*%
X176050000Y-106350000D03*
%TO.P,P1,8*%
%TO.N,GND*%
X176750000Y-106350000D03*
%TO.P,P1,9*%
%TO.N,VDD*%
X177450000Y-106350000D03*
%TO.P,P1,10*%
%TO.N,GND*%
X178150000Y-106350000D03*
%TO.P,P1,11*%
%TO.N,VDD*%
X178850000Y-106350000D03*
%TO.P,P1,12*%
%TO.N,GND*%
X179550000Y-106350000D03*
%TO.P,P1,13*%
X180300000Y-106350000D03*
%TO.P,P1,14*%
%TO.N,VDD*%
X180950000Y-106350000D03*
%TO.P,P1,17*%
%TO.N,GND*%
X183050000Y-106350000D03*
%TO.P,P1,18*%
%TO.N,SCL*%
X183750000Y-106350000D03*
%TO.P,P1,19*%
%TO.N,SDA*%
X184450000Y-106350000D03*
%TO.P,P1,20*%
X185150000Y-106350000D03*
%TO.P,P1,21*%
%TO.N,GND*%
X185850000Y-106350000D03*
%TO.P,P1,22*%
X186550000Y-106350000D03*
%TO.P,P1,23*%
X187250000Y-106350000D03*
%TO.P,P1,24*%
X187950000Y-106350000D03*
%TO.P,P1,25*%
X188650000Y-106350000D03*
%TO.P,P1,26*%
%TO.N,Net-(P1-Pad26)*%
X189350000Y-106350000D03*
%TO.P,P1,27*%
%TO.N,Net-(C2-Pad2)*%
X190050000Y-106350000D03*
%TO.P,P1,28*%
%TO.N,Net-(C4-Pad2)*%
X190750000Y-106350000D03*
%TO.P,P1,29*%
%TO.N,GND*%
X191450000Y-106350000D03*
%TO.P,P1,30*%
X192150000Y-106350000D03*
%TD*%
D11*
%TO.P,J3,4*%
%TO.N,SDA*%
X200600000Y-115060000D03*
%TO.P,J3,3*%
%TO.N,SCL*%
X200600000Y-112520000D03*
%TO.P,J3,2*%
%TO.N,Net-(D1-Pad2)*%
X200600000Y-109980000D03*
D12*
%TO.P,J3,1*%
%TO.N,GND*%
X200600000Y-107440000D03*
%TD*%
D11*
%TO.P,J2,4*%
%TO.N,SDA*%
X163400000Y-107440000D03*
%TO.P,J2,3*%
%TO.N,SCL*%
X163400000Y-109980000D03*
%TO.P,J2,2*%
%TO.N,Net-(D1-Pad2)*%
X163400000Y-112520000D03*
D12*
%TO.P,J2,1*%
%TO.N,GND*%
X163400000Y-115060000D03*
%TD*%
D13*
%TO.P,D1,2*%
%TO.N,Net-(D1-Pad2)*%
X171500000Y-118050000D03*
%TO.P,D1,1*%
%TO.N,VCC*%
X171500000Y-114750000D03*
%TD*%
%TO.P,R4,2*%
%TO.N,Net-(R4-Pad2)*%
%TA.AperFunction,SMDPad,CuDef*%
G36*
G01*
X173043747Y-114150001D02*
X173556247Y-114150001D01*
G75*
G02*
X173774997Y-114368751I0J-218750D01*
G01*
X173774997Y-114806251D01*
G75*
G02*
X173556247Y-115025001I-218750J0D01*
G01*
X173043747Y-115025001D01*
G75*
G02*
X172824997Y-114806251I0J218750D01*
G01*
X172824997Y-114368751D01*
G75*
G02*
X173043747Y-114150001I218750J0D01*
G01*
G37*
%TD.AperFunction*%
%TO.P,R4,1*%
%TO.N,VCC*%
%TA.AperFunction,SMDPad,CuDef*%
G36*
G01*
X173043747Y-112575001D02*
X173556247Y-112575001D01*
G75*
G02*
X173774997Y-112793751I0J-218750D01*
G01*
X173774997Y-113231251D01*
G75*
G02*
X173556247Y-113450001I-218750J0D01*
G01*
X173043747Y-113450001D01*
G75*
G02*
X172824997Y-113231251I0J218750D01*
G01*
X172824997Y-112793751D01*
G75*
G02*
X173043747Y-112575001I218750J0D01*
G01*
G37*
%TD.AperFunction*%
%TD*%
%TO.P,R3,2*%
%TO.N,SDA*%
%TA.AperFunction,SMDPad,CuDef*%
G36*
G01*
X183299999Y-111456250D02*
X183299999Y-110943750D01*
G75*
G02*
X183518749Y-110725000I218750J0D01*
G01*
X183956249Y-110725000D01*
G75*
G02*
X184174999Y-110943750I0J-218750D01*
G01*
X184174999Y-111456250D01*
G75*
G02*
X183956249Y-111675000I-218750J0D01*
G01*
X183518749Y-111675000D01*
G75*
G02*
X183299999Y-111456250I0J218750D01*
G01*
G37*
%TD.AperFunction*%
%TO.P,R3,1*%
%TO.N,VDD*%
%TA.AperFunction,SMDPad,CuDef*%
G36*
G01*
X181724999Y-111456250D02*
X181724999Y-110943750D01*
G75*
G02*
X181943749Y-110725000I218750J0D01*
G01*
X182381249Y-110725000D01*
G75*
G02*
X182599999Y-110943750I0J-218750D01*
G01*
X182599999Y-111456250D01*
G75*
G02*
X182381249Y-111675000I-218750J0D01*
G01*
X181943749Y-111675000D01*
G75*
G02*
X181724999Y-111456250I0J218750D01*
G01*
G37*
%TD.AperFunction*%
%TD*%
%TO.P,R2,2*%
%TO.N,SCL*%
%TA.AperFunction,SMDPad,CuDef*%
G36*
G01*
X183300000Y-109906250D02*
X183300000Y-109393750D01*
G75*
G02*
X183518750Y-109175000I218750J0D01*
G01*
X183956250Y-109175000D01*
G75*
G02*
X184175000Y-109393750I0J-218750D01*
G01*
X184175000Y-109906250D01*
G75*
G02*
X183956250Y-110125000I-218750J0D01*
G01*
X183518750Y-110125000D01*
G75*
G02*
X183300000Y-109906250I0J218750D01*
G01*
G37*
%TD.AperFunction*%
%TO.P,R2,1*%
%TO.N,VDD*%
%TA.AperFunction,SMDPad,CuDef*%
G36*
G01*
X181725000Y-109906250D02*
X181725000Y-109393750D01*
G75*
G02*
X181943750Y-109175000I218750J0D01*
G01*
X182381250Y-109175000D01*
G75*
G02*
X182600000Y-109393750I0J-218750D01*
G01*
X182600000Y-109906250D01*
G75*
G02*
X182381250Y-110125000I-218750J0D01*
G01*
X181943750Y-110125000D01*
G75*
G02*
X181725000Y-109906250I0J218750D01*
G01*
G37*
%TD.AperFunction*%
%TD*%
%TO.P,R1,2*%
%TO.N,GND*%
%TA.AperFunction,SMDPad,CuDef*%
G36*
G01*
X192900000Y-111706250D02*
X192900000Y-111193750D01*
G75*
G02*
X193118750Y-110975000I218750J0D01*
G01*
X193556250Y-110975000D01*
G75*
G02*
X193775000Y-111193750I0J-218750D01*
G01*
X193775000Y-111706250D01*
G75*
G02*
X193556250Y-111925000I-218750J0D01*
G01*
X193118750Y-111925000D01*
G75*
G02*
X192900000Y-111706250I0J218750D01*
G01*
G37*
%TD.AperFunction*%
%TO.P,R1,1*%
%TO.N,Net-(P1-Pad26)*%
%TA.AperFunction,SMDPad,CuDef*%
G36*
G01*
X191325000Y-111706250D02*
X191325000Y-111193750D01*
G75*
G02*
X191543750Y-110975000I218750J0D01*
G01*
X191981250Y-110975000D01*
G75*
G02*
X192200000Y-111193750I0J-218750D01*
G01*
X192200000Y-111706250D01*
G75*
G02*
X191981250Y-111925000I-218750J0D01*
G01*
X191543750Y-111925000D01*
G75*
G02*
X191325000Y-111706250I0J218750D01*
G01*
G37*
%TD.AperFunction*%
%TD*%
%TO.P,C8,2*%
%TO.N,GND*%
%TA.AperFunction,SMDPad,CuDef*%
G36*
G01*
X179900000Y-112056250D02*
X179900000Y-111543750D01*
G75*
G02*
X180118750Y-111325000I218750J0D01*
G01*
X180556250Y-111325000D01*
G75*
G02*
X180775000Y-111543750I0J-218750D01*
G01*
X180775000Y-112056250D01*
G75*
G02*
X180556250Y-112275000I-218750J0D01*
G01*
X180118750Y-112275000D01*
G75*
G02*
X179900000Y-112056250I0J218750D01*
G01*
G37*
%TD.AperFunction*%
%TO.P,C8,1*%
%TO.N,VDD*%
%TA.AperFunction,SMDPad,CuDef*%
G36*
G01*
X178325000Y-112056250D02*
X178325000Y-111543750D01*
G75*
G02*
X178543750Y-111325000I218750J0D01*
G01*
X178981250Y-111325000D01*
G75*
G02*
X179200000Y-111543750I0J-218750D01*
G01*
X179200000Y-112056250D01*
G75*
G02*
X178981250Y-112275000I-218750J0D01*
G01*
X178543750Y-112275000D01*
G75*
G02*
X178325000Y-112056250I0J218750D01*
G01*
G37*
%TD.AperFunction*%
%TD*%
%TO.P,C7,2*%
%TO.N,GND*%
%TA.AperFunction,SMDPad,CuDef*%
G36*
G01*
X170362500Y-112743750D02*
X170362500Y-113256250D01*
G75*
G02*
X170143750Y-113475000I-218750J0D01*
G01*
X169706250Y-113475000D01*
G75*
G02*
X169487500Y-113256250I0J218750D01*
G01*
X169487500Y-112743750D01*
G75*
G02*
X169706250Y-112525000I218750J0D01*
G01*
X170143750Y-112525000D01*
G75*
G02*
X170362500Y-112743750I0J-218750D01*
G01*
G37*
%TD.AperFunction*%
%TO.P,C7,1*%
%TO.N,VCC*%
%TA.AperFunction,SMDPad,CuDef*%
G36*
G01*
X171937500Y-112743750D02*
X171937500Y-113256250D01*
G75*
G02*
X171718750Y-113475000I-218750J0D01*
G01*
X171281250Y-113475000D01*
G75*
G02*
X171062500Y-113256250I0J218750D01*
G01*
X171062500Y-112743750D01*
G75*
G02*
X171281250Y-112525000I218750J0D01*
G01*
X171718750Y-112525000D01*
G75*
G02*
X171937500Y-112743750I0J-218750D01*
G01*
G37*
%TD.AperFunction*%
%TD*%
%TO.P,C6,2*%
%TO.N,GND*%
%TA.AperFunction,SMDPad,CuDef*%
G36*
G01*
X179899999Y-110506248D02*
X179899999Y-109993748D01*
G75*
G02*
X180118749Y-109774998I218750J0D01*
G01*
X180556249Y-109774998D01*
G75*
G02*
X180774999Y-109993748I0J-218750D01*
G01*
X180774999Y-110506248D01*
G75*
G02*
X180556249Y-110724998I-218750J0D01*
G01*
X180118749Y-110724998D01*
G75*
G02*
X179899999Y-110506248I0J218750D01*
G01*
G37*
%TD.AperFunction*%
%TO.P,C6,1*%
%TO.N,VDD*%
%TA.AperFunction,SMDPad,CuDef*%
G36*
G01*
X178324999Y-110506248D02*
X178324999Y-109993748D01*
G75*
G02*
X178543749Y-109774998I218750J0D01*
G01*
X178981249Y-109774998D01*
G75*
G02*
X179199999Y-109993748I0J-218750D01*
G01*
X179199999Y-110506248D01*
G75*
G02*
X178981249Y-110724998I-218750J0D01*
G01*
X178543749Y-110724998D01*
G75*
G02*
X178324999Y-110506248I0J218750D01*
G01*
G37*
%TD.AperFunction*%
%TD*%
%TO.P,C5,2*%
%TO.N,GND*%
%TA.AperFunction,SMDPad,CuDef*%
G36*
G01*
X179900001Y-108956249D02*
X179900001Y-108443749D01*
G75*
G02*
X180118751Y-108224999I218750J0D01*
G01*
X180556251Y-108224999D01*
G75*
G02*
X180775001Y-108443749I0J-218750D01*
G01*
X180775001Y-108956249D01*
G75*
G02*
X180556251Y-109174999I-218750J0D01*
G01*
X180118751Y-109174999D01*
G75*
G02*
X179900001Y-108956249I0J218750D01*
G01*
G37*
%TD.AperFunction*%
%TO.P,C5,1*%
%TO.N,VDD*%
%TA.AperFunction,SMDPad,CuDef*%
G36*
G01*
X178325001Y-108956249D02*
X178325001Y-108443749D01*
G75*
G02*
X178543751Y-108224999I218750J0D01*
G01*
X178981251Y-108224999D01*
G75*
G02*
X179200001Y-108443749I0J-218750D01*
G01*
X179200001Y-108956249D01*
G75*
G02*
X178981251Y-109174999I-218750J0D01*
G01*
X178543751Y-109174999D01*
G75*
G02*
X178325001Y-108956249I0J218750D01*
G01*
G37*
%TD.AperFunction*%
%TD*%
%TO.P,C4,2*%
%TO.N,Net-(C4-Pad2)*%
%TA.AperFunction,SMDPad,CuDef*%
G36*
G01*
X192200001Y-108093751D02*
X192200001Y-108606251D01*
G75*
G02*
X191981251Y-108825001I-218750J0D01*
G01*
X191543751Y-108825001D01*
G75*
G02*
X191325001Y-108606251I0J218750D01*
G01*
X191325001Y-108093751D01*
G75*
G02*
X191543751Y-107875001I218750J0D01*
G01*
X191981251Y-107875001D01*
G75*
G02*
X192200001Y-108093751I0J-218750D01*
G01*
G37*
%TD.AperFunction*%
%TO.P,C4,1*%
%TO.N,GND*%
%TA.AperFunction,SMDPad,CuDef*%
G36*
G01*
X193775001Y-108093751D02*
X193775001Y-108606251D01*
G75*
G02*
X193556251Y-108825001I-218750J0D01*
G01*
X193118751Y-108825001D01*
G75*
G02*
X192900001Y-108606251I0J218750D01*
G01*
X192900001Y-108093751D01*
G75*
G02*
X193118751Y-107875001I218750J0D01*
G01*
X193556251Y-107875001D01*
G75*
G02*
X193775001Y-108093751I0J-218750D01*
G01*
G37*
%TD.AperFunction*%
%TD*%
%TO.P,C3,2*%
%TO.N,Net-(C3-Pad2)*%
%TA.AperFunction,SMDPad,CuDef*%
G36*
G01*
X174000000Y-108493750D02*
X174000000Y-109006250D01*
G75*
G02*
X173781250Y-109225000I-218750J0D01*
G01*
X173343750Y-109225000D01*
G75*
G02*
X173125000Y-109006250I0J218750D01*
G01*
X173125000Y-108493750D01*
G75*
G02*
X173343750Y-108275000I218750J0D01*
G01*
X173781250Y-108275000D01*
G75*
G02*
X174000000Y-108493750I0J-218750D01*
G01*
G37*
%TD.AperFunction*%
%TO.P,C3,1*%
%TO.N,Net-(C3-Pad1)*%
%TA.AperFunction,SMDPad,CuDef*%
G36*
G01*
X175575000Y-108493750D02*
X175575000Y-109006250D01*
G75*
G02*
X175356250Y-109225000I-218750J0D01*
G01*
X174918750Y-109225000D01*
G75*
G02*
X174700000Y-109006250I0J218750D01*
G01*
X174700000Y-108493750D01*
G75*
G02*
X174918750Y-108275000I218750J0D01*
G01*
X175356250Y-108275000D01*
G75*
G02*
X175575000Y-108493750I0J-218750D01*
G01*
G37*
%TD.AperFunction*%
%TD*%
%TO.P,C2,2*%
%TO.N,Net-(C2-Pad2)*%
%TA.AperFunction,SMDPad,CuDef*%
G36*
G01*
X192200001Y-109643750D02*
X192200001Y-110156250D01*
G75*
G02*
X191981251Y-110375000I-218750J0D01*
G01*
X191543751Y-110375000D01*
G75*
G02*
X191325001Y-110156250I0J218750D01*
G01*
X191325001Y-109643750D01*
G75*
G02*
X191543751Y-109425000I218750J0D01*
G01*
X191981251Y-109425000D01*
G75*
G02*
X192200001Y-109643750I0J-218750D01*
G01*
G37*
%TD.AperFunction*%
%TO.P,C2,1*%
%TO.N,GND*%
%TA.AperFunction,SMDPad,CuDef*%
G36*
G01*
X193775001Y-109643750D02*
X193775001Y-110156250D01*
G75*
G02*
X193556251Y-110375000I-218750J0D01*
G01*
X193118751Y-110375000D01*
G75*
G02*
X192900001Y-110156250I0J218750D01*
G01*
X192900001Y-109643750D01*
G75*
G02*
X193118751Y-109425000I218750J0D01*
G01*
X193556251Y-109425000D01*
G75*
G02*
X193775001Y-109643750I0J-218750D01*
G01*
G37*
%TD.AperFunction*%
%TD*%
%TO.P,C1,2*%
%TO.N,Net-(C1-Pad2)*%
%TA.AperFunction,SMDPad,CuDef*%
G36*
G01*
X172437500Y-110043750D02*
X172437500Y-110556250D01*
G75*
G02*
X172218750Y-110775000I-218750J0D01*
G01*
X171781250Y-110775000D01*
G75*
G02*
X171562500Y-110556250I0J218750D01*
G01*
X171562500Y-110043750D01*
G75*
G02*
X171781250Y-109825000I218750J0D01*
G01*
X172218750Y-109825000D01*
G75*
G02*
X172437500Y-110043750I0J-218750D01*
G01*
G37*
%TD.AperFunction*%
%TO.P,C1,1*%
%TO.N,Net-(C1-Pad1)*%
%TA.AperFunction,SMDPad,CuDef*%
G36*
G01*
X174012500Y-110043750D02*
X174012500Y-110556250D01*
G75*
G02*
X173793750Y-110775000I-218750J0D01*
G01*
X173356250Y-110775000D01*
G75*
G02*
X173137500Y-110556250I0J218750D01*
G01*
X173137500Y-110043750D01*
G75*
G02*
X173356250Y-109825000I218750J0D01*
G01*
X173793750Y-109825000D01*
G75*
G02*
X174012500Y-110043750I0J-218750D01*
G01*
G37*
%TD.AperFunction*%
%TD*%
D14*
%TO.P,J1,1*%
%TO.N,VCC*%
X175850000Y-110750000D03*
%TO.P,J1,2*%
%TO.N,VDD*%
X177150000Y-110750000D03*
%TD*%
D15*
%TO.P,U1,5*%
%TO.N,VDD*%
X177150000Y-112850000D03*
%TO.P,U1,4*%
%TO.N,Net-(U1-Pad4)*%
X177150000Y-114750000D03*
%TO.P,U1,3*%
%TO.N,Net-(R4-Pad2)*%
X174950000Y-114750000D03*
%TO.P,U1,2*%
%TO.N,GND*%
X174950000Y-113800000D03*
%TO.P,U1,1*%
%TO.N,VCC*%
X174950000Y-112850000D03*
%TD*%
D16*
%TO.N,GND*%
X176250000Y-113800000D03*
X177250000Y-119800000D03*
X196100000Y-104150000D03*
X167650000Y-107600000D03*
X165950000Y-102000000D03*
X183150000Y-114450000D03*
X165200000Y-120200000D03*
X168000000Y-112000000D03*
X188350000Y-111550000D03*
X197150000Y-113750000D03*
X184300000Y-120900000D03*
X191850000Y-118450000D03*
X198700000Y-120600000D03*
X198600000Y-101750000D03*
X180950000Y-102800000D03*
X171600000Y-119650000D03*
X183000000Y-108600000D03*
X190400000Y-103150000D03*
X188850000Y-116100000D03*
X191900000Y-121000000D03*
X169450000Y-121700000D03*
X171000000Y-101850000D03*
X187550000Y-103000000D03*
X178100000Y-116300000D03*
X171600000Y-116350000D03*
%TO.N,SDA*%
X185200000Y-111200000D03*
%TO.N,SCL*%
X183750000Y-104550000D03*
%TD*%
D17*
%TO.N,GND*%
X179550000Y-106350000D02*
X180300000Y-106350000D01*
X181650000Y-106350000D02*
X183050000Y-106350000D01*
X185850000Y-106350000D02*
X188650000Y-106350000D01*
X191450000Y-106350000D02*
X192150000Y-106350000D01*
X186550000Y-106350000D02*
X186550000Y-103350000D01*
X187250000Y-106350000D02*
X187250000Y-103450000D01*
X187950000Y-106350000D02*
X187950000Y-103500000D01*
X192150000Y-106350000D02*
X192150000Y-104000000D01*
X191450000Y-106350000D02*
X191450000Y-103700000D01*
X188650000Y-106350000D02*
X188650000Y-104000000D01*
X183050000Y-106350000D02*
X183050000Y-106050000D01*
X183050000Y-106050000D02*
X183079999Y-106020001D01*
X185850000Y-106350000D02*
X185850000Y-103650000D01*
X185850000Y-106350000D02*
X185850000Y-108950000D01*
X186550000Y-106350000D02*
X186550000Y-108450000D01*
X187250000Y-106350000D02*
X187250000Y-108550000D01*
X187950000Y-106350000D02*
X187950000Y-108450000D01*
X188650000Y-106350000D02*
X188650000Y-108450000D01*
X181650000Y-106350000D02*
X181650000Y-104450000D01*
X182350000Y-106350000D02*
X182350000Y-104550000D01*
X174950000Y-113800000D02*
X174900000Y-113800000D01*
X183050000Y-106350000D02*
X183050000Y-104350000D01*
X180300000Y-106350000D02*
X180300000Y-104500000D01*
X179550000Y-106350000D02*
X179550000Y-104650000D01*
X183050000Y-106350000D02*
X183050000Y-108000000D01*
X182350000Y-106350000D02*
X182350000Y-107900000D01*
D18*
X200600000Y-107440000D02*
X197840000Y-107440000D01*
X163400000Y-115060000D02*
X165460000Y-115060000D01*
X163400000Y-115060000D02*
X163400000Y-117300000D01*
X200600000Y-107440000D02*
X200600000Y-105250000D01*
D17*
%TO.N,Net-(C1-Pad1)*%
X172754990Y-109479990D02*
X173575000Y-110300000D01*
X172754990Y-108249874D02*
X172754990Y-109479990D01*
X173250000Y-107754864D02*
X172754990Y-108249874D01*
X173250000Y-106350000D02*
X173250000Y-107754864D01*
%TO.N,Net-(C3-Pad1)*%
X174650000Y-108262500D02*
X175137500Y-108750000D01*
X174650000Y-106350000D02*
X174650000Y-108262500D01*
%TO.N,Net-(C3-Pad2)*%
X173950000Y-108362500D02*
X173950000Y-106350000D01*
X173562500Y-108750000D02*
X173950000Y-108362500D01*
%TO.N,Net-(C4-Pad2)*%
X191050001Y-108350001D02*
X190750000Y-108050000D01*
X191762501Y-108350001D02*
X191050001Y-108350001D01*
X190750000Y-108050000D02*
X190750000Y-106350000D01*
%TO.N,VDD*%
X178850000Y-107606002D02*
X178850000Y-106350000D01*
X177450000Y-107606002D02*
X177450000Y-106350000D01*
D19*
X177150000Y-112850000D02*
X178500000Y-112850000D01*
X178762500Y-112637500D02*
X178762500Y-111800000D01*
X178500000Y-112850000D02*
X178712500Y-112637500D01*
X178712500Y-108700000D02*
X178712501Y-108699999D01*
X178762500Y-111800000D02*
X178762500Y-108700000D01*
X180816001Y-107745001D02*
X180950000Y-107611002D01*
X180950000Y-107611002D02*
X180950000Y-106350000D01*
X175350000Y-107561002D02*
X175533999Y-107745001D01*
X175350000Y-106350000D02*
X175350000Y-107561002D01*
X178712501Y-107812501D02*
X178645001Y-107745001D01*
X178712501Y-108699999D02*
X178712501Y-107812501D01*
X178645001Y-107745001D02*
X180816001Y-107745001D01*
X175533999Y-107745001D02*
X178645001Y-107745001D01*
X182162500Y-108823502D02*
X182162500Y-109650000D01*
X180950000Y-107611002D02*
X182162500Y-108823502D01*
X182162499Y-109650001D02*
X182162500Y-109650000D01*
X182162499Y-111200000D02*
X182162499Y-109650001D01*
X177150000Y-110750000D02*
X177150000Y-111550000D01*
X177400000Y-111800000D02*
X178762500Y-111800000D01*
X177150000Y-111550000D02*
X177400000Y-111800000D01*
D17*
%TO.N,Net-(C1-Pad2)*%
X172000000Y-108149951D02*
X172000000Y-110300000D01*
X172550000Y-106350000D02*
X172550000Y-107599951D01*
X172550000Y-107599951D02*
X172000000Y-108149951D01*
%TO.N,Net-(C2-Pad2)*%
X190050000Y-109250000D02*
X190700000Y-109900000D01*
X190050000Y-106350000D02*
X190050000Y-109250000D01*
X190700000Y-109900000D02*
X191762501Y-109900000D01*
D18*
%TO.N,VCC*%
X171500000Y-114750000D02*
X171500000Y-113000000D01*
X173287496Y-113000000D02*
X173299997Y-113012501D01*
X171500000Y-113000000D02*
X173287496Y-113000000D01*
X173462498Y-112850000D02*
X174950000Y-112850000D01*
X173299997Y-113012501D02*
X173462498Y-112850000D01*
X174950000Y-111650000D02*
X175850000Y-110750000D01*
X174950000Y-112850000D02*
X174950000Y-111650000D01*
D20*
%TO.N,Net-(D1-Pad2)*%
X164602081Y-112520000D02*
X170132081Y-118050000D01*
X170132081Y-118050000D02*
X171500000Y-118050000D01*
X163400000Y-112520000D02*
X164602081Y-112520000D01*
X190814398Y-118050000D02*
X171500000Y-118050000D01*
X198884398Y-109980000D02*
X190814398Y-118050000D01*
X200600000Y-109980000D02*
X198884398Y-109980000D01*
D17*
%TO.N,SDA*%
X184450000Y-106350000D02*
X185150000Y-106350000D01*
X185200000Y-106400000D02*
X185150000Y-106350000D01*
X185200000Y-111200000D02*
X185200000Y-106400000D01*
X183737499Y-111200000D02*
X185200000Y-111200000D01*
X185150000Y-104450000D02*
X185150000Y-104950000D01*
X185150000Y-104950000D02*
X185150000Y-106350000D01*
X163400000Y-107440000D02*
X167060010Y-103779990D01*
X184479990Y-103779990D02*
X185150000Y-104450000D01*
X167060010Y-103779990D02*
X184479990Y-103779990D01*
D21*
%TO.N,SCL*%
X183700000Y-106400000D02*
X183750000Y-106350000D01*
X183750000Y-106350000D02*
X183750000Y-104550000D01*
D17*
X183750000Y-109637500D02*
X183737500Y-109650000D01*
X183750000Y-106350000D02*
X183750000Y-109637500D01*
%TO.N,Net-(P1-Pad26)*%
X189350000Y-110150000D02*
X190650000Y-111450000D01*
X189350000Y-106350000D02*
X189350000Y-110150000D01*
X191762500Y-111450000D02*
X190650000Y-111450000D01*
D19*
%TO.N,Net-(R4-Pad2)*%
X173299997Y-114587501D02*
X173987501Y-114587501D01*
X174150000Y-114750000D02*
X174950000Y-114750000D01*
X173987501Y-114587501D02*
X174150000Y-114750000D01*
%TD*%
D22*
%TO.N,GND*%
G36*
X202048001Y-118109209D02*
G01*
X202041533Y-118102741D01*
X201799622Y-117941101D01*
X201530825Y-117829762D01*
X201245472Y-117773002D01*
X200954528Y-117773002D01*
X200669175Y-117829762D01*
X200400378Y-117941101D01*
X200158467Y-118102741D01*
X199952739Y-118308469D01*
X199791099Y-118550380D01*
X199679760Y-118819177D01*
X199623000Y-119104530D01*
X199623000Y-119395474D01*
X199679760Y-119680827D01*
X199791099Y-119949624D01*
X199952739Y-120191535D01*
X200158467Y-120397263D01*
X200400378Y-120558903D01*
X200669175Y-120670242D01*
X200954528Y-120727002D01*
X201245472Y-120727002D01*
X201530825Y-120670242D01*
X201799622Y-120558903D01*
X202041533Y-120397263D01*
X202048001Y-120390795D01*
X202048001Y-122477881D01*
X202035436Y-122606023D01*
X202004648Y-122707999D01*
X201954634Y-122802061D01*
X201887307Y-122884612D01*
X201805227Y-122952515D01*
X201711520Y-123003182D01*
X201609755Y-123034684D01*
X201483062Y-123048000D01*
X162522109Y-123048000D01*
X162393977Y-123035436D01*
X162292001Y-123004648D01*
X162197939Y-122954634D01*
X162115388Y-122887307D01*
X162047485Y-122805227D01*
X161996818Y-122711520D01*
X161965316Y-122609755D01*
X161952000Y-122483062D01*
X161952000Y-120390794D01*
X161958468Y-120397262D01*
X162200379Y-120558902D01*
X162469176Y-120670241D01*
X162754529Y-120727001D01*
X163045473Y-120727001D01*
X163330826Y-120670241D01*
X163599623Y-120558902D01*
X163841534Y-120397262D01*
X164047262Y-120191534D01*
X164208902Y-119949623D01*
X164320241Y-119680826D01*
X164377001Y-119395473D01*
X164377001Y-119104529D01*
X164320241Y-118819176D01*
X164208902Y-118550379D01*
X164047262Y-118308468D01*
X163841534Y-118102740D01*
X163599623Y-117941100D01*
X163330826Y-117829761D01*
X163045473Y-117773001D01*
X162754529Y-117773001D01*
X162469176Y-117829761D01*
X162200379Y-117941100D01*
X161958468Y-118102740D01*
X161952000Y-118109208D01*
X161952000Y-116126166D01*
X161960498Y-116154180D01*
X162019463Y-116264494D01*
X162098815Y-116361185D01*
X162195506Y-116440537D01*
X162305820Y-116499502D01*
X162425518Y-116535812D01*
X162550000Y-116548072D01*
X163114250Y-116545000D01*
X163273000Y-116386250D01*
X163273000Y-115187000D01*
X163527000Y-115187000D01*
X163527000Y-116386250D01*
X163685750Y-116545000D01*
X164250000Y-116548072D01*
X164374482Y-116535812D01*
X164494180Y-116499502D01*
X164604494Y-116440537D01*
X164701185Y-116361185D01*
X164780537Y-116264494D01*
X164839502Y-116154180D01*
X164875812Y-116034482D01*
X164888072Y-115910000D01*
X164885000Y-115345750D01*
X164726250Y-115187000D01*
X163527000Y-115187000D01*
X163273000Y-115187000D01*
X163253000Y-115187000D01*
X163253000Y-114933000D01*
X163273000Y-114933000D01*
X163273000Y-114913000D01*
X163527000Y-114913000D01*
X163527000Y-114933000D01*
X164726250Y-114933000D01*
X164885000Y-114774250D01*
X164888072Y-114210000D01*
X164875812Y-114085518D01*
X164853378Y-114011562D01*
X169481489Y-118639674D01*
X169508948Y-118673133D01*
X169642489Y-118782727D01*
X169710681Y-118819176D01*
X169794844Y-118864162D01*
X169960158Y-118914310D01*
X170132081Y-118931243D01*
X170175160Y-118927000D01*
X190771319Y-118927000D01*
X190814398Y-118931243D01*
X190857477Y-118927000D01*
X190986320Y-118914310D01*
X191151635Y-118864162D01*
X191303990Y-118782727D01*
X191437531Y-118673133D01*
X191464995Y-118639668D01*
X195165512Y-114939151D01*
X199373000Y-114939151D01*
X199373000Y-115180849D01*
X199420153Y-115417903D01*
X199512647Y-115641202D01*
X199646927Y-115842167D01*
X199817833Y-116013073D01*
X200018798Y-116147353D01*
X200242097Y-116239847D01*
X200479151Y-116287000D01*
X200720849Y-116287000D01*
X200957903Y-116239847D01*
X201181202Y-116147353D01*
X201382167Y-116013073D01*
X201553073Y-115842167D01*
X201687353Y-115641202D01*
X201779847Y-115417903D01*
X201827000Y-115180849D01*
X201827000Y-114939151D01*
X201779847Y-114702097D01*
X201687353Y-114478798D01*
X201553073Y-114277833D01*
X201382167Y-114106927D01*
X201181202Y-113972647D01*
X200957903Y-113880153D01*
X200720849Y-113833000D01*
X200479151Y-113833000D01*
X200242097Y-113880153D01*
X200018798Y-113972647D01*
X199817833Y-114106927D01*
X199646927Y-114277833D01*
X199512647Y-114478798D01*
X199420153Y-114702097D01*
X199373000Y-114939151D01*
X195165512Y-114939151D01*
X197705512Y-112399151D01*
X199373000Y-112399151D01*
X199373000Y-112640849D01*
X199420153Y-112877903D01*
X199512647Y-113101202D01*
X199646927Y-113302167D01*
X199817833Y-113473073D01*
X200018798Y-113607353D01*
X200242097Y-113699847D01*
X200479151Y-113747000D01*
X200720849Y-113747000D01*
X200957903Y-113699847D01*
X201181202Y-113607353D01*
X201382167Y-113473073D01*
X201553073Y-113302167D01*
X201687353Y-113101202D01*
X201779847Y-112877903D01*
X201827000Y-112640849D01*
X201827000Y-112399151D01*
X201779847Y-112162097D01*
X201687353Y-111938798D01*
X201553073Y-111737833D01*
X201382167Y-111566927D01*
X201181202Y-111432647D01*
X200957903Y-111340153D01*
X200720849Y-111293000D01*
X200479151Y-111293000D01*
X200242097Y-111340153D01*
X200018798Y-111432647D01*
X199817833Y-111566927D01*
X199646927Y-111737833D01*
X199512647Y-111938798D01*
X199420153Y-112162097D01*
X199373000Y-112399151D01*
X197705512Y-112399151D01*
X199247663Y-110857000D01*
X199741760Y-110857000D01*
X199817833Y-110933073D01*
X200018798Y-111067353D01*
X200242097Y-111159847D01*
X200479151Y-111207000D01*
X200720849Y-111207000D01*
X200957903Y-111159847D01*
X201181202Y-111067353D01*
X201382167Y-110933073D01*
X201553073Y-110762167D01*
X201687353Y-110561202D01*
X201779847Y-110337903D01*
X201827000Y-110100849D01*
X201827000Y-109859151D01*
X201779847Y-109622097D01*
X201687353Y-109398798D01*
X201553073Y-109197833D01*
X201382167Y-109026927D01*
X201232447Y-108926888D01*
X201450000Y-108928072D01*
X201574482Y-108915812D01*
X201694180Y-108879502D01*
X201804494Y-108820537D01*
X201901185Y-108741185D01*
X201980537Y-108644494D01*
X202039502Y-108534180D01*
X202048000Y-108506165D01*
X202048001Y-118109209D01*
G37*
X202048001Y-118109209D02*
X202041533Y-118102741D01*
X201799622Y-117941101D01*
X201530825Y-117829762D01*
X201245472Y-117773002D01*
X200954528Y-117773002D01*
X200669175Y-117829762D01*
X200400378Y-117941101D01*
X200158467Y-118102741D01*
X199952739Y-118308469D01*
X199791099Y-118550380D01*
X199679760Y-118819177D01*
X199623000Y-119104530D01*
X199623000Y-119395474D01*
X199679760Y-119680827D01*
X199791099Y-119949624D01*
X199952739Y-120191535D01*
X200158467Y-120397263D01*
X200400378Y-120558903D01*
X200669175Y-120670242D01*
X200954528Y-120727002D01*
X201245472Y-120727002D01*
X201530825Y-120670242D01*
X201799622Y-120558903D01*
X202041533Y-120397263D01*
X202048001Y-120390795D01*
X202048001Y-122477881D01*
X202035436Y-122606023D01*
X202004648Y-122707999D01*
X201954634Y-122802061D01*
X201887307Y-122884612D01*
X201805227Y-122952515D01*
X201711520Y-123003182D01*
X201609755Y-123034684D01*
X201483062Y-123048000D01*
X162522109Y-123048000D01*
X162393977Y-123035436D01*
X162292001Y-123004648D01*
X162197939Y-122954634D01*
X162115388Y-122887307D01*
X162047485Y-122805227D01*
X161996818Y-122711520D01*
X161965316Y-122609755D01*
X161952000Y-122483062D01*
X161952000Y-120390794D01*
X161958468Y-120397262D01*
X162200379Y-120558902D01*
X162469176Y-120670241D01*
X162754529Y-120727001D01*
X163045473Y-120727001D01*
X163330826Y-120670241D01*
X163599623Y-120558902D01*
X163841534Y-120397262D01*
X164047262Y-120191534D01*
X164208902Y-119949623D01*
X164320241Y-119680826D01*
X164377001Y-119395473D01*
X164377001Y-119104529D01*
X164320241Y-118819176D01*
X164208902Y-118550379D01*
X164047262Y-118308468D01*
X163841534Y-118102740D01*
X163599623Y-117941100D01*
X163330826Y-117829761D01*
X163045473Y-117773001D01*
X162754529Y-117773001D01*
X162469176Y-117829761D01*
X162200379Y-117941100D01*
X161958468Y-118102740D01*
X161952000Y-118109208D01*
X161952000Y-116126166D01*
X161960498Y-116154180D01*
X162019463Y-116264494D01*
X162098815Y-116361185D01*
X162195506Y-116440537D01*
X162305820Y-116499502D01*
X162425518Y-116535812D01*
X162550000Y-116548072D01*
X163114250Y-116545000D01*
X163273000Y-116386250D01*
X163273000Y-115187000D01*
X163527000Y-115187000D01*
X163527000Y-116386250D01*
X163685750Y-116545000D01*
X164250000Y-116548072D01*
X164374482Y-116535812D01*
X164494180Y-116499502D01*
X164604494Y-116440537D01*
X164701185Y-116361185D01*
X164780537Y-116264494D01*
X164839502Y-116154180D01*
X164875812Y-116034482D01*
X164888072Y-115910000D01*
X164885000Y-115345750D01*
X164726250Y-115187000D01*
X163527000Y-115187000D01*
X163273000Y-115187000D01*
X163253000Y-115187000D01*
X163253000Y-114933000D01*
X163273000Y-114933000D01*
X163273000Y-114913000D01*
X163527000Y-114913000D01*
X163527000Y-114933000D01*
X164726250Y-114933000D01*
X164885000Y-114774250D01*
X164888072Y-114210000D01*
X164875812Y-114085518D01*
X164853378Y-114011562D01*
X169481489Y-118639674D01*
X169508948Y-118673133D01*
X169642489Y-118782727D01*
X169710681Y-118819176D01*
X169794844Y-118864162D01*
X169960158Y-118914310D01*
X170132081Y-118931243D01*
X170175160Y-118927000D01*
X190771319Y-118927000D01*
X190814398Y-118931243D01*
X190857477Y-118927000D01*
X190986320Y-118914310D01*
X191151635Y-118864162D01*
X191303990Y-118782727D01*
X191437531Y-118673133D01*
X191464995Y-118639668D01*
X195165512Y-114939151D01*
X199373000Y-114939151D01*
X199373000Y-115180849D01*
X199420153Y-115417903D01*
X199512647Y-115641202D01*
X199646927Y-115842167D01*
X199817833Y-116013073D01*
X200018798Y-116147353D01*
X200242097Y-116239847D01*
X200479151Y-116287000D01*
X200720849Y-116287000D01*
X200957903Y-116239847D01*
X201181202Y-116147353D01*
X201382167Y-116013073D01*
X201553073Y-115842167D01*
X201687353Y-115641202D01*
X201779847Y-115417903D01*
X201827000Y-115180849D01*
X201827000Y-114939151D01*
X201779847Y-114702097D01*
X201687353Y-114478798D01*
X201553073Y-114277833D01*
X201382167Y-114106927D01*
X201181202Y-113972647D01*
X200957903Y-113880153D01*
X200720849Y-113833000D01*
X200479151Y-113833000D01*
X200242097Y-113880153D01*
X200018798Y-113972647D01*
X199817833Y-114106927D01*
X199646927Y-114277833D01*
X199512647Y-114478798D01*
X199420153Y-114702097D01*
X199373000Y-114939151D01*
X195165512Y-114939151D01*
X197705512Y-112399151D01*
X199373000Y-112399151D01*
X199373000Y-112640849D01*
X199420153Y-112877903D01*
X199512647Y-113101202D01*
X199646927Y-113302167D01*
X199817833Y-113473073D01*
X200018798Y-113607353D01*
X200242097Y-113699847D01*
X200479151Y-113747000D01*
X200720849Y-113747000D01*
X200957903Y-113699847D01*
X201181202Y-113607353D01*
X201382167Y-113473073D01*
X201553073Y-113302167D01*
X201687353Y-113101202D01*
X201779847Y-112877903D01*
X201827000Y-112640849D01*
X201827000Y-112399151D01*
X201779847Y-112162097D01*
X201687353Y-111938798D01*
X201553073Y-111737833D01*
X201382167Y-111566927D01*
X201181202Y-111432647D01*
X200957903Y-111340153D01*
X200720849Y-111293000D01*
X200479151Y-111293000D01*
X200242097Y-111340153D01*
X200018798Y-111432647D01*
X199817833Y-111566927D01*
X199646927Y-111737833D01*
X199512647Y-111938798D01*
X199420153Y-112162097D01*
X199373000Y-112399151D01*
X197705512Y-112399151D01*
X199247663Y-110857000D01*
X199741760Y-110857000D01*
X199817833Y-110933073D01*
X200018798Y-111067353D01*
X200242097Y-111159847D01*
X200479151Y-111207000D01*
X200720849Y-111207000D01*
X200957903Y-111159847D01*
X201181202Y-111067353D01*
X201382167Y-110933073D01*
X201553073Y-110762167D01*
X201687353Y-110561202D01*
X201779847Y-110337903D01*
X201827000Y-110100849D01*
X201827000Y-109859151D01*
X201779847Y-109622097D01*
X201687353Y-109398798D01*
X201553073Y-109197833D01*
X201382167Y-109026927D01*
X201232447Y-108926888D01*
X201450000Y-108928072D01*
X201574482Y-108915812D01*
X201694180Y-108879502D01*
X201804494Y-108820537D01*
X201901185Y-108741185D01*
X201980537Y-108644494D01*
X202039502Y-108534180D01*
X202048000Y-108506165D01*
X202048001Y-118109209D01*
G36*
X173048000Y-101777795D02*
G01*
X173045813Y-101800000D01*
X173054540Y-101888607D01*
X173080386Y-101973810D01*
X173122357Y-102052333D01*
X173178841Y-102121159D01*
X173247667Y-102177643D01*
X173326190Y-102219614D01*
X173411393Y-102245460D01*
X173500000Y-102254187D01*
X173522205Y-102252000D01*
X190477795Y-102252000D01*
X190500000Y-102254187D01*
X190522205Y-102252000D01*
X190588607Y-102245460D01*
X190673810Y-102219614D01*
X190752333Y-102177643D01*
X190821159Y-102121159D01*
X190877643Y-102052333D01*
X190919614Y-101973810D01*
X190945460Y-101888607D01*
X190954187Y-101800000D01*
X190952000Y-101777795D01*
X190952000Y-100252000D01*
X201477891Y-100252000D01*
X201606022Y-100264563D01*
X201707999Y-100295353D01*
X201802061Y-100345366D01*
X201884613Y-100412694D01*
X201952515Y-100494774D01*
X202003182Y-100588481D01*
X202034684Y-100690245D01*
X202048000Y-100816938D01*
X202048000Y-102109204D01*
X202041533Y-102102737D01*
X201799622Y-101941097D01*
X201530825Y-101829758D01*
X201245472Y-101772998D01*
X200954528Y-101772998D01*
X200669175Y-101829758D01*
X200400378Y-101941097D01*
X200158467Y-102102737D01*
X199952739Y-102308465D01*
X199791099Y-102550376D01*
X199679760Y-102819173D01*
X199623000Y-103104526D01*
X199623000Y-103395470D01*
X199679760Y-103680823D01*
X199791099Y-103949620D01*
X199952739Y-104191531D01*
X200158467Y-104397259D01*
X200400378Y-104558899D01*
X200669175Y-104670238D01*
X200954528Y-104726998D01*
X201245472Y-104726998D01*
X201530825Y-104670238D01*
X201799622Y-104558899D01*
X202041533Y-104397259D01*
X202048000Y-104390792D01*
X202048000Y-106373835D01*
X202039502Y-106345820D01*
X201980537Y-106235506D01*
X201901185Y-106138815D01*
X201804494Y-106059463D01*
X201694180Y-106000498D01*
X201574482Y-105964188D01*
X201450000Y-105951928D01*
X200885750Y-105955000D01*
X200727000Y-106113750D01*
X200727000Y-107313000D01*
X200747000Y-107313000D01*
X200747000Y-107567000D01*
X200727000Y-107567000D01*
X200727000Y-107587000D01*
X200473000Y-107587000D01*
X200473000Y-107567000D01*
X199273750Y-107567000D01*
X199115000Y-107725750D01*
X199111928Y-108290000D01*
X199124188Y-108414482D01*
X199160498Y-108534180D01*
X199219463Y-108644494D01*
X199298815Y-108741185D01*
X199395506Y-108820537D01*
X199505820Y-108879502D01*
X199625518Y-108915812D01*
X199750000Y-108928072D01*
X199967553Y-108926888D01*
X199817833Y-109026927D01*
X199741760Y-109103000D01*
X198927467Y-109103000D01*
X198884397Y-109098758D01*
X198841328Y-109103000D01*
X198841319Y-109103000D01*
X198712476Y-109115690D01*
X198547161Y-109165838D01*
X198394806Y-109247273D01*
X198261265Y-109356867D01*
X198233801Y-109390332D01*
X190451133Y-117173000D01*
X170495347Y-117173000D01*
X166797347Y-113475000D01*
X168849428Y-113475000D01*
X168861688Y-113599482D01*
X168897998Y-113719180D01*
X168956963Y-113829494D01*
X169036315Y-113926185D01*
X169133006Y-114005537D01*
X169243320Y-114064502D01*
X169363018Y-114100812D01*
X169487500Y-114113072D01*
X169639250Y-114110000D01*
X169798000Y-113951250D01*
X169798000Y-113127000D01*
X169011250Y-113127000D01*
X168852500Y-113285750D01*
X168849428Y-113475000D01*
X166797347Y-113475000D01*
X165847347Y-112525000D01*
X168849428Y-112525000D01*
X168852500Y-112714250D01*
X169011250Y-112873000D01*
X169798000Y-112873000D01*
X169798000Y-112048750D01*
X169639250Y-111890000D01*
X169487500Y-111886928D01*
X169363018Y-111899188D01*
X169243320Y-111935498D01*
X169133006Y-111994463D01*
X169036315Y-112073815D01*
X168956963Y-112170506D01*
X168897998Y-112280820D01*
X168861688Y-112400518D01*
X168849428Y-112525000D01*
X165847347Y-112525000D01*
X165252678Y-111930332D01*
X165225214Y-111896867D01*
X165091673Y-111787273D01*
X164939318Y-111705838D01*
X164774003Y-111655690D01*
X164645160Y-111643000D01*
X164602081Y-111638757D01*
X164559002Y-111643000D01*
X164258240Y-111643000D01*
X164182167Y-111566927D01*
X163981202Y-111432647D01*
X163757903Y-111340153D01*
X163520849Y-111293000D01*
X163279151Y-111293000D01*
X163042097Y-111340153D01*
X162818798Y-111432647D01*
X162617833Y-111566927D01*
X162446927Y-111737833D01*
X162312647Y-111938798D01*
X162220153Y-112162097D01*
X162173000Y-112399151D01*
X162173000Y-112640849D01*
X162220153Y-112877903D01*
X162312647Y-113101202D01*
X162446927Y-113302167D01*
X162617833Y-113473073D01*
X162767553Y-113573112D01*
X162550000Y-113571928D01*
X162425518Y-113584188D01*
X162305820Y-113620498D01*
X162195506Y-113679463D01*
X162098815Y-113758815D01*
X162019463Y-113855506D01*
X161960498Y-113965820D01*
X161952000Y-113993834D01*
X161952000Y-109859151D01*
X162173000Y-109859151D01*
X162173000Y-110100849D01*
X162220153Y-110337903D01*
X162312647Y-110561202D01*
X162446927Y-110762167D01*
X162617833Y-110933073D01*
X162818798Y-111067353D01*
X163042097Y-111159847D01*
X163279151Y-111207000D01*
X163520849Y-111207000D01*
X163757903Y-111159847D01*
X163981202Y-111067353D01*
X164182167Y-110933073D01*
X164353073Y-110762167D01*
X164487353Y-110561202D01*
X164579847Y-110337903D01*
X164627000Y-110100849D01*
X164627000Y-109859151D01*
X164579847Y-109622097D01*
X164487353Y-109398798D01*
X164353073Y-109197833D01*
X164182167Y-109026927D01*
X163981202Y-108892647D01*
X163757903Y-108800153D01*
X163520849Y-108753000D01*
X163279151Y-108753000D01*
X163042097Y-108800153D01*
X162818798Y-108892647D01*
X162617833Y-109026927D01*
X162446927Y-109197833D01*
X162312647Y-109398798D01*
X162220153Y-109622097D01*
X162173000Y-109859151D01*
X161952000Y-109859151D01*
X161952000Y-107319151D01*
X162173000Y-107319151D01*
X162173000Y-107560849D01*
X162220153Y-107797903D01*
X162312647Y-108021202D01*
X162446927Y-108222167D01*
X162617833Y-108393073D01*
X162818798Y-108527353D01*
X163042097Y-108619847D01*
X163279151Y-108667000D01*
X163520849Y-108667000D01*
X163757903Y-108619847D01*
X163981202Y-108527353D01*
X164182167Y-108393073D01*
X164353073Y-108222167D01*
X164487353Y-108021202D01*
X164579847Y-107797903D01*
X164627000Y-107560849D01*
X164627000Y-107319151D01*
X164579847Y-107082097D01*
X164578106Y-107077895D01*
X166298313Y-105357688D01*
X171011974Y-105357688D01*
X171015000Y-106064250D01*
X171173750Y-106223000D01*
X171777000Y-106223000D01*
X171777000Y-104873750D01*
X171618250Y-104715000D01*
X171517987Y-104725734D01*
X171398736Y-104763483D01*
X171289140Y-104823772D01*
X171193412Y-104904284D01*
X171115230Y-105001924D01*
X171057599Y-105112941D01*
X171022734Y-105233067D01*
X171011974Y-105357688D01*
X166298313Y-105357688D01*
X167299011Y-104356990D01*
X183098128Y-104356990D01*
X183073000Y-104483321D01*
X183073000Y-104616679D01*
X183099016Y-104747474D01*
X183143026Y-104853724D01*
X183123000Y-104873750D01*
X183123000Y-105075568D01*
X183084770Y-105001924D01*
X183006588Y-104904284D01*
X182977000Y-104879399D01*
X182977000Y-104873750D01*
X182818250Y-104715000D01*
X182717987Y-104725734D01*
X182700000Y-104731428D01*
X182682013Y-104725734D01*
X182581750Y-104715000D01*
X182423000Y-104873750D01*
X182423000Y-104879399D01*
X182393412Y-104904284D01*
X182350000Y-104958500D01*
X182306588Y-104904284D01*
X182277000Y-104879399D01*
X182277000Y-104873750D01*
X182118250Y-104715000D01*
X182017987Y-104725734D01*
X182000000Y-104731428D01*
X181982013Y-104725734D01*
X181881750Y-104715000D01*
X181723000Y-104873750D01*
X181723000Y-104879399D01*
X181693412Y-104904284D01*
X181615230Y-105001924D01*
X181577000Y-105075568D01*
X181577000Y-104873750D01*
X181418250Y-104715000D01*
X181317987Y-104725734D01*
X181198736Y-104763483D01*
X181089140Y-104823772D01*
X180993412Y-104904284D01*
X180975000Y-104927278D01*
X180956588Y-104904284D01*
X180860860Y-104823772D01*
X180751264Y-104763483D01*
X180632013Y-104725734D01*
X180531750Y-104715000D01*
X180373000Y-104873750D01*
X180373000Y-105218369D01*
X180342401Y-105112941D01*
X180284770Y-105001924D01*
X180227000Y-104929776D01*
X180227000Y-104873750D01*
X180068250Y-104715000D01*
X179967987Y-104725734D01*
X179925000Y-104739342D01*
X179882013Y-104725734D01*
X179781750Y-104715000D01*
X179623000Y-104873750D01*
X179623000Y-104929776D01*
X179565230Y-105001924D01*
X179507599Y-105112941D01*
X179477000Y-105218369D01*
X179477000Y-104873750D01*
X179318250Y-104715000D01*
X179217987Y-104725734D01*
X179098736Y-104763483D01*
X178989140Y-104823772D01*
X178893412Y-104904284D01*
X178850000Y-104958500D01*
X178806588Y-104904284D01*
X178710860Y-104823772D01*
X178601264Y-104763483D01*
X178482013Y-104725734D01*
X178381750Y-104715000D01*
X178223000Y-104873750D01*
X178223000Y-106223000D01*
X178271176Y-106223000D01*
X178271176Y-106477000D01*
X178223000Y-106477000D01*
X178223000Y-106497000D01*
X178077000Y-106497000D01*
X178077000Y-106477000D01*
X178028824Y-106477000D01*
X178028824Y-106223000D01*
X178077000Y-106223000D01*
X178077000Y-104873750D01*
X177918250Y-104715000D01*
X177817987Y-104725734D01*
X177698736Y-104763483D01*
X177589140Y-104823772D01*
X177493412Y-104904284D01*
X177450000Y-104958500D01*
X177406588Y-104904284D01*
X177310860Y-104823772D01*
X177201264Y-104763483D01*
X177082013Y-104725734D01*
X176981750Y-104715000D01*
X176823000Y-104873750D01*
X176823000Y-106223000D01*
X176871176Y-106223000D01*
X176871176Y-106477000D01*
X176823000Y-106477000D01*
X176823000Y-106497000D01*
X176677000Y-106497000D01*
X176677000Y-106477000D01*
X176628824Y-106477000D01*
X176628824Y-106223000D01*
X176677000Y-106223000D01*
X176677000Y-104873750D01*
X176518250Y-104715000D01*
X176417987Y-104725734D01*
X176298736Y-104763483D01*
X176189140Y-104823772D01*
X176093412Y-104904284D01*
X176039850Y-104971176D01*
X175850000Y-104971176D01*
X175776095Y-104978455D01*
X175705030Y-105000012D01*
X175700000Y-105002701D01*
X175694970Y-105000012D01*
X175623905Y-104978455D01*
X175550000Y-104971176D01*
X175150000Y-104971176D01*
X175076095Y-104978455D01*
X175005030Y-105000012D01*
X175000000Y-105002701D01*
X174994970Y-105000012D01*
X174923905Y-104978455D01*
X174850000Y-104971176D01*
X174450000Y-104971176D01*
X174376095Y-104978455D01*
X174305030Y-105000012D01*
X174300000Y-105002701D01*
X174294970Y-105000012D01*
X174223905Y-104978455D01*
X174150000Y-104971176D01*
X173750000Y-104971176D01*
X173676095Y-104978455D01*
X173605030Y-105000012D01*
X173600000Y-105002701D01*
X173594970Y-105000012D01*
X173523905Y-104978455D01*
X173450000Y-104971176D01*
X173050000Y-104971176D01*
X172976095Y-104978455D01*
X172905030Y-105000012D01*
X172900000Y-105002701D01*
X172894970Y-105000012D01*
X172823905Y-104978455D01*
X172750000Y-104971176D01*
X172560150Y-104971176D01*
X172506588Y-104904284D01*
X172410860Y-104823772D01*
X172301264Y-104763483D01*
X172182013Y-104725734D01*
X172081750Y-104715000D01*
X171923000Y-104873750D01*
X171923000Y-106223000D01*
X171971176Y-106223000D01*
X171971176Y-106477000D01*
X171923000Y-106477000D01*
X171923000Y-106497000D01*
X171777000Y-106497000D01*
X171777000Y-106477000D01*
X171173750Y-106477000D01*
X171015000Y-106635750D01*
X171011974Y-107342312D01*
X171022734Y-107466933D01*
X171057599Y-107587059D01*
X171115230Y-107698076D01*
X171193412Y-107795716D01*
X171289140Y-107876228D01*
X171398736Y-107936517D01*
X171456259Y-107954726D01*
X171454041Y-107962037D01*
X171431349Y-108036840D01*
X171425613Y-108095088D01*
X171423173Y-108119868D01*
X171420210Y-108149951D01*
X171423000Y-108178282D01*
X171423001Y-109568432D01*
X171358701Y-109621201D01*
X171284385Y-109711756D01*
X171229164Y-109815068D01*
X171195158Y-109927169D01*
X171183676Y-110043750D01*
X171183676Y-110556250D01*
X171195158Y-110672831D01*
X171229164Y-110784932D01*
X171284385Y-110888244D01*
X171358701Y-110978799D01*
X171449256Y-111053115D01*
X171552568Y-111108336D01*
X171664669Y-111142342D01*
X171781250Y-111153824D01*
X172218750Y-111153824D01*
X172335331Y-111142342D01*
X172447432Y-111108336D01*
X172550744Y-111053115D01*
X172641299Y-110978799D01*
X172715615Y-110888244D01*
X172770836Y-110784932D01*
X172787500Y-110729999D01*
X172804164Y-110784932D01*
X172859385Y-110888244D01*
X172933701Y-110978799D01*
X173024256Y-111053115D01*
X173127568Y-111108336D01*
X173239669Y-111142342D01*
X173356250Y-111153824D01*
X173793750Y-111153824D01*
X173910331Y-111142342D01*
X174022432Y-111108336D01*
X174125744Y-111053115D01*
X174216299Y-110978799D01*
X174290615Y-110888244D01*
X174345836Y-110784932D01*
X174379842Y-110672831D01*
X174391324Y-110556250D01*
X174391324Y-110043750D01*
X174379842Y-109927169D01*
X174345836Y-109815068D01*
X174290615Y-109711756D01*
X174216299Y-109621201D01*
X174125744Y-109546885D01*
X174078550Y-109521659D01*
X174113244Y-109503115D01*
X174203799Y-109428799D01*
X174278115Y-109338244D01*
X174333336Y-109234932D01*
X174350000Y-109179999D01*
X174366664Y-109234932D01*
X174421885Y-109338244D01*
X174496201Y-109428799D01*
X174586756Y-109503115D01*
X174690068Y-109558336D01*
X174802169Y-109592342D01*
X174918750Y-109603824D01*
X175356250Y-109603824D01*
X175472831Y-109592342D01*
X175584932Y-109558336D01*
X175688244Y-109503115D01*
X175778799Y-109428799D01*
X175853115Y-109338244D01*
X175908336Y-109234932D01*
X175942342Y-109122831D01*
X175953824Y-109006250D01*
X175953824Y-108493750D01*
X175942342Y-108377169D01*
X175933190Y-108347001D01*
X177955706Y-108347001D01*
X177946177Y-108443749D01*
X177946177Y-108956249D01*
X177957659Y-109072830D01*
X177991665Y-109184931D01*
X178046886Y-109288243D01*
X178121202Y-109378798D01*
X178160501Y-109411049D01*
X178160501Y-109538946D01*
X178121200Y-109571199D01*
X178046884Y-109661754D01*
X177991663Y-109765066D01*
X177977267Y-109812522D01*
X177964981Y-109789537D01*
X177917869Y-109732131D01*
X177860463Y-109685019D01*
X177794970Y-109650012D01*
X177723905Y-109628455D01*
X177650000Y-109621176D01*
X176650000Y-109621176D01*
X176576095Y-109628455D01*
X176505030Y-109650012D01*
X176500000Y-109652701D01*
X176494970Y-109650012D01*
X176423905Y-109628455D01*
X176350000Y-109621176D01*
X175350000Y-109621176D01*
X175276095Y-109628455D01*
X175205030Y-109650012D01*
X175139537Y-109685019D01*
X175082131Y-109732131D01*
X175035019Y-109789537D01*
X175000012Y-109855030D01*
X174978455Y-109926095D01*
X174971176Y-110000000D01*
X174971176Y-110529980D01*
X174427565Y-111073592D01*
X174397921Y-111097920D01*
X174373593Y-111127564D01*
X174373591Y-111127566D01*
X174300823Y-111216234D01*
X174228673Y-111351217D01*
X174184244Y-111497682D01*
X174169241Y-111650000D01*
X174173001Y-111688173D01*
X174173001Y-112073000D01*
X173500653Y-112073000D01*
X173462497Y-112069242D01*
X173424341Y-112073000D01*
X173424332Y-112073000D01*
X173310179Y-112084243D01*
X173163714Y-112128673D01*
X173035996Y-112196940D01*
X172927166Y-112207659D01*
X172876594Y-112223000D01*
X172006058Y-112223000D01*
X171947432Y-112191664D01*
X171835331Y-112157658D01*
X171718750Y-112146176D01*
X171281250Y-112146176D01*
X171164669Y-112157658D01*
X171052568Y-112191664D01*
X170949256Y-112246885D01*
X170938557Y-112255666D01*
X170893037Y-112170506D01*
X170813685Y-112073815D01*
X170716994Y-111994463D01*
X170606680Y-111935498D01*
X170486982Y-111899188D01*
X170362500Y-111886928D01*
X170210750Y-111890000D01*
X170052000Y-112048750D01*
X170052000Y-112873000D01*
X170072000Y-112873000D01*
X170072000Y-113127000D01*
X170052000Y-113127000D01*
X170052000Y-113951250D01*
X170210750Y-114110000D01*
X170362500Y-114113072D01*
X170486982Y-114100812D01*
X170605195Y-114064952D01*
X170585019Y-114089537D01*
X170550012Y-114155030D01*
X170528455Y-114226095D01*
X170521176Y-114300000D01*
X170521176Y-115200000D01*
X170528455Y-115273905D01*
X170550012Y-115344970D01*
X170585019Y-115410463D01*
X170632131Y-115467869D01*
X170689537Y-115514981D01*
X170755030Y-115549988D01*
X170826095Y-115571545D01*
X170900000Y-115578824D01*
X172100000Y-115578824D01*
X172173905Y-115571545D01*
X172244970Y-115549988D01*
X172310463Y-115514981D01*
X172367869Y-115467869D01*
X172414981Y-115410463D01*
X172449988Y-115344970D01*
X172471545Y-115273905D01*
X172478824Y-115200000D01*
X172478824Y-114992616D01*
X172491661Y-115034933D01*
X172546882Y-115138245D01*
X172621198Y-115228800D01*
X172711753Y-115303116D01*
X172815065Y-115358337D01*
X172927166Y-115392343D01*
X173043747Y-115403825D01*
X173556247Y-115403825D01*
X173672828Y-115392343D01*
X173784929Y-115358337D01*
X173888241Y-115303116D01*
X173895937Y-115296800D01*
X173918510Y-115308866D01*
X174031988Y-115343289D01*
X174120434Y-115352000D01*
X174120443Y-115352000D01*
X174149999Y-115354911D01*
X174165004Y-115353433D01*
X174209537Y-115389981D01*
X174275030Y-115424988D01*
X174346095Y-115446545D01*
X174420000Y-115453824D01*
X175480000Y-115453824D01*
X175553905Y-115446545D01*
X175624970Y-115424988D01*
X175690463Y-115389981D01*
X175747869Y-115342869D01*
X175794981Y-115285463D01*
X175829988Y-115219970D01*
X175851545Y-115148905D01*
X175858824Y-115075000D01*
X175858824Y-114635570D01*
X175931185Y-114576185D01*
X176010537Y-114479494D01*
X176039665Y-114425000D01*
X176241176Y-114425000D01*
X176241176Y-115075000D01*
X176248455Y-115148905D01*
X176270012Y-115219970D01*
X176305019Y-115285463D01*
X176352131Y-115342869D01*
X176409537Y-115389981D01*
X176475030Y-115424988D01*
X176546095Y-115446545D01*
X176620000Y-115453824D01*
X177680000Y-115453824D01*
X177753905Y-115446545D01*
X177824970Y-115424988D01*
X177890463Y-115389981D01*
X177947869Y-115342869D01*
X177994981Y-115285463D01*
X178029988Y-115219970D01*
X178051545Y-115148905D01*
X178058824Y-115075000D01*
X178058824Y-114425000D01*
X178051545Y-114351095D01*
X178029988Y-114280030D01*
X177994981Y-114214537D01*
X177947869Y-114157131D01*
X177890463Y-114110019D01*
X177824970Y-114075012D01*
X177753905Y-114053455D01*
X177680000Y-114046176D01*
X176620000Y-114046176D01*
X176546095Y-114053455D01*
X176475030Y-114075012D01*
X176409537Y-114110019D01*
X176352131Y-114157131D01*
X176305019Y-114214537D01*
X176270012Y-114280030D01*
X176248455Y-114351095D01*
X176241176Y-114425000D01*
X176039665Y-114425000D01*
X176069502Y-114369180D01*
X176105812Y-114249482D01*
X176118072Y-114125000D01*
X176115000Y-114085750D01*
X175956250Y-113927000D01*
X175077000Y-113927000D01*
X175077000Y-113947000D01*
X174823000Y-113947000D01*
X174823000Y-113927000D01*
X173955398Y-113927000D01*
X173888241Y-113871886D01*
X173784929Y-113816665D01*
X173729996Y-113800001D01*
X173784929Y-113783337D01*
X173888241Y-113728116D01*
X173955401Y-113673000D01*
X174823000Y-113673000D01*
X174823000Y-113653000D01*
X175077000Y-113653000D01*
X175077000Y-113673000D01*
X175956250Y-113673000D01*
X176115000Y-113514250D01*
X176118072Y-113475000D01*
X176105812Y-113350518D01*
X176069502Y-113230820D01*
X176010537Y-113120506D01*
X175931185Y-113023815D01*
X175858824Y-112964430D01*
X175858824Y-112525000D01*
X175851545Y-112451095D01*
X175829988Y-112380030D01*
X175794981Y-112314537D01*
X175747869Y-112257131D01*
X175727000Y-112240004D01*
X175727000Y-111971843D01*
X175820019Y-111878824D01*
X176350000Y-111878824D01*
X176423905Y-111871545D01*
X176494970Y-111849988D01*
X176500000Y-111847299D01*
X176505030Y-111849988D01*
X176576095Y-111871545D01*
X176642781Y-111878113D01*
X176647035Y-111886071D01*
X176687135Y-111934932D01*
X176722264Y-111977737D01*
X176745228Y-111996584D01*
X176894820Y-112146176D01*
X176620000Y-112146176D01*
X176546095Y-112153455D01*
X176475030Y-112175012D01*
X176409537Y-112210019D01*
X176352131Y-112257131D01*
X176305019Y-112314537D01*
X176270012Y-112380030D01*
X176248455Y-112451095D01*
X176241176Y-112525000D01*
X176241176Y-113175000D01*
X176248455Y-113248905D01*
X176270012Y-113319970D01*
X176305019Y-113385463D01*
X176352131Y-113442869D01*
X176409537Y-113489981D01*
X176475030Y-113524988D01*
X176546095Y-113546545D01*
X176620000Y-113553824D01*
X177680000Y-113553824D01*
X177753905Y-113546545D01*
X177824970Y-113524988D01*
X177890463Y-113489981D01*
X177936743Y-113452000D01*
X178470444Y-113452000D01*
X178500000Y-113454911D01*
X178529556Y-113452000D01*
X178529566Y-113452000D01*
X178618012Y-113443289D01*
X178731490Y-113408866D01*
X178836071Y-113352966D01*
X178927737Y-113277737D01*
X178946588Y-113254767D01*
X179017621Y-113183734D01*
X179098570Y-113140466D01*
X179190237Y-113065237D01*
X179265466Y-112973571D01*
X179321366Y-112868990D01*
X179355789Y-112755512D01*
X179364500Y-112667066D01*
X179364500Y-112620209D01*
X179369463Y-112629494D01*
X179448815Y-112726185D01*
X179545506Y-112805537D01*
X179655820Y-112864502D01*
X179775518Y-112900812D01*
X179900000Y-112913072D01*
X180051750Y-112910000D01*
X180210500Y-112751250D01*
X180210500Y-111927000D01*
X180464500Y-111927000D01*
X180464500Y-112751250D01*
X180623250Y-112910000D01*
X180775000Y-112913072D01*
X180899482Y-112900812D01*
X181019180Y-112864502D01*
X181129494Y-112805537D01*
X181226185Y-112726185D01*
X181305537Y-112629494D01*
X181364502Y-112519180D01*
X181400812Y-112399482D01*
X181413072Y-112275000D01*
X181410000Y-112085750D01*
X181251250Y-111927000D01*
X180464500Y-111927000D01*
X180210500Y-111927000D01*
X180190500Y-111927000D01*
X180190500Y-111673000D01*
X180210500Y-111673000D01*
X180210500Y-110848750D01*
X180210499Y-110848749D01*
X180210499Y-110376998D01*
X180190499Y-110376998D01*
X180190499Y-110122998D01*
X180210499Y-110122998D01*
X180210499Y-109651251D01*
X180210501Y-109651249D01*
X180210501Y-108826999D01*
X180190501Y-108826999D01*
X180190501Y-108572999D01*
X180210501Y-108572999D01*
X180210501Y-108552999D01*
X180464501Y-108552999D01*
X180464501Y-108572999D01*
X180484501Y-108572999D01*
X180484501Y-108826999D01*
X180464501Y-108826999D01*
X180464501Y-109298746D01*
X180464499Y-109298748D01*
X180464499Y-110122998D01*
X181251249Y-110122998D01*
X181357098Y-110017149D01*
X181357658Y-110022831D01*
X181391664Y-110134932D01*
X181446885Y-110238244D01*
X181521201Y-110328799D01*
X181560500Y-110361050D01*
X181560499Y-110488949D01*
X181521200Y-110521201D01*
X181446884Y-110611756D01*
X181412284Y-110676489D01*
X181409999Y-110535748D01*
X181251249Y-110376998D01*
X180464499Y-110376998D01*
X180464499Y-111201248D01*
X180464500Y-111201249D01*
X180464500Y-111673000D01*
X181251250Y-111673000D01*
X181357098Y-111567152D01*
X181357657Y-111572831D01*
X181391663Y-111684932D01*
X181446884Y-111788244D01*
X181521200Y-111878799D01*
X181611755Y-111953115D01*
X181715067Y-112008336D01*
X181827168Y-112042342D01*
X181943749Y-112053824D01*
X182381249Y-112053824D01*
X182497830Y-112042342D01*
X182609931Y-112008336D01*
X182713243Y-111953115D01*
X182803798Y-111878799D01*
X182878114Y-111788244D01*
X182933335Y-111684932D01*
X182949999Y-111629999D01*
X182966663Y-111684932D01*
X183021884Y-111788244D01*
X183096200Y-111878799D01*
X183186755Y-111953115D01*
X183290067Y-112008336D01*
X183402168Y-112042342D01*
X183518749Y-112053824D01*
X183956249Y-112053824D01*
X184072830Y-112042342D01*
X184184931Y-112008336D01*
X184288243Y-111953115D01*
X184378798Y-111878799D01*
X184453114Y-111788244D01*
X184459124Y-111777000D01*
X184844973Y-111777000D01*
X184879320Y-111799950D01*
X185002526Y-111850984D01*
X185133321Y-111877000D01*
X185266679Y-111877000D01*
X185397474Y-111850984D01*
X185520680Y-111799950D01*
X185631563Y-111725860D01*
X185725860Y-111631563D01*
X185799950Y-111520680D01*
X185850984Y-111397474D01*
X185877000Y-111266679D01*
X185877000Y-111133321D01*
X185850984Y-111002526D01*
X185799950Y-110879320D01*
X185777000Y-110844973D01*
X185777000Y-107624432D01*
X185815230Y-107698076D01*
X185893412Y-107795716D01*
X185923000Y-107820601D01*
X185923000Y-107826250D01*
X186081750Y-107985000D01*
X186182013Y-107974266D01*
X186200000Y-107968572D01*
X186217987Y-107974266D01*
X186318250Y-107985000D01*
X186477000Y-107826250D01*
X186477000Y-107820601D01*
X186506588Y-107795716D01*
X186550000Y-107741500D01*
X186593412Y-107795716D01*
X186623000Y-107820601D01*
X186623000Y-107826250D01*
X186781750Y-107985000D01*
X186882013Y-107974266D01*
X186900000Y-107968572D01*
X186917987Y-107974266D01*
X187018250Y-107985000D01*
X187177000Y-107826250D01*
X187177000Y-107820601D01*
X187206588Y-107795716D01*
X187250000Y-107741500D01*
X187293412Y-107795716D01*
X187323000Y-107820601D01*
X187323000Y-107826250D01*
X187481750Y-107985000D01*
X187582013Y-107974266D01*
X187600000Y-107968572D01*
X187617987Y-107974266D01*
X187718250Y-107985000D01*
X187877000Y-107826250D01*
X187877000Y-107820601D01*
X187906588Y-107795716D01*
X187950000Y-107741500D01*
X187993412Y-107795716D01*
X188023000Y-107820601D01*
X188023000Y-107826250D01*
X188181750Y-107985000D01*
X188282013Y-107974266D01*
X188300000Y-107968572D01*
X188317987Y-107974266D01*
X188418250Y-107985000D01*
X188577000Y-107826250D01*
X188577000Y-107820601D01*
X188606588Y-107795716D01*
X188684770Y-107698076D01*
X188723000Y-107624432D01*
X188723000Y-107826250D01*
X188773000Y-107876250D01*
X188773001Y-110121659D01*
X188770210Y-110150000D01*
X188781349Y-110263111D01*
X188810031Y-110357658D01*
X188814344Y-110371876D01*
X188867922Y-110472115D01*
X188874221Y-110479790D01*
X188921963Y-110537964D01*
X188921966Y-110537967D01*
X188940027Y-110559974D01*
X188962034Y-110578035D01*
X190221961Y-111837962D01*
X190240026Y-111859974D01*
X190327885Y-111932079D01*
X190428124Y-111985657D01*
X190457154Y-111994463D01*
X190536888Y-112018651D01*
X190650000Y-112029791D01*
X190678339Y-112027000D01*
X191040875Y-112027000D01*
X191046885Y-112038244D01*
X191121201Y-112128799D01*
X191211756Y-112203115D01*
X191315068Y-112258336D01*
X191427169Y-112292342D01*
X191543750Y-112303824D01*
X191981250Y-112303824D01*
X192097831Y-112292342D01*
X192209932Y-112258336D01*
X192313244Y-112203115D01*
X192323943Y-112194334D01*
X192369463Y-112279494D01*
X192448815Y-112376185D01*
X192545506Y-112455537D01*
X192655820Y-112514502D01*
X192775518Y-112550812D01*
X192900000Y-112563072D01*
X193051750Y-112560000D01*
X193210500Y-112401250D01*
X193210500Y-111577000D01*
X193464500Y-111577000D01*
X193464500Y-112401250D01*
X193623250Y-112560000D01*
X193775000Y-112563072D01*
X193899482Y-112550812D01*
X194019180Y-112514502D01*
X194129494Y-112455537D01*
X194226185Y-112376185D01*
X194305537Y-112279494D01*
X194364502Y-112169180D01*
X194400812Y-112049482D01*
X194413072Y-111925000D01*
X194410000Y-111735750D01*
X194251250Y-111577000D01*
X193464500Y-111577000D01*
X193210500Y-111577000D01*
X193190500Y-111577000D01*
X193190500Y-111323000D01*
X193210500Y-111323000D01*
X193210500Y-110851251D01*
X193210501Y-110851250D01*
X193210501Y-110498750D01*
X193464500Y-110498750D01*
X193464500Y-111323000D01*
X194251250Y-111323000D01*
X194410000Y-111164250D01*
X194413072Y-110975000D01*
X194400812Y-110850518D01*
X194364502Y-110730820D01*
X194334666Y-110675001D01*
X194364503Y-110619180D01*
X194400813Y-110499482D01*
X194413073Y-110375000D01*
X194410001Y-110185750D01*
X194251251Y-110027000D01*
X193464501Y-110027000D01*
X193464501Y-110498749D01*
X193464500Y-110498750D01*
X193210501Y-110498750D01*
X193210501Y-110027000D01*
X193190501Y-110027000D01*
X193190501Y-109773000D01*
X193210501Y-109773000D01*
X193210501Y-108477001D01*
X193464501Y-108477001D01*
X193464501Y-109773000D01*
X194251251Y-109773000D01*
X194410001Y-109614250D01*
X194413073Y-109425000D01*
X194400813Y-109300518D01*
X194364503Y-109180820D01*
X194334666Y-109125001D01*
X194364503Y-109069181D01*
X194400813Y-108949483D01*
X194413073Y-108825001D01*
X194410001Y-108635751D01*
X194251251Y-108477001D01*
X193464501Y-108477001D01*
X193210501Y-108477001D01*
X193190501Y-108477001D01*
X193190501Y-108223001D01*
X193210501Y-108223001D01*
X193210501Y-107398751D01*
X193464501Y-107398751D01*
X193464501Y-108223001D01*
X194251251Y-108223001D01*
X194410001Y-108064251D01*
X194413073Y-107875001D01*
X194400813Y-107750519D01*
X194364503Y-107630821D01*
X194305538Y-107520507D01*
X194226186Y-107423816D01*
X194129495Y-107344464D01*
X194019181Y-107285499D01*
X193899483Y-107249189D01*
X193775001Y-107236929D01*
X193623251Y-107240001D01*
X193464501Y-107398751D01*
X193210501Y-107398751D01*
X193051751Y-107240001D01*
X192987582Y-107238702D01*
X192985000Y-106635750D01*
X192939250Y-106590000D01*
X199111928Y-106590000D01*
X199115000Y-107154250D01*
X199273750Y-107313000D01*
X200473000Y-107313000D01*
X200473000Y-106113750D01*
X200314250Y-105955000D01*
X199750000Y-105951928D01*
X199625518Y-105964188D01*
X199505820Y-106000498D01*
X199395506Y-106059463D01*
X199298815Y-106138815D01*
X199219463Y-106235506D01*
X199160498Y-106345820D01*
X199124188Y-106465518D01*
X199111928Y-106590000D01*
X192939250Y-106590000D01*
X192826250Y-106477000D01*
X192223000Y-106477000D01*
X192223000Y-106497000D01*
X192146250Y-106497000D01*
X192126250Y-106477000D01*
X192003000Y-106477000D01*
X192003000Y-106223000D01*
X192126250Y-106223000D01*
X192223000Y-106126250D01*
X192223000Y-106223000D01*
X192826250Y-106223000D01*
X192985000Y-106064250D01*
X192988026Y-105357688D01*
X192977266Y-105233067D01*
X192942401Y-105112941D01*
X192884770Y-105001924D01*
X192806588Y-104904284D01*
X192710860Y-104823772D01*
X192601264Y-104763483D01*
X192482013Y-104725734D01*
X192381750Y-104715000D01*
X192223000Y-104873750D01*
X192223000Y-105075568D01*
X192184770Y-105001924D01*
X192106588Y-104904284D01*
X192077000Y-104879399D01*
X192077000Y-104873750D01*
X191918250Y-104715000D01*
X191817987Y-104725734D01*
X191800000Y-104731428D01*
X191782013Y-104725734D01*
X191681750Y-104715000D01*
X191523000Y-104873750D01*
X191523000Y-104879399D01*
X191493412Y-104904284D01*
X191415230Y-105001924D01*
X191377000Y-105075568D01*
X191377000Y-104873750D01*
X191218250Y-104715000D01*
X191117987Y-104725734D01*
X190998736Y-104763483D01*
X190889140Y-104823772D01*
X190793412Y-104904284D01*
X190739850Y-104971176D01*
X190550000Y-104971176D01*
X190476095Y-104978455D01*
X190405030Y-105000012D01*
X190400000Y-105002701D01*
X190394970Y-105000012D01*
X190323905Y-104978455D01*
X190250000Y-104971176D01*
X189850000Y-104971176D01*
X189776095Y-104978455D01*
X189705030Y-105000012D01*
X189700000Y-105002701D01*
X189694970Y-105000012D01*
X189623905Y-104978455D01*
X189550000Y-104971176D01*
X189360150Y-104971176D01*
X189306588Y-104904284D01*
X189210860Y-104823772D01*
X189101264Y-104763483D01*
X188982013Y-104725734D01*
X188881750Y-104715000D01*
X188723000Y-104873750D01*
X188723000Y-105075568D01*
X188684770Y-105001924D01*
X188606588Y-104904284D01*
X188577000Y-104879399D01*
X188577000Y-104873750D01*
X188418250Y-104715000D01*
X188317987Y-104725734D01*
X188300000Y-104731428D01*
X188282013Y-104725734D01*
X188181750Y-104715000D01*
X188023000Y-104873750D01*
X188023000Y-104879399D01*
X187993412Y-104904284D01*
X187950000Y-104958500D01*
X187906588Y-104904284D01*
X187877000Y-104879399D01*
X187877000Y-104873750D01*
X187718250Y-104715000D01*
X187617987Y-104725734D01*
X187600000Y-104731428D01*
X187582013Y-104725734D01*
X187481750Y-104715000D01*
X187323000Y-104873750D01*
X187323000Y-104879399D01*
X187293412Y-104904284D01*
X187250000Y-104958500D01*
X187206588Y-104904284D01*
X187177000Y-104879399D01*
X187177000Y-104873750D01*
X187018250Y-104715000D01*
X186917987Y-104725734D01*
X186900000Y-104731428D01*
X186882013Y-104725734D01*
X186781750Y-104715000D01*
X186623000Y-104873750D01*
X186623000Y-104879399D01*
X186593412Y-104904284D01*
X186550000Y-104958500D01*
X186506588Y-104904284D01*
X186477000Y-104879399D01*
X186477000Y-104873750D01*
X186318250Y-104715000D01*
X186217987Y-104725734D01*
X186200000Y-104731428D01*
X186182013Y-104725734D01*
X186081750Y-104715000D01*
X185923000Y-104873750D01*
X185923000Y-104879399D01*
X185893412Y-104904284D01*
X185815230Y-105001924D01*
X185777000Y-105075568D01*
X185777000Y-104873750D01*
X185727000Y-104823750D01*
X185727000Y-104478328D01*
X185729790Y-104449999D01*
X185727000Y-104421670D01*
X185727000Y-104421664D01*
X185718650Y-104336888D01*
X185685657Y-104228124D01*
X185632079Y-104127885D01*
X185559974Y-104040026D01*
X185537968Y-104021966D01*
X184908029Y-103392028D01*
X184889964Y-103370016D01*
X184802105Y-103297911D01*
X184701866Y-103244333D01*
X184637760Y-103224887D01*
X184593101Y-103211339D01*
X184538035Y-103205916D01*
X184508326Y-103202990D01*
X184508321Y-103202990D01*
X184479990Y-103200200D01*
X184451659Y-103202990D01*
X167088341Y-103202990D01*
X167060010Y-103200200D01*
X167031679Y-103202990D01*
X167031674Y-103202990D01*
X167004896Y-103205627D01*
X166946898Y-103211339D01*
X166882792Y-103230786D01*
X166838134Y-103244333D01*
X166737895Y-103297911D01*
X166650036Y-103370016D01*
X166631971Y-103392028D01*
X163762105Y-106261894D01*
X163757903Y-106260153D01*
X163520849Y-106213000D01*
X163279151Y-106213000D01*
X163042097Y-106260153D01*
X162818798Y-106352647D01*
X162617833Y-106486927D01*
X162446927Y-106657833D01*
X162312647Y-106858798D01*
X162220153Y-107082097D01*
X162173000Y-107319151D01*
X161952000Y-107319151D01*
X161952000Y-104390792D01*
X161958468Y-104397260D01*
X162200379Y-104558900D01*
X162469176Y-104670239D01*
X162754529Y-104726999D01*
X163045473Y-104726999D01*
X163330826Y-104670239D01*
X163599623Y-104558900D01*
X163841534Y-104397260D01*
X164047262Y-104191532D01*
X164208902Y-103949621D01*
X164320241Y-103680824D01*
X164377001Y-103395471D01*
X164377001Y-103104527D01*
X164320241Y-102819174D01*
X164208902Y-102550377D01*
X164047262Y-102308466D01*
X163841534Y-102102738D01*
X163599623Y-101941098D01*
X163330826Y-101829759D01*
X163045473Y-101772999D01*
X162754529Y-101772999D01*
X162469176Y-101829759D01*
X162200379Y-101941098D01*
X161958468Y-102102738D01*
X161952000Y-102109206D01*
X161952000Y-100822109D01*
X161964563Y-100693978D01*
X161995353Y-100592001D01*
X162045366Y-100497939D01*
X162112694Y-100415387D01*
X162194774Y-100347485D01*
X162288481Y-100296818D01*
X162390245Y-100265316D01*
X162516938Y-100252000D01*
X173048001Y-100252000D01*
X173048000Y-101777795D01*
G37*
X173048000Y-101777795D02*
X173045813Y-101800000D01*
X173054540Y-101888607D01*
X173080386Y-101973810D01*
X173122357Y-102052333D01*
X173178841Y-102121159D01*
X173247667Y-102177643D01*
X173326190Y-102219614D01*
X173411393Y-102245460D01*
X173500000Y-102254187D01*
X173522205Y-102252000D01*
X190477795Y-102252000D01*
X190500000Y-102254187D01*
X190522205Y-102252000D01*
X190588607Y-102245460D01*
X190673810Y-102219614D01*
X190752333Y-102177643D01*
X190821159Y-102121159D01*
X190877643Y-102052333D01*
X190919614Y-101973810D01*
X190945460Y-101888607D01*
X190954187Y-101800000D01*
X190952000Y-101777795D01*
X190952000Y-100252000D01*
X201477891Y-100252000D01*
X201606022Y-100264563D01*
X201707999Y-100295353D01*
X201802061Y-100345366D01*
X201884613Y-100412694D01*
X201952515Y-100494774D01*
X202003182Y-100588481D01*
X202034684Y-100690245D01*
X202048000Y-100816938D01*
X202048000Y-102109204D01*
X202041533Y-102102737D01*
X201799622Y-101941097D01*
X201530825Y-101829758D01*
X201245472Y-101772998D01*
X200954528Y-101772998D01*
X200669175Y-101829758D01*
X200400378Y-101941097D01*
X200158467Y-102102737D01*
X199952739Y-102308465D01*
X199791099Y-102550376D01*
X199679760Y-102819173D01*
X199623000Y-103104526D01*
X199623000Y-103395470D01*
X199679760Y-103680823D01*
X199791099Y-103949620D01*
X199952739Y-104191531D01*
X200158467Y-104397259D01*
X200400378Y-104558899D01*
X200669175Y-104670238D01*
X200954528Y-104726998D01*
X201245472Y-104726998D01*
X201530825Y-104670238D01*
X201799622Y-104558899D01*
X202041533Y-104397259D01*
X202048000Y-104390792D01*
X202048000Y-106373835D01*
X202039502Y-106345820D01*
X201980537Y-106235506D01*
X201901185Y-106138815D01*
X201804494Y-106059463D01*
X201694180Y-106000498D01*
X201574482Y-105964188D01*
X201450000Y-105951928D01*
X200885750Y-105955000D01*
X200727000Y-106113750D01*
X200727000Y-107313000D01*
X200747000Y-107313000D01*
X200747000Y-107567000D01*
X200727000Y-107567000D01*
X200727000Y-107587000D01*
X200473000Y-107587000D01*
X200473000Y-107567000D01*
X199273750Y-107567000D01*
X199115000Y-107725750D01*
X199111928Y-108290000D01*
X199124188Y-108414482D01*
X199160498Y-108534180D01*
X199219463Y-108644494D01*
X199298815Y-108741185D01*
X199395506Y-108820537D01*
X199505820Y-108879502D01*
X199625518Y-108915812D01*
X199750000Y-108928072D01*
X199967553Y-108926888D01*
X199817833Y-109026927D01*
X199741760Y-109103000D01*
X198927467Y-109103000D01*
X198884397Y-109098758D01*
X198841328Y-109103000D01*
X198841319Y-109103000D01*
X198712476Y-109115690D01*
X198547161Y-109165838D01*
X198394806Y-109247273D01*
X198261265Y-109356867D01*
X198233801Y-109390332D01*
X190451133Y-117173000D01*
X170495347Y-117173000D01*
X166797347Y-113475000D01*
X168849428Y-113475000D01*
X168861688Y-113599482D01*
X168897998Y-113719180D01*
X168956963Y-113829494D01*
X169036315Y-113926185D01*
X169133006Y-114005537D01*
X169243320Y-114064502D01*
X169363018Y-114100812D01*
X169487500Y-114113072D01*
X169639250Y-114110000D01*
X169798000Y-113951250D01*
X169798000Y-113127000D01*
X169011250Y-113127000D01*
X168852500Y-113285750D01*
X168849428Y-113475000D01*
X166797347Y-113475000D01*
X165847347Y-112525000D01*
X168849428Y-112525000D01*
X168852500Y-112714250D01*
X169011250Y-112873000D01*
X169798000Y-112873000D01*
X169798000Y-112048750D01*
X169639250Y-111890000D01*
X169487500Y-111886928D01*
X169363018Y-111899188D01*
X169243320Y-111935498D01*
X169133006Y-111994463D01*
X169036315Y-112073815D01*
X168956963Y-112170506D01*
X168897998Y-112280820D01*
X168861688Y-112400518D01*
X168849428Y-112525000D01*
X165847347Y-112525000D01*
X165252678Y-111930332D01*
X165225214Y-111896867D01*
X165091673Y-111787273D01*
X164939318Y-111705838D01*
X164774003Y-111655690D01*
X164645160Y-111643000D01*
X164602081Y-111638757D01*
X164559002Y-111643000D01*
X164258240Y-111643000D01*
X164182167Y-111566927D01*
X163981202Y-111432647D01*
X163757903Y-111340153D01*
X163520849Y-111293000D01*
X163279151Y-111293000D01*
X163042097Y-111340153D01*
X162818798Y-111432647D01*
X162617833Y-111566927D01*
X162446927Y-111737833D01*
X162312647Y-111938798D01*
X162220153Y-112162097D01*
X162173000Y-112399151D01*
X162173000Y-112640849D01*
X162220153Y-112877903D01*
X162312647Y-113101202D01*
X162446927Y-113302167D01*
X162617833Y-113473073D01*
X162767553Y-113573112D01*
X162550000Y-113571928D01*
X162425518Y-113584188D01*
X162305820Y-113620498D01*
X162195506Y-113679463D01*
X162098815Y-113758815D01*
X162019463Y-113855506D01*
X161960498Y-113965820D01*
X161952000Y-113993834D01*
X161952000Y-109859151D01*
X162173000Y-109859151D01*
X162173000Y-110100849D01*
X162220153Y-110337903D01*
X162312647Y-110561202D01*
X162446927Y-110762167D01*
X162617833Y-110933073D01*
X162818798Y-111067353D01*
X163042097Y-111159847D01*
X163279151Y-111207000D01*
X163520849Y-111207000D01*
X163757903Y-111159847D01*
X163981202Y-111067353D01*
X164182167Y-110933073D01*
X164353073Y-110762167D01*
X164487353Y-110561202D01*
X164579847Y-110337903D01*
X164627000Y-110100849D01*
X164627000Y-109859151D01*
X164579847Y-109622097D01*
X164487353Y-109398798D01*
X164353073Y-109197833D01*
X164182167Y-109026927D01*
X163981202Y-108892647D01*
X163757903Y-108800153D01*
X163520849Y-108753000D01*
X163279151Y-108753000D01*
X163042097Y-108800153D01*
X162818798Y-108892647D01*
X162617833Y-109026927D01*
X162446927Y-109197833D01*
X162312647Y-109398798D01*
X162220153Y-109622097D01*
X162173000Y-109859151D01*
X161952000Y-109859151D01*
X161952000Y-107319151D01*
X162173000Y-107319151D01*
X162173000Y-107560849D01*
X162220153Y-107797903D01*
X162312647Y-108021202D01*
X162446927Y-108222167D01*
X162617833Y-108393073D01*
X162818798Y-108527353D01*
X163042097Y-108619847D01*
X163279151Y-108667000D01*
X163520849Y-108667000D01*
X163757903Y-108619847D01*
X163981202Y-108527353D01*
X164182167Y-108393073D01*
X164353073Y-108222167D01*
X164487353Y-108021202D01*
X164579847Y-107797903D01*
X164627000Y-107560849D01*
X164627000Y-107319151D01*
X164579847Y-107082097D01*
X164578106Y-107077895D01*
X166298313Y-105357688D01*
X171011974Y-105357688D01*
X171015000Y-106064250D01*
X171173750Y-106223000D01*
X171777000Y-106223000D01*
X171777000Y-104873750D01*
X171618250Y-104715000D01*
X171517987Y-104725734D01*
X171398736Y-104763483D01*
X171289140Y-104823772D01*
X171193412Y-104904284D01*
X171115230Y-105001924D01*
X171057599Y-105112941D01*
X171022734Y-105233067D01*
X171011974Y-105357688D01*
X166298313Y-105357688D01*
X167299011Y-104356990D01*
X183098128Y-104356990D01*
X183073000Y-104483321D01*
X183073000Y-104616679D01*
X183099016Y-104747474D01*
X183143026Y-104853724D01*
X183123000Y-104873750D01*
X183123000Y-105075568D01*
X183084770Y-105001924D01*
X183006588Y-104904284D01*
X182977000Y-104879399D01*
X182977000Y-104873750D01*
X182818250Y-104715000D01*
X182717987Y-104725734D01*
X182700000Y-104731428D01*
X182682013Y-104725734D01*
X182581750Y-104715000D01*
X182423000Y-104873750D01*
X182423000Y-104879399D01*
X182393412Y-104904284D01*
X182350000Y-104958500D01*
X182306588Y-104904284D01*
X182277000Y-104879399D01*
X182277000Y-104873750D01*
X182118250Y-104715000D01*
X182017987Y-104725734D01*
X182000000Y-104731428D01*
X181982013Y-104725734D01*
X181881750Y-104715000D01*
X181723000Y-104873750D01*
X181723000Y-104879399D01*
X181693412Y-104904284D01*
X181615230Y-105001924D01*
X181577000Y-105075568D01*
X181577000Y-104873750D01*
X181418250Y-104715000D01*
X181317987Y-104725734D01*
X181198736Y-104763483D01*
X181089140Y-104823772D01*
X180993412Y-104904284D01*
X180975000Y-104927278D01*
X180956588Y-104904284D01*
X180860860Y-104823772D01*
X180751264Y-104763483D01*
X180632013Y-104725734D01*
X180531750Y-104715000D01*
X180373000Y-104873750D01*
X180373000Y-105218369D01*
X180342401Y-105112941D01*
X180284770Y-105001924D01*
X180227000Y-104929776D01*
X180227000Y-104873750D01*
X180068250Y-104715000D01*
X179967987Y-104725734D01*
X179925000Y-104739342D01*
X179882013Y-104725734D01*
X179781750Y-104715000D01*
X179623000Y-104873750D01*
X179623000Y-104929776D01*
X179565230Y-105001924D01*
X179507599Y-105112941D01*
X179477000Y-105218369D01*
X179477000Y-104873750D01*
X179318250Y-104715000D01*
X179217987Y-104725734D01*
X179098736Y-104763483D01*
X178989140Y-104823772D01*
X178893412Y-104904284D01*
X178850000Y-104958500D01*
X178806588Y-104904284D01*
X178710860Y-104823772D01*
X178601264Y-104763483D01*
X178482013Y-104725734D01*
X178381750Y-104715000D01*
X178223000Y-104873750D01*
X178223000Y-106223000D01*
X178271176Y-106223000D01*
X178271176Y-106477000D01*
X178223000Y-106477000D01*
X178223000Y-106497000D01*
X178077000Y-106497000D01*
X178077000Y-106477000D01*
X178028824Y-106477000D01*
X178028824Y-106223000D01*
X178077000Y-106223000D01*
X178077000Y-104873750D01*
X177918250Y-104715000D01*
X177817987Y-104725734D01*
X177698736Y-104763483D01*
X177589140Y-104823772D01*
X177493412Y-104904284D01*
X177450000Y-104958500D01*
X177406588Y-104904284D01*
X177310860Y-104823772D01*
X177201264Y-104763483D01*
X177082013Y-104725734D01*
X176981750Y-104715000D01*
X176823000Y-104873750D01*
X176823000Y-106223000D01*
X176871176Y-106223000D01*
X176871176Y-106477000D01*
X176823000Y-106477000D01*
X176823000Y-106497000D01*
X176677000Y-106497000D01*
X176677000Y-106477000D01*
X176628824Y-106477000D01*
X176628824Y-106223000D01*
X176677000Y-106223000D01*
X176677000Y-104873750D01*
X176518250Y-104715000D01*
X176417987Y-104725734D01*
X176298736Y-104763483D01*
X176189140Y-104823772D01*
X176093412Y-104904284D01*
X176039850Y-104971176D01*
X175850000Y-104971176D01*
X175776095Y-104978455D01*
X175705030Y-105000012D01*
X175700000Y-105002701D01*
X175694970Y-105000012D01*
X175623905Y-104978455D01*
X175550000Y-104971176D01*
X175150000Y-104971176D01*
X175076095Y-104978455D01*
X175005030Y-105000012D01*
X175000000Y-105002701D01*
X174994970Y-105000012D01*
X174923905Y-104978455D01*
X174850000Y-104971176D01*
X174450000Y-104971176D01*
X174376095Y-104978455D01*
X174305030Y-105000012D01*
X174300000Y-105002701D01*
X174294970Y-105000012D01*
X174223905Y-104978455D01*
X174150000Y-104971176D01*
X173750000Y-104971176D01*
X173676095Y-104978455D01*
X173605030Y-105000012D01*
X173600000Y-105002701D01*
X173594970Y-105000012D01*
X173523905Y-104978455D01*
X173450000Y-104971176D01*
X173050000Y-104971176D01*
X172976095Y-104978455D01*
X172905030Y-105000012D01*
X172900000Y-105002701D01*
X172894970Y-105000012D01*
X172823905Y-104978455D01*
X172750000Y-104971176D01*
X172560150Y-104971176D01*
X172506588Y-104904284D01*
X172410860Y-104823772D01*
X172301264Y-104763483D01*
X172182013Y-104725734D01*
X172081750Y-104715000D01*
X171923000Y-104873750D01*
X171923000Y-106223000D01*
X171971176Y-106223000D01*
X171971176Y-106477000D01*
X171923000Y-106477000D01*
X171923000Y-106497000D01*
X171777000Y-106497000D01*
X171777000Y-106477000D01*
X171173750Y-106477000D01*
X171015000Y-106635750D01*
X171011974Y-107342312D01*
X171022734Y-107466933D01*
X171057599Y-107587059D01*
X171115230Y-107698076D01*
X171193412Y-107795716D01*
X171289140Y-107876228D01*
X171398736Y-107936517D01*
X171456259Y-107954726D01*
X171454041Y-107962037D01*
X171431349Y-108036840D01*
X171425613Y-108095088D01*
X171423173Y-108119868D01*
X171420210Y-108149951D01*
X171423000Y-108178282D01*
X171423001Y-109568432D01*
X171358701Y-109621201D01*
X171284385Y-109711756D01*
X171229164Y-109815068D01*
X171195158Y-109927169D01*
X171183676Y-110043750D01*
X171183676Y-110556250D01*
X171195158Y-110672831D01*
X171229164Y-110784932D01*
X171284385Y-110888244D01*
X171358701Y-110978799D01*
X171449256Y-111053115D01*
X171552568Y-111108336D01*
X171664669Y-111142342D01*
X171781250Y-111153824D01*
X172218750Y-111153824D01*
X172335331Y-111142342D01*
X172447432Y-111108336D01*
X172550744Y-111053115D01*
X172641299Y-110978799D01*
X172715615Y-110888244D01*
X172770836Y-110784932D01*
X172787500Y-110729999D01*
X172804164Y-110784932D01*
X172859385Y-110888244D01*
X172933701Y-110978799D01*
X173024256Y-111053115D01*
X173127568Y-111108336D01*
X173239669Y-111142342D01*
X173356250Y-111153824D01*
X173793750Y-111153824D01*
X173910331Y-111142342D01*
X174022432Y-111108336D01*
X174125744Y-111053115D01*
X174216299Y-110978799D01*
X174290615Y-110888244D01*
X174345836Y-110784932D01*
X174379842Y-110672831D01*
X174391324Y-110556250D01*
X174391324Y-110043750D01*
X174379842Y-109927169D01*
X174345836Y-109815068D01*
X174290615Y-109711756D01*
X174216299Y-109621201D01*
X174125744Y-109546885D01*
X174078550Y-109521659D01*
X174113244Y-109503115D01*
X174203799Y-109428799D01*
X174278115Y-109338244D01*
X174333336Y-109234932D01*
X174350000Y-109179999D01*
X174366664Y-109234932D01*
X174421885Y-109338244D01*
X174496201Y-109428799D01*
X174586756Y-109503115D01*
X174690068Y-109558336D01*
X174802169Y-109592342D01*
X174918750Y-109603824D01*
X175356250Y-109603824D01*
X175472831Y-109592342D01*
X175584932Y-109558336D01*
X175688244Y-109503115D01*
X175778799Y-109428799D01*
X175853115Y-109338244D01*
X175908336Y-109234932D01*
X175942342Y-109122831D01*
X175953824Y-109006250D01*
X175953824Y-108493750D01*
X175942342Y-108377169D01*
X175933190Y-108347001D01*
X177955706Y-108347001D01*
X177946177Y-108443749D01*
X177946177Y-108956249D01*
X177957659Y-109072830D01*
X177991665Y-109184931D01*
X178046886Y-109288243D01*
X178121202Y-109378798D01*
X178160501Y-109411049D01*
X178160501Y-109538946D01*
X178121200Y-109571199D01*
X178046884Y-109661754D01*
X177991663Y-109765066D01*
X177977267Y-109812522D01*
X177964981Y-109789537D01*
X177917869Y-109732131D01*
X177860463Y-109685019D01*
X177794970Y-109650012D01*
X177723905Y-109628455D01*
X177650000Y-109621176D01*
X176650000Y-109621176D01*
X176576095Y-109628455D01*
X176505030Y-109650012D01*
X176500000Y-109652701D01*
X176494970Y-109650012D01*
X176423905Y-109628455D01*
X176350000Y-109621176D01*
X175350000Y-109621176D01*
X175276095Y-109628455D01*
X175205030Y-109650012D01*
X175139537Y-109685019D01*
X175082131Y-109732131D01*
X175035019Y-109789537D01*
X175000012Y-109855030D01*
X174978455Y-109926095D01*
X174971176Y-110000000D01*
X174971176Y-110529980D01*
X174427565Y-111073592D01*
X174397921Y-111097920D01*
X174373593Y-111127564D01*
X174373591Y-111127566D01*
X174300823Y-111216234D01*
X174228673Y-111351217D01*
X174184244Y-111497682D01*
X174169241Y-111650000D01*
X174173001Y-111688173D01*
X174173001Y-112073000D01*
X173500653Y-112073000D01*
X173462497Y-112069242D01*
X173424341Y-112073000D01*
X173424332Y-112073000D01*
X173310179Y-112084243D01*
X173163714Y-112128673D01*
X173035996Y-112196940D01*
X172927166Y-112207659D01*
X172876594Y-112223000D01*
X172006058Y-112223000D01*
X171947432Y-112191664D01*
X171835331Y-112157658D01*
X171718750Y-112146176D01*
X171281250Y-112146176D01*
X171164669Y-112157658D01*
X171052568Y-112191664D01*
X170949256Y-112246885D01*
X170938557Y-112255666D01*
X170893037Y-112170506D01*
X170813685Y-112073815D01*
X170716994Y-111994463D01*
X170606680Y-111935498D01*
X170486982Y-111899188D01*
X170362500Y-111886928D01*
X170210750Y-111890000D01*
X170052000Y-112048750D01*
X170052000Y-112873000D01*
X170072000Y-112873000D01*
X170072000Y-113127000D01*
X170052000Y-113127000D01*
X170052000Y-113951250D01*
X170210750Y-114110000D01*
X170362500Y-114113072D01*
X170486982Y-114100812D01*
X170605195Y-114064952D01*
X170585019Y-114089537D01*
X170550012Y-114155030D01*
X170528455Y-114226095D01*
X170521176Y-114300000D01*
X170521176Y-115200000D01*
X170528455Y-115273905D01*
X170550012Y-115344970D01*
X170585019Y-115410463D01*
X170632131Y-115467869D01*
X170689537Y-115514981D01*
X170755030Y-115549988D01*
X170826095Y-115571545D01*
X170900000Y-115578824D01*
X172100000Y-115578824D01*
X172173905Y-115571545D01*
X172244970Y-115549988D01*
X172310463Y-115514981D01*
X172367869Y-115467869D01*
X172414981Y-115410463D01*
X172449988Y-115344970D01*
X172471545Y-115273905D01*
X172478824Y-115200000D01*
X172478824Y-114992616D01*
X172491661Y-115034933D01*
X172546882Y-115138245D01*
X172621198Y-115228800D01*
X172711753Y-115303116D01*
X172815065Y-115358337D01*
X172927166Y-115392343D01*
X173043747Y-115403825D01*
X173556247Y-115403825D01*
X173672828Y-115392343D01*
X173784929Y-115358337D01*
X173888241Y-115303116D01*
X173895937Y-115296800D01*
X173918510Y-115308866D01*
X174031988Y-115343289D01*
X174120434Y-115352000D01*
X174120443Y-115352000D01*
X174149999Y-115354911D01*
X174165004Y-115353433D01*
X174209537Y-115389981D01*
X174275030Y-115424988D01*
X174346095Y-115446545D01*
X174420000Y-115453824D01*
X175480000Y-115453824D01*
X175553905Y-115446545D01*
X175624970Y-115424988D01*
X175690463Y-115389981D01*
X175747869Y-115342869D01*
X175794981Y-115285463D01*
X175829988Y-115219970D01*
X175851545Y-115148905D01*
X175858824Y-115075000D01*
X175858824Y-114635570D01*
X175931185Y-114576185D01*
X176010537Y-114479494D01*
X176039665Y-114425000D01*
X176241176Y-114425000D01*
X176241176Y-115075000D01*
X176248455Y-115148905D01*
X176270012Y-115219970D01*
X176305019Y-115285463D01*
X176352131Y-115342869D01*
X176409537Y-115389981D01*
X176475030Y-115424988D01*
X176546095Y-115446545D01*
X176620000Y-115453824D01*
X177680000Y-115453824D01*
X177753905Y-115446545D01*
X177824970Y-115424988D01*
X177890463Y-115389981D01*
X177947869Y-115342869D01*
X177994981Y-115285463D01*
X178029988Y-115219970D01*
X178051545Y-115148905D01*
X178058824Y-115075000D01*
X178058824Y-114425000D01*
X178051545Y-114351095D01*
X178029988Y-114280030D01*
X177994981Y-114214537D01*
X177947869Y-114157131D01*
X177890463Y-114110019D01*
X177824970Y-114075012D01*
X177753905Y-114053455D01*
X177680000Y-114046176D01*
X176620000Y-114046176D01*
X176546095Y-114053455D01*
X176475030Y-114075012D01*
X176409537Y-114110019D01*
X176352131Y-114157131D01*
X176305019Y-114214537D01*
X176270012Y-114280030D01*
X176248455Y-114351095D01*
X176241176Y-114425000D01*
X176039665Y-114425000D01*
X176069502Y-114369180D01*
X176105812Y-114249482D01*
X176118072Y-114125000D01*
X176115000Y-114085750D01*
X175956250Y-113927000D01*
X175077000Y-113927000D01*
X175077000Y-113947000D01*
X174823000Y-113947000D01*
X174823000Y-113927000D01*
X173955398Y-113927000D01*
X173888241Y-113871886D01*
X173784929Y-113816665D01*
X173729996Y-113800001D01*
X173784929Y-113783337D01*
X173888241Y-113728116D01*
X173955401Y-113673000D01*
X174823000Y-113673000D01*
X174823000Y-113653000D01*
X175077000Y-113653000D01*
X175077000Y-113673000D01*
X175956250Y-113673000D01*
X176115000Y-113514250D01*
X176118072Y-113475000D01*
X176105812Y-113350518D01*
X176069502Y-113230820D01*
X176010537Y-113120506D01*
X175931185Y-113023815D01*
X175858824Y-112964430D01*
X175858824Y-112525000D01*
X175851545Y-112451095D01*
X175829988Y-112380030D01*
X175794981Y-112314537D01*
X175747869Y-112257131D01*
X175727000Y-112240004D01*
X175727000Y-111971843D01*
X175820019Y-111878824D01*
X176350000Y-111878824D01*
X176423905Y-111871545D01*
X176494970Y-111849988D01*
X176500000Y-111847299D01*
X176505030Y-111849988D01*
X176576095Y-111871545D01*
X176642781Y-111878113D01*
X176647035Y-111886071D01*
X176687135Y-111934932D01*
X176722264Y-111977737D01*
X176745228Y-111996584D01*
X176894820Y-112146176D01*
X176620000Y-112146176D01*
X176546095Y-112153455D01*
X176475030Y-112175012D01*
X176409537Y-112210019D01*
X176352131Y-112257131D01*
X176305019Y-112314537D01*
X176270012Y-112380030D01*
X176248455Y-112451095D01*
X176241176Y-112525000D01*
X176241176Y-113175000D01*
X176248455Y-113248905D01*
X176270012Y-113319970D01*
X176305019Y-113385463D01*
X176352131Y-113442869D01*
X176409537Y-113489981D01*
X176475030Y-113524988D01*
X176546095Y-113546545D01*
X176620000Y-113553824D01*
X177680000Y-113553824D01*
X177753905Y-113546545D01*
X177824970Y-113524988D01*
X177890463Y-113489981D01*
X177936743Y-113452000D01*
X178470444Y-113452000D01*
X178500000Y-113454911D01*
X178529556Y-113452000D01*
X178529566Y-113452000D01*
X178618012Y-113443289D01*
X178731490Y-113408866D01*
X178836071Y-113352966D01*
X178927737Y-113277737D01*
X178946588Y-113254767D01*
X179017621Y-113183734D01*
X179098570Y-113140466D01*
X179190237Y-113065237D01*
X179265466Y-112973571D01*
X179321366Y-112868990D01*
X179355789Y-112755512D01*
X179364500Y-112667066D01*
X179364500Y-112620209D01*
X179369463Y-112629494D01*
X179448815Y-112726185D01*
X179545506Y-112805537D01*
X179655820Y-112864502D01*
X179775518Y-112900812D01*
X179900000Y-112913072D01*
X180051750Y-112910000D01*
X180210500Y-112751250D01*
X180210500Y-111927000D01*
X180464500Y-111927000D01*
X180464500Y-112751250D01*
X180623250Y-112910000D01*
X180775000Y-112913072D01*
X180899482Y-112900812D01*
X181019180Y-112864502D01*
X181129494Y-112805537D01*
X181226185Y-112726185D01*
X181305537Y-112629494D01*
X181364502Y-112519180D01*
X181400812Y-112399482D01*
X181413072Y-112275000D01*
X181410000Y-112085750D01*
X181251250Y-111927000D01*
X180464500Y-111927000D01*
X180210500Y-111927000D01*
X180190500Y-111927000D01*
X180190500Y-111673000D01*
X180210500Y-111673000D01*
X180210500Y-110848750D01*
X180210499Y-110848749D01*
X180210499Y-110376998D01*
X180190499Y-110376998D01*
X180190499Y-110122998D01*
X180210499Y-110122998D01*
X180210499Y-109651251D01*
X180210501Y-109651249D01*
X180210501Y-108826999D01*
X180190501Y-108826999D01*
X180190501Y-108572999D01*
X180210501Y-108572999D01*
X180210501Y-108552999D01*
X180464501Y-108552999D01*
X180464501Y-108572999D01*
X180484501Y-108572999D01*
X180484501Y-108826999D01*
X180464501Y-108826999D01*
X180464501Y-109298746D01*
X180464499Y-109298748D01*
X180464499Y-110122998D01*
X181251249Y-110122998D01*
X181357098Y-110017149D01*
X181357658Y-110022831D01*
X181391664Y-110134932D01*
X181446885Y-110238244D01*
X181521201Y-110328799D01*
X181560500Y-110361050D01*
X181560499Y-110488949D01*
X181521200Y-110521201D01*
X181446884Y-110611756D01*
X181412284Y-110676489D01*
X181409999Y-110535748D01*
X181251249Y-110376998D01*
X180464499Y-110376998D01*
X180464499Y-111201248D01*
X180464500Y-111201249D01*
X180464500Y-111673000D01*
X181251250Y-111673000D01*
X181357098Y-111567152D01*
X181357657Y-111572831D01*
X181391663Y-111684932D01*
X181446884Y-111788244D01*
X181521200Y-111878799D01*
X181611755Y-111953115D01*
X181715067Y-112008336D01*
X181827168Y-112042342D01*
X181943749Y-112053824D01*
X182381249Y-112053824D01*
X182497830Y-112042342D01*
X182609931Y-112008336D01*
X182713243Y-111953115D01*
X182803798Y-111878799D01*
X182878114Y-111788244D01*
X182933335Y-111684932D01*
X182949999Y-111629999D01*
X182966663Y-111684932D01*
X183021884Y-111788244D01*
X183096200Y-111878799D01*
X183186755Y-111953115D01*
X183290067Y-112008336D01*
X183402168Y-112042342D01*
X183518749Y-112053824D01*
X183956249Y-112053824D01*
X184072830Y-112042342D01*
X184184931Y-112008336D01*
X184288243Y-111953115D01*
X184378798Y-111878799D01*
X184453114Y-111788244D01*
X184459124Y-111777000D01*
X184844973Y-111777000D01*
X184879320Y-111799950D01*
X185002526Y-111850984D01*
X185133321Y-111877000D01*
X185266679Y-111877000D01*
X185397474Y-111850984D01*
X185520680Y-111799950D01*
X185631563Y-111725860D01*
X185725860Y-111631563D01*
X185799950Y-111520680D01*
X185850984Y-111397474D01*
X185877000Y-111266679D01*
X185877000Y-111133321D01*
X185850984Y-111002526D01*
X185799950Y-110879320D01*
X185777000Y-110844973D01*
X185777000Y-107624432D01*
X185815230Y-107698076D01*
X185893412Y-107795716D01*
X185923000Y-107820601D01*
X185923000Y-107826250D01*
X186081750Y-107985000D01*
X186182013Y-107974266D01*
X186200000Y-107968572D01*
X186217987Y-107974266D01*
X186318250Y-107985000D01*
X186477000Y-107826250D01*
X186477000Y-107820601D01*
X186506588Y-107795716D01*
X186550000Y-107741500D01*
X186593412Y-107795716D01*
X186623000Y-107820601D01*
X186623000Y-107826250D01*
X186781750Y-107985000D01*
X186882013Y-107974266D01*
X186900000Y-107968572D01*
X186917987Y-107974266D01*
X187018250Y-107985000D01*
X187177000Y-107826250D01*
X187177000Y-107820601D01*
X187206588Y-107795716D01*
X187250000Y-107741500D01*
X187293412Y-107795716D01*
X187323000Y-107820601D01*
X187323000Y-107826250D01*
X187481750Y-107985000D01*
X187582013Y-107974266D01*
X187600000Y-107968572D01*
X187617987Y-107974266D01*
X187718250Y-107985000D01*
X187877000Y-107826250D01*
X187877000Y-107820601D01*
X187906588Y-107795716D01*
X187950000Y-107741500D01*
X187993412Y-107795716D01*
X188023000Y-107820601D01*
X188023000Y-107826250D01*
X188181750Y-107985000D01*
X188282013Y-107974266D01*
X188300000Y-107968572D01*
X188317987Y-107974266D01*
X188418250Y-107985000D01*
X188577000Y-107826250D01*
X188577000Y-107820601D01*
X188606588Y-107795716D01*
X188684770Y-107698076D01*
X188723000Y-107624432D01*
X188723000Y-107826250D01*
X188773000Y-107876250D01*
X188773001Y-110121659D01*
X188770210Y-110150000D01*
X188781349Y-110263111D01*
X188810031Y-110357658D01*
X188814344Y-110371876D01*
X188867922Y-110472115D01*
X188874221Y-110479790D01*
X188921963Y-110537964D01*
X188921966Y-110537967D01*
X188940027Y-110559974D01*
X188962034Y-110578035D01*
X190221961Y-111837962D01*
X190240026Y-111859974D01*
X190327885Y-111932079D01*
X190428124Y-111985657D01*
X190457154Y-111994463D01*
X190536888Y-112018651D01*
X190650000Y-112029791D01*
X190678339Y-112027000D01*
X191040875Y-112027000D01*
X191046885Y-112038244D01*
X191121201Y-112128799D01*
X191211756Y-112203115D01*
X191315068Y-112258336D01*
X191427169Y-112292342D01*
X191543750Y-112303824D01*
X191981250Y-112303824D01*
X192097831Y-112292342D01*
X192209932Y-112258336D01*
X192313244Y-112203115D01*
X192323943Y-112194334D01*
X192369463Y-112279494D01*
X192448815Y-112376185D01*
X192545506Y-112455537D01*
X192655820Y-112514502D01*
X192775518Y-112550812D01*
X192900000Y-112563072D01*
X193051750Y-112560000D01*
X193210500Y-112401250D01*
X193210500Y-111577000D01*
X193464500Y-111577000D01*
X193464500Y-112401250D01*
X193623250Y-112560000D01*
X193775000Y-112563072D01*
X193899482Y-112550812D01*
X194019180Y-112514502D01*
X194129494Y-112455537D01*
X194226185Y-112376185D01*
X194305537Y-112279494D01*
X194364502Y-112169180D01*
X194400812Y-112049482D01*
X194413072Y-111925000D01*
X194410000Y-111735750D01*
X194251250Y-111577000D01*
X193464500Y-111577000D01*
X193210500Y-111577000D01*
X193190500Y-111577000D01*
X193190500Y-111323000D01*
X193210500Y-111323000D01*
X193210500Y-110851251D01*
X193210501Y-110851250D01*
X193210501Y-110498750D01*
X193464500Y-110498750D01*
X193464500Y-111323000D01*
X194251250Y-111323000D01*
X194410000Y-111164250D01*
X194413072Y-110975000D01*
X194400812Y-110850518D01*
X194364502Y-110730820D01*
X194334666Y-110675001D01*
X194364503Y-110619180D01*
X194400813Y-110499482D01*
X194413073Y-110375000D01*
X194410001Y-110185750D01*
X194251251Y-110027000D01*
X193464501Y-110027000D01*
X193464501Y-110498749D01*
X193464500Y-110498750D01*
X193210501Y-110498750D01*
X193210501Y-110027000D01*
X193190501Y-110027000D01*
X193190501Y-109773000D01*
X193210501Y-109773000D01*
X193210501Y-108477001D01*
X193464501Y-108477001D01*
X193464501Y-109773000D01*
X194251251Y-109773000D01*
X194410001Y-109614250D01*
X194413073Y-109425000D01*
X194400813Y-109300518D01*
X194364503Y-109180820D01*
X194334666Y-109125001D01*
X194364503Y-109069181D01*
X194400813Y-108949483D01*
X194413073Y-108825001D01*
X194410001Y-108635751D01*
X194251251Y-108477001D01*
X193464501Y-108477001D01*
X193210501Y-108477001D01*
X193190501Y-108477001D01*
X193190501Y-108223001D01*
X193210501Y-108223001D01*
X193210501Y-107398751D01*
X193464501Y-107398751D01*
X193464501Y-108223001D01*
X194251251Y-108223001D01*
X194410001Y-108064251D01*
X194413073Y-107875001D01*
X194400813Y-107750519D01*
X194364503Y-107630821D01*
X194305538Y-107520507D01*
X194226186Y-107423816D01*
X194129495Y-107344464D01*
X194019181Y-107285499D01*
X193899483Y-107249189D01*
X193775001Y-107236929D01*
X193623251Y-107240001D01*
X193464501Y-107398751D01*
X193210501Y-107398751D01*
X193051751Y-107240001D01*
X192987582Y-107238702D01*
X192985000Y-106635750D01*
X192939250Y-106590000D01*
X199111928Y-106590000D01*
X199115000Y-107154250D01*
X199273750Y-107313000D01*
X200473000Y-107313000D01*
X200473000Y-106113750D01*
X200314250Y-105955000D01*
X199750000Y-105951928D01*
X199625518Y-105964188D01*
X199505820Y-106000498D01*
X199395506Y-106059463D01*
X199298815Y-106138815D01*
X199219463Y-106235506D01*
X199160498Y-106345820D01*
X199124188Y-106465518D01*
X199111928Y-106590000D01*
X192939250Y-106590000D01*
X192826250Y-106477000D01*
X192223000Y-106477000D01*
X192223000Y-106497000D01*
X192146250Y-106497000D01*
X192126250Y-106477000D01*
X192003000Y-106477000D01*
X192003000Y-106223000D01*
X192126250Y-106223000D01*
X192223000Y-106126250D01*
X192223000Y-106223000D01*
X192826250Y-106223000D01*
X192985000Y-106064250D01*
X192988026Y-105357688D01*
X192977266Y-105233067D01*
X192942401Y-105112941D01*
X192884770Y-105001924D01*
X192806588Y-104904284D01*
X192710860Y-104823772D01*
X192601264Y-104763483D01*
X192482013Y-104725734D01*
X192381750Y-104715000D01*
X192223000Y-104873750D01*
X192223000Y-105075568D01*
X192184770Y-105001924D01*
X192106588Y-104904284D01*
X192077000Y-104879399D01*
X192077000Y-104873750D01*
X191918250Y-104715000D01*
X191817987Y-104725734D01*
X191800000Y-104731428D01*
X191782013Y-104725734D01*
X191681750Y-104715000D01*
X191523000Y-104873750D01*
X191523000Y-104879399D01*
X191493412Y-104904284D01*
X191415230Y-105001924D01*
X191377000Y-105075568D01*
X191377000Y-104873750D01*
X191218250Y-104715000D01*
X191117987Y-104725734D01*
X190998736Y-104763483D01*
X190889140Y-104823772D01*
X190793412Y-104904284D01*
X190739850Y-104971176D01*
X190550000Y-104971176D01*
X190476095Y-104978455D01*
X190405030Y-105000012D01*
X190400000Y-105002701D01*
X190394970Y-105000012D01*
X190323905Y-104978455D01*
X190250000Y-104971176D01*
X189850000Y-104971176D01*
X189776095Y-104978455D01*
X189705030Y-105000012D01*
X189700000Y-105002701D01*
X189694970Y-105000012D01*
X189623905Y-104978455D01*
X189550000Y-104971176D01*
X189360150Y-104971176D01*
X189306588Y-104904284D01*
X189210860Y-104823772D01*
X189101264Y-104763483D01*
X188982013Y-104725734D01*
X188881750Y-104715000D01*
X188723000Y-104873750D01*
X188723000Y-105075568D01*
X188684770Y-105001924D01*
X188606588Y-104904284D01*
X188577000Y-104879399D01*
X188577000Y-104873750D01*
X188418250Y-104715000D01*
X188317987Y-104725734D01*
X188300000Y-104731428D01*
X188282013Y-104725734D01*
X188181750Y-104715000D01*
X188023000Y-104873750D01*
X188023000Y-104879399D01*
X187993412Y-104904284D01*
X187950000Y-104958500D01*
X187906588Y-104904284D01*
X187877000Y-104879399D01*
X187877000Y-104873750D01*
X187718250Y-104715000D01*
X187617987Y-104725734D01*
X187600000Y-104731428D01*
X187582013Y-104725734D01*
X187481750Y-104715000D01*
X187323000Y-104873750D01*
X187323000Y-104879399D01*
X187293412Y-104904284D01*
X187250000Y-104958500D01*
X187206588Y-104904284D01*
X187177000Y-104879399D01*
X187177000Y-104873750D01*
X187018250Y-104715000D01*
X186917987Y-104725734D01*
X186900000Y-104731428D01*
X186882013Y-104725734D01*
X186781750Y-104715000D01*
X186623000Y-104873750D01*
X186623000Y-104879399D01*
X186593412Y-104904284D01*
X186550000Y-104958500D01*
X186506588Y-104904284D01*
X186477000Y-104879399D01*
X186477000Y-104873750D01*
X186318250Y-104715000D01*
X186217987Y-104725734D01*
X186200000Y-104731428D01*
X186182013Y-104725734D01*
X186081750Y-104715000D01*
X185923000Y-104873750D01*
X185923000Y-104879399D01*
X185893412Y-104904284D01*
X185815230Y-105001924D01*
X185777000Y-105075568D01*
X185777000Y-104873750D01*
X185727000Y-104823750D01*
X185727000Y-104478328D01*
X185729790Y-104449999D01*
X185727000Y-104421670D01*
X185727000Y-104421664D01*
X185718650Y-104336888D01*
X185685657Y-104228124D01*
X185632079Y-104127885D01*
X185559974Y-104040026D01*
X185537968Y-104021966D01*
X184908029Y-103392028D01*
X184889964Y-103370016D01*
X184802105Y-103297911D01*
X184701866Y-103244333D01*
X184637760Y-103224887D01*
X184593101Y-103211339D01*
X184538035Y-103205916D01*
X184508326Y-103202990D01*
X184508321Y-103202990D01*
X184479990Y-103200200D01*
X184451659Y-103202990D01*
X167088341Y-103202990D01*
X167060010Y-103200200D01*
X167031679Y-103202990D01*
X167031674Y-103202990D01*
X167004896Y-103205627D01*
X166946898Y-103211339D01*
X166882792Y-103230786D01*
X166838134Y-103244333D01*
X166737895Y-103297911D01*
X166650036Y-103370016D01*
X166631971Y-103392028D01*
X163762105Y-106261894D01*
X163757903Y-106260153D01*
X163520849Y-106213000D01*
X163279151Y-106213000D01*
X163042097Y-106260153D01*
X162818798Y-106352647D01*
X162617833Y-106486927D01*
X162446927Y-106657833D01*
X162312647Y-106858798D01*
X162220153Y-107082097D01*
X162173000Y-107319151D01*
X161952000Y-107319151D01*
X161952000Y-104390792D01*
X161958468Y-104397260D01*
X162200379Y-104558900D01*
X162469176Y-104670239D01*
X162754529Y-104726999D01*
X163045473Y-104726999D01*
X163330826Y-104670239D01*
X163599623Y-104558900D01*
X163841534Y-104397260D01*
X164047262Y-104191532D01*
X164208902Y-103949621D01*
X164320241Y-103680824D01*
X164377001Y-103395471D01*
X164377001Y-103104527D01*
X164320241Y-102819174D01*
X164208902Y-102550377D01*
X164047262Y-102308466D01*
X163841534Y-102102738D01*
X163599623Y-101941098D01*
X163330826Y-101829759D01*
X163045473Y-101772999D01*
X162754529Y-101772999D01*
X162469176Y-101829759D01*
X162200379Y-101941098D01*
X161958468Y-102102738D01*
X161952000Y-102109206D01*
X161952000Y-100822109D01*
X161964563Y-100693978D01*
X161995353Y-100592001D01*
X162045366Y-100497939D01*
X162112694Y-100415387D01*
X162194774Y-100347485D01*
X162288481Y-100296818D01*
X162390245Y-100265316D01*
X162516938Y-100252000D01*
X173048001Y-100252000D01*
X173048000Y-101777795D01*
G36*
X183123000Y-107826250D02*
G01*
X183173000Y-107876250D01*
X183173001Y-108908174D01*
X183096201Y-108971201D01*
X183021885Y-109061756D01*
X182966664Y-109165068D01*
X182950000Y-109220001D01*
X182933336Y-109165068D01*
X182878115Y-109061756D01*
X182803799Y-108971201D01*
X182764500Y-108938949D01*
X182764500Y-108853058D01*
X182767411Y-108823502D01*
X182764500Y-108793945D01*
X182764500Y-108793936D01*
X182755789Y-108705490D01*
X182721366Y-108592012D01*
X182665466Y-108487431D01*
X182590237Y-108395765D01*
X182567273Y-108376919D01*
X182146802Y-107956448D01*
X182277000Y-107826250D01*
X182277000Y-107820601D01*
X182306588Y-107795716D01*
X182350000Y-107741500D01*
X182393412Y-107795716D01*
X182423000Y-107820601D01*
X182423000Y-107826250D01*
X182581750Y-107985000D01*
X182682013Y-107974266D01*
X182700000Y-107968572D01*
X182717987Y-107974266D01*
X182818250Y-107985000D01*
X182977000Y-107826250D01*
X182977000Y-107820601D01*
X183006588Y-107795716D01*
X183084770Y-107698076D01*
X183123000Y-107624432D01*
X183123000Y-107826250D01*
G37*
X183123000Y-107826250D02*
X183173000Y-107876250D01*
X183173001Y-108908174D01*
X183096201Y-108971201D01*
X183021885Y-109061756D01*
X182966664Y-109165068D01*
X182950000Y-109220001D01*
X182933336Y-109165068D01*
X182878115Y-109061756D01*
X182803799Y-108971201D01*
X182764500Y-108938949D01*
X182764500Y-108853058D01*
X182767411Y-108823502D01*
X182764500Y-108793945D01*
X182764500Y-108793936D01*
X182755789Y-108705490D01*
X182721366Y-108592012D01*
X182665466Y-108487431D01*
X182590237Y-108395765D01*
X182567273Y-108376919D01*
X182146802Y-107956448D01*
X182277000Y-107826250D01*
X182277000Y-107820601D01*
X182306588Y-107795716D01*
X182350000Y-107741500D01*
X182393412Y-107795716D01*
X182423000Y-107820601D01*
X182423000Y-107826250D01*
X182581750Y-107985000D01*
X182682013Y-107974266D01*
X182700000Y-107968572D01*
X182717987Y-107974266D01*
X182818250Y-107985000D01*
X182977000Y-107826250D01*
X182977000Y-107820601D01*
X183006588Y-107795716D01*
X183084770Y-107698076D01*
X183123000Y-107624432D01*
X183123000Y-107826250D01*
G36*
X187973750Y-106223000D02*
G01*
X188097000Y-106223000D01*
X188097000Y-106477000D01*
X187973750Y-106477000D01*
X187950000Y-106500750D01*
X187926250Y-106477000D01*
X187273750Y-106477000D01*
X187250000Y-106500750D01*
X187226250Y-106477000D01*
X186573750Y-106477000D01*
X186550000Y-106500750D01*
X186526250Y-106477000D01*
X186403000Y-106477000D01*
X186403000Y-106223000D01*
X186526250Y-106223000D01*
X186550000Y-106199250D01*
X186573750Y-106223000D01*
X187226250Y-106223000D01*
X187250000Y-106199250D01*
X187273750Y-106223000D01*
X187926250Y-106223000D01*
X187950000Y-106199250D01*
X187973750Y-106223000D01*
G37*
X187973750Y-106223000D02*
X188097000Y-106223000D01*
X188097000Y-106477000D01*
X187973750Y-106477000D01*
X187950000Y-106500750D01*
X187926250Y-106477000D01*
X187273750Y-106477000D01*
X187250000Y-106500750D01*
X187226250Y-106477000D01*
X186573750Y-106477000D01*
X186550000Y-106500750D01*
X186526250Y-106477000D01*
X186403000Y-106477000D01*
X186403000Y-106223000D01*
X186526250Y-106223000D01*
X186550000Y-106199250D01*
X186573750Y-106223000D01*
X187226250Y-106223000D01*
X187250000Y-106199250D01*
X187273750Y-106223000D01*
X187926250Y-106223000D01*
X187950000Y-106199250D01*
X187973750Y-106223000D01*
G36*
X182373750Y-106223000D02*
G01*
X182497000Y-106223000D01*
X182497000Y-106477000D01*
X182373750Y-106477000D01*
X182350000Y-106500750D01*
X182326250Y-106477000D01*
X182203000Y-106477000D01*
X182203000Y-106223000D01*
X182326250Y-106223000D01*
X182350000Y-106199250D01*
X182373750Y-106223000D01*
G37*
X182373750Y-106223000D02*
X182497000Y-106223000D01*
X182497000Y-106477000D01*
X182373750Y-106477000D01*
X182350000Y-106500750D01*
X182326250Y-106477000D01*
X182203000Y-106477000D01*
X182203000Y-106223000D01*
X182326250Y-106223000D01*
X182350000Y-106199250D01*
X182373750Y-106223000D01*
G36*
X179623000Y-106222250D02*
G01*
X179623000Y-106223000D01*
X179697000Y-106223000D01*
X179697000Y-106477000D01*
X179623000Y-106477000D01*
X179623000Y-106477750D01*
X179603750Y-106497000D01*
X179477000Y-106497000D01*
X179477000Y-106477000D01*
X179428824Y-106477000D01*
X179428824Y-106223000D01*
X179477000Y-106223000D01*
X179477000Y-106076250D01*
X179623000Y-106222250D01*
G37*
X179623000Y-106222250D02*
X179623000Y-106223000D01*
X179697000Y-106223000D01*
X179697000Y-106477000D01*
X179623000Y-106477000D01*
X179623000Y-106477750D01*
X179603750Y-106497000D01*
X179477000Y-106497000D01*
X179477000Y-106477000D01*
X179428824Y-106477000D01*
X179428824Y-106223000D01*
X179477000Y-106223000D01*
X179477000Y-106076250D01*
X179623000Y-106222250D01*
G36*
X183123000Y-106222998D02*
G01*
X183026252Y-106222998D01*
X183123000Y-106126250D01*
X183123000Y-106222998D01*
G37*
X183123000Y-106222998D02*
X183026252Y-106222998D01*
X183123000Y-106126250D01*
X183123000Y-106222998D01*
%TD*%
M02*
