%TF.GenerationSoftware,KiCad,Pcbnew,(5.1.6)-1*%
%TF.CreationDate,2020-09-28T23:29:11+08:00*%
%TF.ProjectId,Crenshaw,4372656e-7368-4617-972e-6b696361645f,rev?*%
%TF.SameCoordinates,Original*%
%TF.FileFunction,Copper,L2,Bot*%
%TF.FilePolarity,Positive*%
%FSLAX46Y46*%
G04 Gerber Fmt 4.6, Leading zero omitted, Abs format (unit mm)*
G04 Created by KiCad (PCBNEW (5.1.6)-1) date 2020-09-28 23:29:11*
%MOMM*%
%LPD*%
G01*
G04 APERTURE LIST*
%TA.AperFunction,ComponentPad*%
%ADD10O,1.700000X1.700000*%
%TD*%
%TA.AperFunction,ComponentPad*%
%ADD11R,1.700000X1.700000*%
%TD*%
%TA.AperFunction,ViaPad*%
%ADD12C,0.600000*%
%TD*%
%TA.AperFunction,Conductor*%
%ADD13C,0.800000*%
%TD*%
%TA.AperFunction,Conductor*%
%ADD14C,0.250000*%
%TD*%
%TA.AperFunction,Conductor*%
%ADD15C,0.400000*%
%TD*%
%TA.AperFunction,Conductor*%
%ADD16C,0.254000*%
%TD*%
G04 APERTURE END LIST*
D10*
%TO.P,J3,4*%
%TO.N,SDA*%
X200600000Y-115060000D03*
%TO.P,J3,3*%
%TO.N,SCL*%
X200600000Y-112520000D03*
%TO.P,J3,2*%
%TO.N,Net-(D1-Pad2)*%
X200600000Y-109980000D03*
D11*
%TO.P,J3,1*%
%TO.N,GND*%
X200600000Y-107440000D03*
%TD*%
D10*
%TO.P,J2,4*%
%TO.N,SDA*%
X163400000Y-107440000D03*
%TO.P,J2,3*%
%TO.N,SCL*%
X163400000Y-109980000D03*
%TO.P,J2,2*%
%TO.N,Net-(D1-Pad2)*%
X163400000Y-112520000D03*
D11*
%TO.P,J2,1*%
%TO.N,GND*%
X163400000Y-115060000D03*
%TD*%
D12*
%TO.N,GND*%
X176250000Y-113800000D03*
X177250000Y-119800000D03*
X196100000Y-104150000D03*
X167650000Y-107600000D03*
X165950000Y-102000000D03*
X183150000Y-114450000D03*
X165200000Y-120200000D03*
X168000000Y-112000000D03*
X188350000Y-111550000D03*
X197150000Y-113750000D03*
X184300000Y-120900000D03*
X191850000Y-118450000D03*
X198700000Y-120600000D03*
X198600000Y-101750000D03*
X180950000Y-102800000D03*
X171600000Y-119650000D03*
X183000000Y-108600000D03*
%TO.N,SDA*%
X185200000Y-111200000D03*
%TO.N,SCL*%
X183750000Y-104550000D03*
%TD*%
D13*
%TO.N,GND*%
X200600000Y-107440000D02*
X197990000Y-107440000D01*
X163400000Y-115060000D02*
X165990000Y-115060000D01*
X163400000Y-115060000D02*
X163400000Y-117500000D01*
X200600000Y-107440000D02*
X200600000Y-105250000D01*
D14*
%TO.N,SDA*%
X200600000Y-115060000D02*
X190060000Y-115060000D01*
D15*
X189060000Y-115060000D02*
X200600000Y-115060000D01*
X185200000Y-111200000D02*
X189060000Y-115060000D01*
%TO.N,SCL*%
X192630000Y-104550000D02*
X200600000Y-112520000D01*
X183750000Y-104550000D02*
X192630000Y-104550000D01*
X168830000Y-104550000D02*
X163400000Y-109980000D01*
X183750000Y-104550000D02*
X168830000Y-104550000D01*
%TD*%
D16*
%TO.N,GND*%
G36*
X173048000Y-101777795D02*
G01*
X173045813Y-101800000D01*
X173054540Y-101888607D01*
X173080386Y-101973810D01*
X173122357Y-102052333D01*
X173178841Y-102121159D01*
X173247667Y-102177643D01*
X173326190Y-102219614D01*
X173411393Y-102245460D01*
X173500000Y-102254187D01*
X173522205Y-102252000D01*
X190477795Y-102252000D01*
X190500000Y-102254187D01*
X190522205Y-102252000D01*
X190588607Y-102245460D01*
X190673810Y-102219614D01*
X190752333Y-102177643D01*
X190821159Y-102121159D01*
X190877643Y-102052333D01*
X190919614Y-101973810D01*
X190945460Y-101888607D01*
X190954187Y-101800000D01*
X190952000Y-101777795D01*
X190952000Y-100252000D01*
X201477891Y-100252000D01*
X201606022Y-100264563D01*
X201707999Y-100295353D01*
X201802061Y-100345366D01*
X201884613Y-100412694D01*
X201952515Y-100494774D01*
X202003182Y-100588481D01*
X202034684Y-100690245D01*
X202048000Y-100816938D01*
X202048000Y-102109204D01*
X202041533Y-102102737D01*
X201799622Y-101941097D01*
X201530825Y-101829758D01*
X201245472Y-101772998D01*
X200954528Y-101772998D01*
X200669175Y-101829758D01*
X200400378Y-101941097D01*
X200158467Y-102102737D01*
X199952739Y-102308465D01*
X199791099Y-102550376D01*
X199679760Y-102819173D01*
X199623000Y-103104526D01*
X199623000Y-103395470D01*
X199679760Y-103680823D01*
X199791099Y-103949620D01*
X199952739Y-104191531D01*
X200158467Y-104397259D01*
X200400378Y-104558899D01*
X200669175Y-104670238D01*
X200954528Y-104726998D01*
X201245472Y-104726998D01*
X201530825Y-104670238D01*
X201799622Y-104558899D01*
X202041533Y-104397259D01*
X202048000Y-104390792D01*
X202048000Y-106373835D01*
X202039502Y-106345820D01*
X201980537Y-106235506D01*
X201901185Y-106138815D01*
X201804494Y-106059463D01*
X201694180Y-106000498D01*
X201574482Y-105964188D01*
X201450000Y-105951928D01*
X200885750Y-105955000D01*
X200727000Y-106113750D01*
X200727000Y-107313000D01*
X200747000Y-107313000D01*
X200747000Y-107567000D01*
X200727000Y-107567000D01*
X200727000Y-107587000D01*
X200473000Y-107587000D01*
X200473000Y-107567000D01*
X199273750Y-107567000D01*
X199115000Y-107725750D01*
X199111928Y-108290000D01*
X199124188Y-108414482D01*
X199160498Y-108534180D01*
X199219463Y-108644494D01*
X199298815Y-108741185D01*
X199395506Y-108820537D01*
X199505820Y-108879502D01*
X199625518Y-108915812D01*
X199750000Y-108928072D01*
X199967553Y-108926888D01*
X199817833Y-109026927D01*
X199646927Y-109197833D01*
X199512647Y-109398798D01*
X199420153Y-109622097D01*
X199373000Y-109859151D01*
X199373000Y-110100849D01*
X199420153Y-110337903D01*
X199512647Y-110561202D01*
X199624290Y-110728288D01*
X195486002Y-106590000D01*
X199111928Y-106590000D01*
X199115000Y-107154250D01*
X199273750Y-107313000D01*
X200473000Y-107313000D01*
X200473000Y-106113750D01*
X200314250Y-105955000D01*
X199750000Y-105951928D01*
X199625518Y-105964188D01*
X199505820Y-106000498D01*
X199395506Y-106059463D01*
X199298815Y-106138815D01*
X199219463Y-106235506D01*
X199160498Y-106345820D01*
X199124188Y-106465518D01*
X199111928Y-106590000D01*
X195486002Y-106590000D01*
X193058039Y-104162038D01*
X193039974Y-104140026D01*
X192952115Y-104067921D01*
X192851876Y-104014343D01*
X192787770Y-103994897D01*
X192743111Y-103981349D01*
X192688045Y-103975926D01*
X192658336Y-103973000D01*
X192658331Y-103973000D01*
X192630000Y-103970210D01*
X192601669Y-103973000D01*
X184105027Y-103973000D01*
X184070680Y-103950050D01*
X183947474Y-103899016D01*
X183816679Y-103873000D01*
X183683321Y-103873000D01*
X183552526Y-103899016D01*
X183429320Y-103950050D01*
X183394973Y-103973000D01*
X168858339Y-103973000D01*
X168830000Y-103970209D01*
X168716888Y-103981349D01*
X168652782Y-104000796D01*
X168608124Y-104014343D01*
X168507885Y-104067921D01*
X168420026Y-104140026D01*
X168401961Y-104162038D01*
X164375708Y-108188291D01*
X164487353Y-108021202D01*
X164579847Y-107797903D01*
X164627000Y-107560849D01*
X164627000Y-107319151D01*
X164579847Y-107082097D01*
X164487353Y-106858798D01*
X164353073Y-106657833D01*
X164182167Y-106486927D01*
X163981202Y-106352647D01*
X163757903Y-106260153D01*
X163520849Y-106213000D01*
X163279151Y-106213000D01*
X163042097Y-106260153D01*
X162818798Y-106352647D01*
X162617833Y-106486927D01*
X162446927Y-106657833D01*
X162312647Y-106858798D01*
X162220153Y-107082097D01*
X162173000Y-107319151D01*
X162173000Y-107560849D01*
X162220153Y-107797903D01*
X162312647Y-108021202D01*
X162446927Y-108222167D01*
X162617833Y-108393073D01*
X162818798Y-108527353D01*
X163042097Y-108619847D01*
X163279151Y-108667000D01*
X163520849Y-108667000D01*
X163757903Y-108619847D01*
X163981202Y-108527353D01*
X164148291Y-108415708D01*
X163762105Y-108801894D01*
X163757903Y-108800153D01*
X163520849Y-108753000D01*
X163279151Y-108753000D01*
X163042097Y-108800153D01*
X162818798Y-108892647D01*
X162617833Y-109026927D01*
X162446927Y-109197833D01*
X162312647Y-109398798D01*
X162220153Y-109622097D01*
X162173000Y-109859151D01*
X162173000Y-110100849D01*
X162220153Y-110337903D01*
X162312647Y-110561202D01*
X162446927Y-110762167D01*
X162617833Y-110933073D01*
X162818798Y-111067353D01*
X163042097Y-111159847D01*
X163279151Y-111207000D01*
X163520849Y-111207000D01*
X163757903Y-111159847D01*
X163821942Y-111133321D01*
X184523000Y-111133321D01*
X184523000Y-111266679D01*
X184549016Y-111397474D01*
X184600050Y-111520680D01*
X184674140Y-111631563D01*
X184768437Y-111725860D01*
X184879320Y-111799950D01*
X185002526Y-111850984D01*
X185043042Y-111859043D01*
X188631961Y-115447962D01*
X188650026Y-115469974D01*
X188737885Y-115542079D01*
X188838124Y-115595657D01*
X188946888Y-115628650D01*
X189031664Y-115637000D01*
X189031670Y-115637000D01*
X189059999Y-115639790D01*
X189088328Y-115637000D01*
X199510906Y-115637000D01*
X199512647Y-115641202D01*
X199646927Y-115842167D01*
X199817833Y-116013073D01*
X200018798Y-116147353D01*
X200242097Y-116239847D01*
X200479151Y-116287000D01*
X200720849Y-116287000D01*
X200957903Y-116239847D01*
X201181202Y-116147353D01*
X201382167Y-116013073D01*
X201553073Y-115842167D01*
X201687353Y-115641202D01*
X201779847Y-115417903D01*
X201827000Y-115180849D01*
X201827000Y-114939151D01*
X201779847Y-114702097D01*
X201687353Y-114478798D01*
X201553073Y-114277833D01*
X201382167Y-114106927D01*
X201181202Y-113972647D01*
X200957903Y-113880153D01*
X200720849Y-113833000D01*
X200479151Y-113833000D01*
X200242097Y-113880153D01*
X200018798Y-113972647D01*
X199817833Y-114106927D01*
X199646927Y-114277833D01*
X199512647Y-114478798D01*
X199510906Y-114483000D01*
X189299001Y-114483000D01*
X185859043Y-111043042D01*
X185850984Y-111002526D01*
X185799950Y-110879320D01*
X185725860Y-110768437D01*
X185631563Y-110674140D01*
X185520680Y-110600050D01*
X185397474Y-110549016D01*
X185266679Y-110523000D01*
X185133321Y-110523000D01*
X185002526Y-110549016D01*
X184879320Y-110600050D01*
X184768437Y-110674140D01*
X184674140Y-110768437D01*
X184600050Y-110879320D01*
X184549016Y-111002526D01*
X184523000Y-111133321D01*
X163821942Y-111133321D01*
X163981202Y-111067353D01*
X164182167Y-110933073D01*
X164353073Y-110762167D01*
X164487353Y-110561202D01*
X164579847Y-110337903D01*
X164627000Y-110100849D01*
X164627000Y-109859151D01*
X164579847Y-109622097D01*
X164578106Y-109617895D01*
X169069001Y-105127000D01*
X183394973Y-105127000D01*
X183429320Y-105149950D01*
X183552526Y-105200984D01*
X183683321Y-105227000D01*
X183816679Y-105227000D01*
X183947474Y-105200984D01*
X184070680Y-105149950D01*
X184105027Y-105127000D01*
X192390999Y-105127000D01*
X199421893Y-112157895D01*
X199420153Y-112162097D01*
X199373000Y-112399151D01*
X199373000Y-112640849D01*
X199420153Y-112877903D01*
X199512647Y-113101202D01*
X199646927Y-113302167D01*
X199817833Y-113473073D01*
X200018798Y-113607353D01*
X200242097Y-113699847D01*
X200479151Y-113747000D01*
X200720849Y-113747000D01*
X200957903Y-113699847D01*
X201181202Y-113607353D01*
X201382167Y-113473073D01*
X201553073Y-113302167D01*
X201687353Y-113101202D01*
X201779847Y-112877903D01*
X201827000Y-112640849D01*
X201827000Y-112399151D01*
X201779847Y-112162097D01*
X201687353Y-111938798D01*
X201553073Y-111737833D01*
X201382167Y-111566927D01*
X201181202Y-111432647D01*
X200957903Y-111340153D01*
X200720849Y-111293000D01*
X200479151Y-111293000D01*
X200242097Y-111340153D01*
X200237895Y-111341893D01*
X199851712Y-110955710D01*
X200018798Y-111067353D01*
X200242097Y-111159847D01*
X200479151Y-111207000D01*
X200720849Y-111207000D01*
X200957903Y-111159847D01*
X201181202Y-111067353D01*
X201382167Y-110933073D01*
X201553073Y-110762167D01*
X201687353Y-110561202D01*
X201779847Y-110337903D01*
X201827000Y-110100849D01*
X201827000Y-109859151D01*
X201779847Y-109622097D01*
X201687353Y-109398798D01*
X201553073Y-109197833D01*
X201382167Y-109026927D01*
X201232447Y-108926888D01*
X201450000Y-108928072D01*
X201574482Y-108915812D01*
X201694180Y-108879502D01*
X201804494Y-108820537D01*
X201901185Y-108741185D01*
X201980537Y-108644494D01*
X202039502Y-108534180D01*
X202048000Y-108506165D01*
X202048001Y-118109209D01*
X202041533Y-118102741D01*
X201799622Y-117941101D01*
X201530825Y-117829762D01*
X201245472Y-117773002D01*
X200954528Y-117773002D01*
X200669175Y-117829762D01*
X200400378Y-117941101D01*
X200158467Y-118102741D01*
X199952739Y-118308469D01*
X199791099Y-118550380D01*
X199679760Y-118819177D01*
X199623000Y-119104530D01*
X199623000Y-119395474D01*
X199679760Y-119680827D01*
X199791099Y-119949624D01*
X199952739Y-120191535D01*
X200158467Y-120397263D01*
X200400378Y-120558903D01*
X200669175Y-120670242D01*
X200954528Y-120727002D01*
X201245472Y-120727002D01*
X201530825Y-120670242D01*
X201799622Y-120558903D01*
X202041533Y-120397263D01*
X202048001Y-120390795D01*
X202048001Y-122477881D01*
X202035436Y-122606023D01*
X202004648Y-122707999D01*
X201954634Y-122802061D01*
X201887307Y-122884612D01*
X201805227Y-122952515D01*
X201711520Y-123003182D01*
X201609755Y-123034684D01*
X201483062Y-123048000D01*
X162522109Y-123048000D01*
X162393977Y-123035436D01*
X162292001Y-123004648D01*
X162197939Y-122954634D01*
X162115388Y-122887307D01*
X162047485Y-122805227D01*
X161996818Y-122711520D01*
X161965316Y-122609755D01*
X161952000Y-122483062D01*
X161952000Y-120390794D01*
X161958468Y-120397262D01*
X162200379Y-120558902D01*
X162469176Y-120670241D01*
X162754529Y-120727001D01*
X163045473Y-120727001D01*
X163330826Y-120670241D01*
X163599623Y-120558902D01*
X163841534Y-120397262D01*
X164047262Y-120191534D01*
X164208902Y-119949623D01*
X164320241Y-119680826D01*
X164377001Y-119395473D01*
X164377001Y-119104529D01*
X164320241Y-118819176D01*
X164208902Y-118550379D01*
X164047262Y-118308468D01*
X163841534Y-118102740D01*
X163599623Y-117941100D01*
X163330826Y-117829761D01*
X163045473Y-117773001D01*
X162754529Y-117773001D01*
X162469176Y-117829761D01*
X162200379Y-117941100D01*
X161958468Y-118102740D01*
X161952000Y-118109208D01*
X161952000Y-116126166D01*
X161960498Y-116154180D01*
X162019463Y-116264494D01*
X162098815Y-116361185D01*
X162195506Y-116440537D01*
X162305820Y-116499502D01*
X162425518Y-116535812D01*
X162550000Y-116548072D01*
X163114250Y-116545000D01*
X163273000Y-116386250D01*
X163273000Y-115187000D01*
X163527000Y-115187000D01*
X163527000Y-116386250D01*
X163685750Y-116545000D01*
X164250000Y-116548072D01*
X164374482Y-116535812D01*
X164494180Y-116499502D01*
X164604494Y-116440537D01*
X164701185Y-116361185D01*
X164780537Y-116264494D01*
X164839502Y-116154180D01*
X164875812Y-116034482D01*
X164888072Y-115910000D01*
X164885000Y-115345750D01*
X164726250Y-115187000D01*
X163527000Y-115187000D01*
X163273000Y-115187000D01*
X163253000Y-115187000D01*
X163253000Y-114933000D01*
X163273000Y-114933000D01*
X163273000Y-114913000D01*
X163527000Y-114913000D01*
X163527000Y-114933000D01*
X164726250Y-114933000D01*
X164885000Y-114774250D01*
X164888072Y-114210000D01*
X164875812Y-114085518D01*
X164839502Y-113965820D01*
X164780537Y-113855506D01*
X164701185Y-113758815D01*
X164604494Y-113679463D01*
X164494180Y-113620498D01*
X164374482Y-113584188D01*
X164250000Y-113571928D01*
X164032447Y-113573112D01*
X164182167Y-113473073D01*
X164353073Y-113302167D01*
X164487353Y-113101202D01*
X164579847Y-112877903D01*
X164627000Y-112640849D01*
X164627000Y-112399151D01*
X164579847Y-112162097D01*
X164487353Y-111938798D01*
X164353073Y-111737833D01*
X164182167Y-111566927D01*
X163981202Y-111432647D01*
X163757903Y-111340153D01*
X163520849Y-111293000D01*
X163279151Y-111293000D01*
X163042097Y-111340153D01*
X162818798Y-111432647D01*
X162617833Y-111566927D01*
X162446927Y-111737833D01*
X162312647Y-111938798D01*
X162220153Y-112162097D01*
X162173000Y-112399151D01*
X162173000Y-112640849D01*
X162220153Y-112877903D01*
X162312647Y-113101202D01*
X162446927Y-113302167D01*
X162617833Y-113473073D01*
X162767553Y-113573112D01*
X162550000Y-113571928D01*
X162425518Y-113584188D01*
X162305820Y-113620498D01*
X162195506Y-113679463D01*
X162098815Y-113758815D01*
X162019463Y-113855506D01*
X161960498Y-113965820D01*
X161952000Y-113993834D01*
X161952000Y-104390792D01*
X161958468Y-104397260D01*
X162200379Y-104558900D01*
X162469176Y-104670239D01*
X162754529Y-104726999D01*
X163045473Y-104726999D01*
X163330826Y-104670239D01*
X163599623Y-104558900D01*
X163841534Y-104397260D01*
X164047262Y-104191532D01*
X164208902Y-103949621D01*
X164320241Y-103680824D01*
X164377001Y-103395471D01*
X164377001Y-103104527D01*
X164320241Y-102819174D01*
X164208902Y-102550377D01*
X164047262Y-102308466D01*
X163841534Y-102102738D01*
X163599623Y-101941098D01*
X163330826Y-101829759D01*
X163045473Y-101772999D01*
X162754529Y-101772999D01*
X162469176Y-101829759D01*
X162200379Y-101941098D01*
X161958468Y-102102738D01*
X161952000Y-102109206D01*
X161952000Y-100822109D01*
X161964563Y-100693978D01*
X161995353Y-100592001D01*
X162045366Y-100497939D01*
X162112694Y-100415387D01*
X162194774Y-100347485D01*
X162288481Y-100296818D01*
X162390245Y-100265316D01*
X162516938Y-100252000D01*
X173048001Y-100252000D01*
X173048000Y-101777795D01*
G37*
X173048000Y-101777795D02*
X173045813Y-101800000D01*
X173054540Y-101888607D01*
X173080386Y-101973810D01*
X173122357Y-102052333D01*
X173178841Y-102121159D01*
X173247667Y-102177643D01*
X173326190Y-102219614D01*
X173411393Y-102245460D01*
X173500000Y-102254187D01*
X173522205Y-102252000D01*
X190477795Y-102252000D01*
X190500000Y-102254187D01*
X190522205Y-102252000D01*
X190588607Y-102245460D01*
X190673810Y-102219614D01*
X190752333Y-102177643D01*
X190821159Y-102121159D01*
X190877643Y-102052333D01*
X190919614Y-101973810D01*
X190945460Y-101888607D01*
X190954187Y-101800000D01*
X190952000Y-101777795D01*
X190952000Y-100252000D01*
X201477891Y-100252000D01*
X201606022Y-100264563D01*
X201707999Y-100295353D01*
X201802061Y-100345366D01*
X201884613Y-100412694D01*
X201952515Y-100494774D01*
X202003182Y-100588481D01*
X202034684Y-100690245D01*
X202048000Y-100816938D01*
X202048000Y-102109204D01*
X202041533Y-102102737D01*
X201799622Y-101941097D01*
X201530825Y-101829758D01*
X201245472Y-101772998D01*
X200954528Y-101772998D01*
X200669175Y-101829758D01*
X200400378Y-101941097D01*
X200158467Y-102102737D01*
X199952739Y-102308465D01*
X199791099Y-102550376D01*
X199679760Y-102819173D01*
X199623000Y-103104526D01*
X199623000Y-103395470D01*
X199679760Y-103680823D01*
X199791099Y-103949620D01*
X199952739Y-104191531D01*
X200158467Y-104397259D01*
X200400378Y-104558899D01*
X200669175Y-104670238D01*
X200954528Y-104726998D01*
X201245472Y-104726998D01*
X201530825Y-104670238D01*
X201799622Y-104558899D01*
X202041533Y-104397259D01*
X202048000Y-104390792D01*
X202048000Y-106373835D01*
X202039502Y-106345820D01*
X201980537Y-106235506D01*
X201901185Y-106138815D01*
X201804494Y-106059463D01*
X201694180Y-106000498D01*
X201574482Y-105964188D01*
X201450000Y-105951928D01*
X200885750Y-105955000D01*
X200727000Y-106113750D01*
X200727000Y-107313000D01*
X200747000Y-107313000D01*
X200747000Y-107567000D01*
X200727000Y-107567000D01*
X200727000Y-107587000D01*
X200473000Y-107587000D01*
X200473000Y-107567000D01*
X199273750Y-107567000D01*
X199115000Y-107725750D01*
X199111928Y-108290000D01*
X199124188Y-108414482D01*
X199160498Y-108534180D01*
X199219463Y-108644494D01*
X199298815Y-108741185D01*
X199395506Y-108820537D01*
X199505820Y-108879502D01*
X199625518Y-108915812D01*
X199750000Y-108928072D01*
X199967553Y-108926888D01*
X199817833Y-109026927D01*
X199646927Y-109197833D01*
X199512647Y-109398798D01*
X199420153Y-109622097D01*
X199373000Y-109859151D01*
X199373000Y-110100849D01*
X199420153Y-110337903D01*
X199512647Y-110561202D01*
X199624290Y-110728288D01*
X195486002Y-106590000D01*
X199111928Y-106590000D01*
X199115000Y-107154250D01*
X199273750Y-107313000D01*
X200473000Y-107313000D01*
X200473000Y-106113750D01*
X200314250Y-105955000D01*
X199750000Y-105951928D01*
X199625518Y-105964188D01*
X199505820Y-106000498D01*
X199395506Y-106059463D01*
X199298815Y-106138815D01*
X199219463Y-106235506D01*
X199160498Y-106345820D01*
X199124188Y-106465518D01*
X199111928Y-106590000D01*
X195486002Y-106590000D01*
X193058039Y-104162038D01*
X193039974Y-104140026D01*
X192952115Y-104067921D01*
X192851876Y-104014343D01*
X192787770Y-103994897D01*
X192743111Y-103981349D01*
X192688045Y-103975926D01*
X192658336Y-103973000D01*
X192658331Y-103973000D01*
X192630000Y-103970210D01*
X192601669Y-103973000D01*
X184105027Y-103973000D01*
X184070680Y-103950050D01*
X183947474Y-103899016D01*
X183816679Y-103873000D01*
X183683321Y-103873000D01*
X183552526Y-103899016D01*
X183429320Y-103950050D01*
X183394973Y-103973000D01*
X168858339Y-103973000D01*
X168830000Y-103970209D01*
X168716888Y-103981349D01*
X168652782Y-104000796D01*
X168608124Y-104014343D01*
X168507885Y-104067921D01*
X168420026Y-104140026D01*
X168401961Y-104162038D01*
X164375708Y-108188291D01*
X164487353Y-108021202D01*
X164579847Y-107797903D01*
X164627000Y-107560849D01*
X164627000Y-107319151D01*
X164579847Y-107082097D01*
X164487353Y-106858798D01*
X164353073Y-106657833D01*
X164182167Y-106486927D01*
X163981202Y-106352647D01*
X163757903Y-106260153D01*
X163520849Y-106213000D01*
X163279151Y-106213000D01*
X163042097Y-106260153D01*
X162818798Y-106352647D01*
X162617833Y-106486927D01*
X162446927Y-106657833D01*
X162312647Y-106858798D01*
X162220153Y-107082097D01*
X162173000Y-107319151D01*
X162173000Y-107560849D01*
X162220153Y-107797903D01*
X162312647Y-108021202D01*
X162446927Y-108222167D01*
X162617833Y-108393073D01*
X162818798Y-108527353D01*
X163042097Y-108619847D01*
X163279151Y-108667000D01*
X163520849Y-108667000D01*
X163757903Y-108619847D01*
X163981202Y-108527353D01*
X164148291Y-108415708D01*
X163762105Y-108801894D01*
X163757903Y-108800153D01*
X163520849Y-108753000D01*
X163279151Y-108753000D01*
X163042097Y-108800153D01*
X162818798Y-108892647D01*
X162617833Y-109026927D01*
X162446927Y-109197833D01*
X162312647Y-109398798D01*
X162220153Y-109622097D01*
X162173000Y-109859151D01*
X162173000Y-110100849D01*
X162220153Y-110337903D01*
X162312647Y-110561202D01*
X162446927Y-110762167D01*
X162617833Y-110933073D01*
X162818798Y-111067353D01*
X163042097Y-111159847D01*
X163279151Y-111207000D01*
X163520849Y-111207000D01*
X163757903Y-111159847D01*
X163821942Y-111133321D01*
X184523000Y-111133321D01*
X184523000Y-111266679D01*
X184549016Y-111397474D01*
X184600050Y-111520680D01*
X184674140Y-111631563D01*
X184768437Y-111725860D01*
X184879320Y-111799950D01*
X185002526Y-111850984D01*
X185043042Y-111859043D01*
X188631961Y-115447962D01*
X188650026Y-115469974D01*
X188737885Y-115542079D01*
X188838124Y-115595657D01*
X188946888Y-115628650D01*
X189031664Y-115637000D01*
X189031670Y-115637000D01*
X189059999Y-115639790D01*
X189088328Y-115637000D01*
X199510906Y-115637000D01*
X199512647Y-115641202D01*
X199646927Y-115842167D01*
X199817833Y-116013073D01*
X200018798Y-116147353D01*
X200242097Y-116239847D01*
X200479151Y-116287000D01*
X200720849Y-116287000D01*
X200957903Y-116239847D01*
X201181202Y-116147353D01*
X201382167Y-116013073D01*
X201553073Y-115842167D01*
X201687353Y-115641202D01*
X201779847Y-115417903D01*
X201827000Y-115180849D01*
X201827000Y-114939151D01*
X201779847Y-114702097D01*
X201687353Y-114478798D01*
X201553073Y-114277833D01*
X201382167Y-114106927D01*
X201181202Y-113972647D01*
X200957903Y-113880153D01*
X200720849Y-113833000D01*
X200479151Y-113833000D01*
X200242097Y-113880153D01*
X200018798Y-113972647D01*
X199817833Y-114106927D01*
X199646927Y-114277833D01*
X199512647Y-114478798D01*
X199510906Y-114483000D01*
X189299001Y-114483000D01*
X185859043Y-111043042D01*
X185850984Y-111002526D01*
X185799950Y-110879320D01*
X185725860Y-110768437D01*
X185631563Y-110674140D01*
X185520680Y-110600050D01*
X185397474Y-110549016D01*
X185266679Y-110523000D01*
X185133321Y-110523000D01*
X185002526Y-110549016D01*
X184879320Y-110600050D01*
X184768437Y-110674140D01*
X184674140Y-110768437D01*
X184600050Y-110879320D01*
X184549016Y-111002526D01*
X184523000Y-111133321D01*
X163821942Y-111133321D01*
X163981202Y-111067353D01*
X164182167Y-110933073D01*
X164353073Y-110762167D01*
X164487353Y-110561202D01*
X164579847Y-110337903D01*
X164627000Y-110100849D01*
X164627000Y-109859151D01*
X164579847Y-109622097D01*
X164578106Y-109617895D01*
X169069001Y-105127000D01*
X183394973Y-105127000D01*
X183429320Y-105149950D01*
X183552526Y-105200984D01*
X183683321Y-105227000D01*
X183816679Y-105227000D01*
X183947474Y-105200984D01*
X184070680Y-105149950D01*
X184105027Y-105127000D01*
X192390999Y-105127000D01*
X199421893Y-112157895D01*
X199420153Y-112162097D01*
X199373000Y-112399151D01*
X199373000Y-112640849D01*
X199420153Y-112877903D01*
X199512647Y-113101202D01*
X199646927Y-113302167D01*
X199817833Y-113473073D01*
X200018798Y-113607353D01*
X200242097Y-113699847D01*
X200479151Y-113747000D01*
X200720849Y-113747000D01*
X200957903Y-113699847D01*
X201181202Y-113607353D01*
X201382167Y-113473073D01*
X201553073Y-113302167D01*
X201687353Y-113101202D01*
X201779847Y-112877903D01*
X201827000Y-112640849D01*
X201827000Y-112399151D01*
X201779847Y-112162097D01*
X201687353Y-111938798D01*
X201553073Y-111737833D01*
X201382167Y-111566927D01*
X201181202Y-111432647D01*
X200957903Y-111340153D01*
X200720849Y-111293000D01*
X200479151Y-111293000D01*
X200242097Y-111340153D01*
X200237895Y-111341893D01*
X199851712Y-110955710D01*
X200018798Y-111067353D01*
X200242097Y-111159847D01*
X200479151Y-111207000D01*
X200720849Y-111207000D01*
X200957903Y-111159847D01*
X201181202Y-111067353D01*
X201382167Y-110933073D01*
X201553073Y-110762167D01*
X201687353Y-110561202D01*
X201779847Y-110337903D01*
X201827000Y-110100849D01*
X201827000Y-109859151D01*
X201779847Y-109622097D01*
X201687353Y-109398798D01*
X201553073Y-109197833D01*
X201382167Y-109026927D01*
X201232447Y-108926888D01*
X201450000Y-108928072D01*
X201574482Y-108915812D01*
X201694180Y-108879502D01*
X201804494Y-108820537D01*
X201901185Y-108741185D01*
X201980537Y-108644494D01*
X202039502Y-108534180D01*
X202048000Y-108506165D01*
X202048001Y-118109209D01*
X202041533Y-118102741D01*
X201799622Y-117941101D01*
X201530825Y-117829762D01*
X201245472Y-117773002D01*
X200954528Y-117773002D01*
X200669175Y-117829762D01*
X200400378Y-117941101D01*
X200158467Y-118102741D01*
X199952739Y-118308469D01*
X199791099Y-118550380D01*
X199679760Y-118819177D01*
X199623000Y-119104530D01*
X199623000Y-119395474D01*
X199679760Y-119680827D01*
X199791099Y-119949624D01*
X199952739Y-120191535D01*
X200158467Y-120397263D01*
X200400378Y-120558903D01*
X200669175Y-120670242D01*
X200954528Y-120727002D01*
X201245472Y-120727002D01*
X201530825Y-120670242D01*
X201799622Y-120558903D01*
X202041533Y-120397263D01*
X202048001Y-120390795D01*
X202048001Y-122477881D01*
X202035436Y-122606023D01*
X202004648Y-122707999D01*
X201954634Y-122802061D01*
X201887307Y-122884612D01*
X201805227Y-122952515D01*
X201711520Y-123003182D01*
X201609755Y-123034684D01*
X201483062Y-123048000D01*
X162522109Y-123048000D01*
X162393977Y-123035436D01*
X162292001Y-123004648D01*
X162197939Y-122954634D01*
X162115388Y-122887307D01*
X162047485Y-122805227D01*
X161996818Y-122711520D01*
X161965316Y-122609755D01*
X161952000Y-122483062D01*
X161952000Y-120390794D01*
X161958468Y-120397262D01*
X162200379Y-120558902D01*
X162469176Y-120670241D01*
X162754529Y-120727001D01*
X163045473Y-120727001D01*
X163330826Y-120670241D01*
X163599623Y-120558902D01*
X163841534Y-120397262D01*
X164047262Y-120191534D01*
X164208902Y-119949623D01*
X164320241Y-119680826D01*
X164377001Y-119395473D01*
X164377001Y-119104529D01*
X164320241Y-118819176D01*
X164208902Y-118550379D01*
X164047262Y-118308468D01*
X163841534Y-118102740D01*
X163599623Y-117941100D01*
X163330826Y-117829761D01*
X163045473Y-117773001D01*
X162754529Y-117773001D01*
X162469176Y-117829761D01*
X162200379Y-117941100D01*
X161958468Y-118102740D01*
X161952000Y-118109208D01*
X161952000Y-116126166D01*
X161960498Y-116154180D01*
X162019463Y-116264494D01*
X162098815Y-116361185D01*
X162195506Y-116440537D01*
X162305820Y-116499502D01*
X162425518Y-116535812D01*
X162550000Y-116548072D01*
X163114250Y-116545000D01*
X163273000Y-116386250D01*
X163273000Y-115187000D01*
X163527000Y-115187000D01*
X163527000Y-116386250D01*
X163685750Y-116545000D01*
X164250000Y-116548072D01*
X164374482Y-116535812D01*
X164494180Y-116499502D01*
X164604494Y-116440537D01*
X164701185Y-116361185D01*
X164780537Y-116264494D01*
X164839502Y-116154180D01*
X164875812Y-116034482D01*
X164888072Y-115910000D01*
X164885000Y-115345750D01*
X164726250Y-115187000D01*
X163527000Y-115187000D01*
X163273000Y-115187000D01*
X163253000Y-115187000D01*
X163253000Y-114933000D01*
X163273000Y-114933000D01*
X163273000Y-114913000D01*
X163527000Y-114913000D01*
X163527000Y-114933000D01*
X164726250Y-114933000D01*
X164885000Y-114774250D01*
X164888072Y-114210000D01*
X164875812Y-114085518D01*
X164839502Y-113965820D01*
X164780537Y-113855506D01*
X164701185Y-113758815D01*
X164604494Y-113679463D01*
X164494180Y-113620498D01*
X164374482Y-113584188D01*
X164250000Y-113571928D01*
X164032447Y-113573112D01*
X164182167Y-113473073D01*
X164353073Y-113302167D01*
X164487353Y-113101202D01*
X164579847Y-112877903D01*
X164627000Y-112640849D01*
X164627000Y-112399151D01*
X164579847Y-112162097D01*
X164487353Y-111938798D01*
X164353073Y-111737833D01*
X164182167Y-111566927D01*
X163981202Y-111432647D01*
X163757903Y-111340153D01*
X163520849Y-111293000D01*
X163279151Y-111293000D01*
X163042097Y-111340153D01*
X162818798Y-111432647D01*
X162617833Y-111566927D01*
X162446927Y-111737833D01*
X162312647Y-111938798D01*
X162220153Y-112162097D01*
X162173000Y-112399151D01*
X162173000Y-112640849D01*
X162220153Y-112877903D01*
X162312647Y-113101202D01*
X162446927Y-113302167D01*
X162617833Y-113473073D01*
X162767553Y-113573112D01*
X162550000Y-113571928D01*
X162425518Y-113584188D01*
X162305820Y-113620498D01*
X162195506Y-113679463D01*
X162098815Y-113758815D01*
X162019463Y-113855506D01*
X161960498Y-113965820D01*
X161952000Y-113993834D01*
X161952000Y-104390792D01*
X161958468Y-104397260D01*
X162200379Y-104558900D01*
X162469176Y-104670239D01*
X162754529Y-104726999D01*
X163045473Y-104726999D01*
X163330826Y-104670239D01*
X163599623Y-104558900D01*
X163841534Y-104397260D01*
X164047262Y-104191532D01*
X164208902Y-103949621D01*
X164320241Y-103680824D01*
X164377001Y-103395471D01*
X164377001Y-103104527D01*
X164320241Y-102819174D01*
X164208902Y-102550377D01*
X164047262Y-102308466D01*
X163841534Y-102102738D01*
X163599623Y-101941098D01*
X163330826Y-101829759D01*
X163045473Y-101772999D01*
X162754529Y-101772999D01*
X162469176Y-101829759D01*
X162200379Y-101941098D01*
X161958468Y-102102738D01*
X161952000Y-102109206D01*
X161952000Y-100822109D01*
X161964563Y-100693978D01*
X161995353Y-100592001D01*
X162045366Y-100497939D01*
X162112694Y-100415387D01*
X162194774Y-100347485D01*
X162288481Y-100296818D01*
X162390245Y-100265316D01*
X162516938Y-100252000D01*
X173048001Y-100252000D01*
X173048000Y-101777795D01*
%TD*%
M02*
