M48
; DRILL file {KiCad (5.1.6)-1} date 09/28/20 23:29:12
; FORMAT={-:-/ absolute / inch / decimal}
; #@! TF.CreationDate,2020-09-28T23:29:12+08:00
; #@! TF.GenerationSoftware,Kicad,Pcbnew,(5.1.6)-1
; #@! TF.FileFunction,Plated,1,2,PTH
FMAT,2
INCH
T1C0.0157
T2C0.0394
%
G90
G05
T1
X6.5039Y-4.7323
X6.5335Y-4.0157
X6.6004Y-4.2362
X6.6142Y-4.4094
X6.7559Y-4.7106
X6.939Y-4.4803
X6.9783Y-4.7165
X7.124Y-4.0472
X7.2047Y-4.2756
X7.2106Y-4.5059
X7.2343Y-4.1161
X7.2559Y-4.7598
X7.2913Y-4.378
X7.4154Y-4.3917
X7.5531Y-4.6634
X7.7205Y-4.1004
X7.7618Y-4.4783
X7.8189Y-4.0059
X7.8228Y-4.748
T2
X7.8976Y-4.2299
X7.8976Y-4.3299
X7.8976Y-4.4299
X7.8976Y-4.5299
X6.4331Y-4.2299
X6.4331Y-4.3299
X6.4331Y-4.4299
X6.4331Y-4.5299
T0
M30
