M48
; DRILL file {KiCad (5.1.6)-1} date 09/30/20 17:33:40
; FORMAT={-:-/ absolute / inch / decimal}
; #@! TF.CreationDate,2020-09-30T17:33:40+08:00
; #@! TF.GenerationSoftware,Kicad,Pcbnew,(5.1.6)-1
; #@! TF.FileFunction,Plated,1,2,PTH
FMAT,2
INCH
T1C0.0157
T2C0.0394
%
G90
G05
T1
X6.5039Y-4.7323
X6.5335Y-4.0157
X6.5846Y-4.4803
X6.6004Y-4.2362
X6.6713Y-4.7913
X6.7323Y-4.0098
X6.8071Y-4.2028
X6.9646Y-4.4606
X6.9705Y-4.8169
X6.998Y-4.1969
X7.1004Y-4.6752
X7.124Y-4.0472
X7.2343Y-4.4114
X7.2559Y-4.7992
X7.2894Y-4.2114
X7.3228Y-4.6555
X7.3839Y-4.0551
X7.4154Y-4.5295
X7.435Y-4.7087
X7.4764Y-4.1949
X7.5551Y-4.7638
X7.5709Y-3.998
X7.6476Y-4.2815
X7.7126Y-4.624
X7.7205Y-4.1004
X7.7618Y-4.4783
X7.8189Y-4.0059
X7.8228Y-4.748
T2
X6.4331Y-4.2299
X6.4331Y-4.3299
X6.4331Y-4.4299
X6.4331Y-4.5299
X7.8976Y-4.2299
X7.8976Y-4.3299
X7.8976Y-4.4299
X7.8976Y-4.5299
T0
M30
