%TF.GenerationSoftware,KiCad,Pcbnew,(5.1.6)-1*%
%TF.CreationDate,2020-09-30T17:33:36+08:00*%
%TF.ProjectId,Crenshaw,4372656e-7368-4617-972e-6b696361645f,rev?*%
%TF.SameCoordinates,Original*%
%TF.FileFunction,Legend,Top*%
%TF.FilePolarity,Positive*%
%FSLAX46Y46*%
G04 Gerber Fmt 4.6, Leading zero omitted, Abs format (unit mm)*
G04 Created by KiCad (PCBNEW (5.1.6)-1) date 2020-09-30 17:33:36*
%MOMM*%
%LPD*%
G01*
G04 APERTURE LIST*
%ADD10C,0.080000*%
%ADD11C,0.010000*%
%ADD12C,0.150000*%
G04 APERTURE END LIST*
D10*
X179800000Y-120320000D02*
X179766666Y-120353333D01*
X179666666Y-120386666D01*
X179600000Y-120386666D01*
X179500000Y-120353333D01*
X179433333Y-120286666D01*
X179400000Y-120220000D01*
X179366666Y-120086666D01*
X179366666Y-119986666D01*
X179400000Y-119853333D01*
X179433333Y-119786666D01*
X179500000Y-119720000D01*
X179600000Y-119686666D01*
X179666666Y-119686666D01*
X179766666Y-119720000D01*
X179800000Y-119753333D01*
X180100000Y-120386666D02*
X180100000Y-119920000D01*
X180100000Y-120053333D02*
X180133333Y-119986666D01*
X180166666Y-119953333D01*
X180233333Y-119920000D01*
X180300000Y-119920000D01*
X180800000Y-120353333D02*
X180733333Y-120386666D01*
X180600000Y-120386666D01*
X180533333Y-120353333D01*
X180500000Y-120286666D01*
X180500000Y-120020000D01*
X180533333Y-119953333D01*
X180600000Y-119920000D01*
X180733333Y-119920000D01*
X180800000Y-119953333D01*
X180833333Y-120020000D01*
X180833333Y-120086666D01*
X180500000Y-120153333D01*
X181133333Y-119920000D02*
X181133333Y-120386666D01*
X181133333Y-119986666D02*
X181166666Y-119953333D01*
X181233333Y-119920000D01*
X181333333Y-119920000D01*
X181400000Y-119953333D01*
X181433333Y-120020000D01*
X181433333Y-120386666D01*
X181733333Y-120353333D02*
X181800000Y-120386666D01*
X181933333Y-120386666D01*
X182000000Y-120353333D01*
X182033333Y-120286666D01*
X182033333Y-120253333D01*
X182000000Y-120186666D01*
X181933333Y-120153333D01*
X181833333Y-120153333D01*
X181766666Y-120120000D01*
X181733333Y-120053333D01*
X181733333Y-120020000D01*
X181766666Y-119953333D01*
X181833333Y-119920000D01*
X181933333Y-119920000D01*
X182000000Y-119953333D01*
X182333333Y-120386666D02*
X182333333Y-119686666D01*
X182633333Y-120386666D02*
X182633333Y-120020000D01*
X182600000Y-119953333D01*
X182533333Y-119920000D01*
X182433333Y-119920000D01*
X182366666Y-119953333D01*
X182333333Y-119986666D01*
X183266666Y-120386666D02*
X183266666Y-120020000D01*
X183233333Y-119953333D01*
X183166666Y-119920000D01*
X183033333Y-119920000D01*
X182966666Y-119953333D01*
X183266666Y-120353333D02*
X183200000Y-120386666D01*
X183033333Y-120386666D01*
X182966666Y-120353333D01*
X182933333Y-120286666D01*
X182933333Y-120220000D01*
X182966666Y-120153333D01*
X183033333Y-120120000D01*
X183200000Y-120120000D01*
X183266666Y-120086666D01*
X183533333Y-119920000D02*
X183666666Y-120386666D01*
X183800000Y-120053333D01*
X183933333Y-120386666D01*
X184066666Y-119920000D01*
X184833333Y-120353333D02*
X184933333Y-120386666D01*
X185100000Y-120386666D01*
X185166666Y-120353333D01*
X185200000Y-120320000D01*
X185233333Y-120253333D01*
X185233333Y-120186666D01*
X185200000Y-120120000D01*
X185166666Y-120086666D01*
X185100000Y-120053333D01*
X184966666Y-120020000D01*
X184900000Y-119986666D01*
X184866666Y-119953333D01*
X184833333Y-119886666D01*
X184833333Y-119820000D01*
X184866666Y-119753333D01*
X184900000Y-119720000D01*
X184966666Y-119686666D01*
X185133333Y-119686666D01*
X185233333Y-119720000D01*
X185500000Y-120353333D02*
X185600000Y-120386666D01*
X185766666Y-120386666D01*
X185833333Y-120353333D01*
X185866666Y-120320000D01*
X185900000Y-120253333D01*
X185900000Y-120186666D01*
X185866666Y-120120000D01*
X185833333Y-120086666D01*
X185766666Y-120053333D01*
X185633333Y-120020000D01*
X185566666Y-119986666D01*
X185533333Y-119953333D01*
X185500000Y-119886666D01*
X185500000Y-119820000D01*
X185533333Y-119753333D01*
X185566666Y-119720000D01*
X185633333Y-119686666D01*
X185800000Y-119686666D01*
X185900000Y-119720000D01*
X186200000Y-120386666D02*
X186200000Y-119686666D01*
X186366666Y-119686666D01*
X186466666Y-119720000D01*
X186533333Y-119786666D01*
X186566666Y-119853333D01*
X186600000Y-119986666D01*
X186600000Y-120086666D01*
X186566666Y-120220000D01*
X186533333Y-120286666D01*
X186466666Y-120353333D01*
X186366666Y-120386666D01*
X186200000Y-120386666D01*
X187266666Y-120386666D02*
X186866666Y-120386666D01*
X187066666Y-120386666D02*
X187066666Y-119686666D01*
X187000000Y-119786666D01*
X186933333Y-119853333D01*
X186866666Y-119886666D01*
X187500000Y-119686666D02*
X187933333Y-119686666D01*
X187700000Y-119953333D01*
X187800000Y-119953333D01*
X187866666Y-119986666D01*
X187900000Y-120020000D01*
X187933333Y-120086666D01*
X187933333Y-120253333D01*
X187900000Y-120320000D01*
X187866666Y-120353333D01*
X187800000Y-120386666D01*
X187600000Y-120386666D01*
X187533333Y-120353333D01*
X187500000Y-120320000D01*
X188366666Y-119686666D02*
X188433333Y-119686666D01*
X188500000Y-119720000D01*
X188533333Y-119753333D01*
X188566666Y-119820000D01*
X188600000Y-119953333D01*
X188600000Y-120120000D01*
X188566666Y-120253333D01*
X188533333Y-120320000D01*
X188500000Y-120353333D01*
X188433333Y-120386666D01*
X188366666Y-120386666D01*
X188300000Y-120353333D01*
X188266666Y-120320000D01*
X188233333Y-120253333D01*
X188200000Y-120120000D01*
X188200000Y-119953333D01*
X188233333Y-119820000D01*
X188266666Y-119753333D01*
X188300000Y-119720000D01*
X188366666Y-119686666D01*
X189200000Y-119686666D02*
X189066666Y-119686666D01*
X189000000Y-119720000D01*
X188966666Y-119753333D01*
X188900000Y-119853333D01*
X188866666Y-119986666D01*
X188866666Y-120253333D01*
X188900000Y-120320000D01*
X188933333Y-120353333D01*
X189000000Y-120386666D01*
X189133333Y-120386666D01*
X189200000Y-120353333D01*
X189233333Y-120320000D01*
X189266666Y-120253333D01*
X189266666Y-120086666D01*
X189233333Y-120020000D01*
X189200000Y-119986666D01*
X189133333Y-119953333D01*
X189000000Y-119953333D01*
X188933333Y-119986666D01*
X188900000Y-120020000D01*
X188866666Y-120086666D01*
X190466666Y-120386666D02*
X190066666Y-120386666D01*
X190266666Y-120386666D02*
X190266666Y-119686666D01*
X190200000Y-119786666D01*
X190133333Y-119853333D01*
X190066666Y-119886666D01*
X190766666Y-120320000D02*
X190800000Y-120353333D01*
X190766666Y-120386666D01*
X190733333Y-120353333D01*
X190766666Y-120320000D01*
X190766666Y-120386666D01*
X191033333Y-119686666D02*
X191466666Y-119686666D01*
X191233333Y-119953333D01*
X191333333Y-119953333D01*
X191400000Y-119986666D01*
X191433333Y-120020000D01*
X191466666Y-120086666D01*
X191466666Y-120253333D01*
X191433333Y-120320000D01*
X191400000Y-120353333D01*
X191333333Y-120386666D01*
X191133333Y-120386666D01*
X191066666Y-120353333D01*
X191033333Y-120320000D01*
X191733333Y-119686666D02*
X191733333Y-119820000D01*
X192000000Y-119686666D02*
X192000000Y-119820000D01*
X193200000Y-120386666D02*
X192800000Y-120386666D01*
X193000000Y-120386666D02*
X193000000Y-119686666D01*
X192933333Y-119786666D01*
X192866666Y-119853333D01*
X192800000Y-119886666D01*
X193466666Y-119753333D02*
X193500000Y-119720000D01*
X193566666Y-119686666D01*
X193733333Y-119686666D01*
X193800000Y-119720000D01*
X193833333Y-119753333D01*
X193866666Y-119820000D01*
X193866666Y-119886666D01*
X193833333Y-119986666D01*
X193433333Y-120386666D01*
X193866666Y-120386666D01*
X194266666Y-119986666D02*
X194200000Y-119953333D01*
X194166666Y-119920000D01*
X194133333Y-119853333D01*
X194133333Y-119820000D01*
X194166666Y-119753333D01*
X194200000Y-119720000D01*
X194266666Y-119686666D01*
X194400000Y-119686666D01*
X194466666Y-119720000D01*
X194500000Y-119753333D01*
X194533333Y-119820000D01*
X194533333Y-119853333D01*
X194500000Y-119920000D01*
X194466666Y-119953333D01*
X194400000Y-119986666D01*
X194266666Y-119986666D01*
X194200000Y-120020000D01*
X194166666Y-120053333D01*
X194133333Y-120120000D01*
X194133333Y-120253333D01*
X194166666Y-120320000D01*
X194200000Y-120353333D01*
X194266666Y-120386666D01*
X194400000Y-120386666D01*
X194466666Y-120353333D01*
X194500000Y-120320000D01*
X194533333Y-120253333D01*
X194533333Y-120120000D01*
X194500000Y-120053333D01*
X194466666Y-120020000D01*
X194400000Y-119986666D01*
X194766666Y-120386666D02*
X195133333Y-119920000D01*
X194766666Y-119920000D02*
X195133333Y-120386666D01*
X195700000Y-119686666D02*
X195566666Y-119686666D01*
X195500000Y-119720000D01*
X195466666Y-119753333D01*
X195400000Y-119853333D01*
X195366666Y-119986666D01*
X195366666Y-120253333D01*
X195400000Y-120320000D01*
X195433333Y-120353333D01*
X195500000Y-120386666D01*
X195633333Y-120386666D01*
X195700000Y-120353333D01*
X195733333Y-120320000D01*
X195766666Y-120253333D01*
X195766666Y-120086666D01*
X195733333Y-120020000D01*
X195700000Y-119986666D01*
X195633333Y-119953333D01*
X195500000Y-119953333D01*
X195433333Y-119986666D01*
X195400000Y-120020000D01*
X195366666Y-120086666D01*
X196366666Y-119920000D02*
X196366666Y-120386666D01*
X196200000Y-119653333D02*
X196033333Y-120153333D01*
X196466666Y-120153333D01*
X180500000Y-120816666D02*
X180633333Y-120816666D01*
X180700000Y-120850000D01*
X180766666Y-120916666D01*
X180800000Y-121050000D01*
X180800000Y-121283333D01*
X180766666Y-121416666D01*
X180700000Y-121483333D01*
X180633333Y-121516666D01*
X180500000Y-121516666D01*
X180433333Y-121483333D01*
X180366666Y-121416666D01*
X180333333Y-121283333D01*
X180333333Y-121050000D01*
X180366666Y-120916666D01*
X180433333Y-120850000D01*
X180500000Y-120816666D01*
X181433333Y-121516666D02*
X181100000Y-121516666D01*
X181100000Y-120816666D01*
X181666666Y-121150000D02*
X181900000Y-121150000D01*
X182000000Y-121516666D02*
X181666666Y-121516666D01*
X181666666Y-120816666D01*
X182000000Y-120816666D01*
X182300000Y-121516666D02*
X182300000Y-120816666D01*
X182466666Y-120816666D01*
X182566666Y-120850000D01*
X182633333Y-120916666D01*
X182666666Y-120983333D01*
X182700000Y-121116666D01*
X182700000Y-121216666D01*
X182666666Y-121350000D01*
X182633333Y-121416666D01*
X182566666Y-121483333D01*
X182466666Y-121516666D01*
X182300000Y-121516666D01*
X183500000Y-121483333D02*
X183600000Y-121516666D01*
X183766666Y-121516666D01*
X183833333Y-121483333D01*
X183866666Y-121450000D01*
X183900000Y-121383333D01*
X183900000Y-121316666D01*
X183866666Y-121250000D01*
X183833333Y-121216666D01*
X183766666Y-121183333D01*
X183633333Y-121150000D01*
X183566666Y-121116666D01*
X183533333Y-121083333D01*
X183500000Y-121016666D01*
X183500000Y-120950000D01*
X183533333Y-120883333D01*
X183566666Y-120850000D01*
X183633333Y-120816666D01*
X183800000Y-120816666D01*
X183900000Y-120850000D01*
X184500000Y-121483333D02*
X184433333Y-121516666D01*
X184300000Y-121516666D01*
X184233333Y-121483333D01*
X184200000Y-121450000D01*
X184166666Y-121383333D01*
X184166666Y-121183333D01*
X184200000Y-121116666D01*
X184233333Y-121083333D01*
X184300000Y-121050000D01*
X184433333Y-121050000D01*
X184500000Y-121083333D01*
X184800000Y-121516666D02*
X184800000Y-121050000D01*
X184800000Y-121183333D02*
X184833333Y-121116666D01*
X184866666Y-121083333D01*
X184933333Y-121050000D01*
X185000000Y-121050000D01*
X185500000Y-121483333D02*
X185433333Y-121516666D01*
X185300000Y-121516666D01*
X185233333Y-121483333D01*
X185200000Y-121416666D01*
X185200000Y-121150000D01*
X185233333Y-121083333D01*
X185300000Y-121050000D01*
X185433333Y-121050000D01*
X185500000Y-121083333D01*
X185533333Y-121150000D01*
X185533333Y-121216666D01*
X185200000Y-121283333D01*
X186100000Y-121483333D02*
X186033333Y-121516666D01*
X185900000Y-121516666D01*
X185833333Y-121483333D01*
X185800000Y-121416666D01*
X185800000Y-121150000D01*
X185833333Y-121083333D01*
X185900000Y-121050000D01*
X186033333Y-121050000D01*
X186100000Y-121083333D01*
X186133333Y-121150000D01*
X186133333Y-121216666D01*
X185800000Y-121283333D01*
X186433333Y-121050000D02*
X186433333Y-121516666D01*
X186433333Y-121116666D02*
X186466666Y-121083333D01*
X186533333Y-121050000D01*
X186633333Y-121050000D01*
X186700000Y-121083333D01*
X186733333Y-121150000D01*
X186733333Y-121516666D01*
X187833333Y-121150000D02*
X187933333Y-121183333D01*
X187966666Y-121216666D01*
X188000000Y-121283333D01*
X188000000Y-121383333D01*
X187966666Y-121450000D01*
X187933333Y-121483333D01*
X187866666Y-121516666D01*
X187600000Y-121516666D01*
X187600000Y-120816666D01*
X187833333Y-120816666D01*
X187900000Y-120850000D01*
X187933333Y-120883333D01*
X187966666Y-120950000D01*
X187966666Y-121016666D01*
X187933333Y-121083333D01*
X187900000Y-121116666D01*
X187833333Y-121150000D01*
X187600000Y-121150000D01*
X188300000Y-121516666D02*
X188300000Y-121050000D01*
X188300000Y-121183333D02*
X188333333Y-121116666D01*
X188366666Y-121083333D01*
X188433333Y-121050000D01*
X188500000Y-121050000D01*
X189000000Y-121483333D02*
X188933333Y-121516666D01*
X188800000Y-121516666D01*
X188733333Y-121483333D01*
X188700000Y-121416666D01*
X188700000Y-121150000D01*
X188733333Y-121083333D01*
X188800000Y-121050000D01*
X188933333Y-121050000D01*
X189000000Y-121083333D01*
X189033333Y-121150000D01*
X189033333Y-121216666D01*
X188700000Y-121283333D01*
X189633333Y-121516666D02*
X189633333Y-121150000D01*
X189600000Y-121083333D01*
X189533333Y-121050000D01*
X189400000Y-121050000D01*
X189333333Y-121083333D01*
X189633333Y-121483333D02*
X189566666Y-121516666D01*
X189400000Y-121516666D01*
X189333333Y-121483333D01*
X189300000Y-121416666D01*
X189300000Y-121350000D01*
X189333333Y-121283333D01*
X189400000Y-121250000D01*
X189566666Y-121250000D01*
X189633333Y-121216666D01*
X189966666Y-121516666D02*
X189966666Y-120816666D01*
X190033333Y-121250000D02*
X190233333Y-121516666D01*
X190233333Y-121050000D02*
X189966666Y-121316666D01*
X190633333Y-121516666D02*
X190566666Y-121483333D01*
X190533333Y-121450000D01*
X190500000Y-121383333D01*
X190500000Y-121183333D01*
X190533333Y-121116666D01*
X190566666Y-121083333D01*
X190633333Y-121050000D01*
X190733333Y-121050000D01*
X190800000Y-121083333D01*
X190833333Y-121116666D01*
X190866666Y-121183333D01*
X190866666Y-121383333D01*
X190833333Y-121450000D01*
X190800000Y-121483333D01*
X190733333Y-121516666D01*
X190633333Y-121516666D01*
X191466666Y-121050000D02*
X191466666Y-121516666D01*
X191166666Y-121050000D02*
X191166666Y-121416666D01*
X191200000Y-121483333D01*
X191266666Y-121516666D01*
X191366666Y-121516666D01*
X191433333Y-121483333D01*
X191466666Y-121450000D01*
X191700000Y-121050000D02*
X191966666Y-121050000D01*
X191800000Y-120816666D02*
X191800000Y-121416666D01*
X191833333Y-121483333D01*
X191900000Y-121516666D01*
X191966666Y-121516666D01*
X192966666Y-121150000D02*
X193066666Y-121183333D01*
X193100000Y-121216666D01*
X193133333Y-121283333D01*
X193133333Y-121383333D01*
X193100000Y-121450000D01*
X193066666Y-121483333D01*
X193000000Y-121516666D01*
X192733333Y-121516666D01*
X192733333Y-120816666D01*
X192966666Y-120816666D01*
X193033333Y-120850000D01*
X193066666Y-120883333D01*
X193100000Y-120950000D01*
X193100000Y-121016666D01*
X193066666Y-121083333D01*
X193033333Y-121116666D01*
X192966666Y-121150000D01*
X192733333Y-121150000D01*
X193533333Y-121516666D02*
X193466666Y-121483333D01*
X193433333Y-121450000D01*
X193400000Y-121383333D01*
X193400000Y-121183333D01*
X193433333Y-121116666D01*
X193466666Y-121083333D01*
X193533333Y-121050000D01*
X193633333Y-121050000D01*
X193700000Y-121083333D01*
X193733333Y-121116666D01*
X193766666Y-121183333D01*
X193766666Y-121383333D01*
X193733333Y-121450000D01*
X193700000Y-121483333D01*
X193633333Y-121516666D01*
X193533333Y-121516666D01*
X194366666Y-121516666D02*
X194366666Y-121150000D01*
X194333333Y-121083333D01*
X194266666Y-121050000D01*
X194133333Y-121050000D01*
X194066666Y-121083333D01*
X194366666Y-121483333D02*
X194300000Y-121516666D01*
X194133333Y-121516666D01*
X194066666Y-121483333D01*
X194033333Y-121416666D01*
X194033333Y-121350000D01*
X194066666Y-121283333D01*
X194133333Y-121250000D01*
X194300000Y-121250000D01*
X194366666Y-121216666D01*
X194700000Y-121516666D02*
X194700000Y-121050000D01*
X194700000Y-121183333D02*
X194733333Y-121116666D01*
X194766666Y-121083333D01*
X194833333Y-121050000D01*
X194900000Y-121050000D01*
X195433333Y-121516666D02*
X195433333Y-120816666D01*
X195433333Y-121483333D02*
X195366666Y-121516666D01*
X195233333Y-121516666D01*
X195166666Y-121483333D01*
X195133333Y-121450000D01*
X195100000Y-121383333D01*
X195100000Y-121183333D01*
X195133333Y-121116666D01*
X195166666Y-121083333D01*
X195233333Y-121050000D01*
X195366666Y-121050000D01*
X195433333Y-121083333D01*
X182100000Y-121946666D02*
X182333333Y-122646666D01*
X182566666Y-121946666D01*
X183166666Y-122646666D02*
X182766666Y-122646666D01*
X182966666Y-122646666D02*
X182966666Y-121946666D01*
X182900000Y-122046666D01*
X182833333Y-122113333D01*
X182766666Y-122146666D01*
X183466666Y-122580000D02*
X183500000Y-122613333D01*
X183466666Y-122646666D01*
X183433333Y-122613333D01*
X183466666Y-122580000D01*
X183466666Y-122646666D01*
X184166666Y-122646666D02*
X183766666Y-122646666D01*
X183966666Y-122646666D02*
X183966666Y-121946666D01*
X183900000Y-122046666D01*
X183833333Y-122113333D01*
X183766666Y-122146666D01*
X185000000Y-122646666D02*
X185000000Y-121946666D01*
X185166666Y-121946666D01*
X185266666Y-121980000D01*
X185333333Y-122046666D01*
X185366666Y-122113333D01*
X185400000Y-122246666D01*
X185400000Y-122346666D01*
X185366666Y-122480000D01*
X185333333Y-122546666D01*
X185266666Y-122613333D01*
X185166666Y-122646666D01*
X185000000Y-122646666D01*
X185966666Y-122613333D02*
X185900000Y-122646666D01*
X185766666Y-122646666D01*
X185700000Y-122613333D01*
X185666666Y-122546666D01*
X185666666Y-122280000D01*
X185700000Y-122213333D01*
X185766666Y-122180000D01*
X185900000Y-122180000D01*
X185966666Y-122213333D01*
X186000000Y-122280000D01*
X186000000Y-122346666D01*
X185666666Y-122413333D01*
X186266666Y-122613333D02*
X186333333Y-122646666D01*
X186466666Y-122646666D01*
X186533333Y-122613333D01*
X186566666Y-122546666D01*
X186566666Y-122513333D01*
X186533333Y-122446666D01*
X186466666Y-122413333D01*
X186366666Y-122413333D01*
X186300000Y-122380000D01*
X186266666Y-122313333D01*
X186266666Y-122280000D01*
X186300000Y-122213333D01*
X186366666Y-122180000D01*
X186466666Y-122180000D01*
X186533333Y-122213333D01*
X186866666Y-122646666D02*
X186866666Y-122180000D01*
X186866666Y-121946666D02*
X186833333Y-121980000D01*
X186866666Y-122013333D01*
X186900000Y-121980000D01*
X186866666Y-121946666D01*
X186866666Y-122013333D01*
X187500000Y-122180000D02*
X187500000Y-122746666D01*
X187466666Y-122813333D01*
X187433333Y-122846666D01*
X187366666Y-122880000D01*
X187266666Y-122880000D01*
X187200000Y-122846666D01*
X187500000Y-122613333D02*
X187433333Y-122646666D01*
X187300000Y-122646666D01*
X187233333Y-122613333D01*
X187200000Y-122580000D01*
X187166666Y-122513333D01*
X187166666Y-122313333D01*
X187200000Y-122246666D01*
X187233333Y-122213333D01*
X187300000Y-122180000D01*
X187433333Y-122180000D01*
X187500000Y-122213333D01*
X187833333Y-122180000D02*
X187833333Y-122646666D01*
X187833333Y-122246666D02*
X187866666Y-122213333D01*
X187933333Y-122180000D01*
X188033333Y-122180000D01*
X188100000Y-122213333D01*
X188133333Y-122280000D01*
X188133333Y-122646666D01*
X188733333Y-122613333D02*
X188666666Y-122646666D01*
X188533333Y-122646666D01*
X188466666Y-122613333D01*
X188433333Y-122546666D01*
X188433333Y-122280000D01*
X188466666Y-122213333D01*
X188533333Y-122180000D01*
X188666666Y-122180000D01*
X188733333Y-122213333D01*
X188766666Y-122280000D01*
X188766666Y-122346666D01*
X188433333Y-122413333D01*
X189366666Y-122646666D02*
X189366666Y-121946666D01*
X189366666Y-122613333D02*
X189300000Y-122646666D01*
X189166666Y-122646666D01*
X189100000Y-122613333D01*
X189066666Y-122580000D01*
X189033333Y-122513333D01*
X189033333Y-122313333D01*
X189066666Y-122246666D01*
X189100000Y-122213333D01*
X189166666Y-122180000D01*
X189300000Y-122180000D01*
X189366666Y-122213333D01*
X190233333Y-122646666D02*
X190233333Y-121946666D01*
X190233333Y-122213333D02*
X190300000Y-122180000D01*
X190433333Y-122180000D01*
X190500000Y-122213333D01*
X190533333Y-122246666D01*
X190566666Y-122313333D01*
X190566666Y-122513333D01*
X190533333Y-122580000D01*
X190500000Y-122613333D01*
X190433333Y-122646666D01*
X190300000Y-122646666D01*
X190233333Y-122613333D01*
X190800000Y-122180000D02*
X190966666Y-122646666D01*
X191133333Y-122180000D02*
X190966666Y-122646666D01*
X190900000Y-122813333D01*
X190866666Y-122846666D01*
X190800000Y-122880000D01*
X191900000Y-122446666D02*
X192233333Y-122446666D01*
X191833333Y-122646666D02*
X192066666Y-121946666D01*
X192300000Y-122646666D01*
X192533333Y-122646666D02*
X192533333Y-122180000D01*
X192533333Y-122313333D02*
X192566666Y-122246666D01*
X192600000Y-122213333D01*
X192666666Y-122180000D01*
X192733333Y-122180000D01*
X192966666Y-122646666D02*
X192966666Y-122180000D01*
X192966666Y-121946666D02*
X192933333Y-121980000D01*
X192966666Y-122013333D01*
X193000000Y-121980000D01*
X192966666Y-121946666D01*
X192966666Y-122013333D01*
X193600000Y-122646666D02*
X193600000Y-122280000D01*
X193566666Y-122213333D01*
X193500000Y-122180000D01*
X193366666Y-122180000D01*
X193300000Y-122213333D01*
X193600000Y-122613333D02*
X193533333Y-122646666D01*
X193366666Y-122646666D01*
X193300000Y-122613333D01*
X193266666Y-122546666D01*
X193266666Y-122480000D01*
X193300000Y-122413333D01*
X193366666Y-122380000D01*
X193533333Y-122380000D01*
X193600000Y-122346666D01*
X179716666Y-103516666D02*
X179716666Y-104016666D01*
X179683333Y-104116666D01*
X179616666Y-104183333D01*
X179516666Y-104216666D01*
X179450000Y-104216666D01*
X180383333Y-104216666D02*
X180050000Y-104216666D01*
X180050000Y-103516666D01*
X181016666Y-104150000D02*
X180983333Y-104183333D01*
X180883333Y-104216666D01*
X180816666Y-104216666D01*
X180716666Y-104183333D01*
X180650000Y-104116666D01*
X180616666Y-104050000D01*
X180583333Y-103916666D01*
X180583333Y-103816666D01*
X180616666Y-103683333D01*
X180650000Y-103616666D01*
X180716666Y-103550000D01*
X180816666Y-103516666D01*
X180883333Y-103516666D01*
X180983333Y-103550000D01*
X181016666Y-103583333D01*
X181516666Y-103516666D02*
X181516666Y-104016666D01*
X181483333Y-104116666D01*
X181416666Y-104183333D01*
X181316666Y-104216666D01*
X181250000Y-104216666D01*
X182183333Y-104216666D02*
X181850000Y-104216666D01*
X181850000Y-103516666D01*
X182816666Y-104150000D02*
X182783333Y-104183333D01*
X182683333Y-104216666D01*
X182616666Y-104216666D01*
X182516666Y-104183333D01*
X182450000Y-104116666D01*
X182416666Y-104050000D01*
X182383333Y-103916666D01*
X182383333Y-103816666D01*
X182416666Y-103683333D01*
X182450000Y-103616666D01*
X182516666Y-103550000D01*
X182616666Y-103516666D01*
X182683333Y-103516666D01*
X182783333Y-103550000D01*
X182816666Y-103583333D01*
X183316666Y-103516666D02*
X183316666Y-104016666D01*
X183283333Y-104116666D01*
X183216666Y-104183333D01*
X183116666Y-104216666D01*
X183050000Y-104216666D01*
X183983333Y-104216666D02*
X183650000Y-104216666D01*
X183650000Y-103516666D01*
X184616666Y-104150000D02*
X184583333Y-104183333D01*
X184483333Y-104216666D01*
X184416666Y-104216666D01*
X184316666Y-104183333D01*
X184250000Y-104116666D01*
X184216666Y-104050000D01*
X184183333Y-103916666D01*
X184183333Y-103816666D01*
X184216666Y-103683333D01*
X184250000Y-103616666D01*
X184316666Y-103550000D01*
X184416666Y-103516666D01*
X184483333Y-103516666D01*
X184583333Y-103550000D01*
X184616666Y-103583333D01*
D11*
%TO.C,G\u002A\u002A\u002A*%
G36*
X190425192Y-116783035D02*
G01*
X190432612Y-116838769D01*
X190435905Y-116923644D01*
X190436000Y-116942916D01*
X190433916Y-117024217D01*
X190428355Y-117086398D01*
X190420354Y-117119743D01*
X190416814Y-117122833D01*
X190405831Y-117139655D01*
X190408513Y-117164453D01*
X190410150Y-117211442D01*
X190400993Y-117279175D01*
X190384583Y-117352017D01*
X190364458Y-117414330D01*
X190344157Y-117450481D01*
X190343675Y-117450916D01*
X190320809Y-117489437D01*
X190316620Y-117509262D01*
X190303809Y-117552380D01*
X190274022Y-117615635D01*
X190233076Y-117689636D01*
X190186786Y-117764997D01*
X190140971Y-117832327D01*
X190101445Y-117882239D01*
X190074026Y-117905343D01*
X190070879Y-117905930D01*
X190053572Y-117910070D01*
X190043305Y-117927623D01*
X190038905Y-117966409D01*
X190039199Y-118034246D01*
X190041516Y-118101791D01*
X190041254Y-118309081D01*
X190025378Y-118512312D01*
X189995319Y-118697510D01*
X189970294Y-118796798D01*
X189921835Y-118913585D01*
X189851644Y-119023086D01*
X189768812Y-119113155D01*
X189693794Y-119166126D01*
X189617315Y-119189927D01*
X189529789Y-119194792D01*
X189451641Y-119180424D01*
X189428820Y-119169958D01*
X189330354Y-119098822D01*
X189253319Y-119008356D01*
X189213068Y-118941336D01*
X189175195Y-118859270D01*
X189139308Y-118760823D01*
X189109251Y-118659199D01*
X189088863Y-118567601D01*
X189084443Y-118523646D01*
X189173533Y-118523646D01*
X189178032Y-118605369D01*
X189187582Y-118669714D01*
X189187910Y-118671100D01*
X189238256Y-118829124D01*
X189306355Y-118964230D01*
X189387680Y-119067698D01*
X189399617Y-119078940D01*
X189476560Y-119134899D01*
X189547697Y-119153191D01*
X189622058Y-119134004D01*
X189698812Y-119085143D01*
X189795139Y-118985534D01*
X189870486Y-118849366D01*
X189924777Y-118676891D01*
X189957934Y-118468363D01*
X189969879Y-118224035D01*
X189969910Y-118199934D01*
X189965530Y-118077670D01*
X189954027Y-117950451D01*
X189937021Y-117829081D01*
X189916133Y-117724364D01*
X189892983Y-117647105D01*
X189884006Y-117627336D01*
X189848006Y-117583234D01*
X189786418Y-117528856D01*
X189711330Y-117473236D01*
X189634827Y-117425405D01*
X189575392Y-117396723D01*
X189518057Y-117383770D01*
X189471506Y-117397305D01*
X189429392Y-117441961D01*
X189385368Y-117522368D01*
X189376277Y-117542040D01*
X189339581Y-117636167D01*
X189303489Y-117751363D01*
X189271298Y-117874363D01*
X189246304Y-117991901D01*
X189231806Y-118090711D01*
X189229500Y-118132550D01*
X189224383Y-118179788D01*
X189211897Y-118202073D01*
X189210233Y-118202333D01*
X189196578Y-118221814D01*
X189185607Y-118273628D01*
X189177794Y-118347832D01*
X189173611Y-118434486D01*
X189173533Y-118523646D01*
X189084443Y-118523646D01*
X189081987Y-118499231D01*
X189082342Y-118491995D01*
X189083736Y-118449267D01*
X189072971Y-118431213D01*
X189041000Y-118434810D01*
X188978775Y-118457036D01*
X188978262Y-118457230D01*
X188914173Y-118476804D01*
X188821877Y-118498959D01*
X188715122Y-118520605D01*
X188634304Y-118534572D01*
X188513702Y-118549346D01*
X188366997Y-118560480D01*
X188202852Y-118567958D01*
X188029930Y-118571764D01*
X187856892Y-118571879D01*
X187692401Y-118568288D01*
X187545121Y-118560974D01*
X187423712Y-118549920D01*
X187345090Y-118537071D01*
X187206931Y-118505812D01*
X187148567Y-118659739D01*
X187070323Y-118831337D01*
X186978719Y-118965174D01*
X186870511Y-119064598D01*
X186742454Y-119132955D01*
X186665985Y-119157586D01*
X186600267Y-119171418D01*
X186551862Y-119168523D01*
X186498347Y-119146772D01*
X186486068Y-119140496D01*
X186424895Y-119098681D01*
X186376083Y-119048355D01*
X186368148Y-119036352D01*
X186328829Y-118947165D01*
X186294112Y-118828800D01*
X186266771Y-118694373D01*
X186249580Y-118556997D01*
X186245000Y-118454073D01*
X186245000Y-118343518D01*
X186311707Y-118343518D01*
X186314067Y-118443280D01*
X186315056Y-118466916D01*
X186326172Y-118618631D01*
X186346608Y-118746354D01*
X186379241Y-118867935D01*
X186380205Y-118870948D01*
X186425098Y-118990424D01*
X186473142Y-119070413D01*
X186529399Y-119113715D01*
X186598928Y-119123132D01*
X186686789Y-119101468D01*
X186749199Y-119075276D01*
X186832434Y-119025125D01*
X186905607Y-118954003D01*
X186972054Y-118856859D01*
X187035111Y-118728641D01*
X187098111Y-118564297D01*
X187110537Y-118528015D01*
X187192730Y-118254199D01*
X187244682Y-118009947D01*
X187266394Y-117795195D01*
X187257868Y-117609883D01*
X187219104Y-117453948D01*
X187150102Y-117327330D01*
X187123422Y-117294960D01*
X187029503Y-117214278D01*
X186933329Y-117175473D01*
X186837713Y-117178393D01*
X186745470Y-117222885D01*
X186659413Y-117308798D01*
X186650640Y-117320504D01*
X186562458Y-117449215D01*
X186495035Y-117568943D01*
X186442227Y-117693530D01*
X186397894Y-117836816D01*
X186368442Y-117956398D01*
X186341399Y-118079434D01*
X186323906Y-118175618D01*
X186314498Y-118258972D01*
X186311707Y-118343518D01*
X186245000Y-118343518D01*
X186245000Y-118269286D01*
X186165625Y-118220299D01*
X186058856Y-118143594D01*
X185960412Y-118053418D01*
X185884411Y-117963004D01*
X185873290Y-117946284D01*
X185760796Y-117755399D01*
X185668249Y-117572100D01*
X185599562Y-117404618D01*
X185569108Y-117306394D01*
X185540975Y-117172572D01*
X185528661Y-117053040D01*
X185531693Y-116953356D01*
X185549597Y-116879075D01*
X185581900Y-116835753D01*
X185610000Y-116826838D01*
X185614338Y-116846432D01*
X185617908Y-116899731D01*
X185620289Y-116978107D01*
X185621058Y-117054056D01*
X185624061Y-117175818D01*
X185634596Y-117279156D01*
X185655790Y-117374521D01*
X185690773Y-117472360D01*
X185742674Y-117583123D01*
X185814620Y-117717259D01*
X185825445Y-117736666D01*
X185885879Y-117835684D01*
X185954427Y-117933489D01*
X186025818Y-118024080D01*
X186094780Y-118101455D01*
X186156040Y-118159615D01*
X186204326Y-118192557D01*
X186229717Y-118196844D01*
X186243877Y-118173684D01*
X186260654Y-118119123D01*
X186276974Y-118043709D01*
X186280917Y-118021055D01*
X186315591Y-117859048D01*
X186363072Y-117706031D01*
X186418855Y-117575451D01*
X186447066Y-117525000D01*
X186485680Y-117460997D01*
X186530478Y-117384290D01*
X186549503Y-117350937D01*
X186623883Y-117254225D01*
X186695354Y-117199554D01*
X186794365Y-117150974D01*
X186877796Y-117132146D01*
X186958737Y-117141672D01*
X187021567Y-117164748D01*
X187121189Y-117216960D01*
X187194482Y-117277835D01*
X187247888Y-117356254D01*
X187287850Y-117461098D01*
X187314034Y-117567894D01*
X187334505Y-117683179D01*
X187342935Y-117787258D01*
X187338694Y-117892286D01*
X187321156Y-118010423D01*
X187289691Y-118153824D01*
X187282166Y-118184610D01*
X187257983Y-118283414D01*
X187238040Y-118366838D01*
X187224294Y-118426554D01*
X187218703Y-118454234D01*
X187218666Y-118454841D01*
X187238738Y-118466569D01*
X187294841Y-118480659D01*
X187380803Y-118496126D01*
X187490455Y-118511986D01*
X187617626Y-118527255D01*
X187756146Y-118540950D01*
X187761641Y-118541434D01*
X187866230Y-118549505D01*
X187956751Y-118553194D01*
X188044784Y-118552089D01*
X188141911Y-118545778D01*
X188259713Y-118533850D01*
X188381273Y-118519415D01*
X188606345Y-118488518D01*
X188789242Y-118456360D01*
X188930105Y-118422904D01*
X189029077Y-118388108D01*
X189086298Y-118351934D01*
X189102228Y-118318862D01*
X189106318Y-118278094D01*
X189117358Y-118209871D01*
X189133075Y-118128054D01*
X189135233Y-118117666D01*
X189155171Y-118022170D01*
X189175062Y-117926294D01*
X189190129Y-117853083D01*
X189235753Y-117672423D01*
X189292084Y-117528137D01*
X189361209Y-117415152D01*
X189379437Y-117392708D01*
X189430560Y-117339698D01*
X189476551Y-117303267D01*
X189503161Y-117292166D01*
X189556482Y-117305127D01*
X189627459Y-117339715D01*
X189707490Y-117389492D01*
X189787972Y-117448016D01*
X189860303Y-117508848D01*
X189915881Y-117565547D01*
X189946102Y-117611674D01*
X189949166Y-117626060D01*
X189955426Y-117661657D01*
X189971396Y-117720808D01*
X189983218Y-117758735D01*
X190004470Y-117818623D01*
X190021219Y-117845003D01*
X190040520Y-117845092D01*
X190057458Y-117834693D01*
X190083613Y-117804629D01*
X190122231Y-117745893D01*
X190167395Y-117667948D01*
X190199461Y-117607564D01*
X190280971Y-117420400D01*
X190340616Y-117224773D01*
X190374180Y-117035747D01*
X190379373Y-116964977D01*
X190385159Y-116907834D01*
X190395557Y-116873396D01*
X190401252Y-116868833D01*
X190410322Y-116851484D01*
X190406141Y-116815916D01*
X190403161Y-116775782D01*
X190414430Y-116763000D01*
X190425192Y-116783035D01*
G37*
X190425192Y-116783035D02*
X190432612Y-116838769D01*
X190435905Y-116923644D01*
X190436000Y-116942916D01*
X190433916Y-117024217D01*
X190428355Y-117086398D01*
X190420354Y-117119743D01*
X190416814Y-117122833D01*
X190405831Y-117139655D01*
X190408513Y-117164453D01*
X190410150Y-117211442D01*
X190400993Y-117279175D01*
X190384583Y-117352017D01*
X190364458Y-117414330D01*
X190344157Y-117450481D01*
X190343675Y-117450916D01*
X190320809Y-117489437D01*
X190316620Y-117509262D01*
X190303809Y-117552380D01*
X190274022Y-117615635D01*
X190233076Y-117689636D01*
X190186786Y-117764997D01*
X190140971Y-117832327D01*
X190101445Y-117882239D01*
X190074026Y-117905343D01*
X190070879Y-117905930D01*
X190053572Y-117910070D01*
X190043305Y-117927623D01*
X190038905Y-117966409D01*
X190039199Y-118034246D01*
X190041516Y-118101791D01*
X190041254Y-118309081D01*
X190025378Y-118512312D01*
X189995319Y-118697510D01*
X189970294Y-118796798D01*
X189921835Y-118913585D01*
X189851644Y-119023086D01*
X189768812Y-119113155D01*
X189693794Y-119166126D01*
X189617315Y-119189927D01*
X189529789Y-119194792D01*
X189451641Y-119180424D01*
X189428820Y-119169958D01*
X189330354Y-119098822D01*
X189253319Y-119008356D01*
X189213068Y-118941336D01*
X189175195Y-118859270D01*
X189139308Y-118760823D01*
X189109251Y-118659199D01*
X189088863Y-118567601D01*
X189084443Y-118523646D01*
X189173533Y-118523646D01*
X189178032Y-118605369D01*
X189187582Y-118669714D01*
X189187910Y-118671100D01*
X189238256Y-118829124D01*
X189306355Y-118964230D01*
X189387680Y-119067698D01*
X189399617Y-119078940D01*
X189476560Y-119134899D01*
X189547697Y-119153191D01*
X189622058Y-119134004D01*
X189698812Y-119085143D01*
X189795139Y-118985534D01*
X189870486Y-118849366D01*
X189924777Y-118676891D01*
X189957934Y-118468363D01*
X189969879Y-118224035D01*
X189969910Y-118199934D01*
X189965530Y-118077670D01*
X189954027Y-117950451D01*
X189937021Y-117829081D01*
X189916133Y-117724364D01*
X189892983Y-117647105D01*
X189884006Y-117627336D01*
X189848006Y-117583234D01*
X189786418Y-117528856D01*
X189711330Y-117473236D01*
X189634827Y-117425405D01*
X189575392Y-117396723D01*
X189518057Y-117383770D01*
X189471506Y-117397305D01*
X189429392Y-117441961D01*
X189385368Y-117522368D01*
X189376277Y-117542040D01*
X189339581Y-117636167D01*
X189303489Y-117751363D01*
X189271298Y-117874363D01*
X189246304Y-117991901D01*
X189231806Y-118090711D01*
X189229500Y-118132550D01*
X189224383Y-118179788D01*
X189211897Y-118202073D01*
X189210233Y-118202333D01*
X189196578Y-118221814D01*
X189185607Y-118273628D01*
X189177794Y-118347832D01*
X189173611Y-118434486D01*
X189173533Y-118523646D01*
X189084443Y-118523646D01*
X189081987Y-118499231D01*
X189082342Y-118491995D01*
X189083736Y-118449267D01*
X189072971Y-118431213D01*
X189041000Y-118434810D01*
X188978775Y-118457036D01*
X188978262Y-118457230D01*
X188914173Y-118476804D01*
X188821877Y-118498959D01*
X188715122Y-118520605D01*
X188634304Y-118534572D01*
X188513702Y-118549346D01*
X188366997Y-118560480D01*
X188202852Y-118567958D01*
X188029930Y-118571764D01*
X187856892Y-118571879D01*
X187692401Y-118568288D01*
X187545121Y-118560974D01*
X187423712Y-118549920D01*
X187345090Y-118537071D01*
X187206931Y-118505812D01*
X187148567Y-118659739D01*
X187070323Y-118831337D01*
X186978719Y-118965174D01*
X186870511Y-119064598D01*
X186742454Y-119132955D01*
X186665985Y-119157586D01*
X186600267Y-119171418D01*
X186551862Y-119168523D01*
X186498347Y-119146772D01*
X186486068Y-119140496D01*
X186424895Y-119098681D01*
X186376083Y-119048355D01*
X186368148Y-119036352D01*
X186328829Y-118947165D01*
X186294112Y-118828800D01*
X186266771Y-118694373D01*
X186249580Y-118556997D01*
X186245000Y-118454073D01*
X186245000Y-118343518D01*
X186311707Y-118343518D01*
X186314067Y-118443280D01*
X186315056Y-118466916D01*
X186326172Y-118618631D01*
X186346608Y-118746354D01*
X186379241Y-118867935D01*
X186380205Y-118870948D01*
X186425098Y-118990424D01*
X186473142Y-119070413D01*
X186529399Y-119113715D01*
X186598928Y-119123132D01*
X186686789Y-119101468D01*
X186749199Y-119075276D01*
X186832434Y-119025125D01*
X186905607Y-118954003D01*
X186972054Y-118856859D01*
X187035111Y-118728641D01*
X187098111Y-118564297D01*
X187110537Y-118528015D01*
X187192730Y-118254199D01*
X187244682Y-118009947D01*
X187266394Y-117795195D01*
X187257868Y-117609883D01*
X187219104Y-117453948D01*
X187150102Y-117327330D01*
X187123422Y-117294960D01*
X187029503Y-117214278D01*
X186933329Y-117175473D01*
X186837713Y-117178393D01*
X186745470Y-117222885D01*
X186659413Y-117308798D01*
X186650640Y-117320504D01*
X186562458Y-117449215D01*
X186495035Y-117568943D01*
X186442227Y-117693530D01*
X186397894Y-117836816D01*
X186368442Y-117956398D01*
X186341399Y-118079434D01*
X186323906Y-118175618D01*
X186314498Y-118258972D01*
X186311707Y-118343518D01*
X186245000Y-118343518D01*
X186245000Y-118269286D01*
X186165625Y-118220299D01*
X186058856Y-118143594D01*
X185960412Y-118053418D01*
X185884411Y-117963004D01*
X185873290Y-117946284D01*
X185760796Y-117755399D01*
X185668249Y-117572100D01*
X185599562Y-117404618D01*
X185569108Y-117306394D01*
X185540975Y-117172572D01*
X185528661Y-117053040D01*
X185531693Y-116953356D01*
X185549597Y-116879075D01*
X185581900Y-116835753D01*
X185610000Y-116826838D01*
X185614338Y-116846432D01*
X185617908Y-116899731D01*
X185620289Y-116978107D01*
X185621058Y-117054056D01*
X185624061Y-117175818D01*
X185634596Y-117279156D01*
X185655790Y-117374521D01*
X185690773Y-117472360D01*
X185742674Y-117583123D01*
X185814620Y-117717259D01*
X185825445Y-117736666D01*
X185885879Y-117835684D01*
X185954427Y-117933489D01*
X186025818Y-118024080D01*
X186094780Y-118101455D01*
X186156040Y-118159615D01*
X186204326Y-118192557D01*
X186229717Y-118196844D01*
X186243877Y-118173684D01*
X186260654Y-118119123D01*
X186276974Y-118043709D01*
X186280917Y-118021055D01*
X186315591Y-117859048D01*
X186363072Y-117706031D01*
X186418855Y-117575451D01*
X186447066Y-117525000D01*
X186485680Y-117460997D01*
X186530478Y-117384290D01*
X186549503Y-117350937D01*
X186623883Y-117254225D01*
X186695354Y-117199554D01*
X186794365Y-117150974D01*
X186877796Y-117132146D01*
X186958737Y-117141672D01*
X187021567Y-117164748D01*
X187121189Y-117216960D01*
X187194482Y-117277835D01*
X187247888Y-117356254D01*
X187287850Y-117461098D01*
X187314034Y-117567894D01*
X187334505Y-117683179D01*
X187342935Y-117787258D01*
X187338694Y-117892286D01*
X187321156Y-118010423D01*
X187289691Y-118153824D01*
X187282166Y-118184610D01*
X187257983Y-118283414D01*
X187238040Y-118366838D01*
X187224294Y-118426554D01*
X187218703Y-118454234D01*
X187218666Y-118454841D01*
X187238738Y-118466569D01*
X187294841Y-118480659D01*
X187380803Y-118496126D01*
X187490455Y-118511986D01*
X187617626Y-118527255D01*
X187756146Y-118540950D01*
X187761641Y-118541434D01*
X187866230Y-118549505D01*
X187956751Y-118553194D01*
X188044784Y-118552089D01*
X188141911Y-118545778D01*
X188259713Y-118533850D01*
X188381273Y-118519415D01*
X188606345Y-118488518D01*
X188789242Y-118456360D01*
X188930105Y-118422904D01*
X189029077Y-118388108D01*
X189086298Y-118351934D01*
X189102228Y-118318862D01*
X189106318Y-118278094D01*
X189117358Y-118209871D01*
X189133075Y-118128054D01*
X189135233Y-118117666D01*
X189155171Y-118022170D01*
X189175062Y-117926294D01*
X189190129Y-117853083D01*
X189235753Y-117672423D01*
X189292084Y-117528137D01*
X189361209Y-117415152D01*
X189379437Y-117392708D01*
X189430560Y-117339698D01*
X189476551Y-117303267D01*
X189503161Y-117292166D01*
X189556482Y-117305127D01*
X189627459Y-117339715D01*
X189707490Y-117389492D01*
X189787972Y-117448016D01*
X189860303Y-117508848D01*
X189915881Y-117565547D01*
X189946102Y-117611674D01*
X189949166Y-117626060D01*
X189955426Y-117661657D01*
X189971396Y-117720808D01*
X189983218Y-117758735D01*
X190004470Y-117818623D01*
X190021219Y-117845003D01*
X190040520Y-117845092D01*
X190057458Y-117834693D01*
X190083613Y-117804629D01*
X190122231Y-117745893D01*
X190167395Y-117667948D01*
X190199461Y-117607564D01*
X190280971Y-117420400D01*
X190340616Y-117224773D01*
X190374180Y-117035747D01*
X190379373Y-116964977D01*
X190385159Y-116907834D01*
X190395557Y-116873396D01*
X190401252Y-116868833D01*
X190410322Y-116851484D01*
X190406141Y-116815916D01*
X190403161Y-116775782D01*
X190414430Y-116763000D01*
X190425192Y-116783035D01*
G36*
X185627478Y-116758776D02*
G01*
X185631166Y-116773583D01*
X185614223Y-116801645D01*
X185599416Y-116805333D01*
X185571354Y-116788390D01*
X185567666Y-116773583D01*
X185584609Y-116745521D01*
X185599416Y-116741833D01*
X185627478Y-116758776D01*
G37*
X185627478Y-116758776D02*
X185631166Y-116773583D01*
X185614223Y-116801645D01*
X185599416Y-116805333D01*
X185571354Y-116788390D01*
X185567666Y-116773583D01*
X185584609Y-116745521D01*
X185599416Y-116741833D01*
X185627478Y-116758776D01*
G36*
X185665665Y-111717473D02*
G01*
X185673500Y-111737479D01*
X185682588Y-111768983D01*
X185707239Y-111829028D01*
X185743533Y-111908572D01*
X185781323Y-111986187D01*
X185862371Y-112137975D01*
X185945572Y-112269932D01*
X186042404Y-112399146D01*
X186124563Y-112497255D01*
X186197256Y-112581260D01*
X186431813Y-112459390D01*
X186643660Y-112362061D01*
X186871243Y-112280312D01*
X187107528Y-112215209D01*
X187345483Y-112167817D01*
X187578073Y-112139204D01*
X187798266Y-112130435D01*
X187999026Y-112142576D01*
X188173321Y-112176694D01*
X188213500Y-112189318D01*
X188257001Y-112203468D01*
X188328598Y-112225923D01*
X188415844Y-112252798D01*
X188456916Y-112265305D01*
X188614401Y-112317295D01*
X188763358Y-112374362D01*
X188895232Y-112432768D01*
X189001473Y-112488772D01*
X189064217Y-112530879D01*
X189116936Y-112568120D01*
X189160041Y-112590380D01*
X189172408Y-112593166D01*
X189197419Y-112577227D01*
X189240131Y-112534374D01*
X189293515Y-112472054D01*
X189327107Y-112429254D01*
X189402268Y-112332980D01*
X189488531Y-112226341D01*
X189569519Y-112129514D01*
X189584041Y-112112643D01*
X189641277Y-112044248D01*
X189686045Y-111986316D01*
X189712161Y-111947086D01*
X189716333Y-111936416D01*
X189733732Y-111920522D01*
X189761730Y-111919652D01*
X189795056Y-111937251D01*
X189825808Y-111984028D01*
X189850394Y-112042833D01*
X189884749Y-112122549D01*
X189931903Y-112216203D01*
X189977697Y-112296833D01*
X190080198Y-112466702D01*
X190159441Y-112602585D01*
X190215291Y-112704237D01*
X190247613Y-112771413D01*
X190256275Y-112803867D01*
X190255634Y-112805559D01*
X190258873Y-112833321D01*
X190280651Y-112881327D01*
X190294308Y-112904587D01*
X190338016Y-112985439D01*
X190386065Y-113092220D01*
X190432258Y-113209861D01*
X190470397Y-113323291D01*
X190479594Y-113355166D01*
X190491063Y-113416838D01*
X190501073Y-113506925D01*
X190508293Y-113611509D01*
X190510907Y-113682743D01*
X190516075Y-113915069D01*
X190714162Y-113951540D01*
X190794106Y-113968147D01*
X190882624Y-113989567D01*
X190973414Y-114013831D01*
X191060171Y-114038968D01*
X191136590Y-114063007D01*
X191196366Y-114083978D01*
X191233196Y-114099909D01*
X191240774Y-114108830D01*
X191219166Y-114109399D01*
X191166121Y-114101041D01*
X191085850Y-114084058D01*
X190991841Y-114061415D01*
X190944000Y-114048923D01*
X190846408Y-114023613D01*
X190754185Y-114001245D01*
X190681640Y-113985228D01*
X190658250Y-113980836D01*
X190594875Y-113969222D01*
X190545396Y-113958353D01*
X190538453Y-113956468D01*
X190509441Y-113962131D01*
X190485322Y-114002457D01*
X190478135Y-114022515D01*
X190463681Y-114073234D01*
X190459428Y-114103284D01*
X190460348Y-114105776D01*
X190482202Y-114116950D01*
X190532074Y-114139360D01*
X190594750Y-114166277D01*
X190690053Y-114207921D01*
X190792221Y-114255003D01*
X190895507Y-114304563D01*
X190994167Y-114353638D01*
X191082457Y-114399268D01*
X191154633Y-114438491D01*
X191204948Y-114468347D01*
X191227660Y-114485875D01*
X191220385Y-114488772D01*
X191174086Y-114474912D01*
X191099805Y-114445887D01*
X191007276Y-114405761D01*
X190906231Y-114358595D01*
X190892301Y-114351828D01*
X190732035Y-114274593D01*
X190608413Y-114217282D01*
X190520866Y-114179645D01*
X190468824Y-114161428D01*
X190456846Y-114159500D01*
X190434293Y-114176695D01*
X190425155Y-114214351D01*
X190433797Y-114251574D01*
X190436754Y-114255658D01*
X190464004Y-114279469D01*
X190516923Y-114319189D01*
X190585733Y-114367578D01*
X190611744Y-114385212D01*
X190710820Y-114452631D01*
X190818605Y-114527509D01*
X190928455Y-114605062D01*
X191033727Y-114680508D01*
X191127777Y-114749064D01*
X191203961Y-114805948D01*
X191255634Y-114846376D01*
X191271495Y-114860146D01*
X191301400Y-114892917D01*
X191300975Y-114903584D01*
X191274273Y-114894739D01*
X191225346Y-114868976D01*
X191158248Y-114828887D01*
X191077030Y-114777065D01*
X190985744Y-114716104D01*
X190888445Y-114648596D01*
X190789184Y-114577134D01*
X190692014Y-114504311D01*
X190600988Y-114432720D01*
X190591844Y-114425293D01*
X190544918Y-114390949D01*
X190510101Y-114372289D01*
X190504478Y-114371166D01*
X190474763Y-114356582D01*
X190457166Y-114339416D01*
X190422925Y-114315795D01*
X190383294Y-114308183D01*
X190355459Y-114318134D01*
X190351333Y-114329850D01*
X190336235Y-114377539D01*
X190295894Y-114442989D01*
X190237744Y-114517044D01*
X190169215Y-114590547D01*
X190097739Y-114654343D01*
X190072617Y-114673241D01*
X189963411Y-114746322D01*
X189863090Y-114805323D01*
X189776768Y-114847994D01*
X189709559Y-114872083D01*
X189666579Y-114875339D01*
X189652833Y-114858000D01*
X189635689Y-114839221D01*
X189621083Y-114836833D01*
X189594577Y-114842469D01*
X189596416Y-114862551D01*
X189628453Y-114901841D01*
X189658125Y-114931896D01*
X189702776Y-114986102D01*
X189762905Y-115075173D01*
X189836370Y-115195484D01*
X189921027Y-115343407D01*
X190014733Y-115515316D01*
X190107368Y-115692074D01*
X190153028Y-115789363D01*
X190200416Y-115905420D01*
X190247620Y-116033755D01*
X190292730Y-116167877D01*
X190333835Y-116301296D01*
X190369026Y-116427522D01*
X190396392Y-116540063D01*
X190414022Y-116632428D01*
X190420006Y-116698128D01*
X190412923Y-116730191D01*
X190397831Y-116730646D01*
X190393666Y-116703733D01*
X190394408Y-116660643D01*
X190395474Y-116643658D01*
X190381926Y-116622087D01*
X190370663Y-116613698D01*
X190346421Y-116583535D01*
X190323054Y-116532114D01*
X190321230Y-116526664D01*
X190303726Y-116484015D01*
X190278020Y-116461140D01*
X190230604Y-116449457D01*
X190192583Y-116444924D01*
X190105898Y-116423043D01*
X190006738Y-116379139D01*
X189911548Y-116322102D01*
X189836772Y-116260824D01*
X189822166Y-116244644D01*
X189790861Y-116216528D01*
X189733482Y-116173358D01*
X189659924Y-116122401D01*
X189620198Y-116096292D01*
X189536299Y-116037782D01*
X189458583Y-115975951D01*
X189399718Y-115921146D01*
X189384499Y-115903776D01*
X189334348Y-115835203D01*
X189282176Y-115755366D01*
X189233704Y-115674142D01*
X189194647Y-115601403D01*
X189170726Y-115547025D01*
X189166000Y-115526480D01*
X189164085Y-115509876D01*
X189229500Y-115509876D01*
X189245356Y-115578721D01*
X189288852Y-115665232D01*
X189353872Y-115761525D01*
X189434305Y-115859713D01*
X189524036Y-115951911D01*
X189616953Y-116030232D01*
X189651903Y-116054767D01*
X189736568Y-116113450D01*
X189822196Y-116177485D01*
X189890454Y-116233155D01*
X189891275Y-116233876D01*
X189989799Y-116308496D01*
X190091733Y-116364872D01*
X190185461Y-116397226D01*
X190230584Y-116402701D01*
X190268528Y-116400086D01*
X190282188Y-116383345D01*
X190278468Y-116340368D01*
X190275575Y-116323791D01*
X190253464Y-116233070D01*
X190217289Y-116121538D01*
X190170760Y-115997633D01*
X190117588Y-115869786D01*
X190061484Y-115746435D01*
X190006157Y-115636013D01*
X189955318Y-115546955D01*
X189912678Y-115487696D01*
X189903742Y-115478533D01*
X189853937Y-115443287D01*
X189777439Y-115401076D01*
X189687741Y-115358252D01*
X189598334Y-115321166D01*
X189522709Y-115296171D01*
X189509689Y-115293019D01*
X189432301Y-115295160D01*
X189354435Y-115328031D01*
X189287327Y-115382935D01*
X189242210Y-115451177D01*
X189229500Y-115509876D01*
X189164085Y-115509876D01*
X189163361Y-115503608D01*
X189151298Y-115497078D01*
X189123590Y-115509438D01*
X189074019Y-115543238D01*
X189010970Y-115590037D01*
X188883386Y-115674421D01*
X188729644Y-115758258D01*
X188565352Y-115834073D01*
X188406116Y-115894394D01*
X188324778Y-115918669D01*
X188207566Y-115940864D01*
X188060455Y-115955760D01*
X187895289Y-115963097D01*
X187723914Y-115962612D01*
X187558174Y-115954045D01*
X187419750Y-115938636D01*
X187272973Y-115911170D01*
X187109180Y-115871431D01*
X186943458Y-115823735D01*
X186790896Y-115772396D01*
X186675482Y-115725814D01*
X186604900Y-115694739D01*
X186549608Y-115672113D01*
X186520610Y-115662419D01*
X186519594Y-115662333D01*
X186505842Y-115680857D01*
X186491864Y-115726705D01*
X186489173Y-115739828D01*
X186478676Y-115772806D01*
X186456453Y-115811923D01*
X186418711Y-115861785D01*
X186361656Y-115926998D01*
X186281495Y-116012167D01*
X186174609Y-116121720D01*
X186068001Y-116228926D01*
X185985348Y-116309337D01*
X185921704Y-116367097D01*
X185872126Y-116406347D01*
X185831671Y-116431230D01*
X185795395Y-116445889D01*
X185783931Y-116449079D01*
X185719899Y-116471084D01*
X185680538Y-116504456D01*
X185656455Y-116560644D01*
X185643576Y-116620125D01*
X185629653Y-116671032D01*
X185613014Y-116698137D01*
X185609040Y-116699500D01*
X185594010Y-116680194D01*
X185590006Y-116626171D01*
X185595927Y-116543274D01*
X185610673Y-116437346D01*
X185627345Y-116345997D01*
X185654237Y-116345997D01*
X185659319Y-116369675D01*
X185671524Y-116411053D01*
X185673500Y-116426064D01*
X185686643Y-116444448D01*
X185724673Y-116430747D01*
X185763942Y-116403166D01*
X185806752Y-116373717D01*
X185836087Y-116360854D01*
X185836716Y-116360833D01*
X185856928Y-116346554D01*
X185900563Y-116307639D01*
X185961704Y-116249969D01*
X186034435Y-116179428D01*
X186112842Y-116101896D01*
X186191008Y-116023257D01*
X186263018Y-115949392D01*
X186322955Y-115886184D01*
X186364904Y-115839515D01*
X186379551Y-115821083D01*
X186405130Y-115769777D01*
X186424057Y-115709212D01*
X186429581Y-115664196D01*
X186417877Y-115628706D01*
X186382242Y-115587993D01*
X186359126Y-115566337D01*
X186304177Y-115523723D01*
X186253846Y-115497270D01*
X186234103Y-115493000D01*
X186194545Y-115505213D01*
X186135582Y-115537092D01*
X186075666Y-115577666D01*
X186012256Y-115621121D01*
X185957816Y-115651666D01*
X185925979Y-115662333D01*
X185904628Y-115674031D01*
X185879983Y-115712388D01*
X185849519Y-115782292D01*
X185813966Y-115879291D01*
X185780697Y-115978398D01*
X185751662Y-116071987D01*
X185730723Y-116147226D01*
X185723159Y-116180916D01*
X185713033Y-116231973D01*
X185705158Y-116245317D01*
X185695389Y-116225082D01*
X185691338Y-116212666D01*
X185683185Y-116196423D01*
X185682261Y-116220466D01*
X185686229Y-116262551D01*
X185690919Y-116324005D01*
X185685796Y-116350351D01*
X185671538Y-116349037D01*
X185654237Y-116345997D01*
X185627345Y-116345997D01*
X185633144Y-116314228D01*
X185662238Y-116179764D01*
X185696854Y-116039795D01*
X185735892Y-115900165D01*
X185778252Y-115766715D01*
X185792484Y-115725833D01*
X185834650Y-115607961D01*
X185911250Y-115607961D01*
X185923410Y-115616394D01*
X185958917Y-115597085D01*
X186009120Y-115559562D01*
X186067611Y-115516452D01*
X186120889Y-115481516D01*
X186134326Y-115473909D01*
X186182403Y-115448693D01*
X186120687Y-115396763D01*
X186075413Y-115362964D01*
X186042033Y-115345493D01*
X186037900Y-115344833D01*
X186017751Y-115362788D01*
X185988871Y-115409081D01*
X185957234Y-115472352D01*
X185928814Y-115541239D01*
X185918251Y-115572375D01*
X185911250Y-115607961D01*
X185834650Y-115607961D01*
X185839874Y-115593359D01*
X185875580Y-115495308D01*
X185902056Y-115426198D01*
X185921760Y-115380549D01*
X185937147Y-115352881D01*
X185950672Y-115337713D01*
X185964793Y-115329567D01*
X185971200Y-115327030D01*
X185984399Y-115316112D01*
X185981456Y-115294672D01*
X185959195Y-115256803D01*
X185914438Y-115196599D01*
X185872624Y-115143750D01*
X185812249Y-115072433D01*
X185757800Y-115015488D01*
X185716594Y-114980185D01*
X185699998Y-114972258D01*
X185646635Y-114968873D01*
X185618920Y-114966967D01*
X185541893Y-114942860D01*
X185455862Y-114884219D01*
X185365918Y-114796430D01*
X185277151Y-114684876D01*
X185194651Y-114554943D01*
X185151066Y-114472028D01*
X185114982Y-114403281D01*
X185083358Y-114352570D01*
X185062208Y-114329362D01*
X185060122Y-114328833D01*
X185048592Y-114331281D01*
X185029679Y-114340819D01*
X184998624Y-114360738D01*
X184950666Y-114394329D01*
X184881047Y-114444883D01*
X184785006Y-114515691D01*
X184717387Y-114565804D01*
X184548262Y-114695893D01*
X184406212Y-114816294D01*
X184280630Y-114936605D01*
X184160908Y-115066427D01*
X184148895Y-115080250D01*
X184099947Y-115133288D01*
X184060623Y-115169454D01*
X184039929Y-115180791D01*
X184023138Y-115191192D01*
X184022500Y-115196666D01*
X184006319Y-115217133D01*
X184000789Y-115217833D01*
X183992456Y-115203091D01*
X184008359Y-115163315D01*
X184044686Y-115105175D01*
X184097624Y-115035344D01*
X184121012Y-115007467D01*
X184178309Y-114948053D01*
X184262316Y-114870123D01*
X184365439Y-114779966D01*
X184480084Y-114683871D01*
X184598657Y-114588127D01*
X184713564Y-114499024D01*
X184817210Y-114422851D01*
X184873981Y-114383886D01*
X184960880Y-114322466D01*
X185016830Y-114273958D01*
X185039950Y-114240501D01*
X185028354Y-114224235D01*
X185015618Y-114223000D01*
X184982077Y-114232924D01*
X184922753Y-114259039D01*
X184848226Y-114295858D01*
X184769074Y-114337897D01*
X184695878Y-114379667D01*
X184639216Y-114415684D01*
X184627154Y-114424447D01*
X184577925Y-114457745D01*
X184540269Y-114475883D01*
X184533793Y-114477000D01*
X184510664Y-114491023D01*
X184509333Y-114497763D01*
X184491390Y-114517899D01*
X184457122Y-114531630D01*
X184419668Y-114547041D01*
X184409497Y-114561421D01*
X184397880Y-114585607D01*
X184362384Y-114627198D01*
X184312396Y-114677415D01*
X184257304Y-114727481D01*
X184206495Y-114768618D01*
X184169356Y-114792049D01*
X184160228Y-114794500D01*
X184141535Y-114783460D01*
X184153570Y-114752865D01*
X184191742Y-114706502D01*
X184251463Y-114648157D01*
X184328143Y-114581618D01*
X184417193Y-114510669D01*
X184514024Y-114439099D01*
X184614046Y-114370694D01*
X184712669Y-114309241D01*
X184805304Y-114258525D01*
X184816557Y-114252972D01*
X184899052Y-114211506D01*
X184935336Y-114191873D01*
X185109155Y-114191873D01*
X185109842Y-114199616D01*
X185137792Y-114201083D01*
X185180872Y-114192443D01*
X185198120Y-114179258D01*
X185206250Y-114152837D01*
X185182744Y-114152919D01*
X185144301Y-114171065D01*
X185109155Y-114191873D01*
X184935336Y-114191873D01*
X184965110Y-114175763D01*
X185006809Y-114150188D01*
X185017333Y-114140279D01*
X185005935Y-114113388D01*
X184986599Y-114084170D01*
X184965484Y-114059615D01*
X184943845Y-114054673D01*
X184907383Y-114069675D01*
X184875474Y-114086740D01*
X184739628Y-114160813D01*
X184634757Y-114218827D01*
X184554416Y-114264518D01*
X184492161Y-114301625D01*
X184441548Y-114333886D01*
X184398159Y-114363605D01*
X184337028Y-114402354D01*
X184284821Y-114427792D01*
X184260576Y-114433785D01*
X184244090Y-114423847D01*
X184262253Y-114397117D01*
X184311846Y-114355729D01*
X184389649Y-114301816D01*
X184492444Y-114237512D01*
X184617011Y-114164950D01*
X184760133Y-114086265D01*
X184879109Y-114023796D01*
X184941968Y-113991423D01*
X184944563Y-113731503D01*
X184946027Y-113696434D01*
X185015336Y-113696434D01*
X185015479Y-113804929D01*
X185021495Y-113875610D01*
X185038746Y-113912991D01*
X185072595Y-113921587D01*
X185128403Y-113905914D01*
X185211534Y-113870486D01*
X185218416Y-113867427D01*
X185319418Y-113828326D01*
X185419909Y-113799446D01*
X185511161Y-113782238D01*
X185584448Y-113778153D01*
X185631041Y-113788640D01*
X185640298Y-113797317D01*
X185633165Y-113812510D01*
X185586862Y-113819915D01*
X185548089Y-113820833D01*
X185470254Y-113828392D01*
X185378893Y-113852989D01*
X185263630Y-113897502D01*
X185248508Y-113903970D01*
X185165988Y-113940015D01*
X185099234Y-113970054D01*
X185057037Y-113990083D01*
X185046989Y-113995788D01*
X185047370Y-114019461D01*
X185059775Y-114065881D01*
X185062093Y-114072697D01*
X185085457Y-114119624D01*
X185112741Y-114129957D01*
X185120064Y-114127808D01*
X185173190Y-114109617D01*
X185251165Y-114085587D01*
X185344265Y-114058409D01*
X185442769Y-114030775D01*
X185536952Y-114005373D01*
X185617093Y-113984897D01*
X185673467Y-113972035D01*
X185693929Y-113969000D01*
X185732055Y-113974776D01*
X185734696Y-113988606D01*
X185706555Y-114005243D01*
X185652338Y-114019437D01*
X185648091Y-114020139D01*
X185587430Y-114032865D01*
X185544152Y-114047342D01*
X185536966Y-114051523D01*
X185502081Y-114070127D01*
X185450644Y-114090194D01*
X185409187Y-114108599D01*
X185350107Y-114140069D01*
X185283813Y-114178346D01*
X185220715Y-114217172D01*
X185171222Y-114250288D01*
X185145745Y-114271436D01*
X185144333Y-114274350D01*
X185151980Y-114296076D01*
X185172287Y-114346903D01*
X185201297Y-114416994D01*
X185210023Y-114437741D01*
X185297640Y-114610604D01*
X185400688Y-114753189D01*
X185515236Y-114860242D01*
X185537904Y-114876085D01*
X185605239Y-114918747D01*
X185646827Y-114938029D01*
X185670947Y-114935734D01*
X185685878Y-114913669D01*
X185687831Y-114908780D01*
X185684928Y-114870929D01*
X185672168Y-114857176D01*
X185662967Y-114839877D01*
X185675071Y-114807157D01*
X185711455Y-114752819D01*
X185740820Y-114714140D01*
X185792089Y-114646267D01*
X185835259Y-114585805D01*
X185849440Y-114563829D01*
X186003129Y-114563829D01*
X186008327Y-114583068D01*
X186031233Y-114616739D01*
X186075085Y-114671818D01*
X186118319Y-114724814D01*
X186137270Y-114760948D01*
X186139166Y-114772439D01*
X186154736Y-114793712D01*
X186160333Y-114794500D01*
X186180660Y-114810792D01*
X186181500Y-114817078D01*
X186193326Y-114848873D01*
X186222131Y-114892643D01*
X186257905Y-114936119D01*
X186290640Y-114967028D01*
X186309392Y-114973865D01*
X186334061Y-114978557D01*
X186342057Y-114987925D01*
X186344908Y-115002770D01*
X186332937Y-114997604D01*
X186311085Y-114994807D01*
X186308500Y-115001841D01*
X186323326Y-115027086D01*
X186360746Y-115066257D01*
X186410168Y-115110407D01*
X186461000Y-115150591D01*
X186502651Y-115177863D01*
X186523899Y-115183776D01*
X186537443Y-115185702D01*
X186536566Y-115191367D01*
X186547567Y-115214937D01*
X186582028Y-115257078D01*
X186623971Y-115300249D01*
X186681696Y-115351680D01*
X186723635Y-115376179D01*
X186760878Y-115379522D01*
X186772138Y-115377416D01*
X186805161Y-115372865D01*
X186800201Y-115382692D01*
X186799362Y-115383261D01*
X186787118Y-115402154D01*
X186810219Y-115425845D01*
X186820528Y-115432600D01*
X186880953Y-115465804D01*
X186960192Y-115503081D01*
X187044474Y-115538648D01*
X187120029Y-115566721D01*
X187173084Y-115581519D01*
X187176333Y-115582009D01*
X187233715Y-115599676D01*
X187281584Y-115625663D01*
X187338518Y-115653493D01*
X187387418Y-115663821D01*
X187447510Y-115672328D01*
X187483250Y-115683355D01*
X187536410Y-115693375D01*
X187622576Y-115694965D01*
X187733394Y-115688741D01*
X187860514Y-115675318D01*
X187995586Y-115655312D01*
X188083691Y-115639070D01*
X188206484Y-115614432D01*
X188293337Y-115596566D01*
X188349834Y-115583997D01*
X188381557Y-115575249D01*
X188394089Y-115568847D01*
X188393013Y-115563315D01*
X188386800Y-115558952D01*
X188392016Y-115550968D01*
X188429779Y-115546039D01*
X188453646Y-115545354D01*
X188549518Y-115529272D01*
X188659798Y-115485973D01*
X188772391Y-115421254D01*
X188869666Y-115345947D01*
X188916747Y-115301325D01*
X188944692Y-115270310D01*
X188947951Y-115260195D01*
X188950263Y-115247901D01*
X188973057Y-115222265D01*
X189385358Y-115222265D01*
X189402891Y-115247644D01*
X189457887Y-115259521D01*
X189480224Y-115260166D01*
X189543032Y-115268321D01*
X189623838Y-115289412D01*
X189685350Y-115311213D01*
X189769305Y-115344269D01*
X189820324Y-115360218D01*
X189844438Y-115358497D01*
X189847679Y-115338540D01*
X189836077Y-115299786D01*
X189835168Y-115297208D01*
X189808329Y-115239344D01*
X189767253Y-115169041D01*
X189743204Y-115133166D01*
X189698161Y-115069646D01*
X189658034Y-115012939D01*
X189642054Y-114990291D01*
X189600909Y-114950069D01*
X189562011Y-114951243D01*
X189523762Y-114994192D01*
X189508824Y-115022041D01*
X189478950Y-115069895D01*
X189450383Y-115094399D01*
X189442560Y-115095259D01*
X189424109Y-115103507D01*
X189427087Y-115121105D01*
X189423665Y-115160390D01*
X189407167Y-115185308D01*
X189385358Y-115222265D01*
X188973057Y-115222265D01*
X188977317Y-115217474D01*
X188986912Y-115208335D01*
X189020173Y-115168635D01*
X189030195Y-115137485D01*
X189028763Y-115133727D01*
X189028460Y-115116531D01*
X189036627Y-115116767D01*
X189056886Y-115102582D01*
X189091004Y-115059751D01*
X189132450Y-114996726D01*
X189143029Y-114979079D01*
X189179711Y-114914222D01*
X189202953Y-114867995D01*
X189209040Y-114848005D01*
X189206911Y-114848295D01*
X189175048Y-114856625D01*
X189117114Y-114863529D01*
X189081250Y-114865841D01*
X189026267Y-114866128D01*
X188998182Y-114861671D01*
X188998790Y-114856687D01*
X188999340Y-114841276D01*
X188957945Y-114821789D01*
X188912000Y-114807897D01*
X188889584Y-114794874D01*
X188846812Y-114765997D01*
X188832449Y-114755859D01*
X188784016Y-114711499D01*
X188776666Y-114676672D01*
X188810462Y-114651310D01*
X188885466Y-114635342D01*
X188943452Y-114630584D01*
X189067423Y-114632012D01*
X189161496Y-114650143D01*
X189221894Y-114683906D01*
X189241733Y-114715032D01*
X189252989Y-114742974D01*
X189265343Y-114738765D01*
X189287381Y-114700034D01*
X189309929Y-114636411D01*
X189320309Y-114572250D01*
X189504666Y-114572250D01*
X189515250Y-114582833D01*
X189525833Y-114572250D01*
X189515250Y-114561666D01*
X189504666Y-114572250D01*
X189320309Y-114572250D01*
X189321602Y-114564258D01*
X189321762Y-114560735D01*
X189326989Y-114512186D01*
X189328423Y-114508750D01*
X189462333Y-114508750D01*
X189472916Y-114519333D01*
X189483500Y-114508750D01*
X189472916Y-114498166D01*
X189462333Y-114508750D01*
X189328423Y-114508750D01*
X189336280Y-114489930D01*
X189339162Y-114490104D01*
X189361525Y-114484193D01*
X189366638Y-114477719D01*
X189351561Y-114469274D01*
X189295389Y-114462965D01*
X189199313Y-114458862D01*
X189064520Y-114457033D01*
X189007987Y-114456944D01*
X188636272Y-114457306D01*
X188646339Y-114512824D01*
X188664430Y-114618214D01*
X188673530Y-114688686D01*
X188673872Y-114730637D01*
X188665687Y-114750467D01*
X188655111Y-114754604D01*
X188564663Y-114747590D01*
X188506226Y-114716693D01*
X188477095Y-114697424D01*
X188456954Y-114712371D01*
X188447273Y-114729243D01*
X188434482Y-114762736D01*
X188438285Y-114773333D01*
X188437436Y-114786291D01*
X188417817Y-114812092D01*
X188394628Y-114844760D01*
X188392362Y-114860473D01*
X188383337Y-114868330D01*
X188362212Y-114870095D01*
X188334142Y-114863074D01*
X188332719Y-114853464D01*
X188327336Y-114837749D01*
X188320582Y-114836833D01*
X188299229Y-114853204D01*
X188298166Y-114860344D01*
X188287294Y-114863339D01*
X188261047Y-114838010D01*
X188260152Y-114836910D01*
X188222137Y-114789964D01*
X188154752Y-114846666D01*
X188108189Y-114878980D01*
X188072812Y-114891562D01*
X188065766Y-114890017D01*
X188045907Y-114890296D01*
X188044166Y-114897320D01*
X188060730Y-114923149D01*
X188070625Y-114928648D01*
X188085344Y-114938309D01*
X188071369Y-114940995D01*
X188042025Y-114925794D01*
X188023421Y-114901121D01*
X187990048Y-114870686D01*
X187964468Y-114871368D01*
X187942114Y-114875946D01*
X187955435Y-114863280D01*
X187973321Y-114825412D01*
X187968853Y-114786553D01*
X187951966Y-114746591D01*
X187923023Y-114740018D01*
X187909418Y-114743440D01*
X187855852Y-114768629D01*
X187830435Y-114786780D01*
X187783615Y-114807202D01*
X187745769Y-114808582D01*
X187707105Y-114792218D01*
X187699379Y-114752329D01*
X187699577Y-114750014D01*
X187708550Y-114682740D01*
X187723550Y-114596936D01*
X187740927Y-114511632D01*
X187757031Y-114445856D01*
X187759501Y-114437598D01*
X187766601Y-114403397D01*
X187750394Y-114394676D01*
X187713877Y-114400872D01*
X187640265Y-114412387D01*
X187532150Y-114423388D01*
X187397361Y-114433436D01*
X187243728Y-114442092D01*
X187079080Y-114448921D01*
X186911247Y-114453482D01*
X186748059Y-114455338D01*
X186740014Y-114455353D01*
X186548415Y-114457872D01*
X186389512Y-114464765D01*
X186265422Y-114475809D01*
X186178263Y-114490785D01*
X186130150Y-114509470D01*
X186121483Y-114519878D01*
X186101434Y-114531604D01*
X186095462Y-114529069D01*
X186063980Y-114528805D01*
X186032905Y-114540728D01*
X186012401Y-114552041D01*
X186003129Y-114563829D01*
X185849440Y-114563829D01*
X185861474Y-114545183D01*
X185862397Y-114543493D01*
X185897316Y-114508075D01*
X185928912Y-114498166D01*
X185970419Y-114491503D01*
X186036401Y-114474149D01*
X186102792Y-114453106D01*
X186143651Y-114440251D01*
X186186900Y-114429774D01*
X186237832Y-114421264D01*
X186301741Y-114414308D01*
X186383921Y-114408495D01*
X186489664Y-114403413D01*
X186624265Y-114398650D01*
X186793017Y-114393793D01*
X186901166Y-114390961D01*
X187070320Y-114385979D01*
X187230364Y-114380045D01*
X187375158Y-114373481D01*
X187498559Y-114366606D01*
X187594427Y-114359742D01*
X187656620Y-114353211D01*
X187670926Y-114350712D01*
X187740390Y-114339682D01*
X187798796Y-114338184D01*
X187817249Y-114341294D01*
X187847192Y-114353758D01*
X187838092Y-114367223D01*
X187822825Y-114376160D01*
X187798852Y-114396656D01*
X187812109Y-114413979D01*
X187825894Y-114431467D01*
X187827924Y-114466272D01*
X187818203Y-114528370D01*
X187812195Y-114557604D01*
X187799091Y-114628347D01*
X187792409Y-114683189D01*
X187793004Y-114706673D01*
X187814888Y-114711115D01*
X187864233Y-114695077D01*
X187901009Y-114677856D01*
X187959573Y-114649224D01*
X187992132Y-114639283D01*
X188010141Y-114647006D01*
X188022717Y-114666973D01*
X188040897Y-114720945D01*
X188044166Y-114749525D01*
X188053563Y-114793710D01*
X188080619Y-114799998D01*
X188123630Y-114768137D01*
X188129446Y-114762097D01*
X188183065Y-114719194D01*
X188232345Y-114715837D01*
X188286949Y-114751623D01*
X188290958Y-114755337D01*
X188319923Y-114779426D01*
X188339612Y-114782643D01*
X188353664Y-114759532D01*
X188365715Y-114704637D01*
X188377597Y-114625407D01*
X188395664Y-114548390D01*
X188421153Y-114505431D01*
X188450332Y-114498875D01*
X188479467Y-114531063D01*
X188490078Y-114554796D01*
X188519253Y-114613061D01*
X188548166Y-114653607D01*
X188575148Y-114679520D01*
X188588198Y-114670245D01*
X188595849Y-114643062D01*
X188595406Y-114585992D01*
X188582735Y-114551083D01*
X188560862Y-114500046D01*
X188544199Y-114437497D01*
X188537531Y-114390211D01*
X188547385Y-114374689D01*
X188581852Y-114381211D01*
X188589245Y-114383372D01*
X188628616Y-114388982D01*
X188702363Y-114394084D01*
X188802526Y-114398332D01*
X188921149Y-114401383D01*
X189039000Y-114402832D01*
X189430583Y-114405166D01*
X189563905Y-114536814D01*
X189627170Y-114600636D01*
X189663753Y-114642682D01*
X189677970Y-114670007D01*
X189674135Y-114689669D01*
X189664447Y-114701242D01*
X189636974Y-114735827D01*
X189639481Y-114767002D01*
X189662746Y-114801999D01*
X189679158Y-114819642D01*
X189699121Y-114824874D01*
X189731152Y-114815365D01*
X189783770Y-114788787D01*
X189852864Y-114749997D01*
X190003686Y-114653205D01*
X190123578Y-114549431D01*
X190223806Y-114428333D01*
X190256679Y-114379390D01*
X190297941Y-114309815D01*
X190315295Y-114265098D01*
X190311565Y-114237267D01*
X190308524Y-114233010D01*
X190274002Y-114208225D01*
X190209683Y-114175486D01*
X190126269Y-114139170D01*
X190034460Y-114103655D01*
X189944957Y-114073320D01*
X189898122Y-114060599D01*
X190104155Y-114060599D01*
X190124419Y-114083120D01*
X190183296Y-114120636D01*
X190192583Y-114125882D01*
X190275817Y-114170450D01*
X190329446Y-114193112D01*
X190359337Y-114195071D01*
X190371356Y-114177526D01*
X190372500Y-114162715D01*
X190358668Y-114133206D01*
X190312995Y-114106366D01*
X190264236Y-114088632D01*
X190175145Y-114062792D01*
X190121425Y-114053635D01*
X190104155Y-114060599D01*
X189898122Y-114060599D01*
X189868461Y-114052543D01*
X189866282Y-114052071D01*
X189807928Y-114036306D01*
X189773313Y-114020529D01*
X189768760Y-114012125D01*
X189758192Y-113997029D01*
X189718436Y-113983208D01*
X189714879Y-113982467D01*
X189650612Y-113969614D01*
X189679905Y-113938171D01*
X189769250Y-113938171D01*
X189949166Y-113975097D01*
X190045961Y-113996220D01*
X190139771Y-114018802D01*
X190213134Y-114038598D01*
X190224333Y-114042012D01*
X190307029Y-114065314D01*
X190359123Y-114071110D01*
X190388978Y-114058431D01*
X190404962Y-114026308D01*
X190406388Y-114020930D01*
X190411483Y-113975385D01*
X190405080Y-113952139D01*
X190377090Y-113943787D01*
X190316840Y-113936115D01*
X190234400Y-113929603D01*
X190139844Y-113924733D01*
X190043242Y-113921986D01*
X189954666Y-113921842D01*
X189884190Y-113924781D01*
X189867065Y-113926456D01*
X189769250Y-113938171D01*
X189679905Y-113938171D01*
X189692209Y-113924964D01*
X189712173Y-113906791D01*
X189737332Y-113894420D01*
X189775444Y-113886823D01*
X189834265Y-113882974D01*
X189921552Y-113881846D01*
X190015275Y-113882200D01*
X190126456Y-113883839D01*
X190227845Y-113886962D01*
X190309027Y-113891138D01*
X190359585Y-113895937D01*
X190363214Y-113896556D01*
X190429685Y-113909026D01*
X190443242Y-113796138D01*
X190451393Y-113711135D01*
X190452405Y-113693833D01*
X190478333Y-113693833D01*
X190486077Y-113711255D01*
X190492444Y-113707944D01*
X190494977Y-113682824D01*
X190492444Y-113679722D01*
X190479860Y-113682627D01*
X190478333Y-113693833D01*
X190452405Y-113693833D01*
X190456329Y-113626757D01*
X190456982Y-113596234D01*
X190448014Y-113517108D01*
X190423339Y-113411271D01*
X190386695Y-113289615D01*
X190341819Y-113163033D01*
X190292450Y-113042417D01*
X190242324Y-112938661D01*
X190215333Y-112892008D01*
X190186370Y-112841247D01*
X190172472Y-112806862D01*
X190172896Y-112799825D01*
X190172749Y-112772149D01*
X190151685Y-112716312D01*
X190112967Y-112638900D01*
X190059862Y-112546496D01*
X190002216Y-112455583D01*
X189943534Y-112362295D01*
X189886107Y-112263195D01*
X189839973Y-112175816D01*
X189829683Y-112154178D01*
X189797301Y-112088162D01*
X189769890Y-112040734D01*
X189753252Y-112021905D01*
X189753001Y-112021887D01*
X189728143Y-112038092D01*
X189678664Y-112085987D01*
X189606127Y-112163998D01*
X189558479Y-112217458D01*
X189532913Y-112251023D01*
X189525833Y-112266495D01*
X189513057Y-112296368D01*
X189482131Y-112337442D01*
X189444159Y-112377722D01*
X189410243Y-112405213D01*
X189393207Y-112409773D01*
X189381243Y-112409710D01*
X189385931Y-112420081D01*
X189381512Y-112448275D01*
X189353637Y-112493310D01*
X189330993Y-112520481D01*
X189285894Y-112572292D01*
X189251946Y-112615521D01*
X189243326Y-112628576D01*
X189209084Y-112650141D01*
X189149783Y-112637950D01*
X189065279Y-112591961D01*
X189019926Y-112560899D01*
X188906198Y-112489455D01*
X188781161Y-112427434D01*
X188664054Y-112384197D01*
X188647416Y-112379667D01*
X188600486Y-112365641D01*
X188525849Y-112341106D01*
X188435558Y-112310087D01*
X188378351Y-112289846D01*
X188270048Y-112254179D01*
X188155554Y-112221480D01*
X188053633Y-112196946D01*
X188018518Y-112190228D01*
X187860838Y-112175378D01*
X187674516Y-112177433D01*
X187469251Y-112195355D01*
X187254743Y-112228109D01*
X187040694Y-112274656D01*
X186920260Y-112307659D01*
X186850342Y-112331670D01*
X186761568Y-112366893D01*
X186661221Y-112409880D01*
X186556581Y-112457183D01*
X186454931Y-112505356D01*
X186363552Y-112550950D01*
X186289727Y-112590518D01*
X186240738Y-112620613D01*
X186223833Y-112637379D01*
X186207266Y-112645384D01*
X186186791Y-112642087D01*
X186152759Y-112619404D01*
X186103154Y-112570287D01*
X186043576Y-112502168D01*
X185979625Y-112422482D01*
X185916900Y-112338663D01*
X185861001Y-112258144D01*
X185817529Y-112188359D01*
X185792083Y-112136742D01*
X185788522Y-112113376D01*
X185781368Y-112084781D01*
X185771543Y-112078584D01*
X185749231Y-112053705D01*
X185724479Y-112003236D01*
X185716225Y-111980521D01*
X185686377Y-111908591D01*
X185658607Y-111878843D01*
X185633439Y-111891156D01*
X185611395Y-111945407D01*
X185598127Y-112008131D01*
X185586401Y-112058486D01*
X185573329Y-112070755D01*
X185563625Y-112061480D01*
X185550949Y-112050741D01*
X185552927Y-112077549D01*
X185554749Y-112086376D01*
X185553890Y-112130285D01*
X185541596Y-112204181D01*
X185519803Y-112297886D01*
X185502350Y-112361542D01*
X185474068Y-112464593D01*
X185449494Y-112564130D01*
X185431952Y-112646173D01*
X185425940Y-112683125D01*
X185415705Y-112744560D01*
X185400476Y-112774415D01*
X185373721Y-112783417D01*
X185364712Y-112783666D01*
X185311376Y-112803721D01*
X185256269Y-112859836D01*
X185201716Y-112945936D01*
X185150044Y-113055946D01*
X185103576Y-113183792D01*
X185064638Y-113323398D01*
X185035555Y-113468690D01*
X185018653Y-113613594D01*
X185015336Y-113696434D01*
X184946027Y-113696434D01*
X184952476Y-113542056D01*
X184953405Y-113535083D01*
X184975000Y-113535083D01*
X184985583Y-113545666D01*
X184996166Y-113535083D01*
X184985583Y-113524500D01*
X184975000Y-113535083D01*
X184953405Y-113535083D01*
X184974213Y-113378927D01*
X185012984Y-113227450D01*
X185071998Y-113072963D01*
X185104112Y-113002557D01*
X185175792Y-112871586D01*
X185248289Y-112778241D01*
X185269131Y-112758711D01*
X185331618Y-112692498D01*
X185363282Y-112622450D01*
X185367392Y-112603321D01*
X185379628Y-112548934D01*
X185401188Y-112466109D01*
X185428848Y-112366843D01*
X185454520Y-112279252D01*
X185485746Y-112172635D01*
X185514559Y-112069637D01*
X185537357Y-111983396D01*
X185548874Y-111935148D01*
X185564167Y-111877790D01*
X185579040Y-111844172D01*
X185586194Y-111840119D01*
X185587428Y-111838222D01*
X185659388Y-111838222D01*
X185662294Y-111850805D01*
X185673500Y-111852333D01*
X185690922Y-111844588D01*
X185687611Y-111838222D01*
X185662491Y-111835688D01*
X185659388Y-111838222D01*
X185587428Y-111838222D01*
X185593917Y-111828254D01*
X185593744Y-111787146D01*
X185592677Y-111776765D01*
X185590622Y-111727471D01*
X185604305Y-111707349D01*
X185628850Y-111704166D01*
X185665665Y-111717473D01*
G37*
X185665665Y-111717473D02*
X185673500Y-111737479D01*
X185682588Y-111768983D01*
X185707239Y-111829028D01*
X185743533Y-111908572D01*
X185781323Y-111986187D01*
X185862371Y-112137975D01*
X185945572Y-112269932D01*
X186042404Y-112399146D01*
X186124563Y-112497255D01*
X186197256Y-112581260D01*
X186431813Y-112459390D01*
X186643660Y-112362061D01*
X186871243Y-112280312D01*
X187107528Y-112215209D01*
X187345483Y-112167817D01*
X187578073Y-112139204D01*
X187798266Y-112130435D01*
X187999026Y-112142576D01*
X188173321Y-112176694D01*
X188213500Y-112189318D01*
X188257001Y-112203468D01*
X188328598Y-112225923D01*
X188415844Y-112252798D01*
X188456916Y-112265305D01*
X188614401Y-112317295D01*
X188763358Y-112374362D01*
X188895232Y-112432768D01*
X189001473Y-112488772D01*
X189064217Y-112530879D01*
X189116936Y-112568120D01*
X189160041Y-112590380D01*
X189172408Y-112593166D01*
X189197419Y-112577227D01*
X189240131Y-112534374D01*
X189293515Y-112472054D01*
X189327107Y-112429254D01*
X189402268Y-112332980D01*
X189488531Y-112226341D01*
X189569519Y-112129514D01*
X189584041Y-112112643D01*
X189641277Y-112044248D01*
X189686045Y-111986316D01*
X189712161Y-111947086D01*
X189716333Y-111936416D01*
X189733732Y-111920522D01*
X189761730Y-111919652D01*
X189795056Y-111937251D01*
X189825808Y-111984028D01*
X189850394Y-112042833D01*
X189884749Y-112122549D01*
X189931903Y-112216203D01*
X189977697Y-112296833D01*
X190080198Y-112466702D01*
X190159441Y-112602585D01*
X190215291Y-112704237D01*
X190247613Y-112771413D01*
X190256275Y-112803867D01*
X190255634Y-112805559D01*
X190258873Y-112833321D01*
X190280651Y-112881327D01*
X190294308Y-112904587D01*
X190338016Y-112985439D01*
X190386065Y-113092220D01*
X190432258Y-113209861D01*
X190470397Y-113323291D01*
X190479594Y-113355166D01*
X190491063Y-113416838D01*
X190501073Y-113506925D01*
X190508293Y-113611509D01*
X190510907Y-113682743D01*
X190516075Y-113915069D01*
X190714162Y-113951540D01*
X190794106Y-113968147D01*
X190882624Y-113989567D01*
X190973414Y-114013831D01*
X191060171Y-114038968D01*
X191136590Y-114063007D01*
X191196366Y-114083978D01*
X191233196Y-114099909D01*
X191240774Y-114108830D01*
X191219166Y-114109399D01*
X191166121Y-114101041D01*
X191085850Y-114084058D01*
X190991841Y-114061415D01*
X190944000Y-114048923D01*
X190846408Y-114023613D01*
X190754185Y-114001245D01*
X190681640Y-113985228D01*
X190658250Y-113980836D01*
X190594875Y-113969222D01*
X190545396Y-113958353D01*
X190538453Y-113956468D01*
X190509441Y-113962131D01*
X190485322Y-114002457D01*
X190478135Y-114022515D01*
X190463681Y-114073234D01*
X190459428Y-114103284D01*
X190460348Y-114105776D01*
X190482202Y-114116950D01*
X190532074Y-114139360D01*
X190594750Y-114166277D01*
X190690053Y-114207921D01*
X190792221Y-114255003D01*
X190895507Y-114304563D01*
X190994167Y-114353638D01*
X191082457Y-114399268D01*
X191154633Y-114438491D01*
X191204948Y-114468347D01*
X191227660Y-114485875D01*
X191220385Y-114488772D01*
X191174086Y-114474912D01*
X191099805Y-114445887D01*
X191007276Y-114405761D01*
X190906231Y-114358595D01*
X190892301Y-114351828D01*
X190732035Y-114274593D01*
X190608413Y-114217282D01*
X190520866Y-114179645D01*
X190468824Y-114161428D01*
X190456846Y-114159500D01*
X190434293Y-114176695D01*
X190425155Y-114214351D01*
X190433797Y-114251574D01*
X190436754Y-114255658D01*
X190464004Y-114279469D01*
X190516923Y-114319189D01*
X190585733Y-114367578D01*
X190611744Y-114385212D01*
X190710820Y-114452631D01*
X190818605Y-114527509D01*
X190928455Y-114605062D01*
X191033727Y-114680508D01*
X191127777Y-114749064D01*
X191203961Y-114805948D01*
X191255634Y-114846376D01*
X191271495Y-114860146D01*
X191301400Y-114892917D01*
X191300975Y-114903584D01*
X191274273Y-114894739D01*
X191225346Y-114868976D01*
X191158248Y-114828887D01*
X191077030Y-114777065D01*
X190985744Y-114716104D01*
X190888445Y-114648596D01*
X190789184Y-114577134D01*
X190692014Y-114504311D01*
X190600988Y-114432720D01*
X190591844Y-114425293D01*
X190544918Y-114390949D01*
X190510101Y-114372289D01*
X190504478Y-114371166D01*
X190474763Y-114356582D01*
X190457166Y-114339416D01*
X190422925Y-114315795D01*
X190383294Y-114308183D01*
X190355459Y-114318134D01*
X190351333Y-114329850D01*
X190336235Y-114377539D01*
X190295894Y-114442989D01*
X190237744Y-114517044D01*
X190169215Y-114590547D01*
X190097739Y-114654343D01*
X190072617Y-114673241D01*
X189963411Y-114746322D01*
X189863090Y-114805323D01*
X189776768Y-114847994D01*
X189709559Y-114872083D01*
X189666579Y-114875339D01*
X189652833Y-114858000D01*
X189635689Y-114839221D01*
X189621083Y-114836833D01*
X189594577Y-114842469D01*
X189596416Y-114862551D01*
X189628453Y-114901841D01*
X189658125Y-114931896D01*
X189702776Y-114986102D01*
X189762905Y-115075173D01*
X189836370Y-115195484D01*
X189921027Y-115343407D01*
X190014733Y-115515316D01*
X190107368Y-115692074D01*
X190153028Y-115789363D01*
X190200416Y-115905420D01*
X190247620Y-116033755D01*
X190292730Y-116167877D01*
X190333835Y-116301296D01*
X190369026Y-116427522D01*
X190396392Y-116540063D01*
X190414022Y-116632428D01*
X190420006Y-116698128D01*
X190412923Y-116730191D01*
X190397831Y-116730646D01*
X190393666Y-116703733D01*
X190394408Y-116660643D01*
X190395474Y-116643658D01*
X190381926Y-116622087D01*
X190370663Y-116613698D01*
X190346421Y-116583535D01*
X190323054Y-116532114D01*
X190321230Y-116526664D01*
X190303726Y-116484015D01*
X190278020Y-116461140D01*
X190230604Y-116449457D01*
X190192583Y-116444924D01*
X190105898Y-116423043D01*
X190006738Y-116379139D01*
X189911548Y-116322102D01*
X189836772Y-116260824D01*
X189822166Y-116244644D01*
X189790861Y-116216528D01*
X189733482Y-116173358D01*
X189659924Y-116122401D01*
X189620198Y-116096292D01*
X189536299Y-116037782D01*
X189458583Y-115975951D01*
X189399718Y-115921146D01*
X189384499Y-115903776D01*
X189334348Y-115835203D01*
X189282176Y-115755366D01*
X189233704Y-115674142D01*
X189194647Y-115601403D01*
X189170726Y-115547025D01*
X189166000Y-115526480D01*
X189164085Y-115509876D01*
X189229500Y-115509876D01*
X189245356Y-115578721D01*
X189288852Y-115665232D01*
X189353872Y-115761525D01*
X189434305Y-115859713D01*
X189524036Y-115951911D01*
X189616953Y-116030232D01*
X189651903Y-116054767D01*
X189736568Y-116113450D01*
X189822196Y-116177485D01*
X189890454Y-116233155D01*
X189891275Y-116233876D01*
X189989799Y-116308496D01*
X190091733Y-116364872D01*
X190185461Y-116397226D01*
X190230584Y-116402701D01*
X190268528Y-116400086D01*
X190282188Y-116383345D01*
X190278468Y-116340368D01*
X190275575Y-116323791D01*
X190253464Y-116233070D01*
X190217289Y-116121538D01*
X190170760Y-115997633D01*
X190117588Y-115869786D01*
X190061484Y-115746435D01*
X190006157Y-115636013D01*
X189955318Y-115546955D01*
X189912678Y-115487696D01*
X189903742Y-115478533D01*
X189853937Y-115443287D01*
X189777439Y-115401076D01*
X189687741Y-115358252D01*
X189598334Y-115321166D01*
X189522709Y-115296171D01*
X189509689Y-115293019D01*
X189432301Y-115295160D01*
X189354435Y-115328031D01*
X189287327Y-115382935D01*
X189242210Y-115451177D01*
X189229500Y-115509876D01*
X189164085Y-115509876D01*
X189163361Y-115503608D01*
X189151298Y-115497078D01*
X189123590Y-115509438D01*
X189074019Y-115543238D01*
X189010970Y-115590037D01*
X188883386Y-115674421D01*
X188729644Y-115758258D01*
X188565352Y-115834073D01*
X188406116Y-115894394D01*
X188324778Y-115918669D01*
X188207566Y-115940864D01*
X188060455Y-115955760D01*
X187895289Y-115963097D01*
X187723914Y-115962612D01*
X187558174Y-115954045D01*
X187419750Y-115938636D01*
X187272973Y-115911170D01*
X187109180Y-115871431D01*
X186943458Y-115823735D01*
X186790896Y-115772396D01*
X186675482Y-115725814D01*
X186604900Y-115694739D01*
X186549608Y-115672113D01*
X186520610Y-115662419D01*
X186519594Y-115662333D01*
X186505842Y-115680857D01*
X186491864Y-115726705D01*
X186489173Y-115739828D01*
X186478676Y-115772806D01*
X186456453Y-115811923D01*
X186418711Y-115861785D01*
X186361656Y-115926998D01*
X186281495Y-116012167D01*
X186174609Y-116121720D01*
X186068001Y-116228926D01*
X185985348Y-116309337D01*
X185921704Y-116367097D01*
X185872126Y-116406347D01*
X185831671Y-116431230D01*
X185795395Y-116445889D01*
X185783931Y-116449079D01*
X185719899Y-116471084D01*
X185680538Y-116504456D01*
X185656455Y-116560644D01*
X185643576Y-116620125D01*
X185629653Y-116671032D01*
X185613014Y-116698137D01*
X185609040Y-116699500D01*
X185594010Y-116680194D01*
X185590006Y-116626171D01*
X185595927Y-116543274D01*
X185610673Y-116437346D01*
X185627345Y-116345997D01*
X185654237Y-116345997D01*
X185659319Y-116369675D01*
X185671524Y-116411053D01*
X185673500Y-116426064D01*
X185686643Y-116444448D01*
X185724673Y-116430747D01*
X185763942Y-116403166D01*
X185806752Y-116373717D01*
X185836087Y-116360854D01*
X185836716Y-116360833D01*
X185856928Y-116346554D01*
X185900563Y-116307639D01*
X185961704Y-116249969D01*
X186034435Y-116179428D01*
X186112842Y-116101896D01*
X186191008Y-116023257D01*
X186263018Y-115949392D01*
X186322955Y-115886184D01*
X186364904Y-115839515D01*
X186379551Y-115821083D01*
X186405130Y-115769777D01*
X186424057Y-115709212D01*
X186429581Y-115664196D01*
X186417877Y-115628706D01*
X186382242Y-115587993D01*
X186359126Y-115566337D01*
X186304177Y-115523723D01*
X186253846Y-115497270D01*
X186234103Y-115493000D01*
X186194545Y-115505213D01*
X186135582Y-115537092D01*
X186075666Y-115577666D01*
X186012256Y-115621121D01*
X185957816Y-115651666D01*
X185925979Y-115662333D01*
X185904628Y-115674031D01*
X185879983Y-115712388D01*
X185849519Y-115782292D01*
X185813966Y-115879291D01*
X185780697Y-115978398D01*
X185751662Y-116071987D01*
X185730723Y-116147226D01*
X185723159Y-116180916D01*
X185713033Y-116231973D01*
X185705158Y-116245317D01*
X185695389Y-116225082D01*
X185691338Y-116212666D01*
X185683185Y-116196423D01*
X185682261Y-116220466D01*
X185686229Y-116262551D01*
X185690919Y-116324005D01*
X185685796Y-116350351D01*
X185671538Y-116349037D01*
X185654237Y-116345997D01*
X185627345Y-116345997D01*
X185633144Y-116314228D01*
X185662238Y-116179764D01*
X185696854Y-116039795D01*
X185735892Y-115900165D01*
X185778252Y-115766715D01*
X185792484Y-115725833D01*
X185834650Y-115607961D01*
X185911250Y-115607961D01*
X185923410Y-115616394D01*
X185958917Y-115597085D01*
X186009120Y-115559562D01*
X186067611Y-115516452D01*
X186120889Y-115481516D01*
X186134326Y-115473909D01*
X186182403Y-115448693D01*
X186120687Y-115396763D01*
X186075413Y-115362964D01*
X186042033Y-115345493D01*
X186037900Y-115344833D01*
X186017751Y-115362788D01*
X185988871Y-115409081D01*
X185957234Y-115472352D01*
X185928814Y-115541239D01*
X185918251Y-115572375D01*
X185911250Y-115607961D01*
X185834650Y-115607961D01*
X185839874Y-115593359D01*
X185875580Y-115495308D01*
X185902056Y-115426198D01*
X185921760Y-115380549D01*
X185937147Y-115352881D01*
X185950672Y-115337713D01*
X185964793Y-115329567D01*
X185971200Y-115327030D01*
X185984399Y-115316112D01*
X185981456Y-115294672D01*
X185959195Y-115256803D01*
X185914438Y-115196599D01*
X185872624Y-115143750D01*
X185812249Y-115072433D01*
X185757800Y-115015488D01*
X185716594Y-114980185D01*
X185699998Y-114972258D01*
X185646635Y-114968873D01*
X185618920Y-114966967D01*
X185541893Y-114942860D01*
X185455862Y-114884219D01*
X185365918Y-114796430D01*
X185277151Y-114684876D01*
X185194651Y-114554943D01*
X185151066Y-114472028D01*
X185114982Y-114403281D01*
X185083358Y-114352570D01*
X185062208Y-114329362D01*
X185060122Y-114328833D01*
X185048592Y-114331281D01*
X185029679Y-114340819D01*
X184998624Y-114360738D01*
X184950666Y-114394329D01*
X184881047Y-114444883D01*
X184785006Y-114515691D01*
X184717387Y-114565804D01*
X184548262Y-114695893D01*
X184406212Y-114816294D01*
X184280630Y-114936605D01*
X184160908Y-115066427D01*
X184148895Y-115080250D01*
X184099947Y-115133288D01*
X184060623Y-115169454D01*
X184039929Y-115180791D01*
X184023138Y-115191192D01*
X184022500Y-115196666D01*
X184006319Y-115217133D01*
X184000789Y-115217833D01*
X183992456Y-115203091D01*
X184008359Y-115163315D01*
X184044686Y-115105175D01*
X184097624Y-115035344D01*
X184121012Y-115007467D01*
X184178309Y-114948053D01*
X184262316Y-114870123D01*
X184365439Y-114779966D01*
X184480084Y-114683871D01*
X184598657Y-114588127D01*
X184713564Y-114499024D01*
X184817210Y-114422851D01*
X184873981Y-114383886D01*
X184960880Y-114322466D01*
X185016830Y-114273958D01*
X185039950Y-114240501D01*
X185028354Y-114224235D01*
X185015618Y-114223000D01*
X184982077Y-114232924D01*
X184922753Y-114259039D01*
X184848226Y-114295858D01*
X184769074Y-114337897D01*
X184695878Y-114379667D01*
X184639216Y-114415684D01*
X184627154Y-114424447D01*
X184577925Y-114457745D01*
X184540269Y-114475883D01*
X184533793Y-114477000D01*
X184510664Y-114491023D01*
X184509333Y-114497763D01*
X184491390Y-114517899D01*
X184457122Y-114531630D01*
X184419668Y-114547041D01*
X184409497Y-114561421D01*
X184397880Y-114585607D01*
X184362384Y-114627198D01*
X184312396Y-114677415D01*
X184257304Y-114727481D01*
X184206495Y-114768618D01*
X184169356Y-114792049D01*
X184160228Y-114794500D01*
X184141535Y-114783460D01*
X184153570Y-114752865D01*
X184191742Y-114706502D01*
X184251463Y-114648157D01*
X184328143Y-114581618D01*
X184417193Y-114510669D01*
X184514024Y-114439099D01*
X184614046Y-114370694D01*
X184712669Y-114309241D01*
X184805304Y-114258525D01*
X184816557Y-114252972D01*
X184899052Y-114211506D01*
X184935336Y-114191873D01*
X185109155Y-114191873D01*
X185109842Y-114199616D01*
X185137792Y-114201083D01*
X185180872Y-114192443D01*
X185198120Y-114179258D01*
X185206250Y-114152837D01*
X185182744Y-114152919D01*
X185144301Y-114171065D01*
X185109155Y-114191873D01*
X184935336Y-114191873D01*
X184965110Y-114175763D01*
X185006809Y-114150188D01*
X185017333Y-114140279D01*
X185005935Y-114113388D01*
X184986599Y-114084170D01*
X184965484Y-114059615D01*
X184943845Y-114054673D01*
X184907383Y-114069675D01*
X184875474Y-114086740D01*
X184739628Y-114160813D01*
X184634757Y-114218827D01*
X184554416Y-114264518D01*
X184492161Y-114301625D01*
X184441548Y-114333886D01*
X184398159Y-114363605D01*
X184337028Y-114402354D01*
X184284821Y-114427792D01*
X184260576Y-114433785D01*
X184244090Y-114423847D01*
X184262253Y-114397117D01*
X184311846Y-114355729D01*
X184389649Y-114301816D01*
X184492444Y-114237512D01*
X184617011Y-114164950D01*
X184760133Y-114086265D01*
X184879109Y-114023796D01*
X184941968Y-113991423D01*
X184944563Y-113731503D01*
X184946027Y-113696434D01*
X185015336Y-113696434D01*
X185015479Y-113804929D01*
X185021495Y-113875610D01*
X185038746Y-113912991D01*
X185072595Y-113921587D01*
X185128403Y-113905914D01*
X185211534Y-113870486D01*
X185218416Y-113867427D01*
X185319418Y-113828326D01*
X185419909Y-113799446D01*
X185511161Y-113782238D01*
X185584448Y-113778153D01*
X185631041Y-113788640D01*
X185640298Y-113797317D01*
X185633165Y-113812510D01*
X185586862Y-113819915D01*
X185548089Y-113820833D01*
X185470254Y-113828392D01*
X185378893Y-113852989D01*
X185263630Y-113897502D01*
X185248508Y-113903970D01*
X185165988Y-113940015D01*
X185099234Y-113970054D01*
X185057037Y-113990083D01*
X185046989Y-113995788D01*
X185047370Y-114019461D01*
X185059775Y-114065881D01*
X185062093Y-114072697D01*
X185085457Y-114119624D01*
X185112741Y-114129957D01*
X185120064Y-114127808D01*
X185173190Y-114109617D01*
X185251165Y-114085587D01*
X185344265Y-114058409D01*
X185442769Y-114030775D01*
X185536952Y-114005373D01*
X185617093Y-113984897D01*
X185673467Y-113972035D01*
X185693929Y-113969000D01*
X185732055Y-113974776D01*
X185734696Y-113988606D01*
X185706555Y-114005243D01*
X185652338Y-114019437D01*
X185648091Y-114020139D01*
X185587430Y-114032865D01*
X185544152Y-114047342D01*
X185536966Y-114051523D01*
X185502081Y-114070127D01*
X185450644Y-114090194D01*
X185409187Y-114108599D01*
X185350107Y-114140069D01*
X185283813Y-114178346D01*
X185220715Y-114217172D01*
X185171222Y-114250288D01*
X185145745Y-114271436D01*
X185144333Y-114274350D01*
X185151980Y-114296076D01*
X185172287Y-114346903D01*
X185201297Y-114416994D01*
X185210023Y-114437741D01*
X185297640Y-114610604D01*
X185400688Y-114753189D01*
X185515236Y-114860242D01*
X185537904Y-114876085D01*
X185605239Y-114918747D01*
X185646827Y-114938029D01*
X185670947Y-114935734D01*
X185685878Y-114913669D01*
X185687831Y-114908780D01*
X185684928Y-114870929D01*
X185672168Y-114857176D01*
X185662967Y-114839877D01*
X185675071Y-114807157D01*
X185711455Y-114752819D01*
X185740820Y-114714140D01*
X185792089Y-114646267D01*
X185835259Y-114585805D01*
X185849440Y-114563829D01*
X186003129Y-114563829D01*
X186008327Y-114583068D01*
X186031233Y-114616739D01*
X186075085Y-114671818D01*
X186118319Y-114724814D01*
X186137270Y-114760948D01*
X186139166Y-114772439D01*
X186154736Y-114793712D01*
X186160333Y-114794500D01*
X186180660Y-114810792D01*
X186181500Y-114817078D01*
X186193326Y-114848873D01*
X186222131Y-114892643D01*
X186257905Y-114936119D01*
X186290640Y-114967028D01*
X186309392Y-114973865D01*
X186334061Y-114978557D01*
X186342057Y-114987925D01*
X186344908Y-115002770D01*
X186332937Y-114997604D01*
X186311085Y-114994807D01*
X186308500Y-115001841D01*
X186323326Y-115027086D01*
X186360746Y-115066257D01*
X186410168Y-115110407D01*
X186461000Y-115150591D01*
X186502651Y-115177863D01*
X186523899Y-115183776D01*
X186537443Y-115185702D01*
X186536566Y-115191367D01*
X186547567Y-115214937D01*
X186582028Y-115257078D01*
X186623971Y-115300249D01*
X186681696Y-115351680D01*
X186723635Y-115376179D01*
X186760878Y-115379522D01*
X186772138Y-115377416D01*
X186805161Y-115372865D01*
X186800201Y-115382692D01*
X186799362Y-115383261D01*
X186787118Y-115402154D01*
X186810219Y-115425845D01*
X186820528Y-115432600D01*
X186880953Y-115465804D01*
X186960192Y-115503081D01*
X187044474Y-115538648D01*
X187120029Y-115566721D01*
X187173084Y-115581519D01*
X187176333Y-115582009D01*
X187233715Y-115599676D01*
X187281584Y-115625663D01*
X187338518Y-115653493D01*
X187387418Y-115663821D01*
X187447510Y-115672328D01*
X187483250Y-115683355D01*
X187536410Y-115693375D01*
X187622576Y-115694965D01*
X187733394Y-115688741D01*
X187860514Y-115675318D01*
X187995586Y-115655312D01*
X188083691Y-115639070D01*
X188206484Y-115614432D01*
X188293337Y-115596566D01*
X188349834Y-115583997D01*
X188381557Y-115575249D01*
X188394089Y-115568847D01*
X188393013Y-115563315D01*
X188386800Y-115558952D01*
X188392016Y-115550968D01*
X188429779Y-115546039D01*
X188453646Y-115545354D01*
X188549518Y-115529272D01*
X188659798Y-115485973D01*
X188772391Y-115421254D01*
X188869666Y-115345947D01*
X188916747Y-115301325D01*
X188944692Y-115270310D01*
X188947951Y-115260195D01*
X188950263Y-115247901D01*
X188973057Y-115222265D01*
X189385358Y-115222265D01*
X189402891Y-115247644D01*
X189457887Y-115259521D01*
X189480224Y-115260166D01*
X189543032Y-115268321D01*
X189623838Y-115289412D01*
X189685350Y-115311213D01*
X189769305Y-115344269D01*
X189820324Y-115360218D01*
X189844438Y-115358497D01*
X189847679Y-115338540D01*
X189836077Y-115299786D01*
X189835168Y-115297208D01*
X189808329Y-115239344D01*
X189767253Y-115169041D01*
X189743204Y-115133166D01*
X189698161Y-115069646D01*
X189658034Y-115012939D01*
X189642054Y-114990291D01*
X189600909Y-114950069D01*
X189562011Y-114951243D01*
X189523762Y-114994192D01*
X189508824Y-115022041D01*
X189478950Y-115069895D01*
X189450383Y-115094399D01*
X189442560Y-115095259D01*
X189424109Y-115103507D01*
X189427087Y-115121105D01*
X189423665Y-115160390D01*
X189407167Y-115185308D01*
X189385358Y-115222265D01*
X188973057Y-115222265D01*
X188977317Y-115217474D01*
X188986912Y-115208335D01*
X189020173Y-115168635D01*
X189030195Y-115137485D01*
X189028763Y-115133727D01*
X189028460Y-115116531D01*
X189036627Y-115116767D01*
X189056886Y-115102582D01*
X189091004Y-115059751D01*
X189132450Y-114996726D01*
X189143029Y-114979079D01*
X189179711Y-114914222D01*
X189202953Y-114867995D01*
X189209040Y-114848005D01*
X189206911Y-114848295D01*
X189175048Y-114856625D01*
X189117114Y-114863529D01*
X189081250Y-114865841D01*
X189026267Y-114866128D01*
X188998182Y-114861671D01*
X188998790Y-114856687D01*
X188999340Y-114841276D01*
X188957945Y-114821789D01*
X188912000Y-114807897D01*
X188889584Y-114794874D01*
X188846812Y-114765997D01*
X188832449Y-114755859D01*
X188784016Y-114711499D01*
X188776666Y-114676672D01*
X188810462Y-114651310D01*
X188885466Y-114635342D01*
X188943452Y-114630584D01*
X189067423Y-114632012D01*
X189161496Y-114650143D01*
X189221894Y-114683906D01*
X189241733Y-114715032D01*
X189252989Y-114742974D01*
X189265343Y-114738765D01*
X189287381Y-114700034D01*
X189309929Y-114636411D01*
X189320309Y-114572250D01*
X189504666Y-114572250D01*
X189515250Y-114582833D01*
X189525833Y-114572250D01*
X189515250Y-114561666D01*
X189504666Y-114572250D01*
X189320309Y-114572250D01*
X189321602Y-114564258D01*
X189321762Y-114560735D01*
X189326989Y-114512186D01*
X189328423Y-114508750D01*
X189462333Y-114508750D01*
X189472916Y-114519333D01*
X189483500Y-114508750D01*
X189472916Y-114498166D01*
X189462333Y-114508750D01*
X189328423Y-114508750D01*
X189336280Y-114489930D01*
X189339162Y-114490104D01*
X189361525Y-114484193D01*
X189366638Y-114477719D01*
X189351561Y-114469274D01*
X189295389Y-114462965D01*
X189199313Y-114458862D01*
X189064520Y-114457033D01*
X189007987Y-114456944D01*
X188636272Y-114457306D01*
X188646339Y-114512824D01*
X188664430Y-114618214D01*
X188673530Y-114688686D01*
X188673872Y-114730637D01*
X188665687Y-114750467D01*
X188655111Y-114754604D01*
X188564663Y-114747590D01*
X188506226Y-114716693D01*
X188477095Y-114697424D01*
X188456954Y-114712371D01*
X188447273Y-114729243D01*
X188434482Y-114762736D01*
X188438285Y-114773333D01*
X188437436Y-114786291D01*
X188417817Y-114812092D01*
X188394628Y-114844760D01*
X188392362Y-114860473D01*
X188383337Y-114868330D01*
X188362212Y-114870095D01*
X188334142Y-114863074D01*
X188332719Y-114853464D01*
X188327336Y-114837749D01*
X188320582Y-114836833D01*
X188299229Y-114853204D01*
X188298166Y-114860344D01*
X188287294Y-114863339D01*
X188261047Y-114838010D01*
X188260152Y-114836910D01*
X188222137Y-114789964D01*
X188154752Y-114846666D01*
X188108189Y-114878980D01*
X188072812Y-114891562D01*
X188065766Y-114890017D01*
X188045907Y-114890296D01*
X188044166Y-114897320D01*
X188060730Y-114923149D01*
X188070625Y-114928648D01*
X188085344Y-114938309D01*
X188071369Y-114940995D01*
X188042025Y-114925794D01*
X188023421Y-114901121D01*
X187990048Y-114870686D01*
X187964468Y-114871368D01*
X187942114Y-114875946D01*
X187955435Y-114863280D01*
X187973321Y-114825412D01*
X187968853Y-114786553D01*
X187951966Y-114746591D01*
X187923023Y-114740018D01*
X187909418Y-114743440D01*
X187855852Y-114768629D01*
X187830435Y-114786780D01*
X187783615Y-114807202D01*
X187745769Y-114808582D01*
X187707105Y-114792218D01*
X187699379Y-114752329D01*
X187699577Y-114750014D01*
X187708550Y-114682740D01*
X187723550Y-114596936D01*
X187740927Y-114511632D01*
X187757031Y-114445856D01*
X187759501Y-114437598D01*
X187766601Y-114403397D01*
X187750394Y-114394676D01*
X187713877Y-114400872D01*
X187640265Y-114412387D01*
X187532150Y-114423388D01*
X187397361Y-114433436D01*
X187243728Y-114442092D01*
X187079080Y-114448921D01*
X186911247Y-114453482D01*
X186748059Y-114455338D01*
X186740014Y-114455353D01*
X186548415Y-114457872D01*
X186389512Y-114464765D01*
X186265422Y-114475809D01*
X186178263Y-114490785D01*
X186130150Y-114509470D01*
X186121483Y-114519878D01*
X186101434Y-114531604D01*
X186095462Y-114529069D01*
X186063980Y-114528805D01*
X186032905Y-114540728D01*
X186012401Y-114552041D01*
X186003129Y-114563829D01*
X185849440Y-114563829D01*
X185861474Y-114545183D01*
X185862397Y-114543493D01*
X185897316Y-114508075D01*
X185928912Y-114498166D01*
X185970419Y-114491503D01*
X186036401Y-114474149D01*
X186102792Y-114453106D01*
X186143651Y-114440251D01*
X186186900Y-114429774D01*
X186237832Y-114421264D01*
X186301741Y-114414308D01*
X186383921Y-114408495D01*
X186489664Y-114403413D01*
X186624265Y-114398650D01*
X186793017Y-114393793D01*
X186901166Y-114390961D01*
X187070320Y-114385979D01*
X187230364Y-114380045D01*
X187375158Y-114373481D01*
X187498559Y-114366606D01*
X187594427Y-114359742D01*
X187656620Y-114353211D01*
X187670926Y-114350712D01*
X187740390Y-114339682D01*
X187798796Y-114338184D01*
X187817249Y-114341294D01*
X187847192Y-114353758D01*
X187838092Y-114367223D01*
X187822825Y-114376160D01*
X187798852Y-114396656D01*
X187812109Y-114413979D01*
X187825894Y-114431467D01*
X187827924Y-114466272D01*
X187818203Y-114528370D01*
X187812195Y-114557604D01*
X187799091Y-114628347D01*
X187792409Y-114683189D01*
X187793004Y-114706673D01*
X187814888Y-114711115D01*
X187864233Y-114695077D01*
X187901009Y-114677856D01*
X187959573Y-114649224D01*
X187992132Y-114639283D01*
X188010141Y-114647006D01*
X188022717Y-114666973D01*
X188040897Y-114720945D01*
X188044166Y-114749525D01*
X188053563Y-114793710D01*
X188080619Y-114799998D01*
X188123630Y-114768137D01*
X188129446Y-114762097D01*
X188183065Y-114719194D01*
X188232345Y-114715837D01*
X188286949Y-114751623D01*
X188290958Y-114755337D01*
X188319923Y-114779426D01*
X188339612Y-114782643D01*
X188353664Y-114759532D01*
X188365715Y-114704637D01*
X188377597Y-114625407D01*
X188395664Y-114548390D01*
X188421153Y-114505431D01*
X188450332Y-114498875D01*
X188479467Y-114531063D01*
X188490078Y-114554796D01*
X188519253Y-114613061D01*
X188548166Y-114653607D01*
X188575148Y-114679520D01*
X188588198Y-114670245D01*
X188595849Y-114643062D01*
X188595406Y-114585992D01*
X188582735Y-114551083D01*
X188560862Y-114500046D01*
X188544199Y-114437497D01*
X188537531Y-114390211D01*
X188547385Y-114374689D01*
X188581852Y-114381211D01*
X188589245Y-114383372D01*
X188628616Y-114388982D01*
X188702363Y-114394084D01*
X188802526Y-114398332D01*
X188921149Y-114401383D01*
X189039000Y-114402832D01*
X189430583Y-114405166D01*
X189563905Y-114536814D01*
X189627170Y-114600636D01*
X189663753Y-114642682D01*
X189677970Y-114670007D01*
X189674135Y-114689669D01*
X189664447Y-114701242D01*
X189636974Y-114735827D01*
X189639481Y-114767002D01*
X189662746Y-114801999D01*
X189679158Y-114819642D01*
X189699121Y-114824874D01*
X189731152Y-114815365D01*
X189783770Y-114788787D01*
X189852864Y-114749997D01*
X190003686Y-114653205D01*
X190123578Y-114549431D01*
X190223806Y-114428333D01*
X190256679Y-114379390D01*
X190297941Y-114309815D01*
X190315295Y-114265098D01*
X190311565Y-114237267D01*
X190308524Y-114233010D01*
X190274002Y-114208225D01*
X190209683Y-114175486D01*
X190126269Y-114139170D01*
X190034460Y-114103655D01*
X189944957Y-114073320D01*
X189898122Y-114060599D01*
X190104155Y-114060599D01*
X190124419Y-114083120D01*
X190183296Y-114120636D01*
X190192583Y-114125882D01*
X190275817Y-114170450D01*
X190329446Y-114193112D01*
X190359337Y-114195071D01*
X190371356Y-114177526D01*
X190372500Y-114162715D01*
X190358668Y-114133206D01*
X190312995Y-114106366D01*
X190264236Y-114088632D01*
X190175145Y-114062792D01*
X190121425Y-114053635D01*
X190104155Y-114060599D01*
X189898122Y-114060599D01*
X189868461Y-114052543D01*
X189866282Y-114052071D01*
X189807928Y-114036306D01*
X189773313Y-114020529D01*
X189768760Y-114012125D01*
X189758192Y-113997029D01*
X189718436Y-113983208D01*
X189714879Y-113982467D01*
X189650612Y-113969614D01*
X189679905Y-113938171D01*
X189769250Y-113938171D01*
X189949166Y-113975097D01*
X190045961Y-113996220D01*
X190139771Y-114018802D01*
X190213134Y-114038598D01*
X190224333Y-114042012D01*
X190307029Y-114065314D01*
X190359123Y-114071110D01*
X190388978Y-114058431D01*
X190404962Y-114026308D01*
X190406388Y-114020930D01*
X190411483Y-113975385D01*
X190405080Y-113952139D01*
X190377090Y-113943787D01*
X190316840Y-113936115D01*
X190234400Y-113929603D01*
X190139844Y-113924733D01*
X190043242Y-113921986D01*
X189954666Y-113921842D01*
X189884190Y-113924781D01*
X189867065Y-113926456D01*
X189769250Y-113938171D01*
X189679905Y-113938171D01*
X189692209Y-113924964D01*
X189712173Y-113906791D01*
X189737332Y-113894420D01*
X189775444Y-113886823D01*
X189834265Y-113882974D01*
X189921552Y-113881846D01*
X190015275Y-113882200D01*
X190126456Y-113883839D01*
X190227845Y-113886962D01*
X190309027Y-113891138D01*
X190359585Y-113895937D01*
X190363214Y-113896556D01*
X190429685Y-113909026D01*
X190443242Y-113796138D01*
X190451393Y-113711135D01*
X190452405Y-113693833D01*
X190478333Y-113693833D01*
X190486077Y-113711255D01*
X190492444Y-113707944D01*
X190494977Y-113682824D01*
X190492444Y-113679722D01*
X190479860Y-113682627D01*
X190478333Y-113693833D01*
X190452405Y-113693833D01*
X190456329Y-113626757D01*
X190456982Y-113596234D01*
X190448014Y-113517108D01*
X190423339Y-113411271D01*
X190386695Y-113289615D01*
X190341819Y-113163033D01*
X190292450Y-113042417D01*
X190242324Y-112938661D01*
X190215333Y-112892008D01*
X190186370Y-112841247D01*
X190172472Y-112806862D01*
X190172896Y-112799825D01*
X190172749Y-112772149D01*
X190151685Y-112716312D01*
X190112967Y-112638900D01*
X190059862Y-112546496D01*
X190002216Y-112455583D01*
X189943534Y-112362295D01*
X189886107Y-112263195D01*
X189839973Y-112175816D01*
X189829683Y-112154178D01*
X189797301Y-112088162D01*
X189769890Y-112040734D01*
X189753252Y-112021905D01*
X189753001Y-112021887D01*
X189728143Y-112038092D01*
X189678664Y-112085987D01*
X189606127Y-112163998D01*
X189558479Y-112217458D01*
X189532913Y-112251023D01*
X189525833Y-112266495D01*
X189513057Y-112296368D01*
X189482131Y-112337442D01*
X189444159Y-112377722D01*
X189410243Y-112405213D01*
X189393207Y-112409773D01*
X189381243Y-112409710D01*
X189385931Y-112420081D01*
X189381512Y-112448275D01*
X189353637Y-112493310D01*
X189330993Y-112520481D01*
X189285894Y-112572292D01*
X189251946Y-112615521D01*
X189243326Y-112628576D01*
X189209084Y-112650141D01*
X189149783Y-112637950D01*
X189065279Y-112591961D01*
X189019926Y-112560899D01*
X188906198Y-112489455D01*
X188781161Y-112427434D01*
X188664054Y-112384197D01*
X188647416Y-112379667D01*
X188600486Y-112365641D01*
X188525849Y-112341106D01*
X188435558Y-112310087D01*
X188378351Y-112289846D01*
X188270048Y-112254179D01*
X188155554Y-112221480D01*
X188053633Y-112196946D01*
X188018518Y-112190228D01*
X187860838Y-112175378D01*
X187674516Y-112177433D01*
X187469251Y-112195355D01*
X187254743Y-112228109D01*
X187040694Y-112274656D01*
X186920260Y-112307659D01*
X186850342Y-112331670D01*
X186761568Y-112366893D01*
X186661221Y-112409880D01*
X186556581Y-112457183D01*
X186454931Y-112505356D01*
X186363552Y-112550950D01*
X186289727Y-112590518D01*
X186240738Y-112620613D01*
X186223833Y-112637379D01*
X186207266Y-112645384D01*
X186186791Y-112642087D01*
X186152759Y-112619404D01*
X186103154Y-112570287D01*
X186043576Y-112502168D01*
X185979625Y-112422482D01*
X185916900Y-112338663D01*
X185861001Y-112258144D01*
X185817529Y-112188359D01*
X185792083Y-112136742D01*
X185788522Y-112113376D01*
X185781368Y-112084781D01*
X185771543Y-112078584D01*
X185749231Y-112053705D01*
X185724479Y-112003236D01*
X185716225Y-111980521D01*
X185686377Y-111908591D01*
X185658607Y-111878843D01*
X185633439Y-111891156D01*
X185611395Y-111945407D01*
X185598127Y-112008131D01*
X185586401Y-112058486D01*
X185573329Y-112070755D01*
X185563625Y-112061480D01*
X185550949Y-112050741D01*
X185552927Y-112077549D01*
X185554749Y-112086376D01*
X185553890Y-112130285D01*
X185541596Y-112204181D01*
X185519803Y-112297886D01*
X185502350Y-112361542D01*
X185474068Y-112464593D01*
X185449494Y-112564130D01*
X185431952Y-112646173D01*
X185425940Y-112683125D01*
X185415705Y-112744560D01*
X185400476Y-112774415D01*
X185373721Y-112783417D01*
X185364712Y-112783666D01*
X185311376Y-112803721D01*
X185256269Y-112859836D01*
X185201716Y-112945936D01*
X185150044Y-113055946D01*
X185103576Y-113183792D01*
X185064638Y-113323398D01*
X185035555Y-113468690D01*
X185018653Y-113613594D01*
X185015336Y-113696434D01*
X184946027Y-113696434D01*
X184952476Y-113542056D01*
X184953405Y-113535083D01*
X184975000Y-113535083D01*
X184985583Y-113545666D01*
X184996166Y-113535083D01*
X184985583Y-113524500D01*
X184975000Y-113535083D01*
X184953405Y-113535083D01*
X184974213Y-113378927D01*
X185012984Y-113227450D01*
X185071998Y-113072963D01*
X185104112Y-113002557D01*
X185175792Y-112871586D01*
X185248289Y-112778241D01*
X185269131Y-112758711D01*
X185331618Y-112692498D01*
X185363282Y-112622450D01*
X185367392Y-112603321D01*
X185379628Y-112548934D01*
X185401188Y-112466109D01*
X185428848Y-112366843D01*
X185454520Y-112279252D01*
X185485746Y-112172635D01*
X185514559Y-112069637D01*
X185537357Y-111983396D01*
X185548874Y-111935148D01*
X185564167Y-111877790D01*
X185579040Y-111844172D01*
X185586194Y-111840119D01*
X185587428Y-111838222D01*
X185659388Y-111838222D01*
X185662294Y-111850805D01*
X185673500Y-111852333D01*
X185690922Y-111844588D01*
X185687611Y-111838222D01*
X185662491Y-111835688D01*
X185659388Y-111838222D01*
X185587428Y-111838222D01*
X185593917Y-111828254D01*
X185593744Y-111787146D01*
X185592677Y-111776765D01*
X185590622Y-111727471D01*
X185604305Y-111707349D01*
X185628850Y-111704166D01*
X185665665Y-111717473D01*
G36*
X187698444Y-115669388D02*
G01*
X187695538Y-115681972D01*
X187684333Y-115683500D01*
X187666910Y-115675755D01*
X187670222Y-115669388D01*
X187695342Y-115666855D01*
X187698444Y-115669388D01*
G37*
X187698444Y-115669388D02*
X187695538Y-115681972D01*
X187684333Y-115683500D01*
X187666910Y-115675755D01*
X187670222Y-115669388D01*
X187695342Y-115666855D01*
X187698444Y-115669388D01*
G36*
X187366833Y-115630583D02*
G01*
X187356250Y-115641166D01*
X187345666Y-115630583D01*
X187356250Y-115620000D01*
X187366833Y-115630583D01*
G37*
X187366833Y-115630583D02*
X187356250Y-115641166D01*
X187345666Y-115630583D01*
X187356250Y-115620000D01*
X187366833Y-115630583D01*
G36*
X187726666Y-115630583D02*
G01*
X187716083Y-115641166D01*
X187705500Y-115630583D01*
X187716083Y-115620000D01*
X187726666Y-115630583D01*
G37*
X187726666Y-115630583D02*
X187716083Y-115641166D01*
X187705500Y-115630583D01*
X187716083Y-115620000D01*
X187726666Y-115630583D01*
G36*
X187218666Y-115545916D02*
G01*
X187208083Y-115556500D01*
X187197500Y-115545916D01*
X187208083Y-115535333D01*
X187218666Y-115545916D01*
G37*
X187218666Y-115545916D02*
X187208083Y-115556500D01*
X187197500Y-115545916D01*
X187208083Y-115535333D01*
X187218666Y-115545916D01*
G36*
X187058817Y-115506090D02*
G01*
X187088610Y-115523170D01*
X187083619Y-115534215D01*
X187071749Y-115535333D01*
X187043046Y-115519960D01*
X187038899Y-115514409D01*
X187042306Y-115502381D01*
X187058817Y-115506090D01*
G37*
X187058817Y-115506090D02*
X187088610Y-115523170D01*
X187083619Y-115534215D01*
X187071749Y-115535333D01*
X187043046Y-115519960D01*
X187038899Y-115514409D01*
X187042306Y-115502381D01*
X187058817Y-115506090D01*
G36*
X187761944Y-115521222D02*
G01*
X187759038Y-115533805D01*
X187747833Y-115535333D01*
X187730410Y-115527588D01*
X187733722Y-115521222D01*
X187758842Y-115518688D01*
X187761944Y-115521222D01*
G37*
X187761944Y-115521222D02*
X187759038Y-115533805D01*
X187747833Y-115535333D01*
X187730410Y-115527588D01*
X187733722Y-115521222D01*
X187758842Y-115518688D01*
X187761944Y-115521222D01*
G36*
X187874833Y-115524750D02*
G01*
X187864250Y-115535333D01*
X187853666Y-115524750D01*
X187864250Y-115514166D01*
X187874833Y-115524750D01*
G37*
X187874833Y-115524750D02*
X187864250Y-115535333D01*
X187853666Y-115524750D01*
X187864250Y-115514166D01*
X187874833Y-115524750D01*
G36*
X188488666Y-115524750D02*
G01*
X188478083Y-115535333D01*
X188467500Y-115524750D01*
X188478083Y-115514166D01*
X188488666Y-115524750D01*
G37*
X188488666Y-115524750D02*
X188478083Y-115535333D01*
X188467500Y-115524750D01*
X188478083Y-115514166D01*
X188488666Y-115524750D01*
G36*
X188573333Y-115503583D02*
G01*
X188562750Y-115514166D01*
X188552166Y-115503583D01*
X188562750Y-115493000D01*
X188573333Y-115503583D01*
G37*
X188573333Y-115503583D02*
X188562750Y-115514166D01*
X188552166Y-115503583D01*
X188562750Y-115493000D01*
X188573333Y-115503583D01*
G36*
X187822217Y-115006416D02*
G01*
X187857759Y-115020881D01*
X187873663Y-115017472D01*
X187887185Y-115019655D01*
X187884482Y-115032719D01*
X187890050Y-115065974D01*
X187917708Y-115112276D01*
X187927032Y-115123777D01*
X187964567Y-115181728D01*
X187979473Y-115250568D01*
X187980640Y-115286625D01*
X187976125Y-115349278D01*
X187964042Y-115383556D01*
X187957235Y-115387166D01*
X187943311Y-115402649D01*
X187946409Y-115420016D01*
X187948566Y-115442282D01*
X187940489Y-115441415D01*
X187913828Y-115445847D01*
X187895249Y-115462154D01*
X187852045Y-115485933D01*
X187790555Y-115490867D01*
X187728947Y-115478583D01*
X187685392Y-115450703D01*
X187680193Y-115442931D01*
X187669227Y-115396520D01*
X187667390Y-115325079D01*
X187670421Y-115283117D01*
X187680626Y-115193400D01*
X187690518Y-115134418D01*
X187703553Y-115094744D01*
X187723189Y-115062949D01*
X187744963Y-115036666D01*
X187782165Y-115001427D01*
X187809642Y-114998294D01*
X187822217Y-115006416D01*
G37*
X187822217Y-115006416D02*
X187857759Y-115020881D01*
X187873663Y-115017472D01*
X187887185Y-115019655D01*
X187884482Y-115032719D01*
X187890050Y-115065974D01*
X187917708Y-115112276D01*
X187927032Y-115123777D01*
X187964567Y-115181728D01*
X187979473Y-115250568D01*
X187980640Y-115286625D01*
X187976125Y-115349278D01*
X187964042Y-115383556D01*
X187957235Y-115387166D01*
X187943311Y-115402649D01*
X187946409Y-115420016D01*
X187948566Y-115442282D01*
X187940489Y-115441415D01*
X187913828Y-115445847D01*
X187895249Y-115462154D01*
X187852045Y-115485933D01*
X187790555Y-115490867D01*
X187728947Y-115478583D01*
X187685392Y-115450703D01*
X187680193Y-115442931D01*
X187669227Y-115396520D01*
X187667390Y-115325079D01*
X187670421Y-115283117D01*
X187680626Y-115193400D01*
X187690518Y-115134418D01*
X187703553Y-115094744D01*
X187723189Y-115062949D01*
X187744963Y-115036666D01*
X187782165Y-115001427D01*
X187809642Y-114998294D01*
X187822217Y-115006416D01*
G36*
X188481611Y-115478888D02*
G01*
X188478705Y-115491472D01*
X188467500Y-115493000D01*
X188450077Y-115485255D01*
X188453388Y-115478888D01*
X188478508Y-115476355D01*
X188481611Y-115478888D01*
G37*
X188481611Y-115478888D02*
X188478705Y-115491472D01*
X188467500Y-115493000D01*
X188450077Y-115485255D01*
X188453388Y-115478888D01*
X188478508Y-115476355D01*
X188481611Y-115478888D01*
G36*
X188629777Y-115478888D02*
G01*
X188626872Y-115491472D01*
X188615666Y-115493000D01*
X188598244Y-115485255D01*
X188601555Y-115478888D01*
X188626675Y-115476355D01*
X188629777Y-115478888D01*
G37*
X188629777Y-115478888D02*
X188626872Y-115491472D01*
X188615666Y-115493000D01*
X188598244Y-115485255D01*
X188601555Y-115478888D01*
X188626675Y-115476355D01*
X188629777Y-115478888D01*
G36*
X186964666Y-115461250D02*
G01*
X186954083Y-115471833D01*
X186943500Y-115461250D01*
X186954083Y-115450666D01*
X186964666Y-115461250D01*
G37*
X186964666Y-115461250D02*
X186954083Y-115471833D01*
X186943500Y-115461250D01*
X186954083Y-115450666D01*
X186964666Y-115461250D01*
G36*
X187070500Y-115461250D02*
G01*
X187059916Y-115471833D01*
X187049333Y-115461250D01*
X187059916Y-115450666D01*
X187070500Y-115461250D01*
G37*
X187070500Y-115461250D02*
X187059916Y-115471833D01*
X187049333Y-115461250D01*
X187059916Y-115450666D01*
X187070500Y-115461250D01*
G36*
X188573333Y-115461250D02*
G01*
X188562750Y-115471833D01*
X188552166Y-115461250D01*
X188562750Y-115450666D01*
X188573333Y-115461250D01*
G37*
X188573333Y-115461250D02*
X188562750Y-115471833D01*
X188552166Y-115461250D01*
X188562750Y-115450666D01*
X188573333Y-115461250D01*
G36*
X188777556Y-115358698D02*
G01*
X188776968Y-115374031D01*
X188765107Y-115411350D01*
X188758978Y-115420243D01*
X188750109Y-115415634D01*
X188750697Y-115400302D01*
X188762559Y-115362983D01*
X188768687Y-115354089D01*
X188777556Y-115358698D01*
G37*
X188777556Y-115358698D02*
X188776968Y-115374031D01*
X188765107Y-115411350D01*
X188758978Y-115420243D01*
X188750109Y-115415634D01*
X188750697Y-115400302D01*
X188762559Y-115362983D01*
X188768687Y-115354089D01*
X188777556Y-115358698D01*
G36*
X187070500Y-115397750D02*
G01*
X187059916Y-115408333D01*
X187049333Y-115397750D01*
X187059916Y-115387166D01*
X187070500Y-115397750D01*
G37*
X187070500Y-115397750D02*
X187059916Y-115408333D01*
X187049333Y-115397750D01*
X187059916Y-115387166D01*
X187070500Y-115397750D01*
G36*
X188631100Y-115395545D02*
G01*
X188624787Y-115405165D01*
X188603319Y-115406662D01*
X188580733Y-115401492D01*
X188590531Y-115393874D01*
X188623612Y-115391350D01*
X188631100Y-115395545D01*
G37*
X188631100Y-115395545D02*
X188624787Y-115405165D01*
X188603319Y-115406662D01*
X188580733Y-115401492D01*
X188590531Y-115393874D01*
X188623612Y-115391350D01*
X188631100Y-115395545D01*
G36*
X186724777Y-115330722D02*
G01*
X186727311Y-115355842D01*
X186724777Y-115358944D01*
X186712194Y-115356038D01*
X186710666Y-115344833D01*
X186718411Y-115327410D01*
X186724777Y-115330722D01*
G37*
X186724777Y-115330722D02*
X186727311Y-115355842D01*
X186724777Y-115358944D01*
X186712194Y-115356038D01*
X186710666Y-115344833D01*
X186718411Y-115327410D01*
X186724777Y-115330722D01*
G36*
X187269171Y-114828253D02*
G01*
X187287963Y-114857594D01*
X187294214Y-114924414D01*
X187287906Y-115025752D01*
X187271266Y-115145283D01*
X187242073Y-115221237D01*
X187187748Y-115285864D01*
X187118859Y-115331605D01*
X187045974Y-115350901D01*
X186994492Y-115343259D01*
X186958534Y-115321793D01*
X186924235Y-115290493D01*
X186900839Y-115260012D01*
X186897591Y-115241004D01*
X186904019Y-115239000D01*
X186918416Y-115220395D01*
X186915828Y-115170208D01*
X186910931Y-115132160D01*
X186913914Y-115126125D01*
X186915527Y-115129618D01*
X186931018Y-115134738D01*
X186953944Y-115112217D01*
X186977066Y-115074122D01*
X186993142Y-115032521D01*
X186994932Y-114999480D01*
X186994445Y-114998080D01*
X186996462Y-114963781D01*
X187005314Y-114954291D01*
X187019163Y-114956909D01*
X187015569Y-114978608D01*
X187014908Y-114995489D01*
X187035430Y-114977515D01*
X187047064Y-114963833D01*
X187111452Y-114888109D01*
X187158345Y-114841565D01*
X187195546Y-114819438D01*
X187230860Y-114816965D01*
X187269171Y-114828253D01*
G37*
X187269171Y-114828253D02*
X187287963Y-114857594D01*
X187294214Y-114924414D01*
X187287906Y-115025752D01*
X187271266Y-115145283D01*
X187242073Y-115221237D01*
X187187748Y-115285864D01*
X187118859Y-115331605D01*
X187045974Y-115350901D01*
X186994492Y-115343259D01*
X186958534Y-115321793D01*
X186924235Y-115290493D01*
X186900839Y-115260012D01*
X186897591Y-115241004D01*
X186904019Y-115239000D01*
X186918416Y-115220395D01*
X186915828Y-115170208D01*
X186910931Y-115132160D01*
X186913914Y-115126125D01*
X186915527Y-115129618D01*
X186931018Y-115134738D01*
X186953944Y-115112217D01*
X186977066Y-115074122D01*
X186993142Y-115032521D01*
X186994932Y-114999480D01*
X186994445Y-114998080D01*
X186996462Y-114963781D01*
X187005314Y-114954291D01*
X187019163Y-114956909D01*
X187015569Y-114978608D01*
X187014908Y-114995489D01*
X187035430Y-114977515D01*
X187047064Y-114963833D01*
X187111452Y-114888109D01*
X187158345Y-114841565D01*
X187195546Y-114819438D01*
X187230860Y-114816965D01*
X187269171Y-114828253D01*
G36*
X188065333Y-115355416D02*
G01*
X188054750Y-115366000D01*
X188044166Y-115355416D01*
X188054750Y-115344833D01*
X188065333Y-115355416D01*
G37*
X188065333Y-115355416D02*
X188054750Y-115366000D01*
X188044166Y-115355416D01*
X188054750Y-115344833D01*
X188065333Y-115355416D01*
G36*
X188015944Y-115309555D02*
G01*
X188018477Y-115334675D01*
X188015944Y-115337777D01*
X188003360Y-115334872D01*
X188001833Y-115323666D01*
X188009577Y-115306244D01*
X188015944Y-115309555D01*
G37*
X188015944Y-115309555D02*
X188018477Y-115334675D01*
X188015944Y-115337777D01*
X188003360Y-115334872D01*
X188001833Y-115323666D01*
X188009577Y-115306244D01*
X188015944Y-115309555D01*
G36*
X188827333Y-115334250D02*
G01*
X188816750Y-115344833D01*
X188806166Y-115334250D01*
X188816750Y-115323666D01*
X188827333Y-115334250D01*
G37*
X188827333Y-115334250D02*
X188816750Y-115344833D01*
X188806166Y-115334250D01*
X188816750Y-115323666D01*
X188827333Y-115334250D01*
G36*
X186795333Y-115313083D02*
G01*
X186784750Y-115323666D01*
X186774166Y-115313083D01*
X186784750Y-115302500D01*
X186795333Y-115313083D01*
G37*
X186795333Y-115313083D02*
X186784750Y-115323666D01*
X186774166Y-115313083D01*
X186784750Y-115302500D01*
X186795333Y-115313083D01*
G36*
X186880000Y-115313083D02*
G01*
X186869416Y-115323666D01*
X186858833Y-115313083D01*
X186869416Y-115302500D01*
X186880000Y-115313083D01*
G37*
X186880000Y-115313083D02*
X186869416Y-115323666D01*
X186858833Y-115313083D01*
X186869416Y-115302500D01*
X186880000Y-115313083D01*
G36*
X188493475Y-114917917D02*
G01*
X188509639Y-114931850D01*
X188540886Y-114951914D01*
X188557835Y-114949746D01*
X188570280Y-114949359D01*
X188566773Y-114957323D01*
X188572342Y-114983717D01*
X188602136Y-115024047D01*
X188616155Y-115038385D01*
X188661338Y-115097160D01*
X188690460Y-115163151D01*
X188692533Y-115172311D01*
X188696982Y-115228785D01*
X188679060Y-115266244D01*
X188658702Y-115285020D01*
X188596820Y-115314821D01*
X188523116Y-115323015D01*
X188455064Y-115309606D01*
X188417863Y-115284958D01*
X188395407Y-115241718D01*
X188384506Y-115170162D01*
X188382833Y-115110133D01*
X188380647Y-115032401D01*
X188372071Y-114985432D01*
X188354076Y-114957792D01*
X188339639Y-114947041D01*
X188296405Y-114931427D01*
X188270847Y-114934471D01*
X188255841Y-114940083D01*
X188270811Y-114921268D01*
X188297401Y-114904679D01*
X188329281Y-114920865D01*
X188332461Y-114923455D01*
X188362734Y-114941450D01*
X188377337Y-114927140D01*
X188377456Y-114926791D01*
X188403662Y-114905033D01*
X188448578Y-114902314D01*
X188493475Y-114917917D01*
G37*
X188493475Y-114917917D02*
X188509639Y-114931850D01*
X188540886Y-114951914D01*
X188557835Y-114949746D01*
X188570280Y-114949359D01*
X188566773Y-114957323D01*
X188572342Y-114983717D01*
X188602136Y-115024047D01*
X188616155Y-115038385D01*
X188661338Y-115097160D01*
X188690460Y-115163151D01*
X188692533Y-115172311D01*
X188696982Y-115228785D01*
X188679060Y-115266244D01*
X188658702Y-115285020D01*
X188596820Y-115314821D01*
X188523116Y-115323015D01*
X188455064Y-115309606D01*
X188417863Y-115284958D01*
X188395407Y-115241718D01*
X188384506Y-115170162D01*
X188382833Y-115110133D01*
X188380647Y-115032401D01*
X188372071Y-114985432D01*
X188354076Y-114957792D01*
X188339639Y-114947041D01*
X188296405Y-114931427D01*
X188270847Y-114934471D01*
X188255841Y-114940083D01*
X188270811Y-114921268D01*
X188297401Y-114904679D01*
X188329281Y-114920865D01*
X188332461Y-114923455D01*
X188362734Y-114941450D01*
X188377337Y-114927140D01*
X188377456Y-114926791D01*
X188403662Y-114905033D01*
X188448578Y-114902314D01*
X188493475Y-114917917D01*
G36*
X188763833Y-115313083D02*
G01*
X188753250Y-115323666D01*
X188742666Y-115313083D01*
X188753250Y-115302500D01*
X188763833Y-115313083D01*
G37*
X188763833Y-115313083D02*
X188753250Y-115323666D01*
X188742666Y-115313083D01*
X188753250Y-115302500D01*
X188763833Y-115313083D01*
G36*
X188848500Y-115291916D02*
G01*
X188837916Y-115302500D01*
X188827333Y-115291916D01*
X188837916Y-115281333D01*
X188848500Y-115291916D01*
G37*
X188848500Y-115291916D02*
X188837916Y-115302500D01*
X188827333Y-115291916D01*
X188837916Y-115281333D01*
X188848500Y-115291916D01*
G36*
X187620833Y-115270750D02*
G01*
X187610250Y-115281333D01*
X187599666Y-115270750D01*
X187610250Y-115260166D01*
X187620833Y-115270750D01*
G37*
X187620833Y-115270750D02*
X187610250Y-115281333D01*
X187599666Y-115270750D01*
X187610250Y-115260166D01*
X187620833Y-115270750D01*
G36*
X188312277Y-115246055D02*
G01*
X188314811Y-115271175D01*
X188312277Y-115274277D01*
X188299694Y-115271372D01*
X188298166Y-115260166D01*
X188305911Y-115242744D01*
X188312277Y-115246055D01*
G37*
X188312277Y-115246055D02*
X188314811Y-115271175D01*
X188312277Y-115274277D01*
X188299694Y-115271372D01*
X188298166Y-115260166D01*
X188305911Y-115242744D01*
X188312277Y-115246055D01*
G36*
X188023000Y-115228416D02*
G01*
X188043192Y-115247437D01*
X188044166Y-115250832D01*
X188027790Y-115259923D01*
X188023000Y-115260166D01*
X188002646Y-115243894D01*
X188001833Y-115237750D01*
X188014800Y-115225109D01*
X188023000Y-115228416D01*
G37*
X188023000Y-115228416D02*
X188043192Y-115247437D01*
X188044166Y-115250832D01*
X188027790Y-115259923D01*
X188023000Y-115260166D01*
X188002646Y-115243894D01*
X188001833Y-115237750D01*
X188014800Y-115225109D01*
X188023000Y-115228416D01*
G36*
X187296277Y-115203722D02*
G01*
X187298811Y-115228842D01*
X187296277Y-115231944D01*
X187283694Y-115229038D01*
X187282166Y-115217833D01*
X187289911Y-115200410D01*
X187296277Y-115203722D01*
G37*
X187296277Y-115203722D02*
X187298811Y-115228842D01*
X187296277Y-115231944D01*
X187283694Y-115229038D01*
X187282166Y-115217833D01*
X187289911Y-115200410D01*
X187296277Y-115203722D01*
G36*
X186604833Y-115207250D02*
G01*
X186594250Y-115217833D01*
X186583666Y-115207250D01*
X186594250Y-115196666D01*
X186604833Y-115207250D01*
G37*
X186604833Y-115207250D02*
X186594250Y-115217833D01*
X186583666Y-115207250D01*
X186594250Y-115196666D01*
X186604833Y-115207250D01*
G36*
X188962641Y-115153060D02*
G01*
X188966428Y-115175802D01*
X188963846Y-115212356D01*
X188953115Y-115210310D01*
X188942610Y-115194822D01*
X188941561Y-115161102D01*
X188947408Y-115152791D01*
X188962641Y-115153060D01*
G37*
X188962641Y-115153060D02*
X188966428Y-115175802D01*
X188963846Y-115212356D01*
X188953115Y-115210310D01*
X188942610Y-115194822D01*
X188941561Y-115161102D01*
X188947408Y-115152791D01*
X188962641Y-115153060D01*
G36*
X187366833Y-115186083D02*
G01*
X187356250Y-115196666D01*
X187345666Y-115186083D01*
X187356250Y-115175500D01*
X187366833Y-115186083D01*
G37*
X187366833Y-115186083D02*
X187356250Y-115196666D01*
X187345666Y-115186083D01*
X187356250Y-115175500D01*
X187366833Y-115186083D01*
G36*
X188065333Y-115186083D02*
G01*
X188054750Y-115196666D01*
X188044166Y-115186083D01*
X188054750Y-115175500D01*
X188065333Y-115186083D01*
G37*
X188065333Y-115186083D02*
X188054750Y-115196666D01*
X188044166Y-115186083D01*
X188054750Y-115175500D01*
X188065333Y-115186083D01*
G36*
X187634944Y-115119055D02*
G01*
X187637477Y-115144175D01*
X187634944Y-115147277D01*
X187622360Y-115144372D01*
X187620833Y-115133166D01*
X187628577Y-115115744D01*
X187634944Y-115119055D01*
G37*
X187634944Y-115119055D02*
X187637477Y-115144175D01*
X187634944Y-115147277D01*
X187622360Y-115144372D01*
X187620833Y-115133166D01*
X187628577Y-115115744D01*
X187634944Y-115119055D01*
G36*
X188354611Y-115119055D02*
G01*
X188357144Y-115144175D01*
X188354611Y-115147277D01*
X188342027Y-115144372D01*
X188340500Y-115133166D01*
X188348244Y-115115744D01*
X188354611Y-115119055D01*
G37*
X188354611Y-115119055D02*
X188357144Y-115144175D01*
X188354611Y-115147277D01*
X188342027Y-115144372D01*
X188340500Y-115133166D01*
X188348244Y-115115744D01*
X188354611Y-115119055D01*
G36*
X186710666Y-115122583D02*
G01*
X186700083Y-115133166D01*
X186689500Y-115122583D01*
X186700083Y-115112000D01*
X186710666Y-115122583D01*
G37*
X186710666Y-115122583D02*
X186700083Y-115133166D01*
X186689500Y-115122583D01*
X186700083Y-115112000D01*
X186710666Y-115122583D01*
G36*
X187578500Y-115122583D02*
G01*
X187567916Y-115133166D01*
X187557333Y-115122583D01*
X187567916Y-115112000D01*
X187578500Y-115122583D01*
G37*
X187578500Y-115122583D02*
X187567916Y-115133166D01*
X187557333Y-115122583D01*
X187567916Y-115112000D01*
X187578500Y-115122583D01*
G36*
X188044166Y-115122583D02*
G01*
X188033583Y-115133166D01*
X188023000Y-115122583D01*
X188033583Y-115112000D01*
X188044166Y-115122583D01*
G37*
X188044166Y-115122583D02*
X188033583Y-115133166D01*
X188023000Y-115122583D01*
X188033583Y-115112000D01*
X188044166Y-115122583D01*
G36*
X188721500Y-115122583D02*
G01*
X188710916Y-115133166D01*
X188700333Y-115122583D01*
X188710916Y-115112000D01*
X188721500Y-115122583D01*
G37*
X188721500Y-115122583D02*
X188710916Y-115133166D01*
X188700333Y-115122583D01*
X188710916Y-115112000D01*
X188721500Y-115122583D01*
G36*
X186491944Y-115097888D02*
G01*
X186489038Y-115110472D01*
X186477833Y-115112000D01*
X186460410Y-115104255D01*
X186463722Y-115097888D01*
X186488842Y-115095355D01*
X186491944Y-115097888D01*
G37*
X186491944Y-115097888D02*
X186489038Y-115110472D01*
X186477833Y-115112000D01*
X186460410Y-115104255D01*
X186463722Y-115097888D01*
X186488842Y-115095355D01*
X186491944Y-115097888D01*
G36*
X188255833Y-115101416D02*
G01*
X188245250Y-115112000D01*
X188234666Y-115101416D01*
X188245250Y-115090833D01*
X188255833Y-115101416D01*
G37*
X188255833Y-115101416D02*
X188245250Y-115112000D01*
X188234666Y-115101416D01*
X188245250Y-115090833D01*
X188255833Y-115101416D01*
G36*
X186922333Y-115080250D02*
G01*
X186911750Y-115090833D01*
X186901166Y-115080250D01*
X186911750Y-115069666D01*
X186922333Y-115080250D01*
G37*
X186922333Y-115080250D02*
X186911750Y-115090833D01*
X186901166Y-115080250D01*
X186911750Y-115069666D01*
X186922333Y-115080250D01*
G36*
X188312277Y-115055555D02*
G01*
X188314811Y-115080675D01*
X188312277Y-115083777D01*
X188299694Y-115080872D01*
X188298166Y-115069666D01*
X188305911Y-115052244D01*
X188312277Y-115055555D01*
G37*
X188312277Y-115055555D02*
X188314811Y-115080675D01*
X188312277Y-115083777D01*
X188299694Y-115080872D01*
X188298166Y-115069666D01*
X188305911Y-115052244D01*
X188312277Y-115055555D01*
G36*
X186682444Y-115055555D02*
G01*
X186679538Y-115068139D01*
X186668333Y-115069666D01*
X186650910Y-115061922D01*
X186654222Y-115055555D01*
X186679342Y-115053022D01*
X186682444Y-115055555D01*
G37*
X186682444Y-115055555D02*
X186679538Y-115068139D01*
X186668333Y-115069666D01*
X186650910Y-115061922D01*
X186654222Y-115055555D01*
X186679342Y-115053022D01*
X186682444Y-115055555D01*
G36*
X186964666Y-115037916D02*
G01*
X186954083Y-115048500D01*
X186943500Y-115037916D01*
X186954083Y-115027333D01*
X186964666Y-115037916D01*
G37*
X186964666Y-115037916D02*
X186954083Y-115048500D01*
X186943500Y-115037916D01*
X186954083Y-115027333D01*
X186964666Y-115037916D01*
G36*
X188277000Y-115037916D02*
G01*
X188266416Y-115048500D01*
X188255833Y-115037916D01*
X188266416Y-115027333D01*
X188277000Y-115037916D01*
G37*
X188277000Y-115037916D02*
X188266416Y-115048500D01*
X188255833Y-115037916D01*
X188266416Y-115027333D01*
X188277000Y-115037916D01*
G36*
X186771274Y-114595913D02*
G01*
X186791465Y-114607886D01*
X186812228Y-114626573D01*
X186820263Y-114651378D01*
X186816347Y-114694041D01*
X186801791Y-114763925D01*
X186762131Y-114885356D01*
X186705477Y-114968792D01*
X186630622Y-115015515D01*
X186554310Y-115027333D01*
X186485288Y-115021476D01*
X186443281Y-115000599D01*
X186427948Y-114982904D01*
X186409933Y-114921910D01*
X186430492Y-114847831D01*
X186488809Y-114763104D01*
X186508885Y-114740869D01*
X186546871Y-114696294D01*
X186566223Y-114664847D01*
X186566406Y-114657295D01*
X186573081Y-114647775D01*
X186587470Y-114646333D01*
X186627508Y-114637295D01*
X186681593Y-114615321D01*
X186685956Y-114613178D01*
X186736514Y-114592870D01*
X186771274Y-114595913D01*
G37*
X186771274Y-114595913D02*
X186791465Y-114607886D01*
X186812228Y-114626573D01*
X186820263Y-114651378D01*
X186816347Y-114694041D01*
X186801791Y-114763925D01*
X186762131Y-114885356D01*
X186705477Y-114968792D01*
X186630622Y-115015515D01*
X186554310Y-115027333D01*
X186485288Y-115021476D01*
X186443281Y-115000599D01*
X186427948Y-114982904D01*
X186409933Y-114921910D01*
X186430492Y-114847831D01*
X186488809Y-114763104D01*
X186508885Y-114740869D01*
X186546871Y-114696294D01*
X186566223Y-114664847D01*
X186566406Y-114657295D01*
X186573081Y-114647775D01*
X186587470Y-114646333D01*
X186627508Y-114637295D01*
X186681593Y-114615321D01*
X186685956Y-114613178D01*
X186736514Y-114592870D01*
X186771274Y-114595913D01*
G36*
X188361666Y-115016750D02*
G01*
X188351083Y-115027333D01*
X188340500Y-115016750D01*
X188351083Y-115006166D01*
X188361666Y-115016750D01*
G37*
X188361666Y-115016750D02*
X188351083Y-115027333D01*
X188340500Y-115016750D01*
X188351083Y-115006166D01*
X188361666Y-115016750D01*
G36*
X188658000Y-115016750D02*
G01*
X188647416Y-115027333D01*
X188636833Y-115016750D01*
X188647416Y-115006166D01*
X188658000Y-115016750D01*
G37*
X188658000Y-115016750D02*
X188647416Y-115027333D01*
X188636833Y-115016750D01*
X188647416Y-115006166D01*
X188658000Y-115016750D01*
G36*
X189102500Y-114995583D02*
G01*
X189091916Y-115006166D01*
X189081333Y-114995583D01*
X189091916Y-114985000D01*
X189102500Y-114995583D01*
G37*
X189102500Y-114995583D02*
X189091916Y-115006166D01*
X189081333Y-114995583D01*
X189091916Y-114985000D01*
X189102500Y-114995583D01*
G36*
X187853666Y-114974416D02*
G01*
X187843083Y-114985000D01*
X187832500Y-114974416D01*
X187843083Y-114963833D01*
X187853666Y-114974416D01*
G37*
X187853666Y-114974416D02*
X187843083Y-114985000D01*
X187832500Y-114974416D01*
X187843083Y-114963833D01*
X187853666Y-114974416D01*
G36*
X188608611Y-114949722D02*
G01*
X188611144Y-114974842D01*
X188608611Y-114977944D01*
X188596027Y-114975038D01*
X188594500Y-114963833D01*
X188602244Y-114946410D01*
X188608611Y-114949722D01*
G37*
X188608611Y-114949722D02*
X188611144Y-114974842D01*
X188608611Y-114977944D01*
X188596027Y-114975038D01*
X188594500Y-114963833D01*
X188602244Y-114946410D01*
X188608611Y-114949722D01*
G36*
X186964666Y-114953250D02*
G01*
X186954083Y-114963833D01*
X186943500Y-114953250D01*
X186954083Y-114942666D01*
X186964666Y-114953250D01*
G37*
X186964666Y-114953250D02*
X186954083Y-114963833D01*
X186943500Y-114953250D01*
X186954083Y-114942666D01*
X186964666Y-114953250D01*
G36*
X187790166Y-114953250D02*
G01*
X187779583Y-114963833D01*
X187769000Y-114953250D01*
X187779583Y-114942666D01*
X187790166Y-114953250D01*
G37*
X187790166Y-114953250D02*
X187779583Y-114963833D01*
X187769000Y-114953250D01*
X187779583Y-114942666D01*
X187790166Y-114953250D01*
G36*
X187896000Y-114953250D02*
G01*
X187885416Y-114963833D01*
X187874833Y-114953250D01*
X187885416Y-114942666D01*
X187896000Y-114953250D01*
G37*
X187896000Y-114953250D02*
X187885416Y-114963833D01*
X187874833Y-114953250D01*
X187885416Y-114942666D01*
X187896000Y-114953250D01*
G36*
X188742666Y-114953250D02*
G01*
X188732083Y-114963833D01*
X188721500Y-114953250D01*
X188732083Y-114942666D01*
X188742666Y-114953250D01*
G37*
X188742666Y-114953250D02*
X188732083Y-114963833D01*
X188721500Y-114953250D01*
X188732083Y-114942666D01*
X188742666Y-114953250D01*
G36*
X189137777Y-114928555D02*
G01*
X189140311Y-114953675D01*
X189137777Y-114956777D01*
X189125194Y-114953872D01*
X189123666Y-114942666D01*
X189131411Y-114925244D01*
X189137777Y-114928555D01*
G37*
X189137777Y-114928555D02*
X189140311Y-114953675D01*
X189137777Y-114956777D01*
X189125194Y-114953872D01*
X189123666Y-114942666D01*
X189131411Y-114925244D01*
X189137777Y-114928555D01*
G36*
X186795333Y-114932083D02*
G01*
X186784750Y-114942666D01*
X186774166Y-114932083D01*
X186784750Y-114921500D01*
X186795333Y-114932083D01*
G37*
X186795333Y-114932083D02*
X186784750Y-114942666D01*
X186774166Y-114932083D01*
X186784750Y-114921500D01*
X186795333Y-114932083D01*
G36*
X187338959Y-114896364D02*
G01*
X187341482Y-114929445D01*
X187337288Y-114936934D01*
X187327667Y-114930621D01*
X187326171Y-114909152D01*
X187331340Y-114886567D01*
X187338959Y-114896364D01*
G37*
X187338959Y-114896364D02*
X187341482Y-114929445D01*
X187337288Y-114936934D01*
X187327667Y-114930621D01*
X187326171Y-114909152D01*
X187331340Y-114886567D01*
X187338959Y-114896364D01*
G36*
X188000971Y-114915698D02*
G01*
X188001833Y-114921500D01*
X187994611Y-114942116D01*
X187992499Y-114942666D01*
X187974427Y-114927834D01*
X187970083Y-114921500D01*
X187971761Y-114901995D01*
X187979417Y-114900333D01*
X188000971Y-114915698D01*
G37*
X188000971Y-114915698D02*
X188001833Y-114921500D01*
X187994611Y-114942116D01*
X187992499Y-114942666D01*
X187974427Y-114927834D01*
X187970083Y-114921500D01*
X187971761Y-114901995D01*
X187979417Y-114900333D01*
X188000971Y-114915698D01*
G36*
X188128833Y-114932083D02*
G01*
X188118250Y-114942666D01*
X188107666Y-114932083D01*
X188118250Y-114921500D01*
X188128833Y-114932083D01*
G37*
X188128833Y-114932083D02*
X188118250Y-114942666D01*
X188107666Y-114932083D01*
X188118250Y-114921500D01*
X188128833Y-114932083D01*
G36*
X188206859Y-114914005D02*
G01*
X188202916Y-114921500D01*
X188182973Y-114941714D01*
X188179251Y-114942666D01*
X188177807Y-114928994D01*
X188181750Y-114921500D01*
X188201693Y-114901285D01*
X188205415Y-114900333D01*
X188206859Y-114914005D01*
G37*
X188206859Y-114914005D02*
X188202916Y-114921500D01*
X188182973Y-114941714D01*
X188179251Y-114942666D01*
X188177807Y-114928994D01*
X188181750Y-114921500D01*
X188201693Y-114901285D01*
X188205415Y-114900333D01*
X188206859Y-114914005D01*
G36*
X189078062Y-114887728D02*
G01*
X189100786Y-114909041D01*
X189096124Y-114921293D01*
X189093165Y-114921500D01*
X189075262Y-114906465D01*
X189068728Y-114897062D01*
X189066233Y-114882578D01*
X189078062Y-114887728D01*
G37*
X189078062Y-114887728D02*
X189100786Y-114909041D01*
X189096124Y-114921293D01*
X189093165Y-114921500D01*
X189075262Y-114906465D01*
X189068728Y-114897062D01*
X189066233Y-114882578D01*
X189078062Y-114887728D01*
G36*
X187070500Y-114889750D02*
G01*
X187059916Y-114900333D01*
X187049333Y-114889750D01*
X187059916Y-114879166D01*
X187070500Y-114889750D01*
G37*
X187070500Y-114889750D02*
X187059916Y-114900333D01*
X187049333Y-114889750D01*
X187059916Y-114879166D01*
X187070500Y-114889750D01*
G36*
X187761944Y-114886222D02*
G01*
X187759038Y-114898805D01*
X187747833Y-114900333D01*
X187730410Y-114892588D01*
X187733722Y-114886222D01*
X187758842Y-114883688D01*
X187761944Y-114886222D01*
G37*
X187761944Y-114886222D02*
X187759038Y-114898805D01*
X187747833Y-114900333D01*
X187730410Y-114892588D01*
X187733722Y-114886222D01*
X187758842Y-114883688D01*
X187761944Y-114886222D01*
G36*
X188171166Y-114889750D02*
G01*
X188160583Y-114900333D01*
X188150000Y-114889750D01*
X188160583Y-114879166D01*
X188171166Y-114889750D01*
G37*
X188171166Y-114889750D02*
X188160583Y-114900333D01*
X188150000Y-114889750D01*
X188160583Y-114879166D01*
X188171166Y-114889750D01*
G36*
X188255833Y-114889750D02*
G01*
X188245250Y-114900333D01*
X188234666Y-114889750D01*
X188245250Y-114879166D01*
X188255833Y-114889750D01*
G37*
X188255833Y-114889750D02*
X188245250Y-114900333D01*
X188234666Y-114889750D01*
X188245250Y-114879166D01*
X188255833Y-114889750D01*
G36*
X188573333Y-114889750D02*
G01*
X188562750Y-114900333D01*
X188552166Y-114889750D01*
X188562750Y-114879166D01*
X188573333Y-114889750D01*
G37*
X188573333Y-114889750D02*
X188562750Y-114900333D01*
X188552166Y-114889750D01*
X188562750Y-114879166D01*
X188573333Y-114889750D01*
G36*
X186816500Y-114868583D02*
G01*
X186805916Y-114879166D01*
X186795333Y-114868583D01*
X186805916Y-114858000D01*
X186816500Y-114868583D01*
G37*
X186816500Y-114868583D02*
X186805916Y-114879166D01*
X186795333Y-114868583D01*
X186805916Y-114858000D01*
X186816500Y-114868583D01*
G36*
X188481611Y-114865055D02*
G01*
X188478705Y-114877639D01*
X188467500Y-114879166D01*
X188450077Y-114871422D01*
X188453388Y-114865055D01*
X188478508Y-114862522D01*
X188481611Y-114865055D01*
G37*
X188481611Y-114865055D02*
X188478705Y-114877639D01*
X188467500Y-114879166D01*
X188450077Y-114871422D01*
X188453388Y-114865055D01*
X188478508Y-114862522D01*
X188481611Y-114865055D01*
G36*
X188213500Y-114847416D02*
G01*
X188202916Y-114858000D01*
X188192333Y-114847416D01*
X188202916Y-114836833D01*
X188213500Y-114847416D01*
G37*
X188213500Y-114847416D02*
X188202916Y-114858000D01*
X188192333Y-114847416D01*
X188202916Y-114836833D01*
X188213500Y-114847416D01*
G36*
X188933166Y-114847416D02*
G01*
X188922583Y-114858000D01*
X188912000Y-114847416D01*
X188922583Y-114836833D01*
X188933166Y-114847416D01*
G37*
X188933166Y-114847416D02*
X188922583Y-114858000D01*
X188912000Y-114847416D01*
X188922583Y-114836833D01*
X188933166Y-114847416D01*
G36*
X186414333Y-114826250D02*
G01*
X186403750Y-114836833D01*
X186393166Y-114826250D01*
X186403750Y-114815666D01*
X186414333Y-114826250D01*
G37*
X186414333Y-114826250D02*
X186403750Y-114836833D01*
X186393166Y-114826250D01*
X186403750Y-114815666D01*
X186414333Y-114826250D01*
G36*
X187070500Y-114826250D02*
G01*
X187059916Y-114836833D01*
X187049333Y-114826250D01*
X187059916Y-114815666D01*
X187070500Y-114826250D01*
G37*
X187070500Y-114826250D02*
X187059916Y-114836833D01*
X187049333Y-114826250D01*
X187059916Y-114815666D01*
X187070500Y-114826250D01*
G36*
X187388000Y-114826250D02*
G01*
X187377416Y-114836833D01*
X187366833Y-114826250D01*
X187377416Y-114815666D01*
X187388000Y-114826250D01*
G37*
X187388000Y-114826250D02*
X187377416Y-114836833D01*
X187366833Y-114826250D01*
X187377416Y-114815666D01*
X187388000Y-114826250D01*
G36*
X187892729Y-114803062D02*
G01*
X187915452Y-114824374D01*
X187910791Y-114836627D01*
X187907832Y-114836833D01*
X187889929Y-114821799D01*
X187883395Y-114812396D01*
X187880900Y-114797911D01*
X187892729Y-114803062D01*
G37*
X187892729Y-114803062D02*
X187915452Y-114824374D01*
X187910791Y-114836627D01*
X187907832Y-114836833D01*
X187889929Y-114821799D01*
X187883395Y-114812396D01*
X187880900Y-114797911D01*
X187892729Y-114803062D01*
G36*
X188566692Y-114808172D02*
G01*
X188562750Y-114815666D01*
X188542806Y-114835880D01*
X188539084Y-114836833D01*
X188537640Y-114823160D01*
X188541583Y-114815666D01*
X188561526Y-114795452D01*
X188565248Y-114794500D01*
X188566692Y-114808172D01*
G37*
X188566692Y-114808172D02*
X188562750Y-114815666D01*
X188542806Y-114835880D01*
X188539084Y-114836833D01*
X188537640Y-114823160D01*
X188541583Y-114815666D01*
X188561526Y-114795452D01*
X188565248Y-114794500D01*
X188566692Y-114808172D01*
G36*
X186880000Y-114805083D02*
G01*
X186869416Y-114815666D01*
X186858833Y-114805083D01*
X186869416Y-114794500D01*
X186880000Y-114805083D01*
G37*
X186880000Y-114805083D02*
X186869416Y-114815666D01*
X186858833Y-114805083D01*
X186869416Y-114794500D01*
X186880000Y-114805083D01*
G36*
X186393166Y-114783916D02*
G01*
X186382583Y-114794500D01*
X186372000Y-114783916D01*
X186382583Y-114773333D01*
X186393166Y-114783916D01*
G37*
X186393166Y-114783916D02*
X186382583Y-114794500D01*
X186372000Y-114783916D01*
X186382583Y-114773333D01*
X186393166Y-114783916D01*
G36*
X187931277Y-114759222D02*
G01*
X187933811Y-114784342D01*
X187931277Y-114787444D01*
X187918694Y-114784538D01*
X187917166Y-114773333D01*
X187924911Y-114755910D01*
X187931277Y-114759222D01*
G37*
X187931277Y-114759222D02*
X187933811Y-114784342D01*
X187931277Y-114787444D01*
X187918694Y-114784538D01*
X187917166Y-114773333D01*
X187924911Y-114755910D01*
X187931277Y-114759222D01*
G36*
X188509833Y-114783916D02*
G01*
X188499250Y-114794500D01*
X188488666Y-114783916D01*
X188499250Y-114773333D01*
X188509833Y-114783916D01*
G37*
X188509833Y-114783916D02*
X188499250Y-114794500D01*
X188488666Y-114783916D01*
X188499250Y-114773333D01*
X188509833Y-114783916D01*
G36*
X187614125Y-114727031D02*
G01*
X187616649Y-114760112D01*
X187612454Y-114767600D01*
X187602834Y-114761287D01*
X187601337Y-114739819D01*
X187606507Y-114717233D01*
X187614125Y-114727031D01*
G37*
X187614125Y-114727031D02*
X187616649Y-114760112D01*
X187612454Y-114767600D01*
X187602834Y-114761287D01*
X187601337Y-114739819D01*
X187606507Y-114717233D01*
X187614125Y-114727031D01*
G36*
X186181500Y-114741583D02*
G01*
X186170916Y-114752166D01*
X186160333Y-114741583D01*
X186170916Y-114731000D01*
X186181500Y-114741583D01*
G37*
X186181500Y-114741583D02*
X186170916Y-114752166D01*
X186160333Y-114741583D01*
X186170916Y-114731000D01*
X186181500Y-114741583D01*
G36*
X186449611Y-114716888D02*
G01*
X186452144Y-114742008D01*
X186449611Y-114745111D01*
X186437027Y-114742205D01*
X186435500Y-114731000D01*
X186443244Y-114713577D01*
X186449611Y-114716888D01*
G37*
X186449611Y-114716888D02*
X186452144Y-114742008D01*
X186449611Y-114745111D01*
X186437027Y-114742205D01*
X186435500Y-114731000D01*
X186443244Y-114713577D01*
X186449611Y-114716888D01*
G36*
X188488666Y-114741583D02*
G01*
X188478083Y-114752166D01*
X188467500Y-114741583D01*
X188478083Y-114731000D01*
X188488666Y-114741583D01*
G37*
X188488666Y-114741583D02*
X188478083Y-114752166D01*
X188467500Y-114741583D01*
X188478083Y-114731000D01*
X188488666Y-114741583D01*
G36*
X186137184Y-114597135D02*
G01*
X186136117Y-114632464D01*
X186136984Y-114646333D01*
X186142156Y-114667411D01*
X186156980Y-114651463D01*
X186160333Y-114646333D01*
X186177105Y-114629391D01*
X186180851Y-114635750D01*
X186170451Y-114671581D01*
X186163680Y-114683975D01*
X186146116Y-114693532D01*
X186125537Y-114664815D01*
X186122469Y-114658273D01*
X186110040Y-114610616D01*
X186119322Y-114592599D01*
X186136773Y-114591507D01*
X186137184Y-114597135D01*
G37*
X186137184Y-114597135D02*
X186136117Y-114632464D01*
X186136984Y-114646333D01*
X186142156Y-114667411D01*
X186156980Y-114651463D01*
X186160333Y-114646333D01*
X186177105Y-114629391D01*
X186180851Y-114635750D01*
X186170451Y-114671581D01*
X186163680Y-114683975D01*
X186146116Y-114693532D01*
X186125537Y-114664815D01*
X186122469Y-114658273D01*
X186110040Y-114610616D01*
X186119322Y-114592599D01*
X186136773Y-114591507D01*
X186137184Y-114597135D01*
G36*
X189271833Y-114699250D02*
G01*
X189261250Y-114709833D01*
X189250666Y-114699250D01*
X189261250Y-114688666D01*
X189271833Y-114699250D01*
G37*
X189271833Y-114699250D02*
X189261250Y-114709833D01*
X189250666Y-114699250D01*
X189261250Y-114688666D01*
X189271833Y-114699250D01*
G36*
X187578500Y-114678083D02*
G01*
X187567916Y-114688666D01*
X187557333Y-114678083D01*
X187567916Y-114667500D01*
X187578500Y-114678083D01*
G37*
X187578500Y-114678083D02*
X187567916Y-114688666D01*
X187557333Y-114678083D01*
X187567916Y-114667500D01*
X187578500Y-114678083D01*
G36*
X188721500Y-114678083D02*
G01*
X188710916Y-114688666D01*
X188700333Y-114678083D01*
X188710916Y-114667500D01*
X188721500Y-114678083D01*
G37*
X188721500Y-114678083D02*
X188710916Y-114688666D01*
X188700333Y-114678083D01*
X188710916Y-114667500D01*
X188721500Y-114678083D01*
G36*
X186051229Y-114591395D02*
G01*
X186073774Y-114611071D01*
X186075666Y-114615832D01*
X186065621Y-114624532D01*
X186044707Y-114605038D01*
X186041895Y-114600729D01*
X186039400Y-114586245D01*
X186051229Y-114591395D01*
G37*
X186051229Y-114591395D02*
X186073774Y-114611071D01*
X186075666Y-114615832D01*
X186065621Y-114624532D01*
X186044707Y-114605038D01*
X186041895Y-114600729D01*
X186039400Y-114586245D01*
X186051229Y-114591395D01*
G36*
X188697062Y-114591395D02*
G01*
X188719607Y-114611071D01*
X188721500Y-114615832D01*
X188711454Y-114624532D01*
X188690540Y-114605038D01*
X188687728Y-114600729D01*
X188685233Y-114586245D01*
X188697062Y-114591395D01*
G37*
X188697062Y-114591395D02*
X188719607Y-114611071D01*
X188721500Y-114615832D01*
X188711454Y-114624532D01*
X188690540Y-114605038D01*
X188687728Y-114600729D01*
X188685233Y-114586245D01*
X188697062Y-114591395D01*
G36*
X189293000Y-114593416D02*
G01*
X189282416Y-114604000D01*
X189271833Y-114593416D01*
X189282416Y-114582833D01*
X189293000Y-114593416D01*
G37*
X189293000Y-114593416D02*
X189282416Y-114604000D01*
X189271833Y-114593416D01*
X189282416Y-114582833D01*
X189293000Y-114593416D01*
G36*
X186096833Y-114572250D02*
G01*
X186086250Y-114582833D01*
X186075666Y-114572250D01*
X186086250Y-114561666D01*
X186096833Y-114572250D01*
G37*
X186096833Y-114572250D02*
X186086250Y-114582833D01*
X186075666Y-114572250D01*
X186086250Y-114561666D01*
X186096833Y-114572250D01*
G36*
X186181500Y-114572250D02*
G01*
X186170916Y-114582833D01*
X186160333Y-114572250D01*
X186170916Y-114561666D01*
X186181500Y-114572250D01*
G37*
X186181500Y-114572250D02*
X186170916Y-114582833D01*
X186160333Y-114572250D01*
X186170916Y-114561666D01*
X186181500Y-114572250D01*
G36*
X189271833Y-114551083D02*
G01*
X189261250Y-114561666D01*
X189250666Y-114551083D01*
X189261250Y-114540500D01*
X189271833Y-114551083D01*
G37*
X189271833Y-114551083D02*
X189261250Y-114561666D01*
X189250666Y-114551083D01*
X189261250Y-114540500D01*
X189271833Y-114551083D01*
G36*
X189314166Y-114551083D02*
G01*
X189303583Y-114561666D01*
X189293000Y-114551083D01*
X189303583Y-114540500D01*
X189314166Y-114551083D01*
G37*
X189314166Y-114551083D02*
X189303583Y-114561666D01*
X189293000Y-114551083D01*
X189303583Y-114540500D01*
X189314166Y-114551083D01*
G36*
X186195611Y-114526388D02*
G01*
X186192705Y-114538972D01*
X186181500Y-114540500D01*
X186164077Y-114532755D01*
X186167388Y-114526388D01*
X186192508Y-114523855D01*
X186195611Y-114526388D01*
G37*
X186195611Y-114526388D02*
X186192705Y-114538972D01*
X186181500Y-114540500D01*
X186164077Y-114532755D01*
X186167388Y-114526388D01*
X186192508Y-114523855D01*
X186195611Y-114526388D01*
G36*
X188721500Y-114508750D02*
G01*
X188710916Y-114519333D01*
X188700333Y-114508750D01*
X188710916Y-114498166D01*
X188721500Y-114508750D01*
G37*
X188721500Y-114508750D02*
X188710916Y-114519333D01*
X188700333Y-114508750D01*
X188710916Y-114498166D01*
X188721500Y-114508750D01*
G36*
X188820277Y-114484055D02*
G01*
X188817372Y-114496639D01*
X188806166Y-114498166D01*
X188788744Y-114490422D01*
X188792055Y-114484055D01*
X188817175Y-114481522D01*
X188820277Y-114484055D01*
G37*
X188820277Y-114484055D02*
X188817372Y-114496639D01*
X188806166Y-114498166D01*
X188788744Y-114490422D01*
X188792055Y-114484055D01*
X188817175Y-114481522D01*
X188820277Y-114484055D01*
G36*
X188912000Y-114487583D02*
G01*
X188901416Y-114498166D01*
X188890833Y-114487583D01*
X188901416Y-114477000D01*
X188912000Y-114487583D01*
G37*
X188912000Y-114487583D02*
X188901416Y-114498166D01*
X188890833Y-114487583D01*
X188901416Y-114477000D01*
X188912000Y-114487583D01*
G36*
X189081333Y-114487583D02*
G01*
X189070750Y-114498166D01*
X189060166Y-114487583D01*
X189070750Y-114477000D01*
X189081333Y-114487583D01*
G37*
X189081333Y-114487583D02*
X189070750Y-114498166D01*
X189060166Y-114487583D01*
X189070750Y-114477000D01*
X189081333Y-114487583D01*
G36*
X187924850Y-113531090D02*
G01*
X187964875Y-113540915D01*
X187970155Y-113545783D01*
X187964183Y-113570846D01*
X187937754Y-113616546D01*
X187898763Y-113672080D01*
X187855102Y-113726648D01*
X187814665Y-113769448D01*
X187795458Y-113784843D01*
X187771419Y-113820559D01*
X187776754Y-113868691D01*
X187804945Y-113919207D01*
X187849472Y-113962076D01*
X187903817Y-113987267D01*
X187928880Y-113990166D01*
X188025668Y-113970315D01*
X188110085Y-113916019D01*
X188167399Y-113839774D01*
X188195058Y-113790814D01*
X188212841Y-113778491D01*
X188221647Y-113790369D01*
X188233972Y-113837440D01*
X188226275Y-113856524D01*
X188213500Y-113852583D01*
X188193995Y-113854261D01*
X188192333Y-113861917D01*
X188188234Y-113906208D01*
X188168074Y-113939286D01*
X188158769Y-113949838D01*
X188102082Y-113988743D01*
X188021904Y-114016314D01*
X187936606Y-114027513D01*
X187888686Y-114023926D01*
X187811650Y-113991350D01*
X187760434Y-113946371D01*
X187724738Y-113906700D01*
X187701963Y-113896327D01*
X187678411Y-113911630D01*
X187667915Y-113921918D01*
X187577148Y-113992633D01*
X187483497Y-114030083D01*
X187393983Y-114033172D01*
X187315629Y-114000805D01*
X187291787Y-113980545D01*
X187251137Y-113928166D01*
X187243101Y-113876329D01*
X187266112Y-113810545D01*
X187272126Y-113798615D01*
X187303737Y-113749217D01*
X187325187Y-113740258D01*
X187334929Y-113770731D01*
X187331681Y-113837412D01*
X187327705Y-113906884D01*
X187337989Y-113948483D01*
X187353910Y-113967058D01*
X187416003Y-113993503D01*
X187488654Y-113986256D01*
X187561965Y-113948693D01*
X187626042Y-113884187D01*
X187635036Y-113871195D01*
X187658077Y-113831792D01*
X187656400Y-113811086D01*
X187634715Y-113796010D01*
X187604356Y-113768926D01*
X187567783Y-113723291D01*
X187562239Y-113715000D01*
X187620833Y-113715000D01*
X187636940Y-113735551D01*
X187642000Y-113736166D01*
X187662551Y-113720059D01*
X187663166Y-113715000D01*
X187647059Y-113694448D01*
X187642000Y-113693833D01*
X187621448Y-113709940D01*
X187620833Y-113715000D01*
X187562239Y-113715000D01*
X187532977Y-113671244D01*
X187507919Y-113624923D01*
X187500590Y-113596468D01*
X187501912Y-113594031D01*
X187539455Y-113574667D01*
X187604765Y-113557350D01*
X187686901Y-113543206D01*
X187774921Y-113533363D01*
X187857885Y-113528949D01*
X187924850Y-113531090D01*
G37*
X187924850Y-113531090D02*
X187964875Y-113540915D01*
X187970155Y-113545783D01*
X187964183Y-113570846D01*
X187937754Y-113616546D01*
X187898763Y-113672080D01*
X187855102Y-113726648D01*
X187814665Y-113769448D01*
X187795458Y-113784843D01*
X187771419Y-113820559D01*
X187776754Y-113868691D01*
X187804945Y-113919207D01*
X187849472Y-113962076D01*
X187903817Y-113987267D01*
X187928880Y-113990166D01*
X188025668Y-113970315D01*
X188110085Y-113916019D01*
X188167399Y-113839774D01*
X188195058Y-113790814D01*
X188212841Y-113778491D01*
X188221647Y-113790369D01*
X188233972Y-113837440D01*
X188226275Y-113856524D01*
X188213500Y-113852583D01*
X188193995Y-113854261D01*
X188192333Y-113861917D01*
X188188234Y-113906208D01*
X188168074Y-113939286D01*
X188158769Y-113949838D01*
X188102082Y-113988743D01*
X188021904Y-114016314D01*
X187936606Y-114027513D01*
X187888686Y-114023926D01*
X187811650Y-113991350D01*
X187760434Y-113946371D01*
X187724738Y-113906700D01*
X187701963Y-113896327D01*
X187678411Y-113911630D01*
X187667915Y-113921918D01*
X187577148Y-113992633D01*
X187483497Y-114030083D01*
X187393983Y-114033172D01*
X187315629Y-114000805D01*
X187291787Y-113980545D01*
X187251137Y-113928166D01*
X187243101Y-113876329D01*
X187266112Y-113810545D01*
X187272126Y-113798615D01*
X187303737Y-113749217D01*
X187325187Y-113740258D01*
X187334929Y-113770731D01*
X187331681Y-113837412D01*
X187327705Y-113906884D01*
X187337989Y-113948483D01*
X187353910Y-113967058D01*
X187416003Y-113993503D01*
X187488654Y-113986256D01*
X187561965Y-113948693D01*
X187626042Y-113884187D01*
X187635036Y-113871195D01*
X187658077Y-113831792D01*
X187656400Y-113811086D01*
X187634715Y-113796010D01*
X187604356Y-113768926D01*
X187567783Y-113723291D01*
X187562239Y-113715000D01*
X187620833Y-113715000D01*
X187636940Y-113735551D01*
X187642000Y-113736166D01*
X187662551Y-113720059D01*
X187663166Y-113715000D01*
X187647059Y-113694448D01*
X187642000Y-113693833D01*
X187621448Y-113709940D01*
X187620833Y-113715000D01*
X187562239Y-113715000D01*
X187532977Y-113671244D01*
X187507919Y-113624923D01*
X187500590Y-113596468D01*
X187501912Y-113594031D01*
X187539455Y-113574667D01*
X187604765Y-113557350D01*
X187686901Y-113543206D01*
X187774921Y-113533363D01*
X187857885Y-113528949D01*
X187924850Y-113531090D01*
G36*
X188988030Y-113152677D02*
G01*
X189078004Y-113184135D01*
X189133314Y-113218723D01*
X189192687Y-113265370D01*
X189245839Y-113314686D01*
X189282482Y-113357284D01*
X189293000Y-113380351D01*
X189280698Y-113397599D01*
X189245098Y-113381922D01*
X189188163Y-113334368D01*
X189165154Y-113311988D01*
X189107731Y-113260341D01*
X189052805Y-113220233D01*
X189026193Y-113206154D01*
X188916909Y-113186443D01*
X188802938Y-113206821D01*
X188687415Y-113265774D01*
X188573478Y-113361787D01*
X188482082Y-113468910D01*
X188448234Y-113490442D01*
X188427524Y-113484001D01*
X188418103Y-113467118D01*
X188431402Y-113437152D01*
X188470907Y-113387997D01*
X188501608Y-113354283D01*
X188618823Y-113250375D01*
X188742331Y-113181145D01*
X188867083Y-113148082D01*
X188988030Y-113152677D01*
G37*
X188988030Y-113152677D02*
X189078004Y-113184135D01*
X189133314Y-113218723D01*
X189192687Y-113265370D01*
X189245839Y-113314686D01*
X189282482Y-113357284D01*
X189293000Y-113380351D01*
X189280698Y-113397599D01*
X189245098Y-113381922D01*
X189188163Y-113334368D01*
X189165154Y-113311988D01*
X189107731Y-113260341D01*
X189052805Y-113220233D01*
X189026193Y-113206154D01*
X188916909Y-113186443D01*
X188802938Y-113206821D01*
X188687415Y-113265774D01*
X188573478Y-113361787D01*
X188482082Y-113468910D01*
X188448234Y-113490442D01*
X188427524Y-113484001D01*
X188418103Y-113467118D01*
X188431402Y-113437152D01*
X188470907Y-113387997D01*
X188501608Y-113354283D01*
X188618823Y-113250375D01*
X188742331Y-113181145D01*
X188867083Y-113148082D01*
X188988030Y-113152677D01*
G36*
X186471598Y-113108921D02*
G01*
X186477614Y-113109707D01*
X186551676Y-113130761D01*
X186637173Y-113172004D01*
X186725742Y-113227146D01*
X186809021Y-113289899D01*
X186878647Y-113353971D01*
X186926258Y-113413073D01*
X186943500Y-113460142D01*
X186933061Y-113481648D01*
X186903539Y-113468401D01*
X186857624Y-113421954D01*
X186840023Y-113400475D01*
X186758027Y-113314915D01*
X186659696Y-113239541D01*
X186557425Y-113182322D01*
X186463611Y-113151221D01*
X186448738Y-113149029D01*
X186341318Y-113158113D01*
X186231448Y-113208913D01*
X186120062Y-113300947D01*
X186088623Y-113334159D01*
X186032199Y-113387702D01*
X185987653Y-113412308D01*
X185973977Y-113412761D01*
X185963457Y-113401353D01*
X185977000Y-113374586D01*
X186017591Y-113328215D01*
X186071265Y-113274423D01*
X186174358Y-113185278D01*
X186269053Y-113130571D01*
X186364938Y-113106414D01*
X186471598Y-113108921D01*
G37*
X186471598Y-113108921D02*
X186477614Y-113109707D01*
X186551676Y-113130761D01*
X186637173Y-113172004D01*
X186725742Y-113227146D01*
X186809021Y-113289899D01*
X186878647Y-113353971D01*
X186926258Y-113413073D01*
X186943500Y-113460142D01*
X186933061Y-113481648D01*
X186903539Y-113468401D01*
X186857624Y-113421954D01*
X186840023Y-113400475D01*
X186758027Y-113314915D01*
X186659696Y-113239541D01*
X186557425Y-113182322D01*
X186463611Y-113151221D01*
X186448738Y-113149029D01*
X186341318Y-113158113D01*
X186231448Y-113208913D01*
X186120062Y-113300947D01*
X186088623Y-113334159D01*
X186032199Y-113387702D01*
X185987653Y-113412308D01*
X185973977Y-113412761D01*
X185963457Y-113401353D01*
X185977000Y-113374586D01*
X186017591Y-113328215D01*
X186071265Y-113274423D01*
X186174358Y-113185278D01*
X186269053Y-113130571D01*
X186364938Y-113106414D01*
X186471598Y-113108921D01*
G36*
X185651143Y-112363464D02*
G01*
X185671714Y-112386430D01*
X185700720Y-112437852D01*
X185732919Y-112506124D01*
X185763071Y-112579639D01*
X185785934Y-112646791D01*
X185794145Y-112680118D01*
X185796455Y-112714780D01*
X185780389Y-112735823D01*
X185736284Y-112752196D01*
X185708421Y-112759493D01*
X185626468Y-112777777D01*
X185576252Y-112781916D01*
X185549569Y-112771797D01*
X185540849Y-112757208D01*
X185541560Y-112721659D01*
X185554661Y-112665854D01*
X185560252Y-112648713D01*
X185579570Y-112573416D01*
X185588989Y-112497852D01*
X185589157Y-112489963D01*
X185597170Y-112416114D01*
X185618529Y-112371869D01*
X185650309Y-112363196D01*
X185651143Y-112363464D01*
G37*
X185651143Y-112363464D02*
X185671714Y-112386430D01*
X185700720Y-112437852D01*
X185732919Y-112506124D01*
X185763071Y-112579639D01*
X185785934Y-112646791D01*
X185794145Y-112680118D01*
X185796455Y-112714780D01*
X185780389Y-112735823D01*
X185736284Y-112752196D01*
X185708421Y-112759493D01*
X185626468Y-112777777D01*
X185576252Y-112781916D01*
X185549569Y-112771797D01*
X185540849Y-112757208D01*
X185541560Y-112721659D01*
X185554661Y-112665854D01*
X185560252Y-112648713D01*
X185579570Y-112573416D01*
X185588989Y-112497852D01*
X185589157Y-112489963D01*
X185597170Y-112416114D01*
X185618529Y-112371869D01*
X185650309Y-112363196D01*
X185651143Y-112363464D01*
G36*
X189734163Y-112401137D02*
G01*
X189746735Y-112431999D01*
X189755850Y-112490219D01*
X189762499Y-112581348D01*
X189766200Y-112667250D01*
X189769250Y-112751916D01*
X189663416Y-112755220D01*
X189593258Y-112755126D01*
X189536048Y-112751120D01*
X189518651Y-112748013D01*
X189493228Y-112738160D01*
X189495962Y-112721299D01*
X189520890Y-112691792D01*
X189543113Y-112665237D01*
X189564166Y-112633986D01*
X189589233Y-112588934D01*
X189623499Y-112520978D01*
X189655407Y-112455583D01*
X189684950Y-112412089D01*
X189715126Y-112392209D01*
X189717144Y-112392083D01*
X189734163Y-112401137D01*
G37*
X189734163Y-112401137D02*
X189746735Y-112431999D01*
X189755850Y-112490219D01*
X189762499Y-112581348D01*
X189766200Y-112667250D01*
X189769250Y-112751916D01*
X189663416Y-112755220D01*
X189593258Y-112755126D01*
X189536048Y-112751120D01*
X189518651Y-112748013D01*
X189493228Y-112738160D01*
X189495962Y-112721299D01*
X189520890Y-112691792D01*
X189543113Y-112665237D01*
X189564166Y-112633986D01*
X189589233Y-112588934D01*
X189623499Y-112520978D01*
X189655407Y-112455583D01*
X189684950Y-112412089D01*
X189715126Y-112392209D01*
X189717144Y-112392083D01*
X189734163Y-112401137D01*
D12*
%TO.C,D1*%
X168650000Y-116450000D02*
X168650000Y-112550000D01*
X170650000Y-116450000D02*
X170650000Y-112550000D01*
X168650000Y-116450000D02*
X170650000Y-116450000D01*
%TO.C,R4*%
X172790000Y-117987221D02*
X172790000Y-118312779D01*
X173810000Y-117987221D02*
X173810000Y-118312779D01*
%TO.C,R3*%
X182787220Y-116210000D02*
X183112778Y-116210000D01*
X182787220Y-115190000D02*
X183112778Y-115190000D01*
%TO.C,R2*%
X182787221Y-114660000D02*
X183112779Y-114660000D01*
X182787221Y-113640000D02*
X183112779Y-113640000D01*
%TO.C,R1*%
X192387221Y-116460000D02*
X192712779Y-116460000D01*
X192387221Y-115440000D02*
X192712779Y-115440000D01*
%TO.C,C8*%
X179387221Y-116810000D02*
X179712779Y-116810000D01*
X179387221Y-115790000D02*
X179712779Y-115790000D01*
%TO.C,C7*%
X170875279Y-116840000D02*
X170549721Y-116840000D01*
X170875279Y-117860000D02*
X170549721Y-117860000D01*
%TO.C,C6*%
X179387220Y-115259998D02*
X179712778Y-115259998D01*
X179387220Y-114239998D02*
X179712778Y-114239998D01*
%TO.C,C5*%
X179387222Y-113709999D02*
X179712780Y-113709999D01*
X179387222Y-112689999D02*
X179712780Y-112689999D01*
%TO.C,C4*%
X192712780Y-112340001D02*
X192387222Y-112340001D01*
X192712780Y-113360001D02*
X192387222Y-113360001D01*
%TO.C,C3*%
X174512779Y-112740000D02*
X174187221Y-112740000D01*
X174512779Y-113760000D02*
X174187221Y-113760000D01*
%TO.C,C2*%
X192712780Y-113890000D02*
X192387222Y-113890000D01*
X192712780Y-114910000D02*
X192387222Y-114910000D01*
%TO.C,C1*%
X172712779Y-114290000D02*
X172387221Y-114290000D01*
X172712779Y-115310000D02*
X172387221Y-115310000D01*
%TO.C,J1*%
X174200000Y-114250000D02*
X177000000Y-114250000D01*
X177000000Y-114250000D02*
X177000000Y-116250000D01*
X177000000Y-116250000D02*
X174200000Y-116250000D01*
X174200000Y-116250000D02*
X174200000Y-114250000D01*
%TO.C,U1*%
X175150000Y-119910000D02*
X176950000Y-119910000D01*
X176950000Y-116690000D02*
X174500000Y-116690000D01*
%TO.C,D1*%
D10*
X167433333Y-114566666D02*
X167433333Y-113866666D01*
X167600000Y-113866666D01*
X167700000Y-113900000D01*
X167766666Y-113966666D01*
X167800000Y-114033333D01*
X167833333Y-114166666D01*
X167833333Y-114266666D01*
X167800000Y-114400000D01*
X167766666Y-114466666D01*
X167700000Y-114533333D01*
X167600000Y-114566666D01*
X167433333Y-114566666D01*
X168500000Y-114566666D02*
X168100000Y-114566666D01*
X168300000Y-114566666D02*
X168300000Y-113866666D01*
X168233333Y-113966666D01*
X168166666Y-114033333D01*
X168100000Y-114066666D01*
%TO.C,P1*%
X170483333Y-111716666D02*
X170483333Y-111016666D01*
X170750000Y-111016666D01*
X170816666Y-111050000D01*
X170850000Y-111083333D01*
X170883333Y-111150000D01*
X170883333Y-111250000D01*
X170850000Y-111316666D01*
X170816666Y-111350000D01*
X170750000Y-111383333D01*
X170483333Y-111383333D01*
X171550000Y-111716666D02*
X171150000Y-111716666D01*
X171350000Y-111716666D02*
X171350000Y-111016666D01*
X171283333Y-111116666D01*
X171216666Y-111183333D01*
X171150000Y-111216666D01*
X192533333Y-109016666D02*
X192966666Y-109016666D01*
X192733333Y-109283333D01*
X192833333Y-109283333D01*
X192900000Y-109316666D01*
X192933333Y-109350000D01*
X192966666Y-109416666D01*
X192966666Y-109583333D01*
X192933333Y-109650000D01*
X192900000Y-109683333D01*
X192833333Y-109716666D01*
X192633333Y-109716666D01*
X192566666Y-109683333D01*
X192533333Y-109650000D01*
X193400000Y-109016666D02*
X193466666Y-109016666D01*
X193533333Y-109050000D01*
X193566666Y-109083333D01*
X193600000Y-109150000D01*
X193633333Y-109283333D01*
X193633333Y-109450000D01*
X193600000Y-109583333D01*
X193566666Y-109650000D01*
X193533333Y-109683333D01*
X193466666Y-109716666D01*
X193400000Y-109716666D01*
X193333333Y-109683333D01*
X193300000Y-109650000D01*
X193266666Y-109583333D01*
X193233333Y-109450000D01*
X193233333Y-109283333D01*
X193266666Y-109150000D01*
X193300000Y-109083333D01*
X193333333Y-109050000D01*
X193400000Y-109016666D01*
X171300000Y-109716666D02*
X170900000Y-109716666D01*
X171100000Y-109716666D02*
X171100000Y-109016666D01*
X171033333Y-109116666D01*
X170966666Y-109183333D01*
X170900000Y-109216666D01*
%TO.C,R4*%
X173183336Y-120316665D02*
X172950003Y-119983332D01*
X172783336Y-120316665D02*
X172783336Y-119616665D01*
X173050003Y-119616665D01*
X173116669Y-119649999D01*
X173150003Y-119683332D01*
X173183336Y-119749999D01*
X173183336Y-119849999D01*
X173150003Y-119916665D01*
X173116669Y-119949999D01*
X173050003Y-119983332D01*
X172783336Y-119983332D01*
X173783336Y-119849999D02*
X173783336Y-120316665D01*
X173616669Y-119583332D02*
X173450003Y-120083332D01*
X173883336Y-120083332D01*
%TO.C,R3*%
X182833333Y-117066666D02*
X182600000Y-116733333D01*
X182433333Y-117066666D02*
X182433333Y-116366666D01*
X182700000Y-116366666D01*
X182766666Y-116400000D01*
X182800000Y-116433333D01*
X182833333Y-116500000D01*
X182833333Y-116600000D01*
X182800000Y-116666666D01*
X182766666Y-116700000D01*
X182700000Y-116733333D01*
X182433333Y-116733333D01*
X183066666Y-116366666D02*
X183500000Y-116366666D01*
X183266666Y-116633333D01*
X183366666Y-116633333D01*
X183433333Y-116666666D01*
X183466666Y-116700000D01*
X183500000Y-116766666D01*
X183500000Y-116933333D01*
X183466666Y-117000000D01*
X183433333Y-117033333D01*
X183366666Y-117066666D01*
X183166666Y-117066666D01*
X183100000Y-117033333D01*
X183066666Y-117000000D01*
%TO.C,R2*%
X182833333Y-113466666D02*
X182600000Y-113133333D01*
X182433333Y-113466666D02*
X182433333Y-112766666D01*
X182700000Y-112766666D01*
X182766666Y-112800000D01*
X182800000Y-112833333D01*
X182833333Y-112900000D01*
X182833333Y-113000000D01*
X182800000Y-113066666D01*
X182766666Y-113100000D01*
X182700000Y-113133333D01*
X182433333Y-113133333D01*
X183100000Y-112833333D02*
X183133333Y-112800000D01*
X183200000Y-112766666D01*
X183366666Y-112766666D01*
X183433333Y-112800000D01*
X183466666Y-112833333D01*
X183500000Y-112900000D01*
X183500000Y-112966666D01*
X183466666Y-113066666D01*
X183066666Y-113466666D01*
X183500000Y-113466666D01*
%TO.C,R1*%
X194383333Y-116266666D02*
X194150000Y-115933333D01*
X193983333Y-116266666D02*
X193983333Y-115566666D01*
X194250000Y-115566666D01*
X194316666Y-115600000D01*
X194350000Y-115633333D01*
X194383333Y-115700000D01*
X194383333Y-115800000D01*
X194350000Y-115866666D01*
X194316666Y-115900000D01*
X194250000Y-115933333D01*
X193983333Y-115933333D01*
X195050000Y-116266666D02*
X194650000Y-116266666D01*
X194850000Y-116266666D02*
X194850000Y-115566666D01*
X194783333Y-115666666D01*
X194716666Y-115733333D01*
X194650000Y-115766666D01*
%TO.C,C8*%
X179433333Y-117650000D02*
X179400000Y-117683333D01*
X179300000Y-117716666D01*
X179233333Y-117716666D01*
X179133333Y-117683333D01*
X179066666Y-117616666D01*
X179033333Y-117550000D01*
X179000000Y-117416666D01*
X179000000Y-117316666D01*
X179033333Y-117183333D01*
X179066666Y-117116666D01*
X179133333Y-117050000D01*
X179233333Y-117016666D01*
X179300000Y-117016666D01*
X179400000Y-117050000D01*
X179433333Y-117083333D01*
X179833333Y-117316666D02*
X179766666Y-117283333D01*
X179733333Y-117250000D01*
X179700000Y-117183333D01*
X179700000Y-117150000D01*
X179733333Y-117083333D01*
X179766666Y-117050000D01*
X179833333Y-117016666D01*
X179966666Y-117016666D01*
X180033333Y-117050000D01*
X180066666Y-117083333D01*
X180100000Y-117150000D01*
X180100000Y-117183333D01*
X180066666Y-117250000D01*
X180033333Y-117283333D01*
X179966666Y-117316666D01*
X179833333Y-117316666D01*
X179766666Y-117350000D01*
X179733333Y-117383333D01*
X179700000Y-117450000D01*
X179700000Y-117583333D01*
X179733333Y-117650000D01*
X179766666Y-117683333D01*
X179833333Y-117716666D01*
X179966666Y-117716666D01*
X180033333Y-117683333D01*
X180066666Y-117650000D01*
X180100000Y-117583333D01*
X180100000Y-117450000D01*
X180066666Y-117383333D01*
X180033333Y-117350000D01*
X179966666Y-117316666D01*
%TO.C,C7*%
X168583333Y-117650000D02*
X168550000Y-117683333D01*
X168450000Y-117716666D01*
X168383333Y-117716666D01*
X168283333Y-117683333D01*
X168216666Y-117616666D01*
X168183333Y-117550000D01*
X168150000Y-117416666D01*
X168150000Y-117316666D01*
X168183333Y-117183333D01*
X168216666Y-117116666D01*
X168283333Y-117050000D01*
X168383333Y-117016666D01*
X168450000Y-117016666D01*
X168550000Y-117050000D01*
X168583333Y-117083333D01*
X168816666Y-117016666D02*
X169283333Y-117016666D01*
X168983333Y-117716666D01*
%TO.C,C6*%
X177533333Y-115050000D02*
X177500000Y-115083333D01*
X177400000Y-115116666D01*
X177333333Y-115116666D01*
X177233333Y-115083333D01*
X177166666Y-115016666D01*
X177133333Y-114950000D01*
X177100000Y-114816666D01*
X177100000Y-114716666D01*
X177133333Y-114583333D01*
X177166666Y-114516666D01*
X177233333Y-114450000D01*
X177333333Y-114416666D01*
X177400000Y-114416666D01*
X177500000Y-114450000D01*
X177533333Y-114483333D01*
X178133333Y-114416666D02*
X178000000Y-114416666D01*
X177933333Y-114450000D01*
X177900000Y-114483333D01*
X177833333Y-114583333D01*
X177800000Y-114716666D01*
X177800000Y-114983333D01*
X177833333Y-115050000D01*
X177866666Y-115083333D01*
X177933333Y-115116666D01*
X178066666Y-115116666D01*
X178133333Y-115083333D01*
X178166666Y-115050000D01*
X178200000Y-114983333D01*
X178200000Y-114816666D01*
X178166666Y-114750000D01*
X178133333Y-114716666D01*
X178066666Y-114683333D01*
X177933333Y-114683333D01*
X177866666Y-114716666D01*
X177833333Y-114750000D01*
X177800000Y-114816666D01*
%TO.C,C5*%
X177533333Y-113450000D02*
X177500000Y-113483333D01*
X177400000Y-113516666D01*
X177333333Y-113516666D01*
X177233333Y-113483333D01*
X177166666Y-113416666D01*
X177133333Y-113350000D01*
X177100000Y-113216666D01*
X177100000Y-113116666D01*
X177133333Y-112983333D01*
X177166666Y-112916666D01*
X177233333Y-112850000D01*
X177333333Y-112816666D01*
X177400000Y-112816666D01*
X177500000Y-112850000D01*
X177533333Y-112883333D01*
X178166666Y-112816666D02*
X177833333Y-112816666D01*
X177800000Y-113150000D01*
X177833333Y-113116666D01*
X177900000Y-113083333D01*
X178066666Y-113083333D01*
X178133333Y-113116666D01*
X178166666Y-113150000D01*
X178200000Y-113216666D01*
X178200000Y-113383333D01*
X178166666Y-113450000D01*
X178133333Y-113483333D01*
X178066666Y-113516666D01*
X177900000Y-113516666D01*
X177833333Y-113483333D01*
X177800000Y-113450000D01*
%TO.C,C4*%
X194383333Y-113100000D02*
X194350000Y-113133333D01*
X194250000Y-113166666D01*
X194183333Y-113166666D01*
X194083333Y-113133333D01*
X194016666Y-113066666D01*
X193983333Y-113000000D01*
X193950000Y-112866666D01*
X193950000Y-112766666D01*
X193983333Y-112633333D01*
X194016666Y-112566666D01*
X194083333Y-112500000D01*
X194183333Y-112466666D01*
X194250000Y-112466666D01*
X194350000Y-112500000D01*
X194383333Y-112533333D01*
X194983333Y-112700000D02*
X194983333Y-113166666D01*
X194816666Y-112433333D02*
X194650000Y-112933333D01*
X195083333Y-112933333D01*
%TO.C,C3*%
X176133333Y-113500000D02*
X176100000Y-113533333D01*
X176000000Y-113566666D01*
X175933333Y-113566666D01*
X175833333Y-113533333D01*
X175766666Y-113466666D01*
X175733333Y-113400000D01*
X175700000Y-113266666D01*
X175700000Y-113166666D01*
X175733333Y-113033333D01*
X175766666Y-112966666D01*
X175833333Y-112900000D01*
X175933333Y-112866666D01*
X176000000Y-112866666D01*
X176100000Y-112900000D01*
X176133333Y-112933333D01*
X176366666Y-112866666D02*
X176800000Y-112866666D01*
X176566666Y-113133333D01*
X176666666Y-113133333D01*
X176733333Y-113166666D01*
X176766666Y-113200000D01*
X176800000Y-113266666D01*
X176800000Y-113433333D01*
X176766666Y-113500000D01*
X176733333Y-113533333D01*
X176666666Y-113566666D01*
X176466666Y-113566666D01*
X176400000Y-113533333D01*
X176366666Y-113500000D01*
%TO.C,C2*%
X194383333Y-114650000D02*
X194350000Y-114683333D01*
X194250000Y-114716666D01*
X194183333Y-114716666D01*
X194083333Y-114683333D01*
X194016666Y-114616666D01*
X193983333Y-114550000D01*
X193950000Y-114416666D01*
X193950000Y-114316666D01*
X193983333Y-114183333D01*
X194016666Y-114116666D01*
X194083333Y-114050000D01*
X194183333Y-114016666D01*
X194250000Y-114016666D01*
X194350000Y-114050000D01*
X194383333Y-114083333D01*
X194650000Y-114083333D02*
X194683333Y-114050000D01*
X194750000Y-114016666D01*
X194916666Y-114016666D01*
X194983333Y-114050000D01*
X195016666Y-114083333D01*
X195050000Y-114150000D01*
X195050000Y-114216666D01*
X195016666Y-114316666D01*
X194616666Y-114716666D01*
X195050000Y-114716666D01*
%TO.C,C1*%
X171595833Y-114000000D02*
X171562500Y-114033333D01*
X171462500Y-114066666D01*
X171395833Y-114066666D01*
X171295833Y-114033333D01*
X171229166Y-113966666D01*
X171195833Y-113900000D01*
X171162500Y-113766666D01*
X171162500Y-113666666D01*
X171195833Y-113533333D01*
X171229166Y-113466666D01*
X171295833Y-113400000D01*
X171395833Y-113366666D01*
X171462500Y-113366666D01*
X171562500Y-113400000D01*
X171595833Y-113433333D01*
X172262500Y-114066666D02*
X171862500Y-114066666D01*
X172062500Y-114066666D02*
X172062500Y-113366666D01*
X171995833Y-113466666D01*
X171929166Y-113533333D01*
X171862500Y-113566666D01*
%TO.C,J1*%
X173366666Y-115666666D02*
X173366666Y-116166666D01*
X173333333Y-116266666D01*
X173266666Y-116333333D01*
X173166666Y-116366666D01*
X173100000Y-116366666D01*
X174066666Y-116366666D02*
X173666666Y-116366666D01*
X173866666Y-116366666D02*
X173866666Y-115666666D01*
X173800000Y-115766666D01*
X173733333Y-115833333D01*
X173666666Y-115866666D01*
%TO.C,U1*%
X177866666Y-117916666D02*
X177866666Y-118483333D01*
X177900000Y-118550000D01*
X177933333Y-118583333D01*
X178000000Y-118616666D01*
X178133333Y-118616666D01*
X178200000Y-118583333D01*
X178233333Y-118550000D01*
X178266666Y-118483333D01*
X178266666Y-117916666D01*
X178966666Y-118616666D02*
X178566666Y-118616666D01*
X178766666Y-118616666D02*
X178766666Y-117916666D01*
X178700000Y-118016666D01*
X178633333Y-118083333D01*
X178566666Y-118116666D01*
%TD*%
M02*
