%TF.GenerationSoftware,KiCad,Pcbnew,(5.1.6)-1*%
%TF.CreationDate,2020-09-30T17:33:36+08:00*%
%TF.ProjectId,Crenshaw,4372656e-7368-4617-972e-6b696361645f,rev?*%
%TF.SameCoordinates,Original*%
%TF.FileFunction,Paste,Top*%
%TF.FilePolarity,Positive*%
%FSLAX46Y46*%
G04 Gerber Fmt 4.6, Leading zero omitted, Abs format (unit mm)*
G04 Created by KiCad (PCBNEW (5.1.6)-1) date 2020-09-30 17:33:36*
%MOMM*%
%LPD*%
G01*
G04 APERTURE LIST*
%ADD10R,1.200000X0.900000*%
%ADD11R,0.400000X3.000000*%
%ADD12R,1.060000X0.650000*%
G04 APERTURE END LIST*
D10*
%TO.C,D1*%
X169650000Y-115850000D03*
X169650000Y-112550000D03*
%TD*%
D11*
%TO.C,P1*%
X181650000Y-109350000D03*
X182350000Y-109350000D03*
X171850000Y-109350000D03*
X172550000Y-109350000D03*
X173250000Y-109350000D03*
X173950000Y-109350000D03*
X174650000Y-109350000D03*
X175350000Y-109350000D03*
X176050000Y-109350000D03*
X176750000Y-109350000D03*
X177450000Y-109350000D03*
X178150000Y-109350000D03*
X178850000Y-109350000D03*
X179550000Y-109350000D03*
X180300000Y-109350000D03*
X180950000Y-109350000D03*
X183050000Y-109350000D03*
X183750000Y-109350000D03*
X184450000Y-109350000D03*
X185150000Y-109350000D03*
X185850000Y-109350000D03*
X186550000Y-109350000D03*
X187250000Y-109350000D03*
X187950000Y-109350000D03*
X188650000Y-109350000D03*
X189350000Y-109350000D03*
X190050000Y-109350000D03*
X190750000Y-109350000D03*
X191450000Y-109350000D03*
X192150000Y-109350000D03*
%TD*%
%TO.C,R4*%
G36*
G01*
X173043750Y-116925000D02*
X173556250Y-116925000D01*
G75*
G02*
X173775000Y-117143750I0J-218750D01*
G01*
X173775000Y-117581250D01*
G75*
G02*
X173556250Y-117800000I-218750J0D01*
G01*
X173043750Y-117800000D01*
G75*
G02*
X172825000Y-117581250I0J218750D01*
G01*
X172825000Y-117143750D01*
G75*
G02*
X173043750Y-116925000I218750J0D01*
G01*
G37*
G36*
G01*
X173043750Y-118500000D02*
X173556250Y-118500000D01*
G75*
G02*
X173775000Y-118718750I0J-218750D01*
G01*
X173775000Y-119156250D01*
G75*
G02*
X173556250Y-119375000I-218750J0D01*
G01*
X173043750Y-119375000D01*
G75*
G02*
X172825000Y-119156250I0J218750D01*
G01*
X172825000Y-118718750D01*
G75*
G02*
X173043750Y-118500000I218750J0D01*
G01*
G37*
%TD*%
%TO.C,R3*%
G36*
G01*
X181724999Y-115956250D02*
X181724999Y-115443750D01*
G75*
G02*
X181943749Y-115225000I218750J0D01*
G01*
X182381249Y-115225000D01*
G75*
G02*
X182599999Y-115443750I0J-218750D01*
G01*
X182599999Y-115956250D01*
G75*
G02*
X182381249Y-116175000I-218750J0D01*
G01*
X181943749Y-116175000D01*
G75*
G02*
X181724999Y-115956250I0J218750D01*
G01*
G37*
G36*
G01*
X183299999Y-115956250D02*
X183299999Y-115443750D01*
G75*
G02*
X183518749Y-115225000I218750J0D01*
G01*
X183956249Y-115225000D01*
G75*
G02*
X184174999Y-115443750I0J-218750D01*
G01*
X184174999Y-115956250D01*
G75*
G02*
X183956249Y-116175000I-218750J0D01*
G01*
X183518749Y-116175000D01*
G75*
G02*
X183299999Y-115956250I0J218750D01*
G01*
G37*
%TD*%
%TO.C,R2*%
G36*
G01*
X181725000Y-114406250D02*
X181725000Y-113893750D01*
G75*
G02*
X181943750Y-113675000I218750J0D01*
G01*
X182381250Y-113675000D01*
G75*
G02*
X182600000Y-113893750I0J-218750D01*
G01*
X182600000Y-114406250D01*
G75*
G02*
X182381250Y-114625000I-218750J0D01*
G01*
X181943750Y-114625000D01*
G75*
G02*
X181725000Y-114406250I0J218750D01*
G01*
G37*
G36*
G01*
X183300000Y-114406250D02*
X183300000Y-113893750D01*
G75*
G02*
X183518750Y-113675000I218750J0D01*
G01*
X183956250Y-113675000D01*
G75*
G02*
X184175000Y-113893750I0J-218750D01*
G01*
X184175000Y-114406250D01*
G75*
G02*
X183956250Y-114625000I-218750J0D01*
G01*
X183518750Y-114625000D01*
G75*
G02*
X183300000Y-114406250I0J218750D01*
G01*
G37*
%TD*%
%TO.C,R1*%
G36*
G01*
X191325000Y-116206250D02*
X191325000Y-115693750D01*
G75*
G02*
X191543750Y-115475000I218750J0D01*
G01*
X191981250Y-115475000D01*
G75*
G02*
X192200000Y-115693750I0J-218750D01*
G01*
X192200000Y-116206250D01*
G75*
G02*
X191981250Y-116425000I-218750J0D01*
G01*
X191543750Y-116425000D01*
G75*
G02*
X191325000Y-116206250I0J218750D01*
G01*
G37*
G36*
G01*
X192900000Y-116206250D02*
X192900000Y-115693750D01*
G75*
G02*
X193118750Y-115475000I218750J0D01*
G01*
X193556250Y-115475000D01*
G75*
G02*
X193775000Y-115693750I0J-218750D01*
G01*
X193775000Y-116206250D01*
G75*
G02*
X193556250Y-116425000I-218750J0D01*
G01*
X193118750Y-116425000D01*
G75*
G02*
X192900000Y-116206250I0J218750D01*
G01*
G37*
%TD*%
%TO.C,C8*%
G36*
G01*
X178325000Y-116556250D02*
X178325000Y-116043750D01*
G75*
G02*
X178543750Y-115825000I218750J0D01*
G01*
X178981250Y-115825000D01*
G75*
G02*
X179200000Y-116043750I0J-218750D01*
G01*
X179200000Y-116556250D01*
G75*
G02*
X178981250Y-116775000I-218750J0D01*
G01*
X178543750Y-116775000D01*
G75*
G02*
X178325000Y-116556250I0J218750D01*
G01*
G37*
G36*
G01*
X179900000Y-116556250D02*
X179900000Y-116043750D01*
G75*
G02*
X180118750Y-115825000I218750J0D01*
G01*
X180556250Y-115825000D01*
G75*
G02*
X180775000Y-116043750I0J-218750D01*
G01*
X180775000Y-116556250D01*
G75*
G02*
X180556250Y-116775000I-218750J0D01*
G01*
X180118750Y-116775000D01*
G75*
G02*
X179900000Y-116556250I0J218750D01*
G01*
G37*
%TD*%
%TO.C,C7*%
G36*
G01*
X171937500Y-117093750D02*
X171937500Y-117606250D01*
G75*
G02*
X171718750Y-117825000I-218750J0D01*
G01*
X171281250Y-117825000D01*
G75*
G02*
X171062500Y-117606250I0J218750D01*
G01*
X171062500Y-117093750D01*
G75*
G02*
X171281250Y-116875000I218750J0D01*
G01*
X171718750Y-116875000D01*
G75*
G02*
X171937500Y-117093750I0J-218750D01*
G01*
G37*
G36*
G01*
X170362500Y-117093750D02*
X170362500Y-117606250D01*
G75*
G02*
X170143750Y-117825000I-218750J0D01*
G01*
X169706250Y-117825000D01*
G75*
G02*
X169487500Y-117606250I0J218750D01*
G01*
X169487500Y-117093750D01*
G75*
G02*
X169706250Y-116875000I218750J0D01*
G01*
X170143750Y-116875000D01*
G75*
G02*
X170362500Y-117093750I0J-218750D01*
G01*
G37*
%TD*%
%TO.C,C6*%
G36*
G01*
X178324999Y-115006248D02*
X178324999Y-114493748D01*
G75*
G02*
X178543749Y-114274998I218750J0D01*
G01*
X178981249Y-114274998D01*
G75*
G02*
X179199999Y-114493748I0J-218750D01*
G01*
X179199999Y-115006248D01*
G75*
G02*
X178981249Y-115224998I-218750J0D01*
G01*
X178543749Y-115224998D01*
G75*
G02*
X178324999Y-115006248I0J218750D01*
G01*
G37*
G36*
G01*
X179899999Y-115006248D02*
X179899999Y-114493748D01*
G75*
G02*
X180118749Y-114274998I218750J0D01*
G01*
X180556249Y-114274998D01*
G75*
G02*
X180774999Y-114493748I0J-218750D01*
G01*
X180774999Y-115006248D01*
G75*
G02*
X180556249Y-115224998I-218750J0D01*
G01*
X180118749Y-115224998D01*
G75*
G02*
X179899999Y-115006248I0J218750D01*
G01*
G37*
%TD*%
%TO.C,C5*%
G36*
G01*
X178325001Y-113456249D02*
X178325001Y-112943749D01*
G75*
G02*
X178543751Y-112724999I218750J0D01*
G01*
X178981251Y-112724999D01*
G75*
G02*
X179200001Y-112943749I0J-218750D01*
G01*
X179200001Y-113456249D01*
G75*
G02*
X178981251Y-113674999I-218750J0D01*
G01*
X178543751Y-113674999D01*
G75*
G02*
X178325001Y-113456249I0J218750D01*
G01*
G37*
G36*
G01*
X179900001Y-113456249D02*
X179900001Y-112943749D01*
G75*
G02*
X180118751Y-112724999I218750J0D01*
G01*
X180556251Y-112724999D01*
G75*
G02*
X180775001Y-112943749I0J-218750D01*
G01*
X180775001Y-113456249D01*
G75*
G02*
X180556251Y-113674999I-218750J0D01*
G01*
X180118751Y-113674999D01*
G75*
G02*
X179900001Y-113456249I0J218750D01*
G01*
G37*
%TD*%
%TO.C,C4*%
G36*
G01*
X193775001Y-112593751D02*
X193775001Y-113106251D01*
G75*
G02*
X193556251Y-113325001I-218750J0D01*
G01*
X193118751Y-113325001D01*
G75*
G02*
X192900001Y-113106251I0J218750D01*
G01*
X192900001Y-112593751D01*
G75*
G02*
X193118751Y-112375001I218750J0D01*
G01*
X193556251Y-112375001D01*
G75*
G02*
X193775001Y-112593751I0J-218750D01*
G01*
G37*
G36*
G01*
X192200001Y-112593751D02*
X192200001Y-113106251D01*
G75*
G02*
X191981251Y-113325001I-218750J0D01*
G01*
X191543751Y-113325001D01*
G75*
G02*
X191325001Y-113106251I0J218750D01*
G01*
X191325001Y-112593751D01*
G75*
G02*
X191543751Y-112375001I218750J0D01*
G01*
X191981251Y-112375001D01*
G75*
G02*
X192200001Y-112593751I0J-218750D01*
G01*
G37*
%TD*%
%TO.C,C3*%
G36*
G01*
X175575000Y-112993750D02*
X175575000Y-113506250D01*
G75*
G02*
X175356250Y-113725000I-218750J0D01*
G01*
X174918750Y-113725000D01*
G75*
G02*
X174700000Y-113506250I0J218750D01*
G01*
X174700000Y-112993750D01*
G75*
G02*
X174918750Y-112775000I218750J0D01*
G01*
X175356250Y-112775000D01*
G75*
G02*
X175575000Y-112993750I0J-218750D01*
G01*
G37*
G36*
G01*
X174000000Y-112993750D02*
X174000000Y-113506250D01*
G75*
G02*
X173781250Y-113725000I-218750J0D01*
G01*
X173343750Y-113725000D01*
G75*
G02*
X173125000Y-113506250I0J218750D01*
G01*
X173125000Y-112993750D01*
G75*
G02*
X173343750Y-112775000I218750J0D01*
G01*
X173781250Y-112775000D01*
G75*
G02*
X174000000Y-112993750I0J-218750D01*
G01*
G37*
%TD*%
%TO.C,C2*%
G36*
G01*
X193775001Y-114143750D02*
X193775001Y-114656250D01*
G75*
G02*
X193556251Y-114875000I-218750J0D01*
G01*
X193118751Y-114875000D01*
G75*
G02*
X192900001Y-114656250I0J218750D01*
G01*
X192900001Y-114143750D01*
G75*
G02*
X193118751Y-113925000I218750J0D01*
G01*
X193556251Y-113925000D01*
G75*
G02*
X193775001Y-114143750I0J-218750D01*
G01*
G37*
G36*
G01*
X192200001Y-114143750D02*
X192200001Y-114656250D01*
G75*
G02*
X191981251Y-114875000I-218750J0D01*
G01*
X191543751Y-114875000D01*
G75*
G02*
X191325001Y-114656250I0J218750D01*
G01*
X191325001Y-114143750D01*
G75*
G02*
X191543751Y-113925000I218750J0D01*
G01*
X191981251Y-113925000D01*
G75*
G02*
X192200001Y-114143750I0J-218750D01*
G01*
G37*
%TD*%
%TO.C,C1*%
G36*
G01*
X173775000Y-114543750D02*
X173775000Y-115056250D01*
G75*
G02*
X173556250Y-115275000I-218750J0D01*
G01*
X173118750Y-115275000D01*
G75*
G02*
X172900000Y-115056250I0J218750D01*
G01*
X172900000Y-114543750D01*
G75*
G02*
X173118750Y-114325000I218750J0D01*
G01*
X173556250Y-114325000D01*
G75*
G02*
X173775000Y-114543750I0J-218750D01*
G01*
G37*
G36*
G01*
X172200000Y-114543750D02*
X172200000Y-115056250D01*
G75*
G02*
X171981250Y-115275000I-218750J0D01*
G01*
X171543750Y-115275000D01*
G75*
G02*
X171325000Y-115056250I0J218750D01*
G01*
X171325000Y-114543750D01*
G75*
G02*
X171543750Y-114325000I218750J0D01*
G01*
X171981250Y-114325000D01*
G75*
G02*
X172200000Y-114543750I0J-218750D01*
G01*
G37*
%TD*%
D12*
%TO.C,U1*%
X174950000Y-117350000D03*
X174950000Y-118300000D03*
X174950000Y-119250000D03*
X177150000Y-119250000D03*
X177150000Y-117350000D03*
%TD*%
M02*
